<?xml version="1.0" standalone="no"?>
<!DOCTYPE svg PUBLIC "-//W3C//DTD SVG 1.1//EN" "http://www.w3.org/Graphics/SVG/1.1/DTD/svg11.dtd" >
<svg xmlns="http://www.w3.org/2000/svg" xmlns:xlink="http://www.w3.org/1999/xlink" version="1.1">
<metadata>
Created by FontForge 20170731 at Fri Nov 12 15:52:55 2021
 By Aleksey,,,
Copyright (c) 2014 by Jonathan Hill. All rights reserved.
</metadata>
<defs>
<font id="Loew-Black" horiz-adv-x="1191" >
  <font-face 
    font-family="Loew Black"
    font-weight="900"
    font-stretch="normal"
    units-per-em="2048"
    panose-1="0 0 10 0 0 0 0 0 0 0"
    ascent="1583"
    descent="-465"
    x-height="1024"
    cap-height="1434"
    bbox="-217 -705 2746 2511"
    underline-thickness="102"
    underline-position="-307"
    unicode-range="U+0020-FB02"
  />
<missing-glyph horiz-adv-x="1024" 
d="M1024 0h-1024v1434h1024v-1434zM164 1331l348 -522l348 522h-696zM922 1239l-349 -522l349 -522v1044zM512 625l-348 -523h696zM451 717l-349 522v-1044z" />
    <glyph glyph-name="fi" unicode="fi" horiz-adv-x="1470" 
d="M545 1454q148 0 313 -51l-51 -254q-84 30 -133 27q-96 0 -96 -89v-63h794v-1024h-416v709h-378v-709h-418v709h-119v315h119v76q0 79 20.5 141t55.5 101.5t85 65t105 36t119 10.5z" />
    <glyph glyph-name="fl" unicode="fl" horiz-adv-x="1445" 
d="M545 1454q93 0 190 -20h629v-1434h-416v1149h-141q-84 30 -133 27q-96 0 -96 -89v-63h231v-315h-231v-709h-418v709h-119v315h119v76q0 79 20.5 141t55.5 101.5t85 65t105 36t119 10.5z" />
    <glyph glyph-name="f_f" unicode="ff" horiz-adv-x="1671" 
d="M545 1454q148 0 313 -51l-51 -254q-84 30 -133 27q-96 0 -96 -89v-63h417v76q0 79 20.5 141t55.5 101.5t85 65t105 36t119 10.5q149 0 314 -51l-52 -254q-84 30 -133 27q-96 0 -96 -89v-63h232v-315h-232v-709h-418v709h-417v-709h-418v709h-119v315h119v76
q0 79 20.5 141t55.5 101.5t85 65t105 36t119 10.5z" />
    <glyph glyph-name="f_f_i" unicode="ffi" horiz-adv-x="2306" 
d="M545 1454q148 0 313 -51l-51 -254q-84 30 -133 27q-96 0 -96 -89v-63h417v76q0 79 20.5 141t55.5 101.5t85 65t105 36t119 10.5q149 0 314 -51l-52 -254q-84 30 -133 27q-96 0 -96 -89v-63h795v-1024h-416v709h-379v-709h-418v709h-417v-709h-418v709h-119v315h119v76
q0 79 20.5 141t55.5 101.5t85 65t105 36t119 10.5z" />
    <glyph glyph-name="f_f_l" unicode="ffl" horiz-adv-x="2281" 
d="M545 1454q148 0 313 -51l-51 -254q-84 30 -133 27q-96 0 -96 -89v-63h417v76q0 79 20.5 141t55.5 101.5t85 65t105 36t119 10.5q94 0 191 -20h629v-1434h-416v1149h-142q-84 30 -133 27q-96 0 -96 -89v-63h232v-315h-232v-709h-418v709h-417v-709h-418v709h-119v315h119
v76q0 79 20.5 141t55.5 101.5t85 65t105 36t119 10.5z" />
    <glyph glyph-name=".notdef" horiz-adv-x="1024" 
d="M1024 0h-1024v1434h1024v-1434zM164 1331l348 -522l348 522h-696zM922 1239l-349 -522l349 -522v1044zM512 625l-348 -523h696zM451 717l-349 522v-1044z" />
    <glyph glyph-name=".null" horiz-adv-x="0" 
 />
    <glyph glyph-name="nonmarkingreturn" horiz-adv-x="682" 
 />
    <glyph glyph-name="space" unicode=" " horiz-adv-x="512" 
 />
    <glyph glyph-name="exclam" unicode="!" horiz-adv-x="587" 
d="M528 1434l-43 -988h-381l-43 988h467zM139 295q64 55 156 55q90 0 154 -55q63 -54 63 -131.5t-63 -132.5q-66 -54 -154 -54q-90 0 -156 54q-63 55 -63 132.5t63 131.5z" />
    <glyph glyph-name="quotedbl" unicode="&#x22;" horiz-adv-x="884" 
d="M385 1454l-29 -543h-268l-27 543h324zM823 1454l-26 -543h-269l-26 543h321z" />
    <glyph glyph-name="numbersign" unicode="#" horiz-adv-x="1544" 
d="M1333 1434l-49 -273h217l-55 -315h-217l-43 -240h217l-55 -315h-218l-51 -291h-321l51 291h-231l-52 -291h-321l51 291h-217l55 315h217l43 240h-217l56 315h217l47 273h321l-47 -273h232l49 273h321zM907 846h-231l-43 -240h231z" />
    <glyph glyph-name="dollar" unicode="$" horiz-adv-x="1454" 
d="M543 1675h368v-231q263 -35 457 -152l-186 -344q-121 60 -256.5 95.5t-237.5 35.5q-82 0 -82 -53q0 -20 35 -35q27 -12 184 -51q91 -24 156 -45q175 -54 252 -115q162 -113 162 -311q0 -200 -119.5 -324t-339.5 -155l-25 -2v-230h-368v240q-271 47 -482 186l199 332
q282 -156 574 -156q90 0 90 52q0 26 -13 39.5t-59.5 28.5t-153.5 38q-115 29 -135 35q-149 39 -227 82q-116 65 -156 127q-57 88 -57 205q0 192 110.5 312t309.5 157v239z" />
    <glyph glyph-name="percent" unicode="%" horiz-adv-x="1937" 
d="M1704 1468l-1102 -1503h-366l1099 1503h369zM426 1454q178 0 280.5 -111t102.5 -301q0 -189 -102 -301t-281 -112t-282 111t-103 302q0 188 102 300t283 112zM496 1159q-26 44 -71 44t-71 -44q-26 -42 -26 -119q0 -73 26 -118q26 -43 71 -43t71 43q26 45 26 118
q0 77 -26 119zM1513 -18q-179 0 -282 112t-103 299q0 189 103 301q101 113 282 113q182 0 283 -113q102 -111 102 -301t-103 -300.5t-282 -110.5zM1415 393q0 -74 27.5 -118t70.5 -44q42 0 70.5 44.5t28.5 117.5t-28 118.5t-71 45.5t-70.5 -45.5t-27.5 -118.5z" />
    <glyph glyph-name="ampersand" unicode="&#x26;" horiz-adv-x="1593" 
d="M807 1454q171 0 293 -98q123 -95 123 -252q-4 -140 -62 -225t-164 -140l-18 -10l125 -129q51 67 100 172l289 -137q-71 -171 -145 -279l155 -157l-313 -230l-94 103q-175 -118 -396 -129q-151 -9 -283 39.5t-216 149t-88 230.5q-9 245 311 422l20 13l-10 12
q-51 64 -72.5 116.5t-21.5 123.5q-1 94 41 173.5t109 130t150 77.5t167 24zM797 1167q-42 0 -74.5 -26.5t-32.5 -71.5q0 -25 8 -40.5t35 -47.5l25 -27l63 31q68 35 68 98q0 36 -27 60t-65 24zM844 348l-174 195l-27 -15q-107 -52 -104 -125q1 -56 46.5 -87t116.5 -29
q84 3 142 61z" />
    <glyph glyph-name="quotesingle" unicode="'" horiz-adv-x="444" 
d="M385 1454l-29 -543h-268l-27 543h324z" />
    <glyph glyph-name="parenleft" unicode="(" horiz-adv-x="700" 
d="M303 1552l352 -172q-62 -145 -102 -348q-41 -205 -41 -393q0 -198 43 -401q46 -217 104 -353l-354 -172q-106 185 -174 432q-70 253 -70 494q0 240 70 487q72 254 172 426z" />
    <glyph glyph-name="parenright" unicode=")" horiz-adv-x="700" 
d="M45 1380l352 172q100 -172 172 -426q70 -247 70 -487q0 -234 -72 -494q-70 -254 -172 -432l-354 172q59 132 106 353q43 203 43 401q0 193 -43 393q-40 203 -102 348z" />
    <glyph glyph-name="asterisk" unicode="*" horiz-adv-x="761" 
d="M502 1454l-6 -139l131 49l73 -229l-135 -37l88 -109l-196 -143l-76 117l-76 -117l-196 143l88 109l-136 37l76 229l129 -49l-6 139h242z" />
    <glyph glyph-name="plus" unicode="+" horiz-adv-x="1183" 
d="M1122 750v-318h-372v-373h-316v373h-373v318h373v370h316v-370h372z" />
    <glyph glyph-name="comma" unicode="," horiz-adv-x="536" 
d="M475 164q0 -45 -29 -92l-288 -420l-117 53l119 293q-56 23 -88.5 67.5t-32.5 98.5q0 78 63 132t154 54t155 -54t64 -132z" />
    <glyph glyph-name="hyphen" unicode="-" horiz-adv-x="835" 
d="M774 705v-347h-713v347h713z" />
    <glyph glyph-name="period" unicode="." horiz-adv-x="557" 
d="M276 350q90 0 155 -54.5t65 -131.5q4 -58 -37 -105t-99.5 -67t-125.5 -11.5t-111 50.5q-50 39 -60 97t14 107.5t78 84t121 30.5z" />
    <glyph glyph-name="slash" unicode="/" horiz-adv-x="1163" 
d="M1122 1468l-716 -1503h-367l717 1503h366z" />
    <glyph glyph-name="zero" unicode="0" horiz-adv-x="1466" 
d="M246 1219q179 194 485 194q310 0 486 -194t176 -523q0 -328 -176 -522t-486 -194q-306 0 -485 194q-176 194 -176 522q0 329 176 523zM731 1014q-95 0 -150 -85.5t-55 -232.5q0 -145 56 -231t149 -86q96 0 152 86q55 85 55 231q0 147 -55.5 232.5t-151.5 85.5z" />
    <glyph glyph-name="one" unicode="1" horiz-adv-x="884" 
d="M784 1393v-1393h-446v1001l-238 -53l-80 332l414 113h350z" />
    <glyph glyph-name="two" unicode="2" horiz-adv-x="1251" 
d="M647 1413q110 0 208 -30.5t174.5 -88t121.5 -150t45 -206.5q0 -133 -86 -248q-84 -112 -295 -270l-78 -58h473v-362h-1169v334l614 444q82 58 82 129q0 56 -32 85.5t-87 29.5q-69 0 -151 -41.5t-148 -112.5l-278 240q101 147 264.5 226t341.5 79z" />
    <glyph glyph-name="three" unicode="3" horiz-adv-x="1290" 
d="M1184 1393v-318l-297 -235q49 -10 108 -35q107 -50 165.5 -137t58.5 -203q0 -220 -158 -354q-155 -131 -414 -131q-308 0 -606 219l272 282q62 -56 147.5 -89.5t160.5 -31.5q68 3 108.5 33.5t40.5 91.5q0 104 -164 101q-81 0 -207 -27l-69 234l305 239h-494v361h1043z
" />
    <glyph glyph-name="four" unicode="4" horiz-adv-x="1388" 
d="M1182 1393v-824h168v-329h-168v-240h-447v240h-645l-59 344l639 809h512zM737 883l-235 -314h235v314z" />
    <glyph glyph-name="five" unicode="5" horiz-adv-x="1267" 
d="M1167 1393v-361h-604l-8 -141q79 20 170 20q105 0 194 -25.5t159.5 -77.5t110.5 -140.5t40 -206.5q0 -115 -45 -209t-122 -153t-176.5 -90t-211.5 -29q-180 0 -349 69t-284 195l227 258q79 -69 177 -109.5t180 -38.5q73 0 115 36.5t42 103.5q0 56 -41.5 92.5t-103.5 36.5
q-142 0 -227 -88l-281 139l39 719h999z" />
    <glyph glyph-name="six" unicode="6" horiz-adv-x="1296" 
d="M719 1413q263 0 477 -141l-184 -281q-109 68 -238 68q-98 0 -157 -51t-76 -148l-4 -33q121 68 276 68q217 0 330 -119q114 -117 114 -287q0 -93 -37 -182.5t-106 -163t-178.5 -118.5t-241.5 -45q-144 0 -259.5 43t-184.5 114q-66 70 -109 162q-69 162 -69 367
q0 356 167.5 553.5t479.5 193.5zM530 489q18 -180 162 -180q65 0 105 43q43 43 43 113t-43 113q-40 42 -104 43t-112.5 -37t-50.5 -95z" />
    <glyph glyph-name="seven" unicode="7" 
d="M1163 1393v-349l-585 -1044h-504l581 1010h-614v383h1122z" />
    <glyph glyph-name="eight" unicode="8" horiz-adv-x="1345" 
d="M1229 1034q0 -200 -193 -305q114 -52 176 -139t62 -201q0 -177 -168 -293t-434 -116q-265 0 -433.5 117t-168.5 292q0 231 237 342q-192 101 -192 303q0 162 157 271q159 108 400 108t397 -108q160 -109 160 -271zM524 965q0 -61 41 -97.5t107 -36.5t105.5 36.5
t39.5 97.5q0 57 -41 96t-104 39t-105.5 -39t-42.5 -96zM512 438q0 -60 44 -98.5t116 -38.5q71 0 115 38.5t44 98.5q0 63 -44 101.5t-117 38.5q-72 0 -115 -38.5t-43 -101.5z" />
    <glyph glyph-name="nine" unicode="9" horiz-adv-x="1296" 
d="M602 1413q144 0 258.5 -43t183.5 -115q68 -69 109 -163q72 -158 72 -363q0 -358 -167 -554t-480 -195q-264 0 -478 141l185 280q107 -67 237 -67q187 0 230 178q4 15 8 53q-122 -67 -277 -67q-216 0 -329 116q-115 121 -115 289q0 95 37 184.5t105.5 163t178 118
t242.5 44.5zM604 1083q-66 0 -106 -43q-41 -43 -41 -112.5t41 -112.5q41 -41 106 -41q66 0 110.5 34.5t51.5 94.5q-21 180 -162 180z" />
    <glyph glyph-name="colon" unicode=":" horiz-adv-x="536" 
d="M102 995q63 55 154 55t154 -55q66 -54 66 -130.5t-66 -131.5q-63 -55 -154 -55t-154 55t-63 131.5t63 130.5zM256 350q67 4 122 -30.5t79.5 -84t14 -107.5t-61.5 -97q-44 -42 -111 -50.5t-125.5 11.5t-98.5 67t-36 105q0 77 64 131.5t153 54.5z" />
    <glyph glyph-name="semicolon" unicode=";" horiz-adv-x="536" 
d="M102 995q63 55 154 55t154 -55q66 -54 66 -130.5t-66 -131.5q-63 -55 -154 -55t-154 55t-63 131.5t63 130.5zM256 350q91 0 155 -54t64 -132q0 -45 -29 -92l-288 -420l-117 53l119 293q-56 23 -88.5 67.5t-32.5 98.5q0 77 64 131.5t153 54.5z" />
    <glyph glyph-name="less" unicode="&#x3c;" horiz-adv-x="1167" 
d="M1106 1307v-408l-629 -188l629 -189v-407l-1045 377v438z" />
    <glyph glyph-name="equal" unicode="=" horiz-adv-x="1167" 
d="M1106 975v-318h-1045v318h1045zM1106 516v-317h-1045v317h1045z" />
    <glyph glyph-name="greater" unicode="&#x3e;" horiz-adv-x="1167" 
d="M61 1307l1045 -377v-438l-1045 -377v407l629 189l-629 188v408z" />
    <glyph glyph-name="question" unicode="?" horiz-adv-x="1202" 
d="M612 1454q239 0 384 -118.5t145 -323.5q0 -112 -55 -196t-181 -187l-26 -23q-21 -15 -41 -35q-35 -35 -35 -94l-2 -31h-379l-6 97q-7 83 41 172q17 30 73 86l52 45l53 47q53 47 53 88q0 43 -32.5 67.5t-86.5 24.5q-52 0 -86.5 -25.5t-40.5 -70.5l-403 41q35 206 186 319
q156 117 387 117zM610 350q67 3 122 -32t79.5 -84.5t14 -107t-61.5 -95.5q-44 -42 -111 -50.5t-125.5 11.5t-98.5 67t-36 105q0 75 64 130.5t153 55.5z" />
    <glyph glyph-name="at" unicode="@" horiz-adv-x="2037" 
d="M1018 1454q222 0 403.5 -71t302.5 -197.5t186.5 -301.5t65.5 -382q0 -97 -27 -177.5t-74 -136.5t-111 -94.5t-137 -57t-154 -20.5q-197 -3 -369 90v91q-94 -105 -232 -105q-152 0 -237 113q-84 116 -84 287q0 168 84 284q86 115 237 115q133 0 232 -105v91h313v-558
q28 -4 39 -4q72 0 121 52.5t49 130.5q0 275 -166 450q-163 178 -442 178q-277 0 -440 -178q-164 -176 -164 -450q0 -276 164 -455q167 -176 440 -176q97 0 184 20l80 -313q-135 -29 -264 -29q-217 -1 -398 70.5t-304.5 198.5t-190.5 304t-64 384q-4 204 62 380t188 303
t304.5 198.5t402.5 70.5zM989 627q-54 0 -92.5 -39.5t-38.5 -95.5t38.5 -96t92.5 -40q77 0 115 72v127q-38 72 -115 72z" />
    <glyph glyph-name="A" unicode="A" horiz-adv-x="1765" 
d="M1171 1434l553 -1434h-532l-74 219h-473l-72 -219h-532l547 1434h583zM881 936l-119 -363h239z" />
    <glyph glyph-name="B" unicode="B" horiz-adv-x="1509" 
d="M123 0v1434h803q225 0 347 -94t122 -273q0 -227 -199 -315q126 -43 189 -138t63 -219q0 -62 -15 -117.5t-51 -107t-91 -89t-141 -59.5t-194 -22h-833zM569 1071v-201h224q137 0 137 101q0 100 -137 100h-224zM569 575v-213h275q89 -5 126.5 51t0 112t-126.5 50h-275z" />
    <glyph glyph-name="C" unicode="C" horiz-adv-x="1536" 
d="M848 1454q192 0 358.5 -88.5t268.5 -237.5l-388 -215q-82 123 -235 123q-131 0 -213 -92t-82 -227q0 -137 82 -228q83 -92 213 -92q152 0 235 123l388 -215q-105 -153 -270.5 -239t-356.5 -86q-150 -4 -291 55t-244 159.5t-164 238.5t-57 284q-4 146 57 284t164 238
t244 159t291 56z" />
    <glyph glyph-name="D" unicode="D" horiz-adv-x="1615" 
d="M123 0v1434h631q154 3 297.5 -53t248 -152.5t166 -231.5t58.5 -282q4 -194 -101 -361t-284 -262.5t-385 -91.5h-631zM737 1036h-168v-639h168q139 0 234 92q98 91 98 228q0 136 -98 227q-95 92 -234 92z" />
    <glyph glyph-name="E" unicode="E" horiz-adv-x="1396" 
d="M1325 1434v-400h-756v-119h705v-378h-705v-138h766v-399h-1212v1434h1202z" />
    <glyph glyph-name="F" unicode="F" horiz-adv-x="1341" 
d="M1280 1434v-400h-711v-188h648v-379h-648v-467h-446v1434h1157z" />
    <glyph glyph-name="G" unicode="G" horiz-adv-x="1622" 
d="M891 1454q330 -3 575 -213l-290 -303q-121 106 -285 106q-140 0 -238 -88q-96 -90 -96 -239q0 -135 84 -228q86 -92 223 -92q122 0 223 49v84h-196v316h620v-649q-284 -217 -647 -217q-153 -4 -297.5 55t-249 159.5t-166.5 238t-59 284.5q0 170 66.5 314t181.5 237
q112 92 254.5 140t296.5 46z" />
    <glyph glyph-name="H" unicode="H" horiz-adv-x="1628" 
d="M1505 1434v-1434h-444v520h-492v-520h-446v1434h446v-514h492v514h444z" />
    <glyph glyph-name="I" unicode="I" horiz-adv-x="690" 
d="M569 1434v-1434h-446v1434h446z" />
    <glyph glyph-name="J" unicode="J" horiz-adv-x="1267" 
d="M700 1434h447v-840q0 -354 -160 -490q-78 -66 -180.5 -95t-247.5 -29q-200 0 -327 58.5t-191 190.5l358 230q38 -72 138 -72q163 0 163 207v840z" />
    <glyph glyph-name="K" unicode="K" horiz-adv-x="1585" 
d="M1534 1434l-500 -605l510 -829h-571l-232 473l-172 -209v-264h-446v1434h446v-516l369 516h596z" />
    <glyph glyph-name="L" unicode="L" horiz-adv-x="1282" 
d="M569 1434v-1035h672v-399h-1118v1434h446z" />
    <glyph glyph-name="M" unicode="M" horiz-adv-x="2013" 
d="M1890 1434v-1434h-438v838l-377 -637h-147l-377 637v-838h-438v1434h581l307 -504l308 504h581z" />
    <glyph glyph-name="N" unicode="N" horiz-adv-x="1607" 
d="M1495 1434v-1434h-457l-487 698v-698h-438v1434h458l488 -699v699h436z" />
    <glyph glyph-name="O" unicode="O" horiz-adv-x="1726" 
d="M475 1356q177 98 387 98q213 0 387 -98q179 -99 281 -269q104 -168 104 -370q0 -200 -103 -370t-282 -269q-174 -98 -387 -98q-208 0 -385 97.5t-282 268.5q-103 171 -103 371t102.5 370t280.5 269zM557 717q0 -135 84 -228q86 -92 223 -92q87 0 159.5 43t109.5 115
q38 73 38 161.5t-38 160.5q-37 74 -109 116.5t-162 42.5q-134 0 -219.5 -92t-85.5 -227z" />
    <glyph glyph-name="P" unicode="P" horiz-adv-x="1488" 
d="M123 0v1434h641q332 0 487.5 -128t155.5 -399q0 -266 -156.5 -392t-482.5 -126h-199v-389h-446zM745 1051h-176v-320h179q101 0 148.5 37.5t47.5 120.5q0 85 -47.5 123.5t-151.5 38.5z" />
    <glyph glyph-name="Q" unicode="Q" horiz-adv-x="1789" 
d="M1634 717q0 -236 -143 -428l207 -207l-238 -219l-215 213q-178 -96 -381 -96q-210 0 -387 97.5t-282 268.5q-103 171 -103 371q0 199 103 370q105 171 282 269t385 98q123 2 241 -35t214 -106.5t168.5 -161t111.5 -204.5t37 -230zM555 717q0 -136 86 -228t221 -92
q22 0 58 4l-138 140l238 219l137 -137q14 43 14 94q0 134 -86.5 226.5t-222.5 92.5q-134 0 -220.5 -92.5t-86.5 -226.5z" />
    <glyph glyph-name="R" unicode="R" horiz-adv-x="1521" 
d="M123 0v1434h653q357 0 514 -121q158 -122 158 -391q0 -178 -64.5 -288.5t-203.5 -164.5l303 -469h-512l-252 410h-53h-97v-410h-446zM799 1032h-230v-280h230q99 0 142.5 32.5t43.5 106.5q0 75 -43 108t-143 33z" />
    <glyph glyph-name="S" unicode="S" horiz-adv-x="1454" 
d="M737 1454q361 0 631 -162l-186 -344q-121 60 -256.5 95.5t-237.5 35.5q-82 0 -82 -53q0 -20 35 -35q27 -12 184 -51q91 -24 156 -45q175 -54 252 -115q162 -113 162 -311q0 -233 -161 -361t-452 -128q-413 0 -721 204l199 332q282 -156 574 -156q90 0 90 52
q0 26 -13 39.5t-59.5 28.5t-153.5 38q-148 39 -225 62q-92 29 -182 79q-168 107 -168 312q0 97 30.5 176.5t85.5 136t132 95t168.5 57t197.5 18.5z" />
    <glyph glyph-name="T" unicode="T" horiz-adv-x="1316" 
d="M1278 1434v-379h-395v-1055h-447v1055h-395v379h1237z" />
    <glyph glyph-name="U" unicode="U" horiz-adv-x="1568" 
d="M1012 1434h444v-768q0 -344 -171.5 -515t-496.5 -171q-323 0 -494 171t-171 515v768h446v-768q0 -279 222 -279q221 0 221 279v768z" />
    <glyph glyph-name="V" unicode="V" horiz-adv-x="1716" 
d="M1675 1434l-528 -1434h-584l-522 1434h532l283 -910l287 910h532z" />
    <glyph glyph-name="W" unicode="W" horiz-adv-x="2367" 
d="M2327 1434l-465 -1434h-455l-223 727l-223 -727h-455l-465 1434h498l217 -736l213 736h432l211 -736l217 736h498z" />
    <glyph glyph-name="X" unicode="X" horiz-adv-x="1617" 
d="M1556 1434l-464 -701l485 -733h-545l-227 373l-230 -373h-534l485 729l-465 705h545l207 -342l209 342h534z" />
    <glyph glyph-name="Y" unicode="Y" horiz-adv-x="1642" 
d="M1602 1434l-558 -949v-485h-446v479l-557 955h532l250 -478l252 478h527z" />
    <glyph glyph-name="Z" unicode="Z" horiz-adv-x="1411" 
d="M1325 1434v-312l-623 -729h648v-393h-1289v317l596 723h-544v394h1212z" />
    <glyph glyph-name="bracketleft" unicode="[" horiz-adv-x="731" 
d="M690 1536v-285h-233v-1235h233v-284h-629v1804h629z" />
    <glyph glyph-name="backslash" unicode="\" horiz-adv-x="1163" 
d="M41 1468h367l716 -1503h-366z" />
    <glyph glyph-name="bracketright" unicode="]" horiz-adv-x="731" 
d="M670 1536v-1804h-629v284h233v1235h-233v285h629z" />
    <glyph glyph-name="asciicircum" unicode="^" horiz-adv-x="1185" 
d="M852 1454l274 -762h-399l-135 432l-135 -432h-396l275 762h516z" />
    <glyph glyph-name="underscore" unicode="_" horiz-adv-x="1359" 
d="M1298 -106v-238h-1237v238h1237z" />
    <glyph glyph-name="grave" unicode="`" horiz-adv-x="800" 
d="M489 1491l252 -365h-356l-324 365h428z" />
    <glyph glyph-name="a" unicode="a" horiz-adv-x="1198" 
d="M670 1044q95 0 173 -20.5t141 -64t97.5 -119t34.5 -178.5v-662h-416v119q-133 -139 -315 -139q-142 0 -233 88t-91 229q0 140 97.5 219.5t265.5 79.5h276v25q0 104 -145 104q-131 -3 -279 -80l-116 264q252 132 510 135zM700 260v180h-110q-117 0 -117 -102
q0 -51 28.5 -82t73.5 -31q72 0 125 35z" />
    <glyph glyph-name="b" unicode="b" horiz-adv-x="1308" 
d="M92 1434h416v-529q133 139 311 139q133 0 231.5 -72.5t147.5 -192t49 -267.5q0 -231 -114 -381q-115 -151 -314 -151q-178 0 -311 139v-119h-416v1434zM664 692q-49 0 -91 -26t-65 -70v-168q23 -44 65 -70t91 -26q72 0 123 53t51 127t-51 127t-123 53z" />
    <glyph glyph-name="c" unicode="c" horiz-adv-x="1142" 
d="M623 1044q144 0 268 -64.5t203 -176.5l-318 -174q-51 63 -133 63q-71 0 -122.5 -52.5t-51.5 -127.5q0 -74 51 -127t123 -53q82 0 133 63l318 -174q-79 -112 -203 -176.5t-268 -64.5q-233 0 -398 155q-164 156 -164 377t164 377q165 155 398 155z" />
    <glyph glyph-name="d" unicode="d" horiz-adv-x="1308" 
d="M799 1434h415v-1434h-415v119q-133 -139 -310 -139q-200 0 -315 151t-115 381t115 381t315 151q177 0 310 -139v529zM645 692q-73 0 -124.5 -53t-51.5 -127t51.5 -127t124.5 -53q49 0 90 25.5t64 70.5v168q-23 45 -64 70.5t-90 25.5z" />
    <glyph glyph-name="e" unicode="e" 
d="M602 1044q247 0 391 -153q148 -151 148 -379v-98h-678q3 -64 56 -99.5t130 -35.5q120 0 195 69l215 -192q-188 -176 -447 -176q-227 0 -389 155t-162 377q0 219 158 377q158 155 383 155zM610 752q-60 0 -101.5 -42.5t-41.5 -103.5h287q0 64 -39.5 105t-104.5 41z" />
    <glyph glyph-name="f" unicode="f" horiz-adv-x="835" 
d="M545 1454q148 0 313 -51l-51 -254q-84 30 -133 27q-96 0 -96 -89v-63h231v-315h-231v-709h-418v709h-119v315h119v76q0 79 20.5 141t55.5 101.5t85 65t105 36t119 10.5z" />
    <glyph glyph-name="g" unicode="g" horiz-adv-x="1329" 
d="M500 1044q176 0 309 -139v119h416v-983q0 -101 -28.5 -180.5t-77.5 -132.5t-119 -88t-149 -50.5t-171 -15.5q-301 3 -598 152l117 268q213 -104 393 -107q101 -2 159 37t58 117v80q-121 -121 -309 -121q-204 0 -318 141q-112 141 -112 371q0 231 114 381q115 151 316 151
zM655 692q-73 0 -124.5 -52.5t-51.5 -127.5q0 -74 51.5 -127t124.5 -53q47 0 89 25.5t65 68.5v172q-23 43 -65 68.5t-89 25.5z" />
    <glyph glyph-name="h" unicode="h" horiz-adv-x="1302" 
d="M102 1434h416v-510q159 120 348 120q160 0 257.5 -84.5t97.5 -240.5v-719h-416v592q0 55 -29.5 86t-79.5 31q-96 0 -178 -60v-649h-416v1434z" />
    <glyph glyph-name="i" unicode="i" horiz-adv-x="634" 
d="M176 1401q63 54 152.5 54t152.5 -54t63 -128t-63 -128t-152.5 -54t-152.5 54t-63 128t63 128zM537 1024v-1024h-416v1024h416z" />
    <glyph glyph-name="j" unicode="j" horiz-adv-x="618" 
d="M158 1401q65 53 153 53q90 0 152 -53q63 -54 63 -128t-63 -128q-62 -53 -152 -53q-88 0 -153 53q-62 54 -62 128t62 128zM102 1024h418v-1092q0 -93 -30 -163t-83 -110t-116 -59.5t-137 -19.5q-121 0 -236 41l39 225q18 -6 35 -6q48 0 79 33t31 86v1065z" />
    <glyph glyph-name="k" unicode="k" horiz-adv-x="1290" 
d="M518 1434v-740l240 330h491l-321 -418l342 -606h-453l-178 305l-121 -137v-168h-416v1434h416z" />
    <glyph glyph-name="l" unicode="l" horiz-adv-x="610" 
d="M528 1434v-1434h-415v1434h415z" />
    <glyph glyph-name="m" unicode="m" horiz-adv-x="1945" 
d="M852 1044q201 0 287 -139q102 80 183 109.5t187 29.5q160 0 258.5 -85t98.5 -240v-719h-418v592q0 55 -29.5 86t-79.5 31q-83 0 -153 -43v-111v-555h-416v592q0 55 -29 86t-79 31q-84 0 -154 -43v-666h-416v1024h416v-115q73 65 165 100t179 35z" />
    <glyph glyph-name="n" unicode="n" horiz-adv-x="1292" 
d="M856 1044q160 0 257 -84.5t97 -240.5v-719h-415v592q0 55 -29.5 86t-79.5 31q-96 0 -178 -60v-649h-416v1024h416v-100q159 120 348 120z" />
    <glyph glyph-name="o" unicode="o" horiz-adv-x="1302" 
d="M651 1044q156 3 294 -69.5t219 -197t77 -265.5q0 -222 -174 -377q-171 -155 -416 -155q-244 0 -418 155q-172 156 -172 377t172 377q174 155 418 155zM649 692q-55 3 -100.5 -30.5t-65.5 -81.5t-11.5 -103t50.5 -92q37 -42 91.5 -50.5t102.5 11.5t81 65.5t30 100.5
q0 75 -52 127.5t-126 52.5z" />
    <glyph glyph-name="p" unicode="p" horiz-adv-x="1339" 
d="M827 1044q199 0 314 -151q114 -150 114 -381t-114 -381q-115 -151 -316 -151q-176 0 -309 139v-518h-416v1423h416v-119q133 139 311 139zM672 692q-49 0 -91 -26t-65 -70v-168q23 -44 65 -70t91 -26q72 0 123 53t51 127t-52 127t-122 53z" />
    <glyph glyph-name="q" unicode="q" horiz-adv-x="1308" 
d="M489 1044q177 0 310 -139v119h415v-1423h-415v518q-133 -139 -310 -139q-200 0 -315 151t-115 381t115 381t315 151zM645 692q-73 0 -124.5 -53t-51.5 -127t51.5 -127t124.5 -53q49 0 90 25.5t64 70.5v168q-23 45 -64 70.5t-90 25.5z" />
    <glyph glyph-name="r" unicode="r" horiz-adv-x="847" 
d="M829 1044v-335q-184 0 -321 -174v-535h-416v1024h416v-186q72 99 155.5 152.5t165.5 53.5z" />
    <glyph glyph-name="s" unicode="s" horiz-adv-x="1064" 
d="M526 1044q262 0 457 -116l-135 -252q-175 94 -324 94q-53 0 -53 -39q0 -14 21 -23.5t98 -29.5q178 -45 293 -117q118 -73 118 -231q0 -167 -115.5 -258.5t-324.5 -91.5q-297 0 -522 147l143 240q183 -113 375 -113q59 0 59 37q0 22 -16 28q-17 10 -102 31l-133 39
q-147 54 -203 107q-78 78 -78 200q0 114 59.5 194t157.5 117t225 37z" />
    <glyph glyph-name="t" unicode="t" horiz-adv-x="927" 
d="M578 1278v-254h231v-315h-231v-299q0 -46 28.5 -70.5t77.5 -24.5q68 0 133 39l51 -280q-174 -91 -348 -94q-161 -2 -259.5 91.5t-98.5 266.5v371h-121v315h121v254h416z" />
    <glyph glyph-name="u" unicode="u" horiz-adv-x="1282" 
d="M82 1024h416v-592q0 -55 29.5 -86t80.5 -31q98 0 176 60v649h416v-1024h-416v100q-159 -120 -348 -120q-159 0 -256.5 85t-97.5 240v719z" />
    <glyph glyph-name="v" unicode="v" horiz-adv-x="1292" 
d="M1274 1024l-369 -1024h-516l-369 1024h443l184 -600l184 600h443z" />
    <glyph glyph-name="w" unicode="w" horiz-adv-x="1716" 
d="M1698 1024l-291 -1024h-444l-105 403l-102 -403h-447l-289 1024h414l119 -575l147 575h318l145 -575l119 575h416z" />
    <glyph glyph-name="x" unicode="x" horiz-adv-x="1228" 
d="M1206 1024l-352 -512l354 -512h-473l-125 233l-127 -233h-465l355 512l-355 512h471l125 -231l127 231h465z" />
    <glyph glyph-name="y" unicode="y" horiz-adv-x="1280" 
d="M829 1024h433l-416 -1114q-124 -330 -447 -330q-152 -3 -379 82l115 270q141 -54 223 -45q74 9 121 74l6 8l-432 1055h439l176 -537z" />
    <glyph glyph-name="z" unicode="z" horiz-adv-x="1105" 
d="M1036 1024v-266l-397 -424h418v-334h-1006v266l395 424h-354v334h944z" />
    <glyph glyph-name="braceleft" unicode="{" horiz-adv-x="772" 
d="M731 1536v-268h-72q-71 0 -71 -66v-346q0 -158 -99 -223q99 -65 99 -223v-344q0 -68 71 -68h72v-268h-225q-311 0 -311 284v396q0 34 -22.5 55.5t-55.5 21.5h-56v291h56q35 0 56.5 22.5t21.5 55.5v395q0 285 311 285h225z" />
    <glyph glyph-name="bar" unicode="|" horiz-adv-x="665" 
d="M545 1536v-1849h-422v1849h422z" />
    <glyph glyph-name="braceright" unicode="}" horiz-adv-x="772" 
d="M41 1268v268h225q312 0 312 -285v-395q0 -32 22.5 -55t54.5 -23h56v-291h-56q-32 0 -54.5 -22.5t-22.5 -54.5v-396q0 -284 -312 -284h-225v268h72q71 0 71 68v344q0 159 101 223q-101 64 -101 223v346q0 66 -71 66h-72z" />
    <glyph glyph-name="asciitilde" unicode="~" horiz-adv-x="1114" 
d="M281 862q78 16 122 8q50 -9 152 -43l33 -10q106 -38 139 -45q28 -6 66 0q60 15 79 82l197 -20q29 -158 -20.5 -265t-161.5 -137q-78 -16 -125 -8q-49 9 -150 43l-32 10q-120 43 -142 45q-26 6 -63 0q-61 -15 -80 -82l-197 21q-29 158 21 264.5t162 136.5z" />
    <glyph glyph-name="exclamdown" unicode="&#xa1;" horiz-adv-x="587" 
d="M139 989q64 55 156 55q90 0 154 -55q63 -54 63 -131.5t-63 -132.5q-65 -53 -154 -53q-91 0 -156 53q-63 55 -63 132.5t63 131.5zM485 575l43 -987h-467l43 987h381z" />
    <glyph glyph-name="cent" unicode="&#xa2;" horiz-adv-x="1142" 
d="M449 1266h327v-242q202 -53 318 -221l-318 -174q-51 63 -133 63q-72 0 -123 -53t-51 -127q0 -75 51.5 -127.5t122.5 -52.5q82 0 133 63l318 -174q-116 -168 -318 -221v-242h-327v248q-171 53 -279 191q-109 139 -109 315q0 174 109 313q110 141 279 193v248z" />
    <glyph glyph-name="sterling" unicode="&#xa3;" horiz-adv-x="1355" 
d="M815 1454q302 0 469 -182l-233 -260q-79 67 -207 67q-144 0 -144 -131v-127h435v-293h-435v-172h594v-356h-1194v356h156v172h-156v295h156v176q0 225 146 340t413 115z" />
    <glyph glyph-name="currency" unicode="&#xa4;" horiz-adv-x="1228" 
 />
    <glyph glyph-name="yen" unicode="&#xa5;" horiz-adv-x="1642" 
d="M1602 1434l-328 -560h158v-292h-332l-56 -97v-32h388v-295h-388v-158h-446v158h-387v295h387v26l-59 103h-328v295h156l-326 557h532l250 -478l252 478h527z" />
    <glyph glyph-name="brokenbar" unicode="&#xa6;" horiz-adv-x="665" 
d="M545 1536v-786h-422v786h422zM545 473v-786h-422v786h422z" />
    <glyph glyph-name="section" unicode="&#xa7;" horiz-adv-x="1286" 
d="M649 1454q316 0 553 -141l-162 -301q-107 53 -224.5 83.5t-209.5 30.5q-71 0 -71 -47q1 -11 11 -18.5t51.5 -20.5t129.5 -34q196 -52 297 -105q101 -50 149 -121.5t52 -185.5q0 -166 -95 -275q95 -89 95 -235q0 -208 -140 -318t-395 -110q-359 0 -631 178l174 291
q247 -137 502 -137q78 0 78 45q0 31 -31 47q-18 10 -166 47q-77 19 -176 47q-69 20 -149 59q-178 87 -178 287q0 172 100 275q-100 87 -100 233q0 87 27.5 158t76.5 120.5t117 83t147 49t168 15.5zM606 618q-71 0 -71 -47q0 -18 24 -30q54 -18 152 -39q12 -4 24 -4
q78 0 78 45q0 24 -9.5 34.5t-45.5 22.5q-82 18 -152 18z" />
    <glyph glyph-name="dieresis" unicode="&#xa8;" horiz-adv-x="880" 
d="M109 1446q49 50 121.5 50t119.5 -50q50 -47 50 -119.5t-50 -122.5q-47 -47 -119.5 -47t-121.5 47q-47 50 -47 122.5t47 119.5zM530 1446q50 50 122.5 50t119.5 -50q50 -47 50 -119.5t-50 -122.5q-47 -47 -119.5 -47t-122.5 47q-47 50 -47 122.5t47 119.5z" />
    <glyph glyph-name="copyright" unicode="&#xa9;" horiz-adv-x="1595" 
d="M1534 717q3 -147 -56.5 -284.5t-159.5 -238t-237.5 -159.5t-283.5 -55q-147 -4 -284.5 55t-238 159.5t-160 238t-55.5 284.5q0 150 58.5 286.5t157 235.5t235.5 157t287 58q200 0 369.5 -98.5t268.5 -268t99 -370.5zM1133 1057q-141 141 -338 141q-195 0 -336 -141
q-142 -142 -142 -338q0 -194 142 -336q142 -139 338 -139q197 0 336 139q141 141 141 336q0 197 -141 338zM795 1098q102 0 191 -49t140 -129l-215 -121q-41 65 -114 65q-59 0 -97 -41.5t-38 -105.5t38 -106t97 -42q73 0 114 66l215 -121q-50 -81 -139 -129.5t-192 -48.5
q-161 0 -277 113q-115 115 -115 268t115 268q116 113 277 113z" />
    <glyph glyph-name="ordfeminine" unicode="&#xaa;" horiz-adv-x="821" 
d="M434 1446q64 0 116.5 -14t94 -43t65 -80t23.5 -119v-440h-278v79q-85 -94 -209 -94q-95 0 -155 58.5t-60 154.5q0 94 64 146.5t177 52.5h183v16q0 70 -97 70q-92 -3 -186 -53l-76 176q164 87 338 90zM455 924v120h-74q-78 0 -78 -69q0 -34 19.5 -55t50.5 -21q46 0 82 25z
" />
    <glyph glyph-name="guillemotleft" unicode="&#xab;" horiz-adv-x="1374" 
d="M457 1044l307 -157l-264 -344l264 -344l-311 -154l-392 498zM1028 1044l307 -157l-264 -344l264 -344l-311 -154l-391 498z" />
    <glyph glyph-name="logicalnot" unicode="&#xac;" horiz-adv-x="1433" 
 />
    <glyph glyph-name="registered" unicode="&#xae;" horiz-adv-x="1595" 
d="M1534 717q3 -147 -56.5 -284.5t-159.5 -238t-237.5 -159.5t-283.5 -55q-147 -4 -284.5 55t-238 159.5t-160 238t-55.5 284.5q0 150 58.5 286.5t157 235.5t235.5 157t287 58q200 0 369.5 -98.5t268.5 -268t99 -370.5zM1133 1057q-141 141 -338 141q-195 0 -336 -141
q-142 -142 -142 -338q0 -194 142 -336q142 -139 338 -139q197 0 336 139q141 141 141 336q0 197 -141 338zM500 408v645h297q158 0 230.5 -56t72.5 -178q0 -151 -111 -203l135 -208h-252l-108 178h-19h-24v-178h-221zM721 854v-96h86q38 0 51.5 10t13.5 37q0 29 -13.5 39
t-51.5 10h-86z" />
    <glyph glyph-name="overscore" unicode="&#xaf;" horiz-adv-x="860" 
d="M801 1454v-256h-740v256h740z" />
    <glyph glyph-name="degree" unicode="&#xb0;" horiz-adv-x="911" 
d="M850 1219q0 -157 -115.5 -271t-277.5 -114q-166 0 -281 112q-115 115 -115 273q0 157 115 272q116 113 279 113q165 0 278 -113q117 -114 117 -272zM457 1378q-68 0 -116 -46.5t-48 -112.5t48 -113t116 -47q66 0 113.5 47t47.5 113t-47.5 112.5t-113.5 46.5z" />
    <glyph glyph-name="plusminus" unicode="&#xb1;" horiz-adv-x="1183" 
d="M750 909h372v-317h-372v-324h-316v324h-373v317h373v324h316v-324zM61 -197v318h1061v-318h-1061z" />
    <glyph glyph-name="twosuperior" unicode="&#xb2;" horiz-adv-x="671" 
d="M346 1528q123 0 211 -70q88 -67 88 -186q0 -65 -37.5 -120.5t-126.5 -125.5l-30 -22h202v-220h-635v193l312 225q37 27 37 55q0 17 -11.5 27t-29.5 10q-68 0 -142 -86l-170 146q49 80 140.5 127t191.5 47z" />
    <glyph glyph-name="threesuperior" unicode="&#xb3;" horiz-adv-x="688" 
d="M643 1516v-185l-129 -102l21 -8q61 -30 94 -78t33 -109q0 -117 -87 -189.5t-223 -72.5q-176 0 -336 127l150 154q73 -67 153 -64q68 0 68 55q0 43 -65 43q-34 0 -103 -16l-39 135l137 92h-243v218h569z" />
    <glyph glyph-name="acute" unicode="&#xb4;" horiz-adv-x="800" 
d="M739 1491l-323 -365h-357l252 365h428z" />
    <glyph glyph-name="paragraph" unicode="&#xb6;" horiz-adv-x="1644" 
d="M698 1434h824v-1768h-348v1454h-127v-1454h-349v819h-55q-275 0 -418 131t-143 342q0 226 154 351t462 125z" />
    <glyph glyph-name="middot" unicode="&#xb7;" horiz-adv-x="557" 
d="M276 801q90 0 155 -54.5t65 -132.5q4 -58 -37 -105t-99.5 -67t-125.5 -11.5t-111 50.5q-50 39 -60 97t14 108t78 84.5t121 30.5z" />
    <glyph glyph-name="cedilla" unicode="&#xb8;" horiz-adv-x="622" 
d="M240 33h190l-59 -117q31 -3 59 -12q60 -20 94.5 -68.5t34.5 -111.5q0 -100 -73 -153.5t-193 -53.5q-129 0 -234 57l52 143q47 -24 108 -24q43 1 69.5 25t26.5 57q2 27 -15.5 47.5t-47.5 21.5q-24 0 -43 -8l-47 41z" />
    <glyph glyph-name="onesuperior" unicode="&#xb9;" horiz-adv-x="479" 
d="M442 1516v-734h-272v494l-113 -25l-49 201l230 64h204z" />
    <glyph glyph-name="ordmasculine" unicode="&#xba;" horiz-adv-x="935" 
d="M467 1446q162 0 277.5 -103.5t115.5 -250.5t-115.5 -252t-277.5 -105q-165 0 -279 105t-114 252t114 249q114 105 279 105zM549 1176q-35 35 -84 35t-86 -35q-35 -35 -35 -85t35 -85q37 -35 86 -35t84 35t35 85t-35 85z" />
    <glyph glyph-name="guillemotright" unicode="&#xbb;" horiz-adv-x="1374" 
d="M348 1044l395 -501l-393 -498l-309 154l264 344l-264 344zM920 1044l395 -501l-391 -498l-312 154l265 344l-265 344z" />
    <glyph glyph-name="onequarter" unicode="&#xbc;" horiz-adv-x="1478" 
d="M1350 1468l-949 -1503h-329l946 1503h332zM444 1434v-734h-272v494l-113 -25l-49 201l230 64h204zM1380 733v-411h82v-203h-84v-119h-260v119h-332l-32 194l329 420h297zM1120 473l-104 -151h104v151z" />
    <glyph glyph-name="onehalf" unicode="&#xbd;" horiz-adv-x="1544" 
d="M1350 1468l-949 -1503h-329l946 1503h332zM444 1434v-734h-272v494l-113 -25l-49 201l230 64h204zM1217 743q123 0 210 -69q89 -68 89 -187q0 -65 -37.5 -120t-126.5 -125l-31 -23h203v-219h-635v193l311 225q37 27 37 55q0 16 -12.5 26.5t-28.5 10.5q-67 0 -141 -86
l-170 145q49 80 140.5 127t191.5 47z" />
    <glyph glyph-name="threequarters" unicode="&#xbe;" horiz-adv-x="1585" 
d="M1462 1468l-946 -1503h-332l949 1503h329zM643 1434v-185l-129 -102l21 -10q60 -26 93.5 -75t33.5 -110q0 -117 -87 -189.5t-223 -72.5q-176 0 -336 127l150 154q73 -67 153 -64q68 0 68 56q0 43 -65 43q-30 0 -103 -17l-39 135l137 93h-243v217h569zM1487 733v-411h82
v-203h-84v-119h-258v119h-334l-33 194l332 420h295zM1227 473l-105 -151h105v151z" />
    <glyph glyph-name="questiondown" unicode="&#xbf;" horiz-adv-x="1202" 
d="M807 870q0 -77 -64 -131.5t-153 -54.5q-91 0 -156 53q-63 55 -63 132.5t63 131.5q46 44 113 52.5t125 -12t98.5 -67t36.5 -104.5zM399 588l379 -2l6 -97q8 -94 -43 -174q-14 -31 -73 -84q-18 -18 -52 -47l-51 -45q-53 -47 -53 -88q-6 -56 55.5 -79.5t125.5 0.5t65 83
l403 -41q-35 -205 -188 -317q-153 -117 -385 -117q-242 0 -385 119q-144 117 -144 324q0 112 55.5 196.5t180.5 183.5q7 6 21 17.5t19.5 16t16 14t14.5 14.5t11 14t9 16t5.5 17t4.5 21t1 24z" />
    <glyph glyph-name="Agrave" unicode="&#xc0;" horiz-adv-x="1765" 
d="M1171 1434l553 -1434h-532l-74 219h-473l-72 -219h-532l547 1434h583zM881 936l-119 -363h239zM809 1901l252 -365h-356l-324 365h428z" />
    <glyph glyph-name="Aacute" unicode="&#xc1;" horiz-adv-x="1765" 
d="M1372 1901l-325 -365h-355l252 365h428zM1171 1434l553 -1434h-532l-74 219h-473l-72 -219h-532l547 1434h583zM881 936l-119 -363h239z" />
    <glyph glyph-name="Acircumflex" unicode="&#xc2;" horiz-adv-x="1765" 
d="M1098 1901l252 -365h-342l-127 152l-127 -152h-342l252 365h434zM1171 1434l553 -1434h-532l-74 219h-473l-72 -219h-532l547 1434h583zM881 936l-119 -363h239z" />
    <glyph glyph-name="Atilde" unicode="&#xc3;" horiz-adv-x="1765" 
d="M649 1892q55 12 94 6t119 -34q135 -48 176 -45q52 3 70 67l154 -18q20 -127 -18.5 -212t-125.5 -108q-55 -12 -94 -6q-40 6 -117 33l-39 14q-96 33 -98 33q-22 4 -47 -2q-45 -12 -61 -66l-154 17q-23 126 16 211.5t125 109.5zM1171 1434l553 -1434h-532l-74 219h-473
l-72 -219h-532l547 1434h583zM881 936l-119 -363h239z" />
    <glyph glyph-name="Adieresis" unicode="&#xc4;" horiz-adv-x="1765" 
d="M1171 1434l553 -1434h-532l-74 219h-473l-72 -219h-532l547 1434h583zM881 936l-119 -363h239zM549 1855q49 49 122 49t120 -49q49 -47 49 -119t-49 -122q-47 -47 -120 -47t-122 47q-47 50 -47 122t47 119zM969 1855q49 49 121.5 49t119.5 -49q50 -47 50 -119t-50 -122
q-47 -47 -119.5 -47t-121.5 47q-47 50 -47 122t47 119z" />
    <glyph glyph-name="Aring" unicode="&#xc5;" horiz-adv-x="1765" 
d="M674 1933q87 84 207 84q119 0 206 -84t87 -202q0 -119 -87 -203t-206 -84q-120 0 -207 84q-86 83 -86 203q0 119 86 202zM950 1798q-29 29 -69.5 29t-69.5 -29q-29 -26 -29 -67t29 -70q29 -26 69.5 -26t69.5 26q29 29 29 70t-29 67zM1171 1434l553 -1434h-532l-74 219
h-473l-72 -219h-532l547 1434h583zM881 936l-119 -363h239z" />
    <glyph glyph-name="AE" unicode="&#xc6;" horiz-adv-x="2154" 
d="M2083 1434v-400h-756v-119h705v-378h-705v-138h766v-399h-1212v219h-236l-72 -219h-532l547 1434h1495zM881 936l-119 -363h119v363z" />
    <glyph glyph-name="Ccedilla" unicode="&#xc7;" horiz-adv-x="1536" 
d="M852 397q152 0 235 123l388 -215q-105 -153 -270.5 -239t-356.5 -86h-25l-30 -64q30 -3 57 -12q60 -20 94.5 -68.5t34.5 -111.5q0 -100 -73 -153.5t-193 -53.5q-129 0 -234 57l51 143q46 -24 109 -24q43 1 69.5 25t26.5 57q2 27 -15.5 47.5t-45.5 21.5q-26 0 -45 -8
l-47 41l63 129q-239 64 -397 262q-156 196 -156 449q-4 146 57 284t164 238t244 159t291 56q190 0 355.5 -87.5t271.5 -238.5l-388 -215q-82 123 -235 123q-131 0 -213 -92t-82 -227q0 -137 82 -228q83 -92 213 -92z" />
    <glyph glyph-name="Egrave" unicode="&#xc8;" horiz-adv-x="1396" 
d="M1325 1434v-400h-756v-119h705v-378h-705v-138h766v-399h-1212v1434h1202zM725 1901l252 -365h-356l-324 365h428z" />
    <glyph glyph-name="Eacute" unicode="&#xc9;" horiz-adv-x="1396" 
d="M1288 1901l-325 -365h-355l252 365h428zM1325 1434v-400h-756v-119h705v-378h-705v-138h766v-399h-1212v1434h1202z" />
    <glyph glyph-name="Ecircumflex" unicode="&#xca;" horiz-adv-x="1396" 
d="M1014 1901l252 -365h-342l-127 152l-127 -152h-342l252 365h434zM1325 1434v-400h-756v-119h705v-378h-705v-138h766v-399h-1212v1434h1202z" />
    <glyph glyph-name="Edieresis" unicode="&#xcb;" horiz-adv-x="1396" 
d="M586 1567q-72 0 -120 48.5t-48 121.5q0 71 47 118q49 49 122 49t120 -49q49 -46 49 -120q0 -72 -48.5 -120t-121.5 -48zM885 1855q49 49 121.5 49t119.5 -49q50 -47 50 -119t-50 -122q-47 -47 -119.5 -47t-121.5 47q-47 50 -47 122t47 119zM1325 1434v-400h-756v-119h705
v-378h-705v-138h766v-399h-1212v1434h1202z" />
    <glyph glyph-name="Igrave" unicode="&#xcc;" horiz-adv-x="690" 
d="M569 1434v-1434h-446v1434h446zM289 1901l252 -365h-357l-323 365h428z" />
    <glyph glyph-name="Iacute" unicode="&#xcd;" horiz-adv-x="690" 
d="M852 1901l-326 -365h-354l252 365h428zM569 1434v-1434h-446v1434h446z" />
    <glyph glyph-name="Icircumflex" unicode="&#xce;" horiz-adv-x="690" 
d="M578 1901l251 -365h-342l-127 152l-127 -152h-342l252 365h435zM569 1434v-1434h-446v1434h446z" />
    <glyph glyph-name="Idieresis" unicode="&#xcf;" horiz-adv-x="690" 
d="M29 1855q49 49 121.5 49t119.5 -49q50 -47 50 -119t-50 -122q-47 -47 -119 -47t-122 47q-47 50 -47 122t47 119zM449 1855q49 49 121.5 49t119.5 -49q50 -47 50 -119t-50 -122q-47 -47 -119.5 -47t-121.5 47q-47 50 -47 122t47 119zM569 1434v-1434h-446v1434h446z" />
    <glyph glyph-name="Eth" unicode="&#xd0;" horiz-adv-x="1636" 
d="M143 891v543h631q154 3 297.5 -53t248 -152.5t166 -231.5t58.5 -282q4 -194 -101 -361t-284 -262.5t-385 -91.5h-631v543h-123v348h123zM590 543v-146h168q138 0 233 92q99 91 99 228q0 135 -99 227q-95 92 -233 92h-168v-145h168v-348h-168z" />
    <glyph glyph-name="Ntilde" unicode="&#xd1;" horiz-adv-x="1607" 
d="M618 1892q55 12 95 6q37 -6 118 -34q135 -48 177 -45q51 3 69 67l152 -18q23 -126 -16 -211t-126 -109q-59 -11 -95 -6t-118 33l-38 14q-90 32 -99 33q-21 3 -45 -2q-48 -12 -63 -66l-152 17q-23 126 15.5 212t125.5 109zM1495 1434v-1434h-457l-487 698v-698h-438v1434
h458l488 -699v699h436z" />
    <glyph glyph-name="Ograve" unicode="&#xd2;" horiz-adv-x="1726" 
d="M791 1901l253 -365h-356l-323 365h426zM475 1356q177 98 387 98q213 0 387 -98q179 -99 281 -269q104 -168 104 -370q0 -200 -103 -370t-282 -269q-174 -98 -387 -98q-208 0 -385 97.5t-282 268.5q-103 171 -103 371t102.5 370t280.5 269zM557 717q0 -135 84 -228
q86 -92 223 -92q87 0 159.5 43t109.5 115q38 73 38 161.5t-38 160.5q-37 74 -109 116.5t-162 42.5q-134 0 -219.5 -92t-85.5 -227z" />
    <glyph glyph-name="Oacute" unicode="&#xd3;" horiz-adv-x="1726" 
d="M475 1356q177 98 387 98q213 0 387 -98q179 -99 281 -269q104 -168 104 -370q0 -200 -103 -370t-282 -269q-174 -98 -387 -98q-208 0 -385 97.5t-282 268.5q-103 171 -103 371t102.5 370t280.5 269zM557 717q0 -135 84 -228q86 -92 223 -92q87 0 159.5 43t109.5 115
q38 73 38 161.5t-38 160.5q-37 74 -109 116.5t-162 42.5q-134 0 -219.5 -92t-85.5 -227zM1354 1901l-324 -365h-356l252 365h428z" />
    <glyph glyph-name="Ocircumflex" unicode="&#xd4;" horiz-adv-x="1726" 
d="M1079 1901l254 -365h-344l-125 152l-127 -152h-344l254 365h432zM475 1356q177 98 387 98q213 0 387 -98q179 -99 281 -269q104 -168 104 -370q0 -200 -103 -370t-282 -269q-174 -98 -387 -98q-208 0 -385 97.5t-282 268.5q-103 171 -103 371t102.5 370t280.5 269z
M557 717q0 -135 84 -228q86 -92 223 -92q87 0 159.5 43t109.5 115q38 73 38 161.5t-38 160.5q-37 74 -109 116.5t-162 42.5q-134 0 -219.5 -92t-85.5 -227z" />
    <glyph glyph-name="Otilde" unicode="&#xd5;" horiz-adv-x="1726" 
d="M633 1892q56 12 96 6.5t115 -34.5q136 -48 178 -45q53 3 68 67l153 -18q23 -126 -15.5 -211t-125.5 -109q-57 -12 -96 -6q-40 6 -117 33l-39 14q-90 32 -98 33q-21 3 -45 -2q-49 -12 -64 -66l-154 17q-20 127 18.5 212.5t125.5 108.5zM475 1356q177 98 387 98
q213 0 387 -98q179 -99 281 -269q104 -168 104 -370q0 -200 -103 -370t-282 -269q-174 -98 -387 -98q-208 0 -385 97.5t-282 268.5q-103 171 -103 371t102.5 370t280.5 269zM557 717q0 -135 84 -228q86 -92 221 -92q137 0 223 92t86 228q0 134 -86.5 226.5t-222.5 92.5
q-134 0 -219.5 -92t-85.5 -227z" />
    <glyph glyph-name="Odieresis" unicode="&#xd6;" horiz-adv-x="1726" 
d="M653 1905q53 4 95 -27t60 -77t10 -99t-46 -88q-47 -47 -121 -47q-72 0 -120 48.5t-48 121.5q0 72 49 120t121 48zM952 1855q50 49 122.5 49t119.5 -49q50 -47 50 -119t-50 -122q-47 -47 -119.5 -47t-122.5 47q-47 50 -47 122t47 119zM475 1356q177 98 387 98
q213 0 387 -98q179 -99 281 -269q104 -168 104 -370q0 -200 -103 -370t-282 -269q-174 -98 -387 -98q-208 0 -385 97.5t-282 268.5q-103 171 -103 371t102.5 370t280.5 269zM557 717q0 -135 84 -228q86 -92 223 -92q87 0 159.5 43t109.5 115q38 73 38 161.5t-38 160.5
q-37 74 -109 116.5t-162 42.5q-134 0 -219.5 -92t-85.5 -227z" />
    <glyph glyph-name="multiply" unicode="&#xd7;" horiz-adv-x="1095" 
d="M811 1077l225 -223l-262 -264l262 -262l-225 -224l-262 263l-262 -263l-226 224l263 262l-263 264l226 223l262 -262z" />
    <glyph glyph-name="Oslash" unicode="&#xd8;" horiz-adv-x="1726" 
d="M1069 1536h367l-109 -229q144 -106 225.5 -260t81.5 -330q3 -147 -59 -284.5t-166.5 -238t-249 -159.5t-297.5 -55q-75 0 -157 16l-48 -98h-366l108 229q-144 106 -225.5 260t-81.5 330q-2 117 37 230t111.5 204.5t168.5 161t214 106.5t241 35q76 0 158 -16zM555 717
q0 -96 45 -170l231 487q-123 -12 -199.5 -100.5t-76.5 -216.5zM1126 887l-231 -488q124 12 199 101.5t75 216.5q0 94 -43 170z" />
    <glyph glyph-name="Ugrave" unicode="&#xd9;" horiz-adv-x="1568" 
d="M717 1901l254 -365h-357l-323 365h426zM1012 1434h444v-768q0 -344 -171.5 -515t-496.5 -171q-323 0 -494 171t-171 515v768h446v-768q0 -279 222 -279q221 0 221 279v768z" />
    <glyph glyph-name="Uacute" unicode="&#xda;" horiz-adv-x="1568" 
d="M1280 1901l-324 -365h-356l254 365h426zM1012 1434h444v-768q0 -344 -171.5 -515t-496.5 -171q-323 0 -494 171t-171 515v768h446v-768q0 -279 222 -279q221 0 221 279v768z" />
    <glyph glyph-name="Ucircumflex" unicode="&#xdb;" horiz-adv-x="1568" 
d="M1008 1901l252 -365h-345l-124 152l-127 -152h-342l251 365h435zM1012 1434h444v-768q0 -344 -171.5 -515t-496.5 -171q-323 0 -494 171t-171 515v768h446v-768q0 -279 222 -279q221 0 221 279v768z" />
    <glyph glyph-name="Udieresis" unicode="&#xdc;" horiz-adv-x="1568" 
d="M580 1567q-72 0 -121 48t-49 122q-4 53 27.5 95t77.5 59.5t98 9.5t87 -46q50 -47 50 -120q0 -72 -49 -120t-121 -48zM879 1855q49 49 121.5 49t119.5 -49q50 -47 50 -119t-50 -122q-47 -47 -119.5 -47t-121.5 47q-47 50 -47 122t47 119zM1012 1434h444v-768
q0 -344 -171.5 -515t-496.5 -171q-323 0 -494 171t-171 515v768h446v-768q0 -279 222 -279q221 0 221 279v768z" />
    <glyph glyph-name="Yacute" unicode="&#xdd;" horiz-adv-x="1642" 
d="M1311 1901l-326 -365h-354l252 365h428zM1599 1434l-557 -949v-485h-446v479l-557 955h532l250 -478l252 478h526z" />
    <glyph glyph-name="Thorn" unicode="&#xde;" horiz-adv-x="1488" 
d="M569 1434v-162h195q332 0 487.5 -128t155.5 -399q0 -266 -156.5 -392t-482.5 -126h-199v-227h-446v1434h446zM745 889h-176v-320h179q100 0 148 38.5t48 119.5q0 85 -47.5 123.5t-151.5 38.5z" />
    <glyph glyph-name="germandbls" unicode="&#xdf;" horiz-adv-x="1386" 
d="M680 1456q246 0 401 -104q156 -105 156 -287q0 -194 -174 -301q126 -53 195 -146.5t69 -216.5q0 -204 -160 -312.5t-442 -108.5q-64 0 -82 2l37 327q37 0 53 2q152 15 152 142q0 66 -44 104.5t-116 38.5h-45v287h14q58 0 92.5 32.5t34.5 88.5q0 51 -36 84.5t-91 33.5
t-91 -33.5t-36 -84.5v-1004h-444v901q0 270 143 412.5t414 142.5z" />
    <glyph glyph-name="agrave" unicode="&#xe0;" horiz-adv-x="1198" 
d="M596 1491l252 -365h-354l-324 365h426zM670 1044q95 0 173 -20.5t141 -64t97.5 -119t34.5 -178.5v-662h-416v119q-133 -139 -315 -139q-142 0 -233 88t-91 229q0 140 97.5 219.5t265.5 79.5h276v25q0 104 -145 104q-131 -3 -279 -80l-116 264q252 132 510 135zM700 260
v180h-110q-117 0 -117 -102q0 -51 28.5 -82t73.5 -31q72 0 125 35z" />
    <glyph glyph-name="aacute" unicode="&#xe1;" horiz-adv-x="1198" 
d="M1157 1491l-323 -365h-357l252 365h428zM668 1044q95 0 173 -20.5t141 -64t97.5 -119t34.5 -178.5v-662h-416v119q-133 -139 -315 -139q-142 0 -233 88t-91 229q0 140 97.5 219.5t265.5 79.5h276v25q0 104 -145 104q-131 -3 -279 -80l-116 264q252 132 510 135zM698 260
v180h-112q-115 0 -115 -102q0 -51 28.5 -82t73.5 -31q72 0 125 35z" />
    <glyph glyph-name="acircumflex" unicode="&#xe2;" horiz-adv-x="1198" 
d="M885 1491l254 -365h-344l-127 152l-125 -152h-344l254 365h432zM670 1044q95 0 173 -20.5t141 -64t97.5 -119t34.5 -178.5v-662h-416v119q-133 -139 -315 -139q-142 0 -233 88t-91 229q0 140 97.5 219.5t265.5 79.5h276v25q0 104 -145 104q-131 -3 -279 -80l-116 264
q252 132 510 135zM700 260v180h-110q-117 0 -117 -102q0 -51 28.5 -82t73.5 -31q72 0 125 35z" />
    <glyph glyph-name="atilde" unicode="&#xe3;" horiz-adv-x="1198" 
d="M438 1483q56 12 95.5 6.5t115.5 -35.5q136 -48 178 -45q53 3 68 68l154 -19q23 -125 -16.5 -210t-125.5 -109q-57 -12 -96 -6q-45 7 -117 32l-39 15q-86 30 -98 32q-22 4 -47 -2q-46 -12 -61 -65l-154 16q-20 127 18 213t125 109zM670 1044q95 0 173 -20.5t141 -64
t97.5 -119t34.5 -178.5v-662h-416v119q-133 -139 -315 -139q-142 0 -233 88t-91 229q0 140 98 219.5t265 79.5h276v25q0 105 -145 102q-129 0 -279 -78l-116 264q252 132 510 135zM700 260v180h-110q-117 0 -117 -102q0 -51 28.5 -82t73.5 -31q72 0 125 35z" />
    <glyph glyph-name="adieresis" unicode="&#xe4;" horiz-adv-x="1198" 
d="M459 1157q-73 0 -121.5 48.5t-48.5 121.5q0 72 47 119q50 50 122.5 50t119.5 -50q49 -46 49 -121q0 -72 -48 -120t-120 -48zM758 1446q50 50 122 50t119 -50q49 -47 49 -119.5t-49 -122.5q-47 -47 -119.5 -47t-121.5 47q-47 50 -47 122.5t47 119.5zM670 1044
q95 0 173 -20.5t141 -64t97.5 -119t34.5 -178.5v-662h-416v119q-133 -139 -315 -139q-142 0 -233 88t-91 229q0 140 97.5 219.5t265.5 79.5h276v25q0 104 -145 104q-131 -3 -279 -80l-116 264q252 132 510 135zM700 260v180h-110q-117 0 -117 -102q0 -51 28.5 -82t73.5 -31
q72 0 125 35z" />
    <glyph glyph-name="aring" unicode="&#xe5;" horiz-adv-x="1198" 
d="M733 1042q180 -14 281.5 -108.5t101.5 -271.5v-662h-416v119q-133 -139 -315 -139q-142 0 -233 88t-91 229q0 140 97.5 219.5t265.5 79.5h276v25q0 105 -145 102q-129 0 -279 -78l-116 264q222 116 446 131q-101 24 -166 101.5t-65 179.5q0 120 86 203q87 84 207 84
q122 0 206 -84q87 -84 87 -203q0 -100 -65 -179.5t-163 -99.5zM668 1225q43 0 70.5 27.5t27.5 68.5t-29.5 68.5t-67 27t-71.5 -27.5q-45 -46 -19 -105t89 -59zM700 260v180h-110q-117 0 -117 -102q0 -51 28.5 -82t73.5 -31q72 0 125 35z" />
    <glyph glyph-name="ae" unicode="&#xe6;" horiz-adv-x="1986" 
d="M1933 512v-98h-678q1 -64 53.5 -99.5t133.5 -35.5q119 0 194 69l215 -192q-188 -176 -446 -176q-160 0 -291 79v-59h-416v119q-133 -139 -315 -139q-142 0 -233 88t-91 229q0 140 97.5 219.5t265.5 79.5h276v25q0 104 -145 104q-131 -3 -279 -80l-116 264
q252 132 510 135q252 3 366 -135q153 135 361 135q247 0 391 -153q147 -150 147 -379zM1260 606h286q0 64 -39 105t-104 41q-60 0 -101.5 -42.5t-41.5 -103.5zM698 260v180h-112q-115 0 -115 -102q0 -52 28.5 -82.5t73.5 -30.5q72 0 125 35z" />
    <glyph glyph-name="ccedilla" unicode="&#xe7;" horiz-adv-x="1142" 
d="M641 332q82 0 133 63l318 -174q-74 -106 -193.5 -170.5t-255.5 -70.5l-33 -64q34 -3 60 -12q58 -21 93.5 -69.5t35.5 -110.5q0 -99 -75 -153t-192 -54q-131 0 -233 57l51 143q46 -24 109 -24q43 1 68.5 24.5t27.5 57.5q0 28 -17 48t-46 21q-27 0 -46 -8l-45 41l62 125
q-176 49 -291 188q-113 140 -113 322q0 221 164 377q165 155 398 155q144 0 268 -64.5t203 -176.5l-318 -174q-51 63 -133 63q-72 0 -123 -53t-51 -127q0 -75 51.5 -127.5t122.5 -52.5z" />
    <glyph glyph-name="egrave" unicode="&#xe8;" 
d="M528 1491l254 -365h-356l-324 365h426zM602 1044q247 0 391 -153q148 -151 148 -379v-98h-678q4 -66 56.5 -100.5t129.5 -34.5q120 0 195 69l215 -192q-188 -176 -447 -176q-146 -3 -274.5 69.5t-204 196.5t-72.5 266q0 219 158 377q158 155 383 155zM610 752
q-60 0 -101.5 -42.5t-41.5 -103.5h287q0 64 -39.5 105t-104.5 41z" />
    <glyph glyph-name="eacute" unicode="&#xe9;" 
d="M1092 1491l-324 -365h-356l254 365h426zM602 1044q247 0 391 -153q148 -151 148 -379v-98h-678q3 -64 56 -99.5t130 -35.5q120 0 195 69l215 -192q-188 -176 -447 -176q-227 0 -389 155t-162 377q0 219 158 377q158 155 383 155zM610 752q-60 0 -101.5 -42.5
t-41.5 -103.5h287q0 64 -39.5 105t-104.5 41z" />
    <glyph glyph-name="ecircumflex" unicode="&#xea;" 
d="M817 1491l254 -365h-344l-125 152l-127 -152h-342l252 365h432zM602 1044q247 0 391 -153q148 -151 148 -379v-98h-678q3 -64 56 -99.5t130 -35.5q120 0 195 69l215 -192q-188 -176 -447 -176q-227 0 -389 155t-162 377q0 219 158 377q158 155 383 155zM610 752
q-60 0 -101.5 -42.5t-41.5 -103.5h287q0 64 -39.5 105t-104.5 41z" />
    <glyph glyph-name="edieresis" unicode="&#xeb;" 
d="M268 1446q50 50 122.5 50t119.5 -50q50 -47 50 -119.5t-50 -122.5q-47 -47 -120 -47t-122 47q-47 50 -47 122.5t47 119.5zM690 1446q50 50 122.5 50t119.5 -50q50 -47 50 -119.5t-50 -122.5q-47 -47 -120 -47t-122 47q-47 50 -47 122.5t47 119.5zM602 1044
q247 0 391 -153q148 -151 148 -379v-98h-678q4 -66 56.5 -100.5t129.5 -34.5q120 0 195 69l215 -192q-188 -176 -447 -176q-146 -3 -274.5 69.5t-204 196.5t-72.5 266q0 219 158 377q158 155 383 155zM610 752q-60 0 -101.5 -42.5t-41.5 -103.5h287q0 64 -39.5 105
t-104.5 41z" />
    <glyph glyph-name="igrave" unicode="&#xec;" horiz-adv-x="620" 
d="M250 1491l252 -365h-355l-325 365h428zM528 1024v-1024h-415v1024h415z" />
    <glyph glyph-name="iacute" unicode="&#xed;" horiz-adv-x="620" 
d="M811 1491l-326 -365h-354l252 365h428zM526 1024v-1024h-415v1024h415z" />
    <glyph glyph-name="icircumflex" unicode="&#xee;" horiz-adv-x="620" 
d="M539 1491l252 -365h-342l-127 152l-125 -152h-344l251 365h435zM528 1024v-1024h-415v1024h415z" />
    <glyph glyph-name="idieresis" unicode="&#xef;" horiz-adv-x="620" 
d="M-8 1446q47 50 119.5 50t119.5 -50q49 -47 49 -119.5t-49 -122.5q-47 -47 -119.5 -47t-119.5 47q-50 50 -50 122.5t50 119.5zM412 1446q50 50 121 50t120 -50q49 -47 49 -119.5t-49 -122.5q-49 -47 -120.5 -47t-120.5 47q-50 50 -50 122.5t50 119.5zM528 1024v-1024h-415
v1024h415z" />
    <glyph glyph-name="eth" unicode="&#xf0;" horiz-adv-x="1327" 
d="M1090 1513l137 -213l-99 -59q107 -201 107 -512q0 -223 -72 -399q-59 -158 -195.5 -252.5t-355.5 -97.5q-133 0 -242.5 48t-178 126t-105.5 172.5t-37 193.5q0 178 115 305t330 127q154 0 278 -71v22q0 57 -10 115l-100 -62l-138 213l82 50q-34 12 -74 12
q-130 0 -237 -82l-123 285q190 114 416 114q226 3 375 -110zM614 309q141 0 162 195q-8 63 -52 101t-110 38q-64 0 -105.5 -47t-41.5 -121t40.5 -120t106.5 -46z" />
    <glyph glyph-name="ntilde" unicode="&#xf1;" horiz-adv-x="1292" 
d="M416 1483q55 12 94 6q34 -5 119 -35q135 -48 176 -45q51 3 69 68l154 -19q20 -127 -18 -211.5t-125 -107.5q-55 -12 -94 -6q-45 7 -117 32l-39 15q-91 31 -98 32q-22 4 -48 -2q-46 -12 -61 -65l-154 16q-23 126 16.5 212t125.5 110zM856 1044q160 0 257 -84.5t97 -240.5
v-719h-415v592q0 55 -29.5 86t-79.5 31q-96 0 -178 -60v-649h-416v1024h416v-100q159 120 348 120z" />
    <glyph glyph-name="ograve" unicode="&#xf2;" horiz-adv-x="1302" 
d="M651 1044q156 3 294 -69.5t219 -197t77 -265.5q0 -222 -174 -377q-171 -155 -416 -155q-244 0 -418 155q-172 156 -172 377t172 377q174 155 418 155zM649 692q-55 3 -100.5 -30.5t-65.5 -81.5t-11.5 -103t50.5 -92q37 -42 91.5 -50.5t102.5 11.5t81 65.5t30 100.5
q0 75 -52 127.5t-126 52.5zM580 1491l251 -365h-356l-323 365h428z" />
    <glyph glyph-name="oacute" unicode="&#xf3;" horiz-adv-x="1302" 
d="M1143 1491l-326 -365h-354l252 365h428zM651 1044q156 3 294 -69.5t219 -197t77 -265.5q0 -222 -174 -377q-171 -155 -416 -155q-244 0 -418 155q-172 156 -172 377t172 377q174 155 418 155zM649 692q-55 3 -100.5 -30.5t-65.5 -81.5t-11.5 -103t50.5 -92
q37 -42 91.5 -50.5t102.5 11.5t81 65.5t30 100.5q0 75 -52 127.5t-126 52.5z" />
    <glyph glyph-name="ocircumflex" unicode="&#xf4;" horiz-adv-x="1302" 
d="M868 1491l252 -365h-342l-127 152l-127 -152h-342l252 365h434zM651 1044q156 3 294 -69.5t219 -197t77 -265.5q0 -222 -174 -377q-171 -155 -416 -155q-244 0 -418 155q-172 156 -172 377t172 377q174 155 418 155zM649 692q-55 3 -100.5 -30.5t-65.5 -81.5t-11.5 -103
t50.5 -92q37 -42 91.5 -50.5t102.5 11.5t81 65.5t30 100.5q0 75 -52 127.5t-126 52.5z" />
    <glyph glyph-name="otilde" unicode="&#xf5;" horiz-adv-x="1302" 
d="M420 1483q55 12 94 6q34 -5 119 -35q136 -48 178 -45q50 3 68 68l153 -19q20 -127 -18 -211.5t-125 -107.5q-55 -12 -94 -6q-45 7 -117 32l-39 15q-91 31 -98 32q-22 4 -47 -2q-47 -12 -62 -65l-153 16q-23 126 16 212t125 110zM651 1044q156 3 294 -69.5t219 -197
t77 -265.5q0 -222 -174 -377q-171 -155 -416 -155q-244 0 -418 155q-172 156 -172 377t172 377q174 155 418 155zM649 692q-55 3 -100.5 -30.5t-65.5 -81.5t-11.5 -103t50.5 -92q37 -42 91.5 -50.5t102.5 11.5t81 65.5t30 100.5q0 75 -52 127.5t-126 52.5z" />
    <glyph glyph-name="odieresis" unicode="&#xf6;" horiz-adv-x="1302" 
d="M651 1044q156 3 294 -69.5t219 -197t77 -265.5q0 -222 -174 -377q-171 -155 -416 -155q-244 0 -418 155q-172 156 -172 377t172 377q174 155 418 155zM649 692q-55 3 -100.5 -30.5t-65.5 -81.5t-11.5 -103t50.5 -92q37 -42 91.5 -50.5t102.5 11.5t81 65.5t30 100.5
q0 75 -52 127.5t-126 52.5zM319 1446q49 50 122 50t120 -50q49 -47 49 -119.5t-49 -122.5q-47 -47 -120 -47t-122 47q-47 50 -47 122.5t47 119.5zM739 1446q49 50 122 50t120 -50q49 -47 49 -119.5t-49 -122.5q-47 -47 -120 -47t-122 47q-47 50 -47 122.5t47 119.5z" />
    <glyph glyph-name="divide" unicode="&#xf7;" horiz-adv-x="1167" 
d="M430 1151q63 55 153.5 55t153.5 -55q63 -54 63 -131.5t-63 -132.5q-63 -54 -153.5 -54t-153.5 54q-63 55 -63 132.5t63 131.5zM1106 750v-318h-1045v318h1045zM430 293q63 55 153.5 55t153.5 -55q63 -54 63 -131t-63 -133q-63 -54 -153.5 -54t-153.5 54q-63 55 -63 132.5
t63 131.5z" />
    <glyph glyph-name="oslash" unicode="&#xf8;" horiz-adv-x="1302" 
d="M811 1126h262l-86 -178q116 -73 184 -188.5t68 -247.5q0 -222 -174 -377q-171 -155 -416 -155q-54 0 -119 10l-43 -92h-260l84 178q-115 74 -183.5 189t-68.5 247q0 221 172 377q174 155 418 155q54 0 119 -10zM467 512q0 -37 16 -74l119 248q-60 -13 -97.5 -62
t-37.5 -112zM813 580l-117 -240q58 17 93.5 64t35.5 108q0 34 -12 68z" />
    <glyph glyph-name="ugrave" unicode="&#xf9;" horiz-adv-x="1282" 
d="M571 1491l254 -365h-356l-324 365h426zM1198 1024v-1024h-416v100q-159 -120 -348 -120q-159 0 -256.5 85t-97.5 240v719h416v-592q0 -55 29.5 -86t80.5 -31q98 0 176 60v649h416z" />
    <glyph glyph-name="uacute" unicode="&#xfa;" horiz-adv-x="1282" 
d="M1135 1491l-324 -365h-356l252 365h428zM1198 1024v-1024h-416v100q-159 -120 -348 -120q-159 0 -256.5 85t-97.5 240v719h416v-592q0 -55 29.5 -86t80.5 -31q98 0 176 60v649h416z" />
    <glyph glyph-name="ucircumflex" unicode="&#xfb;" horiz-adv-x="1282" 
d="M862 1491l254 -365h-344l-125 152l-127 -152h-344l254 365h432zM82 1024h416v-592q0 -55 29.5 -86t80.5 -31q98 0 176 60v649h416v-1024h-416v100q-159 -120 -348 -120q-159 0 -256.5 85t-97.5 240v719z" />
    <glyph glyph-name="udieresis" unicode="&#xfc;" horiz-adv-x="1282" 
d="M436 1157q-72 0 -121 48.5t-49 121.5q0 72 47 119q49 50 122 50t120 -50q49 -46 49 -121q0 -72 -48 -120t-120 -48zM735 1446q49 50 122 50t120 -50q49 -47 49 -119.5t-49 -122.5q-47 -47 -120 -47t-122 47q-47 50 -47 122.5t47 119.5zM82 1024h416v-592q0 -55 29.5 -86
t80.5 -31q98 0 176 60v649h416v-1024h-416v100q-159 -120 -348 -120q-159 0 -256.5 85t-97.5 240v719z" />
    <glyph glyph-name="yacute" unicode="&#xfd;" horiz-adv-x="1280" 
d="M1159 1491l-325 -365h-355l252 365h428zM492 1024l176 -537l161 537h433l-416 -1114q-124 -330 -447 -330q-152 -3 -379 82l115 270q141 -54 223 -45q74 9 121 74l6 8l-432 1055h439z" />
    <glyph glyph-name="thorn" unicode="&#xfe;" horiz-adv-x="1339" 
d="M102 1434h416v-529q133 139 311 139q133 0 231.5 -72.5t147.5 -192t49 -267.5q0 -231 -114 -381q-115 -151 -314 -151q-178 0 -311 139v-518h-416v1833zM674 692q-49 0 -91 -26t-65 -70v-168q23 -44 65 -70t91 -26q72 0 123 53t51 127t-51 127t-123 53z" />
    <glyph glyph-name="ydieresis" unicode="&#xff;" horiz-adv-x="1280" 
d="M457 1157q-72 0 -120 48.5t-48 121.5q0 72 47 119q50 50 122.5 50t119.5 -50q49 -46 49 -121q0 -72 -48.5 -120t-121.5 -48zM756 1446q50 50 122 50t119 -50q49 -47 49 -119.5t-49 -122.5q-47 -47 -119.5 -47t-121.5 47q-47 50 -47 122.5t47 119.5zM829 1024h433
l-416 -1114q-124 -330 -447 -330q-152 -3 -379 82l115 270q141 -54 223 -45q74 9 121 74l6 8l-432 1055h439l176 -537z" />
    <glyph glyph-name="Amacron" unicode="&#x100;" horiz-adv-x="1765" 
d="M1171 1434l553 -1434h-532l-74 219h-473l-72 -219h-532l547 1434h583zM881 936l-119 -363h239zM1249 1864v-256h-739v256h739z" />
    <glyph glyph-name="amacron" unicode="&#x101;" horiz-adv-x="1198" 
d="M1030 1454v-256h-737v256h737zM670 1044q95 0 173 -20.5t141 -64t97.5 -119t34.5 -178.5v-662h-416v119q-133 -139 -315 -139q-142 0 -233 88t-91 229q0 140 97.5 219.5t265.5 79.5h276v25q0 104 -145 104q-131 -3 -279 -80l-116 264q252 132 510 135zM700 260v180h-110
q-117 0 -117 -102q0 -51 28.5 -82t73.5 -31q72 0 125 35z" />
    <glyph glyph-name="Abreve" unicode="&#x102;" horiz-adv-x="1765" 
d="M1026 1913h272q0 -156 -118 -256q-119 -101 -291 -101q-174 0 -293 101t-119 256h273q-6 -67 66 -95t144 0t66 95zM1171 1434l553 -1434h-532l-74 219h-473l-72 -219h-532l547 1434h583zM881 936l-119 -363h239z" />
    <glyph glyph-name="abreve" unicode="&#x103;" horiz-adv-x="1198" 
d="M805 1503h272q0 -155 -119 -256q-118 -100 -290 -100q-173 0 -291 100q-119 101 -119 256h272q-7 -67 65.5 -95t144.5 0t65 95zM668 1044q95 0 173 -20.5t141 -64t97.5 -119t34.5 -178.5v-662h-416v119q-133 -139 -315 -139q-142 0 -233 88t-91 229q0 140 97.5 219.5
t265.5 79.5h276v25q0 104 -145 104q-131 -3 -279 -80l-116 264q252 132 510 135zM698 260v180h-112q-115 0 -115 -102q0 -51 28.5 -82t73.5 -31q72 0 125 35z" />
    <glyph glyph-name="Aogonek" unicode="&#x104;" horiz-adv-x="1765" 
d="M1171 1434l553 -1434h-309l-4 -6q-64 -91 -43 -148q15 -47 78 -53q31 -5 74 4l47 -186q-85 -33 -201 -33q-182 0 -240 98q-65 117 58 310l8 14l-74 219h-473l-72 -219h-532l547 1434h583zM881 936l-119 -363h239z" />
    <glyph glyph-name="aogonek" unicode="&#x105;" horiz-adv-x="1198" 
d="M670 1044q95 0 173 -20.5t141 -64t97.5 -119t34.5 -178.5v-662h-192l-6 -8q-65 -92 -44 -148q15 -47 78 -53q31 -5 74 4l47 -186q-85 -33 -201 -33q-181 0 -239 98q-65 118 57 310l10 16v119q-133 -139 -315 -139q-142 0 -233 88t-91 229q0 140 97.5 219.5t265.5 79.5
h276v25q0 104 -145 104q-131 -3 -279 -80l-116 264q252 132 510 135zM700 260v180h-112q-115 0 -115 -102q0 -51 28.5 -82t73.5 -31q72 0 125 35z" />
    <glyph glyph-name="Cacute" unicode="&#x106;" horiz-adv-x="1536" 
d="M1315 1901l-326 -365h-354l252 365h428zM846 1454q192 0 358.5 -88.5t268.5 -237.5l-388 -215q-82 123 -235 123q-131 0 -214 -92t-83 -227q0 -137 82 -228q83 -92 215 -92q152 0 235 123l388 -215q-105 -153 -270.5 -239t-356.5 -86q-154 0 -294 58t-241 157t-161 235.5
t-60 286.5q-4 146 57 284t164 238t244 159t291 56z" />
    <glyph glyph-name="cacute" unicode="&#x107;" horiz-adv-x="1142" 
d="M1087 1491l-323 -365h-356l251 365h428zM621 1044q144 0 268 -64.5t203 -176.5l-318 -174q-51 63 -133 63q-72 0 -123 -53t-51 -127q0 -75 51.5 -127.5t122.5 -52.5q82 0 133 63l318 -174q-79 -112 -203 -176.5t-268 -64.5q-233 0 -398 155q-164 156 -164 377t164 377
q165 155 398 155z" />
    <glyph glyph-name="Cdotaccent" unicode="&#x10a;" horiz-adv-x="1536" 
d="M848 1454q192 0 358.5 -88.5t268.5 -237.5l-388 -215q-82 123 -235 123q-131 0 -213 -92t-82 -227q0 -137 82 -228q83 -92 213 -92q152 0 235 123l388 -215q-105 -153 -270.5 -239t-356.5 -86q-150 -4 -291 55t-244 159.5t-164 238.5t-57 284q-4 146 57 284t164 238
t244 159t291 56zM705 1855q49 49 121.5 49t119.5 -49q50 -47 50 -119t-50 -122q-47 -47 -119.5 -47t-121.5 47q-47 50 -47 122t47 119z" />
    <glyph glyph-name="cdotaccent" unicode="&#x10b;" horiz-adv-x="1142" 
d="M623 1044q144 0 268 -64.5t203 -176.5l-318 -174q-51 63 -133 63q-71 0 -122.5 -52.5t-51.5 -127.5q0 -74 51 -127t123 -53q82 0 133 63l318 -174q-79 -112 -203 -176.5t-268 -64.5q-233 0 -398 155q-164 156 -164 377t164 377q165 155 398 155zM477 1446q49 50 122 50
t120 -50q49 -47 49 -119.5t-49 -122.5q-47 -47 -120 -47t-122 47q-47 50 -47 122.5t47 119.5z" />
    <glyph glyph-name="Ccaron" unicode="&#x10c;" horiz-adv-x="1536" 
d="M1294 1901l-254 -365h-432l-252 365h342l127 -152l125 152h344zM848 1454q192 0 358.5 -88.5t268.5 -237.5l-388 -215q-82 123 -235 123q-131 0 -213 -92t-82 -227q0 -137 82 -228q83 -92 213 -92q152 0 235 123l388 -215q-105 -153 -270.5 -239t-356.5 -86
q-150 -4 -291 55t-244 159.5t-164 238.5t-57 284q-4 146 57 284t164 238t244 159t291 56z" />
    <glyph glyph-name="ccaron" unicode="&#x10d;" horiz-adv-x="1142" 
d="M1067 1491l-252 -365h-434l-252 365h342l127 -152l125 152h344zM623 1044q144 0 268 -64.5t203 -176.5l-318 -174q-51 63 -133 63q-71 0 -122.5 -52.5t-51.5 -127.5q0 -74 51 -127t123 -53q82 0 133 63l318 -174q-79 -112 -203 -176.5t-268 -64.5q-233 0 -398 155
q-164 156 -164 377t164 377q165 155 398 155z" />
    <glyph glyph-name="Dcaron" unicode="&#x10e;" horiz-adv-x="1615" 
d="M1178 1901l-254 -365h-432l-254 365h344l125 -152l127 152h344zM123 0v1434h631q154 3 297.5 -53t248 -152.5t166 -231.5t58.5 -282q4 -194 -101 -361t-284 -262.5t-385 -91.5h-631zM737 1036h-168v-639h168q139 0 234 92q98 91 98 228q0 136 -98 227q-95 92 -234 92z
" />
    <glyph glyph-name="dcaron" unicode="&#x10f;" horiz-adv-x="1744" 
d="M1743 1292q0 -41 -25 -80l-250 -364l-102 47l102 252q-47 22 -75.5 60.5t-28.5 84.5q0 67 55 114.5t133 47.5q80 0 135.5 -47.5t55.5 -114.5zM799 1434h415v-1434h-415v119q-133 -139 -310 -139q-200 0 -315 151t-115 381t115 381t315 151q177 0 310 -139v529zM645 692
q-72 0 -124 -52.5t-52 -127.5q0 -74 51.5 -127t124.5 -53q49 0 90 25.5t64 70.5v168q-23 45 -64 70.5t-90 25.5z" />
    <glyph glyph-name="Dcroat" unicode="&#x110;" horiz-adv-x="1636" 
d="M143 891v543h631q154 3 297.5 -53t248 -152.5t166 -231.5t58.5 -282q4 -194 -101 -361t-284 -262.5t-385 -91.5h-631v543h-123v348h123zM590 543v-146h168q138 0 233 92q99 91 99 228q0 135 -99 227q-95 92 -233 92h-168v-145h168v-348h-168z" />
    <glyph glyph-name="dslash" unicode="&#x111;" horiz-adv-x="1308" 
d="M1341 1346v-256h-127v-1090h-415v119q-133 -139 -310 -139q-200 0 -315 151t-115 381t115 381t315 151q177 0 310 -139v185h-195v256h195v88h415v-88h127zM799 428v168q-23 45 -64 70.5t-90 25.5q-73 0 -124.5 -53t-51.5 -127t51.5 -127t124.5 -53q49 0 90 25.5t64 70.5z
" />
    <glyph glyph-name="Emacron" unicode="&#x112;" horiz-adv-x="1396" 
d="M1325 1434v-400h-756v-119h705v-378h-705v-138h766v-399h-1212v1434h1202zM1087 1864v-256h-739v256h739z" />
    <glyph glyph-name="emacron" unicode="&#x113;" 
d="M969 1454v-256h-738v256h738zM602 1044q247 0 391 -153q148 -151 148 -379v-98h-678q3 -64 56 -99.5t130 -35.5q120 0 195 69l215 -192q-188 -176 -447 -176q-227 0 -389 155t-162 377q0 219 158 377q158 155 383 155zM610 752q-60 0 -101.5 -42.5t-41.5 -103.5h287
q0 64 -39.5 105t-104.5 41z" />
    <glyph glyph-name="Edotaccent" unicode="&#x116;" horiz-adv-x="1396" 
d="M598 1855q50 49 121 49t121 -49q50 -47 50 -119t-50 -122q-50 -47 -121 -47t-121 47q-50 50 -50 122t50 119zM1325 1434v-400h-756v-119h705v-378h-705v-138h766v-399h-1212v1434h1202z" />
    <glyph glyph-name="edotaccent" unicode="&#x117;" 
d="M602 1044q247 0 391 -153q148 -151 148 -379v-98h-678q3 -64 56 -99.5t130 -35.5q120 0 195 69l215 -192q-188 -176 -447 -176q-227 0 -389 155t-162 377q0 219 158 377q158 155 383 155zM610 752q-60 0 -101.5 -42.5t-41.5 -103.5h287q0 64 -39.5 105t-104.5 41z
M479 1446q49 50 122 50t120 -50q49 -47 49 -119.5t-49 -122.5q-47 -47 -120 -47t-122 47q-47 50 -47 122.5t47 119.5z" />
    <glyph glyph-name="Eogonek" unicode="&#x118;" horiz-adv-x="1396" 
d="M1325 1434v-400h-756v-119h705v-378h-705v-138h766v-399h-110l-8 -12q-47 -77 -29 -127q15 -48 78 -54q28 -5 73 5l47 -187q-85 -33 -200 -33q-182 0 -240 99q-64 113 47 295l11 14h-881v1434h1202z" />
    <glyph glyph-name="eogonek" unicode="&#x119;" 
d="M602 1044q244 1 394.5 -152.5t144.5 -379.5v-98h-678q4 -66 56.5 -100.5t129.5 -34.5q120 0 195 69l215 -192q-53 -53 -133 -97l-6 -10q-66 -94 -46 -147q19 -48 80 -54q29 -5 74 5l47 -187q-85 -33 -203 -33q-182 0 -237 99q-51 87 14 233l8 17q-33 -3 -67 0
q-241 15 -385 165t-144 365q0 219 158 377q158 155 383 155zM610 752q-60 0 -101.5 -42.5t-41.5 -103.5h287q0 64 -39.5 105t-104.5 41z" />
    <glyph glyph-name="Ecaron" unicode="&#x11a;" horiz-adv-x="1396" 
d="M1188 1901l-254 -365h-432l-254 365h344l125 -152l127 152h344zM1325 1434v-400h-756v-119h705v-378h-705v-138h766v-399h-1212v1434h1202z" />
    <glyph glyph-name="ecaron" unicode="&#x11b;" 
d="M1069 1491l-252 -365h-434l-252 365h342l127 -152l127 152h342zM602 1044q247 0 391 -153q148 -151 148 -379v-98h-678q3 -64 56 -99.5t130 -35.5q120 0 195 69l215 -192q-188 -176 -447 -176q-227 0 -389 155t-162 377q0 219 158 377q158 155 383 155zM610 752
q-60 0 -101.5 -42.5t-41.5 -103.5h287q0 64 -39.5 105t-104.5 41z" />
    <glyph glyph-name="Gbreve" unicode="&#x11e;" horiz-adv-x="1622" 
d="M969 1913h274q0 -153 -121 -256q-119 -101 -291 -101q-171 0 -290 101t-119 256h272q0 -50 38 -79.5t99 -29.5q59 0 98.5 29t39.5 80zM889 1454q330 -3 575 -213l-290 -303q-121 106 -285 106q-140 0 -238 -88t-98 -239q0 -136 86 -228t221 -92q124 0 225 49v84h-196v316
h620v-649q-284 -217 -649 -217q-153 -4 -296.5 55t-248 159.5t-166.5 238t-59 284.5q0 170 66.5 314t181.5 237q112 92 254.5 140t296.5 46z" />
    <glyph glyph-name="gbreve" unicode="&#x11f;" horiz-adv-x="1329" 
d="M844 1503h272q0 -155 -119 -256q-118 -100 -290 -100q-175 0 -293 100q-119 101 -119 256h272q0 -50 39.5 -79t100.5 -29q59 0 98 28.5t39 79.5zM500 1044q176 0 309 -139v119h416v-983q0 -101 -28.5 -180.5t-77.5 -132.5t-119 -88t-149 -50.5t-171 -15.5
q-301 3 -598 152l117 268q213 -104 393 -107q101 -2 159 37t58 117v80q-121 -121 -309 -121q-204 0 -318 141q-112 141 -112 371q0 231 114 381q115 151 316 151zM655 692q-73 0 -124.5 -52.5t-51.5 -127.5q0 -74 51.5 -127t124.5 -53q47 0 89 25.5t65 68.5v172
q-24 43 -64.5 68.5t-89.5 25.5z" />
    <glyph glyph-name="Gdotaccent" unicode="&#x120;" horiz-adv-x="1622" 
d="M891 1454q330 -3 575 -213l-290 -303q-121 106 -285 106q-140 0 -238 -88q-96 -90 -96 -239q0 -135 84 -228q86 -92 223 -92q122 0 223 49v84h-196v316h620v-649q-284 -217 -647 -217q-153 -4 -297.5 55t-249 159.5t-166.5 238t-59 284.5q0 170 66.5 314t181.5 237
q112 92 254.5 140t296.5 46zM705 1855q49 49 121.5 49t119.5 -49q50 -47 50 -119t-50 -122q-47 -47 -119.5 -47t-121.5 47q-47 50 -47 122t47 119z" />
    <glyph glyph-name="gdotaccent" unicode="&#x121;" horiz-adv-x="1329" 
d="M578 1446q50 50 121 50t120 -50q49 -47 49 -119.5t-49 -122.5q-49 -47 -120 -47t-121 47q-50 50 -50 122.5t50 119.5zM500 1044q176 0 309 -139v119h416v-983q0 -101 -28.5 -180.5t-77.5 -132.5t-119 -88t-149 -50.5t-171 -15.5q-301 3 -598 152l117 268
q213 -104 393 -107q101 -2 159 37t58 117v80q-121 -121 -309 -121q-204 0 -318 141q-112 141 -112 371q0 231 114 381q115 151 316 151zM655 692q-73 0 -124.5 -52.5t-51.5 -127.5q0 -74 51.5 -127t124.5 -53q47 0 89 25.5t65 68.5v172q-23 43 -65 68.5t-89 25.5z" />
    <glyph glyph-name="Gcommaaccent" unicode="&#x122;" horiz-adv-x="1622" 
d="M891 1454q330 -3 575 -213l-290 -303q-121 106 -285 106q-140 0 -238 -88q-96 -90 -96 -239q0 -135 84 -228q86 -92 223 -92q122 0 223 49v84h-196v316h620v-649q-284 -217 -647 -217q-153 -4 -297.5 55t-249 159.5t-166.5 238t-59 284.5q0 170 66.5 314t181.5 237
q112 92 254.5 140t296.5 46zM1055 -260q0 -41 -25 -80l-250 -365l-102 48l102 251q-48 20 -76 59.5t-28 86.5q0 67 55 114.5t133 47.5q80 0 135.5 -47.5t55.5 -114.5z" />
    <glyph glyph-name="gcommaaccent" unicode="&#x123;" horiz-adv-x="1329" 
d="M735 1749l103 -45l-105 -254q49 -20 77 -59t28 -86q0 -66 -55.5 -114t-133.5 -48q-77 0 -132.5 48t-55.5 114q0 41 24 81zM502 1044q176 0 309 -139v119h416v-983q0 -101 -28.5 -180.5t-77.5 -132.5t-119 -88t-149 -50.5t-171 -15.5q-301 3 -598 152l117 268
q213 -104 393 -107q101 -2 159 37t58 117v80q-121 -121 -309 -121q-204 0 -318 141q-112 141 -112 371q0 231 114 381q115 151 316 151zM657 692q-73 0 -124.5 -52.5t-51.5 -127.5q0 -74 51.5 -127t124.5 -53q47 0 89 25.5t65 68.5v172q-23 43 -65 68.5t-89 25.5z" />
    <glyph glyph-name="Hbar" unicode="&#x126;" horiz-adv-x="1628" 
d="M1628 1321v-277h-123v-1044h-444v520h-492v-520h-446v1044h-123v277h123v113h446v-113h492v113h444v-113h123zM1061 920v124h-492v-124h492z" />
    <glyph glyph-name="hbar" unicode="&#x127;" horiz-adv-x="1302" 
d="M868 1044q160 0 257.5 -84.5t97.5 -240.5v-719h-416v592q0 55 -29.5 86t-79.5 31q-96 0 -178 -60v-649h-416v1090h-120v256h120v88h416v-88h240v-256h-240v-166q159 120 348 120z" />
    <glyph glyph-name="Itilde" unicode="&#x128;" horiz-adv-x="690" 
d="M152 1892q55 12 94 6t119 -34q135 -48 176 -45q51 3 69 67l154 -18q20 -127 -18 -212t-125 -108q-55 -12 -95 -6q-39 6 -116 33l-39 14q-95 32 -99 33q-22 4 -47 -2q-45 -12 -61 -66l-154 17q-23 126 16.5 211.5t125.5 109.5zM592 1434v-1434h-447v1434h447z" />
    <glyph glyph-name="itilde" unicode="&#x129;" horiz-adv-x="620" 
d="M115 1483q56 12 95.5 6.5t115.5 -35.5q136 -48 178 -45q49 3 67 68l154 -19q23 -126 -16 -210.5t-125 -108.5q-58 -12 -97 -6q-44 6 -116 32l-39 15q-90 30 -99 32q-22 4 -47 -2q-46 -12 -61 -65l-154 16q-20 127 18.5 213t125.5 109zM551 1024v-1024h-416v1024h416z" />
    <glyph glyph-name="Imacron" unicode="&#x12a;" horiz-adv-x="690" 
d="M731 1864v-256h-739v256h739zM571 1434v-1434h-446v1434h446z" />
    <glyph glyph-name="imacron" unicode="&#x12b;" horiz-adv-x="620" 
d="M692 1454v-256h-739v256h739zM530 1024v-1024h-415v1024h415z" />
    <glyph glyph-name="Iogonek" unicode="&#x12e;" horiz-adv-x="690" 
d="M569 1434v-1434l-10 -14q-66 -93 -45 -148q17 -44 80 -53q28 -6 74 4l45 -186q-82 -33 -201 -33q-183 0 -238 98q-64 116 56 309l14 23h-221v1434h446z" />
    <glyph glyph-name="iogonek" unicode="&#x12f;" horiz-adv-x="620" 
d="M199 1446q49 50 121.5 50t119.5 -50q50 -47 50 -119.5t-50 -122.5q-47 -47 -119 -47t-122 47q-47 50 -47 122.5t47 119.5zM526 1024v-1024l-10 -14q-64 -91 -43 -148q14 -44 80 -53q28 -6 72 4l47 -186q-85 -33 -201 -33q-183 0 -238 98q-67 116 56 309l14 23h-192v1024
h415z" />
    <glyph glyph-name="Idot" unicode="&#x130;" horiz-adv-x="690" 
d="M240 1855q50 49 121 49t120 -49q49 -47 49 -119t-49 -122q-49 -47 -120.5 -47t-120.5 47q-50 50 -50 122t50 119zM569 1434v-1434h-446v1434h446z" />
    <glyph glyph-name="dotlessi" unicode="&#x131;" horiz-adv-x="620" 
d="M528 1024v-1024h-415v1024h415z" />
    <glyph glyph-name="IJ" unicode="&#x132;" horiz-adv-x="1957" 
d="M1391 1434h446v-840q0 -177 -40 -299t-119.5 -190t-182.5 -96.5t-246 -28.5q-200 0 -327 58.5t-191 190.5l359 230q38 -72 137 -72q164 0 164 207v840zM569 1434v-1434h-446v1434h446z" />
    <glyph glyph-name="ij" unicode="&#x133;" horiz-adv-x="1253" 
d="M176 1401q63 54 152.5 54t152.5 -54t63 -128t-63 -128t-152.5 -54t-152.5 54t-63 128t63 128zM793 1401q65 53 153 53q90 0 152 -53q63 -54 63 -128t-63 -128q-62 -53 -152 -53q-88 0 -153 53q-61 54 -61 128t61 128zM537 1024v-1024h-416v1024h416zM737 1024h418v-1092
q0 -93 -30.5 -163t-83 -110t-116 -59.5t-137.5 -19.5q-120 0 -235 41l39 225q18 -6 35 -6q48 0 79 33t31 86v1065z" />
    <glyph glyph-name="Kcommaaccent" unicode="&#x136;" horiz-adv-x="1585" 
d="M1534 1434l-500 -605l510 -829h-571l-232 473l-172 -209v-264h-446v1434h446v-516l369 516h596zM989 -260q0 -42 -24 -80l-250 -365l-103 48l105 251q-48 20 -76.5 59.5t-28.5 86.5q0 67 55.5 114.5t133.5 47.5t133 -47.5t55 -114.5z" />
    <glyph glyph-name="kcommaaccent" unicode="&#x137;" horiz-adv-x="1290" 
d="M518 1434v-740l240 330h491l-321 -418l342 -606h-453l-178 305l-121 -137v-168h-416v1434h416zM842 -260q0 -41 -25 -80l-250 -365l-102 48l102 251q-48 20 -76 59.5t-28 86.5q0 67 56 114.5t134 47.5t133.5 -47.5t55.5 -114.5z" />
    <glyph glyph-name="Lacute" unicode="&#x139;" horiz-adv-x="1282" 
d="M569 1434v-1035h672v-399h-1118v1434h446zM1143 1901l-324 -365h-356l252 365h428z" />
    <glyph glyph-name="lacute" unicode="&#x13a;" horiz-adv-x="610" 
d="M827 1901l-325 -365h-355l252 365h428zM526 1434v-1434h-415v1434h415z" />
    <glyph glyph-name="Lcommaaccent" unicode="&#x13b;" horiz-adv-x="1282" 
d="M569 1434v-1035h672v-399h-1118v1434h446zM842 -260q0 -41 -25 -80l-252 -365l-100 48l102 251q-48 20 -76 59.5t-28 86.5q0 67 55 114.5t133 47.5q80 0 135.5 -47.5t55.5 -114.5z" />
    <glyph glyph-name="lcommaaccent" unicode="&#x13c;" horiz-adv-x="610" 
d="M528 1434v-1434h-415v1434h415zM512 -260q0 -41 -25 -80l-249 -365l-103 48l103 251q-48 20 -76.5 59.5t-28.5 86.5q0 67 55.5 114.5t133.5 47.5q79 0 134.5 -47t55.5 -115z" />
    <glyph glyph-name="Lcaron" unicode="&#x13d;" horiz-adv-x="1282" 
d="M1217 1292q0 -41 -25 -80l-250 -364l-102 47l104 252q-48 20 -76 59t-28 86q0 67 55 114.5t133 47.5t133.5 -47.5t55.5 -114.5zM569 1434v-1035h672v-399h-1118v1434h446z" />
    <glyph glyph-name="lcaron" unicode="&#x13e;" horiz-adv-x="1056" 
d="M1057 1292q0 -41 -25 -80l-250 -362l-102 45l102 254q-47 19 -75.5 57.5t-28.5 85.5q0 67 55 114.5t133 47.5q80 0 135.5 -47.5t55.5 -114.5zM528 1434v-1434h-415v1434h415z" />
    <glyph glyph-name="Ldot" unicode="&#x13f;" horiz-adv-x="1282" 
d="M569 1434v-1035h672v-399h-1118v1434h446zM979 958q91 0 154 -54t63 -132q3 -47 -22.5 -87t-68.5 -63.5t-92.5 -33t-101 3.5t-88.5 47q-63 54 -63 133q0 78 64 132t155 54z" />
    <glyph glyph-name="ldot" unicode="&#x140;" horiz-adv-x="1124" 
d="M528 1434v-1434h-415v1434h415zM846 958q91 0 154 -54t63 -132q3 -47 -22.5 -87t-68.5 -63.5t-92.5 -33t-101 3.5t-88.5 47q-63 54 -63 133q0 78 64 132t155 54z" />
    <glyph glyph-name="Lslash" unicode="&#x141;" horiz-adv-x="1390" 
d="M616 399h672v-399h-1118v510l-139 -61v407l139 62v516h446v-320l146 66v-406l-146 -65v-310z" />
    <glyph glyph-name="lslash" unicode="&#x142;" horiz-adv-x="739" 
d="M707 1180v-406l-142 -69v-705h-415v506l-121 -57v407l121 57v521h415v-322z" />
    <glyph glyph-name="Nacute" unicode="&#x143;" horiz-adv-x="1607" 
d="M1339 1901l-323 -365h-357l254 365h426zM1495 1434v-1434h-457l-487 698v-698h-438v1434h458l488 -699v699h436z" />
    <glyph glyph-name="nacute" unicode="&#x144;" horiz-adv-x="1292" 
d="M1137 1491l-326 -365h-354l252 365h428zM854 1044q160 0 257 -84.5t97 -240.5v-719h-415v592q0 55 -29.5 86t-79.5 31q-96 0 -178 -60v-649h-416v1024h416v-100q159 120 348 120z" />
    <glyph glyph-name="Ncommaaccent" unicode="&#x145;" horiz-adv-x="1607" 
d="M1495 1434v-1434h-457l-487 698v-698h-438v1434h458l488 -699v699h436zM1038 -260q0 -42 -24 -80l-250 -365l-102 48l102 251q-47 22 -76 61t-29 85q0 67 55.5 114.5t133.5 47.5q79 0 134.5 -47t55.5 -115z" />
    <glyph glyph-name="ncommaaccent" unicode="&#x146;" horiz-adv-x="1292" 
d="M856 1044q160 0 257 -84.5t97 -240.5v-719h-415v592q0 55 -29.5 86t-79.5 31q-96 0 -178 -60v-649h-416v1024h416v-100q159 120 348 120zM836 -260q0 -41 -25 -80l-250 -365l-102 48l104 251q-48 20 -76 59.5t-28 86.5q0 67 55 114.5t133 47.5t133.5 -47.5t55.5 -114.5z
" />
    <glyph glyph-name="Ncaron" unicode="&#x147;" horiz-adv-x="1607" 
d="M1317 1901l-252 -365h-434l-252 365h342l127 -152l127 152h342zM1495 1434v-1434h-457l-487 698v-698h-438v1434h458l488 -699v699h436z" />
    <glyph glyph-name="ncaron" unicode="&#x148;" horiz-adv-x="1292" 
d="M1116 1491l-254 -365h-432l-254 365h344l125 -152l127 152h344zM856 1044q160 0 257 -84.5t97 -240.5v-719h-415v592q0 55 -29.5 86t-79.5 31q-96 0 -178 -60v-649h-416v1024h416v-100q159 120 348 120z" />
    <glyph glyph-name="Eng" unicode="&#x14a;" horiz-adv-x="1607" 
d="M1059 1434h436v-1340q0 -139 -26 -243t-73 -172.5t-120 -110.5t-159 -59t-197 -17q-196 0 -320.5 58t-189.5 186l350 227q41 -72 135 -72q122 0 152 109h-9l-487 698v-698h-438v1434h458l486 -697v51z" />
    <glyph glyph-name="eng" unicode="&#x14b;" horiz-adv-x="1292" 
d="M856 1044q160 0 257 -84.5t97 -240.5v-787q0 -93 -29.5 -163t-81.5 -110t-115.5 -59.5t-137.5 -19.5q-121 0 -236 41l39 225q18 -6 35 -6q48 0 79.5 33t31.5 86v633q0 55 -29.5 86t-79.5 31q-96 0 -178 -60v-649h-416v1024h416v-100q159 120 348 120z" />
    <glyph glyph-name="Omacron" unicode="&#x14c;" horiz-adv-x="1726" 
d="M1231 1864v-256h-737v256h737zM475 1356q177 98 387 98q213 0 387 -98q179 -99 281 -269q104 -168 104 -370q0 -200 -103 -370t-282 -269q-174 -98 -387 -98q-208 0 -385 97.5t-282 268.5q-103 171 -103 371t102.5 370t280.5 269zM557 717q0 -135 84 -228q86 -92 223 -92
q87 0 159.5 43t109.5 115q38 73 38 161.5t-38 160.5q-37 74 -109 116.5t-162 42.5q-134 0 -219.5 -92t-85.5 -227z" />
    <glyph glyph-name="omacron" unicode="&#x14d;" horiz-adv-x="1302" 
d="M651 1044q156 3 294 -69.5t219 -197t77 -265.5q0 -222 -174 -377q-171 -155 -416 -155q-244 0 -418 155q-172 156 -172 377t172 377q174 155 418 155zM649 692q-55 3 -100.5 -30.5t-65.5 -81.5t-11.5 -103t50.5 -92q37 -42 91.5 -50.5t102.5 11.5t81 65.5t30 100.5
q0 75 -52 127.5t-126 52.5zM1020 1454v-256h-739v256h739z" />
    <glyph glyph-name="Ohungarumlaut" unicode="&#x150;" horiz-adv-x="1726" 
d="M475 1356q177 98 387 98q213 0 387 -98q179 -99 281 -269q104 -168 104 -370q0 -200 -103 -370t-282 -269q-174 -98 -387 -98q-208 0 -385 97.5t-282 268.5q-103 171 -103 371t102.5 370t280.5 269zM557 717q0 -135 84 -228q86 -92 223 -92q87 0 159.5 43t109.5 115
q38 73 38 161.5t-38 160.5q-37 74 -109 116.5t-162 42.5q-134 0 -219.5 -92t-85.5 -227zM1098 1901l-324 -365h-356l252 365h428zM1638 1901l-323 -365h-357l254 365h426z" />
    <glyph glyph-name="ohungarumlaut" unicode="&#x151;" horiz-adv-x="1302" 
d="M885 1491l-324 -365h-354l252 365h426zM1427 1491l-325 -365h-354l251 365h428zM651 1044q156 3 294 -69.5t219 -197t77 -265.5q0 -222 -174 -377q-171 -155 -416 -155q-244 0 -418 155q-172 156 -172 377t172 377q174 155 418 155zM649 692q-55 3 -100.5 -30.5
t-65.5 -81.5t-11.5 -103t50.5 -92q37 -42 91.5 -50.5t102.5 11.5t81 65.5t30 100.5q0 75 -52 127.5t-126 52.5z" />
    <glyph glyph-name="OE" unicode="&#x152;" horiz-adv-x="2455" 
d="M1628 399h768v-399h-1212v45q-154 -65 -320 -65q-153 -4 -297.5 55t-249 159.5t-166.5 238t-59 284.5q-2 117 37 230t111.5 204.5t168.5 161t214 106.5t241 35q166 0 320 -65v45h1200v-400h-756v-119h707v-378h-707v-138zM1171 717q0 134 -86.5 226.5t-222.5 92.5
q-134 0 -220.5 -92.5t-86.5 -226.5q0 -136 86 -228t221 -92q137 0 223 92t86 228z" />
    <glyph glyph-name="oe" unicode="&#x153;" horiz-adv-x="1976" 
d="M1923 512v-98h-678q1 -64 54 -99.5t131 -35.5q122 0 194 69l217 -192q-188 -176 -446 -176q-205 0 -361 129q-166 -129 -385 -129q-244 0 -418 155q-172 156 -172 377t172 377q174 155 418 155q217 0 383 -126q150 126 350 126q165 0 289.5 -72t188 -191.5t63.5 -268.5z
M1249 606h287q0 64 -39 105t-104 41q-60 0 -102 -43t-42 -103zM825 512q0 75 -53 127.5t-127 52.5q-71 0 -124.5 -53t-53.5 -127t53.5 -127t126.5 -53t125.5 53t52.5 127z" />
    <glyph glyph-name="Racute" unicode="&#x154;" horiz-adv-x="1521" 
d="M1303 1901l-324 -365h-356l254 365h426zM121 0v1434h653q357 0 514 -121q158 -122 158 -391q0 -178 -64 -288t-204 -165l303 -469h-512l-252 410h-53h-97v-410h-446zM797 1032h-230v-280h230q99 0 142.5 32.5t43.5 106.5q0 75 -43 108t-143 33z" />
    <glyph glyph-name="racute" unicode="&#x155;" horiz-adv-x="847" 
d="M938 1491l-326 -365h-354l252 365h428zM829 1044v-335q-184 0 -321 -174v-535h-416v1024h416v-186q72 99 155.5 152.5t165.5 53.5z" />
    <glyph glyph-name="Rcommaaccent" unicode="&#x156;" horiz-adv-x="1521" 
d="M123 0v1434h653q357 0 514 -121q158 -122 158 -391q0 -178 -64.5 -288.5t-203.5 -164.5l303 -469h-512l-252 410h-53h-97v-410h-446zM799 1032h-230v-280h230q99 0 142.5 32.5t43.5 106.5q0 75 -43 108t-143 33zM1004 -260q0 -41 -25 -80l-250 -365l-102 48l102 251
q-47 22 -75.5 61t-28.5 85q0 67 55 114.5t133 47.5q80 0 135.5 -47.5t55.5 -114.5z" />
    <glyph glyph-name="rcommaaccent" unicode="&#x157;" horiz-adv-x="847" 
d="M829 1044v-335q-184 0 -321 -174v-535h-416v1024h416v-186q72 99 155.5 152.5t165.5 53.5zM635 -260q0 -41 -25 -80l-250 -365l-102 48l104 251q-48 20 -76 59.5t-28 86.5q0 67 55 114.5t133 47.5t133.5 -47.5t55.5 -114.5z" />
    <glyph glyph-name="Rcaron" unicode="&#x158;" horiz-adv-x="1521" 
d="M1282 1901l-252 -365h-434l-252 365h342l127 -152l127 152h342zM123 0v1434h653q357 0 514 -121q158 -122 158 -391q0 -178 -64.5 -288.5t-203.5 -164.5l303 -469h-512l-252 410h-53h-97v-410h-446zM799 1032h-230v-280h230q99 0 142.5 32.5t43.5 106.5q0 75 -43 108
t-143 33z" />
    <glyph glyph-name="rcaron" unicode="&#x159;" horiz-adv-x="847" 
d="M918 1491l-254 -365h-433l-254 365h345l124 -152l127 152h345zM831 1044v-335q-184 0 -321 -174v-535h-416v1024h416v-186q69 98 154 152t167 54z" />
    <glyph glyph-name="Sacute" unicode="&#x15a;" horiz-adv-x="1454" 
d="M1229 1901l-324 -365h-356l254 365h426zM737 1454q361 0 631 -162l-186 -344q-121 60 -256.5 95.5t-237.5 35.5q-82 0 -82 -53q0 -20 35 -35q27 -12 184 -51q86 -24 136 -39q152 -46 227 -92q100 -58 153.5 -139t53.5 -201q0 -233 -161 -361t-452 -128q-413 0 -721 204
l199 332q282 -156 574 -156q90 0 90 52q0 26 -13 39.5t-59.5 28.5t-153.5 38q-148 39 -225 62q-92 29 -182 79q-168 107 -168 312q0 97 30.5 176.5t85.5 136t132 95t168.5 57t197.5 18.5z" />
    <glyph glyph-name="sacute" unicode="&#x15b;" horiz-adv-x="1064" 
d="M526 1044q262 0 457 -116l-135 -252q-175 94 -324 94q-53 0 -53 -39q0 -14 21 -23.5t98 -29.5q178 -45 293 -117q118 -73 118 -231q0 -167 -115.5 -258.5t-324.5 -91.5q-297 0 -522 147l143 240q183 -113 375 -113q59 0 59 37q0 22 -16 28q-17 10 -102 31l-133 39
q-147 54 -203 107q-78 78 -78 200q0 114 59.5 194t157.5 117t225 37zM1018 1491l-324 -365h-356l252 365h428z" />
    <glyph glyph-name="Scedilla" unicode="&#x15e;" horiz-adv-x="1454" 
d="M737 1454q361 0 631 -162l-186 -344q-121 60 -256.5 95.5t-237.5 35.5q-82 0 -82 -53q0 -12 4.5 -18.5t29.5 -16.5t63 -20t122 -31q91 -24 156 -45q175 -54 252 -115q162 -113 162 -311q0 -200 -118.5 -323.5t-336.5 -155.5l-82 -8l-33 -66q31 -3 58 -12
q60 -20 95.5 -68.5t35.5 -111.5q0 -99 -74.5 -153t-191.5 -54q-131 0 -236 57l53 143q47 -24 107 -24q45 1 70.5 24.5t27.5 57.5q0 28 -17 48t-46 21q-26 0 -45 -8l-48 41l54 107q-342 24 -607 200l199 332q282 -156 574 -156q90 0 90 52q0 26 -13 39.5t-59.5 28.5
t-153.5 38q-148 39 -225 62q-92 29 -182 79q-168 107 -168 312q0 97 30.5 176.5t85.5 136t132 95t168.5 57t197.5 18.5z" />
    <glyph glyph-name="scedilla" unicode="&#x15f;" horiz-adv-x="1064" 
d="M526 1044q262 0 457 -116l-135 -252q-175 94 -324 94q-53 0 -53 -39q0 -14 21 -23.5t98 -29.5q178 -45 293 -117q118 -73 118 -231q0 -147 -92 -237t-260 -109h-14l-33 -68q30 -3 57 -12q60 -20 94.5 -68.5t34.5 -111.5q0 -100 -73 -153.5t-193 -53.5q-128 0 -233 57
l53 143q46 -24 107 -24q43 1 69.5 25t26.5 57q2 27 -15 47.5t-47 21.5q-26 0 -45 -8l-47 41l53 109q-226 21 -405 141l143 240q183 -113 375 -113q59 0 59 37q0 22 -16 28q-17 10 -102 31l-133 39q-147 54 -203 107q-78 78 -78 200q0 114 59.5 194t157.5 117t225 37z" />
    <glyph glyph-name="Scaron" unicode="&#x160;" horiz-adv-x="1454" 
d="M1206 1901l-252 -365h-434l-252 365h342l127 -152l127 152h342zM737 1454q361 0 631 -162l-186 -344q-121 60 -256.5 95.5t-237.5 35.5q-82 0 -82 -53q0 -20 35 -35q27 -12 184 -51q91 -24 156 -45q175 -54 252 -115q162 -113 162 -311q0 -233 -161 -361t-452 -128
q-413 0 -721 204l199 332q282 -156 574 -156q90 0 90 52q0 26 -13 39.5t-59.5 28.5t-153.5 38q-148 39 -225 62q-92 29 -182 79q-168 107 -168 312q0 97 30.5 176.5t85.5 136t132 95t168.5 57t197.5 18.5z" />
    <glyph glyph-name="scaron" unicode="&#x161;" horiz-adv-x="1064" 
d="M995 1491l-252 -365h-434l-252 365h342l127 -152l127 152h342zM526 1044q262 0 457 -116l-135 -252q-175 94 -324 94q-53 0 -53 -39q0 -14 21 -23.5t98 -29.5q178 -45 293 -117q118 -73 118 -231q0 -167 -115.5 -258.5t-324.5 -91.5q-297 0 -522 147l143 240
q183 -113 375 -113q59 0 59 37q0 22 -16 28q-17 10 -102 31l-133 39q-147 54 -203 107q-78 78 -78 200q0 114 59.5 194t157.5 117t225 37z" />
    <glyph glyph-name="Tcedilla" unicode="&#x162;" horiz-adv-x="1316" 
d="M1278 1434v-379h-395v-1055h-135l-43 -84q31 -3 59 -12q60 -20 94.5 -68.5t34.5 -111.5q0 -100 -73 -153.5t-193 -53.5q-129 0 -234 57l51 143q46 -24 109 -24q43 1 69.5 25t26.5 57q2 27 -15.5 47.5t-47.5 21.5q-24 0 -43 -8l-47 41l61 123h-121v1055h-395v379h1237z
" />
    <glyph glyph-name="tcedilla" unicode="&#x163;" horiz-adv-x="927" 
d="M578 1278v-254h231v-315h-231v-299q0 -46 28.5 -70.5t77.5 -24.5q68 0 133 39l51 -280q-87 -46 -155 -64q-66 -20 -138 -26l-32 -68q30 -3 57 -12q61 -21 96 -68t35 -112q0 -100 -74 -153.5t-194 -53.5q-129 0 -234 57l54 143q47 -24 106 -24q45 1 70.5 24.5t25.5 57.5
q3 27 -14 46.5t-47 22.5q-26 0 -45 -8l-47 41l59 119q-109 33 -169 119.5t-60 222.5v371h-121v315h121v254h416z" />
    <glyph glyph-name="Tcaron" unicode="&#x164;" horiz-adv-x="1316" 
d="M1112 1901l-252 -365h-434l-252 365h342l127 -152l125 152h344zM1278 1434v-379h-395v-1055h-447v1055h-395v379h1237z" />
    <glyph glyph-name="tcaron" unicode="&#x165;" horiz-adv-x="1171" 
d="M1171 1489q0 -43 -24 -80l-250 -365l-102 48l102 254q-48 19 -76 57.5t-28 85.5q0 67 55 114.5t133 47.5q79 0 134.5 -47t55.5 -115zM578 1278v-254h231v-315h-231v-299q0 -46 28.5 -70.5t77.5 -24.5q68 0 133 39l51 -280q-174 -91 -348 -94q-161 -2 -259.5 91.5
t-98.5 266.5v371h-121v315h121v254h416z" />
    <glyph glyph-name="Tbar" unicode="&#x166;" horiz-adv-x="1316" 
d="M1278 1055h-395v-213h145v-256h-145v-586h-447v586h-145v256h145v213h-395v379h1237v-379z" />
    <glyph glyph-name="tbar" unicode="&#x167;" horiz-adv-x="927" 
d="M815 354l51 -280q-162 -87 -348 -94q-161 -2 -260.5 91.5t-99.5 266.5v61h-105v256h105v54h-119v315h119v256h417v-256h232v-315h-232v-54h218v-256h-218q6 -84 107 -84q68 0 133 39z" />
    <glyph glyph-name="Utilde" unicode="&#x168;" horiz-adv-x="1568" 
d="M559 1892q55 12 94 6t119 -34q135 -48 176 -45q52 3 70 67l153 -18q20 -127 -18 -212t-125 -108q-55 -12 -94 -6q-40 6 -117 33l-41 14q-90 32 -98 33q-21 3 -45 -2q-47 -12 -62 -66l-153 17q-23 126 15.5 212t125.5 109zM1012 1434h444v-768q0 -344 -171.5 -515
t-496.5 -171q-323 0 -494 171t-171 515v768h446v-768q0 -279 222 -279q221 0 221 279v768z" />
    <glyph glyph-name="utilde" unicode="&#x169;" horiz-adv-x="1282" 
d="M416 1483q56 12 95.5 6.5t115.5 -35.5q136 -48 178 -45q52 3 67 68l154 -19q23 -126 -15.5 -210.5t-125.5 -108.5q-58 -12 -97 -6q-44 6 -116 32l-39 15q-86 30 -98 32q-21 4 -46 -2q-48 -12 -63 -65l-154 16q-20 127 18.5 213t125.5 109zM1200 1024v-1024h-416v100
q-159 -120 -348 -120q-159 0 -256.5 85t-97.5 240v719h416v-592q0 -55 29.5 -86t80.5 -31q98 0 176 60v649h416z" />
    <glyph glyph-name="Umacron" unicode="&#x16a;" horiz-adv-x="1568" 
d="M1012 1434h444v-768q0 -344 -171.5 -515t-496.5 -171q-323 0 -494 171t-171 515v768h446v-768q0 -279 222 -279q221 0 221 279v768zM1159 1864v-256h-739v256h739z" />
    <glyph glyph-name="umacron" unicode="&#x16b;" horiz-adv-x="1282" 
d="M1014 1454v-256h-738v256h738zM82 1024h416v-592q0 -55 29.5 -86t80.5 -31q98 0 176 60v649h416v-1024h-416v100q-159 -120 -348 -120q-159 0 -256.5 85t-97.5 240v719z" />
    <glyph glyph-name="Uring" unicode="&#x16e;" horiz-adv-x="1568" 
d="M582 1933q87 84 206 84q122 0 209 -84q86 -83 86 -202q0 -120 -86 -203q-87 -84 -209 -84q-119 0 -206 84q-84 84 -84 203q0 118 84 202zM860 1798q-29 29 -69.5 29t-69.5 -29q-29 -26 -29 -67t29 -70q29 -26 69.5 -26t69.5 26q29 29 29 70t-29 67zM1012 1434h444v-768
q0 -344 -171.5 -515t-496.5 -171q-323 0 -494 171t-171 515v768h446v-768q0 -279 222 -279q221 0 221 279v768z" />
    <glyph glyph-name="uring" unicode="&#x16f;" horiz-adv-x="1282" 
d="M438 1524q87 84 207 84q122 0 209 -84q86 -83 86 -203t-86 -203q-87 -84 -209 -84q-120 0 -207 84q-86 83 -86 203t86 203zM715 1389q-29 29 -68.5 29t-68.5 -29q-29 -26 -29 -67.5t29 -70.5q29 -26 68.5 -26t68.5 26q29 29 29 70.5t-29 67.5zM82 1024h416v-592
q0 -55 29.5 -86t80.5 -31q98 0 176 60v649h416v-1024h-416v100q-159 -120 -348 -120q-159 0 -256.5 85t-97.5 240v719z" />
    <glyph glyph-name="Uhungarumlaut" unicode="&#x170;" horiz-adv-x="1568" 
d="M1024 1901l-324 -365h-356l254 365h426zM1565 1901l-324 -365h-354l252 365h426zM1012 1434h444v-768q0 -344 -171.5 -515t-496.5 -171q-323 0 -494 171t-171 515v768h446v-768q0 -279 222 -279q221 0 221 279v768z" />
    <glyph glyph-name="uhungarumlaut" unicode="&#x171;" horiz-adv-x="1282" 
d="M80 1024h416v-592q0 -55 29.5 -86t80.5 -31q98 0 176 60v649h416v-1024h-416v100q-159 -120 -348 -120q-159 0 -256.5 85t-97.5 240v719zM879 1491l-324 -365h-356l252 365h428zM1419 1491l-323 -365h-357l254 365h426z" />
    <glyph glyph-name="Uogonek" unicode="&#x172;" horiz-adv-x="1568" 
d="M1012 1434h444v-768q0 -438 -280 -598l-9 -15q-65 -93 -45 -147q17 -44 80 -53q28 -6 72 4l47 -187q-82 -32 -201 -32q-182 0 -237 98q-51 89 14 235l6 15q-53 -6 -112 -6q-325 0 -496.5 171t-171.5 515v768h446v-768q0 -279 222 -279q221 0 221 279v768z" />
    <glyph glyph-name="uogonek" unicode="&#x173;" horiz-adv-x="1282" 
d="M82 1024h416v-592q0 -55 29.5 -86t80.5 -31q98 0 176 60v649h416v-1024h-194l-2 -4q-64 -91 -43 -148q15 -47 77 -53q31 -5 74 4l47 -186q-85 -33 -201 -33q-181 0 -239 98q-65 118 57 310l8 14v98q-159 -120 -348 -120q-159 0 -256.5 85t-97.5 240v719z" />
    <glyph glyph-name="Wcircumflex" unicode="&#x174;" horiz-adv-x="2367" 
d="M1403 1901l252 -365h-344l-125 152l-127 -152h-342l252 365h434zM2327 1434l-465 -1434h-455l-223 727l-223 -727h-455l-465 1434h498l217 -736l213 736h432l211 -736l217 736h498z" />
    <glyph glyph-name="wcircumflex" unicode="&#x175;" horiz-adv-x="1716" 
d="M1073 1491l252 -365h-342l-127 152l-127 -152h-342l252 365h434zM1698 1024l-291 -1024h-444l-105 403l-102 -403h-447l-289 1024h414l119 -575l147 575h318l145 -575l119 575h416z" />
    <glyph glyph-name="Ycircumflex" unicode="&#x176;" horiz-adv-x="1642" 
d="M1038 1901l252 -365h-342l-127 152l-127 -152h-342l252 365h434zM1602 1434l-558 -949v-485h-446v479l-557 955h532l250 -478l252 478h527z" />
    <glyph glyph-name="ycircumflex" unicode="&#x177;" horiz-adv-x="1280" 
d="M885 1491l252 -365h-342l-127 152l-127 -152h-342l252 365h434zM829 1024h433l-416 -1114q-124 -330 -447 -330q-152 -3 -379 82l115 270q141 -54 223 -45q74 9 121 74l6 8l-432 1055h439l176 -537z" />
    <glyph glyph-name="Ydieresis" unicode="&#x178;" horiz-adv-x="1642" 
d="M610 1567q-72 0 -120 47.5t-48 122.5q0 71 47 118q49 49 122 49t120 -49q49 -46 49 -120q0 -72 -48.5 -120t-121.5 -48zM909 1855q49 49 122 49t120 -49q49 -47 49 -119t-49 -122q-47 -47 -120 -47t-122 47q-47 50 -47 122t47 119zM1602 1434l-558 -949v-485h-446v479
l-557 955h532l250 -478l252 478h527z" />
    <glyph glyph-name="Zacute" unicode="&#x179;" horiz-adv-x="1411" 
d="M1196 1901l-326 -365h-354l252 365h428zM1325 1434v-312l-623 -729h648v-393h-1289v317l596 723h-544v394h1212z" />
    <glyph glyph-name="zacute" unicode="&#x17a;" horiz-adv-x="1105" 
d="M1065 1491l-324 -365h-356l254 365h426zM1036 1024v-266l-397 -424h418v-334h-1006v266l395 424h-354v334h944z" />
    <glyph glyph-name="Zdotaccent" unicode="&#x17b;" horiz-adv-x="1411" 
d="M584 1855q50 49 121 49t120 -49q49 -47 49 -119t-49 -122q-49 -47 -120 -47t-121 47q-50 50 -50 122t50 119zM1325 1434v-312l-623 -729h648v-393h-1289v317l596 723h-544v394h1212z" />
    <glyph glyph-name="zdotaccent" unicode="&#x17c;" horiz-adv-x="1105" 
d="M1036 1024v-266l-397 -424h418v-334h-1006v266l395 424h-354v334h944zM453 1446q49 50 121.5 50t119.5 -50q50 -47 50 -119.5t-50 -122.5q-47 -47 -119 -47t-122 47q-47 50 -47 122.5t47 119.5z" />
    <glyph glyph-name="Zcaron" unicode="&#x17d;" horiz-adv-x="1411" 
d="M1174 1901l-254 -365h-433l-254 365h345l124 -152l127 152h345zM1325 1434v-312l-623 -729h648v-393h-1289v317l596 723h-544v394h1212z" />
    <glyph glyph-name="zcaron" unicode="&#x17e;" horiz-adv-x="1105" 
d="M1042 1491l-251 -365h-435l-252 365h342l127 -152l127 152h342zM1036 1024v-266l-397 -424h418v-334h-1006v266l395 424h-354v334h944z" />
    <glyph glyph-name="florin" unicode="&#x192;" horiz-adv-x="835" 
d="M543 1454q148 0 313 -51l-51 -254q-84 30 -133 27q-97 0 -97 -89v-178h232v-313h-232v-664q0 -93 -30 -163t-83 -110t-116 -59.5t-137 -19.5q-87 0 -170 21v239q55 0 87 32t32 87v637h-119v313h119v191q0 79 20.5 141t55.5 101.5t85 65t105 36t119 10.5z" />
    <glyph glyph-name="Ohorn" unicode="&#x1a0;" horiz-adv-x="1726" 
d="M1401 1516h405v-78q0 -126 -80 -221q-79 -97 -198 -127q106 -169 106 -373q0 -200 -103 -370t-282 -269q-174 -98 -387 -98q-210 0 -387 98q-178 99 -280.5 269t-102.5 370q-2 117 37 230t111.5 204.5t168.5 161t214 106.5t241 35q274 0 486 -164q51 34 51 92v134z
M557 717q0 -135 84 -228q86 -92 223 -92q87 0 159.5 43t109.5 115q38 73 38 161.5t-38 160.5q-37 74 -109 116.5t-162 42.5q-134 0 -219.5 -92t-85.5 -227z" />
    <glyph glyph-name="ohorn" unicode="&#x1a1;" horiz-adv-x="1302" 
d="M1020 1133h405v-78q0 -110 -64 -202t-167 -130q47 -103 47 -211q0 -222 -174 -377q-171 -155 -416 -155q-244 0 -418 155q-172 156 -172 377t172 377q174 155 418 155q195 0 350 -104q19 28 19 59v134zM649 692q-55 3 -100.5 -30.5t-65.5 -81.5t-11.5 -103t50.5 -92
q37 -42 91.5 -50.5t102.5 11.5t81 65.5t30 100.5q0 75 -52 127.5t-126 52.5z" />
    <glyph glyph-name="Uhorn" unicode="&#x1af;" horiz-adv-x="1568" 
d="M1569 1516h362v-78q0 -172 -117 -261t-358 -96v-415q0 -344 -171.5 -515t-496.5 -171q-323 0 -494 171t-171 515v768h446v-768q0 -279 222 -279q221 0 221 279v768h444v-162q47 0 80 32.5t33 77.5v134z" />
    <glyph glyph-name="uhorn" unicode="&#x1b0;" horiz-adv-x="1282" 
d="M1292 1133h320v-78q0 -174 -97 -259.5t-317 -97.5v-698h-416v100q-159 -120 -348 -120q-159 0 -256.5 85t-97.5 240v719h416v-592q0 -55 29.5 -86t80.5 -31q98 0 176 60v649h416v-135q41 8 67.5 38.5t26.5 71.5v134z" />
    <glyph glyph-name="Acaron" unicode="&#x1cd;" horiz-adv-x="1765" 
d="M1350 1901l-254 -365h-432l-254 365h344l125 -152l127 152h344zM1171 1434l553 -1434h-532l-74 219h-473l-72 -219h-532l547 1434h583zM881 936l-119 -363h239z" />
    <glyph glyph-name="acaron" unicode="&#x1ce;" horiz-adv-x="1198" 
d="M1128 1491l-251 -365h-435l-252 365h342l127 -152l125 152h344zM668 1044q95 0 173 -20.5t141 -64t97.5 -119t34.5 -178.5v-662h-416v119q-133 -139 -315 -139q-142 0 -233 88t-91 229q0 140 97.5 219.5t265.5 79.5h276v25q0 104 -145 104q-131 -3 -279 -80l-116 264
q252 132 510 135zM698 260v180h-112q-115 0 -115 -102q0 -51 28.5 -82t73.5 -31q72 0 125 35z" />
    <glyph glyph-name="Icaron" unicode="&#x1cf;" horiz-adv-x="690" 
d="M831 1901l-253 -365h-433l-254 365h345l124 -152l127 152h344zM571 1434v-1434h-446v1434h446z" />
    <glyph glyph-name="icaron" unicode="&#x1d0;" horiz-adv-x="620" 
d="M793 1491l-254 -365h-433l-253 365h344l127 -152l125 152h344zM530 1024v-1024h-415v1024h415z" />
    <glyph glyph-name="Ocaron" unicode="&#x1d1;" horiz-adv-x="1726" 
d="M1331 1901l-252 -365h-434l-252 365h342l127 -152l125 152h344zM475 1356q177 98 387 98q213 0 387 -98q179 -99 281 -269q104 -168 104 -370q0 -200 -103 -370t-282 -269q-174 -98 -387 -98q-208 0 -385 97.5t-282 268.5q-103 171 -103 371t102.5 370t280.5 269z
M557 717q0 -135 84 -228q86 -92 223 -92q87 0 159.5 43t109.5 115q38 73 38 161.5t-38 160.5q-37 74 -109 116.5t-162 42.5q-134 0 -219.5 -92t-85.5 -227z" />
    <glyph glyph-name="ocaron" unicode="&#x1d2;" horiz-adv-x="1302" 
d="M1120 1491l-254 -365h-432l-254 365h344l125 -152l127 152h344zM651 1044q156 3 294 -69.5t219 -197t77 -265.5q0 -222 -174 -377q-171 -155 -416 -155q-244 0 -418 155q-172 156 -172 377t172 377q174 155 418 155zM649 692q-55 3 -100.5 -30.5t-65.5 -81.5t-11.5 -103
t50.5 -92q37 -42 91.5 -50.5t102.5 11.5t81 65.5t30 100.5q0 75 -52 127.5t-126 52.5z" />
    <glyph glyph-name="Ucaron" unicode="&#x1d3;" horiz-adv-x="1568" 
d="M1012 1434h444v-768q0 -344 -171.5 -515t-496.5 -171q-323 0 -494 171t-171 515v768h446v-768q0 -279 222 -279q221 0 221 279v768zM1257 1901l-251 -365h-435l-252 365h345l124 -152l127 152h342z" />
    <glyph glyph-name="ucaron" unicode="&#x1d4;" horiz-adv-x="1282" 
d="M1114 1491l-252 -365h-434l-252 365h342l127 -152l125 152h344zM82 1024h416v-592q0 -55 29.5 -86t80.5 -31q98 0 176 60v649h416v-1024h-416v100q-159 -120 -348 -120q-159 0 -256.5 85t-97.5 240v719z" />
    <glyph glyph-name="Udieresismacron" unicode="&#x1d5;" horiz-adv-x="1568" 
d="M1159 2200v-256h-739v256h739zM580 1536q-72 0 -121 48t-49 122q-4 53 27.5 95t77.5 60t98 10t87 -46q50 -47 50 -121q0 -72 -49 -120t-121 -48zM879 1825q49 49 121.5 49t119.5 -49q50 -47 50 -120t-50 -122q-47 -47 -119.5 -47t-121.5 47q-47 49 -47 122t47 120z
M1012 1434h444v-768q0 -344 -171.5 -515t-496.5 -171q-323 0 -494 171t-171 515v768h446v-768q0 -279 222 -279q221 0 221 279v768z" />
    <glyph glyph-name="udieresismacron" unicode="&#x1d6;" horiz-adv-x="1282" 
d="M1012 1792v-256h-738v256h738zM434 1157q-72 0 -121 48.5t-49 121.5q0 72 47 119q49 50 122 50t120 -50q49 -46 49 -121q0 -72 -48 -120t-120 -48zM733 1446q49 50 122 50t120 -50q49 -47 49 -119.5t-49 -122.5q-47 -47 -120 -47t-122 47q-47 50 -47 122.5t47 119.5z
M80 1024h416v-592q0 -55 29.5 -86t80.5 -31q98 0 176 60v649h416v-1024h-416v100q-159 -120 -348 -120q-159 0 -256.5 85t-97.5 240v719z" />
    <glyph glyph-name="Udieresisacute" unicode="&#x1d7;" horiz-adv-x="1568" 
d="M1280 2308l-324 -364h-356l254 364h426zM580 1536q-71 0 -120.5 48.5t-49.5 121.5q-4 53 27.5 95t77.5 60t98 10t87 -46q50 -47 50 -121q0 -72 -49 -120t-121 -48zM879 1825q49 49 121.5 49t119.5 -49q50 -47 50 -120t-50 -122q-47 -47 -119.5 -47t-121.5 47
q-47 49 -47 122t47 120zM1012 1434h444v-768q0 -344 -171.5 -515t-496.5 -171q-323 0 -494 171t-171 515v768h446v-768q0 -279 222 -279q221 0 221 279v768z" />
    <glyph glyph-name="udieresisacute" unicode="&#x1d8;" horiz-adv-x="1282" 
d="M1135 1901l-324 -365h-356l252 365h428zM311 1446q49 50 122 50t120 -50q49 -47 49 -119.5t-49 -122.5q-47 -47 -119.5 -47t-122.5 47q-47 50 -47 122.5t47 119.5zM733 1446q49 50 122 50t120 -50q49 -47 49 -119.5t-49 -122.5q-47 -47 -120 -47t-122 47
q-47 50 -47 122.5t47 119.5zM80 1024h416v-592q0 -55 29.5 -86t80.5 -31q98 0 176 60v649h416v-1024h-416v100q-159 -120 -348 -120q-159 0 -256.5 85t-97.5 240v719z" />
    <glyph glyph-name="Udieresiscaron" unicode="&#x1d9;" horiz-adv-x="1568" 
d="M1257 2308l-251 -364h-435l-252 364h345l124 -151l127 151h342zM580 1536q-72 0 -121 48t-49 122q-4 53 27.5 95t77.5 60t98 10t87 -46q50 -47 50 -121q0 -72 -49 -120t-121 -48zM879 1825q49 49 121.5 49t119.5 -49q50 -47 50 -120t-50 -122q-47 -47 -119.5 -47
t-121.5 47q-47 49 -47 122t47 120zM1012 1434h444v-768q0 -344 -171.5 -515t-496.5 -171q-323 0 -494 171t-171 515v768h446v-768q0 -279 222 -279q221 0 221 279v768z" />
    <glyph glyph-name="udieresiscaron" unicode="&#x1da;" horiz-adv-x="1282" 
d="M1114 1901l-252 -365h-434l-252 365h342l127 -152l125 152h344zM436 1157q-72 0 -121 48.5t-49 121.5q0 72 47 119q49 50 122 50t120 -50q49 -46 49 -121q0 -72 -48 -120t-120 -48zM735 1446q49 50 122 50t120 -50q49 -47 49 -119.5t-49 -122.5q-47 -47 -120 -47t-122 47
q-47 50 -47 122.5t47 119.5zM82 1024h416v-592q0 -55 29.5 -86t80.5 -31q98 0 176 60v649h416v-1024h-416v100q-159 -120 -348 -120q-159 0 -256.5 85t-97.5 240v719z" />
    <glyph glyph-name="Udieresisgrave" unicode="&#x1db;" horiz-adv-x="1568" 
d="M717 2308l254 -364h-357l-323 364h426zM580 1536q-72 0 -121 48t-49 122q-4 53 27.5 95t77.5 60t98 10t87 -46q50 -47 50 -121q0 -72 -49 -120t-121 -48zM879 1825q49 49 121.5 49t119.5 -49q50 -47 50 -120t-50 -122q-47 -47 -119.5 -47t-121.5 47q-47 49 -47 122
t47 120zM1012 1434h444v-768q0 -344 -171.5 -515t-496.5 -171q-323 0 -494 171t-171 515v768h446v-768q0 -279 222 -279q221 0 221 279v768z" />
    <glyph glyph-name="udieresisgrave" unicode="&#x1dc;" horiz-adv-x="1282" 
d="M573 1901l254 -365h-356l-324 365h426zM436 1157q-72 0 -121 48.5t-49 121.5q0 72 47 119q49 50 122 50t120 -50q49 -46 49 -121q0 -72 -48 -120t-120 -48zM735 1446q49 50 122 50t120 -50q49 -47 49 -119.5t-49 -122.5q-47 -47 -120 -47t-122 47q-47 50 -47 122.5
t47 119.5zM82 1024h416v-592q0 -55 29.5 -86t80.5 -31q98 0 176 60v649h416v-1024h-416v100q-159 -120 -348 -120q-159 0 -256.5 85t-97.5 240v719z" />
    <glyph glyph-name="Adieresismacron" unicode="&#x1de;" horiz-adv-x="1765" 
d="M1171 1434l553 -1434h-532l-74 219h-473l-72 -219h-532l547 1434h583zM881 936l-119 -363h239zM549 1825q49 49 122 49t120 -49q49 -47 49 -120t-49 -122q-47 -47 -120 -47t-122 47q-47 49 -47 122t47 120zM969 1825q49 49 121.5 49t119.5 -49q50 -47 50 -120t-50 -122
q-47 -47 -119.5 -47t-121.5 47q-47 49 -47 122t47 120zM1249 2200v-256h-739v256h739z" />
    <glyph glyph-name="adieresismacron" unicode="&#x1df;" horiz-adv-x="1198" 
d="M1030 1792v-256h-737v256h737zM330 1446q50 50 122 50t119 -50q49 -47 49 -119.5t-49 -122.5q-47 -47 -119 -47t-122 47q-47 50 -47 122.5t47 119.5zM752 1446q50 50 122 50t119 -50q49 -47 49 -119.5t-49 -122.5q-47 -47 -119 -47t-122 47q-47 50 -47 122.5t47 119.5z
M670 1044q95 0 173 -20.5t141 -64t97.5 -119t34.5 -178.5v-662h-416v119q-133 -139 -315 -139q-142 0 -233 88t-91 229q0 140 97.5 219.5t265.5 79.5h276v25q0 104 -145 104q-131 -3 -279 -80l-116 264q252 132 510 135zM700 260v180h-110q-117 0 -117 -102q0 -51 28.5 -82
t73.5 -31q72 0 125 35z" />
    <glyph glyph-name="Gcaron" unicode="&#x1e6;" horiz-adv-x="1622" 
d="M1294 1901l-252 -365h-434l-252 365h342l127 -152l125 152h344zM891 1454q330 -3 575 -213l-290 -303q-121 106 -285 106q-140 0 -238 -88q-96 -90 -96 -239q0 -135 84 -228q86 -92 223 -92q122 0 223 49v84h-196v316h620v-649q-284 -217 -647 -217q-153 -4 -297.5 55
t-249 159.5t-166.5 238t-59 284.5q0 170 66.5 314t181.5 237q112 92 254.5 140t296.5 46z" />
    <glyph glyph-name="gcaron" unicode="&#x1e7;" horiz-adv-x="1329" 
d="M1169 1491l-254 -365h-432l-254 365h344l125 -152l127 152h344zM502 1044q176 0 309 -139v119h416v-983q0 -101 -28.5 -180.5t-77.5 -132.5t-119 -88t-149 -50.5t-171 -15.5q-301 3 -598 152l117 268q213 -104 393 -107q101 -2 159 37t58 117v80q-121 -121 -309 -121
q-204 0 -318 141q-112 141 -112 371q0 231 114 381q115 151 316 151zM657 692q-73 0 -124.5 -52.5t-51.5 -127.5q0 -74 51.5 -127t124.5 -53q47 0 89 25.5t65 68.5v172q-23 43 -65 68.5t-89 25.5z" />
    <glyph glyph-name="Oslashacute" unicode="&#x1fe;" horiz-adv-x="1726" 
d="M1305 1901l-324 -365h-356l252 365h428zM1069 1536h367l-109 -229q144 -106 225.5 -260t81.5 -330q3 -147 -59 -284.5t-166.5 -238t-249 -159.5t-297.5 -55q-75 0 -157 16l-48 -98h-366l108 229q-144 106 -225.5 260t-81.5 330q-2 117 37 230t111.5 204.5t168.5 161
t214 106.5t241 35q76 0 158 -16zM555 717q0 -96 45 -170l231 487q-123 -12 -199.5 -100.5t-76.5 -216.5zM1126 887l-231 -488q122 12 198 101t76 217q0 94 -43 170z" />
    <glyph glyph-name="oslashacute" unicode="&#x1ff;" horiz-adv-x="1302" 
d="M811 1126h262l-86 -178q116 -73 184 -188.5t68 -247.5q0 -222 -174 -377q-171 -155 -416 -155q-54 0 -119 10l-43 -92h-260l84 178q-115 74 -183.5 189t-68.5 247q0 221 172 377q174 155 418 155q54 0 119 -10zM467 512q0 -37 16 -74l119 248q-60 -13 -97.5 -62
t-37.5 -112zM813 580l-117 -240q58 17 93.5 64t35.5 108q0 34 -12 68zM1061 1491l-324 -365h-356l252 365h428z" />
    <glyph glyph-name="Scommaaccent" unicode="&#x218;" horiz-adv-x="1454" 
d="M737 1454q361 0 631 -162l-186 -344q-121 60 -256.5 95.5t-237.5 35.5q-82 0 -82 -53q0 -20 35 -35q27 -12 184 -51q91 -24 156 -45q175 -54 252 -115q162 -113 162 -311q0 -233 -161 -361t-452 -128q-413 0 -721 204l199 332q282 -156 574 -156q90 0 90 52
q0 26 -13 39.5t-59.5 28.5t-153.5 38q-148 39 -225 62q-92 29 -182 79q-168 107 -168 312q0 97 30.5 176.5t85.5 136t132 95t168.5 57t197.5 18.5zM985 -260q0 -42 -24 -80l-250 -365l-103 48l103 251q-48 20 -76.5 59.5t-28.5 86.5q0 67 55.5 114.5t133.5 47.5
q79 0 134.5 -47t55.5 -115z" />
    <glyph glyph-name="scommaaccent" unicode="&#x219;" horiz-adv-x="1064" 
d="M526 1044q262 0 457 -116l-135 -252q-175 94 -324 94q-53 0 -53 -39q0 -14 21 -23.5t98 -29.5q178 -45 293 -117q118 -73 118 -231q0 -167 -115.5 -258.5t-324.5 -91.5q-297 0 -522 147l143 240q183 -113 375 -113q59 0 59 37q0 22 -16 28q-17 10 -102 31l-133 39
q-147 54 -203 107q-78 78 -78 200q0 114 59.5 194t157.5 117t225 37zM729 -260q0 -42 -24 -80l-250 -365l-103 48l103 251q-48 20 -76.5 59.5t-28.5 86.5q0 67 55.5 114.5t133.5 47.5q79 0 134.5 -47t55.5 -115z" />
    <glyph glyph-name="uni021A" unicode="&#x21a;" horiz-adv-x="1316" 
d="M1278 1434v-379h-395v-1055h-447v1055h-395v379h1237zM834 -260q0 -41 -25 -80l-252 -365l-100 48l102 251q-47 22 -75.5 61t-28.5 85q0 67 55 114.5t133 47.5q80 0 135.5 -47.5t55.5 -114.5z" />
    <glyph glyph-name="uni021B" unicode="&#x21b;" horiz-adv-x="927" 
d="M578 1278v-254h231v-315h-231v-299q0 -46 28.5 -70.5t77.5 -24.5q68 0 133 39l51 -280q-174 -91 -348 -94q-161 -2 -259.5 91.5t-98.5 266.5v371h-121v315h121v254h416zM670 -260q0 -41 -25 -80l-250 -365l-102 48l102 251q-48 20 -76 59.5t-28 86.5q0 67 55 114.5
t133 47.5q80 0 135.5 -47.5t55.5 -114.5z" />
    <glyph glyph-name="uni0228" unicode="&#x228;" horiz-adv-x="1396" 
d="M1325 1434v-400h-756v-119h705v-378h-705v-138h766v-399h-434l-43 -84q34 -3 60 -12q58 -21 93.5 -69.5t35.5 -110.5q0 -100 -73.5 -153.5t-193.5 -53.5q-131 0 -233 57l51 143q46 -24 109 -24q43 1 68.5 24.5t27.5 57.5q0 28 -17 48t-47 21q-26 0 -45 -8l-45 41l60 123
h-586v1434h1202z" />
    <glyph glyph-name="uni0229" unicode="&#x229;" 
d="M602 1044q247 0 391 -153q148 -151 148 -379v-98h-678q4 -66 56 -100.5t130 -34.5q120 0 195 69l215 -192q-130 -124 -309 -162q-32 -7 -58 -10l-33 -68q31 -3 58 -12q60 -20 94.5 -68.5t34.5 -111.5q0 -100 -73 -153.5t-193 -53.5q-129 0 -234 57l51 143q47 -24 109 -24
q43 1 69.5 25t26.5 57q2 27 -15.5 47.5t-45.5 21.5q-26 0 -45 -8l-47 41l55 113q-192 38 -318 182q-125 146 -125 340q0 219 158 377q158 155 383 155zM610 752q-60 0 -101.5 -43t-41.5 -103h287q0 64 -39.5 105t-104.5 41z" />
    <glyph glyph-name="uni022A" unicode="&#x22a;" horiz-adv-x="1726" 
d="M1231 2216v-256h-737v256h737zM653 1905q53 4 95 -27t60 -77t10 -99t-46 -88q-47 -47 -121 -47q-72 0 -120 48.5t-48 121.5q0 72 49 120t121 48zM952 1855q50 49 122.5 49t119.5 -49q50 -47 50 -119t-50 -122q-47 -47 -119.5 -47t-122.5 47q-47 50 -47 122t47 119z
M475 1356q177 98 387 98q213 0 387 -98q179 -99 281 -269q104 -168 104 -370q0 -200 -103 -370t-282 -269q-174 -98 -387 -98q-208 0 -385 97.5t-282 268.5q-103 171 -103 371t102.5 370t280.5 269zM557 717q0 -135 84 -228q86 -92 223 -92q87 0 159.5 43t109.5 115
q38 73 38 161.5t-38 160.5q-37 74 -109 116.5t-162 42.5q-134 0 -219.5 -92t-85.5 -227z" />
    <glyph glyph-name="uni022B" unicode="&#x22b;" horiz-adv-x="1302" 
d="M1020 1792v-256h-739v256h739zM319 1446q49 50 122 50t120 -50q49 -47 49 -119.5t-49 -122.5q-47 -47 -120 -47t-122 47q-47 50 -47 122.5t47 119.5zM739 1446q49 50 122 50t120 -50q49 -47 49 -119.5t-49 -122.5q-47 -47 -120 -47t-122 47q-47 50 -47 122.5t47 119.5z
M651 1044q156 3 294 -69.5t219 -197t77 -265.5q0 -222 -174 -377q-171 -155 -416 -155q-244 0 -418 155q-172 156 -172 377t172 377q174 155 418 155zM649 692q-55 3 -100.5 -30.5t-65.5 -81.5t-11.5 -103t50.5 -92q37 -42 91.5 -50.5t102.5 11.5t81 65.5t30 100.5
q0 75 -52 127.5t-126 52.5z" />
    <glyph glyph-name="circumflex" unicode="&#x2c6;" horiz-adv-x="1060" 
d="M748 1491l251 -365h-342l-127 152l-124 -152h-345l252 365h435z" />
    <glyph glyph-name="caron" unicode="&#x2c7;" horiz-adv-x="1060" 
d="M999 1491l-251 -365h-435l-252 365h345l124 -152l127 152h342z" />
    <glyph glyph-name="breve" unicode="&#x2d8;" horiz-adv-x="942" 
d="M608 1491h273q0 -153 -121 -256q-118 -100 -291 -100q-171 0 -290.5 101.5t-119.5 254.5h273q0 -49 39.5 -79t97.5 -30q59 0 99 29t40 80z" />
    <glyph glyph-name="dotaccent" unicode="&#x2d9;" horiz-adv-x="460" 
d="M109 1446q49 50 121.5 50t119.5 -50q50 -47 50 -119.5t-50 -122.5q-47 -47 -119.5 -47t-121.5 47q-47 50 -47 122.5t47 119.5z" />
    <glyph glyph-name="ring" unicode="&#x2da;" horiz-adv-x="708" 
d="M354 1608q121 0 207 -85t86 -202q0 -120 -86 -203q-87 -84 -207 -84t-207 84q-86 83 -86 203t86 203q87 84 207 84zM424 1389q-29 29 -69.5 29t-69.5 -29q-29 -26 -29 -67.5t29 -70.5q29 -26 69.5 -26t69.5 26q29 29 29 70.5t-29 67.5z" />
    <glyph glyph-name="ogonek" unicode="&#x2db;" horiz-adv-x="583" 
d="M219 10h223l-8 -14q-66 -93 -45 -148q15 -47 80 -53q28 -6 72 4l47 -186q-85 -33 -201 -33q-182 0 -237 98q-68 117 55 310z" />
    <glyph glyph-name="tilde" unicode="&#x2dc;" horiz-adv-x="890" 
d="M231 1483q55 12 95 6q32 -5 118 -35q135 -48 177 -45q51 3 69 68l152 -19q23 -126 -16 -210.5t-126 -108.5q-56 -12 -96 -6q-42 6 -115 32l-40 15q-85 30 -99 32q-21 3 -45 -2q-48 -12 -63 -65l-152 16q-23 126 15.5 212.5t125.5 109.5z" />
    <glyph glyph-name="hungarumlaut" unicode="&#x2dd;" horiz-adv-x="1343" 
d="M739 1491l-323 -365h-357l252 365h428zM1280 1491l-324 -365h-356l254 365h426z" />
    <glyph glyph-name="dotbelowcomb" unicode="&#x323;" horiz-adv-x="0" 
d="M109 -223q49 49 121.5 49.5t119.5 -47.5q50 -49 50 -122t-50 -120q-47 -49 -119.5 -49t-121.5 49q-47 47 -47 120t47 120z" />
    <glyph glyph-name="uni0326" unicode="&#x326;" horiz-adv-x="0" 
d="M418 -260q0 -42 -27 -80l-250 -365l-100 48l102 251q-47 22 -75.5 61t-28.5 85q0 67 55 114.5t133 47.5t134.5 -47.5t56.5 -114.5z" />
    <glyph glyph-name="uni032D" unicode="&#x32d;" horiz-adv-x="0" 
d="M748 -147l251 -365h-342l-127 152l-124 -152h-345l252 365h435z" />
    <glyph glyph-name="uni0331" unicode="&#x331;" horiz-adv-x="0" 
d="M801 -164v-256h-740v256h740z" />
    <glyph glyph-name="increment" unicode="&#x394;" horiz-adv-x="1228" 
 />
    <glyph glyph-name="Omega" unicode="&#x3a9;" horiz-adv-x="1228" 
 />
    <glyph glyph-name="mu" unicode="&#x3bc;" horiz-adv-x="1228" 
 />
    <glyph glyph-name="pi" unicode="&#x3c0;" horiz-adv-x="1228" 
 />
    <glyph glyph-name="Bdotbelow" unicode="&#x1e04;" horiz-adv-x="1509" 
d="M123 0v1434h803q225 0 347 -94t122 -273q0 -227 -199 -315q126 -43 189 -138t63 -219q0 -62 -15 -117.5t-51 -107t-91 -89t-141 -59.5t-194 -22h-833zM569 1071v-201h224q137 0 137 101q0 100 -137 100h-224zM569 575v-213h275q89 -5 126.5 51t0 112t-126.5 50h-275z
M586 -221q50 47 121 47t120 -47q49 -49 49 -122t-49 -120q-49 -49 -120 -49t-121 49q-50 47 -50 120t50 122z" />
    <glyph glyph-name="bdotbelow" unicode="&#x1e05;" horiz-adv-x="1308" 
d="M92 1434h416v-529q133 139 311 139q133 0 231.5 -72.5t147.5 -192t49 -267.5q0 -231 -114 -381q-115 -151 -314 -151q-178 0 -311 139v-119h-416v1434zM664 692q-49 0 -91 -26t-65 -70v-168q23 -44 65 -70t91 -26q72 0 123 53t51 127t-51 127t-123 53zM532 -221
q49 47 120.5 47t121.5 -47q50 -49 50 -122t-50 -120q-50 -49 -121 -49t-121 49q-50 47 -50 120t50 122z" />
    <glyph glyph-name="Ddotbelow" unicode="&#x1e0c;" horiz-adv-x="1615" 
d="M123 0v1434h631q154 3 297.5 -53t248 -152.5t166 -231.5t58.5 -282q4 -194 -101 -361t-284 -262.5t-385 -91.5h-631zM737 1036h-168v-639h168q139 0 234 92q98 91 98 228q0 136 -98 227q-95 92 -234 92zM586 -223q50 49 122 49t119 -49q49 -47 49 -120t-49 -122
q-47 -47 -119 -47t-122 47q-47 49 -47 122t47 120z" />
    <glyph glyph-name="ddotbelow" unicode="&#x1e0d;" horiz-adv-x="1308" 
d="M799 1434h415v-1434h-415v119q-133 -139 -310 -139q-200 0 -315 151t-115 381t115 381t315 151q177 0 310 -139v529zM645 692q-73 0 -124.5 -53t-51.5 -127t51.5 -127t124.5 -53q49 0 90 25.5t64 70.5v168q-23 45 -64 70.5t-90 25.5zM547 -223q49 49 121.5 49.5
t119.5 -47.5q50 -49 50 -122t-50 -120q-47 -49 -119.5 -49t-121.5 49q-47 47 -47 120t47 120z" />
    <glyph glyph-name="Dlinebelow" unicode="&#x1e0e;" horiz-adv-x="1615" 
d="M123 0v1434h631q154 3 297.5 -53t248 -152.5t166 -231.5t58.5 -282q4 -194 -101 -361t-284 -262.5t-385 -91.5h-631zM737 1036h-168v-639h168q139 0 234 92q98 91 98 228q0 136 -98 227q-95 92 -234 92zM1077 -164v-256h-739v256h739z" />
    <glyph glyph-name="dlinebelow" unicode="&#x1e0f;" horiz-adv-x="1308" 
d="M799 1434h415v-1434h-415v119q-133 -139 -310 -139q-200 0 -315 151t-115 381t115 381t315 151q177 0 310 -139v529zM645 692q-73 0 -124.5 -53t-51.5 -127t51.5 -127t124.5 -53q49 0 90 25.5t64 70.5v168q-23 45 -64 70.5t-90 25.5zM1038 -164v-256h-739v256h739z" />
    <glyph glyph-name="Dcircumflexbelow" unicode="&#x1e12;" horiz-adv-x="1615" 
d="M123 0v1434h631q154 3 297.5 -53t248 -152.5t166 -231.5t58.5 -282q4 -194 -101 -361t-284 -262.5t-385 -91.5h-631zM737 1036h-168v-639h168q139 0 234 92q98 91 98 228q0 136 -98 227q-95 92 -234 92zM924 -147l252 -365h-342l-127 152l-125 -152h-344l254 365h432z
" />
    <glyph glyph-name="dcircumflexbelow" unicode="&#x1e13;" horiz-adv-x="1308" 
d="M799 1434h415v-1434h-415v119q-133 -139 -310 -139q-200 0 -315 151t-115 381t115 381t315 151q177 0 310 -139v529zM645 692q-73 0 -124.5 -53t-51.5 -127t51.5 -127t124.5 -53q49 0 90 25.5t64 70.5v168q-23 45 -64 70.5t-90 25.5zM885 -147l254 -365h-344l-127 152
l-125 -152h-344l254 365h432z" />
    <glyph glyph-name="Hdotbelow" unicode="&#x1e24;" horiz-adv-x="1628" 
d="M1505 1434v-1434h-444v520h-492v-520h-446v1434h446v-514h492v514h444zM723 -223q49 49 122 49t120 -49q49 -47 49 -120t-49 -122q-47 -47 -120 -47t-122 47q-47 49 -47 122t47 120z" />
    <glyph glyph-name="hdotbelow" unicode="&#x1e25;" horiz-adv-x="1302" 
d="M102 1434h416v-510q159 120 348 120q160 0 257.5 -84.5t97.5 -240.5v-719h-416v592q0 55 -29.5 86t-79.5 31q-96 0 -178 -60v-649h-416v1434zM588 -223q49 49 121.5 49.5t119.5 -47.5q49 -49 49 -122t-49 -120q-47 -49 -119 -49t-122 49q-47 47 -47 120t47 120z" />
    <glyph glyph-name="Idieresisacute" unicode="&#x1e2e;" horiz-adv-x="690" 
d="M852 2308l-326 -364h-354l252 364h428zM29 1825q49 49 121.5 49t119.5 -49q50 -47 50 -120t-50 -122q-47 -47 -119 -47t-122 47q-47 49 -47 122t47 120zM449 1825q49 49 121.5 49t119.5 -49q50 -47 50 -120t-50 -122q-47 -47 -119.5 -47t-121.5 47q-47 49 -47 122t47 120
zM569 1434v-1434h-446v1434h446z" />
    <glyph glyph-name="idieresisacute" unicode="&#x1e2f;" horiz-adv-x="620" 
d="M813 1901l-326 -365h-354l252 365h428zM-8 1446q47 50 119.5 50t119.5 -50q49 -47 49 -119.5t-49 -122.5q-47 -47 -119.5 -47t-119.5 47q-50 50 -50 122.5t50 119.5zM412 1446q50 50 121 50t120 -50q49 -47 49 -119.5t-49 -122.5q-49 -47 -120.5 -47t-120.5 47
q-50 50 -50 122.5t50 119.5zM528 1024v-1024h-415v1024h415z" />
    <glyph glyph-name="Ldotbelow" unicode="&#x1e36;" horiz-adv-x="1282" 
d="M569 1434v-1035h672v-399h-1118v1434h446zM530 -223q50 49 122.5 49t119.5 -49q50 -47 50 -120t-50 -122q-47 -47 -119.5 -47t-122.5 47q-47 49 -47 122t47 120z" />
    <glyph glyph-name="ldotbelow" unicode="&#x1e37;" horiz-adv-x="610" 
d="M201 -223q49 49 121.5 49.5t119.5 -47.5q50 -49 50 -122t-50 -120q-47 -49 -119.5 -49t-121.5 49q-47 47 -47 120t47 120zM528 1434v-1434h-415v1434h415z" />
    <glyph glyph-name="Lcircumflexbelow" unicode="&#x1e3c;" horiz-adv-x="1282" 
d="M569 1434v-1035h672v-399h-1118v1434h446zM868 -147l252 -365h-342l-127 152l-125 -152h-344l254 365h432z" />
    <glyph glyph-name="lcircumflexbelow" unicode="&#x1e3d;" horiz-adv-x="610" 
d="M528 1434v-1434h-415v1434h415zM541 -147l252 -365h-344l-125 152l-127 -152h-342l251 365h435z" />
    <glyph glyph-name="Macute" unicode="&#x1e3e;" horiz-adv-x="2013" 
d="M1493 1901l-326 -365h-354l252 365h428zM1890 1434v-1434h-438v838l-377 -637h-147l-377 637v-838h-438v1434h581l307 -504l308 504h581z" />
    <glyph glyph-name="macute" unicode="&#x1e3f;" horiz-adv-x="1945" 
d="M1528 1491l-326 -365h-354l252 365h428zM852 1044q201 0 287 -139q103 84 184 111.5t186 27.5q160 0 258.5 -85t98.5 -240v-719h-418v592q0 55 -29.5 86t-79.5 31q-83 0 -153 -43v-111v-555h-416v592q0 55 -29 86t-79 31q-84 0 -154 -43v-666h-416v1024h416v-115
q73 65 165 100t179 35z" />
    <glyph glyph-name="Ndotaccent" unicode="&#x1e44;" horiz-adv-x="1607" 
d="M1495 1434v-1434h-457l-487 698v-698h-438v1434h458l488 -699v699h436zM727 1855q49 49 122 49t120 -49q49 -47 49 -119t-49 -122q-47 -47 -120 -47t-122 47q-47 50 -47 122t47 119z" />
    <glyph glyph-name="ndotaccent" unicode="&#x1e45;" horiz-adv-x="1292" 
d="M526 1446q50 50 121 50t121 -50q50 -47 50 -119.5t-50 -122.5q-50 -47 -121.5 -47t-120.5 47q-50 50 -50 122.5t50 119.5zM856 1044q160 0 257 -84.5t97 -240.5v-719h-415v592q0 55 -29.5 86t-79.5 31q-96 0 -178 -60v-649h-416v1024h416v-100q159 120 348 120z" />
    <glyph glyph-name="Ndotbelow" unicode="&#x1e46;" horiz-adv-x="1607" 
d="M1495 1434v-1434h-457l-487 698v-698h-438v1434h458l488 -699v699h436zM727 -223q49 49 122 49.5t120 -47.5q49 -49 49 -122t-49 -120q-47 -49 -120 -49t-122 49q-47 47 -47 120t47 120z" />
    <glyph glyph-name="ndotbelow" unicode="&#x1e47;" horiz-adv-x="1292" 
d="M856 1044q160 0 257 -84.5t97 -240.5v-719h-415v592q0 55 -29.5 86t-79.5 31q-96 0 -178 -60v-649h-416v1024h416v-100q159 120 348 120zM526 -221q50 47 121 47t121 -47q50 -49 50 -122t-50 -120q-50 -49 -121 -49t-121 49q-50 47 -50 120t50 122z" />
    <glyph glyph-name="Ncircumflexbelow" unicode="&#x1e4a;" horiz-adv-x="1607" 
d="M1495 1434v-1434h-457l-487 698v-698h-438v1434h458l488 -699v699h436zM1065 -147l254 -365h-344l-125 152l-127 -152h-342l252 365h432z" />
    <glyph glyph-name="ncircumflexbelow" unicode="&#x1e4b;" horiz-adv-x="1292" 
d="M856 1044q160 0 257 -84.5t97 -240.5v-719h-415v592q0 55 -29.5 86t-79.5 31q-96 0 -178 -60v-649h-416v1024h416v-100q159 120 348 120zM864 -147l252 -365h-342l-127 152l-127 -152h-342l252 365h434z" />
    <glyph glyph-name="Otildeacute" unicode="&#x1e4c;" horiz-adv-x="1726" 
d="M1354 2267l-324 -366h-356l252 366h428zM633 1851q56 12 96 6.5t115 -34.5q136 -48 178 -45q53 3 68 67l153 -18q23 -126 -15.5 -211t-125.5 -109q-57 -12 -96 -6q-40 6 -117 33l-39 14q-90 32 -98 33q-21 3 -45 -2q-49 -12 -64 -66l-154 17q-20 127 18.5 212.5
t125.5 108.5zM475 1356q177 98 387 98q213 0 387 -98q179 -99 281 -269q104 -168 104 -370q0 -200 -103 -370t-282 -269q-174 -98 -387 -98q-208 0 -385 97.5t-282 268.5q-103 171 -103 371t102.5 370t280.5 269zM557 717q0 -135 84 -228q86 -92 221 -92q137 0 223 92
t86 228q0 134 -86.5 226.5t-222.5 92.5q-134 0 -219.5 -92t-85.5 -227z" />
    <glyph glyph-name="otildeacute" unicode="&#x1e4d;" horiz-adv-x="1302" 
d="M1143 1901l-326 -365h-354l252 365h428zM420 1483q55 12 94 6q34 -5 119 -35q136 -48 178 -45q50 3 68 68l153 -19q20 -127 -18 -211.5t-125 -107.5q-55 -12 -94 -6q-45 7 -117 32l-39 15q-91 31 -98 32q-22 4 -47 -2q-47 -12 -62 -65l-153 16q-23 126 16 212t125 110z
M233 889q174 155 418 155q245 0 416 -155q174 -155 174 -377t-174 -377q-171 -155 -416 -155q-244 0 -418 155q-172 156 -172 377t172 377zM649 692q-55 3 -100.5 -30.5t-65.5 -81.5t-11.5 -103t50.5 -92q37 -42 91.5 -50.5t102.5 11.5t81 65.5t30 100.5q0 75 -52 127.5
t-126 52.5z" />
    <glyph glyph-name="Omacrongrave" unicode="&#x1e50;" horiz-adv-x="1726" 
d="M791 2267l253 -366h-356l-323 366h426zM1231 1792v-256h-737v256h737zM475 1356q177 98 387 98q213 0 387 -98q179 -99 281 -269q104 -168 104 -370q0 -200 -103 -370t-282 -269q-174 -98 -387 -98q-208 0 -385 97.5t-282 268.5q-103 171 -103 371t102.5 370t280.5 269z
M557 717q0 -135 84 -228q86 -92 223 -92q87 0 159.5 43t109.5 115q38 73 38 161.5t-38 160.5q-37 74 -109 116.5t-162 42.5q-134 0 -219.5 -92t-85.5 -227z" />
    <glyph glyph-name="omacrongrave" unicode="&#x1e51;" horiz-adv-x="1302" 
d="M580 1901l251 -365h-356l-323 365h428zM1020 1454v-256h-739v256h739zM651 1044q156 3 294 -69.5t219 -197t77 -265.5q0 -222 -174 -377q-171 -155 -416 -155q-244 0 -418 155q-172 156 -172 377t172 377q174 155 418 155zM649 692q-55 3 -100.5 -30.5t-65.5 -81.5
t-11.5 -103t50.5 -92q37 -42 91.5 -50.5t102.5 11.5t81 65.5t30 100.5q0 75 -52 127.5t-126 52.5z" />
    <glyph glyph-name="Omacronacute" unicode="&#x1e52;" horiz-adv-x="1726" 
d="M1354 2267l-324 -366h-356l252 366h428zM1231 1792v-256h-737v256h737zM475 1356q177 98 387 98q213 0 387 -98q179 -99 281 -269q104 -168 104 -370q0 -200 -103 -370t-282 -269q-174 -98 -387 -98q-208 0 -385 97.5t-282 268.5q-103 171 -103 371t102.5 370t280.5 269z
M557 717q0 -135 84 -228q86 -92 223 -92q87 0 159.5 43t109.5 115q38 73 38 161.5t-38 160.5q-37 74 -109 116.5t-162 42.5q-134 0 -219.5 -92t-85.5 -227z" />
    <glyph glyph-name="omacronacute" unicode="&#x1e53;" horiz-adv-x="1302" 
d="M1143 1901l-326 -365h-354l252 365h428zM1020 1454v-256h-739v256h739zM651 1044q156 3 294 -69.5t219 -197t77 -265.5q0 -222 -174 -377q-171 -155 -416 -155q-244 0 -418 155q-172 156 -172 377t172 377q174 155 418 155zM649 692q-55 3 -100.5 -30.5t-65.5 -81.5
t-11.5 -103t50.5 -92q37 -42 91.5 -50.5t102.5 11.5t81 65.5t30 100.5q0 75 -52 127.5t-126 52.5z" />
    <glyph glyph-name="Sdotbelow" unicode="&#x1e62;" horiz-adv-x="1454" 
d="M737 1454q361 0 631 -162l-186 -344q-121 60 -256.5 95.5t-237.5 35.5q-82 0 -82 -53q0 -20 35 -35q27 -12 184 -51q91 -24 156 -45q175 -54 252 -115q162 -113 162 -311q0 -233 -161 -361t-452 -128q-413 0 -721 204l199 332q282 -156 574 -156q90 0 90 52
q0 26 -13 39.5t-59.5 28.5t-153.5 38q-148 39 -225 62q-92 29 -182 79q-168 107 -168 312q0 97 30.5 176.5t85.5 136t132 95t168.5 57t197.5 18.5zM674 -223q50 49 122 49t119 -49q49 -47 49 -120t-49 -122q-47 -47 -119 -47t-122 47q-47 49 -47 122t47 120z" />
    <glyph glyph-name="sdotbelow" unicode="&#x1e63;" horiz-adv-x="1064" 
d="M526 1044q262 0 457 -116l-135 -252q-175 94 -324 94q-53 0 -53 -39q0 -14 21 -23.5t98 -29.5q178 -45 293 -117q118 -73 118 -231q0 -167 -115.5 -258.5t-324.5 -91.5q-297 0 -522 147l143 240q183 -113 375 -113q59 0 59 37q0 22 -16 28q-17 10 -102 31l-133 39
q-147 54 -203 107q-78 78 -78 200q0 114 59.5 194t157.5 117t225 37zM418 -223q49 49 121.5 49.5t119.5 -47.5q49 -49 49 -122t-49 -120q-47 -49 -119 -49t-122 49q-47 47 -47 120t47 120z" />
    <glyph glyph-name="Tdotbelow" unicode="&#x1e6c;" horiz-adv-x="1316" 
d="M1278 1434v-379h-395v-1055h-447v1055h-395v379h1237zM522 -223q50 49 122.5 49t119.5 -49q50 -47 50 -120t-50 -122q-47 -47 -119.5 -47t-122.5 47q-47 49 -47 122t47 120z" />
    <glyph glyph-name="tdotbelow" unicode="&#x1e6d;" horiz-adv-x="927" 
d="M578 1278v-254h231v-315h-231v-299q0 -46 28.5 -70.5t77.5 -24.5q68 0 133 39l51 -280q-174 -91 -348 -94q-161 -2 -259.5 91.5t-98.5 266.5v371h-121v315h121v254h416zM358 -223q49 49 122 49.5t120 -47.5q50 -49 50 -122t-50 -120q-47 -49 -119.5 -49t-122.5 49
q-47 47 -47 120t47 120z" />
    <glyph glyph-name="Tlinebelow" unicode="&#x1e6e;" horiz-adv-x="1316" 
d="M1278 1434v-379h-395v-1055h-447v1055h-395v379h1237zM1014 -164v-256h-740v256h740z" />
    <glyph glyph-name="tlinebelow" unicode="&#x1e6f;" horiz-adv-x="927" 
d="M578 1278v-254h231v-315h-231v-299q0 -46 28.5 -70.5t77.5 -24.5q68 0 133 39l51 -280q-174 -91 -348 -94q-161 -2 -259.5 91.5t-98.5 266.5v371h-121v315h121v254h416zM850 -164v-256h-739v256h739z" />
    <glyph glyph-name="Tcircumflexbelow" unicode="&#x1e70;" horiz-adv-x="1316" 
d="M1278 1434v-379h-395v-1055h-447v1055h-395v379h1237zM860 -147l254 -365h-344l-127 152l-125 -152h-344l254 365h432z" />
    <glyph glyph-name="tcircumflexbelow" unicode="&#x1e71;" horiz-adv-x="927" 
d="M578 1278v-254h231v-315h-231v-299q0 -46 28.5 -70.5t77.5 -24.5q68 0 133 39l51 -280q-174 -91 -348 -94q-161 -2 -259.5 91.5t-98.5 266.5v371h-121v315h121v254h416zM696 -147l254 -365h-344l-125 152l-127 -152h-344l254 365h432z" />
    <glyph glyph-name="Wgrave" unicode="&#x1e80;" horiz-adv-x="2367" 
d="M2327 1434l-465 -1434h-455l-223 727l-223 -727h-455l-465 1434h498l217 -736l213 736h432l211 -736l217 736h498zM1114 1901l252 -365h-356l-324 365h428z" />
    <glyph glyph-name="wgrave" unicode="&#x1e81;" horiz-adv-x="1716" 
d="M1698 1024l-291 -1024h-444l-105 403l-102 -403h-447l-289 1024h414l119 -575l147 575h318l145 -575l119 575h416zM784 1491l252 -365h-356l-324 365h428z" />
    <glyph glyph-name="Wacute" unicode="&#x1e82;" horiz-adv-x="2367" 
d="M1675 1901l-323 -365h-355l252 365h426zM2327 1434l-465 -1434h-455l-223 727l-223 -727h-455l-465 1434h498l217 -736l213 736h432l211 -736l217 736h498z" />
    <glyph glyph-name="wacute" unicode="&#x1e83;" horiz-adv-x="1716" 
d="M1348 1491l-326 -365h-354l252 365h428zM1698 1024l-291 -1024h-444l-105 403l-102 -403h-447l-289 1024h414l119 -575l147 575h318l145 -575l119 575h416z" />
    <glyph glyph-name="Wdieresis" unicode="&#x1e84;" horiz-adv-x="2367" 
d="M854 1855q50 49 121 49t121 -49q50 -47 50 -119t-50 -122q-50 -47 -121.5 -47t-120.5 47q-50 50 -50 122t50 119zM1397 1905q53 4 95 -27t60 -77t10 -99t-46 -88q-47 -47 -121 -47q-72 0 -120 48.5t-48 121.5q0 72 49 120t121 48zM2327 1434l-465 -1434h-455l-223 727
l-223 -727h-455l-465 1434h498l217 -736l213 736h432l211 -736l217 736h498z" />
    <glyph glyph-name="wdieresis" unicode="&#x1e85;" horiz-adv-x="1716" 
d="M1698 1024l-291 -1024h-444l-105 403l-102 -403h-447l-289 1024h414l119 -575l147 575h318l145 -575l119 575h416zM524 1446q50 50 122.5 50t119.5 -50q50 -47 50 -119.5t-50 -122.5q-47 -47 -119.5 -47t-122.5 47q-47 50 -47 122.5t47 119.5zM944 1446q50 50 122.5 50
t119.5 -50q50 -47 50 -119.5t-50 -122.5q-47 -47 -120 -47t-122 47q-47 49 -47 122t47 120z" />
    <glyph glyph-name="Zdotbelow" unicode="&#x1e92;" horiz-adv-x="1411" 
d="M1325 1434v-312l-623 -729h648v-393h-1289v317l596 723h-544v394h1212zM586 -223q50 49 122 49t119 -49q49 -47 49 -120t-49 -122q-47 -47 -119 -47t-122 47q-47 49 -47 122t47 120z" />
    <glyph glyph-name="zdotbelow" unicode="&#x1e93;" horiz-adv-x="1105" 
d="M1036 1024v-266l-397 -424h418v-334h-1006v266l395 424h-354v334h944zM453 -223q49 49 121.5 49.5t119.5 -47.5q50 -49 50 -122t-50 -120q-47 -49 -119.5 -49t-121.5 49q-47 47 -47 120t47 120z" />
    <glyph glyph-name="Adotbelow" unicode="&#x1ea0;" horiz-adv-x="1765" 
d="M1171 1434l553 -1434h-532l-74 219h-473l-72 -219h-532l547 1434h583zM881 936l-119 -363h239zM760 -221q50 47 121 47t120 -47q49 -49 49 -122t-49 -120q-49 -49 -120 -49t-121 49q-50 47 -50 120t50 122z" />
    <glyph glyph-name="adotbelow" unicode="&#x1ea1;" horiz-adv-x="1198" 
d="M670 1044q95 0 173 -20.5t141 -64t97.5 -119t34.5 -178.5v-662h-416v119q-133 -139 -315 -139q-142 0 -233 88t-91 229q0 140 97.5 219.5t265.5 79.5h276v25q0 104 -145 104q-131 -3 -279 -80l-116 264q252 132 510 135zM700 260v180h-110q-117 0 -117 -102
q0 -51 28.5 -82t73.5 -31q72 0 125 35zM543 -221q49 47 120 47t121 -47q50 -49 50 -122t-50 -120q-50 -49 -121 -49t-120 49q-49 47 -49 120t49 122z" />
    <glyph glyph-name="Ahookabove" unicode="&#x1ea2;" horiz-adv-x="1765" 
d="M868 2089q142 0 229 -68t87 -184q0 -63 -33 -110.5t-109 -108.5q-33 -22 -46.5 -38t-14.5 -42h-229q-3 59 6 94q12 47 41 68q8 8 41.5 35.5t40.5 33.5q43 38 26 70.5t-65 32.5q-70 0 -76 -55l-242 22q19 116 111.5 183t232.5 67zM1171 1434l553 -1434h-532l-74 219h-473
l-72 -219h-532l547 1434h583zM881 936l-119 -363h239z" />
    <glyph glyph-name="ahookabove" unicode="&#x1ea3;" horiz-adv-x="1198" 
d="M657 1677q142 0 229 -67.5t87 -184.5q0 -64 -33.5 -111t-108.5 -106q-10 -10 -24.5 -22t-20.5 -17.5t-11 -16.5t-5 -26h-229q-3 60 6 95q12 46 41 67q8 8 42 36.5t40 33.5q30 24 30 49q0 24 -19 38.5t-50 14.5q-67 0 -76 -55l-242 25q19 115 111.5 181t232.5 66z
M668 1044q95 0 173 -20.5t141 -64t97.5 -119t34.5 -178.5v-662h-416v119q-133 -139 -315 -139q-142 0 -233 88t-91 229q0 140 97.5 219.5t265.5 79.5h276v25q0 104 -145 104q-131 -3 -279 -80l-116 264q252 132 510 135zM698 260v180h-112q-115 0 -115 -102q0 -51 28.5 -82
t73.5 -31q72 0 125 35z" />
    <glyph glyph-name="Acircumflexacute" unicode="&#x1ea4;" horiz-adv-x="1765" 
d="M2009 2019l-326 -364h-354l252 364h428zM1098 1901l252 -365h-342l-127 152l-127 -152h-342l252 365h434zM1171 1434l553 -1434h-532l-74 219h-473l-72 -219h-532l547 1434h583zM881 936l-119 -363h239z" />
    <glyph glyph-name="acircumflexacute" unicode="&#x1ea5;" horiz-adv-x="1198" 
d="M1788 1610l-324 -365h-356l252 365h428zM877 1491l253 -365h-344l-127 152l-124 -152h-345l254 365h433zM668 1044q95 0 173 -20.5t141 -64t97.5 -119t34.5 -178.5v-662h-416v119q-133 -139 -315 -139q-142 0 -233 88t-91 229q0 140 97.5 219.5t265.5 79.5h276v25
q0 104 -145 104q-131 -3 -279 -80l-116 264q252 132 510 135zM698 260v180h-112q-115 0 -115 -102q0 -51 28.5 -82t73.5 -31q72 0 125 35z" />
    <glyph glyph-name="Acircumflexgrave" unicode="&#x1ea6;" horiz-adv-x="1765" 
d="M1511 2019l252 -364h-354l-326 364h428zM1098 1901l252 -365h-342l-127 152l-127 -152h-342l252 365h434zM1171 1434l553 -1434h-532l-74 219h-473l-72 -219h-532l547 1434h583zM881 936l-119 -363h239z" />
    <glyph glyph-name="acircumflexgrave" unicode="&#x1ea7;" horiz-adv-x="1198" 
d="M1292 1610l254 -365h-356l-324 365h426zM879 1491l254 -365h-345l-126 152l-125 -152h-344l253 365h433zM670 1044q95 0 173 -20.5t141 -64t97.5 -119t34.5 -178.5v-662h-416v119q-133 -139 -315 -139q-142 0 -233 88t-91 229q0 140 97.5 219.5t265.5 79.5h276v25
q0 104 -145 104q-131 -3 -279 -80l-116 264q252 132 510 135zM700 260v180h-110q-117 0 -117 -102q0 -51 28.5 -82t73.5 -31q72 0 125 35z" />
    <glyph glyph-name="Acircumflexhookabove" unicode="&#x1ea8;" horiz-adv-x="1765" 
d="M1470 2206q144 0 230 -68t86 -184q0 -68 -34 -115t-107 -104q-2 -2 -10 -8l-10 -7.5t-8.5 -6.5t-8 -7t-6.5 -7t-6.5 -8t-4.5 -7.5t-4 -8.5t-2.5 -9.5t-1.5 -10.5h-227q-3 59 6 94q8 34 31 57q29 33 92 80q43 38 25.5 70.5t-64.5 32.5q-69 0 -78 -56l-240 25
q19 115 110.5 181.5t231.5 66.5zM1098 1901l252 -365h-342l-127 152l-127 -152h-342l252 365h434zM1171 1434l553 -1434h-532l-74 219h-473l-72 -219h-532l547 1434h583zM881 936l-119 -363h239z" />
    <glyph glyph-name="acircumflexhookabove" unicode="&#x1ea9;" horiz-adv-x="1198" 
d="M1255 1796q144 0 230 -68t86 -184q0 -64 -32.5 -111.5t-106.5 -107.5q-34 -22 -47.5 -38t-14.5 -42h-229q-3 59 6 94q12 47 41 68q8 8 42 36.5t40 33.5q30 24 30 49t-18.5 39t-50.5 14q-70 0 -76 -55l-242 24q19 115 112 181.5t230 66.5zM883 1491l254 -365h-344
l-127 152l-125 -152h-344l254 365h432zM668 1044q95 0 173 -20.5t141 -64t97.5 -119t34.5 -178.5v-662h-416v119q-133 -139 -315 -139q-142 0 -233 88t-91 229q0 140 97.5 219.5t265.5 79.5h276v25q0 104 -145 104q-131 -3 -279 -80l-116 264q252 132 510 135zM698 260v180
h-112q-115 0 -115 -102q0 -51 28.5 -82t73.5 -31q72 0 125 35z" />
    <glyph glyph-name="Acircumflextilde" unicode="&#x1eaa;" horiz-adv-x="1765" 
d="M649 2314q55 12 94 6t119 -34q135 -48 176 -45q52 3 70 67l154 -18q20 -127 -18.5 -212t-125.5 -108q-55 -12 -94 -6q-40 6 -117 33l-39 14q-96 33 -98 33q-22 4 -47 -2q-45 -12 -61 -66l-154 17q-23 126 16 211.5t125 109.5zM1098 1901l252 -365h-342l-127 152
l-127 -152h-342l252 365h434zM1171 1434l553 -1434h-532l-74 219h-473l-72 -219h-532l547 1434h583zM881 936l-119 -363h239z" />
    <glyph glyph-name="acircumflextilde" unicode="&#x1eab;" horiz-adv-x="1198" 
d="M432 1898q54 11 96 6t115 -34q136 -48 178 -45q54 3 68 65l153 -16q23 -126 -16 -211.5t-125 -110.5q-57 -12 -96 -6q-31 5 -117 35q-4 1 -39 14q-90 32 -98 33q-23 4 -47 -4q-47 -12 -62 -65l-153 18q-20 127 18 211.5t125 109.5zM879 1491l254 -365h-345l-126 152
l-125 -152h-344l253 365h433zM670 1044q95 0 173 -20.5t141 -64t97.5 -119t34.5 -178.5v-662h-416v119q-133 -139 -315 -139q-142 0 -233 88t-91 229q0 140 98 219.5t265 79.5h276v25q0 105 -145 102q-129 0 -279 -78l-116 264q252 132 510 135zM700 260v180h-110
q-117 0 -117 -102q0 -51 28.5 -82t73.5 -31q72 0 125 35z" />
    <glyph glyph-name="Acircumflexdotbelow" unicode="&#x1eac;" horiz-adv-x="1765" 
d="M1098 1901l252 -365h-342l-127 152l-127 -152h-342l252 365h434zM1171 1434l553 -1434h-532l-74 219h-473l-72 -219h-532l547 1434h583zM881 936l-119 -363h239zM762 -221q50 47 121 47t121 -47q50 -49 50 -122t-50 -120q-50 -49 -121 -49t-121 49q-50 47 -50 120t50 122
z" />
    <glyph glyph-name="acircumflexdotbelow" unicode="&#x1ead;" horiz-adv-x="1198" 
d="M879 1491l254 -365h-345l-126 152l-125 -152h-344l253 365h433zM670 1044q95 0 173 -20.5t141 -64t97.5 -119t34.5 -178.5v-662h-416v119q-133 -139 -315 -139q-142 0 -233 88t-91 229q0 140 97.5 219.5t265.5 79.5h276v25q0 104 -145 104q-131 -3 -279 -80l-116 264
q252 132 510 135zM700 260v180h-110q-117 0 -117 -102q0 -51 28.5 -82t73.5 -31q72 0 125 35zM543 -221q49 47 120 47t121 -47q50 -49 50 -122t-50 -120q-50 -49 -121 -49t-120 49q-49 47 -49 120t49 122z" />
    <glyph glyph-name="Abreveacute" unicode="&#x1eae;" horiz-adv-x="1765" 
d="M1370 2324l-326 -364h-354l252 364h428zM1024 1913h272q0 -156 -118 -256q-119 -101 -291 -101q-174 0 -293 101t-119 256h273q-6 -67 66 -95t144 0t66 95zM1169 1434l553 -1434h-532l-74 219h-473l-72 -219h-532l547 1434h583zM879 936l-119 -363h239z" />
    <glyph glyph-name="abreveacute" unicode="&#x1eaf;" horiz-adv-x="1198" 
d="M1151 1901l-324 -365h-356l252 365h428zM805 1503h272q0 -155 -119 -256q-118 -100 -290 -100q-173 0 -291 100q-119 101 -119 256h272q0 -50 38.5 -79t99.5 -29q59 0 98 28.5t39 79.5zM668 1044q95 0 173 -20.5t141 -64t97.5 -119t34.5 -178.5v-662h-416v119
q-133 -139 -315 -139q-142 0 -233 88t-91 229q0 140 97.5 219.5t265.5 79.5h276v25q0 104 -145 104q-131 -3 -279 -80l-116 264q252 132 510 135zM698 260v180h-112q-115 0 -115 -102q0 -51 28.5 -82t73.5 -31q72 0 125 35z" />
    <glyph glyph-name="Abrevegrave" unicode="&#x1eb0;" horiz-adv-x="1765" 
d="M1026 1913h272q0 -156 -118 -256q-119 -101 -291 -101q-174 0 -293 101t-119 256h273q-6 -67 66 -95t144 0t66 95zM1171 1434l553 -1434h-532l-74 219h-473l-72 -219h-532l547 1434h583zM881 936l-119 -363h239zM809 2324l252 -364h-356l-324 364h428z" />
    <glyph glyph-name="abrevegrave" unicode="&#x1eb1;" horiz-adv-x="1198" 
d="M588 1901l252 -365h-355l-323 365h426zM805 1503h272q0 -155 -119 -256q-118 -100 -290 -100q-173 0 -291 100q-119 101 -119 256h272q-7 -67 65.5 -95t144.5 0t65 95zM668 1044q95 0 173 -20.5t141 -64t97.5 -119t34.5 -178.5v-662h-416v119q-133 -139 -315 -139
q-142 0 -233 88t-91 229q0 140 97.5 219.5t265.5 79.5h276v25q0 104 -145 104q-131 -3 -279 -80l-116 264q252 132 510 135zM698 260v180h-112q-115 0 -115 -102q0 -51 28.5 -82t73.5 -31q72 0 125 35z" />
    <glyph glyph-name="Abrevehookabove" unicode="&#x1eb2;" horiz-adv-x="1765" 
d="M868 2511q142 0 229 -68t87 -184q0 -62 -33.5 -110.5t-108.5 -106.5q-34 -22 -47.5 -39t-13.5 -43h-229q-3 58 6 96q14 47 41 66q8 8 41.5 35.5t40.5 33.5q43 41 26 72t-65 31q-70 0 -76 -53l-242 22q19 115 111.5 181.5t232.5 66.5zM1026 1913h272q0 -156 -118 -256
q-119 -101 -291 -101q-174 0 -293 101t-119 256h273q-6 -67 66 -95t144 0t66 95zM1171 1434l553 -1434h-532l-74 219h-473l-72 -219h-532l547 1434h583zM881 936l-119 -363h239z" />
    <glyph glyph-name="abrevehookabove" unicode="&#x1eb3;" horiz-adv-x="1198" 
d="M647 2101q143 0 229.5 -67.5t86.5 -184.5q0 -63 -33 -111.5t-109 -105.5q-10 -10 -24 -21.5t-20.5 -17t-11.5 -17t-5 -26.5h-230q-3 49 9 97q5 21 17 39.5t21.5 27.5t38.5 32.5t43 35.5q46 41 29 71.5t-65 30.5q-69 0 -78 -53l-240 22q19 115 110.5 181.5t231.5 66.5z
M805 1503h272q0 -155 -119 -256q-118 -100 -290 -100q-173 0 -291 100q-119 101 -119 256h272q0 -50 38.5 -79t99.5 -29q59 0 98 28.5t39 79.5zM668 1044q95 0 173 -20.5t141 -64t97.5 -119t34.5 -178.5v-662h-416v119q-133 -139 -315 -139q-142 0 -233 88t-91 229
q0 140 97.5 219.5t265.5 79.5h276v25q0 104 -145 104q-131 -3 -279 -80l-116 264q252 132 510 135zM698 260v180h-112q-115 0 -115 -102q0 -51 28.5 -82t73.5 -31q72 0 125 35z" />
    <glyph glyph-name="Abrevetilde" unicode="&#x1eb4;" horiz-adv-x="1765" 
d="M649 2314q58 11 95 6t118 -32q128 -48 176 -45q53 3 70 65l154 -16q20 -127 -18.5 -213t-125.5 -109q-55 -12 -94 -6q-31 5 -117 35q-15 3 -39 12q-96 33 -98 33q-22 4 -47 -2q-45 -12 -61 -66l-154 19q-23 126 16 210.5t125 108.5zM1026 1913h272q0 -156 -118 -256
q-119 -101 -291 -101q-174 0 -293 101t-119 256h273q0 -50 39 -79.5t100 -29.5q59 0 98 29t39 80zM1171 1434l553 -1434h-532l-74 219h-473l-72 -219h-532l547 1434h583zM881 936l-119 -363h239z" />
    <glyph glyph-name="abrevetilde" unicode="&#x1eb5;" horiz-adv-x="1198" 
d="M432 1901q56 12 95.5 6.5t115.5 -35.5q136 -48 178 -45q53 3 68 67l153 -16q23 -127 -16 -212.5t-125 -109.5q-57 -12 -96 -6q-41 6 -117 33l-39 14q-90 32 -98 33q-22 4 -47 -2q-47 -12 -62 -65l-153 16q-20 127 18 213t125 109zM807 1503h272q0 -156 -118 -256
t-291 -100q-171 0 -290.5 101.5t-119.5 254.5h272q-7 -67 65.5 -95t144.5 0t65 95zM670 1044q95 0 173 -20.5t141 -64t97.5 -119t34.5 -178.5v-662h-416v119q-133 -139 -315 -139q-142 0 -233 88t-91 229q0 140 97.5 219.5t265.5 79.5h276v25q0 105 -145 102
q-129 0 -279 -78l-116 264q252 132 510 135zM700 260v180h-110q-117 0 -117 -102q0 -51 28.5 -82t73.5 -31q72 0 125 35z" />
    <glyph glyph-name="Abrevedotbelow" unicode="&#x1eb6;" horiz-adv-x="1765" 
d="M1026 1913h272q0 -156 -118 -256q-119 -101 -291 -101q-174 0 -293 101t-119 256h273q-6 -67 66 -95t144 0t66 95zM1171 1434l553 -1434h-532l-74 219h-473l-72 -219h-532l547 1434h583zM881 936l-119 -363h239zM760 -221q50 47 121 47t120 -47q49 -49 49 -122t-49 -120
q-49 -49 -120 -49t-121 49q-50 47 -50 120t50 122z" />
    <glyph glyph-name="abrevedotbelow" unicode="&#x1eb7;" horiz-adv-x="1198" 
d="M805 1503h272q0 -155 -119 -256q-118 -100 -290 -100q-173 0 -291 100q-119 101 -119 256h272q-7 -67 65.5 -95t144.5 0t65 95zM668 1044q95 0 173 -20.5t141 -64t97.5 -119t34.5 -178.5v-662h-416v119q-133 -139 -315 -139q-142 0 -233 88t-91 229q0 140 97.5 219.5
t265.5 79.5h276v25q0 104 -145 104q-131 -3 -279 -80l-116 264q252 132 510 135zM698 260v180h-112q-115 0 -115 -102q0 -51 28.5 -82t73.5 -31q72 0 125 35zM541 -221q49 47 120 47t121 -47q50 -49 50 -122t-50 -120q-50 -49 -121 -49t-120 49q-49 47 -49 120t49 122z" />
    <glyph glyph-name="Edotbelow" unicode="&#x1eb8;" horiz-adv-x="1396" 
d="M1325 1434v-400h-756v-119h705v-378h-705v-138h766v-399h-1212v1434h1202zM676 -221q50 47 121.5 47t120.5 -47q50 -49 50 -122t-50 -120q-50 -49 -121 -49t-121 49q-50 47 -50 120t50 122z" />
    <glyph glyph-name="edotbelow" unicode="&#x1eb9;" 
d="M602 1044q247 0 391 -153q148 -151 148 -379v-98h-678q3 -64 56 -99.5t130 -35.5q120 0 195 69l215 -192q-188 -176 -447 -176q-227 0 -389 155t-162 377q0 219 158 377q158 155 383 155zM610 752q-60 0 -101.5 -42.5t-41.5 -103.5h287q0 64 -39.5 105t-104.5 41z
M475 -223q49 49 122 49t120 -49q49 -47 49 -120t-49 -122q-47 -47 -120 -47t-122 47q-47 49 -47 122t47 120z" />
    <glyph glyph-name="Ehookabove" unicode="&#x1eba;" horiz-adv-x="1396" 
d="M723 2089q142 0 227.5 -68t85.5 -184q0 -48 -18.5 -87t-44.5 -66t-76 -66q-33 -22 -46.5 -38t-14.5 -42h-230q-3 59 6 94q12 47 41 68q8 8 41.5 35.5t40.5 33.5q43 38 26 70.5t-65 32.5q-69 0 -75 -55l-242 22q19 116 112.5 183t231.5 67zM1325 1434v-400h-756v-119h705
v-378h-705v-138h766v-399h-1212v1434h1202z" />
    <glyph glyph-name="ehookabove" unicode="&#x1ebb;" 
d="M602 1677q142 0 229 -67.5t87 -184.5q0 -65 -33 -112.5t-109 -104.5q-10 -10 -24 -21.5t-20.5 -17t-11.5 -17t-5 -26.5h-230q-3 51 9 95q9 46 38 67q8 8 42 36.5t40 33.5q33 23 33 49q0 25 -19.5 39t-52.5 14q-66 0 -75 -55l-242 25q20 115 112 181t232 66zM600 1044
q247 0 391 -153q148 -151 148 -379v-98h-678q1 -64 53 -99.5t133 -35.5q120 0 195 69l215 -192q-188 -176 -447 -176q-146 -3 -274.5 69.5t-204 196.5t-72.5 266q0 219 158 377q158 155 383 155zM608 752q-60 0 -101.5 -42.5t-41.5 -103.5h287q0 64 -39.5 105t-104.5 41z
" />
    <glyph glyph-name="Etilde" unicode="&#x1ebc;" horiz-adv-x="1396" 
d="M487 1892q55 12 95 6q37 -6 118 -34q135 -48 177 -45q51 3 69 67l154 -18q20 -127 -18.5 -212t-125.5 -108q-55 -12 -94 -6q-40 6 -117 33l-38 14q-95 32 -99 33q-22 4 -47 -2q-45 -12 -61 -66l-154 17q-23 126 16 211.5t125 109.5zM1325 1434v-400h-756v-119h705v-378
h-705v-138h766v-399h-1212v1434h1202z" />
    <glyph glyph-name="etilde" unicode="&#x1ebd;" 
d="M371 1483q55 12 94 6q34 -5 119 -35q135 -48 176 -45q51 3 69 68l152 -19q23 -126 -15.5 -210.5t-125.5 -108.5q-58 -11 -95 -6t-118 32l-39 15q-85 30 -99 32q-21 3 -45 -2q-48 -12 -63 -65l-152 16q-23 126 16 212t126 110zM602 1044q247 0 391 -153q148 -151 148 -379
v-98h-678q4 -66 56.5 -100.5t129.5 -34.5q120 0 195 69l215 -192q-188 -176 -447 -176q-146 -3 -274.5 69.5t-204 196.5t-72.5 266q0 219 158 377q158 155 383 155zM610 752q-60 0 -101.5 -43t-41.5 -103h287q0 64 -39.5 105t-104.5 41z" />
    <glyph glyph-name="Ecircumflexacute" unicode="&#x1ebe;" horiz-adv-x="1396" 
d="M1847 2019l-323 -364h-357l252 364h428zM936 1901l254 -365h-344l-127 152l-125 -152h-344l254 365h432zM1323 1434v-400h-756v-119h705v-378h-705v-138h766v-399h-1212v1434h1202z" />
    <glyph glyph-name="ecircumflexacute" unicode="&#x1ebf;" 
d="M1729 1610l-324 -365h-356l251 365h429zM817 1491l254 -365h-344l-127 152l-125 -152h-344l254 365h432zM602 1044q247 0 391 -153q148 -151 148 -379v-98h-678q3 -64 56 -99.5t130 -35.5q120 0 195 69l215 -192q-188 -176 -447 -176q-227 0 -389 155t-162 377
q0 219 158 377q158 155 383 155zM610 752q-60 0 -101.5 -42.5t-41.5 -103.5h287q0 64 -39.5 105t-104.5 41z" />
    <glyph glyph-name="Ecircumflexgrave" unicode="&#x1ec0;" horiz-adv-x="1396" 
d="M1352 2019l252 -364h-355l-325 364h428zM938 1901l252 -365h-344l-125 152l-127 -152h-342l252 365h434zM1325 1434v-400h-756v-119h705v-378h-705v-138h766v-399h-1212v1434h1202z" />
    <glyph glyph-name="ecircumflexgrave" unicode="&#x1ec1;" 
d="M1233 1610l252 -365h-357l-323 365h428zM817 1491l254 -365h-344l-125 152l-127 -152h-342l252 365h432zM602 1044q247 0 391 -153q148 -151 148 -379v-98h-678q4 -66 56.5 -100.5t129.5 -34.5q120 0 195 69l215 -192q-188 -176 -447 -176q-146 -3 -274.5 69.5
t-204 196.5t-72.5 266q0 219 158 377q158 155 383 155zM610 752q-60 0 -101.5 -42.5t-41.5 -103.5h287q0 64 -39.5 105t-104.5 41z" />
    <glyph glyph-name="Ecircumflexhookabove" unicode="&#x1ec2;" horiz-adv-x="1396" 
d="M1386 2206q144 0 230 -68t86 -184q0 -68 -34 -115t-107 -104q-2 -2 -10 -8l-10 -7.5t-8.5 -6.5t-8 -7t-6.5 -7t-6.5 -8t-4.5 -7.5t-4 -8.5t-2.5 -9.5t-1.5 -10.5h-227q-3 59 6 94q7 36 39 68q35 35 84 69q43 38 25.5 70.5t-64.5 32.5q-69 0 -78 -56l-240 25
q19 115 110.5 181.5t231.5 66.5zM1014 1901l252 -365h-342l-127 152l-127 -152h-342l252 365h434zM1325 1434v-400h-756v-119h705v-378h-705v-138h766v-399h-1212v1434h1202z" />
    <glyph glyph-name="ecircumflexhookabove" unicode="&#x1ec3;" 
d="M1190 1796q143 0 229 -68t86 -184q0 -65 -32.5 -112.5t-108.5 -106.5q-25 -18 -34 -25.5t-18 -22t-9 -32.5h-230q-3 59 6 94q12 47 41 68q8 8 42 36.5t40 33.5q31 25 31 49q0 25 -19 39t-51 14q-67 0 -76 -55l-241 24q20 115 112 181.5t232 66.5zM815 1491l254 -365h-344
l-125 152l-127 -152h-342l252 365h432zM600 1044q247 0 391 -153q148 -151 148 -379v-98h-678q1 -64 53 -99.5t133 -35.5q120 0 195 69l215 -192q-188 -176 -447 -176q-146 -3 -274.5 69.5t-204 196.5t-72.5 266q0 219 158 377q158 155 383 155zM608 752q-60 0 -101.5 -42.5
t-41.5 -103.5h287q0 64 -39.5 105t-104.5 41z" />
    <glyph glyph-name="Ecircumflextilde" unicode="&#x1ec4;" horiz-adv-x="1396" 
d="M487 2306q59 11 95 6t118 -33q128 -48 177 -45q51 3 69 66l154 -16q20 -127 -18.5 -213t-125.5 -109q-55 -12 -94 -6q-31 5 -117 35q-1 0 -38 14q-84 28 -99 31q-22 4 -47 -2q-45 -12 -61 -66l-154 19q-23 126 16 210.5t125 108.5zM936 1901l252 -365h-342l-127 152
l-127 -152h-342l252 365h434zM1325 1434v-400h-756v-119h705v-378h-705v-138h766v-399h-1212v1434h1202z" />
    <glyph glyph-name="ecircumflextilde" unicode="&#x1ec5;" 
d="M371 1896q57 12 94 7q34 -5 119 -35q135 -48 176 -45q51 3 69 67l152 -18q23 -126 -15.5 -211t-125.5 -109q-59 -11 -95 -6t-118 33l-39 14q-90 32 -99 33q-21 3 -45 -2q-49 -16 -63 -65l-152 16q-23 126 16 211.5t126 109.5zM817 1491l254 -365h-344l-125 152l-127 -152
h-342l252 365h432zM602 1044q247 0 391 -153q148 -151 148 -379v-98h-678q4 -66 56.5 -100.5t129.5 -34.5q120 0 195 69l215 -192q-188 -176 -447 -176q-146 -3 -274.5 69.5t-204 196.5t-72.5 266q0 219 158 377q158 155 383 155zM610 752q-60 0 -101.5 -43t-41.5 -103h287
q0 64 -39.5 105t-104.5 41z" />
    <glyph glyph-name="Ecircumflexdotbelow" unicode="&#x1ec6;" horiz-adv-x="1396" 
d="M936 1901l252 -365h-342l-127 152l-127 -152h-342l252 365h434zM1325 1434v-400h-756v-119h705v-378h-705v-138h766v-399h-1212v1434h1202zM676 -221q50 47 121.5 47t120.5 -47q50 -49 50 -122t-50 -120q-50 -49 -121 -49t-121 49q-50 47 -50 120t50 122z" />
    <glyph glyph-name="ecircumflexdotbelow" unicode="&#x1ec7;" 
d="M817 1491l254 -365h-344l-125 152l-127 -152h-342l252 365h432zM602 1044q247 0 391 -153q148 -151 148 -379v-98h-678q3 -64 56 -99.5t130 -35.5q120 0 195 69l215 -192q-188 -176 -447 -176q-227 0 -389 155t-162 377q0 219 158 377q158 155 383 155zM610 752
q-60 0 -101.5 -42.5t-41.5 -103.5h287q0 64 -39.5 105t-104.5 41zM475 -221q50 47 122.5 47t119.5 -47q49 -49 49 -122t-49 -120q-47 -49 -120 -49t-122 49q-47 47 -47 119.5t47 122.5z" />
    <glyph glyph-name="Ihookabove" unicode="&#x1ec8;" horiz-adv-x="690" 
d="M342 2089q143 0 229 -68t86 -184q-4 -72 -36 -117.5t-105 -101.5q-23 -18 -32.5 -27t-18 -22.5t-10.5 -30.5h-228q-3 59 6 94q10 39 39 68q35 35 84 69q43 38 25.5 70.5t-64.5 32.5q-69 0 -75 -55l-242 22q19 117 110.5 183.5t231.5 66.5zM567 1434v-1434h-446v1434h446z
" />
    <glyph glyph-name="ihookabove" unicode="&#x1ec9;" horiz-adv-x="634" 
d="M328 1677q142 0 228.5 -67.5t86.5 -184.5q0 -65 -32.5 -112.5t-108.5 -104.5q-10 -10 -24 -21t-20.5 -17t-12 -17.5t-5.5 -26.5h-229q-3 54 8 95q9 45 39 67q8 8 42 36.5t40 33.5q33 23 33 49q0 25 -19.5 39t-52.5 14q-67 0 -76 -55l-241 25q20 115 112 181t232 66z
M539 1024v-1024h-416v1024h416z" />
    <glyph glyph-name="Idotbelow" unicode="&#x1eca;" horiz-adv-x="690" 
d="M569 1434v-1434h-446v1434h446zM223 -221q49 47 121 47t121 -47q49 -49 49 -122t-49 -120q-49 -49 -121 -49t-121 49q-49 47 -49 120t49 122z" />
    <glyph glyph-name="idotbelow" unicode="&#x1ecb;" horiz-adv-x="634" 
d="M176 1401q63 54 152.5 54t152.5 -54t63 -128t-63 -128t-152.5 -54t-152.5 54t-63 128t63 128zM537 1024v-1024h-416v1024h416zM207 -223q49 49 122 49.5t120 -47.5q49 -49 49 -122t-49 -120q-47 -49 -120 -49t-122 49q-47 47 -47 120t47 120z" />
    <glyph glyph-name="Odotbelow" unicode="&#x1ecc;" horiz-adv-x="1726" 
d="M475 1356q177 98 387 98q213 0 387 -98q179 -99 281 -269q104 -168 104 -370q0 -200 -103 -370t-282 -269q-174 -98 -387 -98q-208 0 -385 97.5t-282 268.5q-103 171 -103 371t102.5 370t280.5 269zM557 717q0 -135 84 -228q86 -92 223 -92q87 0 159.5 43t109.5 115
q38 73 38 161.5t-38 160.5q-37 74 -109 116.5t-162 42.5q-134 0 -219.5 -92t-85.5 -227zM741 -223q49 49 122 49t120 -49q49 -47 49 -120t-49 -122q-47 -47 -120 -47t-122 47q-47 49 -47 122t47 120z" />
    <glyph glyph-name="odotbelow" unicode="&#x1ecd;" horiz-adv-x="1302" 
d="M651 1044q156 3 294 -69.5t219 -197t77 -265.5q0 -222 -174 -377q-171 -155 -416 -155q-244 0 -418 155q-172 156 -172 377t172 377q174 155 418 155zM649 692q-55 3 -100.5 -30.5t-65.5 -81.5t-11.5 -103t50.5 -92q37 -42 91.5 -50.5t102.5 11.5t81 65.5t30 100.5
q0 75 -52 127.5t-126 52.5zM530 -223q49 49 122 49.5t120 -47.5q50 -49 50 -122t-50 -120q-47 -49 -119.5 -49t-122.5 49q-47 47 -47 120t47 120z" />
    <glyph glyph-name="Ohookabove" unicode="&#x1ece;" horiz-adv-x="1726" 
d="M874 2089q143 0 229.5 -67.5t86.5 -184.5q0 -65 -32.5 -112.5t-108.5 -106.5q-23 -18 -32.5 -26.5t-18.5 -22.5t-11 -31h-227q-3 59 6 94q9 36 31 58q27 30 92 79q43 38 25.5 70.5t-64.5 32.5q-70 0 -76 -55l-242 22q19 116 111.5 183t230.5 67zM473 1356q177 98 387 98
q213 0 387 -98q179 -99 281 -269q104 -168 104 -370q0 -200 -103 -370t-282 -269q-174 -98 -387 -98q-208 0 -385 97.5t-282 268.5q-103 171 -103 371t102.5 370t280.5 269zM553 717q0 -136 86 -228t221 -92q138 0 221 92q86 92 86 228q0 135 -85 227t-222 92
q-134 0 -220.5 -92.5t-86.5 -226.5z" />
    <glyph glyph-name="ohookabove" unicode="&#x1ecf;" horiz-adv-x="1302" 
d="M649 1677q142 0 229 -67.5t87 -184.5q0 -65 -33 -112.5t-109 -104.5q-10 -10 -24 -21.5t-20.5 -17t-11.5 -17t-5 -26.5h-230q-3 51 9 95q9 45 39 67q8 8 42 36.5t40 33.5q32 22 32 49q0 25 -19.5 39t-51.5 14q-67 0 -76 -55l-242 25q20 115 112 181t232 66zM649 1044
q156 3 294 -69.5t219 -197t77 -265.5q0 -222 -174 -377q-171 -155 -416 -155q-244 0 -418 155q-172 156 -172 377t172 377q174 155 418 155zM647 692q-55 3 -100.5 -30.5t-65.5 -81.5t-11.5 -103t50.5 -92q37 -42 91.5 -50.5t102.5 11.5t81 65.5t30 100.5q0 75 -52 127.5
t-126 52.5z" />
    <glyph glyph-name="Ocircumflexacute" unicode="&#x1ed0;" horiz-adv-x="1726" 
d="M1991 2019l-324 -364h-356l254 364h426zM1081 1901l252 -365h-344l-125 152l-127 -152h-342l252 365h434zM473 1356q177 98 387 98q213 0 387 -98q179 -99 281 -269q104 -168 104 -370q0 -200 -103 -370t-282 -269q-174 -98 -387 -98q-208 0 -385 97.5t-282 268.5
q-103 171 -103 371t102.5 370t280.5 269zM553 717q0 -136 86 -228t221 -92q90 0 161.5 42.5t108.5 115.5t37 161.5t-37 160.5q-37 74 -108.5 116.5t-161.5 42.5q-134 0 -220.5 -92.5t-86.5 -226.5z" />
    <glyph glyph-name="ocircumflexacute" unicode="&#x1ed1;" horiz-adv-x="1302" 
d="M1780 1610l-324 -365h-356l252 365h428zM868 1491l254 -365h-344l-127 152l-125 -152h-344l254 365h432zM651 1044q156 3 294 -69.5t219 -197t77 -265.5q0 -222 -174 -377q-171 -155 -416 -155q-244 0 -418 155q-172 156 -172 377t172 377q174 155 418 155zM649 692
q-55 3 -100.5 -30.5t-65.5 -81.5t-11.5 -103t50.5 -92q37 -42 91.5 -50.5t102.5 11.5t81 65.5t30 100.5q0 75 -52 127.5t-126 52.5z" />
    <glyph glyph-name="Ocircumflexgrave" unicode="&#x1ed2;" horiz-adv-x="1726" 
d="M1495 2019l252 -364h-354l-326 364h428zM1081 1901l252 -365h-344l-125 152l-127 -152h-342l252 365h434zM475 1356q177 98 387 98q213 0 387 -98q179 -99 281 -269q104 -168 104 -370q0 -200 -103 -370t-282 -269q-174 -98 -387 -98q-208 0 -385 97.5t-282 268.5
q-103 171 -103 371t102.5 370t280.5 269zM557 717q0 -135 84 -228q86 -92 223 -92q87 0 159.5 43t109.5 115q38 73 38 161.5t-38 160.5q-37 74 -109 116.5t-162 42.5q-134 0 -219.5 -92t-85.5 -227z" />
    <glyph glyph-name="ocircumflexgrave" unicode="&#x1ed3;" horiz-adv-x="1302" 
d="M1284 1610l252 -365h-356l-324 365h428zM868 1491l254 -365h-344l-125 152l-127 -152h-342l252 365h432zM651 1044q156 3 294 -69.5t219 -197t77 -265.5q0 -222 -174 -377q-171 -155 -416 -155q-244 0 -418 155q-172 156 -172 377t172 377q174 155 418 155zM649 692
q-55 3 -100.5 -30.5t-65.5 -81.5t-11.5 -103t50.5 -92q37 -42 91.5 -50.5t102.5 11.5t81 65.5t30 100.5q0 75 -52 127.5t-126 52.5z" />
    <glyph glyph-name="Ocircumflexhookabove" unicode="&#x1ed4;" horiz-adv-x="1726" 
d="M1454 2206q142 0 227.5 -68t85.5 -184q0 -36 -9 -65t-31.5 -57t-41 -46t-57.5 -51q-33 -22 -46.5 -38t-14.5 -42h-230q-3 59 6 94q12 47 41 68q8 8 41.5 35.5t40.5 33.5q43 38 26 70.5t-65 32.5q-69 0 -75 -56l-242 25q19 115 111.5 181.5t232.5 66.5zM1079 1901
l254 -365h-344l-125 152l-127 -152h-344l254 365h432zM475 1356q177 98 387 98q213 0 387 -98q179 -99 281 -269q104 -168 104 -370q0 -200 -103 -370t-282 -269q-174 -98 -387 -98q-208 0 -385 97.5t-282 268.5q-103 171 -103 371t102.5 370t280.5 269zM557 717
q0 -135 84 -228q86 -92 221 -92q137 0 223 92t86 228q0 134 -86.5 226.5t-222.5 92.5q-134 0 -219.5 -92t-85.5 -227z" />
    <glyph glyph-name="ocircumflexhookabove" unicode="&#x1ed5;" horiz-adv-x="1302" 
d="M1239 1796q143 0 229 -68t86 -184q0 -48 -19.5 -87.5t-44 -64t-75.5 -67.5q-33 -22 -46.5 -38t-14.5 -42h-230q-3 59 6 94q12 47 41 68q8 8 42 36.5t40 33.5q31 25 31 49q0 25 -19 39t-51 14q-69 0 -75 -55l-242 24q19 115 112 181.5t230 66.5zM866 1491l254 -365h-344
l-127 152l-125 -152h-344l254 365h432zM649 1044q156 3 294 -69.5t219 -197t77 -265.5q0 -222 -174 -377q-171 -155 -416 -155q-244 0 -418 155q-172 156 -172 377t172 377q174 155 418 155zM647 692q-55 3 -100.5 -30.5t-65.5 -81.5t-11.5 -103t50.5 -92q37 -42 91.5 -50.5
t102.5 11.5t81 65.5t30 100.5q0 75 -52 127.5t-126 52.5z" />
    <glyph glyph-name="Ocircumflextilde" unicode="&#x1ed6;" horiz-adv-x="1726" 
d="M633 2306q56 12 95.5 6.5t115.5 -35.5q136 -48 178 -45q53 3 68 68l153 -19q23 -126 -15.5 -210.5t-125.5 -108.5q-57 -12 -96 -6q-40 6 -117 33l-39 14q-90 32 -98 33q-21 3 -45 -2q-49 -12 -64 -66l-154 17q-20 128 19 212t125 109zM1079 1901l254 -365h-344l-125 152
l-127 -152h-344l254 365h432zM475 1356q177 98 387 98q213 0 387 -98q179 -99 281 -269q104 -168 104 -370q0 -200 -103 -370t-282 -269q-174 -98 -387 -98q-208 0 -385 97.5t-282 268.5q-103 171 -103 371t102.5 370t280.5 269zM557 717q0 -135 84 -228q86 -92 223 -92
q87 0 159.5 43t109.5 115q38 73 38 161.5t-38 160.5q-37 74 -109 116.5t-162 42.5q-134 0 -219.5 -92t-85.5 -227z" />
    <glyph glyph-name="ocircumflextilde" unicode="&#x1ed7;" horiz-adv-x="1302" 
d="M420 1894q57 12 94 7q34 -5 119 -35q136 -48 178 -45q50 3 68 67l153 -18q20 -127 -18 -212t-125 -108q-55 -12 -94 -6q-41 6 -117 33l-39 14q-96 33 -98 33q-22 4 -47 -2q-47 -12 -62 -66l-153 17q-23 126 16 211.5t125 109.5zM868 1491l252 -365h-342l-127 152
l-127 -152h-342l252 365h434zM651 1044q156 3 294 -69.5t219 -197t77 -265.5q0 -222 -174 -377q-171 -155 -416 -155q-244 0 -418 155q-172 156 -172 377t172 377q174 155 418 155zM649 692q-55 3 -100.5 -30.5t-65.5 -81.5t-11.5 -103t50.5 -92q37 -42 91.5 -50.5
t102.5 11.5t81 65.5t30 100.5q0 75 -52 127.5t-126 52.5z" />
    <glyph glyph-name="Ocircumflexdotbelow" unicode="&#x1ed8;" horiz-adv-x="1726" 
d="M1079 1901l254 -365h-344l-125 152l-127 -152h-344l254 365h432zM475 1356q177 98 387 98q213 0 387 -98q179 -99 281 -269q104 -168 104 -370q0 -200 -103 -370t-282 -269q-174 -98 -387 -98q-208 0 -385 97.5t-282 268.5q-103 171 -103 371t102.5 370t280.5 269z
M557 717q0 -135 84 -228q86 -92 223 -92q87 0 159.5 43t109.5 115q38 73 38 161.5t-38 160.5q-37 74 -109 116.5t-162 42.5q-134 0 -219.5 -92t-85.5 -227zM741 -221q49 47 122 47t120 -47q49 -49 49 -122t-49 -120q-47 -49 -120 -49t-122 49q-47 47 -47 119.5t47 122.5z
" />
    <glyph glyph-name="ocircumflexdotbelow" unicode="&#x1ed9;" horiz-adv-x="1302" 
d="M868 1491l252 -365h-342l-127 152l-127 -152h-342l252 365h434zM651 1044q156 3 294 -69.5t219 -197t77 -265.5q0 -222 -174 -377q-171 -155 -416 -155q-244 0 -418 155q-172 156 -172 377t172 377q174 155 418 155zM649 692q-55 3 -100.5 -30.5t-65.5 -81.5t-11.5 -103
t50.5 -92q37 -42 91.5 -50.5t102.5 11.5t81 65.5t30 100.5q0 75 -52 127.5t-126 52.5zM530 -221q50 47 122.5 47t119.5 -47q50 -49 50 -122t-50 -120q-47 -49 -119.5 -49t-122.5 49q-47 47 -47 119.5t47 122.5z" />
    <glyph glyph-name="Ohornacute" unicode="&#x1eda;" horiz-adv-x="1726" 
d="M1401 1516h405v-78q0 -126 -80 -221q-79 -97 -198 -127q106 -169 106 -373q0 -200 -103 -370t-282 -269q-174 -98 -387 -98q-210 0 -387 98q-178 99 -280.5 269t-102.5 370q-2 117 37 230t111.5 204.5t168.5 161t214 106.5t241 35q274 0 486 -164q51 34 51 92v134z
M557 717q0 -135 84 -228q86 -92 223 -92q87 0 159.5 43t109.5 115q38 73 38 161.5t-38 160.5q-37 74 -109 116.5t-162 42.5q-134 0 -219.5 -92t-85.5 -227zM1354 1901l-324 -365h-356l252 365h428z" />
    <glyph glyph-name="ohornacute" unicode="&#x1edb;" horiz-adv-x="1302" 
d="M1143 1491l-326 -365h-354l252 365h428zM1020 1133h405v-78q0 -110 -64 -202t-167 -130q47 -103 47 -211q0 -222 -174 -377q-171 -155 -416 -155q-244 0 -418 155q-172 156 -172 377t172 377q174 155 418 155q195 0 350 -104q19 28 19 59v134zM649 692
q-55 3 -100.5 -30.5t-65.5 -81.5t-11.5 -103t50.5 -92q37 -42 91.5 -50.5t102.5 11.5t81 65.5t30 100.5q0 75 -52 127.5t-126 52.5z" />
    <glyph glyph-name="Ohorngrave" unicode="&#x1edc;" horiz-adv-x="1726" 
d="M791 1901l253 -365h-356l-323 365h426zM1401 1516h405v-78q0 -126 -80 -221q-79 -97 -198 -127q106 -169 106 -373q0 -200 -103 -370t-282 -269q-174 -98 -387 -98q-210 0 -387 98q-178 99 -280.5 269t-102.5 370q-2 117 37 230t111.5 204.5t168.5 161t214 106.5t241 35
q274 0 486 -164q51 34 51 92v134zM557 717q0 -135 84 -228q86 -92 223 -92q87 0 159.5 43t109.5 115q38 73 38 161.5t-38 160.5q-37 74 -109 116.5t-162 42.5q-134 0 -219.5 -92t-85.5 -227z" />
    <glyph glyph-name="ohorngrave" unicode="&#x1edd;" horiz-adv-x="1302" 
d="M1020 1133h405v-78q0 -110 -64 -202t-167 -130q47 -103 47 -211q0 -222 -174 -377q-171 -155 -416 -155q-244 0 -418 155q-172 156 -172 377t172 377q174 155 418 155q195 0 350 -104q19 28 19 59v134zM649 692q-55 3 -100.5 -30.5t-65.5 -81.5t-11.5 -103t50.5 -92
q37 -42 91.5 -50.5t102.5 11.5t81 65.5t30 100.5q0 75 -52 127.5t-126 52.5zM580 1491l251 -365h-356l-323 365h428z" />
    <glyph glyph-name="Ohornhookabove" unicode="&#x1ede;" horiz-adv-x="1726" 
d="M874 2089q143 0 229.5 -67.5t86.5 -184.5q0 -65 -32.5 -112.5t-108.5 -106.5q-23 -18 -32.5 -26.5t-18.5 -22.5t-11 -31h-227q-3 59 6 94q9 36 31 58q27 30 92 79q43 38 25.5 70.5t-64.5 32.5q-70 0 -76 -55l-242 22q19 116 111.5 183t230.5 67zM1399 1516h405v-78
q0 -123 -79 -220t-199 -128q106 -169 106 -373q0 -200 -103 -370t-282 -269q-174 -98 -387 -98q-210 0 -387 98q-178 99 -280.5 269t-102.5 370q-3 147 59 284.5t166.5 237.5t248 159t296.5 56q276 0 488 -164q51 34 51 92v134zM553 717q0 -136 86 -228t221 -92
q138 0 221 92q86 92 86 228q0 135 -85 227t-222 92q-134 0 -220.5 -92.5t-86.5 -226.5z" />
    <glyph glyph-name="ohornhookabove" unicode="&#x1edf;" horiz-adv-x="1302" 
d="M649 1677q142 0 229 -67.5t87 -184.5q0 -65 -33 -112.5t-109 -104.5q-10 -10 -24 -21.5t-20.5 -17t-11.5 -17t-5 -26.5h-230q-3 51 9 95q9 45 39 67q8 8 42 36.5t40 33.5q32 22 32 49q0 25 -19.5 39t-51.5 14q-67 0 -76 -55l-242 25q20 115 112 181t232 66zM1018 1133
h405v-78q0 -110 -64 -202t-167 -130q47 -103 47 -211q0 -222 -174 -377q-171 -155 -416 -155q-244 0 -418 155q-172 156 -172 377t172 377q174 155 418 155q195 0 350 -104q19 28 19 59v134zM647 692q-55 3 -100.5 -30.5t-65.5 -81.5t-11.5 -103t50.5 -92q37 -42 91.5 -50.5
t102.5 11.5t81 65.5t30 100.5q0 75 -52 127.5t-126 52.5z" />
    <glyph glyph-name="Ohorntilde" unicode="&#x1ee0;" horiz-adv-x="1726" 
d="M633 1892q56 12 96 6.5t115 -34.5q136 -48 178 -45q53 3 68 67l153 -18q23 -126 -15.5 -211t-125.5 -109q-57 -12 -96 -6q-40 6 -117 33l-39 14q-90 32 -98 33q-21 3 -45 -2q-49 -12 -64 -66l-154 17q-20 127 18.5 212.5t125.5 108.5zM1401 1516h405v-78q0 -126 -80 -221
q-79 -97 -198 -127q106 -169 106 -373q0 -200 -103 -370t-282 -269q-174 -98 -387 -98q-210 0 -387 98q-178 99 -280.5 269t-102.5 370q-2 117 37 230t111.5 204.5t168.5 161t214 106.5t241 35q274 0 486 -164q51 34 51 92v134zM864 397q134 0 220.5 93t86.5 227
q0 135 -86 227t-223 92q-135 0 -221 -92q-84 -93 -84 -227q0 -135 84 -228q86 -92 223 -92z" />
    <glyph glyph-name="ohorntilde" unicode="&#x1ee1;" horiz-adv-x="1302" 
d="M420 1483q55 12 94 6q34 -5 119 -35q136 -48 178 -45q50 3 68 68l153 -19q20 -127 -18 -211.5t-125 -107.5q-55 -12 -94 -6q-45 7 -117 32l-39 15q-91 31 -98 32q-22 4 -47 -2q-47 -12 -62 -65l-153 16q-23 126 16 212t125 110zM1020 1133h405v-78q0 -110 -64 -202
t-167 -130q47 -103 47 -211q0 -222 -174 -377q-171 -155 -416 -155q-244 0 -418 155q-172 156 -172 377t172 377q174 155 418 155q195 0 350 -104q19 28 19 59v134zM649 692q-55 3 -100.5 -30.5t-65.5 -81.5t-11.5 -103t50.5 -92q37 -42 91.5 -50.5t102.5 11.5t81 65.5
t30 100.5q0 75 -52 127.5t-126 52.5z" />
    <glyph glyph-name="Ohorndotbelow" unicode="&#x1ee2;" horiz-adv-x="1726" 
d="M1401 1516h405v-78q0 -126 -80 -221q-79 -97 -198 -127q106 -169 106 -373q0 -200 -103 -370t-282 -269q-174 -98 -387 -98q-210 0 -387 98q-178 99 -280.5 269t-102.5 370q-2 117 37 230t111.5 204.5t168.5 161t214 106.5t241 35q274 0 486 -164q51 34 51 92v134z
M557 717q0 -135 84 -228q86 -92 223 -92q87 0 159.5 43t109.5 115q38 73 38 161.5t-38 160.5q-37 74 -109 116.5t-162 42.5q-134 0 -219.5 -92t-85.5 -227zM741 -223q49 49 122 49.5t120 -47.5q49 -49 49 -122t-49 -120q-47 -49 -120 -49t-122 49q-47 47 -47 120t47 120z
" />
    <glyph glyph-name="ohorndotbelow" unicode="&#x1ee3;" horiz-adv-x="1302" 
d="M1020 1133h405v-78q0 -110 -64 -202t-167 -130q47 -103 47 -211q0 -222 -174 -377q-171 -155 -416 -155q-244 0 -418 155q-172 156 -172 377t172 377q174 155 418 155q195 0 350 -104q19 28 19 59v134zM649 692q-55 3 -100.5 -30.5t-65.5 -81.5t-11.5 -103t50.5 -92
q37 -42 91.5 -50.5t102.5 11.5t81 65.5t30 100.5q0 75 -52 127.5t-126 52.5zM530 -223q49 49 122 49.5t120 -47.5q50 -49 50 -122t-50 -120q-47 -49 -119.5 -49t-122.5 49q-47 47 -47 120t47 120z" />
    <glyph glyph-name="Udotbelow" unicode="&#x1ee4;" horiz-adv-x="1568" 
d="M1012 1434h444v-768q0 -344 -171.5 -515t-496.5 -171q-323 0 -494 171t-171 515v768h446v-768q0 -279 222 -279q221 0 221 279v768zM668 -223q50 49 122 49t119 -49q49 -47 49 -120t-49 -122q-47 -47 -119 -47t-122 47q-47 49 -47 122t47 120z" />
    <glyph glyph-name="udotbelow" unicode="&#x1ee5;" horiz-adv-x="1282" 
d="M1198 1024v-1024h-416v100q-159 -120 -348 -120q-159 0 -256.5 85t-97.5 240v719h416v-592q0 -55 29.5 -86t80.5 -31q98 0 176 60v649h416zM524 -221q50 47 122.5 47t119.5 -47q50 -49 50 -122t-50 -120q-47 -49 -119.5 -49t-122.5 49q-47 47 -47 119.5t47 122.5z" />
    <glyph glyph-name="Uhookabove" unicode="&#x1ee6;" horiz-adv-x="1568" 
d="M786 2089q144 0 230 -68t86 -184q0 -65 -32.5 -112.5t-108.5 -106.5q-28 -14 -41.5 -33t-20.5 -47h-227q-3 59 6 94q10 39 39 68q35 35 84 69q43 38 25.5 70.5t-64.5 32.5q-70 0 -76 -55l-242 22q19 116 111.5 183t230.5 67zM1010 1434h444v-768q0 -344 -171.5 -515
t-496.5 -171q-323 0 -494 171t-171 515v768h446v-768q0 -279 221 -279q222 0 222 279v768z" />
    <glyph glyph-name="uhookabove" unicode="&#x1ee7;" horiz-adv-x="1282" 
d="M645 1677q142 0 229 -67.5t87 -184.5q0 -65 -33 -112.5t-109 -104.5q-10 -10 -24 -21.5t-20.5 -17t-11.5 -17t-5 -26.5h-230q-3 51 9 95q9 46 38 67q8 8 42 36.5t40 33.5q33 23 33 49q0 25 -19.5 39t-52.5 14q-66 0 -75 -55l-242 25q20 115 112 181t232 66zM1198 1024
v-1024h-416v100q-159 -120 -348 -120q-159 0 -256.5 85t-97.5 240v719h416v-592q0 -55 29.5 -86t80.5 -31q98 0 176 60v649h416z" />
    <glyph glyph-name="Uhornacute" unicode="&#x1ee8;" horiz-adv-x="1568" 
d="M1280 1901l-324 -365h-356l254 365h426zM1569 1516h362v-78q0 -172 -117 -261t-358 -96v-415q0 -344 -171.5 -515t-496.5 -171q-323 0 -494 171t-171 515v768h446v-768q0 -279 222 -279q221 0 221 279v768h444v-162q47 0 80 32.5t33 77.5v134z" />
    <glyph glyph-name="uhornacute" unicode="&#x1ee9;" horiz-adv-x="1228" 
d="M1292 1133h320v-78q0 -174 -97 -259.5t-317 -97.5v-698h-416v100q-159 -120 -348 -120q-159 0 -256.5 85t-97.5 240v719h416v-592q0 -55 29.5 -86t80.5 -31q98 0 176 60v649h416v-135q41 8 67.5 38.5t26.5 71.5v134zM1135 1491l-324 -365h-356l252 365h428z" />
    <glyph glyph-name="Uhorngrave" unicode="&#x1eea;" horiz-adv-x="1568" 
d="M717 1901l254 -365h-357l-323 365h426zM1569 1516h362v-78q0 -172 -117 -261t-358 -96v-415q0 -344 -171.5 -515t-496.5 -171q-323 0 -494 171t-171 515v768h446v-768q0 -279 222 -279q221 0 221 279v768h444v-162q47 0 80 32.5t33 77.5v134z" />
    <glyph glyph-name="uhorngrave" unicode="&#x1eeb;" horiz-adv-x="1282" 
d="M573 1491l254 -365h-356l-324 365h426zM1294 1133h320v-78q0 -172 -95.5 -258.5t-318.5 -98.5v-698h-416v100q-159 -120 -348 -120q-159 0 -256.5 85t-97.5 240v719h416v-592q0 -55 29.5 -86t80.5 -31q98 0 176 60v649h416v-135q41 8 67.5 38.5t26.5 71.5v134z" />
    <glyph glyph-name="Uhornhookabove" unicode="&#x1eec;" horiz-adv-x="1568" 
d="M788 2089q144 0 230 -68t86 -184q0 -65 -32.5 -112.5t-108.5 -106.5q-28 -14 -41.5 -33t-20.5 -47h-227q-3 59 6 94q10 39 39 68q35 35 84 69q43 38 25.5 70.5t-64.5 32.5q-70 0 -76 -55l-242 22q19 116 111.5 183t230.5 67zM1569 1516h362v-78q0 -172 -117 -261
t-358 -96v-415q0 -344 -171.5 -515t-496.5 -171q-323 0 -494 171t-171 515v768h446v-768q0 -279 222 -279q221 0 221 279v768h444v-162q47 0 80 32.5t33 77.5v134z" />
    <glyph glyph-name="uhornhookabove" unicode="&#x1eed;" horiz-adv-x="1282" 
d="M645 1677q142 0 229 -67.5t87 -184.5q0 -65 -33 -112.5t-109 -104.5q-10 -10 -24 -21.5t-20.5 -17t-11.5 -17t-5 -26.5h-230q-3 51 9 95q9 46 38 67q8 8 42 36.5t40 33.5q33 23 33 49q0 25 -19.5 39t-52.5 14q-66 0 -75 -55l-242 25q20 115 112 181t232 66zM1292 1133
h320v-78q0 -174 -97 -259.5t-317 -97.5v-698h-416v100q-159 -120 -348 -120q-159 0 -256.5 85t-97.5 240v719h416v-592q0 -55 29.5 -86t80.5 -31q98 0 176 60v649h416v-135q41 8 67.5 38.5t26.5 71.5v134z" />
    <glyph glyph-name="Uhorntilde" unicode="&#x1eee;" horiz-adv-x="1568" 
d="M559 1892q55 12 94 6t119 -34q135 -48 176 -45q52 3 70 67l153 -18q20 -127 -18 -212t-125 -108q-55 -12 -94 -6q-40 6 -117 33l-41 14q-90 32 -98 33q-21 3 -45 -2q-47 -12 -62 -66l-153 17q-23 126 15.5 212t125.5 109zM1569 1516h362v-78q0 -172 -117 -261t-358 -96
v-415q0 -344 -171.5 -515t-496.5 -171q-323 0 -494 171t-171 515v768h446v-768q0 -279 222 -279q221 0 221 279v768h444v-162q47 0 80 32.5t33 77.5v134z" />
    <glyph glyph-name="uhorntilde" unicode="&#x1eef;" horiz-adv-x="1282" 
d="M416 1483q56 12 95.5 6.5t115.5 -35.5q136 -48 178 -45q52 3 67 68l154 -19q23 -126 -15.5 -210.5t-125.5 -108.5q-58 -12 -97 -6q-44 6 -116 32l-39 15q-86 30 -98 32q-21 4 -46 -2q-48 -12 -63 -65l-154 16q-20 127 18.5 213t125.5 109zM1294 1133h320v-78
q0 -174 -97 -259.5t-317 -97.5v-698h-416v100q-159 -120 -348 -120q-159 0 -256.5 85t-97.5 240v719h416v-592q0 -55 29.5 -86t80.5 -31q98 0 176 60v649h416v-135q41 8 67.5 38.5t26.5 71.5v134z" />
    <glyph glyph-name="Uhorndotbelow" unicode="&#x1ef0;" horiz-adv-x="1568" 
d="M1569 1516h362v-78q0 -172 -117 -261t-358 -96v-415q0 -344 -171.5 -515t-496.5 -171q-323 0 -494 171t-171 515v768h446v-768q0 -279 222 -279q221 0 221 279v768h444v-162q47 0 80 32.5t33 77.5v134zM668 -223q49 49 121.5 49.5t119.5 -47.5q49 -49 49 -122t-49 -120
q-47 -49 -119 -49t-122 49q-47 47 -47 120t47 120z" />
    <glyph glyph-name="uhorndotbelow" unicode="&#x1ef1;" horiz-adv-x="1282" 
d="M1292 1133h320v-78q0 -174 -97 -259.5t-317 -97.5v-698h-416v100q-159 -120 -348 -120q-159 0 -256.5 85t-97.5 240v719h416v-592q0 -55 29.5 -86t80.5 -31q98 0 176 60v649h416v-135q41 8 67.5 38.5t26.5 71.5v134zM524 -223q49 49 122 49.5t120 -47.5q50 -49 50 -122
t-50 -120q-47 -49 -119.5 -49t-122.5 49q-47 47 -47 120t47 120z" />
    <glyph glyph-name="Ygrave" unicode="&#x1ef2;" horiz-adv-x="1642" 
d="M1602 1434l-558 -949v-485h-446v479l-557 955h532l250 -478l252 478h527zM750 1901l251 -365h-356l-323 365h428z" />
    <glyph glyph-name="ygrave" unicode="&#x1ef3;" horiz-adv-x="1280" 
d="M596 1491l252 -365h-356l-324 365h428zM492 1024l176 -537l161 537h433l-416 -1114q-124 -330 -447 -330q-152 -3 -379 82l115 270q141 -54 223 -45q74 9 121 74l6 8l-432 1055h439z" />
    <glyph glyph-name="Ydotbelow" unicode="&#x1ef4;" horiz-adv-x="1642" 
d="M1602 1434l-558 -949v-485h-446v479l-557 955h532l250 -478l252 478h527zM700 -221q50 47 121 47t121 -47q50 -49 50 -122t-50 -120q-50 -49 -121 -49t-121 49q-50 47 -50 120t50 122z" />
    <glyph glyph-name="ydotbelow" unicode="&#x1ef5;" horiz-adv-x="1280" 
d="M492 1024l176 -537l161 537h433l-416 -1114q-124 -330 -447 -330q-152 -3 -379 82l115 270q141 -54 223 -45q74 9 121 74l6 8l-432 1055h439zM1188 -342q0 -74 -48 -122t-122 -48q-53 -4 -95 27t-59.5 77t-10.5 99t44 88q35 37 88 44t99 -10.5t77 -59.5t27 -95z" />
    <glyph glyph-name="Yhookabove" unicode="&#x1ef6;" horiz-adv-x="1642" 
d="M817 2089q144 0 230 -68t86 -184q0 -64 -33 -112t-109 -107q-28 -14 -41 -33t-20 -47h-228q-3 56 7 94q5 18 12 32t19.5 27.5t21.5 21.5t32 26t37 30q43 38 26 70.5t-64 32.5q-70 0 -76 -55l-242 22q19 116 111.5 183t230.5 67zM1599 1434l-557 -949v-485h-446v479
l-557 955h532l250 -478l252 478h526z" />
    <glyph glyph-name="yhookabove" unicode="&#x1ef7;" horiz-adv-x="1280" 
d="M664 1677q143 0 229 -68t86 -184q0 -65 -32.5 -112.5t-108.5 -104.5q-10 -10 -24 -21.5t-20.5 -17.5t-12 -17t-5.5 -26h-229q-3 54 8 95q9 45 39 67q8 8 42 36.5t40 33.5q33 23 33 49q0 25 -19.5 39t-52.5 14q-67 0 -76 -55l-242 25q20 115 112.5 181t232.5 66zM489 1024
l177 -537l161 537h433l-416 -1114q-124 -330 -447 -330q-152 -3 -379 82l115 270q141 -54 223 -45q74 9 121 74l6 8l-432 1055h438z" />
    <glyph glyph-name="Ytilde" unicode="&#x1ef8;" horiz-adv-x="1642" 
d="M590 1892q55 12 94 6t119 -34q135 -48 176 -45q52 3 70 67l153 -18q20 -127 -18 -212t-125 -108q-55 -12 -94 -6q-41 6 -117 33l-39 14q-96 33 -98 33q-22 4 -47 -2q-47 -12 -62 -66l-153 17q-23 126 16 211.5t125 109.5zM1602 1434l-558 -949v-485h-446v479l-557 955
h532l250 -478l252 478h527z" />
    <glyph glyph-name="ytilde" unicode="&#x1ef9;" horiz-adv-x="1280" 
d="M436 1483q55 12 94 6q34 -5 119 -35q135 -48 176 -45q52 3 70 68l154 -19q20 -127 -18.5 -211.5t-125.5 -107.5q-55 -12 -94 -6q-45 7 -117 32l-39 15q-91 31 -98 32q-22 4 -47 -2q-46 -12 -61 -65l-154 16q-23 126 16 212t125 110zM492 1024l176 -537l161 537h433
l-416 -1114q-124 -330 -447 -330q-152 -3 -379 82l115 270q141 -54 223 -45q74 9 121 74l6 8l-432 1055h439z" />
    <glyph glyph-name="endash" unicode="&#x2013;" horiz-adv-x="1052" 
d="M991 705v-347h-930v347h930z" />
    <glyph glyph-name="emdash" unicode="&#x2014;" horiz-adv-x="1398" 
d="M1337 705v-345h-1276v345h1276z" />
    <glyph glyph-name="quoteleft" unicode="&#x2018;" horiz-adv-x="536" 
d="M377 1679l117 -53l-119 -291q53 -22 87 -68t34 -98q0 -78 -64.5 -132t-155.5 -54t-154 54t-63 132q0 53 33 97z" />
    <glyph glyph-name="quoteright" unicode="&#x2019;" horiz-adv-x="536" 
d="M475 1493q0 -54 -33 -96l-284 -414l-117 51l119 293q-55 22 -88 66.5t-33 99.5q0 78 63 132t154 54t155 -54t64 -132z" />
    <glyph glyph-name="quotesinglbase" unicode="&#x201a;" horiz-adv-x="536" 
d="M475 164q0 -45 -29 -92l-288 -420l-117 53l119 293q-56 23 -88.5 67.5t-32.5 98.5q0 78 63 132t154 54t155 -54t64 -132z" />
    <glyph glyph-name="quotedblleft" unicode="&#x201c;" horiz-adv-x="1075" 
d="M377 1679l117 -53l-119 -291q53 -22 87 -68t34 -98q0 -78 -64.5 -132t-155.5 -54t-154 54t-63 132q0 53 33 97zM913 1679l119 -53l-119 -291q55 -24 88 -68.5t33 -97.5q0 -77 -64.5 -131.5t-154.5 -54.5q-91 0 -154 54t-63 132q0 49 31 97z" />
    <glyph glyph-name="quotedblright" unicode="&#x201d;" horiz-adv-x="1075" 
d="M1012 1493q0 -51 -31 -96l-285 -414l-118 51l120 293q-56 23 -88 67.5t-32 98.5q0 78 63 132t154 54t154 -54t63 -132zM256 1679q91 0 155 -54t64 -132q0 -54 -33 -96l-284 -414l-117 51l119 293q-56 23 -88.5 67.5t-32.5 98.5q0 78 63 132t154 54z" />
    <glyph glyph-name="quotedblbase" unicode="&#x201e;" horiz-adv-x="1075" 
d="M475 164q0 -45 -29 -92l-288 -420l-117 53l119 293q-56 23 -88.5 67.5t-32.5 98.5q0 78 63 132t154 54t155 -54t64 -132zM795 350q91 0 154 -54t63 -132q0 -45 -29 -92l-287 -420l-118 53l120 293q-56 23 -88 67.5t-32 98.5q0 78 63 132t154 54z" />
    <glyph glyph-name="dagger" unicode="&#x2020;" horiz-adv-x="1093" 
d="M721 1454v-371h313v-313h-313v-1083h-348v1083h-312v313h312v371h348z" />
    <glyph glyph-name="daggerdbl" unicode="&#x2021;" horiz-adv-x="1093" 
d="M721 1454v-371h313v-313h-313v-399h313v-314h-313v-370h-348v370h-312v314h312v399h-312v313h312v371h348z" />
    <glyph glyph-name="bullet" unicode="&#x2022;" horiz-adv-x="894" 
d="M174 905q115 115 272 115q160 0 275 -115q113 -113 113 -272q0 -162 -113 -275q-112 -112 -275 -112q-160 0 -272 112q-113 113 -113 275q0 159 113 272z" />
    <glyph glyph-name="ellipsis" unicode="&#x2026;" horiz-adv-x="1783" 
d="M276 350q90 0 155 -54.5t65 -131.5q4 -58 -37 -105t-99.5 -67t-125.5 -11.5t-111 50.5q-50 39 -60 97t14 107.5t78 84t121 30.5zM891 350q67 4 121 -30.5t78 -84t14 -107.5t-60 -97q-44 -42 -111 -50.5t-125.5 11.5t-99 67t-36.5 105q0 77 64.5 131.5t154.5 54.5z
M1503 350q67 4 121.5 -30.5t78.5 -84t14 -107.5t-60 -97q-44 -42 -111 -50.5t-125.5 11.5t-99.5 67t-37 105q0 77 64 131.5t155 54.5z" />
    <glyph glyph-name="perthousand" unicode="&#x2030;" horiz-adv-x="2787" 
d="M1704 1468l-1102 -1503h-366l1099 1503h369zM426 1454q178 0 280.5 -111t102.5 -301q0 -189 -102 -301t-281 -112t-282 111t-103 302q0 188 102 300t283 112zM496 1159q-26 44 -71 44t-71 -44q-26 -42 -26 -119q0 -73 26 -118q26 -43 71 -43t71 43q26 45 26 118
q0 77 -26 119zM1513 -18q-179 0 -282 112t-103 299q0 189 103 301q101 113 282 113q182 0 283 -113q102 -111 102 -301t-103 -300.5t-282 -110.5zM2363 -18q-181 0 -283 111.5t-102 299.5q0 189 103 301q101 113 280 113q182 0 283 -113q102 -111 102 -301t-102.5 -300.5
t-280.5 -110.5zM1415 393q0 -74 27.5 -118t70.5 -44q42 0 70.5 44.5t28.5 117.5t-28 118.5t-71 45.5t-70.5 -45.5t-27.5 -118.5zM2363 557q-43 0 -70.5 -45.5t-27.5 -118.5t27 -117.5t71 -44.5q43 0 70 44t27 118q0 73 -27 118.5t-70 45.5z" />
    <glyph glyph-name="guilsinglleft" unicode="&#x2039;" horiz-adv-x="802" 
d="M457 1044l307 -157l-264 -344l264 -344l-311 -154l-392 498z" />
    <glyph glyph-name="guilsinglright" unicode="&#x203a;" horiz-adv-x="802" 
d="M348 1044l395 -501l-393 -498l-309 154l264 344l-264 344z" />
    <glyph glyph-name="fraction" unicode="&#x2044;" horiz-adv-x="1411" 
d="M1350 1468l-949 -1503h-342l947 1503h344z" />
    <glyph glyph-name="zerosuperior" unicode="&#x2070;" horiz-adv-x="763" 
d="M123 1423q95 105 258 105q165 0 260 -105q96 -107 96 -272t-96 -272q-95 -105 -260 -105q-163 0 -258 105q-96 107 -96 272t96 272zM461 1151q0 141 -80 141q-78 0 -78 -141t78 -141q80 0 80 141z" />
    <glyph glyph-name="foursuperior" unicode="&#x2074;" horiz-adv-x="741" 
d="M643 1516v-412h82v-203h-84v-119h-258v119h-334l-33 195l332 420h295zM383 1255l-104 -151h104v151z" />
    <glyph glyph-name="fivesuperior" unicode="&#x2075;" horiz-adv-x="694" 
d="M635 1516v-191h-301l-2 -55q36 4 57 4q56 0 104.5 -14t88 -42.5t62 -76.5t22.5 -111q0 -118 -91 -190q-89 -68 -213 -68q-96 0 -190.5 41t-153.5 111l127 143q70 -82 170 -82q36 0 57 18t21 50q0 25 -20.5 40t-50.5 15q-55 3 -86 -39l-170 86l22 361h547z" />
    <glyph glyph-name="sixsuperior" unicode="&#x2076;" horiz-adv-x="681" 
d="M373 1528q150 0 268 -86l-115 -174q-62 47 -125 47q-77 0 -92 -84l-2 -4q52 18 113 18q117 0 181.5 -63.5t64.5 -147.5q0 -99 -84 -180q-83 -80 -222 -80q-81 0 -142.5 24t-97 60.5t-58 87t-30 95.5t-7.5 94q0 183 91.5 288.5t256.5 104.5zM358 1106q-29 0 -48.5 -16
t-24.5 -43q9 -82 73 -82q27 0 47.5 20t20.5 49q0 28 -20.5 50t-47.5 22z" />
    <glyph glyph-name="sevensuperior" unicode="&#x2077;" horiz-adv-x="641" 
d="M631 1516v-197l-301 -537h-305l290 504h-295v230h611z" />
    <glyph glyph-name="eightsuperior" unicode="&#x2078;" horiz-adv-x="704" 
d="M653 1319q0 -92 -82 -150q105 -65 105 -172q0 -94 -93.5 -158.5t-232.5 -64.5q-142 0 -233 64q-92 65 -92 159q0 108 104 172q-82 58 -82 150q0 89 88 147q89 62 215 62t215 -62q88 -58 88 -147zM283 1286q0 -28 21 -44.5t45.5 -16.5t45.5 16.5t21 44.5q0 23 -21 41.5
t-47 18.5q-25 0 -45 -18.5t-20 -41.5zM350 1085q-30 0 -50.5 -18.5t-20.5 -44.5q0 -25 21 -44.5t50 -19.5t50.5 19.5t21.5 44.5q0 26 -20.5 44.5t-51.5 18.5z" />
    <glyph glyph-name="ninesuperior" unicode="&#x2079;" horiz-adv-x="681" 
d="M322 1528q81 0 143 -24.5t97.5 -61t57.5 -87t29.5 -95.5t7.5 -93q0 -185 -91 -289.5t-255 -103.5q-152 0 -268 84l113 176q62 -47 127 -47q77 0 92 82v6q-53 -18 -113 -18q-113 0 -179.5 60.5t-66.5 150.5q0 101 82 180q83 80 224 80zM324 1337q-26 0 -47 -21.5
t-21 -47.5q0 -30 21 -51t47 -21q29 0 49.5 16.5t23.5 42.5q-9 82 -73 82z" />
    <glyph glyph-name="zeroinferior" unicode="&#x2080;" horiz-adv-x="763" 
d="M123 350q95 105 258 105q165 0 260 -105q96 -107 96 -272q0 -166 -96 -273q-94 -104 -260 -104q-164 0 -258 104q-96 107 -96 273q0 165 96 272zM461 78q0 141 -80 141q-78 0 -78 -141t78 -141q80 0 80 141z" />
    <glyph glyph-name="oneinferior" unicode="&#x2081;" horiz-adv-x="479" 
d="M444 446v-733h-272v494l-113 -25l-49 203l230 61h204z" />
    <glyph glyph-name="twoinferior" unicode="&#x2082;" horiz-adv-x="671" 
d="M346 457q123 0 211 -68.5t88 -187.5q0 -65 -37.5 -120.5t-126.5 -125.5l-30 -23h202v-219h-635v193l312 225q37 27 37 55q0 17 -11.5 27t-29.5 10q-68 0 -142 -86l-170 146q49 82 142 128t190 46z" />
    <glyph glyph-name="threeinferior" unicode="&#x2083;" horiz-adv-x="688" 
d="M643 444v-184l-129 -102l21 -11q59 -25 93 -74t34 -110q0 -117 -87 -189.5t-223 -72.5q-176 0 -336 127l150 154q73 -67 153 -64q68 0 68 55q0 43 -65 43q-34 0 -103 -16l-39 135l137 92h-243v217h569z" />
    <glyph glyph-name="fourinferior" unicode="&#x2084;" horiz-adv-x="741" 
d="M643 446v-411h82v-203h-84v-119h-258v119h-334l-33 195l332 419h295zM383 186l-104 -151h104v151z" />
    <glyph glyph-name="fiveinferior" unicode="&#x2085;" horiz-adv-x="694" 
d="M635 444v-190h-301l-2 -55q36 4 57 4q56 0 104.5 -14t88 -42.5t62 -76.5t22.5 -111q0 -119 -91 -188q-88 -70 -213 -70q-96 0 -190.5 41t-153.5 111l127 143q70 -82 170 -82q35 0 56.5 17.5t21.5 50.5q0 25 -20 40t-51 15q-55 3 -86 -39l-170 86l22 360h547z" />
    <glyph glyph-name="sixinferior" unicode="&#x2086;" horiz-adv-x="681" 
d="M373 455q149 0 268 -84l-115 -176q-62 47 -125 47q-77 0 -92 -82l-2 -6q53 18 113 18q114 0 181 -61t65 -150q0 -99 -84 -180q-83 -80 -222 -80q-81 0 -142.5 24t-97 60.5t-58 86.5t-30 95t-7.5 94q0 185 91 290t257 104zM358 33q-29 0 -48.5 -16.5t-24.5 -43.5
q9 -82 73 -82q24 -1 41 14t21 36t0 42t-21 36t-41 14z" />
    <glyph glyph-name="seveninferior" unicode="&#x2087;" horiz-adv-x="641" 
d="M631 446v-196l-301 -537h-305l290 504h-295v229h611z" />
    <glyph glyph-name="eightinferior" unicode="&#x2088;" horiz-adv-x="704" 
d="M352 455q126 0 215 -62q88 -58 88 -147q0 -92 -82 -150q105 -65 105 -172q0 -94 -93.5 -158.5t-232.5 -64.5q-140 0 -232.5 64.5t-92.5 158.5q0 108 104 172q-82 58 -82 150q0 88 88 148.5t215 60.5zM285 213q0 -28 21 -44.5t45.5 -16.5t45.5 16.5t21 44.5q0 23 -21 41
t-47 18q-25 0 -45 -18t-20 -41zM281 -51q0 -25 21 -44.5t50 -19.5t50.5 19.5t21.5 44.5q0 29 -22.5 45.5t-49 16.5t-49 -16.5t-22.5 -45.5z" />
    <glyph glyph-name="nineinferior" unicode="&#x2089;" horiz-adv-x="681" 
d="M322 455q81 0 143 -24t97.5 -60.5t57.5 -87t29.5 -95.5t7.5 -94q0 -182 -91 -288t-255 -105q-153 0 -268 86l113 174q62 -47 127 -47q77 0 92 84v4q-52 -18 -113 -18q-113 0 -179.5 61t-66.5 150q0 101 82 180q83 80 224 80zM324 264q-27 0 -47.5 -20t-20.5 -49
t20.5 -50.5t47.5 -21.5q29 0 49.5 16.5t23.5 42.5q-9 82 -73 82z" />
    <glyph glyph-name="Euro" unicode="&#x20ac;" horiz-adv-x="1435" 
d="M899 365q94 0 160 63l315 -192q-97 -122 -232 -189t-288 -67q-220 0 -403 139q-177 140 -248 362h-152v207h117v29v39h-117v207h156q69 213 248 354q177 137 399 137q153 0 288 -67t232 -189l-315 -192q-66 63 -160 63q-122 0 -197 -106h228v-207h-297l-2 -39
q0 -19 2 -29h297v-207h-234q76 -116 203 -116z" />
    <glyph glyph-name="trademark" unicode="&#x2122;" horiz-adv-x="1890" 
d="M756 1434v-238h-219v-586h-277v586h-219v238h715zM1829 1434v-824h-270v428l-189 -315h-98l-187 315v-428h-272v824h346l162 -267l162 267h346z" />
    <glyph glyph-name="oneeighth" unicode="&#x215b;" horiz-adv-x="1554" 
d="M1350 1468l-949 -1503h-329l946 1503h332zM444 1434v-734h-272v494l-113 -25l-49 201l230 64h204zM1505 532q0 -91 -82 -149q105 -64 105 -172q0 -96 -94 -160q-89 -63 -234 -63q-142 0 -231 63q-92 65 -92 160q0 107 102 172q-80 59 -80 149t88 148q88 61 215 61
t215 -61q88 -58 88 -148zM1202 559q-27 0 -47 -17.5t-20 -41.5q0 -28 21 -44.5t45.5 -16.5t45.5 16.5t21 44.5q0 23 -20.5 41t-45.5 18zM1128 236q0 -25 21.5 -44.5t50.5 -19.5q30 0 52 19.5t22 44.5q0 29 -23 45.5t-50 16.5t-50 -16.5t-23 -45.5z" />
    <glyph glyph-name="threeeighths" unicode="&#x215c;" horiz-adv-x="1660" 
d="M1462 1468l-946 -1503h-332l949 1503h329zM643 1434v-185l-129 -102l21 -10q60 -26 93.5 -75t33.5 -110q0 -117 -87 -189.5t-223 -72.5q-176 0 -336 127l150 154q73 -67 153 -64q68 0 68 56q0 43 -65 43q-30 0 -103 -17l-39 135l137 93h-243v217h569zM1612 532
q0 -91 -82 -149q104 -64 104 -172q0 -96 -94 -160q-89 -63 -233 -63q-143 0 -232 63q-92 65 -92 160q0 108 104 172q-81 57 -81 149q0 90 88 148q88 61 215 61t215 -61q88 -58 88 -148zM1241 500q0 -26 20.5 -44t47.5 -18q25 0 45 18t20 44q0 23 -20.5 41t-46.5 18
q-25 0 -45.5 -18t-20.5 -41zM1235 236q0 -25 22.5 -44.5t51.5 -19.5t50 19.5t21 44.5q0 29 -22.5 45.5t-50 16.5t-50 -16.5t-22.5 -45.5z" />
    <glyph glyph-name="fiveeighths" unicode="&#x215d;" horiz-adv-x="1656" 
d="M1456 1468l-946 -1503h-330l946 1503h330zM635 1434v-191h-301l-2 -55q36 4 57 4q124 0 200.5 -62.5t76.5 -181.5q0 -118 -91 -190q-89 -68 -213 -68q-96 0 -190.5 41t-153.5 111l127 143q70 -82 170 -82q35 0 56.5 17.5t21.5 50.5q0 25 -20 40t-51 15q-55 3 -86 -39
l-170 86l22 361h547zM1606 532q0 -90 -80 -149q102 -64 102 -172q0 -95 -92 -160q-89 -63 -233 -63q-143 0 -232 63q-92 65 -92 160q0 107 102 172q-80 59 -80 149q0 89 86 148q88 61 216 61q130 0 215 -61q88 -58 88 -148zM1237 500q0 -26 19.5 -44t46.5 -18q28 0 47.5 18
t19.5 44q0 23 -20.5 41t-46.5 18q-25 0 -45.5 -18t-20.5 -41zM1231 236q0 -25 21.5 -44.5t50.5 -19.5q30 0 51.5 19.5t21.5 44.5q0 29 -22.5 45.5t-50 16.5t-50 -16.5t-22.5 -45.5z" />
    <glyph glyph-name="seveneighths" unicode="&#x215e;" horiz-adv-x="1495" 
d="M1298 1468l-948 -1503h-330l947 1503h331zM633 1434v-197l-301 -537h-305l290 504h-294v230h610zM1446 532q0 -90 -80 -149q102 -64 102 -172q0 -95 -92 -160q-89 -63 -233 -63q-143 0 -232 63q-92 65 -92 160q0 107 103 172q-80 59 -80 149t88 148q88 61 215 61
q128 0 213 -61q88 -58 88 -148zM1145 559q-26 0 -47 -18t-21 -41q0 -28 21 -44.5t45.5 -16.5t45.5 16.5t21 44.5q0 23 -20 41t-45 18zM1145 299q-31 0 -52.5 -18.5t-21.5 -44.5q0 -25 21.5 -44.5t50.5 -19.5q30 0 52 19.5t22 44.5q0 26 -22 44.5t-50 18.5z" />
    <glyph glyph-name="partialdiff" unicode="&#x2202;" horiz-adv-x="1433" 
 />
    <glyph glyph-name="emptyset" unicode="&#x2205;" horiz-adv-x="1433" 
 />
    <glyph glyph-name="product" unicode="&#x220f;" horiz-adv-x="1433" 
 />
    <glyph glyph-name="summation" unicode="&#x2211;" horiz-adv-x="1433" 
 />
    <glyph glyph-name="minus" unicode="&#x2212;" horiz-adv-x="1167" 
d="M1106 762v-316h-1045v316h1045z" />
    <glyph glyph-name="radical" unicode="&#x221a;" horiz-adv-x="1433" 
 />
    <glyph glyph-name="infinity" unicode="&#x221e;" horiz-adv-x="1433" 
 />
    <glyph glyph-name="integral" unicode="&#x222b;" horiz-adv-x="1433" 
 />
    <glyph glyph-name="approxequal" unicode="&#x2248;" horiz-adv-x="1114" 
d="M281 1014q73 15 122 6q46 -5 152 -41l33 -12q106 -38 139 -45q30 -7 66 2q60 15 79 82l197 -23q29 -157 -21 -264t-161 -137q-73 -15 -125 -9q-49 9 -150 43l-30 13q-98 35 -144 45q-28 6 -63 -2q-61 -15 -80 -82l-197 22q-29 157 21.5 264.5t161.5 137.5zM281 510
q73 15 122 6q46 -5 152 -41l33 -12q106 -38 139 -45q30 -7 66 2q60 15 79 82l197 -23q29 -158 -21.5 -264.5t-160.5 -136.5q-70 -14 -125 -8q-49 9 -150 43l-32 10q-116 41 -142 47q-28 6 -63 -2q-61 -15 -80 -82l-197 20q-29 158 21 265.5t162 138.5z" />
    <glyph glyph-name="notequal" unicode="&#x2260;" horiz-adv-x="1126" 
d="M1085 657h-305l-67 -141h372v-317h-524l-112 -240h-367l113 240h-154v317h305l68 141h-373v318h524l113 239h366l-112 -239h153v-318z" />
    <glyph glyph-name="lessequal" unicode="&#x2264;" horiz-adv-x="1167" 
d="M1106 1272v-377l-563 -168l563 -168v-377l-1045 377v336zM1106 121v-318h-1045v318h1045z" />
    <glyph glyph-name="greaterequal" unicode="&#x2265;" horiz-adv-x="1167" 
d="M61 1272l1045 -377v-336l-1045 -377v377l564 168l-564 168v377zM1106 121v-318h-1045v318h1045z" />
    <glyph glyph-name="lozenge" unicode="&#x25ca;" horiz-adv-x="1228" 
 />
    <glyph glyph-name="NULL" horiz-adv-x="0" 
 />
    <glyph glyph-name="CR" horiz-adv-x="681" 
 />
    <glyph glyph-name="A.sc" horiz-adv-x="1318" 
d="M907 1024l391 -1024h-460l-43 156h-271l-43 -156h-461l394 1024h493zM659 641l-55 -203h113z" />
    <glyph glyph-name="AE.sc" horiz-adv-x="1624" 
d="M414 1024h1169v-311h-512v-60h477v-270h-477v-74h518v-309h-930v156h-135l-43 -156h-461zM659 641l-55 -203h55v203z" />
    <glyph glyph-name="Aacute.sc" horiz-adv-x="1318" 
d="M1153 1491l-326 -365h-354l252 365h428zM907 1024l391 -1024h-460l-43 156h-271l-43 -156h-461l394 1024h493zM659 641l-55 -203h113z" />
    <glyph glyph-name="Abreve.sc" horiz-adv-x="1318" 
d="M805 1503h272q0 -155 -119 -256q-118 -100 -290 -100q-175 0 -293 100q-119 101 -119 256h272q0 -50 39.5 -79t100.5 -29q59 0 98 28.5t39 79.5zM905 1024l391 -1024h-460l-43 156h-271l-43 -156h-461l394 1024h493zM657 641l-55 -203h113z" />
    <glyph glyph-name="Acaron.sc" horiz-adv-x="1318" 
d="M1128 1491l-254 -365h-432l-254 365h344l125 -152l127 152h344zM905 1024l391 -1024h-460l-43 156h-271l-43 -156h-461l394 1024h493zM657 641l-55 -203h113z" />
    <glyph glyph-name="Acircumflex.sc" horiz-adv-x="1318" 
d="M877 1491l251 -365h-342l-127 152l-127 -152h-342l252 365h435zM905 1024l391 -1024h-460l-43 156h-271l-43 -156h-461l394 1024h493zM657 641l-55 -203h113z" />
    <glyph glyph-name="Acircumflexdotbelow.sc" horiz-adv-x="1318" 
d="M877 1491l251 -365h-342l-127 152l-127 -152h-342l252 365h435zM905 1024l391 -1024h-460l-43 156h-271l-43 -156h-461l394 1024h493zM657 641l-55 -203h113zM537 -221q49 47 120 47t121 -47q50 -49 50 -122t-50 -120q-50 -49 -121 -49t-120 49q-49 47 -49 120t49 122z
" />
    <glyph glyph-name="Adieresis.sc" horiz-adv-x="1318" 
d="M905 1024l391 -1024h-460l-43 156h-271l-43 -156h-461l394 1024h493zM657 641l-55 -203h113zM328 1446q50 50 122 50t119 -50q49 -47 49 -119.5t-49 -122.5q-47 -47 -119.5 -47t-121.5 47q-47 50 -47 122.5t47 119.5zM748 1446q50 50 122 50t119 -50q49 -47 49 -119.5
t-49 -122.5q-47 -47 -119 -47t-122 47q-47 50 -47 122.5t47 119.5z" />
    <glyph glyph-name="Adieresismacron.sc" horiz-adv-x="1406" 
d="M1069 1792v-256h-739v256h739zM369 1446q49 50 121.5 50t119.5 -50q50 -47 50 -119.5t-50 -122.5q-47 -47 -119.5 -47t-121.5 47q-47 50 -47 122.5t47 119.5zM788 1446q50 50 122.5 50t119.5 -50q50 -47 50 -119.5t-50 -122.5q-47 -47 -119.5 -47t-122.5 47
q-47 50 -47 122.5t47 119.5zM946 1024l391 -1024h-460l-43 156h-271l-43 -156h-461l394 1024h493zM698 641l-55 -203h113z" />
    <glyph glyph-name="Agrave.sc" horiz-adv-x="1318" 
d="M905 1024l391 -1024h-460l-43 156h-271l-43 -156h-461l394 1024h493zM657 641l-55 -203h113zM588 1491l252 -365h-357l-323 365h428z" />
    <glyph glyph-name="Amacron.sc" horiz-adv-x="1318" 
d="M907 1024l391 -1024h-460l-43 156h-271l-43 -156h-461l394 1024h493zM659 641l-55 -203h113zM1030 1454v-256h-739v256h739z" />
    <glyph glyph-name="Aogonek.sc" horiz-adv-x="1406" 
d="M948 1024l391 -1024h-235l-10 -14q-64 -91 -43 -148q14 -44 77 -53q31 -5 74 4l47 -186q-85 -33 -200 -33q-182 0 -240 98q-64 117 55 309l15 23l-43 156h-271l-43 -156h-461l394 1024h493zM700 641l-55 -203h113z" />
    <glyph glyph-name="Aring.sc" horiz-adv-x="1318" 
d="M455 1524q87 84 207 84q119 0 206 -84q86 -83 86 -203t-86 -203q-87 -84 -206 -84q-120 0 -207 84q-86 83 -86 203t86 203zM731 1389q-29 29 -69.5 29t-69.5 -29q-29 -26 -29 -67.5t29 -70.5q29 -26 69.5 -26t69.5 26q29 29 29 70.5t-29 67.5zM907 1024l391 -1024h-460
l-43 156h-271l-43 -156h-461l394 1024h493zM659 641l-55 -203h113z" />
    <glyph glyph-name="Atilde.sc" horiz-adv-x="1318" 
d="M430 1483q55 12 94 6q34 -5 119 -35q135 -48 176 -45q52 3 70 68l153 -19q20 -127 -18 -211.5t-125 -107.5q-55 -12 -94 -6q-45 7 -117 32l-39 15q-91 31 -98 32q-22 4 -47 -2q-47 -12 -62 -65l-153 16q-23 126 16 212t125 110zM907 1024l391 -1024h-460l-43 156h-271
l-43 -156h-461l394 1024h493zM659 641l-55 -203h113z" />
    <glyph glyph-name="B.sc" horiz-adv-x="1112" 
d="M72 0v1024h606q166 0 264 -73.5t98 -200.5q0 -135 -110 -211q147 -79 147 -244q0 -55 -20 -105t-62 -94t-118.5 -70t-178.5 -26h-626zM483 729v-90h90q56 0 56 45t-56 45h-90zM483 395v-100h115q59 0 59 49q0 51 -59 51h-115z" />
    <glyph glyph-name="Bdotbelow.sc" horiz-adv-x="1112" 
d="M72 0v1024h606q166 0 264 -73.5t98 -200.5q0 -135 -110 -211q147 -79 147 -244q0 -55 -20 -105t-62 -94t-118.5 -70t-178.5 -26h-626zM483 729v-90h90q56 0 56 45t-56 45h-90zM483 395v-100h115q59 0 59 49q0 51 -59 51h-115zM416 -223q49 49 121.5 49.5t119.5 -47.5
q49 -49 49 -122t-49 -120q-47 -49 -119 -49t-122 49q-47 47 -47 120t47 120z" />
    <glyph glyph-name="C.sc" horiz-adv-x="1128" 
d="M614 1044q152 0 283 -73q133 -71 201 -183l-338 -190q-32 59 -64 81.5t-80 22.5q-67 0 -109 -52.5t-42 -137.5t42 -137.5t109 -52.5q48 0 80 22.5t64 81.5l338 -190q-70 -111 -201.5 -183.5t-282.5 -72.5q-232 0 -403 157q-170 159 -170 375q0 217 170 373
q169 159 403 159z" />
    <glyph glyph-name="Cacute.sc" horiz-adv-x="1128" 
d="M1079 1491l-323 -365h-357l254 365h426zM614 1044q152 0 283 -73q133 -71 201 -183l-338 -190q-32 59 -64 81.5t-80 22.5q-67 0 -109 -52.5t-42 -137.5t42 -137.5t109 -52.5q48 0 80 22.5t64 81.5l338 -190q-70 -111 -201.5 -183.5t-282.5 -72.5q-232 0 -403 157
q-170 159 -170 375q0 217 170 373q169 159 403 159z" />
    <glyph glyph-name="Ccaron.sc" horiz-adv-x="1128" 
d="M1057 1491l-252 -365h-434l-252 365h342l127 -152l127 152h342zM614 1044q152 0 283 -73q133 -71 201 -183l-338 -190q-32 59 -64 81.5t-80 22.5q-67 0 -109 -52.5t-42 -137.5t42 -137.5t109 -52.5q48 0 80 22.5t64 81.5l338 -190q-67 -110 -201 -185q-133 -71 -283 -71
q-232 0 -403 157q-170 159 -170 375q0 217 170 373q169 159 403 159z" />
    <glyph glyph-name="Ccedilla.sc" horiz-adv-x="1128" 
d="M614 1044q152 0 283 -73q133 -71 201 -183l-338 -190q-32 59 -64 81.5t-80 22.5q-67 0 -109 -52.5t-42 -137.5t42 -137.5t109 -52.5q47 0 78.5 23t65.5 81l338 -190q-52 -83 -139 -145t-195 -91q-52 -15 -107 -18l-32 -66q33 -3 59 -12q58 -21 93.5 -69.5t35.5 -110.5
q0 -100 -73 -153.5t-193 -53.5q-132 0 -234 57l52 143q47 -24 108 -24q43 1 68.5 24.5t27.5 57.5q0 28 -17 48t-46 21q-26 0 -45 -8l-45 41l59 119q-183 45 -311 192q-123 144 -123 324q0 217 170 373q169 159 403 159z" />
    <glyph glyph-name="Cdotaccent.sc" horiz-adv-x="1128" 
d="M614 1044q152 0 283 -73q133 -71 201 -183l-338 -190q-32 59 -64 81.5t-80 22.5q-67 0 -109 -52.5t-42 -137.5t42 -137.5t109 -52.5q48 0 80 22.5t64 81.5l338 -190q-70 -111 -201.5 -183.5t-282.5 -72.5q-232 0 -403 157q-170 159 -170 375q0 217 170 373
q169 159 403 159zM467 1446q49 50 122 50t120 -50q49 -47 49 -119.5t-49 -122.5q-47 -47 -120 -47t-122 47q-47 50 -47 122.5t47 119.5z" />
    <glyph glyph-name="D.sc" horiz-adv-x="1177" 
d="M72 0v1024h489q234 0 406 -152q170 -150 170 -360q0 -212 -170 -362q-169 -150 -406 -150h-489zM549 700h-66v-376h66q74 0 122 52t48 136t-48 136t-122 52z" />
    <glyph glyph-name="Dcaron.sc" horiz-adv-x="1177" 
d="M1030 1491l-254 -365h-432l-254 365h344l125 -152l127 152h344zM72 0v1024h489q234 0 406 -152q170 -150 170 -360q0 -212 -170 -362q-169 -150 -406 -150h-489zM549 700h-66v-376h66q74 0 122 52t48 136t-48 136t-122 52z" />
    <glyph glyph-name="Dcircumflexbelow.sc" horiz-adv-x="1177" 
d="M72 0v1024h489q234 0 406 -152q170 -150 170 -360q0 -212 -170 -362q-169 -150 -406 -150h-489zM549 700h-66v-376h66q74 0 122 52t48 136t-48 136t-122 52zM776 -147l252 -365h-342l-127 152l-125 -152h-344l254 365h432z" />
    <glyph glyph-name="Dcroat.sc" horiz-adv-x="1177" 
d="M72 633v391h489q234 0 406 -152q170 -150 170 -360q0 -212 -170 -362q-169 -150 -406 -150h-489v391h-84v242h84zM483 391v-67h66q74 0 122 52t48 136t-48 136t-122 52h-66v-67h95v-242h-95z" />
    <glyph glyph-name="Ddotbelow.sc" horiz-adv-x="1177" 
d="M72 0v1024h489q234 0 406 -152q170 -150 170 -360q0 -212 -170 -362q-169 -150 -406 -150h-489zM549 700h-66v-376h66q74 0 122 52t48 136t-48 136t-122 52zM438 -223q49 49 122 49.5t120 -47.5q50 -49 50 -122t-50 -120q-47 -49 -119.5 -49t-122.5 49q-47 47 -47 120
t47 120z" />
    <glyph glyph-name="Dlinebelow.sc" horiz-adv-x="1177" 
d="M72 0v1024h489q234 0 406 -152q170 -150 170 -360q0 -212 -170 -362q-169 -150 -406 -150h-489zM549 700h-66v-376h66q74 0 122 52t48 136t-48 136t-122 52zM930 -164v-256h-740v256h740z" />
    <glyph glyph-name="E.sc" horiz-adv-x="1036" 
d="M995 1024v-311h-512v-60h478v-270h-478v-74h518v-309h-929v1024h923z" />
    <glyph glyph-name="Eacute.sc" horiz-adv-x="1036" 
d="M1018 1491l-326 -365h-354l252 365h428zM995 1024v-311h-512v-60h478v-270h-478v-74h518v-309h-929v1024h923z" />
    <glyph glyph-name="Ecaron.sc" horiz-adv-x="1036" 
d="M995 1491l-254 -365h-432l-254 365h344l125 -152l127 152h344zM995 1024v-311h-512v-60h478v-270h-478v-74h518v-309h-929v1024h923z" />
    <glyph glyph-name="Ecircumflex.sc" horiz-adv-x="1036" 
d="M741 1491l252 -365h-342l-127 152l-127 -152h-342l252 365h434zM993 1024v-311h-512v-60h477v-270h-477v-74h518v-309h-929v1024h923z" />
    <glyph glyph-name="Ecircumflexdotbelow.sc" horiz-adv-x="1036" 
d="M741 1491l252 -365h-342l-127 152l-127 -152h-342l252 365h434zM993 1024v-311h-512v-60h477v-270h-477v-74h518v-309h-929v1024h923zM395 -221q49 47 121 47t121 -47q49 -49 49 -122t-49 -120q-49 -49 -121 -49t-121 49q-49 47 -49 120t49 122z" />
    <glyph glyph-name="Edieresis.sc" horiz-adv-x="1036" 
d="M995 1024v-311h-512v-60h478v-270h-478v-74h518v-309h-929v1024h923zM195 1446q49 50 121.5 50t119.5 -50q50 -47 50 -119.5t-50 -122.5q-47 -47 -119 -47t-122 47q-47 50 -47 122.5t47 119.5zM614 1446q50 50 122.5 50t119.5 -50q50 -47 50 -119.5t-50 -122.5
q-47 -47 -120 -47t-122 47q-47 50 -47 122.5t47 119.5z" />
    <glyph glyph-name="Edotaccent.sc" horiz-adv-x="1036" 
d="M406 1446q50 50 121 50t120 -50q49 -47 49 -119.5t-49 -122.5q-49 -47 -120.5 -47t-120.5 47q-50 50 -50 122.5t50 119.5zM995 1024v-311h-512v-60h478v-270h-478v-74h518v-309h-929v1024h923z" />
    <glyph glyph-name="Edotbelow.sc" horiz-adv-x="1036" 
d="M995 1024v-311h-512v-60h478v-270h-478v-74h518v-309h-929v1024h923zM397 -221q49 47 121 47t121 -47q49 -49 49 -122t-49 -120q-49 -49 -121 -49t-121 49q-49 47 -49 120t49 122z" />
    <glyph glyph-name="Egrave.sc" horiz-adv-x="1036" 
d="M995 1024v-311h-512v-60h478v-270h-478v-74h518v-309h-929v1024h923zM455 1491l252 -365h-357l-323 365h428z" />
    <glyph glyph-name="Emacron.sc" horiz-adv-x="1036" 
d="M995 1024v-311h-512v-60h478v-270h-478v-74h518v-309h-929v1024h923zM895 1454v-256h-739v256h739z" />
    <glyph glyph-name="Eogonek.sc" horiz-adv-x="1036" 
d="M995 1024v-311h-512v-60h478v-270h-478v-74h518v-309h-118l-13 -20q-43 -70 -24 -119q15 -48 78 -54q28 -5 73 5l47 -187q-85 -33 -200 -33q-182 0 -240 99q-62 111 43 289l12 20h-587v1024h923z" />
    <glyph glyph-name="Eth.sc" horiz-adv-x="1177" 
d="M72 633v391h489q234 0 406 -152q170 -150 170 -360q0 -212 -170 -362q-169 -150 -406 -150h-489v391h-84v242h84zM483 391v-67h66q74 0 122 52t48 136t-48 136t-122 52h-66v-67h95v-242h-95z" />
    <glyph glyph-name="Etilde.sc" horiz-adv-x="1036" 
d="M295 1483q55 12 94 6q34 -5 119 -35q135 -48 176 -45q52 3 70 68l153 -19q20 -127 -18 -211.5t-125 -107.5q-55 -12 -94 -6q-45 7 -117 32l-39 15q-91 31 -98 32q-22 4 -47 -2q-47 -12 -62 -65l-153 16q-23 126 16 212t125 110zM995 1024v-311h-512v-60h478v-270h-478
v-74h518v-309h-929v1024h923z" />
    <glyph glyph-name="F.sc" horiz-adv-x="999" 
d="M965 1024v-315h-482v-93h439v-290h-439v-326h-411v1024h893z" />
    <glyph glyph-name="G.sc" horiz-adv-x="1175" 
d="M643 1044q121 0 242.5 -46t201.5 -126l-249 -227q-94 66 -189 66q-84 0 -134 -51.5t-50 -147.5q0 -85 44 -137.5t114 -52.5q57 0 106 18v43h-135v215h520v-451q-94 -75 -225 -121t-266 -46q-236 0 -410 157q-172 159 -172 375q-1 119 51.5 222.5t137.5 171.5t193.5 105
t219.5 33z" />
    <glyph glyph-name="Gbreve.sc" horiz-adv-x="1175" 
d="M748 1503h272q0 -155 -119 -256q-118 -100 -291 -100q-175 0 -293 100t-118 256h272q0 -50 39 -79t100 -29q59 0 98.5 28.5t39.5 79.5zM641 1044q121 0 242.5 -46t201.5 -126l-249 -227q-94 66 -189 66q-84 0 -134 -51.5t-50 -147.5q0 -85 44 -137.5t114 -52.5
q57 0 106 18v43h-135v215h520v-451q-94 -75 -225 -121t-266 -46q-236 0 -410 157q-172 159 -172 375q-1 119 51.5 222.5t137.5 171.5t193.5 105t219.5 33z" />
    <glyph glyph-name="Gcaron.sc" horiz-adv-x="1175" 
d="M1073 1491l-254 -365h-432l-254 365h344l125 -152l127 152h344zM643 1044q121 0 242.5 -46t201.5 -126l-249 -227q-94 66 -189 66q-84 0 -134 -51.5t-50 -147.5q0 -85 44 -137.5t114 -52.5q57 0 106 18v43h-135v215h520v-451q-94 -75 -225 -121t-266 -46q-236 0 -410 157
q-172 159 -172 375q-1 119 51.5 222.5t137.5 171.5t193.5 105t219.5 33z" />
    <glyph glyph-name="Gcommaaccent.sc" horiz-adv-x="1175" 
d="M643 1044q121 0 242.5 -46t201.5 -126l-249 -227q-94 66 -189 66q-84 0 -134 -51.5t-50 -147.5q0 -85 44 -137.5t114 -52.5q57 0 106 18v43h-135v215h520v-451q-94 -75 -225 -121t-266 -46q-236 0 -410 157q-172 159 -172 375q-1 119 51.5 222.5t137.5 171.5t193.5 105
t219.5 33zM797 -260q0 -41 -25 -80l-250 -365l-102 48l104 251q-47 22 -75.5 61t-28.5 85q0 67 55 114.5t133 47.5t133.5 -47.5t55.5 -114.5z" />
    <glyph glyph-name="Gdotaccent.sc" horiz-adv-x="1175" 
d="M483 1446q49 50 121 50t121 -50q49 -47 49 -119.5t-49 -122.5q-49 -47 -121 -47t-121 47q-49 50 -49 122.5t49 119.5zM643 1044q121 0 242.5 -46t201.5 -126l-249 -227q-94 66 -189 66q-84 0 -134 -51.5t-50 -147.5q0 -85 44 -137.5t114 -52.5q57 0 106 18v43h-135v215
h520v-451q-94 -75 -225 -121t-266 -46q-236 0 -410 157q-172 159 -172 375q-1 119 51.5 222.5t137.5 171.5t193.5 105t219.5 33z" />
    <glyph glyph-name="H.sc" horiz-adv-x="1228" 
d="M1157 1024v-1024h-416v344h-254v-344h-415v1024h415v-338h254v338h416z" />
    <glyph glyph-name="Hbar.sc" horiz-adv-x="1228" 
d="M1229 950v-198h-72v-752h-416v344h-254v-344h-415v752h-72v198h72v74h415v-74h254v74h416v-74h72zM741 686v66h-254v-66h254z" />
    <glyph glyph-name="Hdotbelow.sc" horiz-adv-x="1228" 
d="M1157 1024v-1024h-416v344h-254v-344h-415v1024h415v-338h254v338h416zM496 -221q50 47 121 47t120 -47q49 -49 49 -122t-49 -120q-49 -49 -120 -49t-121 49q-50 47 -50 120t50 122z" />
    <glyph glyph-name="I.sc" horiz-adv-x="559" 
d="M487 1024v-1024h-415v1024h415z" />
    <glyph glyph-name="IJ.sc" horiz-adv-x="1544" 
d="M487 1024v-1024h-415v1024h415zM1055 1024h418v-578q0 -250 -116 -358t-353 -108q-335 0 -424 213l331 180q20 -45 70 -45q30 0 52 23.5t22 60.5v612z" />
    <glyph glyph-name="Iacute.sc" horiz-adv-x="559" 
d="M770 1491l-326 -365h-354l252 365h428zM485 1024v-1024h-415v1024h415z" />
    <glyph glyph-name="Icircumflex.sc" horiz-adv-x="559" 
d="M498 1491l252 -365h-342l-127 152l-127 -152h-342l251 365h435zM487 1024v-1024h-415v1024h415z" />
    <glyph glyph-name="Idieresis.sc" horiz-adv-x="559" 
d="M70 1157q-72 0 -120 48.5t-48 121.5t49 119q47 50 119.5 50t119.5 -50q50 -47 50 -121q0 -72 -48.5 -120t-121.5 -48zM369 1446q49 50 121.5 50t119.5 -50q50 -47 50 -119.5t-50 -122.5q-47 -47 -119.5 -47t-121.5 47q-47 50 -47 122.5t47 119.5zM487 1024v-1024h-415
v1024h415z" />
    <glyph glyph-name="Idieresisacute.sc" horiz-adv-x="559" 
d="M772 1901l-326 -365h-354l252 365h428zM70 1116q-72 0 -120 48t-48 120q0 75 49 121q47 49 119.5 49t119.5 -49q50 -47 50 -121q0 -72 -48.5 -120t-121.5 -48zM369 1405q49 49 121.5 49t119.5 -49q50 -47 50 -120t-50 -122q-47 -47 -119.5 -47t-121.5 47q-47 49 -47 122
t47 120zM487 1024v-1024h-415v1024h415z" />
    <glyph glyph-name="Idotaccent.sc" horiz-adv-x="559" 
d="M160 1446q50 50 121 50t120 -50q49 -47 49 -119.5t-49 -122.5q-50 -47 -120.5 -47t-120.5 47q-50 50 -50 122.5t50 119.5zM487 1024v-1024h-415v1024h415z" />
    <glyph glyph-name="Igrave.sc" horiz-adv-x="559" 
d="M489 1024v-1024h-415v1024h415zM211 1491l252 -365h-357l-323 365h428z" />
    <glyph glyph-name="Imacron.sc" horiz-adv-x="559" 
d="M651 1454v-256h-739v256h739zM489 1024v-1024h-415v1024h415z" />
    <glyph glyph-name="Iogonek.sc" horiz-adv-x="559" 
d="M487 1024v-1024l-8 -14q-66 -93 -45 -148q17 -44 80 -53q28 -6 72 4l47 -186q-85 -33 -201 -33q-182 0 -237 98q-64 117 55 309l12 23h-190v1024h415z" />
    <glyph glyph-name="Itilde.sc" horiz-adv-x="559" 
d="M72 1483q55 12 94 6q34 -5 119 -35q135 -48 176 -45q51 3 69 68l154 -19q20 -127 -18 -211.5t-125 -107.5q-55 -12 -95 -6q-44 6 -116 32l-39 15q-91 31 -98 32q-22 4 -48 -2q-46 -12 -61 -65l-154 16q-23 126 16.5 212t125.5 110zM510 1024v-1024h-416v1024h416z" />
    <glyph glyph-name="J.sc" horiz-adv-x="983" 
d="M496 1024h415v-578q0 -251 -115 -358.5t-352 -107.5q-338 0 -424 213l330 180q20 -45 70 -45q32 0 54 23.5t22 60.5v612z" />
    <glyph glyph-name="K.sc" horiz-adv-x="1208" 
d="M1182 1024l-359 -434l365 -590h-510l-127 258l-64 -74v-184h-415v1024h415v-248l164 248h531z" />
    <glyph glyph-name="Kcommaaccent.sc" horiz-adv-x="1208" 
d="M1182 1024l-359 -434l365 -590h-510l-127 258l-64 -74v-184h-415v1024h415v-248l164 248h531zM793 -260q0 -41 -25 -80l-250 -365l-102 48l104 251q-47 22 -75.5 61t-28.5 85q0 67 55 114.5t133 47.5t133.5 -47.5t55.5 -114.5z" />
    <glyph glyph-name="L.sc" horiz-adv-x="989" 
d="M487 1024v-707h482v-317h-897v1024h415z" />
    <glyph glyph-name="Lacute.sc" horiz-adv-x="989" 
d="M985 1491l-326 -365h-354l252 365h428zM485 1024v-707h482v-317h-897v1024h415z" />
    <glyph glyph-name="Lcaron.sc" horiz-adv-x="989" 
d="M854 1044q79 0 134.5 -46.5t55.5 -112.5q0 -45 -24 -82l-252 -363l-100 45l102 254q-47 20 -75.5 60t-28.5 84q0 69 55 115t133 46zM487 1024v-707h482v-317h-897v1024h415z" />
    <glyph glyph-name="Lcircumflexbelow.sc" horiz-adv-x="989" 
d="M485 1024v-707h482v-317h-897v1024h415zM731 -147l252 -365h-342l-127 152l-127 -152h-342l252 365h434z" />
    <glyph glyph-name="Lcommaaccent.sc" horiz-adv-x="989" 
d="M487 1024v-707h482v-317h-897v1024h415zM705 -260q0 -41 -25 -80l-250 -365l-102 48l104 251q-48 20 -76 59.5t-28 86.5q0 67 55 114.5t133 47.5t133.5 -47.5t55.5 -114.5z" />
    <glyph glyph-name="Ldot.sc" horiz-adv-x="989" 
d="M487 1024v-707h482v-317h-897v1024h415zM772 801q88 0 152.5 -55t64.5 -132q3 -47 -22.5 -87t-68.5 -63.5t-92.5 -33t-101 3.5t-88.5 47q-63 54 -63 133q0 78 64 132.5t155 54.5z" />
    <glyph glyph-name="Lslash.sc" horiz-adv-x="989" 
d="M487 317h482v-317h-897v350l-90 -37v340l90 37v334h415v-160l134 56v-338l-134 -56v-209z" />
    <glyph glyph-name="M.sc" horiz-adv-x="1501" 
d="M1430 1024v-1024h-412v430l-187 -315h-172l-186 315v-430h-412v1024h517l167 -276l168 276h517z" />
    <glyph glyph-name="Macute.sc" horiz-adv-x="1501" 
d="M1237 1491l-326 -365h-354l252 365h428zM1430 1024v-1024h-412v430l-187 -315h-172l-186 315v-430h-412v1024h517l167 -276l168 276h517z" />
    <glyph glyph-name="N.sc" horiz-adv-x="1208" 
d="M1147 1024v-1024h-428l-246 354v-354h-412v1024h428l248 -354v354h410z" />
    <glyph glyph-name="Nacute.sc" horiz-adv-x="1208" 
d="M1096 1491l-326 -365h-354l252 365h428zM1147 1024v-1024h-428l-246 354v-354h-412v1024h428l248 -354v354h410z" />
    <glyph glyph-name="Ncaron.sc" horiz-adv-x="1208" 
d="M1073 1491l-254 -365h-432l-254 365h344l125 -152l127 152h344zM1147 1024v-1024h-428l-246 354v-354h-412v1024h428l248 -354v354h410z" />
    <glyph glyph-name="Ncircumflexbelow.sc" horiz-adv-x="1208" 
d="M1147 1024v-1024h-428l-246 354v-354h-412v1024h428l248 -354v354h410zM821 -147l252 -365h-342l-127 152l-127 -152h-342l252 365h434z" />
    <glyph glyph-name="Ncommaaccent.sc" horiz-adv-x="1208" 
d="M1147 1024v-1024h-428l-246 354v-354h-412v1024h428l248 -354v354h410zM793 -260q0 -41 -25 -80l-250 -365l-102 48l104 251q-48 20 -76 59.5t-28 86.5q0 67 55 114.5t133 47.5t133.5 -47.5t55.5 -114.5z" />
    <glyph glyph-name="Ndotaccent.sc" horiz-adv-x="1208" 
d="M483 1446q49 50 121 50t121 -50q49 -47 49 -119.5t-49 -122.5q-49 -47 -121 -47t-121 47q-49 50 -49 122.5t49 119.5zM1147 1024v-1024h-428l-246 354v-354h-412v1024h428l248 -354v354h410z" />
    <glyph glyph-name="Ndotbelow.sc" horiz-adv-x="1208" 
d="M1147 1024v-1024h-428l-246 354v-354h-412v1024h428l248 -354v354h410zM483 -221q49 47 121 47t121 -47q49 -49 49 -122t-49 -120q-49 -49 -121 -49t-121 49q-49 47 -49 120t49 122z" />
    <glyph glyph-name="Ntilde.sc" horiz-adv-x="1208" 
d="M373 1483q55 12 94 6q34 -5 119 -35q135 -48 176 -45q51 3 69 68l154 -19q20 -127 -18 -211.5t-125 -107.5q-55 -12 -94 -6q-45 7 -117 32l-39 15q-91 31 -98 32q-22 4 -48 -2q-46 -12 -61 -65l-154 16q-23 126 16.5 212t125.5 110zM1147 1024v-1024h-428l-246 354v-354
h-412v1024h428l248 -354v354h410z" />
    <glyph glyph-name="O.sc" horiz-adv-x="1232" 
d="M618 1044q236 0 406 -159q170 -156 170 -373q0 -216 -170 -375q-171 -157 -406 -157q-234 0 -405 157q-170 159 -170 375q-3 217 166 373q169 159 409 159zM618 322q70 0 111 53t41 137t-41 137t-111 53q-69 0 -110 -53t-41 -137q0 -86 41 -138t110 -52z" />
    <glyph glyph-name="OE.sc" horiz-adv-x="1771" 
d="M618 1044q99 0 193 -30v10h922v-311h-512v-60h477v-270h-477v-74h518v-309h-928v10q-94 -30 -193 -30q-234 0 -405 157q-170 159 -170 375q-3 217 166 373q169 159 409 159zM467 512q0 -86 40.5 -138t110.5 -52q72 0 111 51q41 53 41 139q0 84 -41 137t-111 53
q-69 0 -110 -52t-41 -138z" />
    <glyph glyph-name="Oacute.sc" horiz-adv-x="1232" 
d="M1110 1491l-326 -365h-354l252 365h428zM618 1044q236 0 406 -159q170 -156 170 -373q0 -216 -170 -375q-171 -157 -406 -157q-234 0 -405 157q-170 159 -170 375q-3 217 166 373q169 159 409 159zM618 322q70 0 111 53t41 137t-41 137t-111 53q-69 0 -110 -53t-41 -137
q0 -86 41 -138t110 -52z" />
    <glyph glyph-name="Ocaron.sc" horiz-adv-x="1232" 
d="M1087 1491l-253 -365h-433l-254 365h345l124 -152l127 152h344zM618 1044q236 0 406 -159q170 -156 170 -373q0 -216 -170 -375q-171 -157 -406 -157q-234 0 -405 157q-170 159 -170 375q-3 217 166 373q169 159 409 159zM618 322q70 0 111 53t41 137t-41 137t-111 53
q-69 0 -110 -53t-41 -137q0 -86 41 -138t110 -52z" />
    <glyph glyph-name="Ocircumflex.sc" horiz-adv-x="1232" 
d="M836 1491l251 -365h-342l-127 152l-126 -152h-342l251 365h435zM618 1044q236 0 406 -159q170 -156 170 -373q0 -216 -170 -375q-171 -157 -406 -157q-234 0 -405 157q-170 159 -170 375q-3 217 166 373q169 159 409 159zM618 322q70 0 111 53t41 137t-41 137t-111 53
q-69 0 -110 -53t-41 -137q0 -86 41 -138t110 -52z" />
    <glyph glyph-name="Ocircumflexdotbelow.sc" horiz-adv-x="1232" 
d="M836 1491l251 -365h-342l-127 152l-126 -152h-342l251 365h435zM618 1044q236 0 406 -159q170 -156 170 -373q0 -216 -170 -375q-171 -157 -406 -157q-234 0 -405 157q-170 159 -170 375q-3 217 166 373q169 159 409 159zM618 322q70 0 111 53t41 137t-41 137t-111 53
q-69 0 -110 -53t-41 -137q0 -86 41 -138t110 -52zM498 -221q50 47 121 47t118 -47q49 -49 49 -122t-49 -120q-47 -49 -118 -49t-121 49q-50 47 -50 120t50 122z" />
    <glyph glyph-name="Odieresis.sc" horiz-adv-x="1232" 
d="M287 1446q49 50 121.5 50t119.5 -50q50 -47 50 -119.5t-50 -122.5q-47 -47 -119 -47t-122 47q-47 50 -47 122.5t47 119.5zM707 1446q49 50 121.5 50t119.5 -50q50 -47 50 -119.5t-50 -122.5q-47 -47 -119 -47t-122 47q-47 50 -47 122.5t47 119.5zM618 1044
q236 0 406 -159q170 -156 170 -373q0 -216 -170 -375q-171 -157 -406 -157q-234 0 -405 157q-170 159 -170 375q-3 217 166 373q169 159 409 159zM467 512q0 -85 41 -137.5t110 -52.5q70 0 111 53t41 137q0 86 -41.5 138t-110.5 52t-110 -52t-41 -138z" />
    <glyph glyph-name="Odotbelow.sc" horiz-adv-x="1232" 
d="M618 1044q236 0 406 -159q170 -156 170 -373q0 -216 -170 -375q-171 -157 -406 -157q-234 0 -405 157q-170 159 -170 375q-3 217 166 373q169 159 409 159zM618 322q70 0 111 53t41 137t-41 137t-111 53q-69 0 -110 -53t-41 -137q0 -86 41 -138t110 -52zM498 -221
q50 47 121 47t118 -47q49 -49 49 -122t-49 -120q-47 -49 -118 -49t-121 49q-50 47 -50 120t50 122z" />
    </font>
</defs>
</svg>
