<?xml version="1.0" standalone="no"?>
<!DOCTYPE svg PUBLIC "-//W3C//DTD SVG 1.1//EN" "http://www.w3.org/Graphics/SVG/1.1/DTD/svg11.dtd" >
<svg xmlns="http://www.w3.org/2000/svg" xmlns:xlink="http://www.w3.org/1999/xlink" version="1.1">
<metadata>
Created by FontForge 20170731 at Fri Nov 12 15:52:56 2021
 By Aleksey,,,
Copyright (c) 2014 by Jonathan Hill. All rights reserved.
</metadata>
<defs>
<font id="Loew-Heavy" horiz-adv-x="1214" >
  <font-face 
    font-family="Loew Heavy"
    font-weight="900"
    font-stretch="normal"
    units-per-em="2048"
    panose-1="0 0 10 0 0 0 0 0 0 0"
    ascent="1583"
    descent="-465"
    x-height="1024"
    cap-height="1434"
    bbox="-186 -664 2685 2472"
    underline-thickness="102"
    underline-position="-307"
    unicode-range="U+0020-FB02"
  />
<missing-glyph horiz-adv-x="1024" 
d="M1024 0h-1024v1434h1024v-1434zM164 1331l348 -522l348 522h-696zM922 1239l-349 -522l349 -522v1044zM512 625l-348 -523h696zM451 717l-349 522v-1044z" />
    <glyph glyph-name="fi" unicode="fi" horiz-adv-x="1449" 
d="M551 1454q132 0 287 -47l-45 -221q-71 26 -131 26q-58 0 -92.5 -31t-34.5 -91v-66h796v-1024h-360v752h-436v-752h-361v752h-131v272h131v76q0 96 30.5 167t84 110.5t119 58t143.5 18.5z" />
    <glyph glyph-name="fl" unicode="fl" horiz-adv-x="1421" 
d="M551 1454q92 0 182 -20h590v-1434h-360v1186h-170q-71 26 -131 26q-58 0 -92.5 -31t-34.5 -91v-66h256v-272h-256v-752h-361v752h-131v272h131v76q0 96 30.5 167t84 110.5t119 58t143.5 18.5z" />
    <glyph glyph-name="f_f" unicode="ff" horiz-adv-x="1662" 
d="M551 1454q132 0 287 -47l-45 -221q-71 26 -131 26q-58 0 -92.5 -31t-34.5 -91v-66h471v76q0 78 20 139t54.5 101t83.5 66t102.5 37t115.5 11q132 0 287 -47l-45 -221q-71 26 -131 26q-58 0 -92.5 -31t-34.5 -91v-66h256v-272h-256v-752h-360v752h-471v-752h-361v752h-131
v272h131v76q0 96 30.5 167t84 110.5t119 58t143.5 18.5z" />
    <glyph glyph-name="f_f_i" unicode="ffi" horiz-adv-x="2281" 
d="M551 1454q132 0 287 -47l-45 -221q-71 26 -131 26q-58 0 -92.5 -31t-34.5 -91v-66h471v76q0 78 20 139t54.5 101t83.5 66t102.5 37t115.5 11q132 0 287 -47l-45 -221q-71 26 -131 26q-58 0 -92.5 -31t-34.5 -91v-66h797v-1024h-361v752h-436v-752h-360v752h-471v-752
h-361v752h-131v272h131v76q0 96 30.5 167t84 110.5t119 58t143.5 18.5z" />
    <glyph glyph-name="f_f_l" unicode="ffl" horiz-adv-x="2252" 
d="M551 1454q132 0 287 -47l-45 -221q-71 26 -131 26q-58 0 -92.5 -31t-34.5 -91v-66h471v76q0 78 20 139t54.5 101t83.5 66t102.5 37t115.5 11q93 0 183 -20h589v-1434h-360v1186h-170q-71 26 -131 26q-58 0 -92.5 -31t-34.5 -91v-66h256v-272h-256v-752h-360v752h-471
v-752h-361v752h-131v272h131v76q0 96 30.5 167t84 110.5t119 58t143.5 18.5z" />
    <glyph glyph-name=".notdef" horiz-adv-x="1024" 
d="M1024 0h-1024v1434h1024v-1434zM164 1331l348 -522l348 522h-696zM922 1239l-349 -522l349 -522v1044zM512 625l-348 -523h696zM451 717l-349 522v-1044z" />
    <glyph glyph-name=".null" horiz-adv-x="0" 
 />
    <glyph glyph-name="nonmarkingreturn" horiz-adv-x="682" 
 />
    <glyph glyph-name="space" unicode=" " horiz-adv-x="512" 
 />
    <glyph glyph-name="exclam" unicode="!" horiz-adv-x="542" 
d="M471 1434l-37 -1010h-330l-36 1010h403zM270 305q47 2 88 -17t65.5 -51.5t34.5 -70t-4 -76t-51 -65.5q-38 -37 -96.5 -44.5t-110 10.5t-87 59t-31.5 91q0 69 56 116.5t136 47.5z" />
    <glyph glyph-name="quotedbl" unicode="&#x22;" horiz-adv-x="833" 
d="M346 1454l-22 -536h-236l-22 536h280zM766 1454l-25 -536h-233l-25 536h283z" />
    <glyph glyph-name="numbersign" unicode="#" horiz-adv-x="1540" 
d="M1319 1434l-51 -293h223l-49 -273h-223l-50 -282h224l-50 -275h-223l-55 -311h-279l56 311h-287l-55 -311h-281l55 311h-225l49 275h226l49 282h-226l50 273h223l53 293h279l-52 -293h287l51 293h281zM940 868h-289l-49 -282h287z" />
    <glyph glyph-name="dollar" unicode="$" horiz-adv-x="1452" 
d="M565 1675h320v-231q253 -26 456 -150l-161 -299q-116 62 -250 97.5t-242 35.5q-57 0 -93 -23t-36 -71q0 -36 41 -57q45 -22 203 -62q94 -24 135 -38q156 -49 227 -91q205 -107 205 -335q0 -194 -122 -313.5t-341 -149.5l-22 -2v-228h-320v238q-273 40 -485 182l172 289
q276 -158 569 -158q62 0 102 24.5t40 67.5q0 61 -43 82q-46 22 -228 68q-32 9 -76 20.5t-76.5 20.5t-66.5 20q-77 25 -174 80q-158 96 -158 293q0 188 112 303.5t312 151.5v235z" />
    <glyph glyph-name="percent" unicode="%" horiz-adv-x="1892" 
d="M1657 1468l-1102 -1503h-319l1101 1503h320zM147 1341q102 111 275 111t272 -111q101 -107 101 -294q0 -185 -101 -295q-100 -109 -272 -109t-275 109q-98 110 -98 295q0 187 98 294zM422 1235q-56 0 -89.5 -50.5t-33.5 -135.5q0 -86 34 -136.5t89 -50.5q56 0 89.5 50.5
t33.5 134.5q0 87 -33.5 137.5t-89.5 50.5zM1198 682q102 111 275 111t272 -111q100 -109 100 -297q0 -186 -100 -295q-99 -108 -272 -108t-275 108q-98 110 -98 295q0 187 98 297zM1561 522q-32 51 -88 51t-91 -51q-32 -46 -32 -135q0 -88 32 -137q35 -50 91 -50t88 50
q34 52 34 137q0 86 -34 135z" />
    <glyph glyph-name="ampersand" unicode="&#x26;" horiz-adv-x="1583" 
d="M797 1454q162 0 280.5 -95.5t118.5 -246.5q0 -128 -56.5 -213t-166.5 -145l-45 -23l178 -190q70 90 119 204l250 -120q-61 -164 -158 -297l153 -158l-270 -199l-100 111q-171 -125 -402 -137q-236 -9 -401 102q-167 114 -176 309q-9 243 313 418l31 17l-19 20
q-57 69 -79.5 122.5t-22.5 125.5q0 74 26.5 139t71.5 112t103 80.5t122.5 49.5t129.5 14zM786 1204q-56 0 -97.5 -34t-41.5 -95q0 -30 11 -51.5t47 -60.5l30 -35l84 41q45 22 66.5 50t21.5 77q0 47 -35.5 77.5t-85.5 30.5zM881 319l-222 250l-36 -18q-137 -64 -134 -160
q4 -71 63 -111.5t148 -35.5q106 3 181 75z" />
    <glyph glyph-name="quotesingle" unicode="'" horiz-adv-x="415" 
d="M346 1454l-22 -536h-236l-22 536h280z" />
    <glyph glyph-name="parenleft" unicode="(" horiz-adv-x="659" 
d="M303 1540l305 -147q-61 -140 -110 -355q-43 -203 -43 -399q0 -206 45 -408q47 -209 114 -356l-309 -149q-96 166 -170 426q-69 247 -69 487q0 235 67 479q71 253 170 422z" />
    <glyph glyph-name="parenright" unicode=")" horiz-adv-x="659" 
d="M49 1393l305 147q101 -168 169.5 -419t68.5 -482q0 -237 -70 -487q-74 -260 -170 -426l-309 149q65 142 113 356q47 211 47 408q0 200 -45 399q-50 220 -109 355z" />
    <glyph glyph-name="asterisk" unicode="*" horiz-adv-x="772" 
d="M489 1454l-6 -164l154 58l65 -203l-155 -43l100 -129l-172 -125l-90 135l-92 -135l-172 125l102 129l-157 43l65 203l154 -58l-6 164h210z" />
    <glyph glyph-name="plus" unicode="+" horiz-adv-x="1142" 
d="M1073 721v-277h-366v-366h-275v366h-366v277h366v366h275v-366h366z" />
    <glyph glyph-name="comma" unicode="," horiz-adv-x="503" 
d="M436 141q0 -41 -24 -82l-267 -387l-102 45l117 277q-48 21 -77.5 60.5t-29.5 86.5q0 67 56.5 115.5t134.5 48.5q79 0 135.5 -48t56.5 -116z" />
    <glyph glyph-name="hyphen" unicode="-" horiz-adv-x="845" 
d="M776 682v-301h-710v301h710z" />
    <glyph glyph-name="period" unicode="." horiz-adv-x="516" 
d="M121 256q57 50 136 50t134 -50q57 -47 57 -114t-57 -117q-55 -47 -134 -47t-136 47q-55 50 -55 117t55 114z" />
    <glyph glyph-name="slash" unicode="/" horiz-adv-x="1126" 
d="M1079 1468l-714 -1503h-320l715 1503h319z" />
    <glyph glyph-name="zero" unicode="0" horiz-adv-x="1476" 
d="M739 1413q302 0 478 -194t176 -523q0 -328 -176 -522t-480 -194q-303 0 -479 194q-174 192 -174 522q0 328 175.5 522.5t479.5 194.5zM928 967q-69 100 -191 100q-119 0 -188 -100q-70 -101 -70 -271q0 -169 70 -270q69 -100 188 -100q122 0 191 100t69 270
q0 171 -69 271z" />
    <glyph glyph-name="one" unicode="1" horiz-adv-x="854" 
d="M731 1393v-1393h-387v1053l-246 -54l-67 289l395 105h305z" />
    <glyph glyph-name="two" unicode="2" horiz-adv-x="1245" 
d="M639 1413q142 3 261.5 -49t195 -160t75.5 -252q0 -130 -81 -239q-79 -107 -281 -262l-154 -136h535v-315h-1137v291l615 469q106 84 106 166q0 71 -44.5 109t-115.5 38q-80 0 -164.5 -44.5t-156.5 -123.5l-242 207q95 144 251.5 222.5t336.5 78.5z" />
    <glyph glyph-name="three" unicode="3" horiz-adv-x="1284" 
d="M1157 1393v-277l-338 -289q70 -10 123 -26q120 -43 188 -132t68 -210q0 -221 -156 -350t-407 -129q-300 0 -584 208l236 246q68 -60 156 -92.5t167 -32.5q92 2 145.5 46t53.5 122q0 67 -55.5 100t-145.5 33q-95 -3 -213 -32l-61 204l348 297h-535v314h1010z" />
    <glyph glyph-name="four" unicode="4" horiz-adv-x="1376" 
d="M1145 1393v-838h184v-287h-184v-268h-387v268h-666l-51 301l659 824h445zM758 950l-309 -395h309v395z" />
    <glyph glyph-name="five" unicode="5" horiz-adv-x="1263" 
d="M1139 1393v-314h-627l-6 -211q90 37 199 37q105 0 194 -26.5t158 -79t108 -140t39 -202.5q0 -149 -76 -260t-200 -165.5t-273 -51.5q-173 0 -333 66t-271 187l197 224q81 -73 179 -113.5t187 -40.5q94 2 149.5 49.5t55.5 132.5q0 74 -53.5 121t-134.5 47q-156 0 -252 -96
l-244 121l35 715h969z" />
    <glyph glyph-name="six" unicode="6" horiz-adv-x="1296" 
d="M719 1413q255 0 467 -141l-160 -244q-119 78 -260 78q-121 0 -192 -71t-85 -201l-2 -39q121 100 310 100q213 0 329 -119q119 -119 119 -295q0 -75 -23 -147.5t-69.5 -136t-111 -112.5t-154 -77t-191.5 -28q-142 0 -255.5 43t-182.5 114q-63 66 -104 162q-70 164 -70 367
q0 356 164.5 553.5t470.5 193.5zM483 494q24 -228 209 -228q84 0 137 53q56 53 56 140q0 88 -56 141q-52 55 -137 55t-142 -44t-67 -117z" />
    <glyph glyph-name="seven" unicode="7" horiz-adv-x="1185" 
d="M1151 1393v-303l-614 -1090h-439l613 1061h-662v332h1102z" />
    <glyph glyph-name="eight" unicode="8" horiz-adv-x="1347" 
d="M1219 1040q0 -208 -209 -307q123 -50 189.5 -139t66.5 -209q0 -174 -166 -291q-164 -114 -426 -114q-259 0 -426 114q-164 117 -164 291q0 120 67 209t191 139q-211 99 -211 307q0 158 154 267q153 106 389 106q239 0 389 -106q156 -108 156 -267zM487 981
q0 -75 51.5 -117.5t137.5 -42.5q85 0 135.5 43t50.5 117q0 68 -53.5 114t-134.5 46q-79 0 -133 -46t-54 -114zM676 600q-90 0 -148.5 -45t-58.5 -127q0 -73 57.5 -121.5t147.5 -48.5q91 0 149 48.5t58 121.5q0 79 -55.5 125.5t-149.5 46.5z" />
    <glyph glyph-name="nine" unicode="9" horiz-adv-x="1296" 
d="M600 1413q143 0 256.5 -43t179.5 -115q67 -70 107 -163q69 -157 69 -363q0 -354 -163 -553t-471 -196q-256 0 -467 141l159 244q119 -78 260 -78q115 0 184.5 66t88.5 190l6 55q-121 -100 -309 -100q-214 0 -332 118q-117 120 -117 295q0 94 37 183t104.5 160.5t174 115
t233.5 43.5zM604 1126q-85 0 -138.5 -53.5t-53.5 -140.5q0 -86 55 -140.5t137 -54.5q84 0 141 45t68 119q-24 225 -209 225z" />
    <glyph glyph-name="colon" unicode=":" horiz-adv-x="497" 
d="M242 1051q78 0 134 -47.5t56 -116.5q3 -51 -32.5 -92t-86.5 -59t-110 -10.5t-99 44.5q-44 34 -52.5 84.5t13 94.5t69.5 74.5t108 27.5zM104 256q57 50 136.5 50t134.5 -50q57 -47 57 -114t-57 -117q-56 -47 -135 -47t-136 47q-56 50 -56 117t56 114z" />
    <glyph glyph-name="semicolon" unicode=";" horiz-adv-x="503" 
d="M436 141q0 -41 -24 -82l-267 -387l-102 45l117 277q-48 21 -77.5 60.5t-29.5 86.5q0 67 56.5 115.5t134.5 48.5q79 0 135.5 -48t56.5 -116zM109 1001q57 49 136 49t134 -49q57 -47 57 -114t-57 -117q-55 -47 -134 -47t-136 47q-55 50 -55 117t55 114z" />
    <glyph glyph-name="less" unicode="&#x3c;" horiz-adv-x="1167" 
d="M1098 1280v-354l-674 -234l674 -231v-355l-1032 396v381z" />
    <glyph glyph-name="equal" unicode="=" horiz-adv-x="1177" 
d="M1108 950v-276h-1042v276h1042zM1108 500v-275h-1042v275h1042z" />
    <glyph glyph-name="greater" unicode="&#x3e;" horiz-adv-x="1167" 
d="M66 1280l1032 -397v-381l-1032 -396v355l673 231l-673 234v354z" />
    <glyph glyph-name="question" unicode="?" horiz-adv-x="1187" 
d="M606 1454q233 0 371 -117q141 -114 141 -317q0 -108 -54 -192t-175 -181l-31 -26l-18.5 -18.5t-14.5 -14t-16 -13.5q-41 -41 -41 -114v-39l-330 2l-4 94q-4 75 41 176q13 23 76 86q9 11 51 47q20 17 53 50q38 33 54 58t16 60q0 60 -42 94.5t-114 34.5q-70 0 -116 -36.5
t-52 -98.5l-350 35q27 200 178 315t377 115zM467 256q57 50 135.5 50t134.5 -50q57 -47 57 -114.5t-57 -116.5q-55 -47 -134 -47t-136 47q-55 49 -55 116.5t55 114.5z" />
    <glyph glyph-name="at" unicode="@" horiz-adv-x="2066" 
d="M1985 502q0 -119 -39.5 -212.5t-108.5 -151.5t-156 -88t-188 -32q-187 -3 -346 84v95q-103 -109 -246 -109q-154 0 -246 115t-92 286q0 174 92 289q91 117 246 117q144 0 246 -111v97h272v-594q33 -11 60 -11q86 0 143 63.5t57 158.5q2 141 -43.5 265t-129 214.5
t-206.5 142.5t-268 51q-296 0 -471 -190q-174 -186 -174 -483q0 -295 176 -486q176 -188 469 -188q93 0 197 22l69 -272q-139 -29 -266 -29q-291 0 -508 123t-329.5 338.5t-112.5 495.5q-3 204 62 380t186.5 303t302.5 198.5t399 70.5q218 1 399 -70.5t303 -198.5t188 -303
t63 -380zM1001 666q-69 0 -119.5 -51.5t-50.5 -122.5t50.5 -123t119.5 -52q96 0 146 84v179q-50 86 -146 86z" />
    <glyph glyph-name="A" unicode="A" horiz-adv-x="1740" 
d="M1120 1434l572 -1434h-461l-92 252h-537l-92 -252h-461l567 1434h504zM868 1004l-163 -445h331z" />
    <glyph glyph-name="B" unicode="B" horiz-adv-x="1519" 
d="M145 0v1434h775q224 0 345.5 -94t120.5 -271q0 -232 -208 -317q135 -41 201.5 -136t66.5 -225q0 -62 -15 -116.5t-51.5 -106t-91.5 -88t-140.5 -58.5t-193.5 -22h-809zM532 1120v-266h273q87 0 133.5 34t46.5 99q0 133 -180 133h-273zM532 598v-285h326q94 0 140 39.5
t46 104.5q0 61 -44.5 101t-141.5 40h-326z" />
    <glyph glyph-name="C" unicode="C" horiz-adv-x="1554" 
d="M860 1454q188 0 351 -84t268 -231l-334 -187q-107 140 -281 140q-153 0 -256 -109q-100 -106 -100 -266t100 -266q103 -109 256 -109q175 0 281 139l334 -186q-105 -147 -268 -231t-351 -84q-153 0 -292.5 58t-240.5 157t-161 235.5t-60 286.5q-3 117 35 230t109 204.5
t165 161t209.5 106.5t235.5 35z" />
    <glyph glyph-name="D" unicode="D" horiz-adv-x="1636" 
d="M145 0v1434h617q153 3 295.5 -53t247 -152.5t165.5 -231.5t58 -282q4 -194 -100.5 -361t-282.5 -262.5t-383 -91.5h-617zM745 1090h-213v-746h213q162 0 275 107q115 109 115 266q0 155 -115 264t-275 109z" />
    <glyph glyph-name="E" unicode="E" horiz-adv-x="1404" 
d="M1321 1434v-347h-789v-196h734v-330h-734v-215h801v-346h-1188v1434h1176z" />
    <glyph glyph-name="F" unicode="F" horiz-adv-x="1347" 
d="M1274 1434v-347h-742v-260h676v-329h-676v-498h-387v1434h1129z" />
    <glyph glyph-name="G" unicode="G" horiz-adv-x="1646" 
d="M899 1454q325 -3 563 -209l-252 -264q-134 119 -311 119q-165 -3 -278 -107t-113 -276q0 -158 102 -266q106 -109 264 -109q146 0 269 72v135h-244v274h612v-626q-275 -217 -637 -217q-153 -4 -296.5 55t-248 159.5t-166 238t-57.5 284.5q0 171 66 313.5t177 234.5
t253 141.5t297 47.5z" />
    <glyph glyph-name="H" unicode="H" horiz-adv-x="1648" 
d="M1501 1434v-1434h-385v549h-584v-549h-387v1434h387v-539h584v539h385z" />
    <glyph glyph-name="I" unicode="I" horiz-adv-x="677" 
d="M532 1434v-1434h-387v1434h387z" />
    <glyph glyph-name="J" unicode="J" horiz-adv-x="1265" 
d="M731 1434h387v-856q0 -137 -26 -240t-73.5 -170.5t-119 -110t-156 -60t-192.5 -17.5q-191 0 -315.5 56.5t-190.5 182.5l309 201q58 -88 176 -88q201 0 201 246v856z" />
    <glyph glyph-name="K" unicode="K" horiz-adv-x="1574" 
d="M1509 1434l-510 -598l525 -836h-494l-285 528l-215 -243v-285h-385v1434h385v-584l463 584h516z" />
    <glyph glyph-name="L" unicode="L" horiz-adv-x="1282" 
d="M532 1434v-1088h701v-346h-1088v1434h387z" />
    <glyph glyph-name="M" unicode="M" horiz-adv-x="2035" 
d="M1890 1434v-1434h-379v920l-432 -730h-131l-432 730v-920h-381v1434h506l373 -615l370 615h506z" />
    <glyph glyph-name="N" unicode="N" horiz-adv-x="1624" 
d="M1489 1434v-1434h-399l-578 799v-799h-379v1434h397l580 -799v799h379z" />
    <glyph glyph-name="O" unicode="O" horiz-adv-x="1751" 
d="M487 1356q177 98 387 98q208 0 384.5 -98t279.5 -269q104 -168 104 -370q0 -200 -102 -370t-280 -269q-174 -98 -386 -98q-210 0 -387 98q-177 100 -278 268q-103 171 -103 371t101.5 370t279.5 269zM1135 983q-103 109 -263 109q-156 0 -262 -109q-102 -108 -102 -266
t102 -266q106 -109 262 -109q160 0 263 109q104 107 104 266t-104 266z" />
    <glyph glyph-name="P" unicode="P" horiz-adv-x="1499" 
d="M145 0v1434h629q326 0 479.5 -125.5t153.5 -390.5q0 -262 -154 -386t-475 -124h-246v-408h-387zM758 1102h-226v-397h228q128 0 187 47t59 149q0 104 -59.5 152.5t-188.5 48.5z" />
    <glyph glyph-name="Q" unicode="Q" horiz-adv-x="1806" 
d="M1642 717q0 -250 -157 -445l211 -213l-207 -190l-219 217q-178 -106 -396 -106q-210 0 -387 98q-177 100 -278 268q-103 171 -103 371q0 199 103 370q102 170 278 269q177 98 387 98q152 3 295 -56t247.5 -159t166.5 -237.5t59 -284.5zM508 717q0 -158 103.5 -266.5
t262.5 -108.5q60 0 113 27l-156 157l207 193l158 -158q43 70 43 156q0 159 -104 266q-103 109 -263 109q-156 0 -262 -109q-102 -108 -102 -266z" />
    <glyph glyph-name="R" unicode="R" horiz-adv-x="1531" 
d="M145 0v1434h646q349 0 502 -117.5t153 -380.5q0 -179 -69 -288.5t-216 -160.5l322 -487h-443l-278 438l-66 -2h-164v-436h-387zM811 1085h-279v-352h279q126 0 179.5 41t53.5 135t-53.5 135t-179.5 41z" />
    <glyph glyph-name="S" unicode="S" horiz-adv-x="1452" 
d="M729 1454q351 0 617 -160l-162 -299q-120 62 -254 97.5t-244 35.5q-62 0 -98.5 -24t-36.5 -70q0 -36 43 -57q48 -23 205 -62q101 -26 139 -38q160 -50 229 -91q107 -58 154 -131q53 -82 53 -204q0 -225 -158.5 -348t-441.5 -123q-406 0 -702 198l172 289
q280 -158 575 -158q65 0 106.5 24.5t41.5 67.5q0 62 -45 82q-45 22 -232 68l-135 35q-136 34 -221 82q-106 60 -150 125q-51 81 -51 194q0 94 30 171.5t83.5 132t128.5 91.5t163.5 54.5t190.5 17.5z" />
    <glyph glyph-name="T" unicode="T" horiz-adv-x="1316" 
d="M1268 1434v-328h-416v-1106h-387v1106h-416v328h1219z" />
    <glyph glyph-name="U" unicode="U" horiz-adv-x="1597" 
d="M1077 1434h385v-775q0 -338 -170.5 -508.5t-488.5 -170.5q-317 0 -487.5 170.5t-170.5 508.5v775h387v-775q0 -164 70.5 -245.5t202.5 -81.5t202 81.5t70 245.5v775z" />
    <glyph glyph-name="V" unicode="V" horiz-adv-x="1693" 
d="M1645 1434l-547 -1434h-506l-543 1434h461l336 -981l338 981h461z" />
    <glyph glyph-name="W" unicode="W" horiz-adv-x="2349" 
d="M2300 1434l-471 -1434h-395l-258 825l-261 -825h-395l-471 1434h432l256 -832l250 832h377l248 -832l256 832h432z" />
    <glyph glyph-name="X" unicode="X" horiz-adv-x="1599" 
d="M1528 1434l-484 -701l506 -733h-473l-280 422l-283 -422h-465l506 729l-483 705h471l260 -392l262 392h463z" />
    <glyph glyph-name="Y" unicode="Y" horiz-adv-x="1624" 
d="M1575 1434l-569 -940v-494h-388v487l-569 947h463l303 -533l303 533h457z" />
    <glyph glyph-name="Z" unicode="Z" horiz-adv-x="1411" 
d="M1311 1434v-271l-686 -823h710v-340h-1263v276l663 818h-616v340h1192z" />
    <glyph glyph-name="bracketleft" unicode="[" horiz-adv-x="702" 
d="M657 1526v-248h-249v-1290h249v-246h-591v1784h591z" />
    <glyph glyph-name="backslash" unicode="\" horiz-adv-x="1126" 
d="M45 1468h320l714 -1503h-319z" />
    <glyph glyph-name="bracketright" unicode="]" horiz-adv-x="702" 
d="M635 1526v-1784h-592v246h250v1290h-250v248h592z" />
    <glyph glyph-name="asciicircum" unicode="^" horiz-adv-x="1144" 
d="M795 1454l280 -752h-344l-162 465l-159 -465h-344l280 752h449z" />
    <glyph glyph-name="underscore" unicode="_" horiz-adv-x="1363" 
d="M1294 -121v-209h-1228v209h1228z" />
    <glyph glyph-name="grave" unicode="`" horiz-adv-x="751" 
d="M438 1487l246 -357h-309l-309 357h372z" />
    <glyph glyph-name="a" unicode="a" horiz-adv-x="1206" 
d="M664 1044q205 0 323.5 -96t118.5 -286v-662h-361v123q-140 -143 -342 -143q-145 0 -239 88q-92 89 -92 231q0 141 98.5 220t271.5 81h303v27q0 139 -180 139q-148 0 -297 -88l-102 229q241 134 498 137zM745 248v215h-161q-75 0 -115.5 -33t-40.5 -94q0 -66 37.5 -104.5
t99.5 -38.5q104 0 180 55z" />
    <glyph glyph-name="b" unicode="b" horiz-adv-x="1316" 
d="M111 1434h360v-535q139 145 326 145q202 0 323 -151t121 -381t-121 -381t-323 -151q-190 0 -326 145v-125h-360v1434zM664 739q-61 0 -111.5 -29t-81.5 -81v-234q31 -52 81.5 -81t111.5 -29q90 0 155 65q68 68 68 162q0 95 -68 160q-64 67 -155 67z" />
    <glyph glyph-name="c" unicode="c" horiz-adv-x="1161" 
d="M635 1044q139 0 260.5 -62t200.5 -169l-275 -154q-68 80 -170 80q-91 0 -155 -67q-66 -66 -66 -160t65 -160.5t156 -66.5q105 0 172 82l275 -152q-75 -109 -198.5 -172t-264.5 -63q-233 0 -395 155q-164 156 -164 377t164 377q162 155 395 155z" />
    <glyph glyph-name="d" unicode="d" horiz-adv-x="1316" 
d="M846 1434h360v-1434h-360v125q-136 -145 -324 -145q-204 0 -325 151t-121 381t121 381t325 151q185 0 324 -145v535zM655 739q-93 0 -157 -67q-66 -66 -66 -160q0 -93 66 -162q65 -65 157 -65q58 0 108.5 30.5t82.5 79.5v234q-31 51 -81.5 80.5t-109.5 29.5z" />
    <glyph glyph-name="e" unicode="e" 
d="M612 1044q248 0 392 -153q145 -151 145 -379v-88h-725q4 -83 69.5 -133.5t161.5 -50.5q134 -3 224 84l188 -168q-185 -176 -444 -176q-144 -3 -271.5 69.5t-203 196.5t-72.5 266q0 220 157 377q155 155 379 155zM621 791q-80 0 -137.5 -58t-57.5 -141h387q0 87 -52.5 143
t-139.5 56z" />
    <glyph glyph-name="f" unicode="f" horiz-adv-x="831" 
d="M551 1454q132 0 287 -47l-45 -221q-71 26 -131 26q-58 0 -92.5 -31t-34.5 -91v-66h256v-272h-256v-752h-361v752h-131v272h131v76q0 96 30.5 167t84 110.5t119 58t143.5 18.5z" />
    <glyph glyph-name="g" unicode="g" horiz-adv-x="1339" 
d="M528 1044q190 0 332 -145v125h361v-971q0 -126 -42 -220t-118 -149.5t-171.5 -82.5t-211.5 -27q-294 3 -574 152l103 233q209 -110 395 -113q121 0 189.5 52.5t68.5 154.5v86q-127 -139 -332 -139q-206 0 -325 143t-119 371t121 379t323 151zM662 739q-92 0 -156 -67
q-66 -66 -66 -160q0 -91 66 -160q65 -65 156 -65q63 0 116 32.5t82 88.5v223q-32 51 -84.5 79.5t-113.5 28.5z" />
    <glyph glyph-name="h" unicode="h" horiz-adv-x="1314" 
d="M121 1434h360v-523q174 133 375 133q159 0 260 -87t101 -250v-707h-361v598q0 73 -39 114.5t-106 41.5q-129 0 -230 -82v-672h-360v1434z" />
    <glyph glyph-name="i" unicode="i" horiz-adv-x="618" 
d="M317 1440q80 0 134.5 -46.5t54.5 -113.5q4 -49 -31.5 -89t-86 -58t-108.5 -10.5t-96 44.5q-44 32 -52.5 81.5t12 92t68 72.5t105.5 27zM498 1024v-1024h-361v1024h361z" />
    <glyph glyph-name="j" unicode="j" horiz-adv-x="606" 
d="M307 1440q80 0 134.5 -46.5t54.5 -113.5q0 -66 -55.5 -113t-133.5 -47t-133 47t-55 113t55 113t133 47zM127 1024h360v-1092q0 -172 -99 -262t-261 -90q-116 0 -217 37l35 197q24 -7 43 -7q60 0 99.5 41t39.5 107v1069z" />
    <glyph glyph-name="k" unicode="k" horiz-adv-x="1277" 
d="M481 1434v-797l320 387h428l-336 -412l358 -612h-393l-215 352l-162 -170v-182h-360v1434h360z" />
    <glyph glyph-name="l" unicode="l" horiz-adv-x="589" 
d="M489 1434v-1434h-360v1434h360z" />
    <glyph glyph-name="m" unicode="m" horiz-adv-x="1974" 
d="M834 1044q206 0 292 -147q101 82 191 114.5t203 32.5q155 0 255.5 -87t100.5 -250v-707h-360v598q0 73 -39 114.5t-105 41.5q-109 0 -203 -66q5 -117 5 -123v-565h-361v598q0 73 -38.5 114.5t-104.5 41.5q-105 0 -199 -66v-688h-360v1024h360v-123q165 143 363 143z" />
    <glyph glyph-name="n" unicode="n" horiz-adv-x="1304" 
d="M846 1044q103 0 183 -36t128.5 -113.5t48.5 -187.5v-707h-360v598q0 73 -39.5 114.5t-106.5 41.5q-128 0 -229 -82v-672h-360v1024h360v-113q174 133 375 133z" />
    <glyph glyph-name="o" unicode="o" horiz-adv-x="1318" 
d="M659 1044q154 3 290 -69.5t216.5 -196.5t77.5 -266q0 -221 -172 -377q-168 -155 -412 -155q-242 0 -413 155q-170 156 -170 377t170 377q171 155 413 155zM430 512q0 -94 66.5 -160.5t160.5 -66.5q92 0 160 65q68 68 68 162q0 95 -68 160q-47 53 -116.5 63.5t-130 -14.5
t-102.5 -82t-38 -127z" />
    <glyph glyph-name="p" unicode="p" horiz-adv-x="1345" 
d="M807 1044q202 0 323 -151t121 -381t-121 -381t-323 -151q-190 0 -326 145v-524h-360v1423h360v-125q139 145 326 145zM674 739q-61 0 -111.5 -29t-81.5 -81v-234q32 -51 82 -80.5t111 -29.5q90 0 155 65q68 68 68 162q0 95 -68 160q-64 67 -155 67z" />
    <glyph glyph-name="q" unicode="q" horiz-adv-x="1316" 
d="M522 1044q185 0 324 -145v125h360v-1423h-360v524q-136 -145 -324 -145q-204 0 -325 151t-121 381t121 381t325 151zM655 739q-93 0 -157 -67q-66 -66 -66 -160q0 -93 66 -162q65 -65 157 -65q58 0 108.5 30.5t82.5 79.5v234q-31 51 -81.5 80.5t-109.5 29.5z" />
    <glyph glyph-name="r" unicode="r" horiz-adv-x="849" 
d="M825 1044v-290q-200 0 -354 -183v-571h-360v1024h360v-188q78 100 170 154t184 54z" />
    <glyph glyph-name="s" unicode="s" horiz-adv-x="1069" 
d="M524 1044q254 0 447 -114l-117 -219q-175 96 -330 96q-42 0 -68 -18t-26 -50q0 -25 26 -39.5t119 -40.5q85 -22 117 -32q125 -36 185 -82q57 -43 86.5 -97t29.5 -131q0 -160 -115.5 -248.5t-318.5 -88.5q-294 0 -510 143l125 209q183 -115 383 -115q44 0 73 18.5t29 49.5
q0 34 -21.5 47t-109.5 37l-30 8q-158 43 -242 82q-82 40 -119 97.5t-43 152.5q0 162 117 248.5t313 86.5z" />
    <glyph glyph-name="t" unicode="t" horiz-adv-x="925" 
d="M539 1288v-264h252v-272h-252v-353q0 -62 37 -95.5t98 -33.5q67 0 135 41l45 -245q-157 -83 -319 -86q-159 -2 -258 92.5t-99 263.5v416h-135v272h135v264h361z" />
    <glyph glyph-name="u" unicode="u" horiz-adv-x="1292" 
d="M98 1024h361v-598q0 -73 38.5 -114.5t106.5 -41.5q129 0 227 82v672h361v-1024h-361v113q-171 -133 -374 -133q-163 0 -261 87.5t-98 249.5v707z" />
    <glyph glyph-name="v" unicode="v" horiz-adv-x="1267" 
d="M1241 1024l-385 -1024h-446l-385 1024h383l225 -657l223 657h385z" />
    <glyph glyph-name="w" unicode="w" horiz-adv-x="1710" 
d="M1681 1024l-303 -1024h-387l-137 489l-139 -489h-387l-303 1024h358l156 -635l176 635h276l176 -635l156 635h358z" />
    <glyph glyph-name="x" unicode="x" horiz-adv-x="1206" 
d="M1171 1024l-360 -508l369 -516h-410l-172 274l-170 -274h-403l368 516l-362 508h409l164 -264l164 264h403z" />
    <glyph glyph-name="y" unicode="y" horiz-adv-x="1255" 
d="M854 1024h373l-426 -1116q-126 -328 -434 -328q-141 -3 -342 74l98 235q131 -52 209 -43q90 9 151 107l9 16l-439 1055h379l219 -606z" />
    <glyph glyph-name="z" unicode="z" horiz-adv-x="1105" 
d="M1020 1024v-233l-453 -502h473v-289h-981v233l453 502h-410v289h918z" />
    <glyph glyph-name="braceleft" unicode="{" horiz-adv-x="755" 
d="M711 1526v-234h-70q-90 0 -90 -82v-368q0 -148 -94 -209q94 -61 94 -207v-371q0 -82 90 -82h70v-233h-203q-297 0 -297 272v412q0 36 -23 59t-59 23h-63v254h63q36 0 59 23t23 59v411q0 273 297 273h203z" />
    <glyph glyph-name="bar" unicode="|" horiz-adv-x="657" 
d="M512 1536v-1849h-367v1849h367z" />
    <glyph glyph-name="braceright" unicode="}" horiz-adv-x="755" 
d="M43 1292v234h203q297 0 297 -273v-411q0 -36 23 -59t59 -23h63v-254h-63q-36 0 -59 -23t-23 -59v-412q0 -272 -297 -272h-203v233h70q90 0 90 82v369q0 147 96 209q-96 62 -96 209v368q0 82 -90 82h-70z" />
    <glyph glyph-name="asciitilde" unicode="~" horiz-adv-x="1132" 
d="M291 844q68 12 121 2q49 -9 147 -49l45 -17q70 -30 105 -41q43 -12 86 -6q83 9 108 103l174 -19q19 -154 -36.5 -256t-166.5 -125q-77 -10 -122 -2q-55 10 -146 49l-43 17q-93 37 -129 45q-25 8 -61 2q-84 -9 -105 -105l-174 21q-20 154 33.5 256t163.5 125z" />
    <glyph glyph-name="exclamdown" unicode="&#xa1;" horiz-adv-x="542" 
d="M270 1044q47 2 88 -17t65.5 -51.5t34.5 -70t-4 -76t-51 -65.5q-38 -37 -96.5 -44.5t-110 10.5t-87 59t-31.5 92q0 69 56 116t136 47zM434 598l37 -1010h-403l36 1010h330z" />
    <glyph glyph-name="cent" unicode="&#xa2;" horiz-adv-x="1161" 
d="M483 1266h285v-238q209 -47 328 -215l-275 -154q-68 80 -170 80q-91 0 -155 -67q-66 -66 -66 -160q0 -93 66 -162q65 -65 155 -65q105 0 172 82l275 -152q-118 -170 -330 -217v-240h-285v244q-179 47 -293 188t-114 322t114 322q111 141 293 188v244z" />
    <glyph glyph-name="sterling" unicode="&#xa3;" horiz-adv-x="1355" 
d="M817 1454q298 0 457 -188l-205 -224q-83 86 -227 86q-87 0 -133.5 -43.5t-46.5 -130.5v-149h446v-256h-446v-240h622v-309h-1167v309h157v242h-157v256h157v192q0 225 142.5 340t400.5 115z" />
    <glyph glyph-name="currency" unicode="&#xa4;" horiz-adv-x="1228" 
 />
    <glyph glyph-name="yen" unicode="&#xa5;" horiz-adv-x="1624" 
d="M1575 1434l-352 -578h186v-256h-338l-65 -106v-54h403v-256h-403v-184h-388v184h-405v256h405v47l-67 113h-338v256h186l-350 578h463l303 -533l303 533h457z" />
    <glyph glyph-name="brokenbar" unicode="&#xa6;" horiz-adv-x="657" 
d="M512 1536v-772h-367v772h367zM512 459v-772h-367v772h367z" />
    <glyph glyph-name="section" unicode="&#xa7;" horiz-adv-x="1284" 
d="M645 1454q306 0 539 -139l-142 -260q-104 53 -222 83.5t-212 30.5q-52 0 -84 -21t-32 -58q0 -21 13.5 -34t59 -29t142.5 -40q60 -15 141 -41q161 -50 221 -96q68 -49 103.5 -112t35.5 -156q0 -169 -104 -273q104 -88 104 -239q0 -199 -137.5 -305.5t-384.5 -106.5
q-355 0 -614 174l149 252q241 -137 502 -137q57 0 93 21.5t36 58.5q0 52 -39 69q-38 20 -201 60q-17 4 -66 16t-69 18q-158 50 -217 91q-66 47 -100.5 106.5t-34.5 147.5q0 174 117 276q-117 83 -117 233q0 84 27 152.5t74 116t113 79.5t142.5 47t163.5 15zM586 655
q-94 -9 -94 -77q0 -31 32 -48q45 -20 168 -51l68 -14q92 12 92 74q0 40 -23 57t-96 39q-77 17 -147 20z" />
    <glyph glyph-name="dieresis" unicode="&#xa8;" horiz-adv-x="841" 
d="M211 1178q-65 0 -107.5 42.5t-42.5 106.5q-4 46 24 83t68.5 53t86 9t75.5 -40q33 -30 40 -76.5t-8.5 -87t-52.5 -67.5t-83 -23zM633 1178q-65 0 -107.5 42.5t-42.5 106.5q-4 46 23.5 83t68 53t87 9t77.5 -40q43 -40 43 -107q0 -63 -43 -105t-106 -42z" />
    <glyph glyph-name="copyright" unicode="&#xa9;" horiz-adv-x="1624" 
d="M1550 717q2 -117 -35 -230t-106.5 -205t-161 -161.5t-204.5 -106.5t-230 -34q-147 -4 -284.5 55t-238 159.5t-159.5 238t-55 284.5q0 201 99 370.5t268.5 268t369.5 98.5t369.5 -98.5t268.5 -268t99 -370.5zM301 719q0 -137 69 -254.5t187 -186.5t256 -69q103 0 197.5 41
t163.5 110t110 163t41 196q0 209 -151 360q-152 152 -361 152q-208 0 -360 -152t-152 -360zM813 1100q99 0 187.5 -48t140.5 -126l-189 -105q-50 74 -137 74q-74 0 -122 -51t-48 -129q0 -75 48.5 -125.5t121.5 -50.5q88 0 137 73l189 -104q-55 -80 -142 -127t-186 -47
q-163 0 -278 112q-115 115 -115 271q0 155 115 270q116 113 278 113z" />
    <glyph glyph-name="ordfeminine" unicode="&#xaa;" horiz-adv-x="821" 
d="M438 1446q131 0 213 -62.5t82 -193.5v-440h-241v79q-94 -94 -228 -94q-99 0 -161 58.5t-62 154.5q0 95 67 148t183 53h201v18q0 93 -119 93q-94 0 -199 -60l-70 156q161 87 334 90zM492 913v144h-109q-102 0 -102 -84q0 -42 25.5 -68t64.5 -26q72 0 121 34z" />
    <glyph glyph-name="guillemotleft" unicode="&#xab;" horiz-adv-x="1304" 
d="M446 1024l267 -137l-267 -344l267 -344l-269 -133l-378 477zM995 1024l267 -137l-269 -344l269 -344l-271 -133l-379 477z" />
    <glyph glyph-name="logicalnot" unicode="&#xac;" horiz-adv-x="1433" 
 />
    <glyph glyph-name="registered" unicode="&#xae;" horiz-adv-x="1624" 
d="M1550 717q2 -117 -35 -230t-106.5 -205t-161 -161.5t-204.5 -106.5t-230 -34q-147 -4 -284.5 55t-238 159.5t-159.5 238t-55 284.5q0 201 99 370.5t268.5 268t369.5 98.5t369.5 -98.5t268.5 -268t99 -370.5zM301 719q0 -137 69 -254.5t187 -186.5t256 -69q103 0 197.5 41
t163.5 110t110 163t41 196q0 209 -151 360q-152 152 -361 152q-208 0 -360 -152t-152 -360zM518 397v662h299q157 0 229 -56.5t72 -175.5q0 -154 -121 -204l148 -226h-221l-125 197h-27h-61v-197h-193zM711 885v-140h114q54 0 74.5 16t20.5 54q0 39 -21 54.5t-74 15.5h-114z
" />
    <glyph glyph-name="overscore" unicode="&#xaf;" horiz-adv-x="839" 
d="M772 1438v-224h-706v224h706z" />
    <glyph glyph-name="degree" unicode="&#xb0;" horiz-adv-x="901" 
d="M449 1593q158 0 270 -109.5t112 -264.5q0 -158 -112 -267q-111 -108 -270 -108q-157 0 -271 108q-112 109 -112 267t112 264q113 110 271 110zM449 1397q-75 0 -128 -51.5t-53 -126.5q-4 -55 30 -100t82 -64.5t103.5 -11.5t91.5 49q42 37 51 91.5t-11 102.5t-65 81
t-101 30z" />
    <glyph glyph-name="plusminus" unicode="&#xb1;" horiz-adv-x="1142" 
d="M707 889h366v-277h-366v-325h-275v325h-366v277h366v323h275v-323zM66 -168v274h1007v-274h-1007z" />
    <glyph glyph-name="twosuperior" unicode="&#xb2;" horiz-adv-x="663" 
d="M336 1528q117 0 203 -66.5t86 -179.5q0 -64 -36.5 -117t-123.5 -125l-68 -61h238v-191h-615v168l312 238q49 40 49 74q0 25 -18 41t-44 16q-80 0 -153 -94l-150 127q49 79 135.5 124.5t184.5 45.5z" />
    <glyph glyph-name="threesuperior" unicode="&#xb3;" horiz-adv-x="681" 
d="M623 1516v-162l-152 -129l29 -6q67 -25 104 -73.5t37 -113.5q0 -116 -84 -186t-219 -70q-168 0 -320 119l129 135q77 -65 164 -65q42 0 67 19.5t25 55.5q0 63 -86 60q-34 0 -104 -17l-37 119l160 123h-264v191h551z" />
    <glyph glyph-name="acute" unicode="&#xb4;" horiz-adv-x="751" 
d="M684 1487l-309 -357h-309l245 357h373z" />
    <glyph glyph-name="paragraph" unicode="&#xb6;" horiz-adv-x="1630" 
d="M690 1434h793v-1766h-303v1493h-164v-1493h-303v836h-72q-267 0 -408 129t-141 336q0 220 149.5 342.5t448.5 122.5z" />
    <glyph glyph-name="middot" unicode="&#xb7;" horiz-adv-x="516" 
d="M121 729q57 49 136 49t134 -49q57 -47 57 -114t-57 -117q-55 -47 -134 -47t-136 47q-55 50 -55 117t55 114z" />
    <glyph glyph-name="cedilla" unicode="&#xb8;" horiz-adv-x="618" 
d="M240 31h168l-58 -119q32 3 66 -6q59 -20 97 -67t38 -111q0 -97 -74.5 -150t-183.5 -53q-126 0 -227 55l45 127q51 -26 118 -26q50 0 78 27t31 65q0 32 -21 54t-55 23q-32 0 -57 -14l-41 39z" />
    <glyph glyph-name="onesuperior" unicode="&#xb9;" horiz-adv-x="458" 
d="M408 1516v-730l-238 -2v523l-119 -27l-41 176l219 60h179z" />
    <glyph glyph-name="ordmasculine" unicode="&#xba;" horiz-adv-x="935" 
d="M856 1090q0 -147 -114.5 -251t-274.5 -104q-162 0 -277 103q-112 103 -112 252q0 148 112 251q114 105 275 105q162 0 276 -105q115 -106 115 -251zM313 1090q0 -62 45 -106t107 -44q46 -3 83 25t54 68.5t9.5 86.5t-42.5 76q-30 35 -76 42.5t-86.5 -9t-68.5 -54.5
t-25 -85z" />
    <glyph glyph-name="guillemotright" unicode="&#xbb;" horiz-adv-x="1304" 
d="M309 1024l383 -481l-379 -477l-270 133l268 344l-268 344zM858 1024l381 -481l-379 -477l-268 133l268 344l-268 344z" />
    <glyph glyph-name="onequarter" unicode="&#xbc;" horiz-adv-x="1449" 
d="M1298 1468l-946 -1503h-286l946 1503h286zM412 1434v-729h-238v520l-117 -27l-43 176l219 60h179zM1335 729v-418h92v-178h-92v-133h-227v133h-342l-27 172l340 424h256zM1108 502l-139 -191h139v191z" />
    <glyph glyph-name="onehalf" unicode="&#xbd;" horiz-adv-x="1509" 
d="M1298 1468l-946 -1503h-286l946 1503h286zM412 1434v-729h-238v520l-117 -27l-43 176l219 60h179zM1184 739q116 0 202 -65q87 -66 87 -180q0 -63 -36.5 -118t-123.5 -124l-68 -62h236v-190h-613v170l312 236q49 40 49 73q0 28 -18.5 43t-45.5 15q-77 0 -151 -95
l-152 127q49 80 136 125t186 45z" />
    <glyph glyph-name="threequarters" unicode="&#xbe;" horiz-adv-x="1572" 
d="M1425 1468l-948 -1503h-287l947 1503h288zM623 1434v-162l-152 -129q18 -4 29 -8q67 -23 104 -71.5t37 -113.5q0 -116 -84 -186t-219 -70q-168 0 -320 119l129 135q77 -65 164 -65q42 0 67 19.5t25 55.5q0 63 -86 60q-34 0 -104 -17l-37 119l160 123h-264v191h551z
M1456 729v-418h90v-178h-92v-133h-225v133h-342l-29 172l340 424h258zM1229 502l-142 -191h142v191z" />
    <glyph glyph-name="questiondown" unicode="&#xbf;" horiz-adv-x="1187" 
d="M449 1008q57 50 136 50t134 -50q57 -47 57 -116t-57 -116q-55 -47 -134 -47t-136 47q-55 47 -55 116t55 116zM420 610h330l4 -96q8 -96 -43 -176q-9 -23 -74 -88q-24 -24 -51 -47l-54 -47q-38 -32 -53.5 -57.5t-15.5 -61.5q0 -60 41.5 -93.5t113.5 -33.5q69 0 115.5 36
t52.5 97l351 -35q-31 -200 -179.5 -314t-375.5 -114q-231 0 -373 115q-139 115 -139 317q0 111 53 194t176 181l29 27q21 17 49 45q8 6 13.5 12.5t7.5 10.5t5.5 12.5t4.5 11.5q12 22 12 67v37z" />
    <glyph glyph-name="Agrave" unicode="&#xc0;" horiz-adv-x="1740" 
d="M1120 1434l572 -1434h-461l-92 252h-537l-92 -252h-461l567 1434h504zM868 1004l-163 -445h331zM782 1896l246 -356h-309l-309 356h372z" />
    <glyph glyph-name="Aacute" unicode="&#xc1;" horiz-adv-x="1740" 
d="M1321 1896l-309 -356h-310l248 356h371zM1120 1434l572 -1434h-461l-92 252h-537l-92 -252h-461l567 1434h504zM868 1004l-163 -445h331z" />
    <glyph glyph-name="Acircumflex" unicode="&#xc2;" horiz-adv-x="1740" 
d="M1057 1896l252 -356h-299l-142 170l-141 -170h-297l252 356h375zM1120 1434l572 -1434h-461l-92 252h-537l-92 -252h-461l567 1434h504zM868 1004l-163 -445h331z" />
    <glyph glyph-name="Atilde" unicode="&#xc3;" horiz-adv-x="1740" 
d="M649 1884q56 10 91.5 3.5t111.5 -38.5q122 -49 172 -49q63 0 84 78l135 -14q17 -120 -24 -200t-127 -99q-60 -10 -93 -2q-31 8 -112 36q-1 0 -15.5 6.5t-25.5 10.5q-52 21 -68 24q-47 21 -67 7q-59 -9 -74 -76l-135 14q-17 121 23.5 200.5t123.5 98.5zM1120 1434
l572 -1434h-461l-92 252h-537l-92 -252h-461l567 1434h504zM868 1004l-163 -445h331z" />
    <glyph glyph-name="Adieresis" unicode="&#xc4;" horiz-adv-x="1740" 
d="M551 1841q43 43 106.5 43t106.5 -43q43 -41 43 -105.5t-43 -107.5q-43 -41 -106.5 -41t-106.5 41q-41 43 -41 107.5t41 105.5zM973 1841q43 43 107.5 43t105.5 -43q43 -41 43 -105.5t-43 -107.5q-41 -41 -105.5 -41t-107.5 41q-41 43 -41 107.5t41 105.5zM1120 1434
l572 -1434h-461l-92 252h-537l-92 -252h-461l567 1434h504zM868 1004l-163 -445h331z" />
    <glyph glyph-name="Aring" unicode="&#xc5;" horiz-adv-x="1740" 
d="M668 1925q82 82 200 82q119 0 201 -82q82 -79 82 -194t-82 -197q-83 -80 -201 -80q-117 0 -200 80q-82 82 -82 197t82 194zM948 1808q-32 32 -78.5 32t-78.5 -32t-32 -77.5t32 -77.5t78.5 -32t78.5 32t32 77.5t-32 77.5zM1120 1434l572 -1434h-461l-92 252h-537l-92 -252
h-461l567 1434h504zM868 1004l-163 -445h331z" />
    <glyph glyph-name="AE" unicode="&#xc6;" horiz-adv-x="2127" 
d="M2044 1434v-347h-789v-196h734v-330h-734v-215h801v-346h-1188v252h-266l-92 -252h-461l567 1434h1428zM868 1004l-163 -445h163v445z" />
    <glyph glyph-name="Ccedilla" unicode="&#xc7;" horiz-adv-x="1554" 
d="M860 -20l-43 2l-33 -70q34 3 64 -6q63 -19 100 -66t37 -112q0 -96 -72 -149.5t-186 -53.5q-126 0 -227 55l45 127q51 -26 119 -26q48 1 77 27.5t31 64.5q0 32 -21 54t-55 23q-32 0 -57 -14l-41 39l64 131q-245 65 -400 260q-156 200 -156 451q-3 117 35 230t109 204.5
t165 161t209.5 106.5t235.5 35q188 0 351 -84t268 -231l-334 -187q-107 140 -281 140q-153 0 -256 -109q-100 -106 -100 -266t100 -266q103 -109 256 -109q175 0 281 139l334 -186q-105 -147 -268 -231t-351 -84z" />
    <glyph glyph-name="Egrave" unicode="&#xc8;" horiz-adv-x="1404" 
d="M1321 1434v-347h-789v-196h734v-330h-734v-215h801v-346h-1188v1434h1176zM707 1896l245 -356h-309l-309 356h373z" />
    <glyph glyph-name="Eacute" unicode="&#xc9;" horiz-adv-x="1404" 
d="M1245 1896l-309 -356h-309l247 356h371zM1321 1434v-347h-789v-196h734v-330h-734v-215h801v-346h-1188v1434h1176z" />
    <glyph glyph-name="Ecircumflex" unicode="&#xca;" horiz-adv-x="1404" 
d="M981 1896l252 -356h-297l-141 170l-142 -170h-299l252 356h375zM1321 1434v-347h-789v-196h734v-330h-734v-215h801v-346h-1188v1434h1176z" />
    <glyph glyph-name="Edieresis" unicode="&#xcb;" horiz-adv-x="1404" 
d="M582 1884q64 0 106.5 -42.5t42.5 -104.5q4 -48 -23 -85.5t-68 -53t-87.5 -9t-77.5 38.5q-32 31 -38.5 77.5t9 87.5t52.5 68t84 23zM1006 1884q46 4 83 -23t52.5 -68t8.5 -87.5t-40 -77.5q-30 -32 -75.5 -38.5t-86 9t-68.5 53t-24 85.5q0 62 43 104.5t107 42.5zM1321 1434
v-347h-789v-196h734v-330h-734v-215h801v-346h-1188v1434h1176z" />
    <glyph glyph-name="Igrave" unicode="&#xcc;" horiz-adv-x="677" 
d="M266 1896l246 -356h-307l-311 356h372zM535 1434v-1434h-388v1434h388z" />
    <glyph glyph-name="Iacute" unicode="&#xcd;" horiz-adv-x="677" 
d="M805 1896l-311 -356h-308l246 356h373zM532 1434v-1434h-387v1434h387z" />
    <glyph glyph-name="Icircumflex" unicode="&#xce;" horiz-adv-x="677" 
d="M543 1896l252 -356h-299l-142 170l-141 -170h-299l252 356h377zM535 1434v-1434h-388v1434h388z" />
    <glyph glyph-name="Idieresis" unicode="&#xcf;" horiz-adv-x="677" 
d="M37 1841q43 43 106.5 43t104.5 -43q43 -41 43 -105.5t-43 -107.5q-41 -41 -104.5 -41t-106.5 41q-43 43 -43 107.5t43 105.5zM565 1587q-64 0 -106.5 42.5t-42.5 107.5q-4 46 23.5 83t68 52.5t87 8.5t77.5 -40q43 -40 43 -106q0 -63 -43.5 -105.5t-106.5 -42.5zM535 1434
v-1434h-388v1434h388z" />
    <glyph glyph-name="Eth" unicode="&#xd0;" horiz-adv-x="1652" 
d="M162 866v568h614q204 4 382.5 -91.5t284 -263.5t101.5 -364q4 -194 -101.5 -361t-284 -262.5t-382.5 -91.5h-614v567h-131v299h131zM549 567v-223h213q160 0 273.5 108.5t113.5 264.5q0 157 -113 264q-115 109 -274 109h-213v-224h213v-299h-213z" />
    <glyph glyph-name="Ntilde" unicode="&#xd1;" horiz-adv-x="1624" 
d="M629 1884q56 10 91 3.5t111 -38.5q122 -49 173 -49q62 0 83 78l136 -14q17 -120 -24.5 -200t-127.5 -99q-60 -10 -92 -2q-34 8 -113 36q-1 0 -15.5 6.5t-25.5 10.5q-76 29 -90 31q-18 6 -45 0q-59 -9 -74 -76l-135 14q-17 121 24 200.5t124 98.5zM1489 1434v-1434h-399
l-578 799v-799h-379v1434h397l580 -799v799h379z" />
    <glyph glyph-name="Ograve" unicode="&#xd2;" horiz-adv-x="1751" 
d="M487 1356q177 98 387 98q208 0 384.5 -98t279.5 -269q104 -168 104 -370q0 -200 -102 -370t-280 -269q-174 -98 -386 -98q-210 0 -387 98q-177 100 -278 268q-103 171 -103 371t101.5 370t279.5 269zM1135 983q-103 109 -263 109q-156 0 -262 -109q-102 -108 -102 -266
t102 -266q106 -109 262 -109q160 0 263 109q104 107 104 266t-104 266zM786 1896l246 -356h-309l-309 356h372z" />
    <glyph glyph-name="Oacute" unicode="&#xd3;" horiz-adv-x="1751" 
d="M1327 1896l-311 -356h-309l247 356h373zM874 1454q208 0 384.5 -98t279.5 -269q104 -168 104 -370q0 -203 -104 -371q-103 -171 -279.5 -268.5t-384.5 -97.5q-153 -4 -296.5 55t-248 159.5t-166 238t-57.5 284.5q0 201 102.5 370.5t279 268t386.5 98.5zM874 342
q158 0 261.5 109t103.5 266q0 159 -104 266q-103 109 -263 109q-156 0 -262 -109q-102 -108 -102 -266t102 -266q106 -109 264 -109z" />
    <glyph glyph-name="Ocircumflex" unicode="&#xd4;" horiz-adv-x="1751" 
d="M487 1356q177 98 387 98q208 0 384.5 -98t279.5 -269q104 -168 104 -370q0 -200 -102 -370t-280 -269q-174 -98 -386 -98q-210 0 -387 98q-177 100 -278 268q-103 171 -103 371t101.5 370t279.5 269zM1135 983q-103 109 -263 109q-156 0 -262 -109q-102 -108 -102 -266
t102 -266q106 -109 262 -109q160 0 263 109q104 107 104 266t-104 266zM1063 1896l250 -356h-297l-142 170l-141 -170h-299l252 356h377z" />
    <glyph glyph-name="Otilde" unicode="&#xd5;" horiz-adv-x="1751" 
d="M653 1884q56 10 92.5 3t110.5 -38q122 -49 172 -49q63 0 84 78l135 -14q17 -120 -24 -200t-127 -99q-59 -9 -92.5 -3t-110.5 37l-41 17q-52 21 -68 24q-55 19 -67 7q-61 -9 -76 -76l-135 14q-17 121 23.5 200.5t123.5 98.5zM487 1356q177 98 387 98q208 0 384.5 -98
t279.5 -269q104 -168 104 -370q0 -200 -102 -370t-280 -269q-174 -98 -386 -98q-210 0 -387 98q-177 100 -278 268q-103 171 -103 371t101.5 370t279.5 269zM508 717q0 -158 103.5 -266.5t262.5 -108.5q158 0 261 109q104 107 104 266t-104 266q-103 109 -263 109
q-156 0 -262 -109q-102 -108 -102 -266z" />
    <glyph glyph-name="Odieresis" unicode="&#xd6;" horiz-adv-x="1751" 
d="M664 1884q63 0 105 -42t42 -105q0 -66 -41.5 -108t-107.5 -42q-64 0 -106 42.5t-42 107.5q0 62 43 104.5t107 42.5zM979 1841q43 43 106.5 43t106.5 -43q43 -41 43 -105.5t-43 -107.5q-43 -41 -106.5 -41t-106.5 41q-43 43 -43 107.5t43 105.5zM487 1356q177 98 387 98
q208 0 384.5 -98t279.5 -269q104 -168 104 -370q0 -200 -102 -370t-280 -269q-174 -98 -386 -98q-210 0 -387 98q-177 100 -278 268q-103 171 -103 371t101.5 370t279.5 269zM1135 983q-103 109 -263 109q-156 0 -262 -109q-102 -108 -102 -266t102 -266q106 -109 262 -109
q160 0 263 109q104 107 104 266t-104 266z" />
    <glyph glyph-name="multiply" unicode="&#xd7;" horiz-adv-x="1040" 
d="M778 1036l195 -194l-258 -260l258 -258l-195 -195l-258 258l-260 -258l-194 195l258 258l-258 260l194 194l260 -258z" />
    <glyph glyph-name="Oslash" unicode="&#xd8;" horiz-adv-x="1751" 
d="M1104 1536h319l-104 -219q151 -104 237 -261.5t86 -338.5q3 -147 -59 -284.5t-166.5 -238t-247.5 -159.5t-295 -55q-98 0 -182 20l-49 -102h-317l102 219q-151 104 -236.5 261.5t-85.5 338.5q-3 117 35.5 230t111 204.5t168 161t213.5 106.5t240 35q97 0 181 -20z
M508 717q0 -146 88 -250l297 625h-19q-159 0 -262.5 -108.5t-103.5 -266.5zM1151 967l-295 -625h18q158 0 261 109q104 107 104 266q0 146 -88 250z" />
    <glyph glyph-name="Ugrave" unicode="&#xd9;" horiz-adv-x="1597" 
d="M715 1896l248 -356h-310l-309 356h371zM1077 1434h385v-775q0 -338 -170.5 -508.5t-488.5 -170.5q-317 0 -487.5 170.5t-170.5 508.5v775h387v-775q0 -164 70.5 -245.5t202.5 -81.5t202 81.5t70 245.5v775z" />
    <glyph glyph-name="Uacute" unicode="&#xda;" horiz-adv-x="1597" 
d="M1255 1896l-309 -356h-309l246 356h372zM1077 1434h385v-775q0 -338 -170.5 -508.5t-488.5 -170.5q-317 0 -487.5 170.5t-170.5 508.5v775h387v-775q0 -164 70.5 -245.5t202.5 -81.5q130 0 201 80t71 247v775z" />
    <glyph glyph-name="Ucircumflex" unicode="&#xdb;" horiz-adv-x="1597" 
d="M991 1896l252 -356h-299l-141 170l-141 -170h-300l252 356h377zM1077 1434h385v-775q0 -338 -170.5 -508.5t-488.5 -170.5q-317 0 -487.5 170.5t-170.5 508.5v775h387v-775q0 -164 70.5 -245.5t202.5 -81.5t202 81.5t70 245.5v775z" />
    <glyph glyph-name="Udieresis" unicode="&#xdc;" horiz-adv-x="1597" 
d="M485 1841q43 43 106.5 43t106.5 -43q43 -41 43 -105.5t-43 -107.5q-43 -41 -106.5 -41t-106.5 41q-43 43 -43 107.5t43 105.5zM907 1841q43 43 106.5 43t106.5 -43q43 -41 43 -105.5t-43 -107.5q-43 -41 -106.5 -41t-106.5 41q-41 43 -41 107.5t41 105.5zM1077 1434h385
v-775q0 -338 -170.5 -508.5t-488.5 -170.5q-317 0 -487.5 170.5t-170.5 508.5v775h387v-775q0 -164 70.5 -245.5t202.5 -81.5q130 0 201 80t71 247v775z" />
    <glyph glyph-name="Yacute" unicode="&#xdd;" horiz-adv-x="1624" 
d="M1266 1896l-312 -356h-309l248 356h373zM1575 1434l-569 -940v-494h-388v487l-569 947h463l303 -533l303 533h457z" />
    <glyph glyph-name="Thorn" unicode="&#xde;" horiz-adv-x="1499" 
d="M532 1434v-170h242q326 0 479.5 -127t153.5 -392q0 -261 -154 -384t-475 -123h-246v-238h-387v1434h387zM758 932h-226v-397h228q128 0 187 47t59 149q0 103 -59 152t-189 49z" />
    <glyph glyph-name="germandbls" unicode="&#xdf;" horiz-adv-x="1388" 
d="M682 1456q240 0 389 -104q152 -103 152 -281q0 -202 -189 -305q135 -50 208 -145t73 -224q0 -199 -157.5 -308t-430.5 -109q-54 0 -109 10l33 284q43 -9 84 -6q96 6 146.5 52.5t50.5 121.5q0 81 -55.5 128.5t-149.5 47.5h-78v250h45q76 0 123 41t47 109q0 63 -48.5 106
t-121.5 43q-78 0 -125 -44.5t-47 -118.5v-1004h-383v915q0 264 139 402.5t404 138.5z" />
    <glyph glyph-name="agrave" unicode="&#xe0;" horiz-adv-x="1206" 
d="M664 1044q205 0 323.5 -96t118.5 -286v-662h-361v123q-140 -143 -342 -143q-145 0 -239 88q-92 89 -92 231q0 141 98.5 220t271.5 81h303v27q0 139 -180 139q-148 0 -297 -88l-102 229q241 134 498 137zM745 248v215h-161q-75 0 -115.5 -33t-40.5 -94q0 -66 37.5 -104.5
t99.5 -38.5q104 0 180 55zM573 1487l246 -357h-309l-309 357h372z" />
    <glyph glyph-name="aacute" unicode="&#xe1;" horiz-adv-x="1206" 
d="M1114 1487l-311 -357h-307l245 357h373zM664 1044q205 0 323.5 -96t118.5 -286v-662h-361v123q-140 -143 -342 -143q-145 0 -239 88q-92 89 -92 231q0 141 98.5 220t271.5 81h303v27q0 139 -180 139q-148 0 -297 -88l-102 229q241 134 498 137zM745 248v215h-161
q-75 0 -115.5 -33t-40.5 -94q0 -66 37.5 -104.5t99.5 -38.5q104 0 180 55z" />
    <glyph glyph-name="acircumflex" unicode="&#xe2;" horiz-adv-x="1206" 
d="M664 1044q205 0 323.5 -96t118.5 -286v-662h-361v123q-140 -143 -342 -143q-145 0 -239 88q-92 89 -92 231q0 141 98.5 220t271.5 81h303v27q0 139 -180 139q-148 0 -297 -88l-102 229q241 134 498 137zM745 248v215h-161q-75 0 -115.5 -33t-40.5 -94q0 -66 37.5 -104.5
t99.5 -38.5q104 0 180 55zM850 1487l250 -357h-297l-141 170l-142 -170h-299l252 357h377z" />
    <glyph glyph-name="atilde" unicode="&#xe3;" horiz-adv-x="1206" 
d="M440 1475q56 10 92.5 3t110.5 -38q122 -49 172 -49q63 0 84 77l135 -14q17 -120 -24 -200t-127 -99q-60 -9 -92.5 -2.5t-110.5 37.5l-41 16q-74 28 -92 31q-18 6 -43 0q-61 -9 -76 -76l-135 15q-17 121 23.5 200.5t123.5 98.5zM664 1044q204 0 323 -96t119 -286v-662
h-361v123q-140 -143 -342 -143q-145 0 -239 88q-92 89 -92 231q0 141 98.5 220t271.5 81h303v27q0 139 -180 139q-148 0 -297 -88l-102 229q241 134 498 137zM745 248v215h-161q-75 0 -115.5 -33t-40.5 -94q0 -66 37.5 -104.5t99.5 -38.5q104 0 180 55z" />
    <glyph glyph-name="adieresis" unicode="&#xe4;" horiz-adv-x="1206" 
d="M344 1432q43 43 106.5 43t104.5 -43q43 -41 43 -105.5t-43 -107.5q-41 -41 -104.5 -41t-106.5 41q-43 43 -43 107.5t43 105.5zM766 1432q43 43 106.5 43t106.5 -43q43 -41 43 -105.5t-43 -107.5q-43 -41 -106.5 -41t-106.5 41q-43 43 -43 107.5t43 105.5zM664 1044
q205 0 323.5 -96t118.5 -286v-662h-361v123q-140 -143 -342 -143q-145 0 -239 88q-92 89 -92 231q0 141 98.5 220t271.5 81h303v27q0 139 -180 139q-148 0 -297 -88l-102 229q241 134 498 137zM745 248v215h-161q-75 0 -115.5 -33t-40.5 -94q0 -66 37.5 -104.5t99.5 -38.5
q104 0 180 55z" />
    <glyph glyph-name="aring" unicode="&#xe5;" horiz-adv-x="1206" 
d="M664 1044q205 0 323.5 -96t118.5 -286v-662h-361v123q-140 -143 -342 -143q-145 0 -239 88q-92 89 -92 231q0 141 98.5 220t271.5 81h303v27q0 139 -180 139q-148 0 -297 -88l-102 229q241 134 498 137zM745 248v215h-161q-75 0 -115.5 -33t-40.5 -94q0 -66 37.5 -104.5
t99.5 -38.5q104 0 180 55zM662 1597q116 0 199 -80.5t83 -195.5q0 -113 -84 -197q-83 -80 -198 -80q-118 0 -201 80q-82 82 -82 197q0 116 82 195q81 81 201 81zM739 1399q-32 32 -78.5 32t-78.5 -32t-32 -78t32 -78t78.5 -32t78.5 32t32 78t-32 78z" />
    <glyph glyph-name="ae" unicode="&#xe6;" horiz-adv-x="2019" 
d="M1952 512v-88h-725q4 -83 69.5 -133.5t161.5 -50.5q135 -3 225 84l187 -168q-185 -176 -443 -176q-180 0 -321 100v-80h-361v123q-140 -143 -342 -143q-145 0 -239 88q-92 89 -92 231q0 141 98.5 220t271.5 81h303v27q0 139 -180 139q-148 0 -297 -88l-102 229
q241 134 498 137q264 3 376 -151q157 151 375 151q247 0 391 -153q146 -152 146 -379zM1231 592h385q0 87 -53 143t-140 56q-79 0 -135.5 -58.5t-56.5 -140.5zM745 248v215h-161q-75 0 -115.5 -33t-40.5 -94q0 -66 37.5 -104.5t99.5 -38.5q104 0 180 55z" />
    <glyph glyph-name="ccedilla" unicode="&#xe7;" horiz-adv-x="1161" 
d="M823 367l275 -152q-75 -109 -197 -172t-262 -63l-35 -68q36 3 66 -6q62 -19 98.5 -66t36.5 -112q0 -97 -73.5 -150t-182.5 -53q-129 0 -230 55l48 127q51 -26 118 -26q48 1 77.5 27.5t29.5 64.5q2 31 -18.5 53.5t-55.5 23.5q-32 0 -57 -14l-43 39l63 125
q-180 50 -293 190q-112 139 -112 322q0 221 164 377q162 155 395 155q139 0 260.5 -62t200.5 -169l-275 -154q-68 80 -170 80q-91 0 -155 -67q-66 -66 -66 -160q0 -93 66 -162q65 -65 155 -65q105 0 172 82z" />
    <glyph glyph-name="egrave" unicode="&#xe8;" 
d="M612 1044q248 0 392 -153q145 -151 145 -379v-88h-725q4 -83 69.5 -133.5t161.5 -50.5q134 -3 224 84l188 -168q-185 -176 -444 -176q-144 -3 -271.5 69.5t-203 196.5t-72.5 266q0 220 157 377q155 155 379 155zM621 791q-80 0 -137.5 -58t-57.5 -141h387q0 87 -52.5 143
t-139.5 56zM524 1487l246 -357h-309l-309 357h372z" />
    <glyph glyph-name="eacute" unicode="&#xe9;" 
d="M1065 1487l-311 -357h-308l246 357h373zM612 1044q164 0 287.5 -71.5t186.5 -191.5t63 -269v-88h-725q3 -84 70 -134t161 -50q134 -3 224 84l188 -168q-185 -176 -444 -176q-225 0 -387 155q-160 157 -160 377t157 377q155 155 379 155zM621 791q-80 0 -137.5 -58.5
t-57.5 -140.5h387q0 87 -52.5 143t-139.5 56z" />
    <glyph glyph-name="ecircumflex" unicode="&#xea;" 
d="M801 1487l252 -357h-299l-142 170l-141 -170h-299l252 357h377zM612 1044q248 0 392 -153q145 -151 145 -379v-88h-725q4 -83 69.5 -133.5t161.5 -50.5q134 -3 224 84l188 -168q-185 -176 -444 -176q-144 -3 -271.5 69.5t-203 196.5t-72.5 266q0 220 157 377
q155 155 379 155zM621 791q-79 0 -137 -58.5t-58 -140.5h387q0 87 -52.5 143t-139.5 56z" />
    <glyph glyph-name="edieresis" unicode="&#xeb;" 
d="M295 1432q43 43 106.5 43t104.5 -43q43 -41 43 -105.5t-43 -107.5q-41 -41 -104.5 -41t-106.5 41q-43 43 -43 107.5t43 105.5zM823 1178q-65 0 -107 42t-42 107q-4 46 23.5 83t68 53t87 9t77.5 -40q43 -40 43 -107q0 -63 -43.5 -105t-106.5 -42zM612 1044q248 0 392 -153
q145 -151 145 -379v-88h-725q4 -83 69.5 -133.5t161.5 -50.5q134 -3 224 84l188 -168q-185 -176 -444 -176q-144 -3 -271.5 69.5t-203 196.5t-72.5 266q0 220 157 377q155 155 379 155zM621 791q-79 0 -137 -58.5t-58 -140.5h387q0 87 -52.5 143t-139.5 56z" />
    <glyph glyph-name="igrave" unicode="&#xec;" horiz-adv-x="606" 
d="M227 1487l248 -357h-309l-311 357h372zM496 1024v-1024h-361v1024h361z" />
    <glyph glyph-name="iacute" unicode="&#xed;" horiz-adv-x="606" 
d="M492 1024v-1024h-361v1024h361zM764 1487l-309 -357h-310l246 357h373z" />
    <glyph glyph-name="icircumflex" unicode="&#xee;" horiz-adv-x="606" 
d="M502 1487l252 -357h-299l-142 170l-141 -170h-297l250 357h377zM494 1024v-1024h-361v1024h361z" />
    <glyph glyph-name="idieresis" unicode="&#xef;" horiz-adv-x="606" 
d="M-2 1432q41 43 104.5 43t106.5 -43q43 -41 43 -105.5t-43 -107.5q-43 -41 -106.5 -41t-104.5 41q-43 43 -43 107.5t43 105.5zM524 1178q-62 0 -104.5 42.5t-42.5 106.5q-4 46 23 83t67.5 53t87 9t76.5 -40q33 -30 40 -76.5t-8.5 -87t-53 -67.5t-85.5 -23zM494 1024v-1024
h-361v1024h361z" />
    <glyph glyph-name="eth" unicode="&#xf0;" horiz-adv-x="1329" 
d="M1100 1516l123 -185l-119 -71q119 -207 119 -541q0 -219 -70 -393q-40 -101 -106 -176q-66 -77 -180 -123.5t-255 -46.5q-129 0 -235.5 46t-174 121.5t-104.5 170.5t-37 196q0 185 117 311q121 127 332 127q187 0 311 -100v22q0 111 -28 197l-136 -84l-122 184l118 72
q-56 27 -125 27q-131 0 -241 -78l-107 248q178 106 395 106q231 3 383 -116zM614 266q190 0 211 254q-14 74 -71.5 119t-139.5 45q-85 0 -137.5 -57.5t-52.5 -151.5t52.5 -151.5t137.5 -57.5z" />
    <glyph glyph-name="ntilde" unicode="&#xf1;" horiz-adv-x="1304" 
d="M432 1475q58 10 93.5 3.5t109.5 -38.5q122 -49 174 -49q61 0 82 77l135 -14q18 -121 -24.5 -200.5t-124.5 -98.5q-60 -9 -93.5 -2.5t-111.5 37.5l-41 16q-76 29 -90 31q-21 6 -45 0q-59 -9 -74 -76l-137 15q-17 121 23.5 200.5t123.5 98.5zM846 1044q103 0 183 -36
t128.5 -113.5t48.5 -187.5v-707h-360v598q0 73 -39.5 114.5t-106.5 41.5q-128 0 -229 -82v-672h-360v1024h360v-113q174 133 375 133z" />
    <glyph glyph-name="ograve" unicode="&#xf2;" horiz-adv-x="1318" 
d="M571 1487l246 -357h-307l-311 357h372zM659 1044q154 3 290 -69.5t216.5 -196.5t77.5 -266q0 -221 -172 -377q-168 -155 -412 -155q-242 0 -413 155q-170 156 -170 377t170 377q171 155 413 155zM430 512q0 -94 66.5 -160.5t160.5 -66.5q92 0 160 65q68 68 68 162
q0 95 -68 160q-47 53 -116.5 63.5t-130 -14.5t-102.5 -82t-38 -127z" />
    <glyph glyph-name="oacute" unicode="&#xf3;" horiz-adv-x="1318" 
d="M1112 1487l-309 -357h-309l245 357h373zM246 889q171 155 413 155q244 0 412 -155q172 -156 172 -377t-172 -377q-168 -155 -412 -155q-242 0 -413 155q-170 156 -170 377t170 377zM657 739q-94 0 -161 -67q-66 -66 -66 -160q0 -93 66 -162q68 -65 159 -65q94 0 162 67
t68 160q0 92 -68 159.5t-160 67.5z" />
    <glyph glyph-name="ocircumflex" unicode="&#xf4;" horiz-adv-x="1318" 
d="M848 1487l252 -357h-299l-142 170l-141 -170h-299l252 357h377zM246 889q171 155 413 155q244 0 412 -155q172 -156 172 -377t-172 -377q-168 -155 -412 -155q-242 0 -413 155q-170 156 -170 377t170 377zM657 739q-93 0 -160 -67t-67 -160t66 -162q68 -66 161 -66
t160 66q68 68 68 162q0 95 -68 160q-67 67 -160 67z" />
    <glyph glyph-name="otilde" unicode="&#xf5;" horiz-adv-x="1318" 
d="M440 1475q56 10 91.5 3.5t109.5 -38.5q122 -49 174 -49q61 0 82 77l137 -14q15 -122 -27 -201t-124 -98q-60 -9 -93.5 -2.5t-111.5 37.5l-41 16q-76 29 -90 31q-21 6 -45 0q-59 -9 -74 -76l-137 15q-14 123 25 201.5t124 97.5zM246 889q171 155 413 155q244 0 412 -155
q172 -156 172 -377t-172 -377q-168 -155 -412 -155q-242 0 -413 155q-170 156 -170 377t170 377zM657 739q-93 0 -160 -67t-67 -160t66 -162q68 -66 161 -66t160 66q68 68 68 162q0 95 -68 160q-67 67 -160 67z" />
    <glyph glyph-name="odieresis" unicode="&#xf6;" horiz-adv-x="1318" 
d="M342 1432q43 43 106.5 43t106.5 -43q43 -41 43 -105.5t-43 -107.5q-43 -41 -106.5 -41t-106.5 41q-43 43 -43 107.5t43 105.5zM870 1178q-63 0 -106 42.5t-43 106.5q-4 46 23.5 83t68 53t87 9t77.5 -40q43 -40 43 -107q0 -63 -43.5 -105t-106.5 -42zM659 1044
q154 3 290 -69.5t216.5 -196.5t77.5 -266q0 -221 -172 -377q-168 -155 -412 -155q-242 0 -413 155q-170 156 -170 377t170 377q171 155 413 155zM430 512q0 -94 66.5 -160.5t160.5 -66.5q92 0 160 65q68 68 68 162q0 95 -68 160q-47 53 -116.5 63.5t-130 -14.5t-102.5 -82
t-38 -127z" />
    <glyph glyph-name="divide" unicode="&#xf7;" horiz-adv-x="1167" 
d="M582 1184q79 0 134.5 -48t55.5 -116t-56 -117t-134 -49q-79 0 -135 48.5t-56 117.5q0 66 56.5 115t134.5 49zM1098 729v-274h-1032v274h1032zM446 281q56 49 136 49t135 -49q55 -47 55 -115.5t-55 -118.5q-55 -47 -135 -47t-136 47q-56 49 -56 118t56 116z" />
    <glyph glyph-name="oslash" unicode="&#xf8;" horiz-adv-x="1318" 
d="M838 1126h227l-82 -172q122 -74 191 -190.5t69 -251.5q0 -221 -172 -377q-168 -155 -412 -155q-73 0 -133 14l-45 -96h-229l82 172q-120 74 -189 191t-69 251q0 221 170 377q171 155 413 155q74 0 134 -14zM430 512q0 -77 49 -141l174 368q-93 0 -158 -67t-65 -160z
M838 649l-172 -364q87 3 153 69t66 158q0 75 -47 137z" />
    <glyph glyph-name="ugrave" unicode="&#xf9;" horiz-adv-x="1292" 
d="M561 1487l246 -357h-309l-310 357h373zM1192 1024v-1024h-361v113q-171 -133 -374 -133q-163 0 -261 87.5t-98 249.5v707h361v-598q0 -73 38.5 -114.5t106.5 -41.5q129 0 227 82v672h361z" />
    <glyph glyph-name="uacute" unicode="&#xfa;" horiz-adv-x="1292" 
d="M1102 1487l-311 -357h-310l248 357h373zM1192 1024v-1024h-361v113q-171 -133 -374 -133q-163 0 -261 87.5t-98 249.5v707h361v-598q0 -73 38.5 -114.5t106.5 -41.5q129 0 227 82v672h361z" />
    <glyph glyph-name="ucircumflex" unicode="&#xfb;" horiz-adv-x="1292" 
d="M98 1024h361v-598q0 -73 38.5 -114.5t106.5 -41.5q129 0 227 82v672h361v-1024h-361v113q-171 -133 -374 -133q-163 0 -261 87.5t-98 249.5v707zM838 1487l249 -357h-296l-142 170l-141 -170h-299l252 357h377z" />
    <glyph glyph-name="udieresis" unicode="&#xfc;" horiz-adv-x="1292" 
d="M330 1432q43 43 107.5 43t105.5 -43q43 -41 43 -105.5t-43 -107.5q-41 -41 -105.5 -41t-107.5 41q-41 43 -41 107.5t41 105.5zM860 1178q-66 0 -107.5 41.5t-41.5 107.5q-4 46 23.5 83t68 53t87 9t77.5 -40q43 -40 43 -107q0 -63 -43.5 -105t-106.5 -42zM98 1024h361
v-598q0 -73 38.5 -114.5t106.5 -41.5q129 0 227 82v672h361v-1024h-361v113q-171 -133 -374 -133q-163 0 -261 87.5t-98 249.5v707z" />
    <glyph glyph-name="yacute" unicode="&#xfd;" horiz-adv-x="1255" 
d="M1102 1487l-309 -357h-310l246 357h373zM432 1024l219 -606l203 606h373l-426 -1116q-126 -328 -434 -328q-141 -3 -342 74l98 235q131 -52 209 -43q90 9 151 107l9 16l-439 1055h379z" />
    <glyph glyph-name="thorn" unicode="&#xfe;" horiz-adv-x="1345" 
d="M121 1434h360v-535q139 145 326 145q202 0 323 -151t121 -381t-121 -381t-323 -151q-190 0 -326 145v-524h-360v1833zM674 739q-61 0 -111.5 -29t-81.5 -81v-234q31 -52 81.5 -81t111.5 -29q90 0 155 65q68 68 68 162q0 95 -68 160q-64 67 -155 67z" />
    <glyph glyph-name="ydieresis" unicode="&#xff;" horiz-adv-x="1255" 
d="M332 1432q43 43 106.5 43t106.5 -43q43 -41 43 -105.5t-43 -107.5q-43 -41 -106.5 -41t-106.5 41q-43 43 -43 107.5t43 105.5zM860 1178q-63 0 -106 42t-43 107q-4 46 23.5 83t68 53t87 9t77.5 -40q43 -40 43 -107q0 -63 -43.5 -105t-106.5 -42zM854 1024h373l-426 -1116
q-126 -328 -434 -328q-141 -3 -342 74l98 235q131 -52 209 -43q90 9 151 107l9 16l-439 1055h379l219 -606z" />
    <glyph glyph-name="Amacron" unicode="&#x100;" horiz-adv-x="1740" 
d="M1223 1847v-223h-709v223h709zM1120 1434l572 -1434h-461l-92 252h-537l-92 -252h-461l567 1434h504zM868 1004l-163 -445h331z" />
    <glyph glyph-name="amacron" unicode="&#x101;" horiz-adv-x="1206" 
d="M664 1044q205 0 323.5 -96t118.5 -286v-662h-361v123q-140 -143 -342 -143q-145 0 -239 88q-92 89 -92 231q0 141 98.5 220t271.5 81h303v27q0 139 -180 139q-148 0 -297 -88l-102 229q241 134 498 137zM745 248v215h-161q-75 0 -115.5 -33t-40.5 -94q0 -66 37.5 -104.5
t99.5 -38.5q104 0 180 55zM1008 1438v-224h-707v224h707z" />
    <glyph glyph-name="Abreve" unicode="&#x102;" horiz-adv-x="1740" 
d="M1032 1905h238q0 -148 -115 -248q-116 -96 -278 -96q-165 0 -281 96q-115 100 -115 248h238q-7 -79 75 -112t163.5 0t74.5 112zM1120 1434l572 -1434h-461l-92 252h-537l-92 -252h-461l567 1434h504zM868 1004l-163 -445h331z" />
    <glyph glyph-name="abreve" unicode="&#x103;" horiz-adv-x="1206" 
d="M819 1495h238q0 -148 -115 -248q-116 -96 -280 -96q-165 0 -281 96q-113 98 -113 248h238q0 -59 45 -93t111 -34q69 0 112.5 34t44.5 93zM664 1044q205 0 323.5 -96t118.5 -286v-662h-361v123q-140 -143 -342 -143q-145 0 -239 88q-92 89 -92 231q0 141 98.5 220
t271.5 81h303v27q0 139 -180 139q-148 0 -297 -88l-102 229q241 134 498 137zM745 248v215h-161q-75 0 -115.5 -33t-40.5 -94q0 -66 37.5 -104.5t99.5 -38.5q104 0 180 55z" />
    <glyph glyph-name="Aogonek" unicode="&#x104;" horiz-adv-x="1740" 
d="M1120 1434l572 -1434h-265l-12 -16q-65 -92 -47 -150q15 -64 92 -67q37 -5 82 10l43 -162q-84 -37 -194 -37q-184 0 -234 109q-54 111 60 290l14 23l-92 252h-537l-92 -252h-461l567 1434h504zM868 1004l-163 -445h331z" />
    <glyph glyph-name="aogonek" unicode="&#x105;" horiz-adv-x="1206" 
d="M664 1044q205 0 323.5 -96t118.5 -286v-662l-166 -2l-12 -16q-66 -90 -47 -150q15 -62 92 -68q35 -5 82 11l43 -162q-81 -37 -195 -37q-183 0 -233 111q-55 110 59 288l16 25v123q-140 -143 -342 -143q-145 0 -239 88q-92 89 -92 231q0 141 98.5 220t271.5 81h303v27
q0 139 -180 139q-148 0 -297 -88l-102 229q241 134 498 137zM745 248v215h-161q-75 0 -115.5 -33t-40.5 -94q0 -66 37.5 -104.5t99.5 -38.5q104 0 180 55z" />
    <glyph glyph-name="Cacute" unicode="&#x106;" horiz-adv-x="1554" 
d="M860 1454q188 0 351 -84t268 -231l-334 -187q-107 140 -281 140q-153 0 -256 -109q-100 -106 -100 -266t100 -266q103 -109 256 -109q175 0 281 139l334 -186q-105 -147 -268 -231t-351 -84q-153 0 -292.5 58t-240.5 157t-161 235.5t-60 286.5q-3 117 35 230t109 204.5
t165 161t209.5 106.5t235.5 35zM1290 1896l-309 -356h-309l246 356h372z" />
    <glyph glyph-name="cacute" unicode="&#x107;" horiz-adv-x="1161" 
d="M1063 1487l-311 -357h-308l246 357h373zM635 1044q139 0 260.5 -62t200.5 -169l-275 -154q-68 80 -170 80q-91 0 -155 -67q-66 -66 -66 -160t65 -160.5t156 -66.5q105 0 172 82l275 -152q-79 -110 -201 -172.5t-262 -62.5q-148 -3 -279 69.5t-207.5 197t-72.5 265.5
q0 221 164 377q162 155 395 155z" />
    <glyph glyph-name="Cdotaccent" unicode="&#x10a;" horiz-adv-x="1554" 
d="M838 1884q66 0 107.5 -42t41.5 -105q4 -48 -23.5 -85.5t-68 -53t-87 -9t-77.5 38.5q-34 31 -41 77.5t9.5 87.5t54 68t84.5 23zM860 1454q188 0 351 -84t268 -231l-334 -187q-107 140 -281 140q-153 0 -256 -109q-100 -106 -100 -266t100 -266q103 -109 256 -109
q175 0 281 139l334 -186q-105 -147 -268 -231t-351 -84q-153 0 -292.5 58t-240.5 157t-161 235.5t-60 286.5q-3 117 35 230t109 204.5t165 161t209.5 106.5t235.5 35z" />
    <glyph glyph-name="cdotaccent" unicode="&#x10b;" horiz-adv-x="1161" 
d="M504 1432q43 43 106.5 43t106.5 -43q43 -41 43 -105.5t-43 -107.5q-43 -41 -106.5 -41t-106.5 41q-43 43 -43 107.5t43 105.5zM635 1044q139 0 260.5 -62t200.5 -169l-275 -154q-68 80 -170 80q-91 0 -155 -67q-66 -66 -66 -160t65 -160.5t156 -66.5q105 0 172 82
l275 -152q-75 -109 -198.5 -172t-264.5 -63q-233 0 -395 155q-164 156 -164 377t164 377q162 155 395 155z" />
    <glyph glyph-name="Ccaron" unicode="&#x10c;" horiz-adv-x="1554" 
d="M860 1454q188 0 351 -84t268 -231l-334 -187q-107 140 -281 140q-153 0 -256 -109q-100 -106 -100 -266t100 -266q103 -109 256 -109q175 0 281 139l334 -186q-105 -147 -268 -231t-351 -84q-153 0 -292.5 58t-240.5 157t-161 235.5t-60 286.5q-3 117 35 230t109 204.5
t165 161t209.5 106.5t235.5 35zM1276 1896l-250 -356h-377l-252 356h299l142 -170l141 170h297z" />
    <glyph glyph-name="ccaron" unicode="&#x10d;" horiz-adv-x="1161" 
d="M1049 1487l-252 -357h-377l-250 357h297l141 -170l142 170h299zM635 1044q139 0 260.5 -62t200.5 -169l-275 -154q-68 80 -170 80q-91 0 -155 -67q-66 -66 -66 -160q0 -93 66 -162q65 -65 155 -65q105 0 172 82l275 -152q-75 -109 -198.5 -172t-264.5 -63
q-233 0 -395 155q-164 156 -164 377t164 377q162 155 395 155z" />
    <glyph glyph-name="Dcaron" unicode="&#x10e;" horiz-adv-x="1636" 
d="M1161 1896l-252 -356h-377l-251 356h299l141 -170l141 170h299zM145 0v1434h617q153 3 295.5 -53t247 -152.5t165.5 -231.5t58 -282q4 -194 -100.5 -361t-282.5 -262.5t-383 -91.5h-617zM745 1090h-213v-746h213q162 0 275 107q115 109 115 266q0 155 -115 264t-275 109z
" />
    <glyph glyph-name="dcaron" unicode="&#x10f;" horiz-adv-x="1708" 
d="M1542 1454q68 0 117 -41.5t49 -101.5q0 -36 -22 -72l-232 -340l-90 41l102 244q-42 17 -67 51.5t-25 75.5q0 59 49 101t119 42zM846 1434h360v-1434h-360v125q-136 -145 -324 -145q-204 0 -325 151t-121 381t121 381t325 151q185 0 324 -145v535zM655 739q-93 0 -157 -67
q-66 -66 -66 -160q0 -93 66 -162q65 -65 157 -65q59 0 109.5 29.5t81.5 80.5v234q-31 51 -81.5 80.5t-109.5 29.5z" />
    <glyph glyph-name="Dcroat" unicode="&#x110;" horiz-adv-x="1652" 
d="M162 866v568h614q204 4 382.5 -91.5t284 -263.5t101.5 -364q4 -194 -101.5 -361t-284 -262.5t-382.5 -91.5h-614v567h-131v299h131zM549 567v-223h213q160 0 273.5 108.5t113.5 264.5q0 157 -113 264q-115 109 -274 109h-213v-224h213v-299h-213z" />
    <glyph glyph-name="dslash" unicode="&#x111;" horiz-adv-x="1316" 
d="M1343 1333v-223h-137v-1110h-360v125q-136 -145 -324 -145q-204 0 -325 151t-121 381t121 381t325 151q185 0 324 -145v211h-209v223h209v101h360v-101h137zM846 395v234q-31 51 -81.5 80.5t-109.5 29.5q-93 0 -158 -67t-65 -160t66 -162q65 -65 157 -65q58 0 108.5 30.5
t82.5 79.5z" />
    <glyph glyph-name="Emacron" unicode="&#x112;" horiz-adv-x="1404" 
d="M1081 1847v-223h-708v223h708zM1321 1434v-347h-789v-196h734v-330h-734v-215h801v-346h-1188v1434h1176z" />
    <glyph glyph-name="emacron" unicode="&#x113;" 
d="M612 1044q248 0 392 -153q145 -151 145 -379v-88h-725q4 -83 69.5 -133.5t161.5 -50.5q134 -3 224 84l188 -168q-185 -176 -444 -176q-144 -3 -271.5 69.5t-203 196.5t-72.5 266q0 220 157 377q155 155 379 155zM621 791q-80 0 -137.5 -58t-57.5 -141h387q0 87 -52.5 143
t-139.5 56zM965 1438v-224h-707v224h707z" />
    <glyph glyph-name="Edotaccent" unicode="&#x116;" horiz-adv-x="1404" 
d="M1321 1434v-347h-789v-196h734v-330h-734v-215h801v-346h-1188v1434h1176zM621 1841q43 43 107.5 43t105.5 -43q43 -41 43 -105.5t-43 -107.5q-41 -41 -105.5 -41t-107.5 41q-41 43 -41 107.5t41 105.5z" />
    <glyph glyph-name="edotaccent" unicode="&#x117;" 
d="M506 1432q43 43 106.5 43t106.5 -43q43 -41 43 -105.5t-43 -107.5q-43 -41 -106.5 -41t-106.5 41q-43 43 -43 107.5t43 105.5zM612 1044q248 0 392 -153q145 -151 145 -379v-88h-725q4 -83 69.5 -133.5t161.5 -50.5q134 -3 224 84l188 -168q-185 -176 -444 -176
q-144 -3 -271.5 69.5t-203 196.5t-72.5 266q0 220 157 377q155 155 379 155zM621 791q-80 0 -137.5 -58t-57.5 -141h387q0 87 -52.5 143t-139.5 56z" />
    <glyph glyph-name="Eogonek" unicode="&#x118;" horiz-adv-x="1404" 
d="M1321 1434v-347h-789v-196h734v-330h-734v-215h801v-346h-119l-14 -20q-51 -75 -35 -132q15 -61 92 -67q37 -5 82 10l43 -162q-84 -37 -194 -37q-184 0 -234 111q-53 108 52 277l12 20h-873v1434h1176z" />
    <glyph glyph-name="eogonek" unicode="&#x119;" 
d="M612 1044q248 0 392 -153q145 -151 145 -379v-88h-725q4 -83 69.5 -133.5t161.5 -50.5q134 -3 224 84l188 -168q-67 -64 -141 -103l-15 -18q-66 -90 -47 -150q15 -61 92 -67q39 -3 82 12l43 -164q-84 -37 -194 -37q-185 0 -234 111q-46 87 23 225l10 19q-54 -4 -82 -2
q-238 15 -383 163q-145 151 -145 367q0 220 157 377q155 155 379 155zM621 791q-80 0 -137.5 -58.5t-57.5 -140.5h387q0 87 -52.5 143t-139.5 56z" />
    <glyph glyph-name="Ecaron" unicode="&#x11a;" horiz-adv-x="1404" 
d="M1167 1896l-252 -356h-376l-252 356h299l141 -170l141 170h299zM1321 1434v-347h-789v-196h734v-330h-734v-215h801v-346h-1188v1434h1176z" />
    <glyph glyph-name="ecaron" unicode="&#x11b;" 
d="M1051 1487l-252 -357h-377l-250 357h297l141 -170l142 170h299zM612 1044q163 0 287 -72t187 -191.5t63 -268.5v-88h-725q4 -83 69.5 -133.5t161.5 -50.5q134 -3 224 84l188 -168q-185 -176 -444 -176q-225 0 -387 155q-160 157 -160 377t157 377q155 155 379 155z
M621 791q-80 0 -137.5 -58.5t-57.5 -140.5h387q0 87 -52.5 143t-139.5 56z" />
    <glyph glyph-name="Gbreve" unicode="&#x11e;" horiz-adv-x="1646" 
d="M997 1905h238q0 -148 -115 -248q-116 -96 -280 -96q-165 0 -281 96q-113 98 -113 248h238q-7 -79 74.5 -112t163.5 0t75 112zM899 1454q325 -3 563 -209l-252 -264q-134 119 -311 119q-165 -3 -278 -107t-113 -276q0 -158 103.5 -266.5t262.5 -108.5q146 0 269 72v135
h-244v274h612v-626q-275 -217 -637 -217q-153 -4 -296.5 55t-248 159.5t-166 238t-57.5 284.5q0 171 66 313.5t177 234.5t253 141.5t297 47.5z" />
    <glyph glyph-name="gbreve" unicode="&#x11f;" horiz-adv-x="1339" 
d="M864 1495h238q0 -148 -115 -248q-116 -96 -280 -96q-165 0 -281 96q-113 98 -113 248h238q-7 -79 75 -112t163.5 0t74.5 112zM528 1044q190 0 332 -145v125h361v-971q0 -127 -42 -221t-118 -149.5t-171.5 -82t-211.5 -26.5q-294 3 -574 152l103 233q209 -110 395 -113
q121 0 189.5 52.5t68.5 154.5v86q-127 -139 -332 -139q-203 0 -323.5 144.5t-120.5 369.5q0 228 121 379t323 151zM662 739q-92 0 -156 -67q-66 -66 -66 -160q0 -91 66 -160q65 -65 156 -65q63 0 114.5 32.5t83.5 88.5v223q-32 51 -84.5 79.5t-113.5 28.5z" />
    <glyph glyph-name="Gdotaccent" unicode="&#x120;" horiz-adv-x="1646" 
d="M834 1884q64 0 106.5 -42.5t42.5 -104.5q4 -48 -23.5 -85.5t-68 -53t-87 -9t-77.5 38.5q-32 31 -38.5 77.5t9 87.5t52.5 68t84 23zM899 1454q325 -3 563 -209l-252 -264q-134 119 -311 119q-165 -3 -278 -107t-113 -276q0 -158 102 -266q106 -109 264 -109q146 0 269 72
v135h-244v274h612v-626q-275 -217 -637 -217q-153 -4 -296.5 55t-248 159.5t-166 238t-57.5 284.5q0 171 66 313.5t177 234.5t253 141.5t297 47.5z" />
    <glyph glyph-name="gdotaccent" unicode="&#x121;" horiz-adv-x="1339" 
d="M594 1432q43 43 106.5 43t106.5 -43q43 -41 43 -105.5t-43 -107.5q-43 -41 -106.5 -41t-106.5 41q-41 43 -41 107.5t41 105.5zM528 1044q190 0 332 -145v125h361v-971q0 -126 -42 -220t-118 -149.5t-171.5 -82.5t-211.5 -27q-294 3 -574 152l103 233q209 -110 395 -113
q121 0 189.5 52.5t68.5 154.5v86q-127 -139 -332 -139q-206 0 -325 143t-119 371t121 379t323 151zM662 739q-92 0 -156 -67q-66 -66 -66 -160q0 -91 66 -160q65 -65 156 -65q63 0 116 32.5t82 88.5v223q-32 51 -84.5 79.5t-113.5 28.5z" />
    <glyph glyph-name="Gcommaaccent" unicode="&#x122;" horiz-adv-x="1646" 
d="M899 1454q325 -3 563 -209l-252 -264q-134 119 -311 119q-165 -3 -278 -107t-113 -276q0 -158 102 -266q106 -109 264 -109q146 0 269 72v135h-244v274h612v-626q-275 -217 -637 -217q-153 -4 -296.5 55t-248 159.5t-166 238t-57.5 284.5q0 171 66 313.5t177 234.5
t253 141.5t297 47.5zM1040 -252q0 -36 -22 -72l-232 -340l-90 41l103 244q-42 17 -67 51.5t-25 75.5q0 60 48.5 101.5t116.5 41.5q69 0 118.5 -41.5t49.5 -101.5z" />
    <glyph glyph-name="gcommaaccent" unicode="&#x123;" horiz-adv-x="1339" 
d="M743 1726l91 -40l-105 -244q43 -17 67.5 -51.5t24.5 -75.5q0 -60 -48.5 -102t-117.5 -42q-68 0 -117 42t-49 102q0 33 23 71zM528 1044q190 0 332 -145v125h361v-971q0 -127 -42 -221t-118 -149.5t-171.5 -82t-211.5 -26.5q-294 3 -574 152l103 233q209 -110 395 -113
q121 0 189.5 52.5t68.5 154.5v86q-127 -139 -332 -139q-203 0 -323.5 144.5t-120.5 369.5q0 228 121 379t323 151zM662 739q-92 0 -156 -67q-66 -66 -66 -160q0 -91 66 -160q65 -65 156 -65q63 0 114.5 32.5t83.5 88.5v223q-32 51 -84.5 79.5t-113.5 28.5z" />
    <glyph glyph-name="Hbar" unicode="&#x126;" horiz-adv-x="1648" 
d="M1630 1296v-241h-129v-1055h-385v549h-584v-549h-387v1055h-129v241h129v138h387v-138h584v138h385v-138h129zM1116 895v160h-584v-160h584z" />
    <glyph glyph-name="hbar" unicode="&#x127;" horiz-adv-x="1314" 
d="M856 1044q159 0 260 -87t101 -250v-707h-361v598q0 73 -39 114.5t-106 41.5q-129 0 -230 -82v-672h-360v1110h-129v223h129v101h360v-101h264v-223h-264v-199q174 133 375 133z" />
    <glyph glyph-name="Itilde" unicode="&#x128;" horiz-adv-x="677" 
d="M150 1884q58 10 93 3.5t109 -38.5q122 -49 174 -49q61 0 82 78l135 -14q18 -121 -24.5 -200.5t-124.5 -98.5q-59 -9 -93.5 -3t-111.5 37l-41 17q-76 29 -90 31q-21 6 -45 0q-59 -9 -74 -76l-137 14q-17 121 24 200.5t124 98.5zM551 1434v-1434h-387v1434h387z" />
    <glyph glyph-name="itilde" unicode="&#x129;" horiz-adv-x="606" 
d="M111 1475q56 10 91 3.5t111 -38.5q122 -49 172 -49q63 0 84 77l136 -14q15 -123 -26 -201.5t-126 -97.5q-60 -9 -93.5 -2.5t-111.5 37.5q-35 14 -41 16q-76 29 -90 31q-18 6 -45 0q-59 -9 -74 -76l-135 15q-17 121 24 200.5t124 98.5zM510 1024v-1024h-360v1024h360z" />
    <glyph glyph-name="Imacron" unicode="&#x12a;" horiz-adv-x="677" 
d="M532 1434v-1434h-387v1434h387zM705 1847v-223h-707v223h707z" />
    <glyph glyph-name="imacron" unicode="&#x12b;" horiz-adv-x="606" 
d="M670 1438v-224h-709v224h709zM496 1024v-1024h-361v1024h361z" />
    <glyph glyph-name="Iogonek" unicode="&#x12e;" horiz-adv-x="677" 
d="M532 1434v-1436l-16 -23q-65 -90 -47 -149q15 -62 92 -68q36 -3 82 13l43 -164q-84 -37 -194 -37q-184 0 -234 111q-57 111 57 290l19 27l-189 2v1434h387z" />
    <glyph glyph-name="iogonek" unicode="&#x12f;" horiz-adv-x="606" 
d="M311 1475q64 0 107 -43t43 -105q4 -48 -23.5 -85.5t-68 -52.5t-87 -8.5t-77.5 38.5q-32 31 -38.5 77.5t9 87.5t52 68t83.5 23zM492 1024v-1026l-17 -23q-65 -90 -47 -149q15 -62 92 -68q36 -3 82 13l43 -164q-84 -37 -194 -37q-185 0 -234 111q-57 111 57 290l17 25
l-160 4v1024h361z" />
    <glyph glyph-name="Idot" unicode="&#x130;" horiz-adv-x="677" 
d="M352 1884q63 0 106.5 -42.5t43.5 -104.5q4 -48 -23.5 -85.5t-68 -53t-87 -9t-77.5 38.5q-34 31 -41 77.5t9 87.5t53.5 68t84.5 23zM532 1434v-1434h-387v1434h387z" />
    <glyph glyph-name="dotlessi" unicode="&#x131;" horiz-adv-x="606" 
d="M492 1024v-1024h-361v1024h361z" />
    <glyph glyph-name="IJ" unicode="&#x132;" horiz-adv-x="1941" 
d="M1411 1434h385v-856q0 -170 -38.5 -288t-115 -185t-176 -96t-235.5 -29q-191 0 -315.5 56.5t-190.5 182.5l309 201q55 -88 176 -88q201 0 201 246v856zM532 1434v-1434h-387v1434h387z" />
    <glyph glyph-name="ij" unicode="&#x133;" horiz-adv-x="1224" 
d="M317 1440q80 0 134.5 -46.5t54.5 -113.5q4 -49 -31.5 -89t-86 -58t-108.5 -10.5t-96 44.5q-44 32 -52.5 81.5t12 92t68 72.5t105.5 27zM924 1440q79 0 133.5 -46t54.5 -114q0 -66 -55 -113t-133 -47t-133.5 47t-55.5 113t55.5 113t133.5 47zM498 1024v-1024h-361v1024
h361zM743 1024h361v-1092q0 -172 -99.5 -262t-261.5 -90q-116 0 -217 37l33 197q25 -7 45 -7q60 0 99.5 41t39.5 107v1069z" />
    <glyph glyph-name="Kcommaaccent" unicode="&#x136;" horiz-adv-x="1574" 
d="M1509 1434l-510 -598l525 -836h-494l-285 528l-215 -243v-285h-385v1434h385v-584l463 584h516zM965 -252q0 -38 -21 -72l-233 -340l-90 41l104 244q-42 17 -67 51.5t-25 75.5q0 60 48.5 101.5t117.5 41.5t117.5 -41.5t48.5 -101.5z" />
    <glyph glyph-name="kcommaaccent" unicode="&#x137;" horiz-adv-x="1277" 
d="M481 1434v-797l320 387h428l-336 -412l358 -612h-393l-215 352l-162 -170v-182h-360v1434h360zM819 -252q0 -36 -22 -72l-232 -340l-90 41l103 244q-42 17 -67.5 51.5t-25.5 75.5q0 60 49 101.5t117 41.5q69 0 118.5 -41.5t49.5 -101.5z" />
    <glyph glyph-name="Lacute" unicode="&#x139;" horiz-adv-x="1282" 
d="M532 1434v-1088h701v-346h-1088v1434h387zM1104 1896l-309 -356h-310l246 356h373z" />
    <glyph glyph-name="lacute" unicode="&#x13a;" horiz-adv-x="589" 
d="M776 1896l-311 -356h-307l245 356h373zM489 1434v-1434h-360v1434h360z" />
    <glyph glyph-name="Lcommaaccent" unicode="&#x13b;" horiz-adv-x="1282" 
d="M532 1434v-1088h701v-346h-1088v1434h387zM823 -252q0 -36 -22 -72l-232 -340l-90 41l105 244q-43 17 -67.5 51.5t-24.5 75.5q0 60 48 101.5t117 41.5t117.5 -41.5t48.5 -101.5z" />
    <glyph glyph-name="lcommaaccent" unicode="&#x13c;" horiz-adv-x="589" 
d="M489 1434v-1434h-360v1434h360zM483 -252q0 -36 -22 -72l-232 -340l-90 41l103 244q-39 15 -65.5 51.5t-26.5 75.5q0 60 48.5 101.5t116.5 41.5q69 0 118.5 -41.5t49.5 -101.5z" />
    <glyph glyph-name="Lcaron" unicode="&#x13d;" horiz-adv-x="1282" 
d="M1014 1454q68 0 117 -42.5t49 -100.5q0 -34 -23 -72l-231 -340l-90 41l102 244q-42 17 -66.5 51.5t-23.5 75.5q-4 58 46.5 100.5t119.5 42.5zM532 1434v-1088h701v-346h-1088v1434h387z" />
    <glyph glyph-name="lcaron" unicode="&#x13e;" horiz-adv-x="991" 
d="M823 1454q70 0 118 -41t48 -102q0 -37 -20 -70l-234 -342l-90 41l105 244q-42 19 -67.5 53t-25.5 74q0 60 49 101.5t117 41.5zM489 1434v-1434h-360v1434h360z" />
    <glyph glyph-name="Ldot" unicode="&#x13f;" horiz-adv-x="1282" 
d="M532 1434v-1088h701v-346h-1088v1434h387zM965 934q59 3 107 -27.5t69.5 -74.5t12.5 -95t-54 -86q-38 -37 -96.5 -44.5t-110 10.5t-87.5 59t-32 92q0 68 56.5 117t134.5 49z" />
    <glyph glyph-name="ldot" unicode="&#x140;" horiz-adv-x="1058" 
d="M489 1434v-1434h-360v1434h360zM668 885q57 49 135.5 49t134.5 -49q57 -47 57 -116t-57 -118q-56 -47 -134.5 -47t-135.5 47q-56 50 -56 118.5t56 115.5z" />
    <glyph glyph-name="Lslash" unicode="&#x141;" horiz-adv-x="1388" 
d="M584 346h700v-346h-1087v543l-160 -80v354l160 78v539h387v-349l172 84v-352l-172 -86v-385z" />
    <glyph glyph-name="lslash" unicode="&#x142;" horiz-adv-x="739" 
d="M698 1169v-352l-161 -84v-733h-361v545l-139 -74v354l139 74v535h361v-349z" />
    <glyph glyph-name="Nacute" unicode="&#x143;" horiz-adv-x="1624" 
d="M1300 1896l-309 -356h-309l248 356h370zM1489 1434v-1434h-399l-578 799v-799h-379v1434h397l580 -799v799h379z" />
    <glyph glyph-name="nacute" unicode="&#x144;" horiz-adv-x="1304" 
d="M1106 1487l-311 -357h-308l246 357h373zM846 1044q163 0 261.5 -87.5t98.5 -249.5v-707h-360v598q0 73 -39.5 114.5t-106.5 41.5q-128 0 -229 -82v-672h-360v1024h360v-113q174 133 375 133z" />
    <glyph glyph-name="Ncommaaccent" unicode="&#x145;" horiz-adv-x="1624" 
d="M1489 1434v-1434h-399l-578 799v-799h-379v1434h397l580 -799v799h379zM1022 -252q0 -34 -23 -72l-231 -340l-90 41l102 244q-40 15 -66 51t-26 76q0 60 49 101.5t117 41.5q69 0 118.5 -41.5t49.5 -101.5z" />
    <glyph glyph-name="ncommaaccent" unicode="&#x146;" horiz-adv-x="1304" 
d="M846 1044q103 0 183 -36t128.5 -113.5t48.5 -187.5v-707h-360v598q0 73 -39.5 114.5t-106.5 41.5q-128 0 -229 -82v-672h-360v1024h360v-113q174 133 375 133zM825 -252q0 -36 -22 -72l-232 -340l-90 41l105 244q-43 17 -67.5 51.5t-24.5 75.5q0 60 47.5 101.5
t115.5 41.5q69 0 118.5 -41.5t49.5 -101.5z" />
    <glyph glyph-name="Ncaron" unicode="&#x147;" horiz-adv-x="1624" 
d="M1288 1896l-252 -356h-377l-251 356h299l141 -170l141 170h299zM1489 1434v-1434h-399l-578 799v-799h-379v1434h397l580 -799v799h379z" />
    <glyph glyph-name="ncaron" unicode="&#x148;" horiz-adv-x="1304" 
d="M1092 1487l-252 -357h-377l-250 357h297l141 -170l142 170h299zM846 1044q163 0 261.5 -87.5t98.5 -249.5v-707h-360v598q0 74 -40 115t-106 41q-128 0 -229 -82v-672h-360v1024h360v-113q174 133 375 133z" />
    <glyph glyph-name="Eng" unicode="&#x14a;" horiz-adv-x="1624" 
d="M1110 1434h379l-2 -1342q0 -166 -38 -281.5t-113 -182t-173.5 -95.5t-232.5 -29q-188 0 -310 55.5t-188 180.5l303 197q60 -87 174 -87q155 0 189 150h-8l-578 799v-799h-379v1434h397l578 -799v53z" />
    <glyph glyph-name="eng" unicode="&#x14b;" horiz-adv-x="1304" 
d="M846 1044q163 0 261.5 -87.5t98.5 -249.5v-775q0 -172 -100 -262t-262 -90q-113 0 -217 37l35 197q24 -7 45 -7q58 0 98.5 41.5t40.5 106.5v643q0 73 -39.5 114.5t-106.5 41.5q-128 0 -229 -82v-672h-360v1024h360v-113q174 133 375 133z" />
    <glyph glyph-name="Omacron" unicode="&#x14c;" horiz-adv-x="1751" 
d="M487 1356q177 98 387 98q208 0 384.5 -98t279.5 -269q104 -168 104 -370q0 -200 -102 -370t-280 -269q-174 -98 -386 -98q-210 0 -387 98q-177 100 -278 268q-103 171 -103 371t101.5 370t279.5 269zM1135 983q-103 109 -263 109q-156 0 -262 -109q-102 -108 -102 -266
t102 -266q106 -109 262 -109q160 0 263 109q104 107 104 266t-104 266zM1227 1847v-223h-707v223h707z" />
    <glyph glyph-name="omacron" unicode="&#x14d;" horiz-adv-x="1318" 
d="M659 1044q154 3 290 -69.5t216.5 -196.5t77.5 -266q0 -221 -172 -377q-168 -155 -412 -155q-242 0 -413 155q-170 156 -170 377t170 377q171 155 413 155zM430 512q0 -94 66.5 -160.5t160.5 -66.5q92 0 160 65q68 68 68 162q0 95 -68 160q-47 53 -116.5 63.5t-130 -14.5
t-102.5 -82t-38 -127zM1012 1438v-224h-707v224h707z" />
    <glyph glyph-name="Ohungarumlaut" unicode="&#x150;" horiz-adv-x="1751" 
d="M1087 1896l-309 -356h-309l246 356h372zM1597 1896l-309 -356h-309l246 356h372zM874 1454q208 0 384.5 -98t279.5 -269q104 -168 104 -370q0 -203 -104 -371q-103 -171 -279.5 -268.5t-384.5 -97.5q-153 -4 -296.5 55t-248 159.5t-166 238t-57.5 284.5
q0 201 102.5 370.5t279 268t386.5 98.5zM874 342q158 0 261.5 109t103.5 266q0 159 -104 266q-103 109 -263 109q-156 0 -262 -109q-102 -108 -102 -266t102 -266q106 -109 264 -109z" />
    <glyph glyph-name="ohungarumlaut" unicode="&#x151;" horiz-adv-x="1318" 
d="M872 1487l-309 -357h-309l246 357h372zM1382 1487l-309 -357h-309l246 357h372zM246 889q171 155 413 155q244 0 412 -155q172 -156 172 -377t-172 -377q-168 -155 -412 -155q-242 0 -413 155q-170 156 -170 377t170 377zM657 739q-94 0 -161 -67q-66 -66 -66 -160
q0 -93 66 -162q68 -65 159 -65q94 0 162 67t68 160q0 92 -68 159.5t-160 67.5z" />
    <glyph glyph-name="OE" unicode="&#x152;" horiz-adv-x="2510" 
d="M1636 346h801v-346h-1186v74q-175 -94 -377 -94q-153 -4 -296.5 55t-248 159.5t-166 238t-57.5 284.5q-3 117 35.5 230t111 204.5t168 161t213.5 106.5t240 35q202 0 377 -94v74h1174v-347h-789v-196h734v-330h-734v-215zM610 451q106 -109 262 -109q160 0 263 109
q104 107 104 266t-104 266q-103 109 -263 109q-156 0 -262 -109q-102 -108 -102 -266t102 -266z" />
    <glyph glyph-name="oe" unicode="&#x153;" horiz-adv-x="2037" 
d="M1972 512v-88h-725q4 -83 70 -133.5t162 -50.5q133 -3 223 84l188 -168q-185 -176 -444 -176q-223 0 -381 149q-168 -149 -406 -149q-242 0 -413 155q-170 156 -170 377t170 377q171 155 413 155q236 0 404 -149q155 149 373 149q247 0 391 -153q145 -151 145 -379z
M1249 592h387q0 87 -52.5 143t-139.5 56q-80 0 -137.5 -58.5t-57.5 -140.5zM657 285q93 0 160.5 67t67.5 160q0 94 -67.5 160.5t-160.5 66.5q-94 0 -160.5 -66.5t-66.5 -160.5t66.5 -160.5t160.5 -66.5z" />
    <glyph glyph-name="Racute" unicode="&#x154;" horiz-adv-x="1531" 
d="M1264 1896l-310 -356h-309l246 356h373zM145 0v1434h646q349 0 502 -117.5t153 -380.5q0 -179 -69 -288.5t-216 -160.5l322 -487h-443l-278 438l-66 -2h-164v-436h-387zM811 1085h-279v-352h279q125 0 179 41.5t54 134.5q0 94 -54.5 135t-178.5 41z" />
    <glyph glyph-name="racute" unicode="&#x155;" horiz-adv-x="849" 
d="M897 1487l-311 -357h-307l245 357h373zM825 1044v-290q-200 0 -354 -183v-571h-360v1024h360v-188q75 99 168 153.5t186 54.5z" />
    <glyph glyph-name="Rcommaaccent" unicode="&#x156;" horiz-adv-x="1531" 
d="M145 0v1434h646q349 0 502 -117.5t153 -380.5q0 -179 -69 -288.5t-216 -160.5l322 -487h-443l-278 438l-66 -2h-164v-436h-387zM811 1085h-279v-352h279q126 0 179.5 41t53.5 135t-53.5 135t-179.5 41zM985 -252q0 -36 -22 -72l-234 -340l-90 41l104 244q-42 17 -67 51.5
t-25 75.5q0 60 49 101.5t117 41.5q69 0 118.5 -41.5t49.5 -101.5z" />
    <glyph glyph-name="rcommaaccent" unicode="&#x157;" horiz-adv-x="849" 
d="M825 1044v-290q-200 0 -354 -183v-571h-360v1024h360v-188q78 100 170 154t184 54zM616 -252q0 -36 -22 -72l-232 -340l-90 41l105 244q-43 17 -67.5 51.5t-24.5 75.5q0 60 48 101.5t116 41.5q69 0 118 -41.5t49 -101.5z" />
    <glyph glyph-name="Rcaron" unicode="&#x158;" horiz-adv-x="1531" 
d="M1249 1896l-250 -356h-376l-252 356h299l141 -170l141 170h297zM145 0v1434h646q349 0 502 -117.5t153 -380.5q0 -179 -69 -288.5t-216 -160.5l322 -487h-443l-278 438l-66 -2h-164v-436h-387zM811 1085h-279v-352h279q124 0 178.5 41t54.5 135t-54.5 135t-178.5 41z" />
    <glyph glyph-name="rcaron" unicode="&#x159;" horiz-adv-x="849" 
d="M881 1487l-252 -357h-377l-250 357h297l141 -170l142 170h299zM823 1044v-290q-200 0 -354 -183v-571h-360v1024h360v-188q75 99 168 153.5t186 54.5z" />
    <glyph glyph-name="Sacute" unicode="&#x15a;" horiz-adv-x="1452" 
d="M1186 1896l-309 -356h-310l246 356h373zM729 1454q351 0 617 -160l-162 -299q-121 61 -256.5 97t-241.5 36q-62 0 -98.5 -24t-36.5 -70q0 -36 43 -57q48 -23 205 -62q101 -26 139 -38q160 -50 229 -91q107 -58 154 -131q53 -82 53 -204q0 -225 -158.5 -348t-441.5 -123
q-406 0 -702 198l172 289q280 -158 575 -158q65 0 106.5 24.5t41.5 67.5q0 62 -45 82q-45 22 -232 68l-135 35q-136 34 -221 82q-106 60 -150 125q-51 81 -51 194q0 94 30 171.5t83.5 132t128.5 91.5t163.5 54.5t190.5 17.5z" />
    <glyph glyph-name="sacute" unicode="&#x15b;" horiz-adv-x="1069" 
d="M983 1487l-311 -357h-310l248 357h373zM524 1044q254 0 447 -114l-117 -219q-175 96 -330 96q-42 0 -68 -18t-26 -50q0 -25 26 -39.5t119 -40.5q85 -22 117 -32q125 -36 185 -82q57 -43 86.5 -97t29.5 -131q0 -160 -115.5 -248.5t-318.5 -88.5q-294 0 -510 143l125 209
q183 -115 383 -115q44 0 73 18.5t29 49.5q0 34 -21.5 47t-109.5 37l-30 8q-67 17 -113 33q-131 41 -178 77q-56 45 -84.5 96t-28.5 126q0 162 117 248.5t313 86.5z" />
    <glyph glyph-name="Scedilla" unicode="&#x15e;" horiz-adv-x="1452" 
d="M729 1454q351 0 617 -160l-162 -299q-121 61 -256.5 97t-241.5 36q-59 0 -97 -23t-38 -71q0 -36 43 -57q48 -23 205 -62q101 -26 139 -38q160 -50 229 -91q107 -58 154 -131q53 -82 53 -204q0 -196 -123 -314.5t-342 -146.5l-78 -8l-34 -70q31 3 65 -6q61 -19 98 -66
t37 -112q0 -96 -72 -149.5t-186 -53.5q-126 0 -227 55l47 127q48 -26 117 -26q48 1 77 27.5t31 64.5q0 32 -20.5 54t-54.5 23q-33 0 -58 -14l-41 39l54 109q-336 24 -592 194l172 289q280 -158 575 -158q65 0 106.5 24.5t41.5 67.5q0 62 -45 82q-45 22 -232 68l-135 35
q-136 34 -221 82q-106 60 -150 125q-51 81 -51 194q0 94 30 171.5t83.5 132t128.5 91.5t163.5 54.5t190.5 17.5z" />
    <glyph glyph-name="scedilla" unicode="&#x15f;" horiz-adv-x="1069" 
d="M524 1044q254 0 447 -114l-117 -219q-175 96 -330 96q-42 0 -68 -18t-26 -50q0 -26 24 -39t121 -41q74 -20 102.5 -28.5t70 -23.5t77.5 -34q84 -39 126 -100.5t42 -155.5q0 -144 -94.5 -229.5t-263.5 -103.5l-19 -2l-34 -70q32 3 65 -6q61 -19 98 -66t37 -112
q0 -96 -72 -149.5t-186 -53.5q-126 0 -227 55l47 127q51 -26 117 -26q50 1 79 27.5t29 64.5q2 32 -18.5 54t-54.5 23q-33 0 -58 -14l-43 39l56 111q-223 21 -402 137l125 209q183 -115 383 -115q44 0 73 18.5t29 49.5q0 34 -21.5 47t-109.5 37l-30 8q-158 43 -242 82
q-82 40 -119 97.5t-43 152.5q0 162 117 248.5t313 86.5z" />
    <glyph glyph-name="Scaron" unicode="&#x160;" horiz-adv-x="1452" 
d="M1171 1896l-249 -356h-377l-252 356h299l141 -170l141 170h297zM729 1454q351 0 617 -160l-162 -299q-120 62 -254 97.5t-244 35.5q-62 0 -98.5 -24t-36.5 -70q0 -36 43 -57q48 -23 205 -62q101 -26 139 -38q160 -50 229 -91q107 -58 154 -131q53 -82 53 -204
q0 -225 -158.5 -348t-441.5 -123q-406 0 -702 198l172 289q280 -158 575 -158q64 0 106 23.5t42 68.5q0 62 -45 82q-45 22 -232 68l-135 35q-136 34 -221 82q-106 60 -150 125q-51 81 -51 194q0 94 30 171.5t83.5 132t128.5 91.5t163.5 54.5t190.5 17.5z" />
    <glyph glyph-name="scaron" unicode="&#x161;" horiz-adv-x="1069" 
d="M969 1487l-252 -357h-377l-252 357h299l141 -170l142 170h299zM524 1044q254 0 447 -114l-117 -219q-175 96 -330 96q-42 0 -68 -18t-26 -50q0 -25 26 -39.5t119 -40.5q85 -22 117 -32q125 -36 185 -82q57 -43 86.5 -97t29.5 -131q0 -160 -115.5 -248.5t-318.5 -88.5
q-294 0 -510 143l125 209q183 -115 383 -115q44 0 73 18.5t29 49.5q0 34 -21.5 47t-109.5 37l-30 8q-158 43 -242 82q-82 40 -119 97.5t-43 152.5q0 162 117 248.5t313 86.5z" />
    <glyph glyph-name="Tcedilla" unicode="&#x162;" horiz-adv-x="1316" 
d="M1268 1434v-328h-416v-1108h-117l-43 -88q32 3 66 -6q61 -19 98 -66t37 -112q0 -95 -72 -148t-186 -53q-126 0 -227 55l47 125q53 -27 116 -27q51 3 80 29.5t29 63.5q0 32 -20 54t-56 23q-30 0 -55 -14l-43 39l61 125l-102 2v1106h-416v328h1219z" />
    <glyph glyph-name="tcedilla" unicode="&#x163;" horiz-adv-x="925" 
d="M539 1288v-264h252v-272h-252v-353q0 -63 37.5 -96t97.5 -33q67 0 135 41l45 -245q-81 -43 -156 -60q-70 -18 -141 -18l-37 -76q34 3 64 -6q63 -19 100 -66t37 -112q0 -95 -72.5 -148t-185.5 -53q-126 0 -227 55l45 125q51 -26 118 -26q48 0 77.5 28t29.5 64
q2 31 -18.5 53.5t-55.5 23.5q-32 0 -57 -14l-43 39l63 127q-102 33 -159.5 119.5t-57.5 214.5v416h-135v272h135v264h361z" />
    <glyph glyph-name="Tcaron" unicode="&#x164;" horiz-adv-x="1316" 
d="M1085 1896l-251 -356h-377l-252 356h299l141 -170l141 170h299zM1268 1434v-328h-416v-1106h-387v1106h-416v328h1219z" />
    <glyph glyph-name="tcaron" unicode="&#x165;" horiz-adv-x="1134" 
d="M930 1622q69 0 117.5 -40.5t48.5 -100.5q0 -37 -21 -72l-233 -342l-90 41l104 244q-92 42 -92 129q0 59 49 100t117 41zM539 1288v-264h249v-272h-249v-353q0 -62 37 -95.5t98 -33.5q67 0 135 41l45 -245q-157 -83 -319 -86q-159 -2 -258 92.5t-99 263.5v416h-135v272
h135v264h361z" />
    <glyph glyph-name="Tbar" unicode="&#x166;" horiz-adv-x="1316" 
d="M1268 1106h-416v-277h160v-221h-160v-608h-387v608h-160v221h160v277h-416v328h1219v-328z" />
    <glyph glyph-name="tbar" unicode="&#x167;" horiz-adv-x="925" 
d="M809 311l45 -245q-157 -83 -319 -86q-159 -2 -258 92.5t-99 263.5v84h-117v223h117v109h-135v272h135v264h361v-264h252v-272h-252v-109h231v-223h-231v-21q0 -62 37 -95.5t98 -33.5q67 0 135 41z" />
    <glyph glyph-name="Utilde" unicode="&#x168;" horiz-adv-x="1597" 
d="M584 1884q56 10 91 3.5t111 -38.5q122 -49 172 -49q63 0 84 78l136 -14q13 -121 -27 -200.5t-125 -98.5q-59 -9 -93.5 -3t-111.5 37q-1 0 -15.5 6.5t-25.5 10.5q-76 29 -90 31q-18 6 -45 0q-59 -9 -74 -76l-135 14q-17 122 23 201t125 98zM1077 1434h385v-775
q0 -338 -170.5 -508.5t-488.5 -170.5q-317 0 -487.5 170.5t-170.5 508.5v775h387v-775q0 -164 70.5 -245.5t202.5 -81.5t202 81.5t70 245.5v775z" />
    <glyph glyph-name="utilde" unicode="&#x169;" horiz-adv-x="1292" 
d="M428 1475q56 10 92.5 3t110.5 -38q122 -49 172 -49q63 0 84 77l135 -14q17 -120 -24.5 -200t-127.5 -99q-28 -5 -48 -6t-45 4t-46 12.5t-63 24.5l-41 16q-74 28 -92 31q-18 6 -43 0q-61 -9 -76 -76l-135 15q-17 121 23.5 200.5t123.5 98.5zM1192 1024v-1024h-361v113
q-171 -133 -374 -133q-163 0 -261 87.5t-98 249.5v707h361v-598q0 -73 38.5 -114.5t106.5 -41.5q129 0 227 82v672h361z" />
    <glyph glyph-name="Umacron" unicode="&#x16a;" horiz-adv-x="1597" 
d="M1077 1434h385v-775q0 -338 -170.5 -508.5t-488.5 -170.5q-317 0 -487.5 170.5t-170.5 508.5v775h387v-775q0 -164 70.5 -245.5t202.5 -81.5t202 81.5t70 245.5v775zM1155 1847v-223h-706v223h706z" />
    <glyph glyph-name="umacron" unicode="&#x16b;" horiz-adv-x="1292" 
d="M98 1024h361v-598q0 -73 38.5 -114.5t106.5 -41.5q129 0 227 82v672h361v-1024h-361v113q-171 -133 -374 -133q-163 0 -261 87.5t-98 249.5v707zM1001 1438v-224h-706v224h706z" />
    <glyph glyph-name="Uring" unicode="&#x16e;" horiz-adv-x="1597" 
d="M602 1925q82 82 201 82q116 0 198 -82q84 -81 84 -194t-84 -197q-83 -80 -198 -80q-118 0 -201 80q-82 82 -82 197t82 194zM883 1808q-32 32 -79 32t-79 -32t-32 -77.5t32 -77.5t79 -32t79 32t32 77.5t-32 77.5zM1077 1434h385v-775q0 -338 -170.5 -508.5t-488.5 -170.5
q-317 0 -487.5 170.5t-170.5 508.5v775h387v-775q0 -164 70.5 -245.5t202.5 -81.5t202 81.5t70 245.5v775z" />
    <glyph glyph-name="uring" unicode="&#x16f;" horiz-adv-x="1292" 
d="M449 1516q81 81 200 81q118 0 199 -81q84 -81 84 -195q0 -113 -84 -197q-83 -80 -199 -80q-117 0 -200 80q-82 82 -82 197q0 116 82 195zM727 1399q-32 32 -79 32t-79 -32t-32 -78t32 -78t79 -32t79 32t32 78t-32 78zM98 1024h361v-598q0 -73 38.5 -114.5t106.5 -41.5
q129 0 227 82v672h361v-1024h-361v113q-171 -133 -374 -133q-163 0 -261 87.5t-98 249.5v707z" />
    <glyph glyph-name="Uhungarumlaut" unicode="&#x170;" horiz-adv-x="1597" 
d="M1018 1896l-311 -356h-310l248 356h373zM1528 1896l-311 -356h-310l248 356h373zM1077 1434h385v-775q0 -338 -170.5 -508.5t-488.5 -170.5q-317 0 -487.5 170.5t-170.5 508.5v775h387v-775q0 -164 70.5 -245.5t202.5 -81.5q130 0 201 80t71 247v775z" />
    <glyph glyph-name="uhungarumlaut" unicode="&#x171;" horiz-adv-x="1292" 
d="M862 1487l-309 -357h-309l245 357h373zM1372 1487l-309 -357h-309l245 357h373zM98 1024h361v-598q0 -73 38.5 -114.5t106.5 -41.5q129 0 227 82v672h361v-1024h-361v113q-171 -133 -374 -133q-163 0 -261 87.5t-98 249.5v707z" />
    <glyph glyph-name="Uogonek" unicode="&#x172;" horiz-adv-x="1597" 
d="M1077 1434h385v-775q0 -443 -288 -598l-19 -22q-66 -90 -47 -150q15 -61 92 -67q38 -6 84 10l43 -162q-84 -37 -197 -37q-184 0 -233 111q-43 88 25 227l10 19q-65 -10 -127 -10q-318 0 -489 170.5t-171 508.5v775h387v-775q0 -164 70.5 -245.5t202.5 -81.5t202 81.5
t70 245.5v775z" />
    <glyph glyph-name="uogonek" unicode="&#x173;" horiz-adv-x="1292" 
d="M98 1024h361v-598q0 -74 39 -115t106 -41q129 0 227 82v672h361v-1026l-170 -2l-8 -12q-63 -87 -47 -150q15 -61 92 -67q41 -3 84 12l43 -162q-84 -37 -197 -37q-184 0 -231 109q-57 112 57 291l16 22v111q-171 -133 -374 -133q-163 0 -261 87.5t-98 249.5v707z" />
    <glyph glyph-name="Wcircumflex" unicode="&#x174;" horiz-adv-x="2349" 
d="M1364 1896l252 -356h-299l-141 170l-142 -170h-299l252 356h377zM2300 1434l-471 -1434h-395l-258 825l-261 -825h-395l-471 1434h432l256 -832l250 832h377l248 -832l256 832h432z" />
    <glyph glyph-name="wcircumflex" unicode="&#x175;" horiz-adv-x="1710" 
d="M1038 1487l252 -357h-299l-141 170l-141 -170h-297l252 357h374zM1681 1024l-303 -1024h-387l-137 489l-139 -489h-387l-303 1024h358l156 -635l176 635h276l176 -635l156 635h358z" />
    <glyph glyph-name="Ycircumflex" unicode="&#x176;" horiz-adv-x="1624" 
d="M1575 1434l-569 -940v-494h-388v487l-569 947h463l303 -533l303 533h457zM1001 1896l250 -356h-297l-141 170l-141 -170h-299l252 356h376z" />
    <glyph glyph-name="ycircumflex" unicode="&#x177;" horiz-adv-x="1255" 
d="M838 1487l252 -357h-299l-142 170l-141 -170h-299l252 357h377zM854 1024h373l-426 -1116q-126 -328 -434 -328q-141 -3 -342 74l98 235q131 -52 209 -43q90 9 151 107l9 16l-439 1055h379l219 -606z" />
    <glyph glyph-name="Ydieresis" unicode="&#x178;" horiz-adv-x="1624" 
d="M602 1884q62 0 105 -43t43 -104q4 -48 -23 -85.5t-68 -53t-87.5 -9t-77.5 38.5q-32 31 -38.5 77.5t8.5 87.5t52.5 68t85.5 23zM918 1841q43 43 106 43t106 -43q43 -41 43 -105.5t-43 -107.5q-43 -41 -106 -41t-106 41q-43 43 -43 107.5t43 105.5zM1575 1434l-569 -940
v-494h-388v487l-569 947h463l303 -533l303 533h457z" />
    <glyph glyph-name="Zacute" unicode="&#x179;" horiz-adv-x="1411" 
d="M1311 1434v-271l-686 -823h710v-340h-1263v276l663 818h-616v340h1192zM1155 1896l-309 -356h-309l245 356h373z" />
    <glyph glyph-name="zacute" unicode="&#x17a;" horiz-adv-x="1105" 
d="M1020 1024v-233l-453 -502h473v-289h-981v233l453 502h-410v289h918zM1024 1487l-309 -357h-309l245 357h373z" />
    <glyph glyph-name="Zdotaccent" unicode="&#x17b;" horiz-adv-x="1411" 
d="M596 1841q43 43 106.5 43t106.5 -43q43 -41 43 -105.5t-43 -107.5q-43 -41 -106.5 -41t-106.5 41q-43 43 -43 107.5t43 105.5zM1311 1434v-271l-686 -823h710v-340h-1263v276l663 818h-616v340h1192z" />
    <glyph glyph-name="zdotaccent" unicode="&#x17c;" horiz-adv-x="1105" 
d="M465 1432q43 43 106.5 43t106.5 -43q43 -41 43 -105.5t-43 -107.5q-43 -41 -106.5 -41t-106.5 41q-43 43 -43 107.5t43 105.5zM1020 1024v-233l-453 -502h473v-289h-981v233l453 502h-410v289h918z" />
    <glyph glyph-name="Zcaron" unicode="&#x17d;" horiz-adv-x="1411" 
d="M1141 1896l-252 -356h-375l-252 356h299l139 -170l142 170h299zM1311 1434v-271l-686 -823h710v-340h-1263v276l663 818h-616v340h1192z" />
    <glyph glyph-name="zcaron" unicode="&#x17e;" horiz-adv-x="1105" 
d="M1010 1487l-252 -357h-375l-252 357h297l141 -170l142 170h299zM1020 1024v-233l-453 -502h473v-289h-981v233l453 502h-410v289h918z" />
    <glyph glyph-name="florin" unicode="&#x192;" horiz-adv-x="831" 
d="M551 1454q132 0 287 -47l-45 -221q-71 26 -131 26q-58 0 -92.5 -31t-34.5 -91v-193h256v-272h-256v-693q0 -158 -87 -240.5t-233 -88.5q-80 -15 -172 -2v209q61 4 96 43t35 102v670h-131v272h131v203q0 96 30.5 167t84 110.5t119 58t143.5 18.5z" />
    <glyph glyph-name="Ohorn" unicode="&#x1a0;" horiz-adv-x="1751" 
d="M1460 1513h352v-73q0 -127 -79 -221q-78 -97 -199 -127q108 -172 108 -375q3 -147 -59 -284.5t-166.5 -238t-247.5 -159.5t-295 -55q-153 -4 -296.5 55t-248 159.5t-166 238t-57.5 284.5q0 201 102.5 370.5t279 268t386.5 98.5q292 0 504 -188q37 17 59.5 51.5t22.5 75.5
v120zM508 717q0 -158 103.5 -266.5t262.5 -108.5q158 0 261 109q104 107 104 266t-104 266q-103 109 -263 109q-156 0 -262 -109q-102 -108 -102 -266z" />
    <glyph glyph-name="ohorn" unicode="&#x1a1;" horiz-adv-x="1318" 
d="M1067 1130h350v-73q0 -109 -61 -198.5t-162 -131.5q49 -101 49 -215q0 -221 -172 -377q-168 -155 -412 -155q-242 0 -413 155q-170 156 -170 377t170 377q171 155 413 155q213 0 369 -129q39 39 39 93v122zM817 672q-67 68 -160 68t-161 -68q-66 -66 -66 -160
q0 -93 66 -162q68 -66 161 -66t160 66q68 68 68 162q0 95 -68 160z" />
    <glyph glyph-name="Uhorn" unicode="&#x1af;" horiz-adv-x="1597" 
d="M1595 1513h314v-73q0 -333 -447 -357v-424q0 -338 -170.5 -508.5t-488.5 -170.5q-317 0 -487.5 170.5t-170.5 508.5v775h387v-775q0 -164 70.5 -245.5t202.5 -81.5q130 0 201 80t71 247v775h385v-183q56 5 94.5 46t38.5 96v120z" />
    <glyph glyph-name="uhorn" unicode="&#x1b0;" horiz-adv-x="1292" 
d="M1300 1130h279v-73q0 -165 -90.5 -251t-296.5 -104v-702h-361v113q-171 -133 -374 -133q-163 0 -261 87.5t-98 249.5v707h361v-598q0 -74 39 -115t106 -41q129 0 227 82v672h361v-154q47 12 77.5 50t30.5 88v122z" />
    <glyph glyph-name="Acaron" unicode="&#x1cd;" horiz-adv-x="1740" 
d="M1309 1896l-252 -356h-377l-252 356h299l141 -170l142 170h299zM1120 1434l572 -1434h-461l-92 252h-537l-92 -252h-461l567 1434h504zM868 1004l-163 -445h331z" />
    <glyph glyph-name="acaron" unicode="&#x1ce;" horiz-adv-x="1206" 
d="M1094 1487l-250 -357h-377l-252 357h299l141 -170l142 170h297zM664 1044q205 0 323.5 -96t118.5 -286v-662h-361v123q-140 -143 -342 -143q-145 0 -239 88q-92 89 -92 231q0 141 98.5 220t271.5 81h303v27q0 139 -180 139q-148 0 -297 -88l-102 229q241 134 498 137z
M745 248v215h-161q-75 0 -115.5 -33t-40.5 -94q0 -66 37.5 -104.5t99.5 -38.5q104 0 180 55z" />
    <glyph glyph-name="Icaron" unicode="&#x1cf;" horiz-adv-x="677" 
d="M791 1896l-252 -356h-377l-250 356h297l141 -170l142 170h299zM532 1434v-1434h-387v1434h387z" />
    <glyph glyph-name="icaron" unicode="&#x1d0;" horiz-adv-x="606" 
d="M756 1487l-252 -357h-377l-252 357h299l141 -170l142 170h299zM496 1024v-1024h-361v1024h361z" />
    <glyph glyph-name="Ocaron" unicode="&#x1d1;" horiz-adv-x="1751" 
d="M1313 1896l-252 -356h-377l-252 356h299l141 -170l142 170h299zM487 1356q177 98 387 98q208 0 384.5 -98t279.5 -269q104 -168 104 -370q0 -200 -102 -370t-280 -269q-174 -98 -386 -98q-210 0 -387 98q-177 100 -278 268q-103 171 -103 371t101.5 370t279.5 269z
M1135 983q-103 109 -263 109q-156 0 -262 -109q-102 -108 -102 -266t102 -266q106 -109 262 -109q160 0 263 109q104 107 104 266t-104 266z" />
    <glyph glyph-name="ocaron" unicode="&#x1d2;" horiz-adv-x="1318" 
d="M1098 1487l-252 -357h-377l-250 357h297l141 -170l142 170h299zM246 889q171 155 413 155q244 0 412 -155q172 -156 172 -377t-172 -377q-168 -155 -412 -155q-242 0 -413 155q-170 156 -170 377t170 377zM430 512q0 -94 66.5 -160.5t160.5 -66.5q92 0 160 65
q68 68 68 162q0 95 -68 160q-47 53 -116.5 63.5t-130 -14.5t-102.5 -82t-38 -127z" />
    <glyph glyph-name="Ucaron" unicode="&#x1d3;" horiz-adv-x="1597" 
d="M1241 1896l-250 -356h-377l-252 356h300l141 -170l141 170h297zM1077 1434h385v-775q0 -338 -170.5 -508.5t-488.5 -170.5q-317 0 -487.5 170.5t-170.5 508.5v775h387v-775q0 -164 70.5 -245.5t202.5 -81.5q130 0 201 80t71 247v775z" />
    <glyph glyph-name="ucaron" unicode="&#x1d4;" horiz-adv-x="1292" 
d="M1087 1487l-251 -357h-377l-252 357h299l141 -170l141 170h299zM98 1024h361v-598q0 -73 38.5 -114.5t106.5 -41.5q129 0 227 82v672h361v-1024h-361v113q-171 -133 -374 -133q-163 0 -261 87.5t-98 249.5v707z" />
    <glyph glyph-name="Udieresismacron" unicode="&#x1d5;" horiz-adv-x="1597" 
d="M1155 2173v-223h-706v223h706zM592 1552q-63 0 -106.5 43t-43.5 107q-4 47 23.5 84.5t68 53.5t87 9t77.5 -41q34 -31 41 -77.5t-9 -87t-53.5 -68t-84.5 -23.5zM1014 1851q47 4 84.5 -23.5t53.5 -68t9 -87t-41 -77.5q-31 -34 -77 -41t-86 9.5t-67.5 54t-23.5 84.5
q0 62 42.5 105.5t105.5 43.5zM1077 1434h385v-775q0 -338 -170.5 -508.5t-488.5 -170.5q-317 0 -487.5 170.5t-170.5 508.5v775h387v-775q0 -164 70.5 -245.5t202.5 -81.5t202 81.5t70 245.5v775z" />
    <glyph glyph-name="udieresismacron" unicode="&#x1d6;" horiz-adv-x="1292" 
d="M1001 1759v-223h-706v223h706zM330 1423q43 43 107.5 43t105.5 -43q43 -41 43 -105.5t-43 -107.5q-41 -41 -105.5 -41t-107.5 41q-41 43 -41 107.5t41 105.5zM860 1169q-66 0 -107.5 42t-41.5 108q-4 46 23.5 83t68 52.5t87 8.5t77.5 -40q43 -40 43 -106
q0 -63 -43.5 -105.5t-106.5 -42.5zM98 1024h361v-598q0 -73 38.5 -114.5t106.5 -41.5q129 0 227 82v672h361v-1024h-361v113q-171 -133 -374 -133q-163 0 -261 87.5t-98 249.5v707z" />
    <glyph glyph-name="Udieresisacute" unicode="&#x1d7;" horiz-adv-x="1597" 
d="M1255 2288l-309 -357h-309l246 357h372zM592 1552q-63 0 -106.5 43t-43.5 107q-4 47 23.5 84.5t68 53.5t87 9t77.5 -41q34 -31 41 -77.5t-9 -87t-53.5 -68t-84.5 -23.5zM907 1808q43 43 106.5 43t106.5 -43t43 -106.5t-43 -106.5t-106.5 -43t-106.5 43q-41 43 -41 106.5
t41 106.5zM1077 1434h385v-775q0 -338 -170.5 -508.5t-488.5 -170.5q-317 0 -487.5 170.5t-170.5 508.5v775h387v-775q0 -164 70.5 -245.5t202.5 -81.5t202 81.5t70 245.5v775z" />
    <glyph glyph-name="udieresisacute" unicode="&#x1d8;" horiz-adv-x="1292" 
d="M1102 1880l-311 -356h-310l248 356h373zM330 1423q43 43 107.5 43t105.5 -43q43 -41 43 -105.5t-43 -107.5q-41 -41 -105.5 -41t-107.5 41q-41 43 -41 107.5t41 105.5zM860 1169q-66 0 -107.5 42t-41.5 108q-4 46 23.5 83t68 52.5t87 8.5t77.5 -40q43 -40 43 -106
q0 -63 -43.5 -105.5t-106.5 -42.5zM98 1024h361v-598q0 -73 38.5 -114.5t106.5 -41.5q129 0 227 82v672h361v-1024h-361v113q-171 -133 -374 -133q-163 0 -261 87.5t-98 249.5v707z" />
    <glyph glyph-name="Udieresiscaron" unicode="&#x1d9;" horiz-adv-x="1597" 
d="M1241 2288l-250 -357h-377l-252 357h300l141 -170l141 170h297zM485 1808q43 43 106.5 43t106.5 -43t43 -106.5t-43 -106.5t-106.5 -43t-106.5 43t-43 106.5t43 106.5zM1014 1552q-62 0 -105 43t-43 107q-4 47 23.5 84.5t67.5 53.5t86 9t77 -41q34 -31 41 -77.5t-9 -87
t-53.5 -68t-84.5 -23.5zM1077 1434h385v-775q0 -338 -170.5 -508.5t-488.5 -170.5q-317 0 -487.5 170.5t-170.5 508.5v775h387v-775q0 -164 70.5 -245.5t202.5 -81.5t202 81.5t70 245.5v775z" />
    <glyph glyph-name="udieresiscaron" unicode="&#x1da;" horiz-adv-x="1292" 
d="M1087 1880l-251 -356h-377l-252 356h299l141 -170l141 170h299zM330 1423q43 43 107.5 43t105.5 -43q43 -41 43 -105.5t-43 -107.5q-41 -41 -105.5 -41t-107.5 41q-41 43 -41 107.5t41 105.5zM860 1169q-64 0 -106.5 42.5t-42.5 107.5q-4 46 23.5 83t68 52.5t87 8.5
t77.5 -40q43 -40 43 -106q0 -63 -43.5 -105.5t-106.5 -42.5zM98 1024h361v-598q0 -73 38.5 -114.5t106.5 -41.5q129 0 227 82v672h361v-1024h-361v113q-171 -133 -374 -133q-163 0 -261 87.5t-98 249.5v707z" />
    <glyph glyph-name="Udieresisgrave" unicode="&#x1db;" horiz-adv-x="1597" 
d="M715 2288l248 -357h-310l-309 357h371zM592 1552q-63 0 -106.5 43t-43.5 107q-4 47 23.5 84.5t68 53.5t87 9t77.5 -41q34 -31 41 -77.5t-9 -87t-53.5 -68t-84.5 -23.5zM907 1808q43 43 106.5 43t106.5 -43t43 -106.5t-43 -106.5t-106.5 -43t-106.5 43q-41 43 -41 106.5
t41 106.5zM1077 1434h385v-775q0 -338 -170.5 -508.5t-488.5 -170.5q-317 0 -487.5 170.5t-170.5 508.5v775h387v-775q0 -164 70.5 -245.5t202.5 -81.5t202 81.5t70 245.5v775z" />
    <glyph glyph-name="udieresisgrave" unicode="&#x1dc;" horiz-adv-x="1292" 
d="M561 1880l246 -356h-309l-310 356h373zM330 1423q43 43 107.5 43t105.5 -43q43 -41 43 -105.5t-43 -107.5q-41 -41 -105.5 -41t-107.5 41q-41 43 -41 107.5t41 105.5zM860 1169q-66 0 -107.5 42t-41.5 108q-4 46 23.5 83t68 52.5t87 8.5t77.5 -40q43 -40 43 -106
q0 -63 -43.5 -105.5t-106.5 -42.5zM98 1024h361v-598q0 -73 38.5 -114.5t106.5 -41.5q129 0 227 82v672h361v-1024h-361v113q-171 -133 -374 -133q-163 0 -261 87.5t-98 249.5v707z" />
    <glyph glyph-name="Adieresismacron" unicode="&#x1de;" horiz-adv-x="1740" 
d="M1223 2154v-223h-709v223h709zM551 1808q43 43 106.5 43t106.5 -43t43 -106.5t-43 -106.5t-106.5 -43t-106.5 43q-41 43 -41 106.5t41 106.5zM973 1808q43 43 107.5 43t105.5 -43q43 -43 43 -106.5t-43 -106.5q-41 -43 -105.5 -43t-107.5 43q-41 43 -41 106.5t41 106.5z
M1120 1434l572 -1434h-461l-92 252h-537l-92 -252h-461l567 1434h504zM868 1004l-163 -445h331z" />
    <glyph glyph-name="adieresismacron" unicode="&#x1df;" horiz-adv-x="1206" 
d="M1008 1759v-223h-707v223h707zM338 1432q43 43 106.5 43t106.5 -43q43 -41 43 -105.5t-43 -107.5q-43 -41 -106.5 -41t-106.5 41q-43 43 -43 107.5t43 105.5zM866 1178q-62 0 -104.5 42.5t-42.5 106.5q-4 46 23.5 83t67.5 53t86 9t77 -40q43 -40 43 -107
q0 -63 -43.5 -105t-106.5 -42zM664 1044q205 0 323.5 -96t118.5 -286v-662h-361v123q-140 -143 -342 -143q-145 0 -239 88q-92 89 -92 231q0 141 98.5 220t271.5 81h303v27q0 139 -180 139q-148 0 -297 -88l-102 229q241 134 498 137zM745 248v215h-161q-75 0 -115.5 -33
t-40.5 -94q0 -66 37.5 -104.5t99.5 -38.5q104 0 180 55z" />
    <glyph glyph-name="Gcaron" unicode="&#x1e6;" horiz-adv-x="1646" 
d="M1274 1896l-252 -356h-377l-252 356h299l142 -170l141 170h299zM899 1454q325 -3 563 -209l-252 -264q-134 119 -311 119q-165 -3 -278 -107t-113 -276q0 -158 102 -266q106 -109 264 -109q146 0 269 72v135h-244v274h612v-626q-275 -217 -637 -217q-210 0 -386.5 98.5
t-279 268t-102.5 370.5q0 171 66 313.5t177 234.5t253 141.5t297 47.5z" />
    <glyph glyph-name="gcaron" unicode="&#x1e7;" horiz-adv-x="1339" 
d="M1141 1487l-252 -357h-377l-252 357h299l141 -170l142 170h299zM528 1044q190 0 332 -145v125h361v-971q0 -127 -42 -221t-118 -149.5t-171.5 -82t-211.5 -26.5q-294 3 -574 152l103 233q209 -110 395 -113q121 0 189.5 52.5t68.5 154.5v86q-127 -139 -332 -139
q-203 0 -323.5 144.5t-120.5 369.5q0 228 121 379t323 151zM662 739q-91 0 -156.5 -66t-65.5 -159t66 -162q65 -65 156 -65q63 0 114.5 32.5t83.5 88.5v223q-32 51 -84.5 79.5t-113.5 28.5z" />
    <glyph glyph-name="Oslashacute" unicode="&#x1fe;" horiz-adv-x="1751" 
d="M1284 1896l-309 -356h-309l245 356h373zM1104 1536h319l-104 -219q151 -104 237 -261.5t86 -338.5q3 -147 -59 -284.5t-166.5 -238t-247.5 -159.5t-295 -55q-98 0 -182 20l-49 -102h-317l102 219q-151 104 -236.5 261.5t-85.5 338.5q-3 117 35.5 230t111 204.5t168 161
t213.5 106.5t240 35q97 0 181 -20zM508 717q0 -146 88 -250l297 625h-19q-158 0 -264 -109q-102 -108 -102 -266zM1151 967l-295 -625h18q158 0 261 109q104 107 104 266q0 146 -88 250z" />
    <glyph glyph-name="oslashacute" unicode="&#x1ff;" horiz-adv-x="1318" 
d="M1044 1487l-311 -357h-307l246 357h372zM838 1126h227l-82 -172q122 -74 191 -190.5t69 -251.5q0 -221 -172 -377q-168 -155 -412 -155q-73 0 -133 14l-45 -96h-229l82 172q-120 74 -189 191t-69 251q0 221 170 377q171 155 413 155q74 0 134 -14zM430 512q0 -77 49 -141
l174 368q-93 0 -158 -67t-65 -160zM838 649l-172 -364q87 3 153 69t66 158q0 75 -47 137z" />
    <glyph glyph-name="Scommaaccent" unicode="&#x218;" horiz-adv-x="1452" 
d="M729 1454q351 0 617 -160l-162 -299q-120 62 -254 97.5t-244 35.5q-62 0 -98.5 -24t-36.5 -70q0 -36 43 -57q48 -23 205 -62q101 -26 139 -38q160 -50 229 -91q107 -58 154 -131q53 -82 53 -204q0 -225 -158.5 -348t-441.5 -123q-406 0 -702 198l172 289
q280 -158 575 -158q65 0 106.5 24.5t41.5 67.5q0 62 -45 82q-45 22 -232 68l-135 35q-136 34 -221 82q-106 60 -150 125q-51 81 -51 194q0 94 30 171.5t83.5 132t128.5 91.5t163.5 54.5t190.5 17.5zM954 -252q0 -39 -20 -72l-234 -340l-90 41l105 244q-42 17 -67 51.5
t-25 75.5q0 60 48.5 101.5t116.5 41.5q69 0 117.5 -41.5t48.5 -101.5z" />
    <glyph glyph-name="scommaaccent" unicode="&#x219;" horiz-adv-x="1069" 
d="M524 1044q254 0 447 -114l-117 -219q-175 96 -330 96q-42 0 -68 -18t-26 -50q0 -25 26 -39.5t119 -40.5q85 -22 117 -32q125 -36 185 -82q57 -43 86.5 -97t29.5 -131q0 -160 -115.5 -248.5t-318.5 -88.5q-294 0 -510 143l125 209q183 -115 383 -115q44 0 73 18.5t29 49.5
q0 34 -21.5 47t-109.5 37l-30 8q-158 43 -242 82q-82 40 -119 97.5t-43 152.5q0 162 117 248.5t313 86.5zM547 -109q68 0 117 -42.5t49 -100.5q0 -34 -23 -72l-231 -340l-90 41l104 244q-43 17 -67.5 51.5t-24.5 75.5q0 60 48.5 101.5t117.5 41.5z" />
    <glyph glyph-name="uni021A" unicode="&#x21a;" horiz-adv-x="1316" 
d="M1268 1434v-328h-416v-1106h-387v1106h-416v328h1219zM819 -252q0 -36 -22 -72l-232 -340l-90 41l103 244q-42 17 -67.5 51.5t-25.5 75.5q0 60 49 101.5t117 41.5q69 0 118.5 -41.5t49.5 -101.5z" />
    <glyph glyph-name="uni021B" unicode="&#x21b;" horiz-adv-x="925" 
d="M539 1288v-264h252v-272h-252v-353q0 -62 37 -95.5t98 -33.5q67 0 135 41l45 -245q-157 -83 -319 -86q-159 -2 -258 92.5t-99 263.5v416h-135v272h135v264h361zM649 -252q0 -39 -20 -72l-234 -340l-90 41l105 244q-42 17 -67.5 51.5t-25.5 75.5q0 60 49 101.5t117 41.5
q69 0 117.5 -41.5t48.5 -101.5z" />
    <glyph glyph-name="uni0228" unicode="&#x228;" horiz-adv-x="1404" 
d="M1321 1434v-347h-789v-196h734v-330h-734v-215h801v-346h-454l-43 -88q32 3 65 -6q61 -19 98 -66t37 -112q0 -97 -74.5 -150t-183.5 -53q-126 0 -227 55l47 127q48 -26 117 -26q48 1 77 27.5t31 64.5q0 71 -75 77q-31 0 -56 -14l-43 39l62 125h-566v1434h1176z" />
    <glyph glyph-name="uni0229" unicode="&#x229;" 
d="M612 1044q248 0 392 -153q145 -151 145 -379v-88h-725q4 -83 69.5 -133.5t161.5 -50.5q134 -3 224 84l188 -168q-134 -128 -326 -164l-55 -8l-37 -72q36 3 66 -6q60 -19 97.5 -66.5t37.5 -111.5q0 -97 -73.5 -150t-182.5 -53q-128 0 -229 55l47 127q51 -26 118 -26
q48 1 77.5 27.5t29.5 64.5q2 31 -18.5 53.5t-55.5 23.5q-32 0 -57 -14l-43 39l57 115q-189 34 -316.5 182t-127.5 340q0 220 157 377q155 155 379 155zM621 791q-80 0 -137.5 -58.5t-57.5 -140.5h387q0 87 -52.5 143t-139.5 56z" />
    <glyph glyph-name="uni022A" unicode="&#x22a;" horiz-adv-x="1751" 
d="M1227 2179v-223h-707v223h707zM664 1876q46 4 83 -23t52.5 -68t8.5 -87.5t-40 -77.5q-30 -32 -76.5 -38.5t-87 9t-67.5 53t-23 85.5q0 62 43 104.5t107 42.5zM1085 1579q-66 0 -107.5 42t-41.5 108q-4 46 23.5 83t68 52.5t87 8.5t77.5 -40q43 -40 43 -107
q0 -63 -43.5 -105t-106.5 -42zM487 1356q177 98 387 98q208 0 384.5 -98t279.5 -269q104 -168 104 -370q0 -200 -102 -370t-280 -269q-174 -98 -386 -98q-210 0 -387 98q-177 100 -278 268q-103 171 -103 371t101.5 370t279.5 269zM1135 983q-103 109 -263 109
q-156 0 -262 -109q-102 -108 -102 -266t102 -266q106 -109 262 -109q160 0 263 109q104 107 104 266t-104 266z" />
    <glyph glyph-name="uni022B" unicode="&#x22b;" horiz-adv-x="1318" 
d="M1012 1759v-223h-707v223h707zM449 1466q62 0 105.5 -42.5t43.5 -104.5q4 -48 -23.5 -85.5t-68 -53t-87 -9t-77.5 38.5q-34 31 -41 77.5t9.5 87.5t54 68t84.5 23zM870 1466q47 4 84.5 -23t54 -68t9.5 -87.5t-41 -77.5q-31 -32 -77.5 -38.5t-87 9t-68 53t-23.5 85.5
q0 62 43 104.5t106 42.5zM246 889q171 155 413 155q244 0 412 -155q172 -156 172 -377t-172 -377q-168 -155 -412 -155q-242 0 -413 155q-170 156 -170 377t170 377zM657 739q-93 0 -160 -67t-67 -160t66 -162q68 -66 161 -66t160 66q68 68 68 162q0 95 -68 160
q-67 67 -160 67z" />
    <glyph glyph-name="circumflex" unicode="&#x2c6;" horiz-adv-x="1001" 
d="M690 1487l250 -357h-297l-141 170l-142 -170h-299l252 357h377z" />
    <glyph glyph-name="caron" unicode="&#x2c7;" horiz-adv-x="1001" 
d="M938 1487l-250 -357h-377l-252 357h299l142 -170l141 170h297z" />
    <glyph glyph-name="breve" unicode="&#x2d8;" horiz-adv-x="923" 
d="M616 1485h240q-3 -149 -117 -248q-116 -96 -278 -96q-165 0 -281 96q-114 99 -114 248h237q1 -59 45 -93t113 -34t112 34t43 93z" />
    <glyph glyph-name="dotaccent" unicode="&#x2d9;" horiz-adv-x="432" 
d="M106 1432q43 43 107.5 43t105.5 -43q43 -41 43 -105.5t-43 -107.5q-41 -41 -105.5 -41t-107.5 41q-41 43 -41 107.5t41 105.5z" />
    <glyph glyph-name="ring" unicode="&#x2da;" horiz-adv-x="700" 
d="M348 1597q116 0 199.5 -80.5t83.5 -195.5q0 -113 -84 -197q-83 -80 -199 -80q-118 0 -201 80q-81 81 -81 197q0 117 81 195q81 81 201 81zM426 1399q-32 32 -79 32t-79 -32t-32 -78t32 -78t79 -32t79 32t32 78t-32 78z" />
    <glyph glyph-name="ogonek" unicode="&#x2db;" horiz-adv-x="581" 
d="M219 10h199l-19 -24q-66 -90 -47 -150q15 -61 92 -67q39 -6 82 12l43 -164q-84 -37 -194 -37q-185 0 -234 111q-57 111 58 291z" />
    <glyph glyph-name="tilde" unicode="&#x2dc;" horiz-adv-x="888" 
d="M236 1475q56 10 91 3.5t111 -38.5q122 -49 172 -49q63 0 84 77l135 -14q15 -123 -26 -201.5t-125 -97.5q-60 -9 -93.5 -2.5t-111.5 37.5q-35 14 -41 16q-76 29 -90 31q-18 6 -45 0q-59 -9 -74 -76l-135 15q-17 121 24 200.5t124 98.5z" />
    <glyph glyph-name="hungarumlaut" unicode="&#x2dd;" horiz-adv-x="1263" 
d="M684 1487l-309 -357h-309l245 357h373zM1194 1487l-309 -357h-310l246 357h373z" />
    <glyph glyph-name="dotbelowcomb" unicode="&#x323;" horiz-adv-x="0" 
d="M362 -350q0 -63 -42.5 -106.5t-104.5 -43.5q-48 -4 -85.5 23.5t-53 68t-9 87t38.5 77.5q31 34 77.5 41t87.5 -9t68 -53.5t23 -84.5z" />
    <glyph glyph-name="uni0326" unicode="&#x326;" horiz-adv-x="0" 
d="M387 -252q0 -36 -22 -72l-232 -340l-90 41l102 244q-42 17 -67 51.5t-25 75.5q0 60 49 101.5t117 41.5q69 0 118.5 -41.5t49.5 -101.5z" />
    <glyph glyph-name="uni032D" unicode="&#x32d;" horiz-adv-x="0" 
d="M690 -143l250 -357h-297l-141 170l-142 -170h-299l252 357h377z" />
    <glyph glyph-name="uni0331" unicode="&#x331;" horiz-adv-x="0" 
d="M772 -184v-224h-706v224h706z" />
    <glyph glyph-name="increment" unicode="&#x394;" horiz-adv-x="1228" 
 />
    <glyph glyph-name="Omega" unicode="&#x3a9;" horiz-adv-x="1228" 
 />
    <glyph glyph-name="mu" unicode="&#x3bc;" horiz-adv-x="1228" 
 />
    <glyph glyph-name="pi" unicode="&#x3c0;" horiz-adv-x="1228" 
 />
    <glyph glyph-name="Bdotbelow" unicode="&#x1e04;" horiz-adv-x="1519" 
d="M145 0v1434h775q224 0 345.5 -94t120.5 -271q0 -232 -208 -317q135 -41 201.5 -136t66.5 -225q0 -62 -15 -116.5t-51.5 -106t-91.5 -88t-140.5 -58.5t-193.5 -22h-809zM532 1120v-266h273q87 0 133.5 34t46.5 99q0 133 -180 133h-273zM532 598v-285h326q94 0 140 39.5
t46 104.5q0 61 -44.5 101t-141.5 40h-326zM606 -244q43 43 107.5 43t105.5 -43q43 -43 43 -106.5t-43 -106.5q-41 -43 -105.5 -43t-107.5 43q-41 43 -41 106.5t41 106.5z" />
    <glyph glyph-name="bdotbelow" unicode="&#x1e05;" horiz-adv-x="1316" 
d="M111 1434h360v-535q139 145 326 145q202 0 323 -151t121 -381t-121 -381t-323 -151q-190 0 -326 145v-125h-360v1434zM664 739q-61 0 -111.5 -29t-81.5 -81v-234q31 -52 81.5 -81t111.5 -29q90 0 155 65q68 68 68 162q0 95 -68 160q-64 67 -155 67zM549 -244
q43 43 106.5 43t106.5 -43t43 -106.5t-43 -106.5t-106.5 -43t-106.5 43t-43 106.5t43 106.5z" />
    <glyph glyph-name="Ddotbelow" unicode="&#x1e0c;" horiz-adv-x="1636" 
d="M145 0v1434h617q153 3 295.5 -53t247 -152.5t165.5 -231.5t58 -282q4 -194 -100.5 -361t-282.5 -262.5t-383 -91.5h-617zM745 1090h-213v-746h213q162 0 275 107q115 109 115 266q0 155 -115 264t-275 109zM614 -244q43 43 106.5 43t104.5 -43q43 -43 43 -106.5
t-43 -106.5q-41 -43 -104.5 -43t-106.5 43t-43 106.5t43 106.5z" />
    <glyph glyph-name="ddotbelow" unicode="&#x1e0d;" horiz-adv-x="1316" 
d="M846 1434h360v-1434h-360v125q-136 -145 -324 -145q-204 0 -325 151t-121 381t121 381t325 151q185 0 324 -145v535zM655 739q-93 0 -157 -67q-66 -66 -66 -160q0 -93 66 -162q65 -65 157 -65q58 0 108.5 30.5t82.5 79.5v234q-31 51 -81.5 80.5t-109.5 29.5zM567 -244
q43 43 106.5 43t106.5 -43t43 -106.5t-43 -106.5t-106.5 -43t-106.5 43t-43 106.5t43 106.5z" />
    <glyph glyph-name="Dlinebelow" unicode="&#x1e0e;" horiz-adv-x="1636" 
d="M145 0v1434h617q153 3 295.5 -53t247 -152.5t165.5 -231.5t58 -282q4 -194 -100.5 -361t-282.5 -262.5t-383 -91.5h-617zM745 1090h-213v-746h213q162 0 275 107q115 109 115 266q0 155 -115 264t-275 109zM1073 -184v-224h-706v224h706z" />
    <glyph glyph-name="dlinebelow" unicode="&#x1e0f;" horiz-adv-x="1316" 
d="M846 1434h360v-1434h-360v125q-136 -145 -324 -145q-204 0 -325 151t-121 381t121 381t325 151q185 0 324 -145v535zM655 739q-93 0 -157 -67q-66 -66 -66 -160q0 -93 66 -162q65 -65 157 -65q58 0 108.5 30.5t82.5 79.5v234q-31 51 -81.5 80.5t-109.5 29.5zM1028 -184
v-224h-709v224h709z" />
    <glyph glyph-name="Dcircumflexbelow" unicode="&#x1e12;" horiz-adv-x="1636" 
d="M145 0v1434h617q153 3 295.5 -53t247 -152.5t165.5 -231.5t58 -282q4 -194 -100.5 -361t-282.5 -262.5t-383 -91.5h-617zM745 1090h-213v-746h213q162 0 275 107q115 109 115 266q0 155 -115 264t-275 109zM909 -143l250 -357h-297l-141 170l-141 -170h-299l251 357h377z
" />
    <glyph glyph-name="dcircumflexbelow" unicode="&#x1e13;" horiz-adv-x="1316" 
d="M846 1434h360v-1434h-360v125q-136 -145 -324 -145q-204 0 -325 151t-121 381t121 381t325 151q185 0 324 -145v535zM655 739q-93 0 -157 -67q-66 -66 -66 -160q0 -93 66 -162q65 -65 157 -65q58 0 108.5 30.5t82.5 79.5v234q-31 51 -81.5 80.5t-109.5 29.5zM862 -143
l252 -357h-299l-141 170l-142 -170h-299l252 357h377z" />
    <glyph glyph-name="Hdotbelow" unicode="&#x1e24;" horiz-adv-x="1648" 
d="M1501 1434v-1434h-385v549h-584v-549h-387v1434h387v-539h584v539h385zM743 -244q43 43 106.5 43t106.5 -43t43 -106.5t-43 -106.5t-106.5 -43t-106.5 43t-43 106.5t43 106.5z" />
    <glyph glyph-name="hdotbelow" unicode="&#x1e25;" horiz-adv-x="1314" 
d="M121 1434h360v-523q174 133 375 133q159 0 260 -87t101 -250v-707h-361v598q0 73 -39 114.5t-106 41.5q-129 0 -230 -82v-672h-360v1434zM600 -244q43 43 106.5 43t106.5 -43t43 -106.5t-43 -106.5t-106.5 -43t-106.5 43t-43 106.5t43 106.5z" />
    <glyph glyph-name="Idieresisacute" unicode="&#x1e2e;" horiz-adv-x="677" 
d="M807 2288l-311 -357h-308l246 357h373zM143 1851q64 0 106 -43t42 -106q4 -47 -23.5 -84.5t-67.5 -54t-86 -9.5t-77 41q-34 31 -41 77.5t9 87t53.5 68t84.5 23.5zM459 1808q43 43 106.5 43t106.5 -43t43 -106.5t-43 -106.5t-106.5 -43t-106.5 43t-43 106.5t43 106.5z
M535 1434v-1434h-388v1434h388z" />
    <glyph glyph-name="idieresisacute" unicode="&#x1e2f;" horiz-adv-x="606" 
d="M766 1880l-309 -356h-310l246 356h373zM-2 1423q41 43 104.5 43t106.5 -43q43 -41 43 -105.5t-43 -107.5q-43 -41 -106.5 -41t-104.5 41q-43 43 -43 107.5t43 105.5zM524 1169q-62 0 -104.5 43t-42.5 107q-4 46 23 83t67.5 52.5t87 8.5t76.5 -40q33 -30 40 -76.5
t-8.5 -87t-53 -67.5t-85.5 -23zM494 1024v-1024h-361v1024h361z" />
    <glyph glyph-name="Ldotbelow" unicode="&#x1e36;" horiz-adv-x="1282" 
d="M532 1434v-1088h701v-346h-1088v1434h387zM545 -244q43 43 106.5 43t106.5 -43t43 -106.5t-43 -106.5t-106.5 -43t-106.5 43t-43 106.5t43 106.5z" />
    <glyph glyph-name="ldotbelow" unicode="&#x1e37;" horiz-adv-x="589" 
d="M489 1434v-1434h-360v1434h360zM311 -201q62 0 105 -42.5t43 -106.5q4 -47 -23 -84.5t-68 -54t-87.5 -9.5t-77.5 41q-32 31 -38.5 77.5t8.5 87t52.5 68t85.5 23.5z" />
    <glyph glyph-name="Lcircumflexbelow" unicode="&#x1e3c;" horiz-adv-x="1282" 
d="M532 1434v-1088h701v-346h-1088v1434h387zM840 -143l252 -357h-299l-142 170l-141 -170h-299l252 357h377z" />
    <glyph glyph-name="lcircumflexbelow" unicode="&#x1e3d;" horiz-adv-x="589" 
d="M502 -143l250 -357h-297l-142 170l-141 -170h-299l252 357h377zM492 1434v-1434h-361v1434h361z" />
    <glyph glyph-name="Macute" unicode="&#x1e3e;" horiz-adv-x="2035" 
d="M1466 1896l-311 -356h-307l246 356h372zM1890 1434v-1434h-379v920l-432 -730h-131l-432 730v-920h-381v1434h506l373 -615l370 615h506z" />
    <glyph glyph-name="macute" unicode="&#x1e3f;" horiz-adv-x="1974" 
d="M1495 1487l-311 -357h-307l245 357h373zM834 1044q206 0 292 -147q101 82 191.5 114.5t200.5 32.5q157 0 257.5 -87t100.5 -250v-707h-360v598q0 73 -39 114.5t-105 41.5q-109 0 -203 -66q5 -117 5 -123v-565h-361v598q0 74 -38 115t-105 41q-105 0 -199 -66v-688h-360
v1024h360v-123q165 143 363 143z" />
    <glyph glyph-name="Ndotaccent" unicode="&#x1e44;" horiz-adv-x="1624" 
d="M1489 1434v-1434h-399l-578 799v-799h-379v1434h397l580 -799v799h379zM741 1841q43 43 107.5 43t105.5 -43q43 -41 43 -105.5t-43 -107.5q-41 -41 -105.5 -41t-107.5 41q-41 43 -41 107.5t41 105.5z" />
    <glyph glyph-name="ndotaccent" unicode="&#x1e45;" horiz-adv-x="1304" 
d="M547 1432q43 43 106.5 43t106.5 -43q43 -41 43 -105.5t-43 -107.5q-43 -41 -106.5 -41t-106.5 41q-43 43 -43 107.5t43 105.5zM846 1044q103 0 183 -36t128.5 -113.5t48.5 -187.5v-707h-360v598q0 73 -39.5 114.5t-106.5 41.5q-128 0 -229 -82v-672h-360v1024h360v-113
q174 133 375 133z" />
    <glyph glyph-name="Ndotbelow" unicode="&#x1e46;" horiz-adv-x="1624" 
d="M1489 1434v-1434h-399l-578 799v-799h-379v1434h397l580 -799v799h379zM741 -244q43 43 107.5 43t105.5 -43q43 -43 43 -106.5t-43 -106.5q-41 -43 -105.5 -43t-107.5 43q-41 43 -41 106.5t41 106.5z" />
    <glyph glyph-name="ndotbelow" unicode="&#x1e47;" horiz-adv-x="1304" 
d="M846 1044q103 0 183 -36t128.5 -113.5t48.5 -187.5v-707h-360v598q0 73 -39.5 114.5t-106.5 41.5q-128 0 -229 -82v-672h-360v1024h360v-113q174 133 375 133zM547 -244q43 43 106.5 43t106.5 -43t43 -106.5t-43 -106.5t-106.5 -43t-106.5 43t-43 106.5t43 106.5z" />
    <glyph glyph-name="Ncircumflexbelow" unicode="&#x1e4a;" horiz-adv-x="1624" 
d="M1489 1434v-1434h-399l-578 799v-799h-379v1434h397l580 -799v799h379zM1036 -143l252 -357h-297l-141 170l-141 -170h-299l252 357h374z" />
    <glyph glyph-name="ncircumflexbelow" unicode="&#x1e4b;" horiz-adv-x="1304" 
d="M846 1044q103 0 183 -36t128.5 -113.5t48.5 -187.5v-707h-360v598q0 73 -39.5 114.5t-106.5 41.5q-128 0 -229 -82v-672h-360v1024h360v-113q174 133 375 133zM842 -143l252 -357h-299l-142 170l-141 -170h-299l252 357h377z" />
    <glyph glyph-name="Otildeacute" unicode="&#x1e4c;" horiz-adv-x="1751" 
d="M1327 2251l-311 -357h-309l247 357h373zM653 1839q54 8 92.5 1t110.5 -36q119 -51 172 -51q63 0 84 78l135 -14q17 -120 -24 -200t-127 -99q-55 -8 -92.5 -1.5t-110.5 35.5l-41 17q-52 21 -68 24q-55 19 -67 9q-61 -9 -76 -78l-135 16q-17 120 23.5 199t123.5 100z
M487 1356q177 98 387 98q208 0 384.5 -98t279.5 -269q104 -168 104 -370q0 -200 -102 -370t-280 -269q-174 -98 -386 -98q-210 0 -387 98q-177 100 -278 268q-103 171 -103 371t101.5 370t279.5 269zM1135 983q-103 109 -263 109q-156 0 -262 -109q-102 -108 -102 -266
t102 -266q106 -109 262 -109q160 0 263 109q104 107 104 266t-104 266z" />
    <glyph glyph-name="otildeacute" unicode="&#x1e4d;" horiz-adv-x="1318" 
d="M1112 1878l-309 -356h-309l245 356h373zM440 1466q55 10 91.5 3.5t109.5 -37.5q124 -53 174 -50q61 0 82 78l137 -16q15 -119 -27.5 -199.5t-123.5 -99.5q-56 -7 -93.5 -0.5t-111.5 37.5l-41 14q-84 32 -90 33q-21 6 -45 0q-58 -9 -74 -76l-137 14q-14 122 25.5 201
t123.5 98zM246 889q171 155 413 155q244 0 412 -155q172 -156 172 -377t-172 -377q-168 -155 -412 -155q-242 0 -413 155q-170 156 -170 377t170 377zM817 672q-67 68 -160 68t-161 -68q-66 -66 -66 -160q0 -93 66 -162q68 -66 161 -66t160 66q68 68 68 162q0 95 -68 160z
" />
    <glyph glyph-name="Omacrongrave" unicode="&#x1e50;" horiz-adv-x="1751" 
d="M786 2251l246 -355h-309l-309 355h372zM1227 1776v-224h-707v224h707zM487 1356q177 98 387 98q208 0 384.5 -98t279.5 -269q104 -168 104 -370q0 -200 -102 -370t-280 -269q-174 -98 -386 -98q-210 0 -387 98q-177 100 -278 268q-103 171 -103 371t101.5 370t279.5 269z
M1135 983q-103 109 -263 109q-156 0 -262 -109q-102 -108 -102 -266t102 -266q106 -109 262 -109q160 0 263 109q104 107 104 266t-104 266z" />
    <glyph glyph-name="omacrongrave" unicode="&#x1e51;" horiz-adv-x="1318" 
d="M571 1876l246 -354h-307l-311 354h372zM1012 1427v-223h-707v223h707zM659 1044q154 3 290 -69.5t216.5 -196.5t77.5 -266q0 -221 -172 -377q-168 -155 -412 -155q-242 0 -413 155q-170 156 -170 377t170 377q171 155 413 155zM657 739q-93 0 -160 -67t-67 -160
q0 -94 66.5 -160.5t160.5 -66.5q92 0 160 65q68 68 68 162q0 95 -68 160q-67 67 -160 67z" />
    <glyph glyph-name="Omacronacute" unicode="&#x1e52;" horiz-adv-x="1751" 
d="M1327 2251l-311 -355h-309l247 355h373zM1227 1776v-224h-707v224h707zM874 1454q208 0 384.5 -98t279.5 -269q104 -168 104 -370q0 -203 -104 -371q-103 -171 -279.5 -268.5t-384.5 -97.5q-153 -4 -296.5 55t-248 159.5t-166 238t-57.5 284.5q0 201 102.5 370.5t279 268
t386.5 98.5zM874 342q158 0 261.5 109t103.5 266q0 159 -104 266q-103 109 -263 109q-156 0 -262 -109q-102 -108 -102 -266t102 -266q106 -109 264 -109z" />
    <glyph glyph-name="omacronacute" unicode="&#x1e53;" horiz-adv-x="1318" 
d="M1112 1878l-309 -356h-309l245 356h373zM1012 1427v-223h-707v223h707zM246 889q171 155 413 155q244 0 412 -155q172 -156 172 -377t-172 -377q-168 -155 -412 -155q-242 0 -413 155q-170 156 -170 377t170 377zM817 672q-67 68 -160 68t-161 -68q-66 -66 -66 -160
q0 -93 66 -162q68 -66 161 -66t160 66q68 68 68 162q0 95 -68 160z" />
    <glyph glyph-name="Sdotbelow" unicode="&#x1e62;" horiz-adv-x="1452" 
d="M729 1454q351 0 617 -160l-162 -299q-120 62 -254 97.5t-244 35.5q-62 0 -98.5 -24t-36.5 -70q0 -36 43 -57q48 -23 205 -62q101 -26 139 -38q160 -50 229 -91q107 -58 154 -131q53 -82 53 -204q0 -225 -158.5 -348t-441.5 -123q-406 0 -702 198l172 289
q280 -158 575 -158q65 0 106.5 24.5t41.5 67.5q0 62 -45 82q-45 22 -232 68l-135 35q-136 34 -221 82q-106 60 -150 125q-51 81 -51 194q0 94 30 171.5t83.5 132t128.5 91.5t163.5 54.5t190.5 17.5zM676 -244q43 43 106.5 43t106.5 -43t43 -106.5t-43 -106.5t-106.5 -43
t-106.5 43q-41 43 -41 106.5t41 106.5z" />
    <glyph glyph-name="sdotbelow" unicode="&#x1e63;" horiz-adv-x="1069" 
d="M524 1044q254 0 447 -114l-117 -219q-175 96 -330 96q-42 0 -68 -18t-26 -50q0 -25 26 -39.5t119 -40.5q85 -22 117 -32q125 -36 185 -82q57 -43 86.5 -97t29.5 -131q0 -160 -115.5 -248.5t-318.5 -88.5q-294 0 -510 143l125 209q183 -115 383 -115q44 0 73 18.5t29 49.5
q0 34 -21.5 47t-109.5 37l-30 8q-158 43 -242 82q-82 40 -119 97.5t-43 152.5q0 162 117 248.5t313 86.5zM434 -244q43 43 106.5 43t106.5 -43t43 -106.5t-43 -106.5t-106.5 -43t-106.5 43t-43 106.5t43 106.5z" />
    <glyph glyph-name="Tdotbelow" unicode="&#x1e6c;" horiz-adv-x="1316" 
d="M1268 1434v-328h-416v-1106h-387v1106h-416v328h1219zM795 -350q0 -63 -43 -106.5t-107 -43.5q-47 -4 -83.5 23.5t-52 68t-9 87t38.5 77.5q31 34 77.5 41t87.5 -9t68 -53.5t23 -84.5z" />
    <glyph glyph-name="tdotbelow" unicode="&#x1e6d;" horiz-adv-x="925" 
d="M539 1288v-264h252v-272h-252v-353q0 -62 37 -95.5t98 -33.5q67 0 135 41l45 -245q-157 -83 -319 -86q-159 -2 -258 92.5t-99 263.5v416h-135v272h135v264h361zM371 -244q43 43 106.5 43t106.5 -43t43 -106.5t-43 -106.5t-106.5 -43t-106.5 43t-43 106.5t43 106.5z" />
    <glyph glyph-name="Tlinebelow" unicode="&#x1e6e;" horiz-adv-x="1316" 
d="M1268 1434v-328h-416v-1106h-387v1106h-416v328h1219zM999 -184v-224h-706v224h706z" />
    <glyph glyph-name="tlinebelow" unicode="&#x1e6f;" horiz-adv-x="925" 
d="M539 1288v-264h252v-272h-252v-353q0 -62 37 -95.5t98 -33.5q67 0 135 41l45 -245q-157 -83 -319 -86q-159 -2 -258 92.5t-99 263.5v416h-135v272h135v264h361zM831 -184v-222h-706v222h706z" />
    <glyph glyph-name="Tcircumflexbelow" unicode="&#x1e70;" horiz-adv-x="1316" 
d="M1268 1434v-328h-416v-1106h-387v1106h-416v328h1219zM834 -143l251 -357h-299l-141 170l-141 -170h-297l250 357h377z" />
    <glyph glyph-name="tcircumflexbelow" unicode="&#x1e71;" horiz-adv-x="925" 
d="M539 1288v-264h252v-272h-252v-353q0 -62 37 -95.5t98 -33.5q67 0 135 41l45 -245q-157 -83 -319 -86q-159 -2 -258 92.5t-99 263.5v416h-135v272h135v264h361zM666 -143l252 -357h-300l-141 170l-141 -170h-299l252 357h377z" />
    <glyph glyph-name="Wgrave" unicode="&#x1e80;" horiz-adv-x="2349" 
d="M1087 1896l248 -356h-309l-309 356h370zM2300 1434l-471 -1434h-395l-258 825l-261 -825h-395l-471 1434h432l256 -832l250 832h377l248 -832l256 832h432z" />
    <glyph glyph-name="wgrave" unicode="&#x1e81;" horiz-adv-x="1710" 
d="M1681 1024l-303 -1024h-387l-137 489l-139 -489h-387l-303 1024h358l156 -635l176 635h276l176 -635l156 635h358zM764 1487l246 -357h-310l-309 357h373z" />
    <glyph glyph-name="Wacute" unicode="&#x1e82;" horiz-adv-x="2349" 
d="M2300 1434l-471 -1434h-395l-258 825l-261 -825h-395l-471 1434h432l256 -832l250 832h377l248 -832l256 832h432zM1628 1896l-309 -356h-309l245 356h373z" />
    <glyph glyph-name="wacute" unicode="&#x1e83;" horiz-adv-x="1710" 
d="M1303 1487l-310 -357h-309l248 357h371zM1681 1024l-303 -1024h-387l-137 489l-139 -489h-387l-303 1024h358l156 -635l176 635h276l176 -635l156 635h358z" />
    <glyph glyph-name="Wdieresis" unicode="&#x1e84;" horiz-adv-x="2349" 
d="M965 1884q47 4 84.5 -23t53.5 -68t9 -87.5t-41 -77.5q-31 -32 -77.5 -38.5t-87 9t-68 53t-23.5 85.5q0 62 43.5 104.5t106.5 42.5zM1280 1841q43 43 106.5 43t106.5 -43q43 -41 43 -105.5t-43 -107.5q-43 -41 -106.5 -41t-106.5 41q-41 43 -41 107.5t41 105.5zM2300 1434
l-471 -1434h-395l-258 825l-261 -825h-395l-471 1434h432l256 -832l250 832h377l248 -832l256 832h432z" />
    <glyph glyph-name="wdieresis" unicode="&#x1e85;" horiz-adv-x="1710" 
d="M532 1432q43 43 107.5 43t105.5 -43q43 -41 43 -105.5t-43 -107.5q-41 -41 -105.5 -41t-107.5 41q-41 43 -41 107.5t41 105.5zM1063 1178q-66 0 -108 41.5t-42 107.5q-4 46 23 83t67.5 53t87 9t76.5 -40q33 -30 40 -76.5t-8.5 -87t-52.5 -67.5t-83 -23zM1681 1024
l-303 -1024h-387l-137 489l-139 -489h-387l-303 1024h358l156 -635l176 635h276l176 -635l156 635h358z" />
    <glyph glyph-name="Zdotbelow" unicode="&#x1e92;" horiz-adv-x="1411" 
d="M1311 1434v-271l-686 -823h710v-340h-1263v276l663 818h-616v340h1192zM854 -350q0 -63 -42.5 -106.5t-106.5 -43.5q-47 -4 -84 23.5t-52.5 68t-9 87t38.5 77.5q31 34 77.5 41t87 -9t68 -53.5t23.5 -84.5z" />
    <glyph glyph-name="zdotbelow" unicode="&#x1e93;" horiz-adv-x="1105" 
d="M1020 1024v-233l-453 -502h473v-289h-981v233l453 502h-410v289h918zM465 -244q43 43 106.5 43t106.5 -43t43 -106.5t-43 -106.5t-106.5 -43t-106.5 43q-41 43 -41 106.5t41 106.5z" />
    <glyph glyph-name="Adotbelow" unicode="&#x1ea0;" horiz-adv-x="1740" 
d="M1120 1434l572 -1434h-461l-92 252h-537l-92 -252h-461l567 1434h504zM868 1004l-163 -445h331zM762 -244q43 43 106.5 43t106.5 -43t43 -106.5t-43 -106.5t-106.5 -43t-106.5 43q-41 43 -41 106.5t41 106.5z" />
    <glyph glyph-name="adotbelow" unicode="&#x1ea1;" horiz-adv-x="1206" 
d="M664 1044q205 0 323.5 -96t118.5 -286v-662h-361v123q-140 -143 -342 -143q-145 0 -239 88q-92 89 -92 231q0 141 98.5 220t271.5 81h303v27q0 139 -180 139q-148 0 -297 -88l-102 229q241 134 498 137zM745 248v215h-161q-75 0 -115.5 -33t-40.5 -94q0 -66 37.5 -104.5
t99.5 -38.5q104 0 180 55zM551 -244q43 43 106.5 43t106.5 -43t43 -106.5t-43 -106.5t-106.5 -43t-106.5 43t-43 106.5t43 106.5z" />
    <glyph glyph-name="Ahookabove" unicode="&#x1ea2;" horiz-adv-x="1740" 
d="M860 2083q136 0 217.5 -64t81.5 -174q0 -60 -31 -105.5t-102 -99.5q-6 -5 -17.5 -14t-15.5 -12.5t-12 -11t-10.5 -12t-6.5 -11.5t-5.5 -15t-2.5 -18h-200q0 59 8 90q4 21 17 40.5t22 28.5t40.5 33.5t41.5 33.5q39 29 39 59q5 39 -40.5 55.5t-92.5 -0.5t-46 -59l-210 20
q17 109 105.5 172.5t219.5 63.5zM1120 1434l572 -1434h-461l-92 250h-537l-92 -250h-461l567 1434h504zM868 1004l-163 -445h331z" />
    <glyph glyph-name="ahookabove" unicode="&#x1ea3;" horiz-adv-x="1206" 
d="M655 1667q137 0 218 -63t81 -174q0 -61 -31 -107.5t-102 -99.5q-5 -4 -16.5 -13.5t-15.5 -12.5t-11.5 -10t-10.5 -11.5t-7 -12t-5.5 -15.5t-2.5 -18h-199q-3 57 6 91q11 44 41 65q8 8 42 36.5t40 33.5q37 27 37 59q0 29 -22.5 45.5t-61.5 16.5q-41 0 -66 -17t-28 -49
l-211 21q19 110 106.5 172.5t218.5 62.5zM664 1044q205 0 323.5 -96t118.5 -286v-662h-361v123q-140 -143 -342 -143q-145 0 -239 88q-92 89 -92 231q0 141 98.5 220t271.5 81h303v27q0 139 -180 139q-148 0 -297 -88l-102 229q241 134 498 137zM745 248v215h-161
q-75 0 -115.5 -33t-40.5 -94q0 -66 37.5 -104.5t99.5 -38.5q104 0 180 55z" />
    <glyph glyph-name="Acircumflexacute" unicode="&#x1ea4;" horiz-adv-x="1740" 
d="M1917 2009l-309 -354h-310l246 354h373zM1057 1896l252 -356h-299l-142 170l-141 -170h-297l252 356h375zM1120 1434l572 -1434h-461l-92 252h-537l-92 -252h-461l567 1434h504zM868 1004l-163 -445h331z" />
    <glyph glyph-name="acircumflexacute" unicode="&#x1ea5;" horiz-adv-x="1206" 
d="M1704 1599l-309 -354h-310l246 354h373zM844 1487l252 -357h-299l-142 170l-141 -170h-299l252 357h377zM664 1044q205 0 323.5 -96t118.5 -286v-662h-361v123q-140 -143 -342 -143q-145 0 -239 88q-92 89 -92 231q0 141 98.5 220t271.5 81h303v27q0 139 -180 139
q-148 0 -297 -88l-102 229q241 134 498 137zM745 248v215h-161q-75 0 -115.5 -33t-40.5 -94q0 -66 37.5 -104.5t99.5 -38.5q104 0 180 55z" />
    <glyph glyph-name="Acircumflexgrave" unicode="&#x1ea6;" horiz-adv-x="1740" 
d="M1438 2009l245 -354h-309l-309 354h373zM1057 1896l252 -356h-299l-142 170l-141 -170h-297l252 356h375zM1120 1434l572 -1434h-461l-92 252h-537l-92 -252h-461l567 1434h504zM868 1004l-163 -445h331z" />
    <glyph glyph-name="acircumflexgrave" unicode="&#x1ea7;" horiz-adv-x="1206" 
d="M1225 1599l245 -354h-309l-309 354h373zM844 1487l252 -357h-299l-142 170l-141 -170h-299l252 357h377zM664 1044q205 0 323.5 -96t118.5 -286v-662h-361v123q-140 -143 -342 -143q-145 0 -239 88q-92 89 -92 231q0 141 98.5 220t271.5 81h303v27q0 139 -180 139
q-148 0 -297 -88l-102 229q241 134 498 137zM745 248v215h-161q-75 0 -115.5 -33t-40.5 -94q0 -66 37.5 -104.5t99.5 -38.5q104 0 180 55z" />
    <glyph glyph-name="Acircumflexhookabove" unicode="&#x1ea8;" horiz-adv-x="1740" 
d="M1434 2191q135 0 217 -64t82 -175q0 -59 -31.5 -105.5t-102.5 -99.5q-38 -28 -52 -45t-17 -47h-199q-3 55 6 90q13 45 41 65q7 7 39.5 33.5t40.5 34.5q39 29 39 59q5 40 -40.5 56t-92 -1t-45.5 -57l-211 21q19 109 106 172t220 63zM1057 1896l252 -356h-299l-142 170
l-141 -170h-297l250 356h377zM1120 1434l572 -1434h-461l-92 250h-537l-92 -250h-461l567 1434h504zM868 1004l-163 -445h331z" />
    <glyph glyph-name="acircumflexhookabove" unicode="&#x1ea9;" horiz-adv-x="1206" 
d="M1225 1782q136 0 218.5 -64.5t82.5 -175.5q0 -59 -32 -105t-103 -100q-11 -11 -26.5 -24t-22.5 -19.5t-13 -19t-6 -29.5h-201q-3 55 6 90q4 12 8.5 21.5t12.5 20t13.5 17t18.5 17.5l19.5 16.5t24.5 20t26 20.5q37 30 37 60q6 40 -39 56t-92 -1t-47 -57l-211 20
q19 109 107 172.5t219 63.5zM850 1487l250 -357h-297l-141 170l-142 -170h-299l252 357h377zM664 1044q204 0 323 -96t119 -286v-662h-361v123q-140 -143 -342 -143q-145 0 -239 88q-92 89 -92 231q0 141 98.5 220t271.5 81h303v27q0 139 -180 139q-148 0 -297 -88l-102 229
q241 134 498 137zM745 248v215h-161q-74 0 -115 -32.5t-41 -94.5q0 -66 37.5 -104.5t99.5 -38.5q104 0 180 55z" />
    <glyph glyph-name="Acircumflextilde" unicode="&#x1eaa;" horiz-adv-x="1740" 
d="M649 2281q56 10 92 4t111 -36q119 -51 172 -51q63 0 84 77l135 -14q17 -120 -24 -200t-127 -99q-52 -8 -93 -2q-22 5 -112 37q-35 14 -41 16q-76 29 -90 31q-16 5 -45 2q-59 -9 -74 -78l-135 17q-17 120 23.5 199t123.5 97zM1057 1896l252 -356h-299l-142 170l-141 -170
h-297l250 356h377zM1120 1434l572 -1434h-461l-92 252h-537l-92 -252h-461l567 1434h504zM868 1004l-163 -445h331z" />
    <glyph glyph-name="acircumflextilde" unicode="&#x1eab;" horiz-adv-x="1206" 
d="M436 1864q57 9 92 3t111 -36q119 -51 172 -51q63 0 84 78l135 -15q14 -122 -26 -201t-125 -98q-56 -7 -93.5 -0.5t-111.5 35.5q-35 14 -41 16q-76 29 -90 31q-16 5 -45 2q-59 -9 -74 -78l-135 17q-17 121 22.5 199.5t124.5 97.5zM844 1487l252 -357h-299l-142 170
l-141 -170h-299l252 357h377zM664 1044q204 0 323 -96t119 -286v-662h-361v123q-140 -143 -342 -143q-145 0 -239 88q-92 89 -92 231q0 141 98.5 220t271.5 81h303v27q0 139 -180 139q-148 0 -297 -88l-102 229q241 134 498 137zM745 248v215h-161q-74 0 -115 -32.5
t-41 -94.5q0 -66 37.5 -104.5t99.5 -38.5q104 0 180 55z" />
    <glyph glyph-name="Acircumflexdotbelow" unicode="&#x1eac;" horiz-adv-x="1740" 
d="M1057 1896l252 -356h-299l-142 170l-141 -170h-297l252 356h375zM1120 1434l572 -1434h-461l-92 252h-537l-92 -252h-461l567 1434h504zM868 1004l-163 -445h331zM668 -244q43 43 107.5 43t105.5 -43q43 -43 43 -106.5t-43 -106.5q-41 -43 -105.5 -43t-107.5 43
q-41 43 -41 106.5t41 106.5z" />
    <glyph glyph-name="acircumflexdotbelow" unicode="&#x1ead;" horiz-adv-x="1206" 
d="M844 1487l252 -357h-299l-142 170l-141 -170h-299l252 357h377zM664 1044q205 0 323.5 -96t118.5 -286v-662h-361v123q-140 -143 -342 -143q-145 0 -239 88q-92 89 -92 231q0 141 98.5 220t271.5 81h303v27q0 139 -180 139q-148 0 -297 -88l-102 229q241 134 498 137z
M745 248v215h-161q-75 0 -115.5 -33t-40.5 -94q0 -66 37.5 -104.5t99.5 -38.5q104 0 180 55zM551 -244q43 43 106.5 43t106.5 -43t43 -106.5t-43 -106.5t-106.5 -43t-106.5 43t-43 106.5t43 106.5z" />
    <glyph glyph-name="Abreveacute" unicode="&#x1eae;" horiz-adv-x="1740" 
d="M1321 2302l-309 -356h-310l248 356h371zM1032 1905h238q0 -148 -115 -248q-116 -96 -278 -96q-165 0 -281 96q-115 100 -115 248h238q0 -60 44.5 -93.5t113.5 -33.5q68 0 111.5 34t43.5 93zM1120 1434l572 -1434h-461l-92 252h-537l-92 -252h-461l567 1434h504zM868 1004
l-163 -445h331z" />
    <glyph glyph-name="abreveacute" unicode="&#x1eaf;" horiz-adv-x="1206" 
d="M1108 1880l-309 -356h-310l246 356h373zM819 1495h238q0 -148 -115 -248q-116 -96 -280 -96q-165 0 -281 96q-113 98 -113 248h238q0 -59 44.5 -93t111.5 -34q69 0 112.5 34t44.5 93zM664 1044q205 0 323.5 -96t118.5 -286v-662h-361v123q-140 -143 -342 -143
q-145 0 -239 88q-92 89 -92 231q0 141 98.5 220t271.5 81h303v27q0 139 -180 139q-148 0 -297 -88l-102 229q241 134 498 137zM745 248v215h-161q-75 0 -115.5 -33t-40.5 -94q0 -66 37.5 -104.5t99.5 -38.5q104 0 180 55z" />
    <glyph glyph-name="Abrevegrave" unicode="&#x1eb0;" horiz-adv-x="1740" 
d="M782 2302l246 -356h-309l-309 356h372zM1032 1905h238q0 -148 -115 -248q-116 -96 -278 -96q-166 0 -281 97t-115 247h238q0 -60 44.5 -93.5t113.5 -33.5q68 0 111.5 34t43.5 93zM1120 1434l572 -1434h-461l-92 252h-537l-92 -252h-461l567 1434h504zM868 1004l-163 -445
h331z" />
    <glyph glyph-name="abrevegrave" unicode="&#x1eb1;" horiz-adv-x="1206" 
d="M567 1880l248 -356h-309l-309 356h370zM819 1495h238q0 -148 -115 -248q-116 -96 -280 -96q-165 0 -281 96q-113 98 -113 248h238q0 -59 45 -93t111 -34q69 0 112.5 34t44.5 93zM664 1044q205 0 323.5 -96t118.5 -286v-662h-361v123q-140 -143 -342 -143q-145 0 -239 88
q-92 89 -92 231q0 141 98.5 220t271.5 81h303v27q0 139 -180 139q-148 0 -297 -88l-102 229q241 134 498 137zM745 248v215h-161q-75 0 -115.5 -33t-40.5 -94q0 -66 37.5 -104.5t99.5 -38.5q104 0 180 55z" />
    <glyph glyph-name="Abrevehookabove" unicode="&#x1eb2;" horiz-adv-x="1740" 
d="M860 2472q136 0 217.5 -64t81.5 -176q0 -44 -19 -81t-43 -61t-71 -62q-37 -25 -53.5 -45t-16.5 -48h-200q0 59 8 90q11 38 39 66q8 8 42.5 36t39.5 32q39 29 39 59t-23.5 46.5t-62.5 16.5q-38 0 -63 -18t-30 -47l-210 20q17 109 104.5 172.5t220.5 63.5zM1032 1905h238
q0 -150 -114.5 -247t-278.5 -97q-165 0 -281 96q-115 100 -115 248h238q0 -59 44.5 -93t113.5 -34q66 0 110.5 33.5t44.5 93.5zM1120 1434l572 -1434h-461l-92 252h-537l-92 -252h-461l567 1434h504zM868 1004l-163 -445h331z" />
    <glyph glyph-name="abrevehookabove" unicode="&#x1eb3;" horiz-adv-x="1206" 
d="M647 2062q136 0 217.5 -64t81.5 -175q0 -63 -31.5 -106t-101.5 -99q-37 -24 -53.5 -43.5t-16.5 -48.5h-200q-3 49 8 90q7 33 39 65q19 19 82 68q39 29 39 59q5 40 -40.5 56t-93 -1t-47.5 -57l-211 21q22 109 108.5 172t219.5 63zM819 1495h238q0 -148 -115 -248
q-116 -96 -280 -96q-165 0 -281 96q-113 98 -113 248h238q0 -59 45 -93t111 -34q69 0 112.5 34t44.5 93zM664 1044q205 0 323.5 -96t118.5 -286v-662h-361v123q-140 -143 -342 -143q-145 0 -239 88q-92 89 -92 231q0 141 98.5 220t271.5 81h303v27q0 139 -180 139
q-148 0 -297 -88l-102 229q241 134 498 137zM745 248v215h-161q-75 0 -115.5 -33t-40.5 -94q0 -66 37.5 -104.5t99.5 -38.5q104 0 180 55z" />
    <glyph glyph-name="Abrevetilde" unicode="&#x1eb4;" horiz-adv-x="1740" 
d="M649 2277q54 8 92 1.5t111 -35.5q124 -53 172 -50q63 0 84 78l135 -16q17 -120 -24 -200t-127 -99q-52 -8 -93 -2q-32 8 -112 39q-4 1 -10 3t-15 5.5t-16 5.5q-84 32 -90 33q-18 3 -45 0q-58 -9 -74 -76l-135 14q-17 120 23.5 200t123.5 99zM1032 1905h238
q0 -150 -114.5 -247t-278.5 -97q-165 0 -281 96q-115 100 -115 248h238q0 -59 44.5 -93t113.5 -34q66 0 110.5 34t44.5 93zM1120 1434l572 -1434h-461l-92 252h-537l-92 -252h-461l567 1434h504zM868 1004l-163 -445h331z" />
    <glyph glyph-name="abrevetilde" unicode="&#x1eb5;" horiz-adv-x="1206" 
d="M436 1866q56 10 91.5 3.5t111.5 -38.5q122 -52 172 -49q63 0 84 78l135 -17q13 -121 -26.5 -200t-124.5 -99q-56 -7 -93.5 -0.5t-111.5 37.5l-41 14q-84 32 -90 33q-18 6 -45 0q-59 -9 -74 -76l-135 15q-17 121 22.5 200.5t124.5 98.5zM819 1495h238q0 -150 -114.5 -247
t-280.5 -97q-165 0 -281 96q-113 98 -113 248h238q0 -59 43.5 -93t112.5 -34t112.5 34t44.5 93zM664 1044q205 0 323.5 -96t118.5 -286v-662h-361v123q-140 -143 -342 -143q-145 0 -239 88q-92 89 -92 231q0 141 98.5 220t271.5 81h303v27q0 139 -180 139q-148 0 -297 -88
l-102 229q241 134 498 137zM745 248v215h-161q-75 0 -115.5 -33t-40.5 -94q0 -66 37.5 -104.5t99.5 -38.5q104 0 180 55z" />
    <glyph glyph-name="Abrevedotbelow" unicode="&#x1eb6;" horiz-adv-x="1740" 
d="M1032 1905h238q0 -148 -115 -248q-116 -96 -278 -96q-165 0 -281 96q-115 100 -115 248h238q-7 -79 75 -112t163.5 0t74.5 112zM1120 1434l572 -1434h-461l-92 252h-537l-92 -252h-461l567 1434h504zM868 1004l-163 -445h331zM1018 -350q0 -63 -43 -106.5t-107 -43.5
q-47 -4 -83.5 23.5t-52 68t-9 87t38.5 77.5q31 34 77.5 41t87 -9t68 -53.5t23.5 -84.5z" />
    <glyph glyph-name="abrevedotbelow" unicode="&#x1eb7;" horiz-adv-x="1206" 
d="M819 1495h238q0 -148 -115 -248q-116 -96 -280 -96q-165 0 -281 96q-113 98 -113 248h238q0 -59 45 -93t111 -34q69 0 112.5 34t44.5 93zM664 1044q205 0 323.5 -96t118.5 -286v-662h-361v123q-140 -143 -342 -143q-145 0 -239 88q-92 89 -92 231q0 141 98.5 220
t271.5 81h303v27q0 139 -180 139q-148 0 -297 -88l-102 229q241 134 498 137zM745 248v215h-161q-75 0 -115.5 -33t-40.5 -94q0 -66 37.5 -104.5t99.5 -38.5q104 0 180 55zM551 -244q43 43 106.5 43t106.5 -43t43 -106.5t-43 -106.5t-106.5 -43t-106.5 43t-43 106.5
t43 106.5z" />
    <glyph glyph-name="Edotbelow" unicode="&#x1eb8;" horiz-adv-x="1404" 
d="M1321 1434v-347h-789v-196h734v-330h-734v-215h801v-346h-1188v1434h1176zM686 -244q43 43 107.5 43t105.5 -43q43 -43 43 -106.5t-43 -106.5q-41 -43 -105.5 -43t-107.5 43q-41 43 -41 106.5t41 106.5z" />
    <glyph glyph-name="edotbelow" unicode="&#x1eb9;" 
d="M612 1044q248 0 392 -153q145 -151 145 -379v-88h-725q4 -83 69.5 -133.5t161.5 -50.5q134 -3 224 84l188 -168q-185 -176 -444 -176q-144 -3 -271.5 69.5t-203 196.5t-72.5 266q0 220 157 377q155 155 379 155zM621 791q-80 0 -137.5 -58t-57.5 -141h387q0 87 -52.5 143
t-139.5 56zM502 -244q43 43 106.5 43t106.5 -43t43 -106.5t-43 -106.5t-106.5 -43t-106.5 43t-43 106.5t43 106.5z" />
    <glyph glyph-name="Ehookabove" unicode="&#x1eba;" horiz-adv-x="1404" 
d="M733 2083q136 0 217.5 -64t81.5 -174q0 -60 -31 -105.5t-102 -99.5q-39 -27 -54.5 -45.5t-15.5 -48.5h-200q-3 50 8 90q3 14 10 27t12.5 22t19.5 22t21 19t28 22.5t30 23.5q39 29 39 59q0 28 -24 45.5t-62 17.5t-64.5 -18t-30.5 -49l-208 20q15 111 103 173.5t222 62.5z
M1321 1434v-347h-789v-196h734v-330h-734v-215h801v-346h-1188v1434h1176z" />
    <glyph glyph-name="ehookabove" unicode="&#x1ebb;" 
d="M616 1667q137 0 218 -63t81 -174q0 -61 -31 -107.5t-102 -99.5q-5 -4 -16.5 -13.5t-15.5 -12.5t-11.5 -10t-10.5 -11.5t-7 -12t-5.5 -15.5t-2.5 -18h-199q-3 57 6 91q11 44 41 65q8 8 42 36.5t40 33.5q37 27 37 59q0 29 -23.5 45.5t-62.5 16.5q-38 0 -63 -17.5t-29 -48.5
l-211 21q19 110 106.5 172.5t218.5 62.5zM612 1044q164 0 287.5 -71.5t186.5 -191.5t63 -269v-88h-725q3 -84 70 -134t161 -50q134 -3 224 84l188 -168q-185 -176 -444 -176q-225 0 -387 155q-160 157 -160 377t157 377q155 155 379 155zM621 791q-80 0 -137.5 -58.5
t-57.5 -140.5h387q0 87 -52.5 143t-139.5 56z" />
    <glyph glyph-name="Etilde" unicode="&#x1ebc;" horiz-adv-x="1404" 
d="M508 1884q56 10 91.5 3.5t111.5 -38.5q122 -49 172 -49q63 0 84 78l135 -14q17 -120 -24.5 -200t-127.5 -99q-60 -10 -92 -2q-34 8 -113 36q-2 1 -15.5 7t-24.5 10q-75 29 -91 31q-18 6 -45 0q-58 -9 -73 -76l-136 14q-17 121 24 200.5t124 98.5zM1321 1434v-347h-789
v-196h734v-330h-734v-215h801v-346h-1188v1434h1176z" />
    <glyph glyph-name="etilde" unicode="&#x1ebd;" 
d="M391 1475q58 10 93.5 3.5t109.5 -38.5q122 -49 172 -49q63 0 84 77l135 -14q17 -120 -24.5 -200t-124.5 -99q-60 -9 -93.5 -2.5t-111.5 37.5l-41 16q-76 29 -90 31q-21 6 -45 0q-59 -9 -74 -76l-137 15q-17 121 23.5 200.5t123.5 98.5zM612 1044q248 0 392 -153
q145 -151 145 -379v-88h-725q4 -83 69.5 -133.5t161.5 -50.5q134 -3 224 84l188 -168q-185 -176 -444 -176q-144 -3 -271.5 69.5t-203 196.5t-72.5 266q0 220 157 377q155 155 379 155zM621 791q-80 0 -137.5 -58.5t-57.5 -140.5h387q0 87 -52.5 143t-139.5 56z" />
    <glyph glyph-name="Ecircumflexacute" unicode="&#x1ebe;" horiz-adv-x="1404" 
d="M1778 2009l-310 -354h-309l248 354h371zM920 1896l249 -356h-297l-141 170l-141 -170h-299l252 356h377zM1321 1434v-347h-789v-196h734v-330h-734v-215h801v-346h-1188v1434h1176z" />
    <glyph glyph-name="ecircumflexacute" unicode="&#x1ebf;" 
d="M1659 1599l-309 -354h-310l246 354h373zM801 1487l250 -357h-297l-142 170l-141 -170h-299l252 357h377zM612 1044q164 0 287.5 -71.5t186.5 -191.5t63 -269v-88h-725q3 -84 70 -134t161 -50q134 -3 224 84l188 -168q-185 -176 -444 -176q-225 0 -387 155
q-160 157 -160 377t157 377q155 155 379 155zM621 791q-80 0 -137.5 -58.5t-57.5 -140.5h387q0 87 -52.5 143t-139.5 56z" />
    <glyph glyph-name="Ecircumflexgrave" unicode="&#x1ec0;" horiz-adv-x="1404" 
d="M1298 2009l246 -354h-309l-309 354h372zM918 1896l251 -356h-299l-141 170l-141 -170h-299l252 356h377zM1321 1434v-347h-789v-196h734v-330h-734v-215h801v-346h-1188v1434h1176z" />
    <glyph glyph-name="ecircumflexgrave" unicode="&#x1ec1;" 
d="M1180 1599l247 -354h-309l-311 354h373zM801 1487l252 -357h-299l-142 170l-141 -170h-299l252 357h377zM612 1044q248 0 392 -153q145 -151 145 -379v-88h-725q4 -83 69.5 -133.5t161.5 -50.5q134 -3 224 84l188 -168q-185 -176 -444 -176q-144 -3 -271.5 69.5
t-203 196.5t-72.5 266q0 220 157 377q155 155 379 155zM621 791q-79 0 -137 -58.5t-58 -140.5h387q0 87 -52.5 143t-139.5 56z" />
    <glyph glyph-name="Ecircumflexhookabove" unicode="&#x1ec2;" horiz-adv-x="1404" 
d="M1358 2191q135 0 217 -64t82 -175q0 -59 -31.5 -105.5t-101.5 -99.5q-39 -28 -53 -45t-17 -47h-199q-3 52 7 90q13 45 41 65q7 7 39 33.5t40 34.5q39 29 39 59q5 40 -40.5 56t-92 -1t-45.5 -57l-211 21q19 109 106 172t220 63zM981 1896l252 -356h-299l-141 170
l-142 -170h-297l250 356h377zM1321 1434v-347h-789v-196h734v-330h-734v-215h801v-346h-1188v1434h1176z" />
    <glyph glyph-name="ecircumflexhookabove" unicode="&#x1ec3;" 
d="M1176 1782q138 0 219.5 -64t81.5 -176q0 -59 -32.5 -105t-103.5 -100q-10 -10 -26 -23.5t-23 -20t-12.5 -19t-5.5 -29.5h-201q-3 55 6 90q4 12 8.5 21.5t12.5 20t13.5 17t18.5 17.5l19.5 16.5t24.5 20t26 20.5q37 30 37 60q6 40 -39 56t-92 -1t-47 -57l-211 20
q19 109 107 172.5t219 63.5zM801 1487l252 -357h-299l-142 170l-141 -170h-299l252 357h377zM612 1044q248 0 392 -153q145 -151 145 -379v-88h-725q4 -83 69.5 -133.5t161.5 -50.5q134 -3 224 84l188 -168q-185 -176 -444 -176q-144 -3 -271.5 69.5t-203 196.5t-72.5 266
q0 220 157 377q155 155 379 155zM621 791q-79 0 -137 -58.5t-58 -140.5h387q0 87 -52.5 143t-139.5 56z" />
    <glyph glyph-name="Ecircumflextilde" unicode="&#x1ec4;" horiz-adv-x="1404" 
d="M508 2275q56 10 92 4t111 -36q122 -52 172 -52q63 0 84 78l135 -14q17 -120 -24.5 -200t-127.5 -99q-60 -10 -92 -2q-26 6 -113 37q-3 1 -10 4t-14.5 6t-15.5 6q-75 29 -91 31q-18 6 -45 0q-58 -9 -73 -76l-136 16q-17 120 24 199t124 98zM915 1896l252 -356h-299
l-141 170l-141 -170h-297l252 356h374zM1321 1434v-347h-789v-196h734v-330h-734v-215h801v-346h-1188v1434h1176z" />
    <glyph glyph-name="ecircumflextilde" unicode="&#x1ec5;" 
d="M391 1864q58 10 93.5 3.5t109.5 -38.5q122 -49 172 -49q63 0 84 78l135 -17q17 -119 -24.5 -198.5t-124.5 -98.5q-58 -10 -93.5 -3.5t-111.5 38.5l-41 16q-76 29 -90 31q-21 6 -45 0q-59 -9 -74 -76l-137 15q-17 121 23.5 200.5t123.5 98.5zM801 1487l252 -357h-299
l-142 170l-141 -170h-299l252 357h377zM612 1044q248 0 392 -153q145 -151 145 -379v-88h-725q4 -83 69.5 -133.5t161.5 -50.5q134 -3 224 84l188 -168q-185 -176 -444 -176q-144 -3 -271.5 69.5t-203 196.5t-72.5 266q0 220 157 377q155 155 379 155zM621 791
q-80 0 -137.5 -58.5t-57.5 -140.5h387q0 87 -52.5 143t-139.5 56z" />
    <glyph glyph-name="Ecircumflexdotbelow" unicode="&#x1ec6;" horiz-adv-x="1404" 
d="M915 1896l252 -356h-299l-141 170l-141 -170h-297l252 356h374zM1321 1434v-347h-789v-196h734v-330h-734v-215h801v-346h-1188v1434h1176zM942 -350q0 -63 -42.5 -106.5t-104.5 -43.5q-48 -4 -85.5 23.5t-53 68t-9 87t38.5 77.5q31 34 77.5 41t87.5 -9t68 -53.5
t23 -84.5z" />
    <glyph glyph-name="ecircumflexdotbelow" unicode="&#x1ec7;" 
d="M801 1487l252 -357h-299l-142 170l-141 -170h-299l252 357h377zM612 1044q248 0 392 -153q145 -151 145 -379v-88h-725q4 -83 69.5 -133.5t161.5 -50.5q134 -3 224 84l188 -168q-185 -176 -444 -176q-144 -3 -271.5 69.5t-203 196.5t-72.5 266q0 220 157 377
q155 155 379 155zM621 791q-79 0 -137 -58.5t-58 -140.5h387q0 87 -52.5 143t-139.5 56zM502 -244q43 43 106.5 43t106.5 -43t43 -106.5t-43 -106.5t-106.5 -43t-106.5 43t-43 106.5t43 106.5z" />
    <glyph glyph-name="Ihookabove" unicode="&#x1ec8;" horiz-adv-x="677" 
d="M340 2083q137 0 218 -64t81 -174q0 -60 -31 -105.5t-102 -99.5q-8 -8 -24.5 -21t-20.5 -17q-23 -23 -23 -56h-200q-3 56 6 90q12 47 41 68q8 8 41.5 35t40.5 33q36 29 36 59q0 29 -23 46t-61 17q-40 0 -65.5 -18t-28.5 -49l-211 20q19 110 107 173t219 63zM532 1434
v-1434h-387v1434h387z" />
    <glyph glyph-name="ihookabove" unicode="&#x1ec9;" horiz-adv-x="618" 
d="M319 1667q136 0 217.5 -64t81.5 -173q0 -61 -31 -107.5t-102 -99.5q-36 -24 -52.5 -44t-16.5 -49h-201q-3 50 8 91q6 32 39 65q8 8 42 36.5t40 33.5q39 26 39 59q5 38 -40.5 54t-92.5 -1t-47 -57l-209 21q17 110 104 172.5t221 62.5zM500 1024v-1024h-361v1024h361z" />
    <glyph glyph-name="Idotbelow" unicode="&#x1eca;" horiz-adv-x="677" 
d="M532 1434v-1434h-387v1434h387zM338 -201q63 0 106 -42.5t43 -104.5q0 -66 -43 -109t-106 -43t-106.5 43.5t-43.5 106.5t43.5 106t106.5 43z" />
    <glyph glyph-name="idotbelow" unicode="&#x1ecb;" horiz-adv-x="618" 
d="M317 1440q80 0 134.5 -46.5t54.5 -113.5q4 -49 -31.5 -89t-86 -58t-108.5 -10.5t-96 44.5q-44 32 -52.5 81.5t12 92t68 72.5t105.5 27zM498 1024v-1024h-361v1024h361zM211 -244q43 43 106.5 43t106.5 -43t43 -106.5t-43 -106.5t-106.5 -43t-106.5 43t-43 106.5t43 106.5
z" />
    <glyph glyph-name="Odotbelow" unicode="&#x1ecc;" horiz-adv-x="1751" 
d="M487 1356q177 98 387 98q208 0 384.5 -98t279.5 -269q104 -168 104 -370q0 -200 -102 -370t-280 -269q-174 -98 -386 -98q-210 0 -387 98q-177 100 -278 268q-103 171 -103 371t101.5 370t279.5 269zM1135 983q-103 109 -263 109q-156 0 -262 -109q-102 -108 -102 -266
t102 -266q106 -109 262 -109q160 0 263 109q104 107 104 266t-104 266zM768 -244q43 43 106.5 43t104.5 -43q43 -43 43 -106.5t-43 -106.5q-41 -43 -104.5 -43t-106.5 43t-43 106.5t43 106.5z" />
    <glyph glyph-name="odotbelow" unicode="&#x1ecd;" horiz-adv-x="1318" 
d="M659 1044q154 3 290 -69.5t216.5 -196.5t77.5 -266q0 -221 -172 -377q-168 -155 -412 -155q-242 0 -413 155q-170 156 -170 377t170 377q171 155 413 155zM430 512q0 -94 66.5 -160.5t160.5 -66.5q92 0 160 65q68 68 68 162q0 95 -68 160q-47 53 -116.5 63.5t-130 -14.5
t-102.5 -82t-38 -127zM553 -244q43 43 107.5 43t105.5 -43q43 -43 43 -106.5t-43 -106.5q-41 -43 -105.5 -43t-107.5 43q-41 43 -41 106.5t41 106.5z" />
    <glyph glyph-name="Ohookabove" unicode="&#x1ece;" horiz-adv-x="1751" 
d="M887 2083q137 0 219 -64t82 -174q0 -60 -31.5 -105.5t-103.5 -99.5q-10 -10 -26 -23.5t-23 -20.5t-13 -20t-6 -30h-201q-3 53 7 90q12 48 40 68q8 8 41.5 35t40.5 33q37 30 37 59q0 28 -23 45.5t-61 17.5t-64 -18t-30 -49l-211 20q19 110 107 173t219 63zM487 1356
q177 98 387 98q208 0 384.5 -98t279.5 -269q104 -168 104 -370q0 -200 -102 -370t-280 -269q-174 -98 -386 -98q-210 0 -387 98q-177 100 -278 268q-103 171 -103 371t101.5 370t279.5 269zM508 717q0 -158 103.5 -266.5t262.5 -108.5q158 0 261 109q104 107 104 266
t-104 266q-103 109 -263 109q-156 0 -262 -109q-102 -108 -102 -266z" />
    <glyph glyph-name="ohookabove" unicode="&#x1ecf;" horiz-adv-x="1318" 
d="M659 1667q137 0 219.5 -63t82.5 -174q0 -60 -32 -106.5t-102 -100.5q-6 -3 -16 -13q-28 -20 -40.5 -36.5t-12.5 -43.5h-201q-3 50 8 91q6 32 39 65q8 8 42 36.5t40 33.5q39 26 39 59q5 38 -40.5 54t-92.5 -1t-47 -57l-211 21q19 110 106.5 172.5t218.5 62.5zM659 1044
q154 3 290 -69.5t216.5 -196.5t77.5 -266q0 -221 -172 -377q-168 -155 -412 -155q-242 0 -413 155q-170 156 -170 377t170 377q171 155 413 155zM430 512q0 -94 66.5 -160.5t160.5 -66.5q92 0 160 65q68 68 68 162q0 95 -68 160q-47 53 -116.5 63.5t-130 -14.5t-102.5 -82
t-38 -127z" />
    <glyph glyph-name="Ocircumflexacute" unicode="&#x1ed0;" horiz-adv-x="1751" 
d="M1925 2009l-311 -354h-309l247 354h373zM1065 1896l252 -356h-299l-141 170l-142 -170h-299l252 356h377zM874 1454q208 0 384.5 -98t279.5 -269q104 -168 104 -370q0 -203 -104 -371q-103 -171 -279.5 -268.5t-384.5 -97.5q-153 -4 -296.5 55t-248 159.5t-166 238
t-57.5 284.5q0 201 102.5 370.5t279 268t386.5 98.5zM1135 983q-103 109 -263 109q-156 0 -262 -109q-102 -108 -102 -266t102 -266q106 -109 262 -109q160 0 263 109q104 107 104 266t-104 266z" />
    <glyph glyph-name="ocircumflexacute" unicode="&#x1ed1;" horiz-adv-x="1318" 
d="M1708 1599l-309 -354h-309l245 354h373zM848 1487l252 -357h-299l-142 170l-141 -170h-299l252 357h377zM246 889q171 155 413 155q244 0 412 -155q172 -156 172 -377t-172 -377q-168 -155 -412 -155q-242 0 -413 155q-170 156 -170 377t170 377zM657 739q-93 0 -160 -67
t-67 -160t66 -162q68 -66 161 -66t160 66q68 68 68 162q0 95 -68 160q-67 67 -160 67z" />
    <glyph glyph-name="Ocircumflexgrave" unicode="&#x1ed2;" horiz-adv-x="1751" 
d="M1444 2009l246 -354h-310l-309 354h373zM1063 1896l252 -356h-299l-142 170l-141 -170h-299l252 356h377zM487 1356q177 98 387 98q208 0 384.5 -98t279.5 -269q104 -168 104 -370q0 -200 -102 -370t-280 -269q-174 -98 -386 -98q-210 0 -387 98q-177 100 -278 268
q-103 171 -103 371t101.5 370t279.5 269zM1135 983q-103 109 -263 109q-156 0 -262 -109q-102 -108 -102 -266t102 -266q106 -109 262 -109q160 0 263 109q104 107 104 266t-104 266z" />
    <glyph glyph-name="ocircumflexgrave" unicode="&#x1ed3;" horiz-adv-x="1318" 
d="M1229 1599l246 -354h-310l-309 354h373zM848 1487l252 -357h-299l-142 170l-141 -170h-297l250 357h377zM246 889q171 155 413 155q244 0 412 -155q172 -156 172 -377t-172 -377q-168 -155 -412 -155q-242 0 -413 155q-170 156 -170 377t170 377zM657 739q-93 0 -160 -67
t-67 -160t66 -162q68 -66 161 -66t160 66q68 68 68 162q0 95 -68 160q-67 67 -160 67z" />
    <glyph glyph-name="Ocircumflexhookabove" unicode="&#x1ed4;" horiz-adv-x="1751" 
d="M1438 2191q138 0 219.5 -63.5t81.5 -175.5q0 -59 -32 -105t-103 -100q-11 -11 -26.5 -24t-22.5 -19.5t-13 -19t-6 -29.5h-201q-3 55 6 90q13 45 41 65q8 8 41.5 35t40.5 33q37 30 37 59q6 40 -39 56t-92 -1t-47 -57l-211 21q19 108 107 171.5t219 63.5zM1063 1896
l250 -356h-297l-142 170l-141 -170h-299l252 356h377zM874 1454q208 0 384.5 -98t279.5 -269q104 -168 104 -370q0 -203 -104 -371q-103 -171 -279.5 -268.5t-384.5 -97.5q-153 -4 -296.5 55t-248 159.5t-166 238t-57.5 284.5q0 201 102.5 370.5t279 268t386.5 98.5z
M1135 983q-103 109 -263 109q-156 0 -262 -109q-102 -108 -102 -266t102 -266q106 -109 262 -109q160 0 263 109q104 107 104 266t-104 266z" />
    <glyph glyph-name="ocircumflexhookabove" unicode="&#x1ed5;" horiz-adv-x="1318" 
d="M1225 1782q136 0 217.5 -64t81.5 -176q0 -59 -31.5 -105.5t-101.5 -99.5q-39 -28 -53 -45t-17 -47h-201q0 59 8 90q3 13 10 25.5t12.5 21t19.5 21.5t20.5 18.5t28.5 22.5t30 24q39 29 39 60q5 40 -40.5 56t-92.5 -1t-47 -57l-209 20q17 109 105 172.5t221 63.5zM848 1487
l252 -357h-299l-142 170l-141 -170h-299l252 357h377zM246 889q171 155 413 155q244 0 412 -155q172 -156 172 -377t-172 -377q-168 -155 -412 -155q-242 0 -413 155q-170 156 -170 377t170 377zM657 739q-93 0 -160 -67t-67 -160t66 -162q68 -66 161 -66t160 66
q68 68 68 162q0 95 -68 160q-67 67 -160 67z" />
    <glyph glyph-name="Ocircumflextilde" unicode="&#x1ed6;" horiz-adv-x="1751" 
d="M653 2275q55 10 92.5 3.5t110.5 -37.5q124 -53 172 -50q63 0 84 78l135 -16q17 -120 -24 -199t-127 -100q-56 -7 -92.5 -0.5t-110.5 37.5l-41 14q-83 32 -92 33q-18 6 -43 0q-61 -9 -76 -76l-135 14q-17 120 23.5 200t123.5 99zM1063 1896l250 -356h-297l-142 170
l-141 -170h-299l252 356h377zM487 1356q177 98 387 98q208 0 384.5 -98t279.5 -269q104 -168 104 -370q0 -200 -102 -370t-280 -269q-174 -98 -386 -98q-210 0 -387 98q-177 100 -278 268q-103 171 -103 371t101.5 370t279.5 269zM1135 983q-103 109 -263 109
q-156 0 -262 -109q-102 -108 -102 -266t102 -266q106 -109 262 -109q160 0 263 109q104 107 104 266t-104 266z" />
    <glyph glyph-name="ocircumflextilde" unicode="&#x1ed7;" horiz-adv-x="1318" 
d="M440 1864q54 7 91.5 0.5t109.5 -35.5q122 -52 174 -49q61 0 82 75l137 -14q13 -120 -28 -200t-123 -99q-56 -7 -93.5 -0.5t-111.5 35.5l-41 16q-84 32 -90 33q-21 3 -45 0q-59 -9 -74 -78l-137 17q-14 122 25.5 201t123.5 98zM848 1487l252 -357h-299l-142 170l-141 -170
h-299l252 357h377zM246 889q171 155 413 155q244 0 412 -155q172 -156 172 -377t-172 -377q-168 -155 -412 -155q-242 0 -413 155q-170 156 -170 377t170 377zM817 672q-67 68 -160 68t-161 -68q-66 -66 -66 -160q0 -93 66 -162q68 -66 161 -66t160 66q68 68 68 162
q0 95 -68 160z" />
    <glyph glyph-name="Ocircumflexdotbelow" unicode="&#x1ed8;" horiz-adv-x="1751" 
d="M1063 1896l250 -356h-297l-142 170l-141 -170h-299l252 356h377zM487 1356q177 98 387 98q208 0 384.5 -98t279.5 -269q104 -168 104 -370q0 -200 -102 -370t-280 -269q-174 -98 -386 -98q-210 0 -387 98q-177 100 -278 268q-103 171 -103 371t101.5 370t279.5 269z
M1135 983q-103 109 -263 109q-156 0 -262 -109q-102 -108 -102 -266t102 -266q106 -109 262 -109q160 0 263 109q104 107 104 266t-104 266zM768 -244q43 43 106.5 43t104.5 -43q43 -43 43 -106.5t-43 -106.5q-41 -43 -104.5 -43t-106.5 43t-43 106.5t43 106.5z" />
    <glyph glyph-name="ocircumflexdotbelow" unicode="&#x1ed9;" horiz-adv-x="1318" 
d="M848 1487l252 -357h-299l-142 170l-141 -170h-299l252 357h377zM246 889q171 155 413 155q244 0 412 -155q172 -156 172 -377t-172 -377q-168 -155 -412 -155q-242 0 -413 155q-170 156 -170 377t170 377zM657 739q-93 0 -160 -67t-67 -160t66 -162q68 -66 161 -66
t160 66q68 68 68 162q0 95 -68 160q-67 67 -160 67zM809 -350q0 -63 -42.5 -106.5t-104.5 -43.5q-48 -4 -85.5 23.5t-53 68t-9 87t38.5 77.5q31 34 77.5 41t87.5 -9t68 -53.5t23 -84.5z" />
    <glyph glyph-name="Ohornacute" unicode="&#x1eda;" horiz-adv-x="1751" 
d="M1327 1896l-311 -356h-309l247 356h373zM1460 1513h352v-73q0 -123 -79 -221t-199 -127q108 -172 108 -375q0 -200 -102 -370t-280 -269q-174 -98 -386 -98q-210 0 -387 98q-178 99 -279.5 269t-101.5 370q-3 117 35.5 230t111 204.5t168 161t213.5 106.5t240 35
q292 0 504 -188q37 17 59.5 51.5t22.5 75.5v120zM1135 983q-103 109 -263 109q-156 0 -262 -109q-102 -108 -102 -266t102 -266q106 -109 262 -109q160 0 263 109q104 107 104 266t-104 266z" />
    <glyph glyph-name="ohornacute" unicode="&#x1edb;" horiz-adv-x="1318" 
d="M1112 1487l-309 -357h-309l245 357h373zM1067 1130h350v-73q0 -109 -61 -198.5t-162 -131.5q49 -101 49 -215q0 -221 -172 -377q-168 -155 -412 -155q-242 0 -413 155q-170 156 -170 377t170 377q171 155 413 155q213 0 369 -129q39 39 39 93v122zM657 739
q-93 0 -160 -67t-67 -160q0 -94 66.5 -160.5t160.5 -66.5q92 0 160 65q68 68 68 162q0 95 -68 160q-67 67 -160 67z" />
    <glyph glyph-name="Ohorngrave" unicode="&#x1edc;" horiz-adv-x="1751" 
d="M1460 1513h352v-73q0 -127 -79 -221q-78 -97 -199 -127q108 -172 108 -375q3 -147 -59 -284.5t-166.5 -238t-247.5 -159.5t-295 -55q-153 -4 -296.5 55t-248 159.5t-166 238t-57.5 284.5q0 201 102.5 370.5t279 268t386.5 98.5q292 0 504 -188q37 17 59.5 51.5t22.5 75.5
v120zM508 717q0 -158 103.5 -266.5t262.5 -108.5q158 0 261 109q104 107 104 266t-104 266q-103 109 -263 109q-156 0 -262 -109q-102 -108 -102 -266zM786 1896l246 -356h-309l-309 356h372z" />
    <glyph glyph-name="ohorngrave" unicode="&#x1edd;" horiz-adv-x="1318" 
d="M571 1487l246 -357h-307l-311 357h372zM1067 1130h350v-73q0 -109 -61 -198.5t-162 -131.5q49 -101 49 -215q0 -221 -172 -377q-168 -155 -412 -155q-242 0 -413 155q-170 156 -170 377t170 377q171 155 413 155q213 0 369 -129q39 39 39 93v122zM657 739q-93 0 -160 -67
t-67 -160q0 -94 66.5 -160.5t160.5 -66.5q92 0 160 65q68 68 68 162q0 95 -68 160q-67 67 -160 67z" />
    <glyph glyph-name="Ohornhookabove" unicode="&#x1ede;" horiz-adv-x="1751" 
d="M887 2083q137 0 219 -64t82 -174q0 -60 -31.5 -105.5t-103.5 -99.5q-10 -10 -26 -23.5t-23 -20.5t-13 -20t-6 -30h-201q-3 53 7 90q12 48 40 68q8 8 41.5 35t40.5 33q37 30 37 59q0 28 -23 45.5t-61 17.5t-64 -18t-30 -49l-211 20q19 110 107 173t219 63zM1460 1513h352
v-73q0 -127 -79 -221q-78 -97 -199 -127q108 -172 108 -375q3 -147 -59 -284.5t-166.5 -238t-247.5 -159.5t-295 -55q-153 -4 -296.5 55t-248 159.5t-166 238t-57.5 284.5q0 201 102.5 370.5t279 268t386.5 98.5q292 0 504 -188q37 17 59.5 51.5t22.5 75.5v120zM1135 983
q-103 109 -263 109q-156 0 -262 -109q-102 -108 -102 -266t102 -266q106 -109 262 -109q160 0 263 109q104 107 104 266t-104 266z" />
    <glyph glyph-name="ohornhookabove" unicode="&#x1edf;" horiz-adv-x="1318" 
d="M659 1667q137 0 219.5 -63t82.5 -174q0 -60 -32 -106.5t-102 -100.5q-6 -3 -16 -13q-28 -20 -40.5 -36.5t-12.5 -43.5h-201q-3 50 8 91q6 32 39 65q8 8 42 36.5t40 33.5q39 26 39 59q5 38 -40.5 54t-92.5 -1t-47 -57l-211 21q19 110 106.5 172.5t218.5 62.5zM1067 1130
h350v-73q0 -109 -61 -198.5t-162 -131.5q49 -101 49 -215q0 -221 -172 -377q-168 -155 -412 -155q-242 0 -413 155q-170 156 -170 377t170 377q171 155 413 155q213 0 369 -129q39 39 39 93v122zM657 739q-94 0 -161 -67q-66 -66 -66 -160q0 -93 66 -162q68 -65 159 -65
q94 0 162 67t68 160q0 92 -68 159.5t-160 67.5z" />
    <glyph glyph-name="Ohorntilde" unicode="&#x1ee0;" horiz-adv-x="1751" 
d="M653 1884q56 10 92.5 3t110.5 -38q122 -49 172 -49q63 0 84 78l135 -14q17 -120 -24 -200t-127 -99q-59 -9 -92.5 -3t-110.5 37l-41 17q-52 21 -68 24q-55 19 -67 7q-61 -9 -76 -76l-135 14q-17 121 23.5 200.5t123.5 98.5zM1460 1513h352v-73q0 -127 -79 -221
q-78 -97 -199 -127q108 -172 108 -375q3 -147 -59 -284.5t-166.5 -238t-247.5 -159.5t-295 -55q-153 -4 -296.5 55t-248 159.5t-166 238t-57.5 284.5q0 201 102.5 370.5t279 268t386.5 98.5q292 0 504 -188q37 17 59.5 51.5t22.5 75.5v120zM1135 983q-103 109 -263 109
q-156 0 -262 -109q-102 -108 -102 -266t102 -266q106 -109 262 -109q160 0 263 109q104 107 104 266t-104 266z" />
    <glyph glyph-name="ohorntilde" unicode="&#x1ee1;" horiz-adv-x="1318" 
d="M440 1475q56 10 91.5 3.5t109.5 -38.5q122 -49 174 -49q61 0 82 77l137 -14q15 -122 -27 -201t-124 -98q-60 -9 -93.5 -2.5t-111.5 37.5l-41 16q-76 29 -90 31q-21 6 -45 0q-59 -9 -74 -76l-137 15q-14 123 25 201.5t124 97.5zM1067 1130h350v-73q0 -109 -62 -199.5
t-161 -130.5q49 -101 49 -215q0 -221 -172 -377q-168 -155 -412 -155q-242 0 -413 155q-170 156 -170 377t170 377q171 155 413 155q213 0 369 -129q39 39 39 93v122zM657 739q-93 0 -160 -67t-67 -160t66 -162q68 -66 161 -66t160 66q68 68 68 162q0 95 -68 160
q-67 67 -160 67z" />
    <glyph glyph-name="Ohorndotbelow" unicode="&#x1ee2;" horiz-adv-x="1751" 
d="M1460 1513h352v-73q0 -127 -79 -221q-78 -97 -199 -127q108 -172 108 -375q3 -147 -59 -284.5t-166.5 -238t-247.5 -159.5t-295 -55q-153 -4 -296.5 55t-248 159.5t-166 238t-57.5 284.5q0 201 102.5 370.5t279 268t386.5 98.5q292 0 504 -188q37 17 59.5 51.5t22.5 75.5
v120zM508 717q0 -158 103.5 -266.5t262.5 -108.5q158 0 261 109q104 107 104 266t-104 266q-103 109 -263 109q-156 0 -262 -109q-102 -108 -102 -266zM768 -244q43 43 106.5 43t104.5 -43q43 -43 43 -106.5t-43 -106.5q-41 -43 -104.5 -43t-106.5 43t-43 106.5t43 106.5z
" />
    <glyph glyph-name="ohorndotbelow" unicode="&#x1ee3;" horiz-adv-x="1318" 
d="M1067 1130h350v-73q0 -109 -61 -198.5t-162 -131.5q49 -101 49 -215q0 -221 -172 -377q-168 -155 -412 -155q-242 0 -413 155q-170 156 -170 377t170 377q171 155 413 155q213 0 369 -129q39 39 39 93v122zM817 672q-67 68 -160 68t-161 -68q-66 -66 -66 -160
q0 -93 66 -162q68 -66 161 -66t160 66q68 68 68 162q0 95 -68 160zM553 -244q43 43 107.5 43t105.5 -43q43 -43 43 -106.5t-43 -106.5q-41 -43 -105.5 -43t-107.5 43q-41 43 -41 106.5t41 106.5z" />
    <glyph glyph-name="Udotbelow" unicode="&#x1ee4;" horiz-adv-x="1597" 
d="M1077 1434h385v-775q0 -338 -170.5 -508.5t-488.5 -170.5q-317 0 -487.5 170.5t-170.5 508.5v775h387v-775q0 -164 70.5 -245.5t202.5 -81.5t202 81.5t70 245.5v775zM952 -350q0 -63 -42.5 -106.5t-106.5 -43.5q-47 -4 -84 23.5t-52.5 68t-9 87t38.5 77.5q31 34 77.5 41
t87.5 -9t68 -53.5t23 -84.5z" />
    <glyph glyph-name="udotbelow" unicode="&#x1ee5;" horiz-adv-x="1292" 
d="M1192 1024v-1024h-361v113q-171 -133 -374 -133q-163 0 -261 87.5t-98 249.5v707h361v-598q0 -73 38.5 -114.5t106.5 -41.5q129 0 227 82v672h361zM799 -350q0 -63 -43 -106.5t-105 -43.5q-47 -4 -84.5 23.5t-53.5 68t-9 87t41 77.5q31 34 77 41t86 -9t67.5 -53.5
t23.5 -84.5z" />
    <glyph glyph-name="Uhookabove" unicode="&#x1ee6;" horiz-adv-x="1597" 
d="M805 2083q136 0 217.5 -64t81.5 -174q0 -60 -31 -105.5t-102 -99.5q-6 -5 -17.5 -14t-15.5 -12.5t-12 -11t-10.5 -12t-6.5 -11.5t-5.5 -15t-2.5 -18h-201q0 56 9 90q3 14 10 27.5t12 21.5t19.5 22t20.5 19t28.5 22.5t29.5 23.5q39 29 39 59q5 39 -40.5 55.5t-92.5 -0.5
t-47 -59l-209 20q17 109 105.5 172.5t220.5 63.5zM1077 1434h385v-775q0 -338 -170.5 -508.5t-488.5 -170.5q-317 0 -487.5 170.5t-170.5 508.5v775h387v-775q0 -164 70.5 -245.5t202.5 -81.5q130 0 201 80t71 247v775z" />
    <glyph glyph-name="uhookabove" unicode="&#x1ee7;" horiz-adv-x="1292" 
d="M651 1667q134 0 216.5 -63t82.5 -174q0 -61 -31 -107.5t-102 -99.5q-6 -3 -16 -13q-28 -20 -40.5 -36.5t-12.5 -43.5h-201q0 60 8 91q9 35 39 65q7 7 40.5 34.5t41.5 35.5q39 26 39 59q5 38 -40.5 54t-92 -1t-45.5 -57l-211 21q17 110 104 172.5t221 62.5zM1192 1024
v-1024h-361v113q-171 -133 -374 -133q-163 0 -261 87.5t-98 249.5v707h361v-598q0 -73 38.5 -114.5t106.5 -41.5q129 0 227 82v672h361z" />
    <glyph glyph-name="Uhornacute" unicode="&#x1ee8;" horiz-adv-x="1597" 
d="M1255 1896l-309 -356h-309l246 356h372zM1595 1513h314v-73q0 -333 -447 -357v-424q0 -338 -170.5 -508.5t-488.5 -170.5q-317 0 -487.5 170.5t-170.5 508.5v775h387v-775q0 -164 70.5 -245.5t202.5 -81.5t202 81.5t70 245.5v775h385v-183q56 5 94.5 46t38.5 96v120z" />
    <glyph glyph-name="uhornacute" unicode="&#x1ee9;" horiz-adv-x="1247" 
d="M1102 1487l-311 -357h-310l248 357h373zM1300 1130h279v-73q0 -166 -92.5 -252t-294.5 -103v-702h-361v113q-171 -133 -374 -133q-163 0 -261 87.5t-98 249.5v707h361v-598q0 -73 38.5 -114.5t106.5 -41.5q129 0 227 82v672h361v-154q48 12 78 50.5t30 87.5v122z" />
    <glyph glyph-name="Uhorngrave" unicode="&#x1eea;" horiz-adv-x="1597" 
d="M715 1896l248 -356h-310l-309 356h371zM1595 1513h314v-73q0 -333 -447 -357v-424q0 -338 -170.5 -508.5t-488.5 -170.5q-317 0 -487.5 170.5t-170.5 508.5v775h387v-775q0 -164 70.5 -245.5t202.5 -81.5q130 0 201 80t71 247v775h385v-183q56 5 94.5 46t38.5 96v120z
" />
    <glyph glyph-name="uhorngrave" unicode="&#x1eeb;" horiz-adv-x="1292" 
d="M1300 1130h279v-73q0 -165 -90.5 -251t-296.5 -104v-702h-361v113q-171 -133 -374 -133q-163 0 -261 87.5t-98 249.5v707h361v-598q0 -74 39 -115t106 -41q129 0 227 82v672h361v-154q47 12 77.5 50t30.5 88v122zM561 1487l246 -357h-309l-310 357h373z" />
    <glyph glyph-name="Uhornhookabove" unicode="&#x1eec;" horiz-adv-x="1597" 
d="M805 2083q136 0 217.5 -64t81.5 -174q0 -60 -31 -105.5t-102 -99.5q-6 -5 -17.5 -14t-15.5 -12.5t-12 -11t-10.5 -12t-6.5 -11.5t-5.5 -15t-2.5 -18h-201q0 56 9 90q3 14 10 27.5t12 21.5t19.5 22t20.5 19t28.5 22.5t29.5 23.5q39 29 39 59q5 39 -40.5 55.5t-92.5 -0.5
t-47 -59l-209 20q17 109 105.5 172.5t220.5 63.5zM1595 1513h314v-73q0 -333 -447 -357v-424q0 -338 -170.5 -508.5t-488.5 -170.5q-317 0 -487.5 170.5t-170.5 508.5v775h387v-775q0 -164 70.5 -245.5t202.5 -81.5t202 81.5t70 245.5v775h385v-183q56 5 94.5 46t38.5 96
v120z" />
    <glyph glyph-name="uhornhookabove" unicode="&#x1eed;" horiz-adv-x="1292" 
d="M651 1667q134 0 216.5 -63t82.5 -174q0 -61 -31 -107.5t-102 -99.5q-6 -3 -16 -13q-28 -20 -40.5 -36.5t-12.5 -43.5h-201q0 60 8 91q9 35 39 65q7 7 40.5 34.5t41.5 35.5q39 26 39 59q5 38 -40.5 54t-92 -1t-45.5 -57l-211 21q17 110 104 172.5t221 62.5zM1300 1130h279
v-73q0 -165 -90.5 -251t-296.5 -104v-702h-361v113q-171 -133 -374 -133q-163 0 -261 87.5t-98 249.5v707h361v-598q0 -73 38.5 -114.5t106.5 -41.5q129 0 227 82v672h361v-154q47 12 77.5 50t30.5 88v122z" />
    <glyph glyph-name="Uhorntilde" unicode="&#x1eee;" horiz-adv-x="1597" 
d="M584 1884q56 10 91 3.5t111 -38.5q122 -49 172 -49q63 0 84 78l136 -14q13 -121 -27 -200.5t-125 -98.5q-59 -9 -93.5 -3t-111.5 37q-1 0 -15.5 6.5t-25.5 10.5q-76 29 -90 31q-18 6 -45 0q-59 -9 -74 -76l-135 14q-17 122 23 201t125 98zM1595 1513h314v-73
q0 -333 -447 -357v-424q0 -338 -170.5 -508.5t-488.5 -170.5q-317 0 -487.5 170.5t-170.5 508.5v775h387v-775q0 -164 70.5 -245.5t202.5 -81.5t202 81.5t70 245.5v775h385v-183q54 3 93.5 45t39.5 97v120z" />
    <glyph glyph-name="uhorntilde" unicode="&#x1eef;" horiz-adv-x="1292" 
d="M428 1475q56 10 92.5 3t110.5 -38q122 -49 172 -49q63 0 84 77l135 -14q17 -120 -24.5 -200t-127.5 -99q-28 -5 -48 -6t-45 4t-46 12.5t-63 24.5l-41 16q-74 28 -92 31q-18 6 -43 0q-61 -9 -76 -76l-135 15q-17 121 23.5 200.5t123.5 98.5zM1300 1130h279v-73
q0 -166 -92.5 -252t-294.5 -103v-702h-361v113q-171 -133 -374 -133q-163 0 -261 87.5t-98 249.5v707h361v-598q0 -73 38.5 -114.5t106.5 -41.5q129 0 227 82v672h361v-154q48 12 78 50.5t30 87.5v122z" />
    <glyph glyph-name="Uhorndotbelow" unicode="&#x1ef0;" horiz-adv-x="1597" 
d="M1595 1513h314v-73q0 -333 -447 -357v-424q0 -338 -170.5 -508.5t-488.5 -170.5q-317 0 -487.5 170.5t-170.5 508.5v775h387v-775q0 -164 70.5 -245.5t202.5 -81.5q130 0 201 80t71 247v775h385v-183q56 5 94.5 46t38.5 96v120zM696 -244q43 43 107.5 43t105.5 -43
q43 -43 43 -106.5t-43 -106.5q-41 -43 -105.5 -43t-107.5 43q-41 43 -41 106.5t41 106.5z" />
    <glyph glyph-name="uhorndotbelow" unicode="&#x1ef1;" horiz-adv-x="1292" 
d="M1300 1130h279v-73q0 -165 -90.5 -251t-296.5 -104v-702h-361v113q-171 -133 -374 -133q-163 0 -261 87.5t-98 249.5v707h361v-598q0 -74 39 -115t106 -41q129 0 227 82v672h361v-154q47 12 77.5 50t30.5 88v122zM799 -350q0 -63 -43 -106.5t-105 -43.5
q-47 -4 -84.5 23.5t-53.5 68t-9 87t41 77.5q31 34 77 41t86 -9t67.5 -53.5t23.5 -84.5z" />
    <glyph glyph-name="Ygrave" unicode="&#x1ef2;" horiz-adv-x="1624" 
d="M1575 1434l-569 -940v-494h-388v487l-569 947h463l303 -533l303 533h457zM725 1896l246 -356h-309l-310 356h373z" />
    <glyph glyph-name="ygrave" unicode="&#x1ef3;" horiz-adv-x="1255" 
d="M561 1487l248 -357h-309l-312 357h373zM432 1024l219 -606l203 606h373l-426 -1116q-126 -328 -434 -328q-141 -3 -342 74l98 235q131 -52 209 -43q90 9 151 107l9 16l-439 1055h379z" />
    <glyph glyph-name="Ydotbelow" unicode="&#x1ef4;" horiz-adv-x="1624" 
d="M1575 1434l-569 -940v-494h-388v487l-569 947h463l303 -533l303 533h457zM707 -244q43 43 106.5 43t104.5 -43q43 -43 43 -106.5t-43 -106.5q-41 -43 -104.5 -43t-106.5 43t-43 106.5t43 106.5z" />
    <glyph glyph-name="ydotbelow" unicode="&#x1ef5;" horiz-adv-x="1255" 
d="M432 1024l219 -606l203 606h373l-426 -1116q-126 -328 -434 -328q-141 -3 -342 74l98 235q131 -52 209 -43q90 9 151 107l9 16l-439 1055h379zM881 -244q43 43 106.5 43t104.5 -43q43 -43 43 -106.5t-43 -106.5q-41 -43 -104.5 -43t-106.5 43t-43 106.5t43 106.5z" />
    <glyph glyph-name="Yhookabove" unicode="&#x1ef6;" horiz-adv-x="1624" 
d="M813 2083q137 0 218 -63.5t81 -174.5q0 -60 -31 -105.5t-102 -99.5q-7 -8 -23.5 -21t-21.5 -17q-25 -18 -25 -56h-198q-3 56 6 90q12 47 41 68q7 7 39.5 33.5t40.5 34.5q39 29 39 59q0 28 -23.5 45.5t-62.5 17.5q-38 0 -63 -18t-30 -49l-211 20q17 109 105.5 172.5
t220.5 63.5zM1575 1434l-569 -940v-494h-388v487l-569 947h463l303 -533l303 533h457z" />
    <glyph glyph-name="yhookabove" unicode="&#x1ef7;" horiz-adv-x="1255" 
d="M649 1667q136 0 217.5 -64t81.5 -173q0 -61 -31 -107.5t-102 -99.5q-29 -22 -38 -30t-19.5 -25t-12.5 -38h-198q-3 57 6 91q11 44 41 65q8 8 42 36.5t40 33.5q37 27 37 59q0 23 -17 39t-42 19.5t-51 -0.5t-45.5 -20.5t-22.5 -41.5l-211 21q19 110 106.5 172.5t218.5 62.5
zM432 1024l219 -606l203 606h373l-426 -1116q-126 -328 -434 -328q-141 -3 -342 74l98 235q131 -52 209 -43q90 9 151 107l9 16l-439 1055h379z" />
    <glyph glyph-name="Ytilde" unicode="&#x1ef8;" horiz-adv-x="1624" 
d="M592 1884q56 10 92.5 3t110.5 -38q122 -49 172 -49q63 0 84 78l135 -14q17 -120 -24.5 -200t-127.5 -99q-59 -9 -92.5 -3t-110.5 37l-40 17q-74 28 -93 31q-18 6 -43 0q-60 -9 -75 -76l-136 14q-17 121 24 200.5t124 98.5zM1575 1434l-569 -940v-494h-388v487l-569 947
h463l303 -533l303 533h457z" />
    <glyph glyph-name="ytilde" unicode="&#x1ef9;" horiz-adv-x="1255" 
d="M430 1475q56 10 91.5 3.5t109.5 -38.5q125 -49 174 -49q63 0 84 77l135 -14q13 -120 -28 -200t-124 -99q-60 -9 -93 -2.5t-111 37.5l-41 16q-76 29 -90 31q-21 6 -45 0q-59 -9 -74 -76l-135 15q-17 122 22.5 201t124.5 98zM432 1024l219 -606l203 606h373l-426 -1116
q-126 -328 -434 -328q-141 -3 -342 74l98 235q131 -52 209 -43q90 9 151 107l9 16l-439 1055h379z" />
    <glyph glyph-name="endash" unicode="&#x2013;" horiz-adv-x="1062" 
d="M993 682v-301h-927v301h927z" />
    <glyph glyph-name="emdash" unicode="&#x2014;" horiz-adv-x="1409" 
d="M1339 680v-295h-1273v295h1273z" />
    <glyph glyph-name="quoteleft" unicode="&#x2018;" horiz-adv-x="503" 
d="M354 1659l105 -45l-117 -277q48 -21 77.5 -60.5t29.5 -86.5q0 -68 -57 -116t-136 -48q-78 0 -134 48.5t-56 115.5q0 44 28 86z" />
    <glyph glyph-name="quoteright" unicode="&#x2019;" horiz-adv-x="503" 
d="M436 1495q0 -44 -28 -86l-263 -383l-102 45l117 277q-48 21 -77.5 60.5t-29.5 86.5q0 67 56.5 115.5t134.5 48.5q79 0 135.5 -48t56.5 -116z" />
    <glyph glyph-name="quotesinglbase" unicode="&#x201a;" horiz-adv-x="503" 
d="M436 141q0 -41 -24 -82l-267 -387l-102 45l117 277q-48 21 -77.5 60.5t-29.5 86.5q0 67 56.5 115.5t134.5 48.5q79 0 135.5 -48t56.5 -116z" />
    <glyph glyph-name="quotedblleft" unicode="&#x201c;" horiz-adv-x="997" 
d="M354 1659l105 -45l-117 -277q48 -21 77.5 -60.5t29.5 -86.5q0 -68 -57 -116t-136 -48q-78 0 -134 48.5t-56 115.5q0 44 28 86zM848 1659l104 -45l-118 -277q49 -20 77.5 -59.5t28.5 -87.5q0 -67 -56 -115.5t-134 -48.5q-80 0 -136.5 47.5t-56.5 116.5q0 42 29 86z" />
    <glyph glyph-name="quotedblright" unicode="&#x201d;" horiz-adv-x="997" 
d="M436 1495q0 -44 -28 -86l-263 -383l-102 45l117 277q-48 21 -77.5 60.5t-29.5 86.5q0 67 56.5 115.5t134.5 48.5q79 0 135.5 -48t56.5 -116zM737 1659q80 0 136.5 -47.5t56.5 -116.5q0 -43 -29 -86l-262 -383l-104 45l118 277q-49 20 -77.5 59.5t-28.5 87.5
q0 67 56 115.5t134 48.5z" />
    <glyph glyph-name="quotedblbase" unicode="&#x201e;" horiz-adv-x="997" 
d="M436 141q0 -41 -24 -82l-267 -387l-102 45l117 277q-48 21 -77.5 60.5t-29.5 86.5q0 67 56.5 115.5t134.5 48.5q79 0 135.5 -48t56.5 -116zM930 141q0 -41 -27 -82l-264 -387l-104 45l118 277q-49 20 -77.5 59.5t-28.5 87.5q0 67 56 115.5t134 48.5q79 0 136 -48t57 -116
z" />
    <glyph glyph-name="dagger" unicode="&#x2020;" horiz-adv-x="1110" 
d="M705 1454v-391h331v-272h-331v-1104h-302v1104h-331v272h331v391h302z" />
    <glyph glyph-name="daggerdbl" unicode="&#x2021;" horiz-adv-x="1110" 
d="M705 1454v-391h331v-272h-331v-441h331v-272h-331v-391h-302v391h-331v272h331v441h-331v272h331v391h302z" />
    <glyph glyph-name="bullet" unicode="&#x2022;" horiz-adv-x="843" 
d="M168 885q104 104 252 104q149 0 250 -104q104 -101 104 -250q0 -148 -104 -252q-102 -102 -250 -102q-147 0 -252 102q-102 105 -102 252q0 148 102 250z" />
    <glyph glyph-name="ellipsis" unicode="&#x2026;" horiz-adv-x="1691" 
d="M121 256q57 50 136 50t134 -50q57 -47 57 -114t-57 -117q-55 -47 -134 -47t-136 47q-55 50 -55 117t55 114zM709 256q55 50 134.5 50t135.5 -50q55 -47 55 -114.5t-55 -116.5q-55 -47 -135 -47t-135 47q-55 49 -55 116.5t55 114.5zM1622 141q0 -69 -56 -116.5t-134 -47.5
q-60 -3 -107.5 27.5t-68.5 74.5t-12.5 94t52.5 83q39 39 98 47t110 -10.5t86.5 -60t31.5 -91.5z" />
    <glyph glyph-name="perthousand" unicode="&#x2030;" horiz-adv-x="2734" 
d="M1657 1468l-1102 -1503h-319l1101 1503h320zM147 1341q102 111 275 111t272 -111q101 -107 101 -294q0 -185 -101 -295q-100 -109 -272 -109t-275 109q-98 110 -98 295q0 187 98 294zM422 1235q-56 0 -89.5 -50.5t-33.5 -135.5q0 -86 34 -136.5t89 -50.5q56 0 89.5 50.5
t33.5 134.5q0 87 -33.5 137.5t-89.5 50.5zM1198 682q102 111 275 111t272 -111q100 -109 100 -297q0 -186 -100 -295q-99 -108 -272 -108t-275 108q-98 110 -98 295q0 187 98 297zM2312 -18q-175 0 -274 109.5t-99 295.5q0 184 99 295q102 111 274 111q174 0 273 -111
q100 -109 100 -297q0 -185 -100 -294t-273 -109zM1473 573q-57 0 -91 -51q-32 -46 -32 -135q0 -88 32 -137q21 -30 51 -42t59 -4t54 30t38.5 62.5t10.5 90.5q0 85 -33.5 135.5t-88.5 50.5zM2189 387q0 -86 33.5 -136t89.5 -50q54 0 88 49q35 53 35 137q0 85 -35 135
q-20 31 -49.5 43.5t-58.5 4.5t-54 -29.5t-38.5 -62.5t-10.5 -91z" />
    <glyph glyph-name="guilsinglleft" unicode="&#x2039;" horiz-adv-x="757" 
d="M446 1024l267 -137l-267 -344l267 -344l-269 -133l-378 477z" />
    <glyph glyph-name="guilsinglright" unicode="&#x203a;" horiz-adv-x="757" 
d="M309 1024l383 -481l-379 -477l-270 133l268 344l-268 344z" />
    <glyph glyph-name="fraction" unicode="&#x2044;" horiz-adv-x="1384" 
d="M1298 1468l-948 -1503h-297l946 1503h299z" />
    <glyph glyph-name="zerosuperior" unicode="&#x2070;" horiz-adv-x="772" 
d="M131 1423q95 105 254 105q161 0 256 -105q94 -101 94 -270q0 -168 -94 -272q-95 -103 -256 -103q-159 0 -254 103q-94 104 -94 272q0 169 94 270zM387 1321q-50 0 -80 -43q-28 -42 -28 -125q0 -82 28 -127q19 -25 45.5 -36t52.5 -4.5t47.5 25.5t33 56.5t8.5 85.5
q0 84 -30 126t-77 42z" />
    <glyph glyph-name="foursuperior" unicode="&#x2074;" horiz-adv-x="729" 
d="M614 1516v-420h93v-176h-95v-134h-225v134h-342l-29 170l340 426h258zM387 1286l-141 -190h141v190z" />
    <glyph glyph-name="fivesuperior" unicode="&#x2075;" horiz-adv-x="681" 
d="M616 1516v-168h-313l-2 -88q34 12 76 12q121 0 196.5 -63.5t75.5 -178.5t-85 -184.5t-212 -69.5q-93 0 -183 38.5t-146 105.5l112 124q69 -81 176 -81q45 0 73 23t28 65q0 32 -27 52.5t-66 20.5q-65 3 -102 -43l-147 74l18 361h528z" />
    <glyph glyph-name="sixsuperior" unicode="&#x2076;" horiz-adv-x="686" 
d="M375 1528q144 0 260 -84l-98 -152q-64 49 -138 49q-99 0 -114 -120l-2 -7q56 33 131 33q114 0 181 -61t67 -152q0 -102 -82 -178q-84 -78 -215 -78q-79 0 -139 24t-95 60t-57 86t-29.5 95.5t-7.5 93.5q0 182 89 287t249 104zM362 1124q-38 0 -65 -20.5t-33 -52.5
q12 -107 98 -107q34 0 61.5 27t27.5 63q0 38 -26 64t-63 26z" />
    <glyph glyph-name="sevensuperior" unicode="&#x2077;" horiz-adv-x="626" 
d="M614 1516v-173l-313 -557h-268l307 531h-320v199h594z" />
    <glyph glyph-name="eightsuperior" unicode="&#x2078;" horiz-adv-x="708" 
d="M649 1325q0 -95 -90 -154q113 -58 113 -174q0 -89 -90 -155q-88 -64 -228 -64q-139 0 -227 64q-90 66 -90 155q0 116 113 174q-89 59 -89 154q0 86 85 144.5t208 58.5q121 0 209 -60q86 -59 86 -143zM268 1294q0 -31 24.5 -52t61.5 -21t62.5 21t25.5 52q0 29 -26.5 51.5
t-61.5 22.5t-60.5 -22.5t-25.5 -51.5zM354 1098q-39 0 -67.5 -22.5t-28.5 -57.5q0 -31 29 -54.5t67 -23.5q41 0 69 23.5t28 54.5q0 35 -27 57.5t-70 22.5z" />
    <glyph glyph-name="ninesuperior" unicode="&#x2079;" horiz-adv-x="686" 
d="M319 1528q79 0 139 -24t95 -60.5t57 -86.5t29.5 -95t7.5 -93q0 -182 -89 -287t-249 -104q-144 0 -260 84l98 152q64 -49 138 -49q99 0 114 120l2 5q-56 -33 -131 -33q-113 0 -180 62t-67 153q0 103 81 178q84 78 215 78zM322 1360q-37 0 -63 -26t-26 -64q0 -37 26 -63.5
t63 -26.5q38 0 65 21t33 54q-12 105 -98 105z" />
    <glyph glyph-name="zeroinferior" unicode="&#x2080;" horiz-adv-x="772" 
d="M131 346q95 105 254 105q161 0 256 -105q94 -101 94 -270q0 -170 -94 -271q-94 -104 -256 -104q-160 0 -254 104q-94 101 -94 271q0 169 94 270zM465 203q-29 43 -78 43t-80 -43q-28 -45 -28 -127q0 -83 28 -125q31 -43 80 -43t78 43t29 125q0 80 -29 127z" />
    <glyph glyph-name="oneinferior" unicode="&#x2081;" horiz-adv-x="458" 
d="M408 442v-729h-238v520l-119 -24l-41 176l219 57h179z" />
    <glyph glyph-name="twoinferior" unicode="&#x2082;" horiz-adv-x="663" 
d="M336 453q117 0 203 -66.5t86 -179.5q0 -63 -36.5 -118t-123.5 -124l-68 -61h238v-191h-615v170l312 236q49 40 49 74q0 28 -18.5 42.5t-43.5 14.5q-80 0 -153 -94l-150 127q49 80 135 125t185 45z" />
    <glyph glyph-name="threeinferior" unicode="&#x2083;" horiz-adv-x="681" 
d="M623 440v-161l-152 -129l29 -7q67 -25 104 -73t37 -113q0 -115 -84.5 -185.5t-218.5 -70.5q-168 0 -320 119l129 135q78 -66 164 -66q42 0 67 20t25 56q0 62 -86 62q-36 -3 -104 -19l-37 119l160 125h-264v188h551z" />
    <glyph glyph-name="fourinferior" unicode="&#x2084;" horiz-adv-x="729" 
d="M614 442v-417h93v-179h-95v-133h-225v133h-342l-29 172l340 424h258zM387 215l-141 -190h141v190z" />
    <glyph glyph-name="fiveinferior" unicode="&#x2085;" horiz-adv-x="681" 
d="M616 440v-166h-313l-2 -90q37 13 76 13q121 0 196.5 -62.5t75.5 -177.5q0 -116 -85.5 -186t-211.5 -70q-94 0 -183.5 38t-145.5 105l112 127q72 -84 176 -84q45 0 73 23.5t28 64.5q0 32 -27 53t-66 21q-65 3 -102 -43l-147 76l18 358h528z" />
    <glyph glyph-name="sixinferior" unicode="&#x2086;" horiz-adv-x="686" 
d="M375 451q144 0 260 -84l-98 -152q-64 49 -138 49q-99 0 -114 -121l-2 -6q59 35 131 35q113 0 180.5 -62t67.5 -153q0 -102 -82 -178q-84 -78 -215 -78q-79 0 -139 24t-95 60.5t-57 86.5t-29.5 94.5t-7.5 92.5q0 182 89 287.5t249 104.5zM362 49q-38 0 -65 -21.5
t-33 -54.5q12 -106 98 -106q37 0 63 27t26 65q0 37 -26 63.5t-63 26.5z" />
    <glyph glyph-name="seveninferior" unicode="&#x2087;" horiz-adv-x="626" 
d="M614 442v-170l-313 -559h-268l307 531h-320v198h594z" />
    <glyph glyph-name="eightinferior" unicode="&#x2088;" horiz-adv-x="708" 
d="M649 248q0 -96 -90 -152q113 -61 113 -176q0 -90 -90 -156q-86 -63 -228 -63q-141 0 -227 63q-90 66 -90 156q0 115 113 176q-89 56 -89 152q0 86 85 144.5t208 58.5q121 0 209 -60q86 -59 86 -143zM268 219q-4 -46 41 -65.5t90.5 0t42.5 65.5q0 29 -26.5 50.5
t-61.5 21.5t-60.5 -21.5t-25.5 -50.5zM354 20q-38 0 -67 -21.5t-29 -55.5q-3 -48 47 -68t100 0t46 68q0 32 -28 54.5t-69 22.5z" />
    <glyph glyph-name="nineinferior" unicode="&#x2089;" horiz-adv-x="686" 
d="M319 451q79 0 139 -24t95 -60t57 -86t29.5 -95.5t7.5 -93.5q0 -182 -89 -287t-249 -104q-144 0 -260 84l98 152q65 -50 138 -50q99 0 114 121l2 6q-54 -32 -131 -32q-113 0 -180 61t-67 152q0 103 81 178q84 78 215 78zM322 285q-34 0 -61.5 -27t-27.5 -63
q0 -38 26 -64.5t63 -26.5q39 0 65.5 20.5t32.5 55.5q-12 105 -98 105z" />
    <glyph glyph-name="Euro" unicode="&#x20ac;" horiz-adv-x="1460" 
d="M1114 403l272 -170q-98 -120 -232.5 -186.5t-285.5 -66.5q-224 0 -405 141q-178 141 -248 364h-158v183h125v49q0 35 2 53h-127v182h160q68 221 247.5 361.5t403.5 140.5q150 0 285 -67t233 -187l-272 -170q-90 90 -207 90q-85 0 -154 -44.5t-112 -123.5h309v-182h-364
q-2 -18 -2 -53q0 -33 2 -49h364v-181h-311q43 -82 112.5 -128t155.5 -46q117 0 207 90z" />
    <glyph glyph-name="trademark" unicode="&#x2122;" horiz-adv-x="1878" 
d="M743 1434v-207h-229v-609h-242v609h-229v207h700zM1812 1434v-816h-237v469l-215 -364h-90l-215 364v-469h-238v816h301l197 -324l196 324h301z" />
    <glyph glyph-name="oneeighth" unicode="&#x215b;" horiz-adv-x="1523" 
d="M1298 1468l-946 -1503h-286l946 1503h286zM412 1434v-729h-238v520l-117 -27l-43 176l219 60h179zM1462 535q0 -97 -88 -152q113 -61 113 -176q0 -90 -91.5 -154.5t-226.5 -64.5q-141 0 -227 63q-90 66 -90 156q0 115 113 176q-91 57 -91 152q0 86 85 144t208 58
q126 0 209 -59q86 -59 86 -143zM1081 506q-3 -46 42.5 -65.5t90.5 0t41 65.5q0 29 -25.5 50.5t-62.5 21.5q-35 0 -60.5 -21.5t-25.5 -50.5zM1169 307q-38 0 -67 -22t-29 -56q0 -31 28 -55t68 -24q39 0 68 23.5t29 55.5t-28 55t-69 23z" />
    <glyph glyph-name="threeeighths" unicode="&#x215c;" horiz-adv-x="1644" 
d="M1423 1468l-946 -1503h-289l947 1503h288zM623 1434v-162l-152 -129q18 -4 29 -8q67 -23 104 -71.5t37 -113.5q0 -116 -84 -186t-219 -70q-168 0 -320 119l129 135q77 -65 162 -65q44 0 69 19.5t25 55.5q0 63 -86 60q-34 0 -104 -17l-37 119l160 123h-264v191h551z
M1583 535q0 -96 -90 -152q113 -61 113 -176q0 -90 -90 -156q-86 -63 -228 -63q-141 0 -227 63q-90 66 -90 156q0 116 112 176q-88 55 -88 152q0 86 85 144t208 58q126 0 209 -59q86 -59 86 -143zM1288 578q-35 0 -60.5 -22t-25.5 -50q0 -32 24.5 -54t61.5 -22q36 0 62 22
t26 54q0 29 -25.5 50.5t-62.5 21.5zM1288 307q-38 0 -67 -22t-29 -56q0 -31 29 -55t67 -24q41 0 68.5 23t27.5 56q0 34 -27 56t-69 22z" />
    <glyph glyph-name="fiveeighths" unicode="&#x215d;" horiz-adv-x="1640" 
d="M1419 1468l-946 -1503h-289l949 1503h286zM616 1434v-168h-313l-2 -88q34 12 76 12q121 0 196.5 -63.5t75.5 -178.5t-85 -184.5t-212 -69.5q-93 0 -183 38.5t-146 105.5l112 125q70 -82 176 -82q45 0 73 23t28 65q0 32 -27 52.5t-66 20.5q-65 3 -102 -43l-147 74l18 361
h528zM1579 535q0 -97 -88 -152q113 -61 113 -176q0 -90 -91.5 -154.5t-226.5 -64.5q-141 0 -227 63q-90 66 -90 156q0 116 112 176q-90 56 -90 152q0 86 85 144t208 58q126 0 209 -59q86 -59 86 -143zM1286 578q-35 0 -61.5 -21.5t-26.5 -50.5q0 -32 25.5 -54t62.5 -22
q36 0 61 21.5t25 54.5q0 28 -25.5 50t-60.5 22zM1286 307q-38 0 -67 -22t-29 -56q-4 -48 45.5 -68t99.5 0t47 68q0 33 -27.5 55.5t-68.5 22.5z" />
    <glyph glyph-name="seveneighths" unicode="&#x215e;" horiz-adv-x="1474" 
d="M1255 1468l-946 -1503h-289l947 1503h288zM618 1434v-172l-315 -557h-266l307 530h-319v199h593zM1415 535q0 -96 -90 -152q113 -61 113 -176q0 -90 -90 -156q-86 -63 -228 -63q-141 0 -227 63q-90 66 -90 156q0 116 112 176q-88 55 -88 152q0 86 85 144t208 58
q126 0 209 -59q86 -59 86 -143zM1034 506q0 -32 24.5 -54t61.5 -22q36 0 62 22t26 54q0 29 -25.5 50.5t-62.5 21.5q-35 0 -60.5 -21.5t-25.5 -50.5zM1120 307q-38 0 -67 -22t-29 -56q-3 -48 47 -68t100 0t46 68q0 33 -27.5 55.5t-69.5 22.5z" />
    <glyph glyph-name="partialdiff" unicode="&#x2202;" horiz-adv-x="1433" 
 />
    <glyph glyph-name="emptyset" unicode="&#x2205;" horiz-adv-x="1433" 
 />
    <glyph glyph-name="product" unicode="&#x220f;" horiz-adv-x="1433" 
 />
    <glyph glyph-name="summation" unicode="&#x2211;" horiz-adv-x="1433" 
 />
    <glyph glyph-name="minus" unicode="&#x2212;" horiz-adv-x="1167" 
d="M1098 741v-274h-1032v274h1032z" />
    <glyph glyph-name="radical" unicode="&#x221a;" horiz-adv-x="1433" 
 />
    <glyph glyph-name="infinity" unicode="&#x221e;" horiz-adv-x="1433" 
 />
    <glyph glyph-name="integral" unicode="&#x222b;" horiz-adv-x="1433" 
 />
    <glyph glyph-name="approxequal" unicode="&#x2248;" horiz-adv-x="1132" 
d="M291 997q71 9 121 0q58 -11 147 -47l45 -18q76 -30 105 -39q31 -10 48 -11t38 3q84 9 108 102l174 -18q18 -155 -37.5 -255.5t-165.5 -125.5q-70 -9 -122 0q-55 10 -146 49l-43 16l-129 45q-25 8 -61 2q-84 -12 -105 -104l-174 18q-21 156 33 257t164 126zM291 498
q68 12 121 2q44 -8 147 -47q15 -9 45 -19q51 -21 105 -39q31 -10 48 -11t38 3q84 9 108 102l174 -18q19 -154 -36.5 -255t-166.5 -126q-70 -9 -122 0q-55 10 -146 49q-6 1 -21.5 7t-21.5 8q-63 25 -129 47q-25 8 -61 2q-84 -12 -105 -105l-174 19q-20 154 33.5 256
t163.5 125z" />
    <glyph glyph-name="notequal" unicode="&#x2260;" horiz-adv-x="1142" 
d="M1092 674h-320l-82 -174h402v-275h-533l-127 -266h-319l127 266h-191v275h322l82 174h-404v276h535l125 264h319l-125 -264h189v-276z" />
    <glyph glyph-name="lessequal" unicode="&#x2264;" horiz-adv-x="1167" 
d="M1098 1251v-327l-615 -203l615 -203v-328l-1032 383v295zM1098 106v-274h-1032v274h1032z" />
    <glyph glyph-name="greaterequal" unicode="&#x2265;" horiz-adv-x="1167" 
d="M66 1251l1032 -383v-295l-1032 -383v328l616 203l-616 203v327zM1098 106v-274h-1032v274h1032z" />
    <glyph glyph-name="lozenge" unicode="&#x25ca;" horiz-adv-x="1228" 
 />
    <glyph glyph-name="NULL" horiz-adv-x="0" 
 />
    <glyph glyph-name="CR" horiz-adv-x="681" 
 />
    <glyph glyph-name="A.sc" horiz-adv-x="1292" 
d="M858 1024l406 -1024h-400l-57 178h-324l-59 -178h-399l405 1024h428zM645 692l-94 -268h186z" />
    <glyph glyph-name="AE.sc" horiz-adv-x="1593" 
d="M430 1024h1108v-268h-537v-121h500v-234h-500v-133h547v-268h-903v178h-162l-59 -178h-399zM645 692l-94 -268h94v268z" />
    <glyph glyph-name="Aacute.sc" horiz-adv-x="1292" 
d="M858 1024l406 -1024h-400l-57 178h-324l-59 -178h-399l405 1024h428zM645 692l-94 -268h186zM1098 1487l-310 -357h-309l246 357h373z" />
    <glyph glyph-name="Abreve.sc" horiz-adv-x="1292" 
d="M809 1495h238q0 -148 -115 -248q-116 -96 -281 -96q-164 0 -280 96q-113 98 -113 248h238q-7 -79 74.5 -112t163.5 0t75 112zM858 1024l406 -1024h-400l-57 178h-324l-59 -178h-399l405 1024h428zM645 692l-94 -268h186z" />
    <glyph glyph-name="Acaron.sc" horiz-adv-x="1292" 
d="M1085 1487l-251 -357h-377l-252 357h299l141 -170l141 170h299zM858 1024l406 -1024h-400l-57 178h-324l-59 -178h-399l405 1024h428zM645 692l-94 -268h186z" />
    <glyph glyph-name="Acircumflex.sc" horiz-adv-x="1292" 
d="M834 1487l251 -357h-299l-141 170l-141 -170h-297l250 357h377zM858 1024l406 -1024h-400l-57 178h-324l-59 -178h-399l405 1024h428zM645 692l-94 -268h186z" />
    <glyph glyph-name="Acircumflexdotbelow.sc" horiz-adv-x="1292" 
d="M834 1487l251 -357h-299l-141 170l-141 -170h-297l250 357h377zM858 1024l406 -1024h-400l-57 178h-324l-59 -178h-399l405 1024h428zM645 692l-94 -268h186zM537 -244q43 43 107.5 43t105.5 -43q43 -43 43 -106.5t-43 -106.5q-41 -43 -105.5 -43t-107.5 43
q-41 43 -41 106.5t41 106.5z" />
    <glyph glyph-name="Adieresis.sc" horiz-adv-x="1292" 
d="M328 1432q43 43 106.5 43t106.5 -43q43 -41 43 -105.5t-43 -107.5q-43 -41 -106.5 -41t-106.5 41q-43 43 -43 107.5t43 105.5zM750 1432q43 43 107.5 43t105.5 -43q43 -41 43 -105.5t-43 -107.5q-41 -41 -105.5 -41t-107.5 41q-41 43 -41 107.5t41 105.5zM858 1024
l406 -1024h-400l-57 178h-324l-59 -178h-399l405 1024h428zM645 692l-94 -268h186z" />
    <glyph glyph-name="Adieresismacron.sc" horiz-adv-x="1366" 
d="M1036 1759v-223h-708v223h708zM895 1475q46 4 83 -23t52.5 -68t8.5 -87.5t-40 -77.5q-30 -32 -76.5 -38.5t-87 8.5t-67.5 52.5t-23 85.5q0 62 43 105t107 43zM365 1432q43 43 106.5 43t106.5 -43q43 -41 43 -105.5t-43 -107.5q-43 -41 -106.5 -41t-106.5 41
q-41 43 -41 107.5t41 105.5zM895 1024l405 -1024h-399l-57 178h-324l-59 -178h-400l406 1024h428zM682 692l-94 -268h186z" />
    <glyph glyph-name="Agrave.sc" horiz-adv-x="1292" 
d="M557 1487l248 -357h-309l-310 357h371zM858 1024l406 -1024h-400l-57 178h-324l-59 -178h-399l405 1024h428zM645 692l-94 -268h186z" />
    <glyph glyph-name="Amacron.sc" horiz-adv-x="1292" 
d="M999 1438v-224h-708v224h708zM858 1024l406 -1024h-400l-57 178h-324l-59 -178h-399l405 1024h428zM645 692l-94 -268h186z" />
    <glyph glyph-name="Aogonek.sc" horiz-adv-x="1366" 
d="M895 1024l405 -1024h-202l-17 -25q-65 -90 -47 -149q15 -62 92 -68q36 -3 82 13l43 -164q-84 -37 -194 -37q-185 0 -234 111q-54 111 60 290l18 29l-57 178h-324l-59 -178h-400l406 1024h428zM682 692l-94 -268h186z" />
    <glyph glyph-name="Aring.sc" horiz-adv-x="1292" 
d="M645 1597q117 0 200 -80.5t83 -195.5q0 -113 -84 -197q-83 -80 -199 -80q-118 0 -201 80q-82 82 -82 197q0 116 82 195q81 81 201 81zM725 1399q-32 32 -79 32t-79 -32t-32 -78t32 -78t79 -32t79 32t32 78t-32 78zM858 1024l406 -1024h-400l-57 178h-324l-59 -178h-399
l405 1024h428zM645 692l-94 -268h186z" />
    <glyph glyph-name="Atilde.sc" horiz-adv-x="1292" 
d="M426 1475q56 10 91.5 3.5t111.5 -38.5q122 -49 172 -49q63 0 84 77l135 -14q17 -120 -24.5 -200t-127.5 -99q-60 -9 -93 -2.5t-111 37.5q-35 14 -41 16q-75 29 -91 31q-18 6 -45 0q-58 -9 -73 -76l-135 15q-17 121 23.5 200.5t123.5 98.5zM858 1024l406 -1024h-400
l-57 178h-324l-59 -178h-399l405 1024h428zM645 692l-94 -268h186z" />
    <glyph glyph-name="B.sc" horiz-adv-x="1116" 
d="M90 0v1024h582q165 0 261.5 -71.5t96.5 -198.5q0 -144 -123 -215q81 -37 122.5 -103t41.5 -145q0 -54 -19.5 -103t-61 -92.5t-118 -69.5t-178.5 -26h-604zM446 768v-141h136q92 0 92 69q0 72 -92 72h-136zM446 412v-156h162q99 0 99 78t-99 78h-162z" />
    <glyph glyph-name="Bdotbelow.sc" horiz-adv-x="1116" 
d="M90 0v1024h582q165 0 261.5 -71.5t96.5 -198.5q0 -144 -123 -215q81 -37 122.5 -103t41.5 -145q0 -54 -19.5 -103t-61 -92.5t-118 -69.5t-178.5 -26h-604zM446 768v-141h136q92 0 92 69q0 72 -92 72h-136zM446 412v-156h162q99 0 99 78t-99 78h-162zM432 -244
q43 43 107.5 43t105.5 -43q43 -43 43 -106.5t-43 -106.5q-41 -43 -105.5 -43t-107.5 43q-41 43 -41 106.5t41 106.5z" />
    <glyph glyph-name="C.sc" horiz-adv-x="1136" 
d="M625 1044q148 0 274 -69q132 -72 197 -176l-291 -164q-38 60 -79.5 86.5t-98.5 26.5q-88 0 -145.5 -66.5t-57.5 -169.5t57.5 -169.5t145.5 -66.5q57 0 98.5 26.5t79.5 86.5l291 -164q-65 -104 -197 -176q-126 -69 -274 -69q-231 0 -402 157q-168 158 -168 375
q0 218 168 373q170 159 402 159z" />
    <glyph glyph-name="Cacute.sc" horiz-adv-x="1136" 
d="M1053 1487l-312 -357h-307l246 357h373zM625 1044q148 0 274 -69q132 -72 197 -176l-291 -164q-38 60 -79.5 86.5t-98.5 26.5q-88 0 -145.5 -66.5t-57.5 -169.5t57.5 -169.5t145.5 -66.5q57 0 98.5 26.5t79.5 86.5l291 -164q-65 -104 -197 -176q-126 -69 -274 -69
q-231 0 -402 157q-168 158 -168 375q0 218 168 373q170 159 402 159z" />
    <glyph glyph-name="Ccaron.sc" horiz-adv-x="1136" 
d="M1038 1487l-252 -357h-376l-250 357h297l141 -170l141 170h299zM625 1044q148 0 274 -69q132 -72 197 -176l-291 -164q-39 61 -80.5 87t-97.5 26q-88 0 -145.5 -66.5t-57.5 -169.5t57.5 -169.5t145.5 -66.5q57 0 98.5 26.5t79.5 86.5l291 -164q-65 -104 -197 -176
q-126 -69 -274 -69q-231 0 -402 157q-168 158 -168 375q0 218 168 373q170 159 402 159z" />
    <glyph glyph-name="Ccedilla.sc" horiz-adv-x="1136" 
d="M625 1044q148 0 274 -69q132 -72 197 -176l-291 -164q-38 60 -79.5 86.5t-98.5 26.5q-88 0 -145.5 -66.5t-57.5 -169.5t57.5 -169.5t145.5 -66.5q57 0 98.5 26.5t79.5 86.5l291 -164q-55 -83 -145 -144t-197 -85q-52 -12 -109 -12l-35 -72q32 3 66 -6q61 -19 98 -66
t37 -112q0 -96 -72 -149.5t-186 -53.5q-126 0 -227 55l45 127q51 -26 118 -26q48 1 77.5 27.5t31.5 64.5q0 32 -21 54t-55 23q-32 0 -57 -14l-41 39l59 121q-184 46 -307 190q-121 145 -121 326q0 218 168 373q170 159 402 159z" />
    <glyph glyph-name="Cdotaccent.sc" horiz-adv-x="1136" 
d="M494 1432q43 43 106.5 43t106.5 -43q43 -41 43 -105.5t-43 -107.5q-43 -41 -106.5 -41t-106.5 41q-43 43 -43 107.5t43 105.5zM625 1044q148 0 274 -69q132 -72 197 -176l-291 -164q-39 61 -80.5 87t-97.5 26q-88 0 -145.5 -66.5t-57.5 -169.5t57.5 -169.5t145.5 -66.5
q57 0 98.5 26.5t79.5 86.5l291 -164q-66 -105 -196.5 -175t-274.5 -70q-148 -3 -281.5 71t-213 198.5t-75.5 262.5q0 218 168 373q170 159 402 159z" />
    <glyph glyph-name="D.sc" horiz-adv-x="1189" 
d="M90 0v1024h473q230 0 402 -152q170 -150 170 -360q0 -212 -170 -362q-169 -150 -402 -150h-473zM553 743h-107v-462h107q94 0 156.5 65.5t62.5 165.5t-62.5 165.5t-156.5 65.5z" />
    <glyph glyph-name="Dcaron.sc" horiz-adv-x="1189" 
d="M1006 1487l-252 -357h-375l-252 357h299l139 -170l142 170h299zM90 0v1024h473q230 0 402 -152q170 -150 170 -360q0 -212 -170 -362q-169 -150 -402 -150h-473zM553 743h-107v-462h107q94 0 156.5 65t62.5 166q0 102 -62 166.5t-157 64.5z" />
    <glyph glyph-name="Dcircumflexbelow.sc" horiz-adv-x="1189" 
d="M90 0v1024h473q230 0 402 -152q170 -150 170 -360q0 -212 -170 -362q-169 -150 -402 -150h-473zM553 743h-107v-462h107q94 0 156.5 65.5t62.5 165.5t-62.5 165.5t-156.5 65.5zM752 -143l249 -357h-296l-142 170l-141 -170h-299l252 357h377z" />
    <glyph glyph-name="Dcroat.sc" horiz-adv-x="1189" 
d="M90 616v408h473q230 0 402 -152q170 -150 170 -360q0 -212 -170 -362q-169 -150 -402 -150h-473v408h-100v208h100zM446 408v-127h107q94 0 156.5 65.5t62.5 165.5q0 102 -62 166.5t-157 64.5h-107v-127h148v-208h-148z" />
    <glyph glyph-name="Ddotbelow.sc" horiz-adv-x="1189" 
d="M90 0v1024h473q230 0 402 -152q170 -150 170 -360q0 -212 -170 -362q-169 -150 -402 -150h-473zM553 743h-107v-462h107q94 0 156.5 65.5t62.5 165.5t-62.5 165.5t-156.5 65.5zM711 -350q0 -63 -43 -106.5t-105 -43.5q-48 -4 -85.5 23.5t-52.5 68t-8.5 87t38.5 77.5
q31 34 77.5 41t87.5 -9t68 -53.5t23 -84.5z" />
    <glyph glyph-name="Dlinebelow.sc" horiz-adv-x="1189" 
d="M90 0v1024h473q230 0 402 -152q170 -150 170 -360q0 -212 -170 -362q-169 -150 -402 -150h-473zM553 743h-107v-462h107q94 0 156.5 65.5t62.5 165.5t-62.5 165.5t-156.5 65.5zM915 -184v-224h-706v224h706z" />
    <glyph glyph-name="E.sc" horiz-adv-x="1038" 
d="M985 1024v-268h-539v-121h502v-234h-502v-133h547v-268h-903v1024h895z" />
    <glyph glyph-name="Eacute.sc" horiz-adv-x="1038" 
d="M987 1487l-311 -357h-309l247 357h373zM985 1024v-268h-539v-121h502v-234h-502v-133h547v-268h-903v1024h895z" />
    <glyph glyph-name="Ecaron.sc" horiz-adv-x="1038" 
d="M973 1487l-252 -357h-377l-252 357h299l141 -170l142 170h299zM985 1024v-268h-539v-121h502v-234h-502v-133h547v-268h-903v1024h895z" />
    <glyph glyph-name="Ecircumflex.sc" horiz-adv-x="1038" 
d="M721 1487l252 -357h-297l-141 170l-142 -170h-299l252 357h375zM985 1024v-268h-539v-121h502v-234h-502v-133h547v-268h-903v1024h895z" />
    <glyph glyph-name="Ecircumflexdotbelow.sc" horiz-adv-x="1038" 
d="M721 1487l252 -357h-297l-141 170l-142 -170h-299l252 357h375zM985 1024v-268h-539v-121h502v-234h-502v-133h547v-268h-903v1024h895zM412 -244q43 43 107.5 43t105.5 -43q43 -43 43 -106.5t-43 -106.5q-41 -43 -105.5 -43t-107.5 43q-41 43 -41 106.5t41 106.5z" />
    <glyph glyph-name="Edieresis.sc" horiz-adv-x="1038" 
d="M322 1475q64 0 106.5 -43t42.5 -105q4 -48 -23 -85.5t-68 -52.5t-87.5 -8.5t-77.5 38.5q-32 31 -38.5 77.5t9 87.5t52.5 68t84 23zM745 1475q46 4 83 -23t53 -68t9 -87.5t-40 -77.5q-30 -32 -75.5 -38.5t-86 8.5t-68.5 52.5t-24 85.5q0 62 42.5 105t106.5 43zM985 1024
v-268h-539v-121h502v-234h-502v-133h547v-268h-903v1024h895z" />
    <glyph glyph-name="Edotaccent.sc" horiz-adv-x="1038" 
d="M985 1024v-268h-539v-121h502v-234h-502v-133h547v-268h-903v1024h895zM426 1432q43 43 107.5 43t105.5 -43q43 -41 43 -105.5t-43 -107.5q-41 -41 -105.5 -41t-107.5 41q-41 43 -41 107.5t41 105.5z" />
    <glyph glyph-name="Edotbelow.sc" horiz-adv-x="1038" 
d="M985 1024v-268h-539v-121h502v-234h-502v-133h547v-268h-903v1024h895zM412 -244q43 43 107.5 43t105.5 -43q43 -43 43 -106.5t-43 -106.5q-41 -43 -105.5 -43t-107.5 43q-41 43 -41 106.5t41 106.5z" />
    <glyph glyph-name="Egrave.sc" horiz-adv-x="1038" 
d="M983 1024v-268h-539v-121h502v-234h-502v-133h547v-268h-903v1024h895zM444 1487l246 -357h-309l-309 357h372z" />
    <glyph glyph-name="Emacron.sc" horiz-adv-x="1038" 
d="M887 1438v-224h-709v224h709zM985 1024v-268h-539v-121h502v-234h-502v-133h547v-268h-903v1024h895z" />
    <glyph glyph-name="Eogonek.sc" horiz-adv-x="1038" 
d="M985 1024v-268h-539v-121h502v-234h-502v-133h547v-268h-131l-18 -27q-46 -73 -31 -125q15 -61 92 -67q39 -6 82 12l43 -164q-84 -37 -194 -37q-184 0 -234 111q-53 109 47 272l17 25h-576v1024h895z" />
    <glyph glyph-name="Eth.sc" horiz-adv-x="1189" 
d="M90 616v408h473q230 0 402 -152q170 -150 170 -360q0 -212 -170 -362q-169 -150 -402 -150h-473v408h-100v208h100zM446 408v-127h107q94 0 156.5 65.5t62.5 165.5q0 102 -62 166.5t-157 64.5h-107v-127h148v-208h-148z" />
    <glyph glyph-name="Etilde.sc" horiz-adv-x="1038" 
d="M313 1475q56 10 91.5 3.5t111.5 -38.5q122 -49 172 -49q63 0 84 77l135 -14q17 -120 -24 -200t-127 -99q-60 -9 -92.5 -2.5t-110.5 37.5l-43 16q-76 29 -90 31q-18 6 -45 0q-59 -9 -74 -76l-135 15q-17 121 23.5 200.5t123.5 98.5zM985 1024v-268h-539v-121h502v-234
h-502v-133h547v-268h-903v1024h895z" />
    <glyph glyph-name="F.sc" horiz-adv-x="997" 
d="M954 1024v-272h-508v-152h463v-252h-463v-348h-356v1024h864z" />
    <glyph glyph-name="G.sc" horiz-adv-x="1191" 
d="M649 1044q120 -2 236.5 -46t197.5 -121l-217 -197q-101 76 -213 76q-101 -2 -165 -66.5t-64 -177.5q0 -103 58 -169.5t149 -66.5q80 0 147 37v82h-172v187h506v-435q-91 -78 -217.5 -122.5t-263.5 -44.5q-232 0 -406 157q-170 159 -170 375q-1 118 50 221t135 171.5
t191.5 106t217.5 33.5z" />
    <glyph glyph-name="Gbreve.sc" horiz-adv-x="1191" 
d="M776 1495h238q-3 -149 -117 -248q-116 -96 -279 -96q-164 0 -280 96q-112 97 -115 248h238q1 -59 44.5 -93t112.5 -34t113 34t45 93zM649 1044q120 -2 236.5 -46t197.5 -121l-217 -197q-103 77 -213 74q-101 0 -165 -64.5t-64 -177.5q0 -103 58.5 -170.5t148.5 -67.5
q82 0 147 39v82h-172v187h506v-435q-93 -78 -220 -122.5t-261 -44.5q-232 0 -406 157q-170 159 -170 375q-1 118 50 221t135 171.5t191.5 106t217.5 33.5z" />
    <glyph glyph-name="Gcaron.sc" horiz-adv-x="1191" 
d="M1051 1487l-252 -357h-377l-250 357h297l141 -170l142 170h299zM649 1044q120 -2 236.5 -46t197.5 -121l-217 -197q-103 77 -213 74q-99 0 -164 -64t-65 -178q0 -103 58.5 -170.5t148.5 -67.5q82 0 147 39v82h-172v187h506v-435q-91 -78 -217.5 -122.5t-263.5 -44.5
q-232 0 -406 157q-170 159 -170 375q-1 118 50 221t135 171.5t191.5 106t217.5 33.5z" />
    <glyph glyph-name="Gcommaaccent.sc" horiz-adv-x="1191" 
d="M649 1044q120 -2 236.5 -46t197.5 -121l-217 -197q-101 76 -213 76q-101 -2 -165 -66.5t-64 -177.5q0 -103 58 -169.5t149 -66.5q80 0 147 37v82h-172v187h506v-435q-91 -78 -217.5 -122.5t-263.5 -44.5q-232 0 -406 157q-170 159 -170 375q-1 118 50 221t135 171.5
t191.5 106t217.5 33.5zM786 -252q0 -36 -22 -72l-232 -340l-90 41l103 244q-42 17 -67 51.5t-25 75.5q0 60 48.5 101.5t116.5 41.5q69 0 118.5 -41.5t49.5 -101.5z" />
    <glyph glyph-name="Gdotaccent.sc" horiz-adv-x="1191" 
d="M506 1432q43 43 106.5 43t104.5 -43q43 -41 43 -105.5t-43 -107.5q-41 -41 -104.5 -41t-106.5 41q-43 43 -43 107.5t43 105.5zM649 1044q120 -2 236.5 -46t197.5 -121l-217 -197q-101 76 -213 76q-101 -2 -165 -66.5t-64 -177.5q0 -103 58 -169.5t149 -66.5q80 0 147 37
v82h-172v187h506v-435q-91 -78 -217.5 -122.5t-263.5 -44.5q-232 0 -406 157q-170 159 -170 375q-1 118 50 221t135 171.5t191.5 106t217.5 33.5z" />
    <glyph glyph-name="H.sc" horiz-adv-x="1234" 
d="M1145 1024v-1024h-361v367h-331v-367h-363v1024h363v-360h331v360h361z" />
    <glyph glyph-name="Hbar.sc" horiz-adv-x="1234" 
d="M1235 930v-174h-90v-756h-363v367h-329v-367h-363v756h-90v174h90v94h363v-94h329v94h363v-94h90zM782 664v92h-329v-92h329z" />
    <glyph glyph-name="Hdotbelow.sc" horiz-adv-x="1234" 
d="M1145 1024v-1024h-361v367h-331v-367h-363v1024h363v-360h331v360h361zM768 -350q0 -63 -43 -106.5t-107 -43.5q-47 -4 -83.5 23.5t-52 68t-9 87t38.5 77.5q31 34 77.5 41t87.5 -9t68 -53.5t23 -84.5z" />
    <glyph glyph-name="I.sc" horiz-adv-x="542" 
d="M453 1024v-1024h-363v1024h363z" />
    <glyph glyph-name="IJ.sc" horiz-adv-x="1515" 
d="M453 1024v-1024h-363v1024h363zM1063 1024h360v-594q0 -239 -111 -344.5t-335 -105.5q-319 0 -408 200l285 156q38 -56 102 -53q44 0 75.5 31t31.5 87v623z" />
    <glyph glyph-name="Iacute.sc" horiz-adv-x="542" 
d="M725 1487l-311 -357h-310l248 357h373zM453 1024v-1024h-363v1024h363z" />
    <glyph glyph-name="Icircumflex.sc" horiz-adv-x="542" 
d="M461 1487l250 -357h-297l-142 170l-141 -170h-299l252 357h377zM453 1024v-1024h-363v1024h363z" />
    <glyph glyph-name="Idieresis.sc" horiz-adv-x="542" 
d="M-45 1432q41 43 105.5 43t105.5 -43q43 -41 43 -105.5t-43 -107.5q-41 -41 -105.5 -41t-105.5 41q-43 43 -43 107.5t43 105.5zM483 1178q-65 0 -107 42t-42 107q-4 46 23.5 83t68 53t87 9t77.5 -40q43 -40 43 -107q0 -63 -43.5 -105t-106.5 -42zM453 1024v-1024h-363
v1024h363z" />
    <glyph glyph-name="Idieresisacute.sc" horiz-adv-x="542" 
d="M725 1880l-311 -356h-310l248 356h373zM61 1432q62 0 105 -43t43 -107q4 -47 -23 -83.5t-67.5 -52t-87 -9t-76.5 38.5q-33 31 -40.5 77.5t8.5 87.5t53 68t85 23zM483 1135q-64 0 -106.5 42.5t-42.5 104.5q-4 48 23.5 85.5t68 53t87 8.5t77.5 -40q43 -40 43 -107
q0 -63 -43.5 -105t-106.5 -42zM453 1024v-1024h-363v1024h363z" />
    <glyph glyph-name="Idotaccent.sc" horiz-adv-x="542" 
d="M272 1475q64 0 106 -43t42 -105q4 -48 -23.5 -85.5t-67.5 -52.5t-86 -8.5t-77 38.5q-34 31 -41 77.5t9 87.5t53.5 68t84.5 23zM453 1024v-1024h-363v1024h363z" />
    <glyph glyph-name="Igrave.sc" horiz-adv-x="542" 
d="M455 1024v-1024h-363v1024h363zM186 1487l246 -357h-309l-309 357h372z" />
    <glyph glyph-name="Imacron.sc" horiz-adv-x="542" 
d="M625 1438v-224h-707v224h707zM453 1024v-1024h-363v1024h363z" />
    <glyph glyph-name="Iogonek.sc" horiz-adv-x="542" 
d="M453 1024v-1026l-19 -23q-63 -86 -47 -149q15 -62 92 -68q38 -3 84 13l43 -164q-84 -37 -196 -37q-185 0 -232 111q-57 110 58 290l16 27l-162 2v1024h363z" />
    <glyph glyph-name="Itilde.sc" horiz-adv-x="542" 
d="M70 1475q56 10 92 3.5t110 -38.5q122 -49 172 -49q63 0 84 77l136 -14q15 -123 -26 -201.5t-126 -97.5q-60 -9 -92.5 -2.5t-110.5 37.5l-41 16q-74 28 -92 31q-18 6 -43 0q-61 -9 -76 -76l-135 15q-17 121 24 200.5t124 98.5zM471 1024v-1024h-362v1024h362z" />
    <glyph glyph-name="J.sc" horiz-adv-x="972" 
d="M518 1024h361v-594q0 -239 -111.5 -344.5t-335.5 -105.5q-318 0 -407 200l284 156q38 -56 103 -53q46 0 76 31.5t30 86.5v623z" />
    <glyph glyph-name="K.sc" horiz-adv-x="1189" 
d="M1153 1024l-365 -428l375 -596h-442l-170 309l-98 -108v-201h-363v1024h363v-311l239 311h461z" />
    <glyph glyph-name="Kcommaaccent.sc" horiz-adv-x="1189" 
d="M1153 1024l-365 -428l375 -596h-442l-170 309l-98 -108v-201h-363v1024h363v-311l239 311h461zM768 -252q0 -34 -23 -72l-231 -340l-90 41l102 244q-42 17 -67 51.5t-25 75.5q0 60 49 101.5t117 41.5q69 0 118.5 -41.5t49.5 -101.5z" />
    <glyph glyph-name="L.sc" horiz-adv-x="978" 
d="M453 1024v-748h499v-276h-862v1024h363z" />
    <glyph glyph-name="Lacute.sc" horiz-adv-x="978" 
d="M946 1487l-311 -357h-307l245 357h373zM453 1024v-748h499v-276h-862v1024h363z" />
    <glyph glyph-name="Lcaron.sc" horiz-adv-x="978" 
d="M834 1044q69 0 118 -40.5t49 -100.5q0 -36 -22 -72l-231 -342l-91 41l103 244q-42 19 -67 53t-25 76q0 59 49 100t117 41zM453 1024v-748h499v-276h-862v1024h363z" />
    <glyph glyph-name="Lcircumflexbelow.sc" horiz-adv-x="978" 
d="M453 1024v-748h499v-276h-862v1024h363zM702 -143l252 -357h-299l-141 170l-141 -170h-299l252 357h376z" />
    <glyph glyph-name="Lcommaaccent.sc" horiz-adv-x="978" 
d="M453 1024v-748h499v-276h-862v1024h363zM686 -252q0 -39 -20 -72l-234 -340l-90 41l104 244q-42 17 -67 51.5t-25 75.5q0 60 48.5 101.5t117.5 41.5t117.5 -41.5t48.5 -101.5z" />
    <glyph glyph-name="Ldot.sc" horiz-adv-x="978" 
d="M453 1024v-748h499v-276h-862v1024h363zM940 614q0 -67 -56 -115t-136 -48q-47 -2 -88 17t-65.5 51.5t-34.5 69.5t3 75t49 65q40 39 99 47t110 -10.5t86.5 -60t32.5 -91.5z" />
    <glyph glyph-name="Lslash.sc" horiz-adv-x="978" 
d="M455 276h499v-276h-862v373l-106 -49v297l106 49v354h363v-188l149 69v-295l-149 -69v-265z" />
    <glyph glyph-name="M.sc" horiz-adv-x="1509" 
d="M1419 1024v-1024h-356v510l-238 -399h-151l-238 399v-510h-356v1024h448l222 -367l221 367h448z" />
    <glyph glyph-name="Macute.sc" horiz-adv-x="1509" 
d="M1419 1024v-1024h-356v510l-238 -399h-151l-238 399v-510h-356v1024h448l222 -367l221 367h448zM1202 1487l-309 -357h-309l245 357h373z" />
    <glyph glyph-name="N.sc" 
d="M1135 1024v-1024h-373l-326 446v-446h-356v1024h373l325 -446v446h357z" />
    <glyph glyph-name="Nacute.sc" 
d="M1059 1487l-309 -357h-310l248 357h371zM1135 1024v-1024h-373l-326 446v-446h-356v1024h373l325 -446v446h357z" />
    <glyph glyph-name="Ncaron.sc" 
d="M1047 1487l-252 -357h-377l-252 357h299l141 -170l142 170h299zM1135 1024v-1024h-373l-326 446v-446h-356v1024h373l325 -446v446h357z" />
    <glyph glyph-name="Ncircumflexbelow.sc" 
d="M1135 1024v-1024h-373l-326 446v-446h-356v1024h373l325 -446v446h357zM795 -143l252 -357h-299l-142 170l-141 -170h-297l252 357h375z" />
    <glyph glyph-name="Ncommaaccent.sc" 
d="M1135 1024v-1024h-373l-326 446v-446h-356v1024h373l325 -446v446h357zM780 -252q0 -36 -22 -72l-232 -340l-90 41l103 244q-42 17 -67.5 51.5t-25.5 75.5q0 60 49 101.5t117 41.5q69 0 118.5 -41.5t49.5 -101.5z" />
    <glyph glyph-name="Ndotaccent.sc" 
d="M1135 1024v-1024h-373l-326 446v-446h-356v1024h373l325 -446v446h357zM500 1432q43 43 107.5 43t105.5 -43q43 -41 43 -105.5t-43 -107.5q-41 -41 -105.5 -41t-107.5 41q-41 43 -41 107.5t41 105.5z" />
    <glyph glyph-name="Ndotbelow.sc" 
d="M1135 1024v-1024h-373l-326 446v-446h-356v1024h373l325 -446v446h357zM756 -350q0 -63 -43 -106.5t-107 -43.5q-47 -4 -83.5 23.5t-52 68t-9 87t38.5 77.5q31 34 77.5 41t87.5 -9t68 -53.5t23 -84.5z" />
    </font>
</defs>
</svg>
