<?xml version="1.0" standalone="no"?>
<!DOCTYPE svg PUBLIC "-//W3C//DTD SVG 1.1//EN" "http://www.w3.org/Graphics/SVG/1.1/DTD/svg11.dtd" >
<svg xmlns="http://www.w3.org/2000/svg" xmlns:xlink="http://www.w3.org/1999/xlink" version="1.1">
<metadata>
Created by FontForge 20170731 at Fri Nov 12 15:52:55 2021
 By Aleksey,,,
Copyright (c) 2014 by Jonathan Hill. All rights reserved.
</metadata>
<defs>
<font id="Loew-Thin" horiz-adv-x="1349" >
  <font-face 
    font-family="Loew Thin"
    font-weight="100"
    font-stretch="normal"
    units-per-em="2048"
    panose-1="0 0 3 0 0 0 0 0 0 0"
    ascent="1587"
    descent="-461"
    x-height="1024"
    cap-height="1434"
    bbox="-143 -487 2701 2234"
    underline-thickness="102"
    underline-position="-307"
    unicode-range="U+0020-FB02"
  />
<missing-glyph horiz-adv-x="1024" 
d="M1024 0h-1024v1434h1024v-1434zM164 1331l348 -522l348 522h-696zM922 1239l-349 -522l349 -522v1044zM512 625l-348 -523h696zM451 717l-349 522v-1044z" />
    <glyph glyph-name="fi" unicode="fi" horiz-adv-x="1325" 
d="M596 1454q63 0 119 -20l-8 -25q-55 21 -111 21q-133 0 -221 -91.5t-88 -238.5v-76h798v-1024h-26v999h-772v-999h-27v999h-199v25h199v76q0 160 96 256q94 98 240 98z" />
    <glyph glyph-name="fl" unicode="fl" horiz-adv-x="1273" 
d="M596 1454q62 0 115 -20h358v-1434h-27v1409h-335q-55 21 -111 21q-133 0 -221 -91.5t-88 -238.5v-76h391v-25h-391v-999h-27v999h-199v25h199v76q0 160 96 256q94 98 240 98z" />
    <glyph glyph-name="f_f" unicode="ff" horiz-adv-x="1613" 
d="M596 1454q63 0 119 -20l-8 -25q-55 21 -111 21q-131 0 -220 -91.5t-89 -238.5v-76h780v76q0 160 96 256q94 98 240 98q63 0 119 -20l-9 -25q-55 21 -110 21q-131 0 -220 -91.5t-89 -238.5v-76h391v-25h-391v-999h-27v999h-780v-999h-27v999h-199v25h199v76q0 160 96 256
q94 98 240 98z" />
    <glyph glyph-name="f_f_i" unicode="ffi" horiz-adv-x="2131" 
d="M596 1454q63 0 119 -20l-8 -25q-55 21 -111 21q-131 0 -220 -91.5t-89 -238.5v-76h780v76q0 160 96 256q94 98 240 98q63 0 119 -20l-9 -25q-55 21 -110 21q-131 0 -220 -91.5t-89 -238.5v-76h798v-1024h-26v999h-772v-999h-27v999h-780v-999h-27v999h-199v25h199v76
q0 160 96 256q94 98 240 98z" />
    <glyph glyph-name="f_f_l" unicode="ffl" horiz-adv-x="2080" 
d="M596 1454q63 0 119 -20l-8 -25q-55 21 -111 21q-131 0 -220 -91.5t-89 -238.5v-76h780v76q0 160 96 256q94 98 240 98q62 0 115 -20h358v-1434h-27v1409h-336q-55 21 -110 21q-131 0 -220 -91.5t-89 -238.5v-76h391v-25h-391v-999h-27v999h-780v-999h-27v999h-199v25h199
v76q0 160 96 256q94 98 240 98z" />
    <glyph glyph-name=".notdef" horiz-adv-x="1024" 
d="M1024 0h-1024v1434h1024v-1434zM164 1331l348 -522l348 522h-696zM922 1239l-349 -522l349 -522v1044zM512 625l-348 -523h696zM451 717l-349 522v-1044z" />
    <glyph glyph-name=".null" horiz-adv-x="0" 
 />
    <glyph glyph-name="nonmarkingreturn" horiz-adv-x="682" 
 />
    <glyph glyph-name="space" unicode=" " horiz-adv-x="512" 
 />
    <glyph glyph-name="exclam" unicode="!" horiz-adv-x="266" 
d="M152 1434v-1151h-37v1151h37zM102 8q0 31 31 31t31 -31t-31 -31t-31 31z" />
    <glyph glyph-name="quotedbl" unicode="&#x22;" horiz-adv-x="528" 
d="M135 1454l-4 -504h-25l-4 504h33zM426 1454l-4 -504h-25l-4 504h33z" />
    <glyph glyph-name="numbersign" unicode="#" horiz-adv-x="1517" 
d="M1225 1434l-74 -410h264l-4 -27h-264l-94 -536h264l-6 -27h-264l-76 -434h-29l76 434h-617l-75 -434h-29l76 434h-271l4 27h273l94 536h-270l4 27h270l74 410h29l-74 -410h616l74 410h29zM1118 997h-616l-94 -536h616z" />
    <glyph glyph-name="dollar" unicode="$" horiz-adv-x="1437" 
d="M692 1675h29v-223q121 -1 242 -40t215 -103l-19 -23q-91 67 -214 104t-249 37q-180 -3 -301 -86q-119 -82 -119 -254q0 -115 82 -182q85 -66 310 -133l98 -29q131 -37 172 -51q63 -21 135 -61q15 -7 26 -14t20.5 -16t15 -14.5t16.5 -18.5t16 -19q56 -67 56 -207
q0 -117 -70.5 -201t-179 -122.5t-238.5 -38.5h-14v-222h-29v224q-136 6 -273 50t-229 115l17 21q98 -73 243 -117.5t285 -44.5q94 0 175.5 20.5t145.5 61t101 106t37 148.5q0 69 -20 139q-10 30 -31 54q-18 23 -25 30.5t-23.5 20t-39.5 24.5q-71 38 -129 58l-80 24l-90 27
l-97 26q-236 70 -325 144q-86 74 -86 198q0 94 35.5 165.5t98.5 114t140.5 64t169.5 23.5v221z" />
    <glyph glyph-name="percent" unicode="%" horiz-adv-x="1626" 
d="M1374 1468l-1100 -1503h-34l1099 1503h35zM403 729q-139 0 -220 97t-81 261q0 166 80 261q82 98 221 98q143 0 222 -98q82 -94 82 -261q0 -165 -81.5 -261.5t-222.5 -96.5zM604 1329q-75 90 -201 90q-125 0 -200 -90q-72 -90 -72 -242q0 -153 72 -243q73 -88 200 -88
q128 0 201 88q74 89 74 243q0 153 -74 242zM1223 705q141 0 222 -97.5t81 -261.5t-82 -262q-81 -96 -221 -96q-138 0 -222 96q-79 98 -79 262q0 165 81 262t220 97zM1223 678q-126 0 -199.5 -90t-73.5 -242q0 -154 72 -244q73 -88 201 -88q127 0 200 88q74 89 74 244
q0 154 -73.5 243t-200.5 89z" />
    <glyph glyph-name="ampersand" unicode="&#x26;" horiz-adv-x="1517" 
d="M725 1454q128 0 223 -80q94 -79 94 -207q0 -122 -55.5 -196t-167.5 -129l-194 -94l495 -570q137 146 217 400l27 -9q-79 -256 -225 -411l139 -160l-21 -18l-139 159q-174 -174 -432 -186q-207 -9 -356 92q-147 102 -156 274q-9 233 324 396l82 41l-68 78
q-92 107 -115 151q-28 54 -28 137q0 155 106 242q110 90 250 90zM725 1427q-129 0 -229 -81q-99 -82 -99 -224q0 -56 15 -96q13 -39 35 -70.5t85 -103.5l74 -84l199 96q50 25 83 48.5t64.5 58.5t46.5 83.5t15 112.5q0 116 -86 187q-85 73 -203 73zM1102 158l-504 575
l-88 -43q-316 -153 -307 -371q9 -166 145 -256q139 -92 338 -83q247 12 416 178z" />
    <glyph glyph-name="quotesingle" unicode="'" horiz-adv-x="237" 
d="M135 1454l-4 -504h-25l-4 504h33z" />
    <glyph glyph-name="parenleft" unicode="(" horiz-adv-x="409" 
d="M317 1468l25 -12q-93 -167 -152 -383q-59 -227 -59 -434q0 -212 62 -442q66 -233 155 -385l-24 -15q-96 172 -158 393q-64 229 -64 449q0 210 62.5 440.5t152.5 388.5z" />
    <glyph glyph-name="parenright" unicode=")" horiz-adv-x="409" 
d="M68 1456l24 12q64 -115 107 -237q50 -135 79 -293t29 -299q0 -223 -63 -449q-65 -231 -158 -393l-25 15q93 158 154 385q64 226 64 442q0 207 -62 434q-56 216 -149 383z" />
    <glyph glyph-name="asterisk" unicode="*" horiz-adv-x="831" 
d="M430 1454l-2 -305l291 96l10 -31l-293 -92l182 -245l-26 -21l-178 250l-176 -250l-27 21l180 245l-291 92l11 31l290 -96l-4 305h33z" />
    <glyph glyph-name="plus" unicode="+" horiz-adv-x="901" 
d="M799 545v-27h-336v-334h-25v334h-336v27h336v336h25v-336h336z" />
    <glyph glyph-name="comma" unicode="," horiz-adv-x="309" 
d="M209 8q0 -9 -6 -18l-123 -201l-19 8l105 183q-19 10 -19 28t15.5 26t31 0t15.5 -26z" />
    <glyph glyph-name="hyphen" unicode="-" horiz-adv-x="901" 
d="M799 545v-27h-697v27h697z" />
    <glyph glyph-name="period" unicode="." horiz-adv-x="266" 
d="M102 8q0 31 31 31t31 -31t-31 -31t-31 31z" />
    <glyph glyph-name="slash" unicode="/" horiz-adv-x="909" 
d="M829 1468l-716 -1503h-31l717 1503h30z" />
    <glyph glyph-name="zero" unicode="0" horiz-adv-x="1533" 
d="M768 1413q278 0 441 -196t163 -521q0 -330 -162 -522q-164 -194 -442 -194t-442 194q-162 192 -162 522q0 331 162 523q164 194 442 194zM1188 1200q-152 186 -422 186q-268 0 -420 -186q-153 -188 -153 -504t153 -503t420 -187q269 0 422 187q155 186 155 503
q0 318 -155 504z" />
    <glyph glyph-name="one" unicode="1" horiz-adv-x="671" 
d="M428 1393v-1393h-29v1366l-297 -68v27l297 68h29z" />
    <glyph glyph-name="two" unicode="2" horiz-adv-x="1204" 
d="M606 1413q180 0 305 -104q127 -103 127 -269q0 -97 -55 -182q-54 -85 -203 -231l-608 -602l909 2v-27h-942v31l621 614q140 137 198 225q52 79 52 170q0 156 -119 250q-119 96 -285 96q-159 0 -263 -60.5t-196 -201.5l-24 15q95 145 206.5 209.5t276.5 64.5z" />
    <glyph glyph-name="three" unicode="3" horiz-adv-x="1247" 
d="M1014 1393v-33l-580 -617q102 31 201 31q200 0 324 -95.5t124 -260.5q0 -203 -143 -322q-143 -116 -375 -116q-225 0 -444 145l16 22q211 -141 428 -141q220 0 355 111t135 301q0 152 -114.5 241t-305.5 89q-122 0 -246 -48l-10 25l602 641h-784v27h817z" />
    <glyph glyph-name="four" unicode="4" horiz-adv-x="1308" 
d="M920 1393v-926h288v-27h-288v-440h-29v440h-789v33l783 920h35zM891 1358l-758 -891h758v891z" />
    <glyph glyph-name="five" unicode="5" horiz-adv-x="1245" 
d="M991 1393v-27h-772v-631q152 131 385 131q204 0 340 -118q139 -118 139 -310q0 -197 -147 -329q-147 -129 -365 -129q-282 0 -448 184l20 18q159 -176 428 -176q206 0 344 123q140 125 140 309q0 181 -131 291q-129 111 -320 111q-241 0 -393 -152l-21 21v684h801z" />
    <glyph glyph-name="six" unicode="6" horiz-adv-x="1300" 
d="M717 1413q225 0 409 -141l-18 -21q-176 135 -391 135q-252 0 -388 -189t-136 -531q0 -49 2 -72q51 140 185.5 220.5t317.5 80.5q208 0 344 -127t136 -332q0 -203 -136 -330q-135 -126 -344 -126q-124 0 -223.5 43t-159.5 114q-54 65 -92 162q-59 162 -59 367
q0 356 143.5 553.5t409.5 193.5zM201 508q66 -502 497 -502q196 0 323.5 119.5t127.5 312.5q0 191 -127 312q-124 118 -326 118q-197 0 -334 -98q-134 -98 -161 -262z" />
    <glyph glyph-name="seven" unicode="7" horiz-adv-x="1142" 
d="M1081 1393v-33l-794 -1360h-33l799 1366h-951v27h979z" />
    <glyph glyph-name="eight" unicode="8" horiz-adv-x="1363" 
d="M1149 1075q0 -127 -84 -212t-234 -115q173 -31 272 -131t99 -248q0 -167 -145 -279q-143 -110 -375 -110t-375 110t-143 279q0 148 97.5 248t270.5 131q-148 30 -232.5 115t-84.5 212q0 147 133 242q134 96 334 96t334 -96q133 -95 133 -242zM244 1075q0 -148 121 -231
q125 -84 317 -84q196 0 317 84t121 231q0 133 -125 221q-125 90 -313 90q-185 0 -313 -90q-125 -88 -125 -221zM682 733q-120 0 -233 -39q-112 -35 -184 -114.5t-72 -210.5q0 -155 135 -260q139 -103 354 -103q218 0 354 103q138 105 138 260q0 167 -132.5 264.5
t-359.5 99.5z" />
    <glyph glyph-name="nine" unicode="9" horiz-adv-x="1300" 
d="M602 1413q93 0 170.5 -23t132 -62t96.5 -94.5t67 -114.5t41 -129t22 -132.5t6 -128.5q0 -354 -143.5 -551.5t-409.5 -197.5q-226 0 -410 141l19 20q175 -135 391 -135q252 0 388 190.5t136 532.5q0 47 -2 70q-49 -138 -185.5 -219.5t-318.5 -81.5q-208 0 -344 127
q-135 126 -135 331q0 204 135 330.5t344 126.5zM602 1386q-199 0 -323 -118q-127 -121 -127 -314q0 -190 127 -311q125 -119 323 -119q199 0 334 99q137 98 164 262q-24 204 -129 342q-56 76 -151 117.5t-218 41.5z" />
    <glyph glyph-name="colon" unicode=":" horiz-adv-x="266" 
d="M102 1016q0 31 31 31t31 -31t-31 -31t-31 31zM102 8q0 31 31 31t31 -31t-31 -31t-31 31z" />
    <glyph glyph-name="semicolon" unicode=";" horiz-adv-x="309" 
d="M156 1036q10 10 23 9.5t20.5 -9t9 -20.5t-9.5 -23q-20 -20 -41.5 1.5t-1.5 41.5zM209 8q0 -9 -6 -18l-123 -201l-19 8l105 183q-19 10 -19 28t15.5 26t31 0t15.5 -26z" />
    <glyph glyph-name="less" unicode="&#x3c;" horiz-adv-x="1169" 
d="M1067 1120v-30l-938 -498l938 -498v-31l-965 512v33z" />
    <glyph glyph-name="equal" unicode="=" horiz-adv-x="1236" 
d="M1135 795v-27h-1033v27h1033zM1135 410v-27h-1033v27h1033z" />
    <glyph glyph-name="greater" unicode="&#x3e;" horiz-adv-x="1169" 
d="M102 1120l965 -512v-33l-965 -512v31l938 498l-938 498v30z" />
    <glyph glyph-name="question" unicode="?" horiz-adv-x="1103" 
d="M569 1454q188 0 300 -101t112 -276q0 -94 -42 -166.5t-138 -158.5l-60 -56l-53 -51l-41 -43q-10 -12 -17 -21.5t-13 -20.5t-8.5 -16t-9 -20.5t-9.5 -21.5q-21 -48 -21 -140l-2 -79h-24l-2 79q-8 109 47 203q9 21 36 52t44 47l55 51l59 57q92 84 131 150t39 155
q0 163 -104 256.5t-279 93.5q-172 0 -285 -97.5t-132 -266.5l-29 2q20 180 140.5 284.5t305.5 104.5zM586 8q0 -12 -9.5 -21.5t-21.5 -9.5q-13 0 -22 8.5t-9 22.5q0 18 15.5 26t31 0t15.5 -26z" />
    <glyph glyph-name="at" unicode="@" horiz-adv-x="2232" 
d="M2030 502q0 -217 -117 -346q-115 -127 -301 -127q-123 0 -209 51v123q-130 -142 -324 -142q-181 0 -309 125q-129 126 -129 301q0 178 129 304q127 124 309 124q191 0 324 -139v139h27v-821q80 -41 182 -41q173 0 282 121t109 328q0 271 -104.5 480t-307 328.5
t-475.5 119.5q-204 1 -372.5 -68.5t-281.5 -192.5t-174 -294.5t-57 -372.5q-3 -201 59 -374.5t176 -297t282 -193t368 -67.5q144 0 270 33l9 -23q-134 -35 -279 -35q-274 -2 -484 121.5t-320.5 341.5t-106.5 494q-4 206 58.5 382t179 302.5t290 197.5t383.5 70
q279 2 489.5 -121.5t319.5 -339.5t105 -491zM1079 893q-167 0 -288 -120t-121 -284q0 -168 118 -286q120 -117 291 -117q96 0 181.5 42t142.5 116v491q-57 72 -143 115t-181 43z" />
    <glyph glyph-name="A" unicode="A" horiz-adv-x="1599" 
d="M819 1434l678 -1434h-31l-209 442h-915l-209 -442h-31l680 1434h37zM801 1407l-445 -938h889z" />
    <glyph glyph-name="B" unicode="B" horiz-adv-x="1581" 
d="M287 0v1434h592q224 0 346.5 -91t122.5 -262q0 -129 -74.5 -213.5t-212.5 -117.5q185 -25 277 -125t92 -246q0 -75 -25.5 -140t-80.5 -120t-153.5 -87t-232.5 -32h-651zM315 1407v-649h564q212 0 326 83t114 240q0 161 -113 243.5t-327 82.5h-564zM315 731v-704h623
q127 0 220 29.5t144.5 80.5t75 111t23.5 131t-23.5 131t-75 111t-144.5 80.5t-220 29.5h-623z" />
    <glyph glyph-name="C" unicode="C" horiz-adv-x="1658" 
d="M952 1454q166 0 312.5 -67t251.5 -185l-23 -18q-100 117 -240.5 180t-300.5 63q-95 2 -188 -23.5t-172.5 -72t-147.5 -113t-115 -145t-72.5 -170.5t-23.5 -186q-4 -141 54 -273.5t156 -229t232.5 -154t276.5 -54.5q159 0 299.5 63.5t243.5 180.5l21 -19
q-105 -118 -251.5 -184.5t-312.5 -66.5q-119 -3 -233 34t-207 106.5t-163.5 161.5t-108 205t-35.5 230q0 150 59 286.5t159.5 235.5t238.5 157t290 58z" />
    <glyph glyph-name="D" unicode="D" horiz-adv-x="1755" 
d="M287 0v1434h516q150 3 289 -53t241 -152.5t162 -231.5t57 -282q3 -146 -57 -280t-162 -230t-241 -152t-289 -53h-516zM803 1407h-488v-1380h488q143 -3 277 51t232 147t156 222t56 270q2 141 -56 270t-156 222t-232 147t-277 51z" />
    <glyph glyph-name="E" unicode="E" horiz-adv-x="1458" 
d="M1292 1434v-27h-977v-670h899v-26h-899v-684h1002v-27h-1030v1434h1005z" />
    <glyph glyph-name="F" unicode="F" horiz-adv-x="1380" 
d="M1239 1434v-27h-924v-692h846v-27h-846v-688h-28v1434h952z" />
    <glyph glyph-name="G" unicode="G" horiz-adv-x="1789" 
d="M952 1454q286 0 498 -188l-18 -21q-206 182 -480 182q-95 2 -188 -23.5t-172.5 -72t-147.5 -113t-115 -145t-72.5 -170.5t-23.5 -186q-4 -141 54 -273.5t156 -229t232.5 -154t276.5 -54.5q319 0 543 205v451h-543v26h572v-487q-111 -105 -259.5 -163t-312.5 -58
q-119 -3 -233 34t-207 106.5t-163.5 161.5t-108 205t-35.5 230q0 150 59 286.5t159.5 235.5t238.5 157t290 58z" />
    <glyph glyph-name="H" unicode="H" horiz-adv-x="1765" 
d="M1481 1434v-1434h-29v711h-1137v-711h-28v1434h28v-697h1137v697h29z" />
    <glyph glyph-name="I" unicode="I" horiz-adv-x="602" 
d="M315 1434v-1434h-28v1434h28z" />
    <glyph glyph-name="J" unicode="J" horiz-adv-x="1247" 
d="M930 1434h28v-955q0 -240 -122 -369.5t-330 -129.5q-250 0 -426 176l20 18q168 -168 406 -168q196 0 310 122.5t114 350.5v955z" />
    <glyph glyph-name="K" unicode="K" horiz-adv-x="1517" 
d="M1376 1434l-573 -555l614 -879h-35l-600 860l-463 -448v-412h-28v1434h28v-983l1018 983h39z" />
    <glyph glyph-name="L" unicode="L" horiz-adv-x="1288" 
d="M315 1434v-1407h873v-27h-901v1434h28z" />
    <glyph glyph-name="M" unicode="M" horiz-adv-x="2177" 
d="M1890 1434v-1434h-28v1407l-762 -1282h-33l-762 1282v-1407h-29v1434h46l761 -1282l762 1282h45z" />
    <glyph glyph-name="N" unicode="N" horiz-adv-x="1724" 
d="M1460 1434v-1434h-45l-1120 1407v-1407h-29v1434h45l1121 -1407v1407h28z" />
    <glyph glyph-name="O" unicode="O" horiz-adv-x="1904" 
d="M1700 717q3 -147 -57.5 -284.5t-162 -238t-241 -159.5t-287.5 -55q-119 -3 -233 34t-207 106.5t-163.5 161.5t-108 205t-35.5 230q0 150 59 286.5t159.5 235.5t238.5 157t290 58q203 0 375 -98.5t272.5 -268t100.5 -370.5zM1313 1331q-120 74 -266.5 90.5t-281 -19
t-252 -121.5t-183.5 -208q-97 -168 -97 -356q0 -191 96 -355.5t263 -261.5q166 -94 360 -94t360 94.5t263 259.5q59 95 82.5 208t9 224t-58 214t-120 188t-175.5 137z" />
    <glyph glyph-name="P" unicode="P" horiz-adv-x="1560" 
d="M287 0v1434h547q292 0 428.5 -112.5t136.5 -348.5q0 -233 -136.5 -343t-424.5 -110h-523v-520h-28zM834 1407h-519v-860h523q276 0 404 102.5t128 323.5q0 226 -127.5 330t-408.5 104z" />
    <glyph glyph-name="Q" unicode="Q" horiz-adv-x="1904" 
d="M952 1454q148 3 287.5 -56t241 -159t162 -237.5t57.5 -284.5q0 -158 -66.5 -302.5t-181.5 -246.5l248 -248l-21 -18l-247 250q-208 -172 -480 -172q-119 -3 -233 34t-207 106.5t-163.5 161.5t-108 205t-35.5 230q0 150 59 286.5t159.5 235.5t238.5 157t290 58zM952 6
q259 0 459 164l-274 276l18 19l277 -277q113 99 176 237t63 292q0 192 -96 356t-262 258q-169 96 -361 96q-191 0 -360 -96q-166 -94 -262.5 -258.5t-96.5 -355.5q-4 -141 54 -273.5t156 -229t232.5 -154t276.5 -54.5z" />
    <glyph glyph-name="R" unicode="R" horiz-adv-x="1589" 
d="M287 0v1434h594q290 0 418 -98.5t128 -319.5q0 -185 -88 -282.5t-284 -123.5l434 -610h-35l-430 606q-64 -6 -143 -6h-566v-600h-28zM881 1407h-566v-780l566 -2q280 0 399 90.5t119 300.5t-119 300.5t-399 90.5z" />
    <glyph glyph-name="S" unicode="S" horiz-adv-x="1437" 
d="M696 1454q140 0 283.5 -39t247.5 -106l-17 -23q-103 66 -239 103.5t-275 37.5q-96 -2 -177.5 -22t-146.5 -59.5t-102 -106t-37 -152.5q0 -113 91 -182q90 -65 342 -133l106 -29q89 -22 90 -22l82 -25l78 -24q25 -8 63.5 -26.5t57.5 -31.5q68 -49 84 -82q49 -89 49 -190
q0 -118 -78 -202t-196.5 -122t-260.5 -38q-163 0 -324.5 45t-273.5 122l17 21q109 -74 266.5 -118t314.5 -44q139 0 250.5 35t183.5 113t72 188q-1 94 -31.5 152.5t-93.5 99.5q-37 29 -116 53q-27 12 -74 25l-78 22q-36 12 -92 25l-105 26q-265 72 -358 144q-94 73 -94 198
q0 93 40 165t109.5 114.5t155.5 64t186 23.5z" />
    <glyph glyph-name="T" unicode="T" horiz-adv-x="1312" 
d="M1212 1434v-27h-540v-1407h-29v1407h-541v27h1110z" />
    <glyph glyph-name="U" unicode="U" horiz-adv-x="1765" 
d="M1470 1434h29v-811q0 -305 -168 -473q-167 -170 -438 -170q-270 0 -440 170q-166 169 -166 473v811h28v-811q0 -289 158 -455q158 -162 420 -162q263 0 418 162q159 163 159 455v811z" />
    <glyph glyph-name="V" unicode="V" horiz-adv-x="1564" 
d="M1462 1434l-661 -1434h-37l-662 1434h31l649 -1405l650 1405h30z" />
    <glyph glyph-name="W" unicode="W" horiz-adv-x="2234" 
d="M2130 1434l-502 -1434h-41l-471 1409l-471 -1409h-43l-502 1434h31l492 -1407l471 1407h43l471 -1407l491 1407h31z" />
    <glyph glyph-name="X" unicode="X" horiz-adv-x="1486" 
d="M1358 1434l-596 -705l620 -729h-36l-607 713l-602 -713h-37l621 735l-596 699h37l581 -684l578 684h37z" />
    <glyph glyph-name="Y" unicode="Y" horiz-adv-x="1519" 
d="M1417 1434l-643 -893v-541h-29v541l-643 893h35l623 -865l622 865h35z" />
    <glyph glyph-name="Z" unicode="Z" horiz-adv-x="1406" 
d="M1243 1434v-33l-1069 -1374h1090v-27h-1121v33l1069 1374h-1036v27h1067z" />
    <glyph glyph-name="bracketleft" unicode="[" horiz-adv-x="530" 
d="M471 1468v-26h-340v-1618h340v-27h-369v1671h369z" />
    <glyph glyph-name="backslash" unicode="\" horiz-adv-x="909" 
d="M82 1468h31l716 -1503h-30z" />
    <glyph glyph-name="bracketright" unicode="]" horiz-adv-x="530" 
d="M430 1468v-1671h-369v27h340v1618h-340v26h369z" />
    <glyph glyph-name="asciicircum" unicode="^" horiz-adv-x="894" 
d="M465 1454l326 -694h-31l-314 667l-315 -667h-31l328 694h37z" />
    <glyph glyph-name="underscore" unicode="_" horiz-adv-x="1388" 
d="M1286 -211v-27h-1184v27h1184z" />
    <glyph glyph-name="grave" unicode="`" horiz-adv-x="456" 
d="M145 1454l211 -297h-30l-224 297h43z" />
    <glyph glyph-name="a" unicode="a" horiz-adv-x="1261" 
d="M645 1044q194 0 304 -97.5t110 -284.5v-662h-27v135q-210 -155 -516 -155q-162 0 -268 92q-105 92 -105 243q0 148 109.5 225.5t308.5 77.5h471v44q0 177 -101.5 267.5t-285.5 90.5q-225 0 -412 -146l-16 21q189 149 428 149zM1032 166v428h-471q-187 0 -289 -71.5
t-102 -207.5q0 -139 96.5 -225t249.5 -86q309 0 516 162z" />
    <glyph glyph-name="b" unicode="b" horiz-adv-x="1368" 
d="M225 1434h27v-572q79 87 184.5 134.5t225.5 47.5q144 3 270.5 -69.5t200.5 -196.5t71 -266q0 -220 -160 -377q-155 -155 -382 -155q-121 0 -228 48t-182 136v-164h-27v1434zM662 1020q-122 0 -229.5 -53t-180.5 -146v-616q73 -94 180.5 -147.5t229.5 -53.5q213 0 364 148
q152 152 152 360q0 209 -152 358q-150 150 -364 150z" />
    <glyph glyph-name="c" unicode="c" horiz-adv-x="1277" 
d="M707 1044q116 0 220.5 -46t180.5 -128l-21 -16q-153 166 -380 166q-215 0 -365 -150q-152 -149 -152 -358q0 -208 152 -360q151 -148 365 -148q241 0 397 184l20 -16q-75 -91 -184.5 -141.5t-232.5 -50.5q-227 0 -385 155q-158 158 -158 377t158 377q158 155 385 155z
" />
    <glyph glyph-name="d" unicode="d" horiz-adv-x="1368" 
d="M1116 1434h27v-1434h-27v164q-76 -87 -182.5 -135.5t-226.5 -48.5q-227 0 -385 155q-158 158 -158 377t158 377q158 155 385 155q244 0 409 -182v572zM707 1020q-138 0 -257.5 -68t-189.5 -185t-70 -255q0 -208 152 -360q151 -148 365 -148q122 0 229 53t180 148v616
q-70 92 -178 145.5t-231 53.5z" />
    <glyph glyph-name="e" unicode="e" 
d="M680 1044q233 1 377 -152.5t139 -379.5v-25h-1006q9 -200 156 -344q145 -139 344 -139q239 0 410 168l18 -16q-179 -176 -428 -176q-218 0 -373 155q-153 156 -153 377q0 220 151 377q149 155 365 155zM680 1020q-202 0 -346 -150q-144 -147 -144 -358h979
q0 217 -133 362q-134 146 -356 146z" />
    <glyph glyph-name="f" unicode="f" horiz-adv-x="806" 
d="M596 1454q63 0 119 -20l-8 -25q-55 21 -111 21q-133 0 -221 -91.5t-88 -238.5v-76h391v-25h-391v-999h-27v999h-199v25h199v76q0 160 96 256q94 98 240 98z" />
    <glyph glyph-name="g" unicode="g" horiz-adv-x="1406" 
d="M696 1044q267 0 459 -174v154h27v-897q0 -261 -143 -404t-388 -143q-232 0 -422 146l17 18q183 -139 405 -139q236 0 370 134.5t134 387.5v117q-76 -113 -197.5 -178.5t-261.5 -65.5q-219 0 -377 152q-155 152 -155 370q-2 103 41 200.5t115.5 168.5t171.5 113t204 40z
M696 1020q-206 0 -358 -146q-148 -145 -148 -352t148 -352q151 -145 358 -145q145 0 268 72.5t191 195.5v543q-190 184 -459 184z" />
    <glyph glyph-name="h" unicode="h" horiz-adv-x="1386" 
d="M236 1434h26v-590q232 200 531 200q180 0 284.5 -109t104.5 -304v-631h-27v631q0 184 -97 286.5t-265 102.5q-149 0 -287 -54.5t-244 -154.5v-811h-26v1434z" />
    <glyph glyph-name="i" unicode="i" horiz-adv-x="518" 
d="M236 1325q0 29 28 29q29 0 29 -29t-29 -29q-28 0 -28 29zM279 1024v-1024h-27v1024h27z" />
    <glyph glyph-name="j" unicode="j" horiz-adv-x="536" 
d="M262 1346q20 20 40.5 -0.5t0.5 -40.5t-40.5 0.5t-0.5 40.5zM270 1024h27v-1092q0 -158 -96 -254q-94 -98 -236 -98q-55 0 -108 17l8 22q43 -14 100 -14q127 0 217 90q88 88 88 237v1092z" />
    <glyph glyph-name="k" unicode="k" horiz-adv-x="1200" 
d="M262 1434v-1129l799 719h39l-414 -373l455 -651h-31l-442 635l-406 -365v-270h-26v1434h26z" />
    <glyph glyph-name="l" unicode="l" horiz-adv-x="466" 
d="M262 1434v-1434h-26v1434h26z" />
    <glyph glyph-name="m" unicode="m" horiz-adv-x="2152" 
d="M721 1044q117 0 203.5 -51t130.5 -147q223 198 514 198q174 0 275.5 -109t101.5 -304v-631h-27v631q0 187 -95 288t-255 101q-287 0 -504 -199q33 -79 33 -190v-631h-27v631q0 187 -95 288t-255 101q-133 0 -238 -45q-109 -48 -233 -158v-817h-27v1024h27v-172
q124 104 232 148t239 44z" />
    <glyph glyph-name="n" unicode="n" horiz-adv-x="1376" 
d="M782 1044q180 0 284.5 -109t104.5 -304v-631h-26v631q0 184 -97.5 286.5t-265.5 102.5q-147 0 -284 -54.5t-246 -154.5v-811h-27v1024h27v-180q232 200 530 200z" />
    <glyph glyph-name="o" unicode="o" horiz-adv-x="1413" 
d="M322 889q158 155 385 155q228 0 383 -155q159 -156 159 -377t-159 -377q-155 -155 -383 -155q-227 0 -385 155q-158 158 -158 377t158 377zM1071 870q-150 150 -364 150q-215 0 -365 -150q-152 -149 -152 -358q0 -208 152 -360q151 -148 365 -148q213 0 364 148
q152 152 152 360q0 209 -152 358z" />
    <glyph glyph-name="p" unicode="p" horiz-adv-x="1378" 
d="M672 1044q144 3 270.5 -69.5t200.5 -196.5t71 -266q0 -221 -159 -377q-155 -155 -383 -155q-121 0 -228 48t-182 136v-563h-26v1423h26v-162q78 85 184.5 133.5t225.5 48.5zM672 1020q-122 0 -229.5 -53t-180.5 -146v-616q73 -94 180.5 -147.5t229.5 -53.5q213 0 364 148
q152 152 152 360q2 101 -40 196t-112 164t-166.5 110t-197.5 38z" />
    <glyph glyph-name="q" unicode="q" horiz-adv-x="1368" 
d="M707 1044q244 0 409 -182v162h27v-1423h-27v563q-73 -85 -181.5 -134.5t-227.5 -49.5q-227 0 -385 155q-158 158 -158 377t158 377q158 155 385 155zM707 1020q-138 0 -257.5 -68t-189.5 -185t-70 -255q0 -208 152 -360q151 -148 365 -148q122 0 229 53t180 148v616
q-70 92 -178 145.5t-231 53.5z" />
    <glyph glyph-name="r" unicode="r" horiz-adv-x="860" 
d="M799 1044v-24q-309 0 -547 -232v-788h-27v1024h27v-201q241 221 547 221z" />
    <glyph glyph-name="s" unicode="s" horiz-adv-x="1093" 
d="M516 1044q104 0 206.5 -27.5t176.5 -76.5l-14 -20q-153 100 -369 100q-147 0 -237.5 -62.5t-90.5 -177.5q0 -80 64 -129q68 -49 244 -94l77 -22l74 -19l64 -18q20 -6 36 -11.5t23.5 -8.5t24 -11t24.5 -12q12 -5 21 -10t17 -12t12 -11t13 -14.5t13 -14.5q45 -45 45 -151
q0 -131 -115 -199q-117 -66 -276 -63q-118 0 -236.5 32.5t-199.5 87.5l14 21q84 -54 196.5 -85.5t225.5 -31.5q164 0 264 61.5t100 176.5q0 48 -16 98q-22 38 -40.5 58t-53.5 36q-10 4 -24 11l-21 10.5t-21.5 8.5t-34.5 11l-63 19l-74 18l-76 20q-193 53 -260 103
q-67 52 -67 145q0 127 97.5 195.5t256.5 68.5z" />
    <glyph glyph-name="t" unicode="t" horiz-adv-x="919" 
d="M305 1348v-324h373v-25h-373v-665q0 -147 87.5 -238.5t219.5 -91.5q83 0 154 39l12 -23q-79 -40 -166 -40q-143 0 -239 96q-94 98 -94 258v665h-218v25h218v324h26z" />
    <glyph glyph-name="u" unicode="u" horiz-adv-x="1355" 
d="M205 1024h26v-631q0 -184 97.5 -286.5t265.5 -102.5q149 0 286.5 54.5t243.5 154.5v811h27v-1024h-27v180q-232 -200 -530 -200q-180 0 -284.5 109t-104.5 304v631z" />
    <glyph glyph-name="v" unicode="v" horiz-adv-x="1120" 
d="M1059 1024l-481 -1024h-33l-484 1024h29l471 -997l469 997h29z" />
    <glyph glyph-name="w" unicode="w" horiz-adv-x="1667" 
d="M1608 1024l-389 -1024h-37l-348 999l-347 -999h-36l-390 1024h29l379 -997l346 997h39l346 -997l379 997h29z" />
    <glyph glyph-name="x" unicode="x" horiz-adv-x="1069" 
d="M969 1024l-412 -489l453 -535h-35l-443 518l-436 -518h-35l455 541l-412 483h35l400 -469l395 469h35z" />
    <glyph glyph-name="y" unicode="y" horiz-adv-x="1103" 
d="M1016 1024h28l-503 -1135q-77 -169 -157.5 -238t-193.5 -71q-62 0 -129 25l11 22q58 -22 118 -22q103 2 178.5 68t147.5 227l31 67l-486 1057h29l471 -1024z" />
    <glyph glyph-name="z" unicode="z" horiz-adv-x="1101" 
d="M926 1024v-31l-785 -968h809v-25h-837v31l784 968h-739v25h768z" />
    <glyph glyph-name="braceleft" unicode="{" horiz-adv-x="655" 
d="M594 1468v-26h-55q-98 0 -144.5 -42t-46.5 -130v-518q0 -38 -20.5 -70t-55.5 -49q35 -17 55.5 -48.5t20.5 -68.5v-518q0 -90 46 -132t145 -42h55v-27h-55q-220 0 -220 201v518q0 44 -30 74.5t-74 30.5h-115v26h115q44 0 74 30.5t30 74.5v518q0 198 220 198h55z" />
    <glyph glyph-name="bar" unicode="|" horiz-adv-x="602" 
d="M315 1536v-1849h-28v1849h28z" />
    <glyph glyph-name="braceright" unicode="}" horiz-adv-x="655" 
d="M61 1442v26h56q217 0 217 -198v-518q0 -44 30 -74.5t74 -30.5l117 -2v-27h-117q-45 0 -74.5 -28.5t-29.5 -75.5v-516q0 -201 -217 -201h-56v27h56q97 0 142.5 42t45.5 132v516q0 37 21.5 69t54.5 50q-33 18 -54.5 49.5t-21.5 67.5v518q0 90 -45.5 132t-142.5 42h-56z" />
    <glyph glyph-name="asciitilde" unicode="~" horiz-adv-x="1247" 
d="M385 731q62 -8 104.5 -31.5t122.5 -87.5q82 -64 127 -88t103 -30q99 -12 172 47.5t104 177.5l27 -6q-30 -126 -115 -193t-192 -53q-68 10 -116 35.5t-126 89.5q-76 61 -118 83.5t-97 29.5q-93 12 -160 -51t-90 -189l-29 6q25 134 101.5 203t181.5 57z" />
    <glyph glyph-name="exclamdown" unicode="&#xa1;" horiz-adv-x="266" 
d="M102 1014q0 30 31 30t31 -30q0 -31 -31 -31t-31 31zM145 739l7 -1151h-37l6 1151h24z" />
    <glyph glyph-name="cent" unicode="&#xa2;" horiz-adv-x="1277" 
d="M692 1266h27v-222q234 -6 389 -174l-21 -16q-153 166 -380 166q-135 4 -256 -65.5t-192.5 -189t-68.5 -253.5q0 -208 152 -360q151 -148 365 -148q241 0 397 184l20 -16q-75 -89 -180 -140t-225 -52v-222h-27v222q-219 6 -375 159q-153 156 -153 373q0 218 153 371
q155 155 375 161v222z" />
    <glyph glyph-name="sterling" unicode="&#xa3;" horiz-adv-x="1351" 
d="M815 1454q258 0 385 -219l-24 -14q-120 206 -361 206q-191 0 -297 -106t-106 -322v-292h528v-27h-528v-653h796v-27h-1003v27h178v653h-178v27h178v292q0 225 113 340t319 115z" />
    <glyph glyph-name="currency" unicode="&#xa4;" horiz-adv-x="1228" 
 />
    <glyph glyph-name="yen" unicode="&#xa5;" horiz-adv-x="1519" 
d="M1417 1434l-502 -697h353v-26h-371l-123 -170v-179h494v-26h-494v-336h-29v336h-509v26h509v179l-122 170h-387v26h368l-502 697h35l623 -865l622 865h35z" />
    <glyph glyph-name="brokenbar" unicode="&#xa6;" horiz-adv-x="602" 
d="M315 1536v-684h-28v684h28zM315 371v-684h-28v684h28z" />
    <glyph glyph-name="section" unicode="&#xa7;" horiz-adv-x="1277" 
d="M616 1454q123 0 243 -33t210 -92l-16 -20q-88 55 -204 86.5t-233 31.5q-110 0 -195.5 -28.5t-140.5 -94.5t-55 -163q0 -94 76 -152q71 -52 289 -112q265 -71 321 -93q153 -60 189 -170q14 -43 14 -108q0 -169 -172 -254q88 -41 130 -101t42 -165q0 -102 -67 -175
t-169 -106t-225 -33q-138 0 -277 38.5t-235 105.5l17 22q93 -65 226.5 -102t268.5 -37q184 0 308 74q124 72 124 213q0 71 -20.5 115.5t-63.5 82.5q-24 31 -102 56q-26 11 -68 22l-73 23q-8 3 -20 6t-32 7.5t-34 8.5l-88 23q-225 60 -306 121.5t-81 171.5q0 206 215 280
q-120 44 -167.5 98t-47.5 140q0 160 118 235q122 78 301 78zM455 889q-106 -27 -168 -95t-62 -171q0 -96 76 -154q74 -53 289 -113q254 -68 321 -90q174 76 174 240q0 57 -20 119q-21 39 -45 63t-66 47q-56 30 -123 47q-48 15 -73 21q-8 3 -20 6t-32 7.5t-34 8.5l-88 25
q-74 21 -129 39z" />
    <glyph glyph-name="dieresis" unicode="&#xa8;" horiz-adv-x="606" 
d="M61 1325q0 18 14 26t28 0t14 -26q0 -17 -14 -23.5t-28 0t-14 23.5zM498 1346q13 13 28.5 7.5t19 -19.5t-6.5 -27q-21 -21 -38 -1t-3 40z" />
    <glyph glyph-name="copyright" unicode="&#xa9;" horiz-adv-x="1800" 
d="M1636 717q3 -147 -56.5 -284.5t-159.5 -238t-237.5 -159.5t-283.5 -55q-147 -4 -284.5 55t-238 159.5t-159.5 238t-55 284.5q0 150 58 286.5t157 235.5t235.5 157t286.5 58q200 0 369.5 -98.5t268.5 -268t99 -370.5zM899 6q191 0 354.5 95.5t259 259.5t95.5 356t-95 356
t-260 258q-166 96 -354 96q-190 0 -356 -96q-162 -94 -257.5 -258.5t-95.5 -355.5q-3 -141 54 -273.5t153.5 -229t228.5 -154t273 -54.5zM907 1110q88 0 168 -36.5t135 -102.5l-20 -17q-113 131 -283 131q-156 0 -264 -108t-108 -260q0 -156 108 -264t264 -105
q170 0 283 131l20 -16q-55 -66 -135 -102.5t-168 -36.5q-164 0 -284 114q-117 117 -117 279t117 276q120 117 284 117z" />
    <glyph glyph-name="ordfeminine" unicode="&#xaa;" horiz-adv-x="821" 
d="M440 1446q129 0 205 -64.5t76 -193.5v-445h-27v86q-135 -100 -340 -100q-108 0 -180 63.5t-72 163.5q0 99 74 152t209 53h309v27q0 116 -66.5 175.5t-187.5 59.5q-152 0 -274 -98l-14 18q127 103 288 103zM694 858v281h-309q-256 0 -256 -183q0 -92 62.5 -148t162.5 -56
q205 0 340 106z" />
    <glyph glyph-name="guillemotleft" unicode="&#xab;" horiz-adv-x="888" 
d="M401 903l23 -16l-285 -344l285 -344l-23 -17l-299 361zM807 903l22 -16l-284 -344l284 -344l-22 -17l-299 361z" />
    <glyph glyph-name="logicalnot" unicode="&#xac;" horiz-adv-x="1433" 
 />
    <glyph glyph-name="registered" unicode="&#xae;" horiz-adv-x="1800" 
d="M1636 717q3 -147 -56.5 -284.5t-159.5 -238t-237.5 -159.5t-283.5 -55q-147 -4 -284.5 55t-238 159.5t-159.5 238t-55 284.5q0 150 58 286.5t157 235.5t235.5 157t286.5 58q200 0 369.5 -98.5t268.5 -268t99 -370.5zM899 6q191 0 354.5 95.5t259 259.5t95.5 356t-95 356
t-260 258q-166 96 -354 96q-190 0 -356 -96q-162 -94 -257.5 -258.5t-95.5 -355.5q-3 -141 54 -273.5t153.5 -229t228.5 -154t273 -54.5zM606 334v766h318q155 0 225 -54.5t70 -171.5q0 -97 -47 -150.5t-146 -66.5l229 -323h-32l-226 319q-46 -4 -73 -4h-291v-315h-27z
M633 1075v-401h291q147 0 207.5 45.5t60.5 154.5t-60.5 155t-207.5 46h-291z" />
    <glyph glyph-name="overscore" unicode="&#xaf;" horiz-adv-x="722" 
d="M623 1339v-24h-521v24h521z" />
    <glyph glyph-name="degree" unicode="&#xb0;" horiz-adv-x="839" 
d="M195 1442q94 94 225 94q132 0 223 -94q94 -91 94 -223t-94 -226q-92 -92 -223 -92q-130 0 -225 92q-93 96 -93 226t93 223zM623 1423q-83 86 -203 86q-119 0 -205 -86q-84 -84 -84 -204t84 -207q87 -84 205 -84q119 0 203 84q86 86 86 207t-86 204z" />
    <glyph glyph-name="plusminus" unicode="&#xb1;" horiz-adv-x="901" 
d="M463 758h336v-27h-336v-334h-25v334h-336v27h336v336h25v-336zM102 0v27h697v-27h-697z" />
    <glyph glyph-name="twosuperior" unicode="&#xb2;" horiz-adv-x="618" 
d="M293 1528q93 0 158 -54.5t65 -138.5q0 -48 -28 -92t-105 -119l-293 -290h447v-25h-486v25l314 309q73 73 97.5 111.5t24.5 80.5q0 73 -57.5 120.5t-136.5 47.5q-80 0 -131 -31t-96 -104l-25 14q48 76 107 111t145 35z" />
    <glyph glyph-name="threesuperior" unicode="&#xb3;" horiz-adv-x="641" 
d="M504 1516v-25l-277 -293q36 8 80 8q104 0 168 -50t64 -134q0 -102 -74 -163.5t-193 -61.5q-116 0 -231 77l16 21q110 -72 215 -72q109 0 173.5 53.5t64.5 145.5q0 73 -55 115.5t-148 42.5q-60 0 -127 -25l-10 23l295 313h-383v25h422z" />
    <glyph glyph-name="acute" unicode="&#xb4;" horiz-adv-x="456" 
d="M356 1454l-223 -297h-31l211 297h43z" />
    <glyph glyph-name="paragraph" unicode="&#xb6;" horiz-adv-x="1550" 
d="M651 1434h613v-1747h-29v1720h-391v-1720h-29v923h-164q-230 0 -358.5 112.5t-128.5 299.5t128.5 299.5t358.5 112.5z" />
    <glyph glyph-name="middot" unicode="&#xb7;" horiz-adv-x="266" 
d="M102 614q0 31 31 31t31 -31q0 -30 -31 -30t-31 30z" />
    <glyph glyph-name="cedilla" unicode="&#xb8;" horiz-adv-x="598" 
d="M250 12h33l-62 -121q48 25 103 25q74 0 124 -45.5t50 -116.5q0 -75 -59 -124.5t-146 -49.5q-112 0 -191 43l15 23q71 -39 176 -39q74 0 125 42t51 105q0 60 -42 97.5t-103 37.5q-83 0 -131 -51l-21 19z" />
    <glyph glyph-name="onesuperior" unicode="&#xb9;" horiz-adv-x="339" 
d="M197 1516v-709h-29v680l-148 -33v27l156 35h21z" />
    <glyph glyph-name="ordmasculine" unicode="&#xba;" horiz-adv-x="935" 
d="M831 1087q0 -148 -106.5 -253t-257.5 -105q-152 0 -260 105q-107 107 -107 253q0 148 107 252q107 107 258 107t258 -107q108 -105 108 -252zM707 1325q-101 98 -242 98q-139 0 -240 -98q-98 -98 -98 -238q0 -139 98 -237q101 -98 240 -98q141 0 242 98q100 97 100 237
q0 141 -100 238z" />
    <glyph glyph-name="guillemotright" unicode="&#xbb;" horiz-adv-x="888" 
d="M84 903l299 -360l-299 -361l-23 17l285 344l-285 344zM489 903l299 -360l-299 -361l-22 17l285 344l-285 344z" />
    <glyph glyph-name="onequarter" unicode="&#xbc;" horiz-adv-x="1275" 
d="M999 1468l-946 -1503h-33l947 1503h32zM217 1434v-709h-29v680l-149 -33v27l156 35h22zM1071 709v-463h143v-25h-143v-221h-29v221h-395v25l395 463h29zM1042 666l-358 -420h358v420z" />
    <glyph glyph-name="onehalf" unicode="&#xbd;" horiz-adv-x="1310" 
d="M999 1468l-946 -1503h-33l947 1503h32zM217 1434v-709h-29v680l-149 -33v27l156 35h22zM983 719q94 0 158.5 -54t64.5 -139q0 -49 -27.5 -93t-103.5 -118l-293 -290h447v-25h-488v25l314 309q74 74 98.5 111t24.5 81q0 74 -57 121t-138 47t-131 -31t-96 -104l-23 14
q48 76 104.5 111t145.5 35z" />
    <glyph glyph-name="threequarters" unicode="&#xbe;" horiz-adv-x="1490" 
d="M1214 1468l-946 -1503h-35l949 1503h32zM504 1434v-25l-277 -293q36 8 80 8q104 0 168 -50t64 -134q0 -102 -74 -163.5t-193 -61.5q-115 0 -231 78l16 20q110 -72 215 -72q109 0 173.5 53.5t64.5 145.5q0 73 -55 115.5t-148 42.5q-60 0 -127 -25l-10 23l295 313h-383v25
h422zM1284 709v-463h146v-25h-146v-221h-29v221h-393v25l393 463h29zM1255 666l-356 -420h356v420z" />
    <glyph glyph-name="questiondown" unicode="&#xbf;" horiz-adv-x="1103" 
d="M549 1057q13 0 22 -9.5t9 -21.5q0 -19 -15.5 -27t-31 0t-15.5 27q0 12 10 21.5t21 9.5zM537 752h24v-80q12 -103 -45 -205q-19 -37 -80 -98l-55 -54l-59 -53q-92 -85 -131 -151t-39 -154q0 -164 104 -257t279 -93q174 0 286 97t131 267l29 -2q-20 -180 -140.5 -284.5
t-305.5 -104.5q-188 0 -300 101t-112 276q0 94 41.5 165t138.5 161q3 3 22 20t35 33l56 51l39 45q19 20 30 37t14.5 24.5t14.5 36.5q23 55 23 142v80z" />
    <glyph glyph-name="Agrave" unicode="&#xc0;" horiz-adv-x="1599" 
d="M819 1434l678 -1434h-31l-209 442h-915l-209 -442h-31l680 1434h37zM801 1407l-445 -938h889zM621 1864l210 -297h-30l-223 297h43z" />
    <glyph glyph-name="Aacute" unicode="&#xc1;" horiz-adv-x="1599" 
d="M819 1434l678 -1434h-31l-209 442h-915l-209 -442h-31l680 1434h37zM801 1407l-445 -938h889zM1024 1864l-223 -297h-31l211 297h43z" />
    <glyph glyph-name="Acircumflex" unicode="&#xc2;" horiz-adv-x="1599" 
d="M817 1864l246 -297h-31l-231 276l-232 -276h-30l245 297h33zM819 1434l678 -1434h-31l-209 442h-915l-209 -442h-31l680 1434h37zM801 1407l-445 -938h889z" />
    <glyph glyph-name="Atilde" unicode="&#xc3;" horiz-adv-x="1599" 
d="M645 1841q36 -6 64 -21t79 -55q50 -38 79.5 -53.5t66.5 -21.5q62 -8 108.5 30t65.5 113l29 -6q-20 -81 -77.5 -126.5t-129.5 -37.5q-42 6 -75 23t-83 59q-53 40 -76.5 53t-54.5 17q-54 6 -93 -31t-54 -113l-29 4q17 86 64.5 130t115.5 36zM819 1434l678 -1434h-31
l-209 442h-915l-209 -442h-31l680 1434h37zM801 1407l-445 -938h889z" />
    <glyph glyph-name="Adieresis" unicode="&#xc4;" horiz-adv-x="1599" 
d="M565 1755q13 13 28.5 7.5t19 -19.5t-6.5 -27q-21 -21 -38 -1t-3 40zM995 1755q13 13 28 7.5t18 -19.5t-7 -27q-14 -19 -34.5 -3t-9.5 36q2 3 5 6zM819 1434l678 -1434h-31l-209 442h-915l-209 -442h-31l680 1434h37zM801 1407l-445 -938h889z" />
    <glyph glyph-name="Aring" unicode="&#xc5;" horiz-adv-x="1599" 
d="M801 1946q68 4 123 -36t79 -97.5t13.5 -123.5t-60.5 -110q-63 -63 -155 -63t-155.5 63.5t-63.5 151.5q0 90 63.5 152.5t155.5 62.5zM610 1731q0 -77 56.5 -133t134.5 -56q59 -4 106.5 31.5t68.5 86t12.5 108.5t-52.5 96q-39 44 -98 52.5t-110.5 -12t-86.5 -68t-31 -105.5
zM819 1434l678 -1434h-31l-209 442h-915l-209 -442h-31l680 1434h37zM801 1407l-445 -938h889z" />
    <glyph glyph-name="AE" unicode="&#xc6;" horiz-adv-x="1972" 
d="M1806 1434v-27h-977v-670h900v-26h-900v-684h1002v-27h-1030v442h-459l-209 -442h-31l680 1434h1024zM801 1407l-445 -938h445v938z" />
    <glyph glyph-name="Ccedilla" unicode="&#xc7;" horiz-adv-x="1658" 
d="M952 -20q-80 0 -149 14l-51 -103q48 25 100 25q74 0 124 -45.5t50 -116.5q0 -76 -58 -125t-147 -49q-109 0 -188 43l12 23q74 -39 176 -39q75 0 125.5 42t50.5 105q0 59 -41.5 97t-103.5 38q-81 0 -129 -51l-21 19l72 143q-246 61 -409 260q-160 201 -160 457
q-2 117 35.5 230t108 204.5t163.5 161t207 106.5t233 35q164 0 311 -67t253 -185l-23 -18q-100 117 -240.5 180t-300.5 63q-95 2 -188 -23.5t-172.5 -72t-147.5 -113t-115 -145t-72.5 -170.5t-23.5 -186q-4 -141 54 -273.5t156 -229t232.5 -154t276.5 -54.5
q159 0 299.5 63.5t243.5 180.5l21 -19q-105 -118 -251.5 -184.5t-312.5 -66.5z" />
    <glyph glyph-name="Egrave" unicode="&#xc8;" horiz-adv-x="1458" 
d="M1292 1434v-27h-977v-670h899v-26h-899v-684h1002v-27h-1030v1434h1005zM596 1864l211 -297h-31l-223 297h43z" />
    <glyph glyph-name="Eacute" unicode="&#xc9;" horiz-adv-x="1458" 
d="M1292 1434v-27h-977v-670h899v-26h-899v-684h1002v-27h-1030v1434h1005zM999 1864l-223 -297h-31l211 297h43z" />
    <glyph glyph-name="Ecircumflex" unicode="&#xca;" horiz-adv-x="1458" 
d="M793 1864l245 -297h-30l-232 276l-231 -276h-31l246 297h33zM1292 1434v-27h-977v-670h899v-26h-899v-684h1002v-27h-1030v1434h1005z" />
    <glyph glyph-name="Edieresis" unicode="&#xcb;" horiz-adv-x="1458" 
d="M541 1755q13 13 28.5 7.5t19 -19.5t-6.5 -27q-21 -21 -38 -1t-3 40zM971 1755q13 13 28 7.5t18 -19.5t-7 -27q-14 -19 -34.5 -3t-9.5 36q2 3 5 6zM1292 1434v-27h-977v-670h899v-26h-899v-684h1002v-27h-1030v1434h1005z" />
    <glyph glyph-name="Igrave" unicode="&#xcc;" horiz-adv-x="602" 
d="M121 1864l211 -297h-31l-223 297h43zM315 1434v-1434h-28v1434h28z" />
    <glyph glyph-name="Iacute" unicode="&#xcd;" horiz-adv-x="602" 
d="M524 1864l-223 -297h-31l211 297h43zM315 1434v-1434h-28v1434h28z" />
    <glyph glyph-name="Icircumflex" unicode="&#xce;" horiz-adv-x="602" 
d="M315 1864l246 -297h-31l-231 276l-231 -276h-31l246 297h32zM313 1434v-1434h-28v1434h28z" />
    <glyph glyph-name="Idieresis" unicode="&#xcf;" horiz-adv-x="602" 
d="M63 1755q13 13 28.5 7.5t19 -19.5t-6.5 -27q-21 -21 -38 -1t-3 40zM494 1755q13 13 27.5 7.5t17.5 -19.5t-7 -27q-14 -19 -34 -3t-9 36q2 3 5 6zM313 1434v-1434h-28v1434h28z" />
    <glyph glyph-name="Eth" unicode="&#xd0;" horiz-adv-x="1755" 
d="M287 729v705h516q150 3 289 -53t241 -152.5t162 -231.5t57 -282q3 -146 -57 -280t-162 -230t-241 -152t-289 -53h-516v705h-185v24h185zM315 705v-678h488q143 -3 277 51t232 147t156 222t56 270q2 141 -56 270t-156 222t-232 147t-277 51h-488v-676h484v-26h-484z" />
    <glyph glyph-name="Ntilde" unicode="&#xd1;" horiz-adv-x="1724" 
d="M707 1841q36 -6 64 -21t79 -55q50 -39 79.5 -54t65.5 -21q62 -7 107 30t67 113l29 -6q-20 -81 -77.5 -126.5t-129.5 -37.5q-42 6 -74.5 23t-82.5 59q-53 39 -77 52.5t-55 17.5q-54 6 -93 -31t-54 -113l-29 4q17 86 65 130t116 36zM1460 1434v-1434h-45l-1120 1407v-1407
h-29v1434h45l1121 -1407v1407h28z" />
    <glyph glyph-name="Ograve" unicode="&#xd2;" horiz-adv-x="1904" 
d="M1700 717q3 -147 -57.5 -284.5t-162 -238t-241 -159.5t-287.5 -55q-119 -3 -233 34t-207 106.5t-163.5 161.5t-108 205t-35.5 230q0 150 59 286.5t159.5 235.5t238.5 157t290 58q203 0 375 -98.5t272.5 -268t100.5 -370.5zM1313 1331q-120 74 -266.5 90.5t-281 -19
t-252 -121.5t-183.5 -208q-97 -168 -97 -356q0 -191 96 -355.5t263 -261.5q166 -94 360 -94t360 94.5t263 259.5q59 95 82.5 208t9 224t-58 214t-120 188t-175.5 137zM772 1864l211 -297h-31l-223 297h43z" />
    <glyph glyph-name="Oacute" unicode="&#xd3;" horiz-adv-x="1904" 
d="M1700 717q3 -147 -57.5 -284.5t-162 -238t-241 -159.5t-287.5 -55q-119 -3 -233 34t-207 106.5t-163.5 161.5t-108 205t-35.5 230q0 150 59 286.5t159.5 235.5t238.5 157t290 58q203 0 375 -98.5t272.5 -268t100.5 -370.5zM1313 1331q-120 74 -266.5 90.5t-281 -19
t-252 -121.5t-183.5 -208q-97 -168 -97 -356q0 -191 96 -355.5t263 -261.5q166 -94 360 -94t360 94.5t263 259.5q59 95 82.5 208t9 224t-58 214t-120 188t-175.5 137zM1176 1864l-224 -297h-30l211 297h43z" />
    <glyph glyph-name="Ocircumflex" unicode="&#xd4;" horiz-adv-x="1904" 
d="M969 1864l245 -297h-30l-232 276l-231 -276h-31l246 297h33zM1700 717q3 -147 -57.5 -284.5t-162 -238t-241 -159.5t-287.5 -55q-119 -3 -233 34t-207 106.5t-163.5 161.5t-108 205t-35.5 230q0 150 59 286.5t159.5 235.5t238.5 157t290 58q203 0 375 -98.5t272.5 -268
t100.5 -370.5zM1313 1331q-120 74 -266.5 90.5t-281 -19t-252 -121.5t-183.5 -208q-97 -168 -97 -356q0 -191 96 -355.5t263 -261.5q166 -94 360 -94t360 94.5t263 259.5q59 95 82.5 208t9 224t-58 214t-120 188t-175.5 137z" />
    <glyph glyph-name="Otilde" unicode="&#xd5;" horiz-adv-x="1904" 
d="M797 1841q36 -6 64 -21t79 -55q50 -39 79.5 -54t65.5 -21q62 -8 109 30.5t66 112.5l28 -6q-20 -81 -77.5 -126.5t-129.5 -37.5q-42 6 -74.5 23t-82.5 59q-14 9 -33.5 23.5t-27.5 19.5t-21 12t-24 10t-25 5q-54 6 -93.5 -31t-54.5 -113l-29 4q17 86 65 130t116 36z
M952 1454q203 0 375 -98.5t272.5 -268t100.5 -370.5q0 -200 -100 -370t-273 -269q-171 -98 -375 -98q-203 0 -374 98q-173 99 -273 269t-100 370q-2 117 35.5 230t108 204.5t163.5 161t207 106.5t233 35zM1313 1331q-120 74 -266.5 90.5t-281 -19t-252 -121.5t-183.5 -208
q-97 -168 -97 -356q0 -191 96 -355.5t263 -261.5q166 -94 360 -94t360 94.5t263 259.5q59 95 82.5 208t9 224t-58 214t-120 188t-175.5 137z" />
    <glyph glyph-name="Odieresis" unicode="&#xd6;" horiz-adv-x="1904" 
d="M717 1755q13 13 28.5 7.5t19 -19.5t-6.5 -27q-21 -21 -38 -1t-3 40zM1167 1708q-12 0 -20 8.5t-8 20.5q0 15 18.5 23t28.5 -5q12 -12 5.5 -29.5t-24.5 -17.5zM1700 717q3 -147 -57.5 -284.5t-162 -238t-241 -159.5t-287.5 -55q-119 -3 -233 34t-207 106.5t-163.5 161.5
t-108 205t-35.5 230q0 150 59 286.5t159.5 235.5t238.5 157t290 58q203 0 375 -98.5t272.5 -268t100.5 -370.5zM1313 1331q-120 74 -266.5 90.5t-281 -19t-252 -121.5t-183.5 -208q-97 -168 -97 -356q0 -191 96 -355.5t263 -261.5q166 -94 360 -94t360 94.5t263 259.5
q59 95 82.5 208t9 224t-58 214t-120 188t-175.5 137z" />
    <glyph glyph-name="multiply" unicode="&#xd7;" horiz-adv-x="714" 
d="M592 786l20 -18l-237 -236l237 -237l-20 -19l-236 236l-237 -236l-19 19l238 237l-238 236l19 18l237 -235z" />
    <glyph glyph-name="Oslash" unicode="&#xd8;" horiz-adv-x="1904" 
d="M1327 1536h31l-76 -158q190 -93 303 -270q115 -177 115 -391q3 -147 -57.5 -284.5t-162 -238t-241 -159.5t-287.5 -55q-164 0 -305 63l-69 -145h-31l74 157q-186 91 -302 269q-114 178 -114 393q-2 117 35.5 230t108 204.5t163.5 161t207 106.5t233 35q164 0 305 -63z
M233 717q0 -205 109 -379q112 -171 291 -258l612 1286q-137 61 -293 61q-95 2 -188 -23.5t-172.5 -72t-147.5 -113t-115 -145t-72.5 -170.5t-23.5 -186zM952 6q146 0 279 56.5t229.5 151.5t153.5 226.5t57 276.5q0 209 -110 377q-107 171 -289 260l-613 -1286
q139 -62 293 -62z" />
    <glyph glyph-name="Ugrave" unicode="&#xd9;" horiz-adv-x="1765" 
d="M1470 1434h29v-811q0 -305 -168 -473q-167 -170 -438 -170q-270 0 -440 170q-166 169 -166 473v811h28v-811q0 -289 158 -455q158 -162 420 -162q263 0 418 162q159 163 159 455v811zM702 1864l211 -297h-30l-224 297h43z" />
    <glyph glyph-name="Uacute" unicode="&#xda;" horiz-adv-x="1765" 
d="M1470 1434h29v-811q0 -305 -168 -473q-167 -170 -438 -170q-270 0 -440 170q-166 169 -166 473v811h28v-811q0 -289 158 -455q158 -162 420 -162q263 0 418 162q159 163 159 455v811zM1106 1864l-223 -297h-31l211 297h43z" />
    <glyph glyph-name="Ucircumflex" unicode="&#xdb;" horiz-adv-x="1765" 
d="M899 1864l246 -297h-31l-231 276l-232 -276h-30l245 297h33zM1470 1434h29v-811q0 -305 -168 -473q-167 -170 -438 -170t-438.5 171t-167.5 472v811h28v-811q0 -289 158 -455q158 -162 420 -162q263 0 418 162q159 163 159 455v811z" />
    <glyph glyph-name="Udieresis" unicode="&#xdc;" horiz-adv-x="1765" 
d="M647 1755q13 13 28.5 7.5t19 -19.5t-6.5 -27q-21 -21 -38 -1t-3 40zM1077 1755q13 13 28 7.5t18 -19.5t-7 -27q-14 -19 -34.5 -3t-9.5 36q2 3 5 6zM1470 1434h29v-811q0 -305 -168 -473q-167 -170 -438 -170q-270 0 -440 170q-166 169 -166 473v811h28v-811
q0 -289 158 -455q158 -162 420 -162q263 0 418 162q159 163 159 455v811z" />
    <glyph glyph-name="Yacute" unicode="&#xdd;" horiz-adv-x="1519" 
d="M1417 1434l-643 -893v-541h-29v541l-643 893h35l623 -865l622 865h35zM983 1864l-223 -297h-31l211 297h43z" />
    <glyph glyph-name="Thorn" unicode="&#xde;" horiz-adv-x="1560" 
d="M315 1434v-226h519q292 0 428.5 -112t136.5 -348q0 -233 -136.5 -343t-424.5 -110h-523v-295h-28v1434h28zM834 1182h-519v-860h523q276 0 404 102.5t128 323.5q0 226 -127.5 330t-408.5 104z" />
    <glyph glyph-name="germandbls" unicode="&#xdf;" horiz-adv-x="1406" 
d="M702 1454q195 0 327 -99.5t132 -248.5q0 -126 -78 -212.5t-215 -119.5q183 -25 288.5 -128.5t105.5 -266.5q0 -172 -142 -287q-139 -112 -368 -112q-150 0 -269 55l13 22q111 -51 256 -51q217 0 348 107q133 109 133 266q0 176 -129 276.5t-350 100.5h-269v26h217
q192 0 311.5 86t119.5 238q0 138 -123 229q-121 92 -308 92q-213 0 -321.5 -106.5t-108.5 -316.5v-1004h-28v1004q0 220 116.5 335t341.5 115z" />
    <glyph glyph-name="agrave" unicode="&#xe0;" horiz-adv-x="1261" 
d="M645 1044q194 0 304 -97.5t110 -284.5v-662h-27v135q-210 -155 -516 -155q-162 0 -268 92q-105 92 -105 243q0 148 109.5 225.5t308.5 77.5h471v44q0 177 -101.5 267.5t-285.5 90.5q-225 0 -412 -146l-16 21q189 149 428 149zM1032 166v428h-471q-187 0 -289 -71.5
t-102 -207.5q0 -139 96.5 -225t249.5 -86q309 0 516 162zM451 1454l211 -297h-31l-223 297h43z" />
    <glyph glyph-name="aacute" unicode="&#xe1;" horiz-adv-x="1261" 
d="M645 1044q194 0 304 -97.5t110 -284.5v-662h-27v135q-210 -155 -516 -155q-162 0 -268 92q-105 92 -105 243q0 148 109.5 225.5t308.5 77.5h471v44q0 177 -101.5 267.5t-285.5 90.5q-225 0 -412 -146l-16 21q189 149 428 149zM1032 166v428h-471q-187 0 -289 -71.5
t-102 -207.5q0 -139 96.5 -225t249.5 -86q309 0 516 162zM854 1454l-223 -297h-31l211 297h43z" />
    <glyph glyph-name="acircumflex" unicode="&#xe2;" horiz-adv-x="1261" 
d="M647 1454l246 -297h-31l-231 277l-232 -277h-30l245 297h33zM645 1044q194 0 304 -97.5t110 -284.5v-662h-27v135q-210 -155 -516 -155q-162 0 -268 92q-105 92 -105 243q0 148 109.5 225.5t308.5 77.5h471v44q0 177 -101.5 267.5t-285.5 90.5q-225 0 -412 -146l-16 21
q189 149 428 149zM1032 166v428h-471q-187 0 -289 -71.5t-102 -207.5q0 -139 96.5 -225t249.5 -86q309 0 516 162z" />
    <glyph glyph-name="atilde" unicode="&#xe3;" horiz-adv-x="1261" 
d="M475 1432q36 -6 64 -21t79 -55q50 -39 80 -54.5t66 -21.5q62 -8 108.5 30t65.5 113l29 -6q-20 -81 -77.5 -126.5t-129.5 -37.5q-42 6 -75 23t-83 59q-53 40 -76.5 53t-54.5 17q-55 6 -94.5 -31.5t-52.5 -111.5l-29 4q17 86 64.5 130t115.5 36zM645 1044q194 0 304 -97.5
t110 -284.5v-662h-27v135q-210 -155 -516 -155q-162 0 -268 92q-105 92 -105 243q0 148 109.5 225.5t308.5 77.5h471v44q0 179 -104.5 268.5t-282.5 89.5q-225 0 -412 -146l-16 21q189 149 428 149zM1032 166v428h-471q-187 0 -289 -71.5t-102 -207.5q0 -139 96.5 -225
t249.5 -86q309 0 516 162z" />
    <glyph glyph-name="adieresis" unicode="&#xe4;" horiz-adv-x="1261" 
d="M395 1346q13 13 28.5 7.5t19 -19.5t-6.5 -27q-21 -21 -38 -1t-3 40zM825 1346q13 13 28 7.5t18 -19.5t-7 -27q-14 -19 -34.5 -3t-9.5 36q2 3 5 6zM645 1044q194 0 304 -97.5t110 -284.5v-662h-27v135q-210 -155 -516 -155q-162 0 -268 92q-105 92 -105 243
q0 148 109.5 225.5t308.5 77.5h471v44q0 177 -101.5 267.5t-285.5 90.5q-225 0 -412 -146l-16 21q189 149 428 149zM1032 166v428h-471q-187 0 -289 -71.5t-102 -207.5q0 -139 96.5 -225t249.5 -86q309 0 516 162z" />
    <glyph glyph-name="aring" unicode="&#xe5;" horiz-adv-x="1261" 
d="M852 1321q0 -89 -65 -152t-156 -63q-95 0 -158 63t-63 152t63 152t158 63q92 0 156.5 -63.5t64.5 -151.5zM631 1509q-77 0 -135 -56t-58 -132t58 -132t135 -56q80 0 136 55t56 133t-56 133t-136 55zM645 1044q194 0 304 -97.5t110 -284.5v-662h-27v135
q-210 -155 -516 -155q-162 0 -268 92q-105 92 -105 243q0 148 109.5 225.5t308.5 77.5h471v44q0 177 -101.5 267.5t-285.5 90.5q-225 0 -412 -146l-16 21q189 149 428 149zM1032 166v428h-471q-187 0 -289 -71.5t-102 -207.5q0 -139 96.5 -225t249.5 -86q309 0 516 162z" />
    <glyph glyph-name="ae" unicode="&#xe6;" horiz-adv-x="2217" 
d="M2064 512v-25h-1005q9 -201 155 -344q145 -139 345 -139q238 0 409 168l19 -16q-179 -176 -428 -176q-175 0 -310 100q-138 102 -190 264v-344h-27v135q-210 -155 -516 -155q-162 0 -268 92q-105 92 -105 243q0 148 109.5 225.5t308.5 77.5h471v44q0 177 -101.5 267.5
t-285.5 90.5q-225 0 -412 -146l-16 21q189 149 428 149q189 0 298.5 -92.5t115.5 -271.5q51 160 186 262t303 102q239 0 377 -153q139 -151 139 -379zM1059 512h979q0 217 -133 362q-134 146 -357 146q-202 0 -346 -150q-143 -146 -143 -358zM1032 166v428h-471
q-187 0 -289 -71.5t-102 -207.5q0 -139 96.5 -225t249.5 -86q309 0 516 162z" />
    <glyph glyph-name="ccedilla" unicode="&#xe7;" horiz-adv-x="1277" 
d="M705 -20q-55 0 -99 8l-47 -97q48 25 100 25q75 0 125 -45.5t50 -116.5q0 -75 -58.5 -124.5t-146.5 -49.5q-110 0 -189 43l13 23q71 -39 176 -39q75 0 125.5 42t50.5 105q0 59 -42 97t-104 38q-81 0 -129 -51l-20 19l68 137q-180 43 -299 186q-117 144 -117 332
q0 220 157 377q158 155 386 155q116 0 220.5 -46t180.5 -128l-21 -16q-153 166 -380 166q-135 4 -256 -65.5t-192.5 -189t-68.5 -253.5q0 -184 121 -326q119 -139 301 -174l8 -2q44 -6 87 -6q241 0 397 184l20 -16q-75 -91 -184.5 -141.5t-232.5 -50.5z" />
    <glyph glyph-name="egrave" unicode="&#xe8;" 
d="M680 1044q233 1 377 -152.5t139 -379.5v-25h-1006q9 -200 156 -344q145 -139 344 -139q239 0 410 168l18 -16q-179 -176 -428 -176q-218 0 -373 155q-153 156 -153 377q0 220 151 377q149 155 365 155zM680 1020q-202 0 -346 -150q-144 -147 -144 -358h979
q0 217 -133 362q-134 146 -356 146zM496 1454l211 -297h-31l-223 297h43z" />
    <glyph glyph-name="eacute" unicode="&#xe9;" 
d="M680 1044q233 1 377 -152.5t139 -379.5v-25h-1006q9 -200 156 -344q145 -139 344 -139q239 0 410 168l18 -16q-179 -176 -428 -176q-218 0 -373 155q-153 156 -153 377q0 220 151 377q149 155 365 155zM680 1020q-202 0 -346 -150q-144 -147 -144 -358h979
q0 217 -133 362q-134 146 -356 146zM899 1454l-223 -297h-31l211 297h43z" />
    <glyph glyph-name="ecircumflex" unicode="&#xea;" 
d="M692 1454l246 -297h-31l-231 277l-232 -277h-30l245 297h33zM680 1044q233 1 377 -152.5t139 -379.5v-25h-1006q9 -200 156 -344q145 -139 344 -139q239 0 410 168l18 -16q-179 -176 -428 -176q-218 0 -373 155q-153 156 -153 377q0 220 151 377q149 155 365 155z
M680 1020q-96 3 -188 -38t-159 -110t-106.5 -164.5t-36.5 -195.5h979q0 217 -133 362q-134 146 -356 146z" />
    <glyph glyph-name="edieresis" unicode="&#xeb;" 
d="M440 1346q13 13 28.5 7.5t19 -19.5t-6.5 -27q-21 -21 -38 -1t-3 40zM870 1346q13 13 28 7.5t18 -19.5t-7 -27q-14 -19 -34.5 -3t-9.5 36q2 3 5 6zM680 1044q233 1 377 -152.5t139 -379.5v-25h-1006q9 -200 156 -344q145 -139 344 -139q239 0 410 168l18 -16
q-179 -176 -428 -176q-218 0 -373 155q-153 156 -153 377q0 220 151 377q149 155 365 155zM680 1020q-202 0 -346 -150q-144 -147 -144 -358h979q0 217 -133 362q-134 146 -356 146z" />
    <glyph glyph-name="igrave" unicode="&#xec;" horiz-adv-x="518" 
d="M86 1454l211 -297h-31l-223 297h43zM279 1024v-1024h-27v1024h27z" />
    <glyph glyph-name="iacute" unicode="&#xed;" horiz-adv-x="518" 
d="M489 1454l-223 -297h-30l210 297h43zM279 1024v-1024h-27v1024h27z" />
    <glyph glyph-name="icircumflex" unicode="&#xee;" horiz-adv-x="518" 
d="M281 1454l245 -297h-30l-232 277l-231 -277h-31l246 297h33zM276 1024v-1024h-26v1024h26z" />
    <glyph glyph-name="idieresis" unicode="&#xef;" horiz-adv-x="518" 
d="M29 1346q13 13 28.5 7.5t19 -19.5t-6.5 -27q-21 -21 -38 -1t-3 40zM459 1346q13 13 28 7.5t18 -19.5t-7 -27q-14 -19 -34.5 -3t-9.5 36q2 3 5 6zM276 1024v-1024h-26v1024h26z" />
    <glyph glyph-name="eth" unicode="&#xf0;" horiz-adv-x="1337" 
d="M1157 1536l17 -25l-250 -149q211 -227 211 -696q0 -204 -62 -367q-51 -145 -167.5 -230.5t-305.5 -88.5q-208 0 -343.5 136t-135.5 355t135 354q135 138 344 138q171 0 304.5 -73.5t201.5 -203.5v19q-9 434 -207 641l-291 -179l-16 25l289 174q-150 144 -389 141
q-146 0 -271 -51l-10 25q133 53 281 53q253 3 413 -154zM600 6q113 0 202.5 36.5t145.5 98.5q147 162 158 475q-54 148 -189 234t-317 86q-198 0 -324 -129t-126 -338q0 -207 126 -336q127 -127 324 -127z" />
    <glyph glyph-name="ntilde" unicode="&#xf1;" horiz-adv-x="1376" 
d="M532 1432q36 -6 64.5 -21.5t79.5 -54.5t80 -54.5t65 -21.5q62 -8 108.5 30t65.5 113l29 -6q-22 -83 -79 -128t-128 -36q-42 6 -75 23t-83 59q-53 40 -76.5 53t-54.5 17q-55 6 -94.5 -31.5t-52.5 -111.5l-29 4q17 86 64.5 130t115.5 36zM782 1044q180 0 284.5 -109
t104.5 -304v-631h-26v631q0 184 -97.5 286.5t-265.5 102.5q-149 0 -286.5 -54.5t-243.5 -154.5v-811h-27v1024h27v-180q232 200 530 200z" />
    <glyph glyph-name="ograve" unicode="&#xf2;" horiz-adv-x="1413" 
d="M322 889q158 155 385 155q228 0 383 -155q159 -156 159 -377t-159 -377q-155 -155 -383 -155q-227 0 -385 155q-158 158 -158 377t158 377zM1071 870q-150 150 -364 150q-215 0 -365 -150q-152 -149 -152 -358q0 -208 152 -360q151 -148 365 -148q213 0 364 148
q152 152 152 360q0 209 -152 358zM526 1454l211 -297h-30l-224 297h43z" />
    <glyph glyph-name="oacute" unicode="&#xf3;" horiz-adv-x="1413" 
d="M322 889q158 155 385 155q228 0 383 -155q159 -156 159 -377t-159 -377q-155 -155 -383 -155q-227 0 -385 155q-158 158 -158 377t158 377zM1071 870q-150 150 -364 150q-215 0 -365 -150q-152 -149 -152 -358q0 -208 152 -360q151 -148 365 -148q213 0 364 148
q152 152 152 360q0 209 -152 358zM930 1454l-223 -297h-31l211 297h43z" />
    <glyph glyph-name="ocircumflex" unicode="&#xf4;" horiz-adv-x="1413" 
d="M723 1454l246 -297h-31l-231 277l-232 -277h-31l246 297h33zM707 1044q144 3 270.5 -69.5t200.5 -196.5t71 -266q0 -221 -159 -377q-155 -155 -383 -155q-227 0 -385 155q-158 158 -158 377t158 377q158 155 385 155zM707 1020q-135 4 -256 -65.5t-192.5 -189
t-68.5 -253.5q0 -208 152 -360q151 -148 365 -148q101 -3 197.5 38t166.5 110t112 164t40 196q0 209 -152 358q-150 150 -364 150z" />
    <glyph glyph-name="otilde" unicode="&#xf5;" horiz-adv-x="1413" 
d="M551 1432q36 -6 64 -21t79 -55q50 -39 80 -54.5t66 -21.5q62 -8 108.5 30t65.5 113l28 -6q-22 -83 -78.5 -128t-127.5 -36q-42 6 -75 23t-83 59q-53 40 -76.5 53t-54.5 17q-55 6 -95 -31.5t-53 -111.5l-28 4q17 86 64.5 130t115.5 36zM707 1044q144 3 270.5 -69.5
t200.5 -196.5t71 -266q0 -221 -159 -377q-155 -155 -383 -155q-227 0 -385 155q-158 158 -158 377t158 377q158 155 385 155zM707 1020q-135 4 -256 -65.5t-192.5 -189t-68.5 -253.5q0 -208 152 -360q151 -148 365 -148q101 -3 197.5 38t166.5 110t112 164t40 196
q0 209 -152 358q-150 150 -364 150z" />
    <glyph glyph-name="odieresis" unicode="&#xf6;" horiz-adv-x="1413" 
d="M471 1346q13 13 28.5 7.5t19 -19.5t-6.5 -27q-21 -21 -38 -1t-3 40zM901 1346q13 13 28 7.5t18 -19.5t-7 -27q-14 -19 -34.5 -3t-9.5 36q2 3 5 6zM322 889q158 155 385 155q228 0 383 -155q159 -156 159 -377t-159 -377q-155 -155 -383 -155q-227 0 -385 155
q-158 158 -158 377t158 377zM1071 870q-150 150 -364 150q-215 0 -365 -150q-152 -149 -152 -358q0 -208 152 -360q151 -148 365 -148q213 0 364 148q152 152 152 360q0 209 -152 358z" />
    <glyph glyph-name="divide" unicode="&#xf7;" horiz-adv-x="1171" 
d="M555 1014q0 30 31 30q30 0 30 -30q0 -31 -30 -31q-31 0 -31 31zM1069 612v-26h-967v26h967zM616 184q0 -18 -15 -26t-30.5 0t-15.5 26q0 19 15.5 27t30.5 0t15 -27z" />
    <glyph glyph-name="oslash" unicode="&#xf8;" horiz-adv-x="1413" 
d="M983 1126h33l-66 -137q136 -68 217.5 -196.5t81.5 -280.5q0 -221 -159 -377q-155 -155 -383 -155q-119 0 -218 45l-59 -127h-33l66 137q-136 68 -217.5 196.5t-81.5 280.5q0 219 158 377q158 155 385 155q118 0 217 -45zM190 512q0 -145 77.5 -267.5t207.5 -185.5
l438 918q-98 43 -206 43q-135 4 -256 -65.5t-192.5 -189t-68.5 -253.5zM707 4q213 0 364 148q152 152 152 360q0 145 -77.5 267.5t-207.5 185.5l-438 -918q98 -43 207 -43z" />
    <glyph glyph-name="ugrave" unicode="&#xf9;" horiz-adv-x="1355" 
d="M498 1454l211 -297h-31l-223 297h43zM1151 1024v-1024h-27v180q-232 -200 -530 -200q-180 0 -284.5 109t-104.5 304v631h26v-631q0 -184 97.5 -286.5t265.5 -102.5q149 0 286.5 54.5t243.5 154.5v811h27z" />
    <glyph glyph-name="uacute" unicode="&#xfa;" horiz-adv-x="1355" 
d="M901 1454l-223 -297h-31l211 297h43zM1151 1024v-1024h-27v180q-232 -200 -530 -200q-180 0 -284.5 109t-104.5 304v631h26v-631q0 -184 97.5 -286.5t265.5 -102.5q149 0 286.5 54.5t243.5 154.5v811h27z" />
    <glyph glyph-name="ucircumflex" unicode="&#xfb;" horiz-adv-x="1355" 
d="M694 1454l246 -297h-31l-231 277l-232 -277h-30l246 297h32zM205 1024h26v-631q0 -184 97.5 -286.5t265.5 -102.5q149 0 286.5 54.5t243.5 154.5v811h27v-1024h-27v180q-232 -200 -530 -200q-180 0 -284.5 109t-104.5 304v631z" />
    <glyph glyph-name="udieresis" unicode="&#xfc;" horiz-adv-x="1355" 
d="M442 1346q13 13 28.5 7.5t19 -19.5t-6.5 -27q-21 -21 -38 -1t-3 40zM872 1346q13 13 28 7.5t18 -19.5t-7 -27q-14 -19 -34.5 -3t-9.5 36q2 3 5 6zM205 1024h26v-631q0 -184 97.5 -286.5t265.5 -102.5q149 0 286.5 54.5t243.5 154.5v811h27v-1024h-27v180
q-232 -200 -530 -200q-180 0 -284.5 109t-104.5 304v631z" />
    <glyph glyph-name="yacute" unicode="&#xfd;" horiz-adv-x="1103" 
d="M776 1454l-223 -297h-31l211 297h43zM90 1024l471 -1024l455 1024h28l-503 -1135q-77 -169 -157.5 -238t-193.5 -71q-62 0 -129 25l11 22q58 -22 118 -22q103 2 178.5 68t147.5 227l31 67l-486 1057h29z" />
    <glyph glyph-name="thorn" unicode="&#xfe;" horiz-adv-x="1378" 
d="M236 1434h26v-572q79 87 184.5 134.5t225.5 47.5q144 3 270.5 -69.5t200.5 -196.5t71 -266q0 -221 -159 -377q-155 -155 -383 -155q-121 0 -228 48t-182 136v-563h-26v1833zM672 1020q-122 0 -229.5 -53t-180.5 -146v-616q73 -94 180.5 -147.5t229.5 -53.5q213 0 364 148
q152 152 152 360q0 209 -152 358q-150 150 -364 150z" />
    <glyph glyph-name="ydieresis" unicode="&#xff;" horiz-adv-x="1103" 
d="M317 1346q13 13 28.5 7.5t19 -19.5t-6.5 -27q-21 -21 -38 -1t-3 40zM748 1346q13 13 27.5 7.5t17.5 -19.5t-7 -27q-14 -19 -34 -3t-9 36q2 3 5 6zM1016 1024h28l-503 -1135q-77 -169 -157.5 -238t-193.5 -71q-62 0 -129 25l11 22q58 -22 118 -22q103 2 178.5 68
t147.5 227l31 67l-486 1057h29l471 -1024z" />
    <glyph glyph-name="Amacron" unicode="&#x100;" horiz-adv-x="1599" 
d="M819 1434l678 -1434h-31l-209 442h-915l-209 -442h-31l680 1434h37zM801 1407l-445 -938h889zM1061 1749v-25h-520v25h520z" />
    <glyph glyph-name="amacron" unicode="&#x101;" horiz-adv-x="1261" 
d="M645 1044q194 0 304 -97.5t110 -284.5v-662h-27v135q-210 -155 -516 -155q-162 0 -268 92q-105 92 -105 243q0 148 109.5 225.5t308.5 77.5h471v44q0 177 -101.5 267.5t-285.5 90.5q-225 0 -412 -146l-16 21q189 149 428 149zM1032 166v428h-471q-187 0 -289 -71.5
t-102 -207.5q0 -139 96.5 -225t249.5 -86q309 0 516 162zM891 1339v-24h-520v24h520z" />
    <glyph glyph-name="Abreve" unicode="&#x102;" horiz-adv-x="1599" 
d="M1075 1851l29 -2q-10 -121 -91.5 -190.5t-211.5 -69.5t-211.5 69.5t-91.5 190.5l28 2q7 -110 81.5 -172.5t193.5 -62.5q118 0 191.5 62t82.5 173zM819 1434l678 -1434h-31l-209 442h-915l-209 -442h-31l680 1434h37zM801 1407l-445 -938h889z" />
    <glyph glyph-name="abreve" unicode="&#x103;" horiz-adv-x="1261" 
d="M905 1442l29 -2q-10 -121 -91.5 -190.5t-211.5 -69.5t-211.5 69.5t-91.5 190.5l28 2q7 -110 81.5 -173t193.5 -63q118 0 190.5 63t83.5 173zM645 1044q194 0 304 -97.5t110 -284.5v-662h-27v135q-210 -155 -516 -155q-162 0 -268 92q-105 92 -105 243q0 148 109.5 225.5
t308.5 77.5h471v44q0 179 -104.5 268.5t-282.5 89.5q-225 0 -412 -146l-16 21q189 149 428 149zM1032 166v428h-471q-187 0 -289 -71.5t-102 -207.5q0 -139 96.5 -225t249.5 -86q309 0 516 162z" />
    <glyph glyph-name="Aogonek" unicode="&#x104;" horiz-adv-x="1599" 
d="M819 1434l678 -1434v-6l-63 -80q-66 -84 -66 -162q0 -67 48.5 -110t121.5 -43q82 0 145 57l19 -21q-69 -63 -164 -63q-85 0 -142 50.5t-57 129.5q0 81 72 178l55 70l-209 442h-915l-209 -442h-31l680 1434h37zM801 1407l-445 -938h889z" />
    <glyph glyph-name="aogonek" unicode="&#x105;" horiz-adv-x="1261" 
d="M645 1044q194 0 304 -97.5t110 -284.5v-674l-60 -74q-65 -83 -65 -162q0 -67 48.5 -110t121.5 -43q83 0 143 57l21 -21q-69 -63 -164 -63q-85 0 -142 50.5t-57 129.5q0 81 72 178l55 70v135q-210 -155 -516 -155q-162 0 -268 92q-105 92 -105 243q0 148 109.5 225.5
t308.5 77.5h471v44q0 177 -101.5 267.5t-285.5 90.5q-225 0 -412 -146l-16 21q189 149 428 149zM1032 166v428h-471q-187 0 -289 -71.5t-102 -207.5q0 -139 96.5 -225t249.5 -86q309 0 516 162z" />
    <glyph glyph-name="Cacute" unicode="&#x106;" horiz-adv-x="1658" 
d="M1147 1864l-223 -297h-31l211 297h43zM950 1454q166 0 312 -67t251 -185l-22 -18q-98 114 -240 178.5t-301 64.5q-95 2 -188 -23.5t-172.5 -72t-147.5 -113t-115 -145t-72.5 -170.5t-23.5 -186q-4 -141 54 -273.5t156 -229t232.5 -154t276.5 -54.5q159 0 299.5 63.5
t243.5 180.5l20 -19q-105 -118 -251 -184.5t-312 -66.5q-119 -3 -233 34t-207 106.5t-163.5 161.5t-108 205t-35.5 230q0 150 59 286.5t159.5 235.5t238.5 157t290 58z" />
    <glyph glyph-name="cacute" unicode="&#x107;" horiz-adv-x="1277" 
d="M707 1044q116 0 220.5 -46t180.5 -128l-21 -16q-153 166 -380 166q-215 0 -365 -150q-152 -149 -152 -358q0 -208 152 -360q151 -148 365 -148q241 0 397 184l20 -16q-75 -91 -184.5 -141.5t-232.5 -50.5q-227 0 -385 155q-158 158 -158 377t158 377q158 155 385 155z
M901 1454l-223 -297h-31l211 297h43z" />
    <glyph glyph-name="Cdotaccent" unicode="&#x10a;" horiz-adv-x="1658" 
d="M905 1755q13 13 28 7.5t18 -19.5t-7 -27q-14 -19 -34.5 -3t-9.5 36q2 3 5 6zM952 1454q166 0 312.5 -67t251.5 -185l-23 -18q-100 117 -240.5 180t-300.5 63q-95 2 -188 -23.5t-172.5 -72t-147.5 -113t-115 -145t-72.5 -170.5t-23.5 -186q-4 -141 54 -273.5t156 -229
t232.5 -154t276.5 -54.5q159 0 299.5 63.5t243.5 180.5l21 -19q-105 -118 -251.5 -184.5t-312.5 -66.5q-119 -3 -233 34t-207 106.5t-163.5 161.5t-108 205t-35.5 230q0 150 59 286.5t159.5 235.5t238.5 157t290 58z" />
    <glyph glyph-name="cdotaccent" unicode="&#x10b;" horiz-adv-x="1277" 
d="M657 1346q20 20 39 0t0 -39q-13 -20 -32 -4q-20 17 -10 38zM707 1044q116 0 220.5 -46t180.5 -128l-21 -16q-153 166 -380 166q-215 0 -365 -150q-152 -149 -152 -358q0 -208 152 -360q151 -148 365 -148q241 0 397 184l20 -16q-75 -91 -184.5 -141.5t-232.5 -50.5
q-227 0 -385 155q-158 158 -158 377t158 377q158 155 385 155z" />
    <glyph glyph-name="Ccaron" unicode="&#x10c;" horiz-adv-x="1658" 
d="M1186 1864l-246 -297h-35l-246 297h31l234 -277l231 277h31zM950 1454q166 0 312 -67t251 -185l-22 -18q-98 114 -240 178.5t-301 64.5q-95 2 -188 -23.5t-172.5 -72t-147.5 -113t-115 -145t-72.5 -170.5t-23.5 -186q-4 -141 54 -273.5t156 -229t232.5 -154t276.5 -54.5
q159 0 299.5 63.5t243.5 180.5l20 -19q-105 -118 -251 -184.5t-312 -66.5q-119 -3 -233 34t-207 106.5t-163.5 161.5t-108 205t-35.5 230q0 150 59 286.5t159.5 235.5t238.5 157t290 58z" />
    <glyph glyph-name="ccaron" unicode="&#x10d;" horiz-adv-x="1277" 
d="M938 1454l-246 -297h-33l-245 297h30l232 -276l231 276h31zM705 1044q116 0 220.5 -46t180.5 -128l-21 -16q-153 166 -380 166q-135 4 -256 -65.5t-192.5 -189t-68.5 -253.5q0 -208 152 -360q151 -148 365 -148q241 0 397 184l20 -16q-75 -91 -184.5 -141.5t-232.5 -50.5
q-228 0 -386 155q-157 157 -157 377t157 377q158 155 386 155z" />
    <glyph glyph-name="Dcaron" unicode="&#x10e;" horiz-adv-x="1755" 
d="M1065 1864l-246 -297h-33l-245 297h30l232 -277l231 277h31zM285 0v1434h516q201 4 374.5 -91.5t275 -263.5t97.5 -364q4 -195 -97.5 -361.5t-275 -262t-374.5 -91.5h-516zM801 1407h-488v-1380h488q192 -4 359 88t265.5 253.5t94.5 348.5q4 187 -94.5 348.5
t-265.5 253.5t-359 88z" />
    <glyph glyph-name="dcaron" unicode="&#x10f;" horiz-adv-x="1484" 
d="M1483 1423q0 -6 -4 -18l-125 -201l-19 8l105 183q-19 9 -19 28q0 18 15.5 26t31 0t15.5 -26zM1114 1434h27v-1434h-27v164q-76 -87 -182.5 -135.5t-226.5 -48.5q-228 0 -386 155q-157 157 -157 377t157 377q158 155 386 155q244 0 409 -182v572zM705 1020
q-135 4 -256 -65.5t-192.5 -189t-68.5 -253.5q0 -208 152 -360q151 -148 365 -148q122 0 229 53t180 148v616q-70 92 -178 145.5t-231 53.5z" />
    <glyph glyph-name="Dcroat" unicode="&#x110;" horiz-adv-x="1755" 
d="M287 729v705h516q150 3 289 -53t241 -152.5t162 -231.5t57 -282q3 -146 -57 -280t-162 -230t-241 -152t-289 -53h-516v705h-185v24h185zM315 705v-678h488q143 -3 277 51t232 147t156 222t56 270q2 141 -56 270t-156 222t-232 147t-277 51h-488v-676h484v-26h-484z" />
    <glyph glyph-name="dslash" unicode="&#x111;" horiz-adv-x="1368" 
d="M1343 1264v-25h-200v-1239h-27v164q-76 -87 -182.5 -135.5t-226.5 -48.5q-227 0 -385 155q-158 158 -158 377t158 377q158 155 385 155q244 0 409 -182v377h-293v25h293v170h27v-170h200zM1116 205v616q-73 93 -180 146t-229 53q-138 0 -257.5 -68t-189.5 -185t-70 -255
q0 -208 152 -360q151 -148 365 -148q122 0 229 53t180 148z" />
    <glyph glyph-name="Emacron" unicode="&#x112;" horiz-adv-x="1458" 
d="M1292 1434v-27h-977v-670h899v-26h-899v-684h1002v-27h-1030v1434h1005zM1042 1749v-25h-520v25h520z" />
    <glyph glyph-name="emacron" unicode="&#x113;" 
d="M936 1339v-24h-520v24h520zM680 1044q239 0 377 -153q139 -151 139 -379v-25h-1006q9 -200 156 -344q145 -139 344 -139q239 0 410 168l18 -16q-179 -176 -428 -176q-218 0 -373 155q-153 156 -153 377q0 220 151 377q149 155 365 155zM680 1020q-96 3 -188 -38
t-159 -110t-106.5 -164.5t-36.5 -195.5h979q0 217 -133 362q-134 146 -356 146z" />
    <glyph glyph-name="Edotaccent" unicode="&#x116;" horiz-adv-x="1458" 
d="M762 1755q13 13 28.5 7.5t19 -19.5t-6.5 -27q-13 -13 -28.5 -7.5t-19 19.5t6.5 27zM1292 1434v-27h-977v-670h899v-26h-899v-684h1002v-27h-1030v1434h1005z" />
    <glyph glyph-name="edotaccent" unicode="&#x117;" 
d="M655 1346q13 13 28.5 7.5t19 -19.5t-6.5 -27q-13 -13 -28.5 -7.5t-19 19.5t6.5 27zM680 1044q233 1 377 -152.5t139 -379.5v-25h-1006q9 -200 156 -344q145 -139 344 -139q239 0 410 168l18 -16q-179 -176 -428 -176q-218 0 -373 155q-153 156 -153 377q0 220 151 377
q149 155 365 155zM680 1020q-202 0 -346 -150q-144 -147 -144 -358h979q0 217 -133 362q-134 146 -356 146z" />
    <glyph glyph-name="Eogonek" unicode="&#x118;" horiz-adv-x="1458" 
d="M1292 1434v-27h-977v-670h899v-26h-899v-684h1002v-27h-166l-55 -70q-66 -84 -66 -161q0 -67 48.5 -110.5t121.5 -43.5q86 0 146 57l18 -20q-70 -64 -164 -64q-83 0 -141 51.5t-58 129.5q0 81 72 178l43 53h-829v1434h1005z" />
    <glyph glyph-name="eogonek" unicode="&#x119;" 
d="M680 1044q239 0 377 -153q139 -151 139 -379v-25h-1006q9 -200 156 -344q145 -139 344 -139q239 0 410 168l18 -16q-86 -86 -205 -133l-55 -72q-67 -82 -67 -162q0 -67 49.5 -110.5t122.5 -43.5q82 0 143 58l20 -21q-69 -63 -163 -63q-86 0 -143.5 50.5t-57.5 129.5
q0 83 74 178l28 37q-82 -24 -174 -24q-218 0 -373 155q-153 156 -153 377q0 220 151 377q149 155 365 155zM680 1020q-96 3 -188 -38t-159 -110t-106.5 -164.5t-36.5 -195.5h979q0 217 -133 362q-134 146 -356 146z" />
    <glyph glyph-name="Ecaron" unicode="&#x11a;" horiz-adv-x="1458" 
d="M1042 1864l-245 -297h-33l-246 297h31l231 -277l232 277h30zM1290 1434v-27h-977v-670h899v-26h-899v-684h1002v-27h-1030v1434h1005z" />
    <glyph glyph-name="ecaron" unicode="&#x11b;" 
d="M936 1454l-246 -297h-33l-245 297h30l232 -276l231 276h31zM678 1044q233 1 377 -152.5t139 -379.5v-25h-1006q9 -200 156 -344q145 -139 344 -139q239 0 410 168l18 -16q-179 -176 -428 -176q-218 0 -373 155q-153 156 -153 377q0 220 151 377q149 155 365 155z
M678 1020q-202 0 -346 -150q-144 -147 -144 -358h979q0 217 -133 362q-134 146 -356 146z" />
    <glyph glyph-name="Gbreve" unicode="&#x11e;" horiz-adv-x="1789" 
d="M1169 1851l29 -2q-10 -121 -91.5 -190.5t-211.5 -69.5t-211.5 69.5t-91.5 190.5l29 2q7 -110 81 -172.5t193 -62.5q118 0 191.5 62t82.5 173zM952 1454q286 0 498 -188l-18 -21q-206 182 -480 182q-95 2 -188 -23.5t-172.5 -72t-147.5 -113t-115 -145t-72.5 -170.5
t-23.5 -186q-4 -141 54 -273.5t156 -229t232.5 -154t276.5 -54.5q319 0 543 205v451h-543v26h572v-487q-111 -105 -259.5 -163t-312.5 -58q-119 -3 -233 34t-207 106.5t-163.5 161.5t-108 205t-35.5 230q-2 117 35.5 230t108 204.5t163.5 161t207 106.5t233 35z" />
    <glyph glyph-name="gbreve" unicode="&#x11f;" horiz-adv-x="1406" 
d="M979 1442l29 -2q-10 -121 -91.5 -190.5t-211.5 -69.5t-212 69.5t-92 190.5l29 2q7 -110 81.5 -173t193.5 -63q118 0 190.5 63t83.5 173zM696 1044q267 0 459 -174v154h27v-897q0 -261 -143 -404t-388 -143q-232 0 -422 146l17 18q183 -139 405 -139q236 0 370 134.5
t134 387.5v117q-76 -113 -197.5 -178.5t-261.5 -65.5q-219 0 -377 152q-155 152 -155 370q0 220 155 369q156 153 377 153zM696 1020q-206 0 -358 -146q-148 -145 -148 -352t148 -352q151 -145 358 -145q145 0 268 72.5t191 195.5v543q-190 184 -459 184z" />
    <glyph glyph-name="Gdotaccent" unicode="&#x120;" horiz-adv-x="1789" 
d="M874 1755q13 13 28 7.5t18 -19.5t-7 -27q-13 -20 -32 -4q-20 17 -10 38zM952 1454q286 0 498 -188l-18 -21q-206 182 -480 182q-95 2 -188 -23.5t-172.5 -72t-147.5 -113t-115 -145t-72.5 -170.5t-23.5 -186q-4 -141 54 -273.5t156 -229t232.5 -154t276.5 -54.5
q319 0 543 205v451h-543v26h572v-487q-111 -105 -259.5 -163t-312.5 -58q-119 -3 -233 34t-207 106.5t-163.5 161.5t-108 205t-35.5 230q0 150 59 286.5t159.5 235.5t238.5 157t290 58z" />
    <glyph glyph-name="gdotaccent" unicode="&#x121;" horiz-adv-x="1406" 
d="M684 1346q13 13 28.5 7.5t19 -19.5t-6.5 -27q-13 -13 -28.5 -7.5t-19 19.5t6.5 27zM696 1044q267 0 459 -174v154h27v-897q0 -261 -143 -404t-388 -143q-232 0 -422 146l17 18q183 -139 405 -139q236 0 370 134.5t134 387.5v117q-76 -113 -197.5 -178.5t-261.5 -65.5
q-219 0 -377 152q-155 152 -155 370q-2 103 41 200.5t115.5 168.5t171.5 113t204 40zM696 1020q-206 0 -358 -146q-148 -145 -148 -352t148 -352q151 -145 358 -145q145 0 268 72.5t191 195.5v543q-190 184 -459 184z" />
    <glyph glyph-name="Gcommaaccent" unicode="&#x122;" horiz-adv-x="1789" 
d="M952 1454q286 0 498 -188l-18 -21q-206 182 -480 182q-95 2 -188 -23.5t-172.5 -72t-147.5 -113t-115 -145t-72.5 -170.5t-23.5 -186q-4 -141 54 -273.5t156 -229t232.5 -154t276.5 -54.5q319 0 543 205v451h-543v26h572v-487q-111 -105 -259.5 -163t-312.5 -58
q-119 -3 -233 34t-207 106.5t-163.5 161.5t-108 205t-35.5 230q0 150 59 286.5t159.5 235.5t238.5 157t290 58zM969 -201q0 -9 -6 -18l-123 -201l-19 8l105 183q-19 9 -19 28t15.5 27t31 0t15.5 -27z" />
    <glyph glyph-name="gcommaaccent" unicode="&#x123;" horiz-adv-x="1406" 
d="M791 1589l18 -8l-104 -184q18 -6 18 -27q0 -19 -15.5 -27t-30.5 0t-15 27q0 8 4 16zM694 1044q267 0 459 -174v154h27v-897q0 -261 -143 -404t-388 -143q-232 0 -422 146l17 18q183 -139 405 -139q236 0 370 134.5t134 387.5v117q-76 -113 -197.5 -178.5t-261.5 -65.5
q-219 0 -377 152q-155 152 -155 370q-3 138 69.5 260t196.5 193.5t266 68.5zM694 1020q-206 0 -358 -146q-148 -145 -148 -352t148 -352q151 -145 358 -145q145 0 268 72.5t191 195.5v543q-190 184 -459 184z" />
    <glyph glyph-name="Hbar" unicode="&#x126;" horiz-adv-x="1765" 
d="M1647 1139v-27h-168v-1112h-29v711h-1137v-711h-28v1112h-168v27h168v295h28v-295h1137v295h29v-295h168zM1450 737v375h-1137v-375h1137z" />
    <glyph glyph-name="hbar" unicode="&#x127;" horiz-adv-x="1386" 
d="M791 1044q180 0 284.5 -109t104.5 -304v-631h-27v631q0 184 -97 286.5t-265 102.5q-148 0 -285 -55t-246 -154v-811h-27v1239h-186v25h186v170h27v-170h412v-25h-412v-395q232 200 531 200z" />
    <glyph glyph-name="Itilde" unicode="&#x128;" horiz-adv-x="602" 
d="M147 1841q36 -6 64.5 -21.5t79.5 -54.5q50 -39 79.5 -54t65.5 -21q62 -8 108.5 30t65.5 113l29 -6q-20 -81 -77.5 -126.5t-129.5 -37.5q-42 6 -75 23t-83 59q-53 40 -76.5 53t-54.5 17q-54 6 -93 -31t-54 -113l-29 4q17 86 64.5 130t115.5 36zM317 1434v-1434h-28v1434
h28z" />
    <glyph glyph-name="itilde" unicode="&#x129;" horiz-adv-x="518" 
d="M113 1432q36 -6 64 -21t79 -55q51 -39 80 -54.5t65 -21.5q62 -8 108.5 30t65.5 113l29 -6q-20 -81 -77.5 -126.5t-129.5 -37.5q-42 6 -74.5 23t-82.5 59q-53 40 -76.5 53t-54.5 17q-55 6 -95 -31.5t-53 -111.5l-29 4q17 86 65 130t116 36zM281 1024v-1024h-27v1024h27z
" />
    <glyph glyph-name="Imacron" unicode="&#x12a;" horiz-adv-x="602" 
d="M561 1749v-25h-520v25h520zM315 1434v-1434h-28v1434h28z" />
    <glyph glyph-name="imacron" unicode="&#x12b;" horiz-adv-x="518" 
d="M279 1024v-1024h-27v1024h27zM526 1339v-24h-520v24h520z" />
    <glyph glyph-name="Iogonek" unicode="&#x12e;" horiz-adv-x="602" 
d="M313 1434v-1442l-61 -78q-66 -84 -66 -162q0 -68 49 -110.5t121 -42.5q84 0 144 57l20 -21q-69 -63 -164 -63q-84 0 -141 49.5t-57 130.5q0 83 71 178l56 70v1434h28z" />
    <glyph glyph-name="iogonek" unicode="&#x12f;" horiz-adv-x="518" 
d="M244 1346q13 13 28.5 7.5t19 -19.5t-6.5 -27q-13 -13 -28.5 -7.5t-19 19.5t6.5 27zM276 1024v-1036l-59 -74q-65 -83 -65 -162q0 -68 49 -110.5t121 -42.5q83 0 143 57l20 -21q-69 -63 -163 -63q-85 0 -142 50.5t-57 129.5q0 81 72 178l55 70v1024h26z" />
    <glyph glyph-name="Idot" unicode="&#x130;" horiz-adv-x="602" 
d="M279 1755q13 13 27.5 7.5t17.5 -19.5t-7 -27q-13 -20 -32 -4q-19 17 -9 38zM313 1434v-1434h-28v1434h28z" />
    <glyph glyph-name="dotlessi" unicode="&#x131;" horiz-adv-x="518" 
d="M279 1024v-1024h-27v1024h27z" />
    <glyph glyph-name="IJ" unicode="&#x132;" horiz-adv-x="1849" 
d="M1534 1434h29v-955q0 -240 -122.5 -369.5t-330.5 -129.5q-250 0 -426 176l21 18q168 -168 405 -168q196 0 310 122.5t114 350.5v955zM315 1434v-1434h-28v1434h28z" />
    <glyph glyph-name="ij" unicode="&#x133;" horiz-adv-x="1054" 
d="M236 1325q0 29 28 29q29 0 29 -29t-29 -29q-28 0 -28 29zM780 1346q20 20 40.5 -0.5t0.5 -40.5t-40.5 0.5t-0.5 40.5zM279 1024v-1024h-27v1024h27zM788 1024h27v-1092q0 -158 -96 -254q-94 -98 -236 -98q-55 0 -108 17l8 22q43 -14 100 -14q129 0 217 90.5t88 236.5
v1092z" />
    <glyph glyph-name="Kcommaaccent" unicode="&#x136;" horiz-adv-x="1517" 
d="M1376 1434l-573 -555l614 -879h-35l-600 860l-463 -448v-412h-28v1434h28v-983l1018 983h39zM834 -201q0 -7 -7 -18l-122 -201l-19 8l105 183q-19 9 -19 28t15.5 27t31 0t15.5 -27z" />
    <glyph glyph-name="kcommaaccent" unicode="&#x137;" horiz-adv-x="1200" 
d="M262 1434v-1129l799 719h39l-414 -373l455 -651h-31l-442 635l-406 -365v-270h-26v1434h26zM647 -170q13 0 22 -9t9 -22q0 -9 -6 -18l-123 -201l-19 8l105 183q-19 9 -19 28q0 13 9.5 22t21.5 9z" />
    <glyph glyph-name="Lacute" unicode="&#x139;" horiz-adv-x="1288" 
d="M868 1864l-223 -297h-31l211 297h43zM315 1434v-1407h873v-27h-901v1434h28z" />
    <glyph glyph-name="lacute" unicode="&#x13a;" horiz-adv-x="466" 
d="M473 1864l-223 -297h-31l211 297h43zM262 1434v-1434h-26v1434h26z" />
    <glyph glyph-name="Lcommaaccent" unicode="&#x13b;" horiz-adv-x="1288" 
d="M719 -201q0 -9 -6 -18l-123 -201l-19 8l105 183q-19 9 -19 28t15.5 27t31 0t15.5 -27zM315 1434v-1407h873v-27h-901v1434h28z" />
    <glyph glyph-name="lcommaaccent" unicode="&#x13c;" horiz-adv-x="466" 
d="M324 -201q0 -7 -7 -18l-122 -201l-19 8l105 183q-19 9 -19 28t15.5 27t31 0t15.5 -27zM262 1434v-1434h-26v1434h26z" />
    <glyph glyph-name="Lcaron" unicode="&#x13d;" horiz-adv-x="1288" 
d="M952 1423q0 -6 -4 -18l-125 -201l-18 8l104 183q-18 9 -18 28q0 18 15.5 26t30.5 0t15 -26zM313 1434v-1407h873v-27h-901v1434h28z" />
    <glyph glyph-name="lcaron" unicode="&#x13e;" horiz-adv-x="604" 
d="M602 1423q0 -6 -4 -18l-125 -201l-18 8l104 183q-18 9 -18 28q0 18 15.5 26t30.5 0t15 -26zM260 1434v-1434h-27v1434h27z" />
    <glyph glyph-name="Ldot" unicode="&#x13f;" horiz-adv-x="1288" 
d="M315 1434v-1407h873v-27h-901v1434h28zM866 768q12 15 29 9.5t22 -21t-8 -31.5q-10 -10 -22.5 -9t-20 9.5t-9.5 20t9 22.5z" />
    <glyph glyph-name="ldot" unicode="&#x140;" horiz-adv-x="661" 
d="M539 748q0 30 30 30q31 0 31 -30q0 -31 -31 -31q-30 0 -30 31zM262 1434v-1434h-26v1434h26z" />
    <glyph glyph-name="Lslash" unicode="&#x141;" horiz-adv-x="1378" 
d="M403 27h873v-27h-901v784l-293 -235v35l293 237v613h28v-590l332 268v-35l-332 -268v-782z" />
    <glyph glyph-name="lslash" unicode="&#x142;" horiz-adv-x="737" 
d="M655 1112v-35l-282 -231v-846h-27v825l-264 -213v35l264 213v574h27v-551z" />
    <glyph glyph-name="Nacute" unicode="&#x143;" horiz-adv-x="1724" 
d="M1460 1434v-1434h-45l-1120 1407v-1407h-29v1434h45l1121 -1407v1407h28zM1085 1864l-223 -297h-31l211 297h43z" />
    <glyph glyph-name="nacute" unicode="&#x144;" horiz-adv-x="1376" 
d="M782 1044q180 0 284.5 -109t104.5 -304v-631h-26v631q0 184 -97.5 286.5t-265.5 102.5q-147 0 -284 -54.5t-246 -154.5v-811h-27v1024h27v-180q232 200 530 200zM911 1454l-223 -297h-31l211 297h43z" />
    <glyph glyph-name="Ncommaaccent" unicode="&#x145;" horiz-adv-x="1724" 
d="M1460 1434v-1434h-45l-1120 1407v-1407h-29v1434h45l1121 -1407v1407h28zM936 -201q0 -9 -6 -18l-123 -201l-19 8l105 183q-19 9 -19 28t15.5 27t31 0t15.5 -27z" />
    <glyph glyph-name="ncommaaccent" unicode="&#x146;" horiz-adv-x="1376" 
d="M782 1044q180 0 284.5 -109t104.5 -304v-631h-26v631q0 184 -97.5 286.5t-265.5 102.5q-147 0 -284 -54.5t-246 -154.5v-811h-27v1024h27v-180q232 200 530 200zM762 -201q0 -9 -6 -18l-123 -201l-19 8l105 183q-19 9 -19 28t15.5 27t31 0t15.5 -27z" />
    <glyph glyph-name="Ncaron" unicode="&#x147;" horiz-adv-x="1724" 
d="M1122 1864l-245 -297h-33l-246 297h31l231 -277l232 277h30zM1458 1434v-1434h-45l-1120 1407v-1407h-29v1434h43l1123 -1407v1407h28z" />
    <glyph glyph-name="ncaron" unicode="&#x148;" horiz-adv-x="1376" 
d="M948 1454l-246 -297h-32l-246 297h31l231 -276l232 276h30zM780 1044q180 0 284.5 -109t104.5 -304v-631h-26v631q0 184 -97.5 286.5t-265.5 102.5q-147 0 -284 -54.5t-246 -154.5v-811h-27v1024h27v-180q232 200 530 200z" />
    <glyph glyph-name="Eng" unicode="&#x14a;" horiz-adv-x="1724" 
d="M1432 1434h28v-1354q0 -240 -122 -370t-330 -130q-250 0 -426 176l20 19q168 -168 406 -168q179 0 289 101.5t130 291.5h-12l-1120 1407v-1407h-29v1434h45l1119 -1405l2 51v1354z" />
    <glyph glyph-name="eng" unicode="&#x14b;" horiz-adv-x="1376" 
d="M782 1044q180 0 284.5 -109t104.5 -304v-699q0 -158 -96 -254q-94 -98 -235 -98q-56 0 -109 17l8 22q43 -14 101 -14q127 0 217 90q88 88 88 237v699q0 184 -97.5 286.5t-265.5 102.5q-147 0 -284 -54.5t-246 -154.5v-811h-27v1024h27v-180q232 200 530 200z" />
    <glyph glyph-name="Omacron" unicode="&#x14c;" horiz-adv-x="1904" 
d="M1700 717q3 -147 -57.5 -284.5t-162 -238t-241 -159.5t-287.5 -55q-119 -3 -233 34t-207 106.5t-163.5 161.5t-108 205t-35.5 230q0 150 59 286.5t159.5 235.5t238.5 157t290 58q203 0 375 -98.5t272.5 -268t100.5 -370.5zM1313 1331q-120 74 -266.5 90.5t-281 -19
t-252 -121.5t-183.5 -208q-97 -168 -97 -356q0 -191 96 -355.5t263 -261.5q166 -94 360 -94t360 94.5t263 259.5q59 95 82.5 208t9 224t-58 214t-120 188t-175.5 137zM1212 1749v-25h-520v25h520z" />
    <glyph glyph-name="omacron" unicode="&#x14d;" horiz-adv-x="1413" 
d="M967 1339v-24h-521v24h521zM707 1044q144 3 270.5 -69.5t200.5 -196.5t71 -266q0 -221 -159 -377q-155 -155 -383 -155q-227 0 -385 155q-158 158 -158 377t158 377q158 155 385 155zM707 1020q-135 4 -256 -65.5t-192.5 -189t-68.5 -253.5q0 -208 152 -360
q151 -148 365 -148q101 -3 197.5 38t166.5 110t112 164t40 196q0 209 -152 358q-150 150 -364 150z" />
    <glyph glyph-name="Ohungarumlaut" unicode="&#x150;" horiz-adv-x="1904" 
d="M1042 1864l-223 -297h-28l208 297h43zM1364 1864l-223 -297h-31l211 297h43zM1700 717q3 -147 -57.5 -284.5t-162 -238t-241 -159.5t-287.5 -55q-119 -3 -233 34t-207 106.5t-163.5 161.5t-108 205t-35.5 230q0 150 59 286.5t159.5 235.5t238.5 157t290 58
q203 0 375 -98.5t272.5 -268t100.5 -370.5zM1313 1331q-120 74 -266.5 90.5t-281 -19t-252 -121.5t-183.5 -208q-97 -168 -97 -356q0 -191 96 -355.5t263 -261.5q166 -94 360 -94t360 94.5t263 259.5q59 95 82.5 208t9 224t-58 214t-120 188t-175.5 137z" />
    <glyph glyph-name="ohungarumlaut" unicode="&#x151;" horiz-adv-x="1413" 
d="M797 1454l-224 -297h-28l209 297h43zM1118 1454l-223 -297h-31l211 297h43zM322 889q158 155 385 155q228 0 383 -155q159 -156 159 -377t-159 -377q-155 -155 -383 -155q-227 0 -385 155q-158 158 -158 377t158 377zM1071 870q-150 150 -364 150q-215 0 -365 -150
q-152 -149 -152 -358q0 -208 152 -360q151 -148 365 -148q213 0 364 148q152 152 152 360q0 209 -152 358z" />
    <glyph glyph-name="OE" unicode="&#x152;" horiz-adv-x="2842" 
d="M1700 27h1001v-27h-1030v514q-68 -236 -266 -385t-453 -149q-119 -3 -233 34t-207 106.5t-163.5 161.5t-108 205t-35.5 230q0 150 59 286.5t159.5 235.5t238.5 157t290 58q252 0 451.5 -151t267.5 -383v514h1006v-27h-977v-670h899v-26h-899v-684zM592 100
q166 -94 360 -94t360 94.5t263 259.5q59 95 82.5 208t9 224t-58 214t-120 188t-175.5 137q-120 74 -266.5 90.5t-281 -19t-252 -121.5t-183.5 -208q-97 -168 -97 -356q0 -191 96 -355.5t263 -261.5z" />
    <glyph glyph-name="oe" unicode="&#x153;" horiz-adv-x="2408" 
d="M2255 512v-25h-1006q9 -200 156 -344q145 -139 344 -139q239 0 410 168l18 -16q-179 -176 -428 -176q-187 0 -330 116q-144 117 -184 297q-40 -179 -188 -297q-146 -116 -340 -116q-227 0 -385 155q-158 158 -158 377t158 377q158 155 385 155q191 0 337 -116
q151 -118 191 -297q40 181 181 297t323 116q239 0 377 -153q139 -151 139 -379zM707 4q101 -3 197.5 38t166.5 110t112 164t40 196q0 209 -152 358q-150 150 -364 150q-215 0 -365 -150q-152 -149 -152 -358q0 -208 152 -360q151 -148 365 -148zM1249 512h979
q0 217 -133 362q-134 146 -356 146q-202 0 -346 -150q-144 -147 -144 -358z" />
    <glyph glyph-name="Racute" unicode="&#x154;" horiz-adv-x="1589" 
d="M287 0v1434h594q290 0 418 -98.5t128 -319.5q0 -185 -88 -282.5t-284 -123.5l434 -610h-35l-430 606q-64 -6 -143 -6h-566v-600h-28zM881 1407h-566v-780l566 -2q280 0 399 90.5t119 300.5t-119 300.5t-399 90.5zM1018 1864l-223 -297h-31l211 297h43z" />
    <glyph glyph-name="racute" unicode="&#x155;" horiz-adv-x="860" 
d="M799 1044v-24q-309 0 -547 -232v-788h-27v1024h27v-201q241 221 547 221zM653 1454l-223 -297h-31l211 297h43z" />
    <glyph glyph-name="Rcommaaccent" unicode="&#x156;" horiz-adv-x="1589" 
d="M287 0v1434h594q290 0 418 -98.5t128 -319.5q0 -185 -88 -282.5t-284 -123.5l434 -610h-35l-430 606q-64 -6 -143 -6h-566v-600h-28zM881 1407h-566v-780l566 -2q280 0 399 90.5t119 300.5t-119 300.5t-399 90.5zM868 -201q0 -9 -6 -18l-123 -201l-18 8l104 183
q-18 9 -18 28t15.5 27t30.5 0t15 -27z" />
    <glyph glyph-name="rcommaaccent" unicode="&#x157;" horiz-adv-x="860" 
d="M504 -201q0 -9 -6 -18l-123 -201l-19 8l105 183q-19 9 -19 28t15.5 27t31 0t15.5 -27zM799 1044v-24q-309 0 -547 -232v-788h-27v1024h27v-201q241 221 547 221z" />
    <glyph glyph-name="Rcaron" unicode="&#x158;" horiz-adv-x="1589" 
d="M1055 1864l-246 -297h-33l-246 297h31l232 -277l231 277h31zM285 0v1434h594q290 0 418 -98.5t128 -319.5q0 -185 -88 -282.5t-284 -123.5l434 -610h-35l-430 606q-65 -6 -143 -6h-566v-600h-28zM879 1407h-566v-780l566 -2q280 0 399 90.5t119 300.5t-119 300.5
t-399 90.5z" />
    <glyph glyph-name="rcaron" unicode="&#x159;" horiz-adv-x="860" 
d="M690 1454l-246 -297h-32l-246 297h31l231 -276l231 276h31zM797 1044v-24q-309 0 -547 -232v-788h-27v1024h27v-201q241 221 547 221z" />
    <glyph glyph-name="Sacute" unicode="&#x15a;" horiz-adv-x="1437" 
d="M696 1454q140 0 283.5 -39t247.5 -106l-17 -23q-103 66 -239 103.5t-275 37.5q-96 -2 -177.5 -22t-146.5 -59.5t-102 -106t-37 -152.5q0 -113 91 -182q90 -65 342 -133l106 -29q89 -22 90 -22l82 -25l78 -24q25 -8 63.5 -26.5t57.5 -31.5q68 -49 84 -82q49 -89 49 -190
q0 -118 -78 -202t-196.5 -122t-260.5 -38q-163 0 -324.5 45t-273.5 122l17 21q109 -74 266.5 -118t314.5 -44q139 0 250.5 35t183.5 113t72 188q-1 94 -31.5 152.5t-93.5 99.5q-37 29 -116 53q-27 12 -74 25l-78 22q-36 12 -92 25l-105 26q-265 72 -358 144q-94 73 -94 198
q0 93 40 165t109.5 114.5t155.5 64t186 23.5zM942 1864l-223 -297h-31l211 297h43z" />
    <glyph glyph-name="sacute" unicode="&#x15b;" horiz-adv-x="1093" 
d="M516 1044q104 0 206.5 -27.5t176.5 -76.5l-14 -20q-153 100 -369 100q-147 0 -237.5 -62.5t-90.5 -177.5q0 -80 64 -129q68 -49 244 -94l77 -22l74 -19l64 -18q20 -6 36 -11.5t23.5 -8.5t24 -11t24.5 -12q12 -5 21 -10t17 -12t12 -11t13 -14.5t13 -14.5q45 -45 45 -151
q0 -131 -115 -199q-117 -66 -276 -63q-118 0 -236.5 32.5t-199.5 87.5l14 21q84 -54 196.5 -85.5t225.5 -31.5q164 0 264 61.5t100 176.5q0 48 -16 98q-22 38 -40.5 58t-53.5 36q-10 4 -24 11l-21 10.5t-21.5 8.5t-34.5 11l-63 19l-74 18l-76 20q-193 53 -260 103
q-67 52 -67 145q0 127 97.5 195.5t256.5 68.5zM770 1454l-223 -297h-31l211 297h43z" />
    <glyph glyph-name="Scedilla" unicode="&#x15e;" horiz-adv-x="1437" 
d="M696 1454q140 0 283.5 -39t247.5 -106l-17 -23q-103 66 -239 103.5t-275 37.5q-96 -2 -177.5 -22t-146.5 -59.5t-102 -106t-37 -152.5q0 -113 91 -182q90 -65 342 -133l106 -29q89 -22 90 -22l82 -25l78 -24q25 -8 63.5 -26.5t57.5 -31.5q68 -49 84 -82q49 -89 49 -190
q0 -118 -78 -202t-196.5 -122t-260.5 -38l-55 2l-45 -91q48 25 100 25q74 0 124 -45.5t50 -116.5q0 -75 -58 -124.5t-146 -49.5q-110 0 -189 43l13 23q71 -39 176 -39q75 0 125.5 42t50.5 105q0 59 -42 97t-104 38q-81 0 -129 -51l-20 19l61 127q-143 11 -279 53.5
t-231 109.5l17 21q109 -74 266.5 -118t314.5 -44q139 0 250.5 35t183.5 113t72 188q-1 94 -31.5 152.5t-93.5 99.5q-37 29 -116 53q-27 12 -74 25l-78 22q-36 12 -92 25l-105 26q-265 72 -358 144q-94 73 -94 198q0 93 40 165t109.5 114.5t155.5 64t186 23.5z" />
    <glyph glyph-name="scedilla" unicode="&#x15f;" horiz-adv-x="1093" 
d="M516 1044q104 0 206.5 -27.5t176.5 -76.5l-14 -20q-153 100 -369 100q-147 0 -237.5 -62.5t-90.5 -177.5q0 -80 64 -129q68 -49 244 -94l77 -22l76 -19l64 -18q35 -10 106 -43q12 -5 21 -10t17 -12t12 -11t13 -14.5t13 -14.5q45 -45 45 -151q0 -131 -115 -199
q-117 -66 -276 -63h-37l-43 -89q48 25 100 25q74 0 124 -45.5t50 -116.5q0 -75 -58 -124.5t-146 -49.5q-110 0 -189 43l12 23q74 -39 177 -39q75 0 125.5 42t50.5 105q0 59 -42 97t-104 38q-81 0 -129 -51l-20 19l61 125q-227 18 -368 118l14 21q84 -54 196.5 -85.5
t225.5 -31.5q164 0 264 61.5t100 176.5q0 48 -16 98q-22 38 -40.5 58t-53.5 36q-10 4 -24 11l-21 10.5t-21.5 8.5t-34.5 11l-63 19l-74 18l-76 20q-193 53 -260 103q-67 52 -67 145q0 127 97.5 195.5t256.5 68.5z" />
    <glyph glyph-name="Scaron" unicode="&#x160;" horiz-adv-x="1437" 
d="M979 1864l-246 -297h-33l-245 297h30l232 -277l231 277h31zM694 1454q140 0 283.5 -39t247.5 -106l-17 -23q-103 66 -239 103.5t-275 37.5q-96 -2 -177.5 -22t-146.5 -59.5t-102 -106t-37 -152.5q0 -113 91 -182q90 -65 342 -133l106 -29q89 -22 90 -22l82 -25l78 -24
q25 -8 63.5 -26.5t57.5 -31.5q68 -49 84 -82q49 -89 49 -190q0 -118 -78 -202t-196.5 -122t-260.5 -38q-163 0 -324.5 45t-273.5 122l17 21q109 -74 266.5 -118t314.5 -44q138 0 249.5 35t184 113t72.5 188q-1 94 -31.5 152.5t-93.5 99.5q-37 29 -116 53q-27 12 -74 25
l-78 22q-36 12 -92 25l-105 26q-265 72 -358 144q-94 73 -94 198q0 93 40 165t109.5 114.5t155.5 64t186 23.5z" />
    <glyph glyph-name="scaron" unicode="&#x161;" horiz-adv-x="1093" 
d="M807 1454l-246 -297h-33l-245 297h30l232 -276l231 276h31zM514 1044q104 0 206.5 -27.5t176.5 -76.5l-14 -20q-153 100 -369 100q-147 0 -237.5 -62.5t-90.5 -177.5q0 -80 64 -129q68 -49 244 -94l77 -22l74 -19l64 -18q20 -6 36 -11.5t23.5 -8.5t24 -11t24.5 -12
q12 -5 21 -10t17 -12t12 -11t13 -14.5t13 -14.5q45 -45 45 -151q0 -131 -115 -199q-117 -66 -276 -63q-118 0 -236.5 32.5t-199.5 87.5l14 21q84 -54 196.5 -85.5t225.5 -31.5q101 0 180.5 24t131.5 79t52 135q0 48 -16 98q-22 38 -40.5 58t-53.5 36q-10 4 -24 11l-21 10.5
t-21.5 8.5t-34.5 11l-63 19l-74 18l-76 20q-192 52 -259.5 104t-67.5 144q0 127 97.5 195.5t256.5 68.5z" />
    <glyph glyph-name="Tcedilla" unicode="&#x162;" horiz-adv-x="1312" 
d="M1212 1434v-27h-540v-1415l-58 -113q48 25 103 25q74 0 124 -45.5t50 -116.5q0 -74 -59.5 -124t-145.5 -50q-111 0 -190 43l14 22q71 -39 176 -39q74 0 125 42.5t51 105.5q0 59 -42 97t-103 38q-83 0 -131 -51l-21 18l78 156v1407h-541v27h1110z" />
    <glyph glyph-name="tcedilla" unicode="&#x163;" horiz-adv-x="919" 
d="M305 1348v-324h373v-25h-373v-665q0 -147 87.5 -238.5t219.5 -91.5q83 0 154 39l12 -23q-79 -40 -166 -40q-90 0 -166 40l-63 -129q48 25 100 25q74 0 124 -45.5t50 -116.5q0 -75 -58 -124.5t-146 -49.5q-110 0 -189 43l12 23q74 -39 177 -39q75 0 125.5 42t50.5 105
q0 59 -42 97t-104 38q-81 0 -129 -51l-20 19l88 180q-143 98 -143 297v665h-218v25h218v324h26z" />
    <glyph glyph-name="Tcaron" unicode="&#x164;" horiz-adv-x="1312" 
d="M918 1864l-246 -297h-33l-246 297h31l231 -277l232 277h31zM1210 1434v-27h-540v-1407h-29v1407h-541v27h1110z" />
    <glyph glyph-name="tcaron" unicode="&#x165;" horiz-adv-x="919" 
d="M645 1423q0 -6 -4 -18l-125 -201l-18 8l104 183q-18 9 -18 28q0 18 15 26t30.5 0t15.5 -26zM303 1348v-324h373v-25h-373v-665q0 -147 87.5 -238.5t219.5 -91.5q83 0 154 39l12 -23q-79 -40 -166 -40q-143 0 -239 96q-95 100 -95 258v665h-217v25h217v324h27z" />
    <glyph glyph-name="Tbar" unicode="&#x166;" horiz-adv-x="1312" 
d="M1210 1407h-540v-645h245v-25h-245v-737h-29v737h-246v25h246v645h-541v27h1110v-27z" />
    <glyph glyph-name="tbar" unicode="&#x167;" horiz-adv-x="919" 
d="M764 43l12 -23q-79 -40 -166 -40q-143 0 -239 96q-95 100 -95 258v207h-176v24h176v434h-217v25h217v324h27v-324h373v-25h-373v-434h318v-24h-318v-207q0 -147 87.5 -238.5t219.5 -91.5q83 0 154 39z" />
    <glyph glyph-name="Utilde" unicode="&#x168;" horiz-adv-x="1765" 
d="M727 1841q36 -6 64 -21t79 -55q50 -38 79.5 -53.5t66.5 -21.5q62 -8 108.5 30t65.5 113l29 -6q-20 -81 -77.5 -126.5t-129.5 -37.5q-42 6 -75 23t-83 59q-53 40 -76.5 53t-54.5 17q-54 6 -93.5 -31t-54.5 -113l-28 4q17 86 64.5 130t115.5 36zM1470 1434h29v-811
q0 -305 -168 -473q-167 -170 -438 -170t-438.5 171t-167.5 472v811h28v-811q0 -289 158 -455q158 -162 420 -162q263 0 418 162q159 163 159 455v811z" />
    <glyph glyph-name="utilde" unicode="&#x169;" horiz-adv-x="1355" 
d="M522 1432q36 -6 64.5 -21.5t79.5 -54.5t80 -54.5t65 -21.5q62 -8 108.5 30t65.5 113l29 -6q-20 -81 -77.5 -126.5t-129.5 -37.5q-42 6 -75 23t-83 59q-53 40 -76.5 53t-54.5 17q-55 6 -94.5 -31.5t-52.5 -111.5l-29 4q15 87 63.5 129.5t116.5 36.5zM1151 1024v-1024h-27
v180q-232 -200 -530 -200q-180 0 -284.5 109t-104.5 304v631h26v-631q0 -184 97.5 -286.5t265.5 -102.5q149 0 286.5 54.5t243.5 154.5v811h27z" />
    <glyph glyph-name="Umacron" unicode="&#x16a;" horiz-adv-x="1765" 
d="M1143 1749v-25h-520v25h520zM1470 1434h29v-811q0 -305 -168 -473q-167 -170 -438 -170t-438.5 171t-167.5 472v811h28v-811q0 -289 158 -455q158 -162 420 -162q263 0 418 162q159 163 159 455v811z" />
    <glyph glyph-name="umacron" unicode="&#x16b;" horiz-adv-x="1355" 
d="M205 1024h26v-631q0 -184 97.5 -286.5t265.5 -102.5q149 0 286.5 54.5t243.5 154.5v811h27v-1024h-27v180q-232 -200 -530 -200q-180 0 -284.5 109t-104.5 304v631zM938 1339v-24h-520v24h520z" />
    <glyph glyph-name="Uring" unicode="&#x16e;" horiz-adv-x="1765" 
d="M883 1946q68 4 123 -36t79 -97.5t13.5 -123.5t-60.5 -110q-63 -63 -155 -63t-155.5 63.5t-63.5 151.5q0 90 63.5 152.5t155.5 62.5zM692 1731q0 -77 56.5 -133t134.5 -56q59 -4 106.5 31.5t68.5 86t12.5 108.5t-52.5 96q-39 44 -98 52.5t-110.5 -12t-86.5 -68t-31 -105.5
zM1470 1434h29v-811q0 -305 -168 -473q-167 -170 -438 -170q-270 0 -440 170q-166 169 -166 473v811h28v-811q0 -289 158 -455q158 -162 420 -162q263 0 418 162q159 163 159 455v811z" />
    <glyph glyph-name="uring" unicode="&#x16f;" horiz-adv-x="1355" 
d="M897 1321q0 -90 -63.5 -152.5t-155.5 -62.5q-68 -4 -123 36t-79 97.5t-14 123.5t60 110q63 63 156 63q92 0 155.5 -63.5t63.5 -151.5zM487 1321q0 -77 56.5 -132.5t134.5 -55.5q59 -4 106.5 31t68.5 85.5t12.5 108.5t-52.5 96q-39 44 -98 52.5t-110.5 -12t-86.5 -68
t-31 -105.5zM205 1024h26v-631q0 -184 97.5 -286.5t265.5 -102.5q149 0 286.5 54.5t243.5 154.5v811h27v-1024h-27v180q-232 -200 -530 -200q-180 0 -284.5 109t-104.5 304v631z" />
    <glyph glyph-name="Uhungarumlaut" unicode="&#x170;" horiz-adv-x="1765" 
d="M973 1864l-223 -297h-29l209 297h43zM1294 1864l-223 -297h-31l211 297h43zM1470 1434h29v-811q0 -305 -168 -473q-167 -170 -438 -170q-270 0 -440 170q-166 169 -166 473v811h28v-811q0 -289 158 -455q158 -162 420 -162q263 0 418 162q159 163 159 455v811z" />
    <glyph glyph-name="uhungarumlaut" unicode="&#x171;" horiz-adv-x="1355" 
d="M768 1454l-223 -297h-29l209 297h43zM1090 1454l-224 -297h-30l211 297h43zM205 1024h26v-631q0 -184 97.5 -286.5t265.5 -102.5q149 0 286.5 54.5t243.5 154.5v811h27v-1024h-27v180q-232 -200 -530 -200q-180 0 -284.5 109t-104.5 304v631z" />
    <glyph glyph-name="Uogonek" unicode="&#x172;" horiz-adv-x="1765" 
d="M1470 1434h29v-811q0 -220 -91 -373.5t-257 -220.5l-64 -82q-67 -82 -67 -162q0 -67 49.5 -110.5t122.5 -43.5q82 0 143 58l21 -21q-69 -63 -164 -63q-86 0 -143.5 50.5t-57.5 129.5q0 83 74 178l37 47q-94 -30 -209 -30q-270 0 -440 170q-166 169 -166 473v811h28v-811
q0 -289 158 -455q158 -162 420 -162q263 0 418 162q159 163 159 455v811z" />
    <glyph glyph-name="uogonek" unicode="&#x173;" horiz-adv-x="1355" 
d="M205 1024h26v-631q0 -184 97.5 -286.5t265.5 -102.5q149 0 286.5 54.5t243.5 154.5v811h27v-1036l-59 -74q-66 -84 -66 -162q0 -67 48.5 -110t121.5 -43q83 0 143 57l21 -21q-69 -63 -164 -63q-85 0 -142 50.5t-57 129.5q0 81 72 178l55 70v180q-232 -200 -530 -200
q-180 0 -284.5 109t-104.5 304v631z" />
    <glyph glyph-name="Wcircumflex" unicode="&#x174;" horiz-adv-x="2234" 
d="M1135 1864l245 -297h-30l-232 276l-231 -276h-31l246 297h33zM2132 1434l-502 -1434h-41l-471 1409l-471 -1409h-43l-502 1434h31l492 -1407l471 1407h43l471 -1407l491 1407h31z" />
    <glyph glyph-name="wcircumflex" unicode="&#x175;" horiz-adv-x="1667" 
d="M850 1454l246 -297h-31l-231 277l-232 -277h-31l246 297h33zM1608 1024l-389 -1024h-37l-348 999l-347 -999h-36l-390 1024h29l379 -997l346 997h39l346 -997l379 997h29z" />
    <glyph glyph-name="Ycircumflex" unicode="&#x176;" horiz-adv-x="1519" 
d="M776 1864l246 -297h-31l-231 276l-232 -276h-30l245 297h33zM1417 1434l-643 -893v-541h-29v541l-643 893h35l623 -865l622 865h35z" />
    <glyph glyph-name="ycircumflex" unicode="&#x177;" horiz-adv-x="1103" 
d="M569 1454l246 -297h-31l-231 277l-231 -277h-31l246 297h32zM1016 1024h28l-503 -1135q-78 -174 -158.5 -240t-192.5 -69q-62 0 -129 25l11 22q58 -22 118 -22q103 2 178.5 68t147.5 227l31 67l-486 1057h29l471 -1024z" />
    <glyph glyph-name="Ydieresis" unicode="&#x178;" horiz-adv-x="1519" 
d="M524 1755q13 13 28.5 7.5t19 -19.5t-6.5 -27q-21 -21 -38 -1t-3 40zM954 1755q20 20 39 0t0 -39q-14 -19 -34.5 -3t-9.5 36q2 3 5 6zM1417 1434l-643 -893v-541h-29v541l-643 893h35l623 -865l622 865h35z" />
    <glyph glyph-name="Zacute" unicode="&#x179;" horiz-adv-x="1406" 
d="M1243 1434v-33l-1069 -1374h1090v-27h-1121v33l1069 1374h-1036v27h1067zM928 1864l-223 -297h-31l211 297h43z" />
    <glyph glyph-name="zacute" unicode="&#x17a;" horiz-adv-x="1101" 
d="M926 1024v-31l-785 -968h809v-25h-837v31l784 968h-739v25h768zM774 1454l-223 -297h-31l211 297h43z" />
    <glyph glyph-name="Zdotaccent" unicode="&#x17b;" horiz-adv-x="1406" 
d="M684 1755q13 13 28.5 7.5t19 -19.5t-6.5 -27q-13 -13 -28.5 -7.5t-19 19.5t6.5 27zM1243 1434v-33l-1069 -1374h1090v-27h-1121v33l1069 1374h-1036v27h1067z" />
    <glyph glyph-name="zdotaccent" unicode="&#x17c;" horiz-adv-x="1101" 
d="M530 1346q20 20 39 0t0 -39q-13 -20 -32 -4q-20 17 -10 38zM926 1024v-31l-785 -968h809v-25h-837v31l784 968h-739v25h768z" />
    <glyph glyph-name="Zcaron" unicode="&#x17d;" horiz-adv-x="1406" 
d="M965 1864l-246 -297h-33l-246 297h31l231 -277l232 277h31zM1241 1434v-33l-1069 -1374h1090v-27h-1121v33l1069 1374h-1036v27h1067z" />
    <glyph glyph-name="zcaron" unicode="&#x17e;" horiz-adv-x="1101" 
d="M811 1454l-246 -297h-33l-245 297h30l232 -276l231 276h31zM924 1024v-31l-785 -968h809v-25h-837v31l784 968h-739v25h768z" />
    <glyph glyph-name="florin" unicode="&#x192;" horiz-adv-x="806" 
d="M596 1454q63 0 119 -20l-8 -25q-55 21 -111 21q-131 0 -220 -91.5t-89 -238.5v-277h391v-24h-391v-867q0 -111 -49 -196q-61 -101 -177 -139v26q92 33 145.5 114t53.5 195v867h-199v24h199v277q0 160 96 256q94 98 240 98z" />
    <glyph glyph-name="Ohorn" unicode="&#x1a0;" horiz-adv-x="1904" 
d="M1835 1505h27v-55q0 -122 -77 -218.5t-196 -127.5q111 -178 111 -387q3 -147 -57.5 -284.5t-162 -238t-241 -159.5t-287.5 -55q-119 -3 -233 34t-207 106.5t-163.5 161.5t-108 205t-35.5 230q0 150 59 286.5t159.5 235.5t238.5 157t290 58q189 0 354 -89t269 -239
q113 26 186.5 117t73.5 207v55zM1313 1331q-120 74 -266.5 90.5t-281 -19t-252 -121.5t-183.5 -208q-97 -168 -97 -356q0 -191 96 -355.5t263 -261.5q166 -94 360 -94t360 94.5t263 259.5q59 95 82.5 208t9 224t-58 214t-120 188t-175.5 137z" />
    <glyph glyph-name="ohorn" unicode="&#x1a1;" horiz-adv-x="1413" 
d="M1346 1114h26v-53q0 -97 -48.5 -179t-131.5 -130q57 -111 57 -240q0 -221 -159 -377q-155 -155 -383 -155q-227 0 -385 155q-158 158 -158 377t158 377q158 155 385 155q150 0 275.5 -73t197.5 -197q76 45 121 121.5t45 165.5v53zM707 4q101 -3 197.5 38t166.5 110
t112 164t40 196q0 209 -152 358q-150 150 -364 150q-215 0 -365 -150q-152 -149 -152 -358q0 -208 152 -360q151 -148 365 -148z" />
    <glyph glyph-name="Uhorn" unicode="&#x1af;" horiz-adv-x="1765" 
d="M1749 1505h27v-55q0 -123 -80 -223q-79 -98 -199 -125v-479q0 -305 -168 -473q-167 -170 -438 -170t-438.5 171t-167.5 472v811h28v-811q0 -289 158 -455q158 -162 420 -162q263 0 418 162q159 163 159 455v811h29v-306q110 30 181 119t71 203v55z" />
    <glyph glyph-name="uhorn" unicode="&#x1b0;" horiz-adv-x="1355" 
d="M1352 1114h26v-53q0 -109 -63 -199.5t-164 -132.5v-729h-27v180q-232 -200 -530 -200q-180 0 -284.5 109t-104.5 304v631h26v-631q0 -184 97.5 -286.5t265.5 -102.5q149 0 286.5 54.5t243.5 154.5v811h27v-268q92 42 146.5 124t54.5 181v53z" />
    <glyph glyph-name="Acaron" unicode="&#x1cd;" horiz-adv-x="1599" 
d="M1061 1864l-246 -297h-33l-245 297h30l232 -277l231 277h31zM817 1434l678 -1434h-31l-209 442h-915l-209 -442h-31l680 1434h37zM799 1407l-445 -938h889z" />
    <glyph glyph-name="acaron" unicode="&#x1ce;" horiz-adv-x="1261" 
d="M893 1454l-246 -297h-33l-245 297h30l232 -276l231 276h31zM645 1044q194 0 304 -97.5t110 -284.5v-662h-27v135q-210 -155 -516 -155q-162 0 -268 92q-105 92 -105 243q0 148 109.5 225.5t308.5 77.5h471v44q0 177 -101.5 267.5t-285.5 90.5q-225 0 -412 -146l-16 21
q189 149 428 149zM1032 166v428h-471q-187 0 -289 -71.5t-102 -207.5q0 -139 96.5 -225t249.5 -86q309 0 516 162z" />
    <glyph glyph-name="Icaron" unicode="&#x1cf;" horiz-adv-x="602" 
d="M561 1864l-246 -297h-32l-246 297h31l231 -277l231 277h31zM313 1434v-1434h-28v1434h28z" />
    <glyph glyph-name="icaron" unicode="&#x1d0;" horiz-adv-x="518" 
d="M526 1454l-245 -297h-33l-246 297h31l231 -276l232 276h30zM276 1024v-1024h-26v1024h26z" />
    <glyph glyph-name="Ocaron" unicode="&#x1d1;" horiz-adv-x="1904" 
d="M1212 1864l-245 -297h-33l-246 297h31l231 -277l232 277h30zM1698 717q3 -147 -57.5 -284.5t-162 -238t-241 -159.5t-287.5 -55q-119 -3 -233 34t-207 106.5t-163.5 161.5t-108 205t-35.5 230q0 150 59 286.5t159.5 235.5t238.5 157t290 58q203 0 375 -98.5t272.5 -268
t100.5 -370.5zM1311 1331q-120 74 -266.5 90.5t-281 -19t-252 -121.5t-183.5 -208q-97 -168 -97 -356q0 -191 96 -355.5t263 -261.5q166 -94 360 -94t360 94.5t263 259.5q59 95 82.5 208t9 224t-58 214t-120 188t-175.5 137z" />
    <glyph glyph-name="ocaron" unicode="&#x1d2;" horiz-adv-x="1413" 
d="M967 1454l-246 -297h-33l-246 297h31l232 -276l231 276h31zM705 1044q144 3 270.5 -69.5t200.5 -196.5t71 -266q0 -220 -160 -377q-155 -155 -382 -155q-228 0 -386 155q-157 157 -157 377t157 377q158 155 386 155zM705 1020q-135 4 -256 -65.5t-192.5 -189
t-68.5 -253.5q0 -208 152 -360q151 -148 365 -148q101 -3 197.5 38t166.5 110t112 164t40 196q0 209 -152 358q-150 150 -364 150z" />
    <glyph glyph-name="Ucaron" unicode="&#x1d3;" horiz-adv-x="1765" 
d="M1143 1864l-246 -297h-33l-246 297h31l232 -277l231 277h31zM1468 1434h29v-811q0 -305 -168 -473q-167 -170 -438 -170t-438.5 171t-167.5 472v811h28v-811q0 -289 158 -455q158 -162 420 -162q263 0 418 162q159 163 159 455v811z" />
    <glyph glyph-name="ucaron" unicode="&#x1d4;" horiz-adv-x="1355" 
d="M938 1454l-246 -297h-33l-245 297h30l232 -276l231 276h31zM203 1024h26v-631q0 -184 97.5 -286.5t265.5 -102.5q149 0 286.5 54.5t243.5 154.5v811h27v-1024h-27v180q-232 -200 -530 -200q-180 0 -284.5 109t-104.5 304v631z" />
    <glyph glyph-name="Udieresismacron" unicode="&#x1d5;" horiz-adv-x="1765" 
d="M1143 2019v-24h-520v24h520zM647 1700q13 13 28.5 7.5t19 -19.5t-6.5 -27q-21 -21 -38 -1t-3 40zM1077 1700q13 13 28 7.5t18 -19.5t-7 -27q-14 -19 -34.5 -3t-9.5 36q2 3 5 6zM1470 1434h29v-811q0 -305 -168 -473q-167 -170 -438 -170q-270 0 -440 170
q-166 169 -166 473v811h28v-811q0 -289 158 -455q158 -162 420 -162q263 0 418 162q159 163 159 455v811z" />
    <glyph glyph-name="udieresismacron" unicode="&#x1d6;" horiz-adv-x="1355" 
d="M938 1561v-25h-520v25h520zM442 1290q13 13 28.5 7.5t19 -19.5t-6.5 -27q-21 -21 -38 -1t-3 40zM872 1290q13 13 28 7.5t18 -19.5t-7 -27q-14 -19 -34.5 -3t-9.5 36q2 3 5 6zM205 1024h26v-631q0 -184 97.5 -286.5t265.5 -102.5q149 0 286.5 54.5t243.5 154.5v811h27
v-1024h-27v180q-232 -200 -530 -200q-180 0 -284.5 109t-104.5 304v631z" />
    <glyph glyph-name="Udieresisacute" unicode="&#x1d7;" horiz-adv-x="1765" 
d="M1106 2161l-223 -297h-31l211 297h43zM647 1700q13 13 28.5 7.5t19 -19.5t-6.5 -27q-21 -21 -38 -1t-3 40zM1077 1700q13 13 28 7.5t18 -19.5t-7 -27q-14 -19 -34.5 -3t-9.5 36q2 3 5 6zM1470 1434h29v-811q0 -305 -168 -473q-167 -170 -438 -170q-270 0 -440 170
q-166 169 -166 473v811h28v-811q0 -289 158 -455q158 -162 420 -162q263 0 418 162q159 163 159 455v811z" />
    <glyph glyph-name="udieresisacute" unicode="&#x1d8;" horiz-adv-x="1355" 
d="M901 1751l-223 -297h-31l211 297h43zM442 1290q13 13 28.5 7.5t19 -19.5t-6.5 -27q-21 -21 -38 -1t-3 40zM872 1290q13 13 28 7.5t18 -19.5t-7 -27q-14 -19 -34.5 -3t-9.5 36q2 3 5 6zM205 1024h26v-631q0 -184 97.5 -286.5t265.5 -102.5q149 0 286.5 54.5t243.5 154.5
v811h27v-1024h-27v180q-232 -200 -530 -200q-180 0 -284.5 109t-104.5 304v631z" />
    <glyph glyph-name="Udieresiscaron" unicode="&#x1d9;" horiz-adv-x="1765" 
d="M1143 2161l-246 -297h-33l-246 297h31l232 -277l231 277h31zM645 1700q13 13 28.5 7.5t19 -19.5t-6.5 -27q-21 -21 -38 -1t-3 40zM1096 1653q-12 0 -20.5 8.5t-8.5 17.5q0 19 18.5 27t28.5 -6q12 -12 6 -29.5t-24 -17.5zM1468 1434h29v-811q0 -305 -168 -473
q-167 -170 -438 -170t-438.5 171t-167.5 472v811h28v-811q0 -289 158 -455q158 -162 420 -162q263 0 418 162q159 163 159 455v811z" />
    <glyph glyph-name="udieresiscaron" unicode="&#x1da;" horiz-adv-x="1355" 
d="M938 1751l-246 -297h-33l-245 297h30l232 -276l231 276h31zM440 1290q13 13 28.5 7.5t19 -19.5t-6.5 -27q-21 -21 -38 -1t-3 40zM870 1290q13 13 28 7.5t18 -19.5t-7 -27q-14 -19 -34.5 -3t-9.5 36q2 3 5 6zM203 1024h26v-631q0 -184 97.5 -286.5t265.5 -102.5
q149 0 286.5 54.5t243.5 154.5v811h27v-1024h-27v180q-232 -200 -530 -200q-180 0 -284.5 109t-104.5 304v631z" />
    <glyph glyph-name="Udieresisgrave" unicode="&#x1db;" horiz-adv-x="1765" 
d="M702 2161l211 -297h-30l-224 297h43zM647 1700q13 13 28.5 7.5t19 -19.5t-6.5 -27q-21 -21 -38 -1t-3 40zM1077 1700q13 13 28 7.5t18 -19.5t-7 -27q-14 -19 -34.5 -3t-9.5 36q2 3 5 6zM1470 1434h29v-811q0 -305 -168 -473q-167 -170 -438 -170q-270 0 -440 170
q-166 169 -166 473v811h28v-811q0 -289 158 -455q158 -162 420 -162q263 0 418 162q159 163 159 455v811z" />
    <glyph glyph-name="udieresisgrave" unicode="&#x1dc;" horiz-adv-x="1355" 
d="M498 1751l211 -297h-31l-223 297h43zM442 1290q13 13 28.5 7.5t19 -19.5t-6.5 -27q-21 -21 -38 -1t-3 40zM872 1290q13 13 28 7.5t18 -19.5t-7 -27q-14 -19 -34.5 -3t-9.5 36q2 3 5 6zM205 1024h26v-631q0 -184 97.5 -286.5t265.5 -102.5q149 0 286.5 54.5t243.5 154.5
v811h27v-1024h-27v180q-232 -200 -530 -200q-180 0 -284.5 109t-104.5 304v631z" />
    <glyph glyph-name="Adieresismacron" unicode="&#x1de;" horiz-adv-x="1599" 
d="M1061 1888v-24h-520v24h520zM565 1700q13 13 28.5 7.5t19 -19.5t-6.5 -27q-21 -21 -38 -1t-3 40zM995 1700q13 13 28 7.5t18 -19.5t-7 -27q-14 -19 -34.5 -3t-9.5 36q2 3 5 6zM819 1434l678 -1434h-31l-209 442h-915l-209 -442h-31l680 1434h37zM801 1407l-445 -938h889z
" />
    <glyph glyph-name="adieresismacron" unicode="&#x1df;" horiz-adv-x="1261" 
d="M395 1346q13 13 28.5 7.5t19 -19.5t-6.5 -27q-21 -21 -38 -1t-3 40zM825 1346q13 13 28 7.5t18 -19.5t-7 -27q-14 -19 -34.5 -3t-9.5 36q2 3 5 6zM645 1044q194 0 304 -97.5t110 -284.5v-662h-27v135q-210 -155 -516 -155q-162 0 -268 92q-105 92 -105 243
q0 148 109.5 225.5t308.5 77.5h471v44q0 177 -101.5 267.5t-285.5 90.5q-225 0 -412 -146l-16 21q189 149 428 149zM1032 166v428h-471q-187 0 -289 -71.5t-102 -207.5q0 -139 96.5 -225t249.5 -86q309 0 516 162zM891 1561v-25h-520v25h520z" />
    <glyph glyph-name="Gcaron" unicode="&#x1e6;" horiz-adv-x="1789" 
d="M1155 1864l-246 -297h-32l-246 297h31l231 -277l231 277h31zM950 1454q286 0 498 -188l-18 -21q-206 182 -480 182q-95 2 -188 -23.5t-172.5 -72t-147.5 -113t-115 -145t-72.5 -170.5t-23.5 -186q-4 -141 54 -273.5t156 -229t232.5 -154t276.5 -54.5q319 0 543 205v451
h-543v26h572v-487q-111 -105 -259.5 -163t-312.5 -58q-119 -3 -233 34t-207 106.5t-163.5 161.5t-108 205t-35.5 230q0 150 59 286.5t159.5 235.5t238.5 157t290 58z" />
    <glyph glyph-name="gcaron" unicode="&#x1e7;" horiz-adv-x="1406" 
d="M965 1454l-246 -297h-33l-246 297h31l231 -276l232 276h31zM694 1044q267 0 459 -174v154h27v-897q0 -261 -143 -404t-388 -143q-232 0 -422 146l17 18q183 -139 405 -139q236 0 370 134.5t134 387.5v117q-76 -113 -197.5 -178.5t-261.5 -65.5q-219 0 -377 152
q-155 152 -155 370q-3 138 69.5 260t196.5 193.5t266 68.5zM694 1020q-206 0 -358 -146q-148 -145 -148 -352t148 -352q151 -145 358 -145q145 0 268 72.5t191 195.5v543q-190 184 -459 184z" />
    <glyph glyph-name="Oslashacute" unicode="&#x1fe;" horiz-adv-x="1904" 
d="M1327 1536h31l-76 -158q190 -93 303 -270q115 -177 115 -391q3 -147 -57.5 -284.5t-162 -238t-241 -159.5t-287.5 -55q-164 0 -305 63l-69 -145h-31l74 157q-186 91 -302 269q-114 178 -114 393q-2 117 35.5 230t108 204.5t163.5 161t207 106.5t233 35q164 0 305 -63z
M233 717q0 -205 109 -379q112 -171 291 -258l612 1286q-137 61 -293 61q-95 2 -188 -23.5t-172.5 -72t-147.5 -113t-115 -145t-72.5 -170.5t-23.5 -186zM952 6q146 0 279 56.5t229.5 151.5t153.5 226.5t57 276.5q0 209 -110 377q-107 171 -289 260l-613 -1286
q139 -62 293 -62zM1176 1864l-224 -297h-30l211 297h43z" />
    <glyph glyph-name="oslashacute" unicode="&#x1ff;" horiz-adv-x="1413" 
d="M983 1126h33l-66 -137q136 -68 217.5 -196.5t81.5 -280.5q0 -221 -159 -377q-155 -155 -383 -155q-119 0 -218 45l-59 -127h-33l66 137q-136 68 -217.5 196.5t-81.5 280.5q0 219 158 377q158 155 385 155q118 0 217 -45zM190 512q0 -145 77.5 -267.5t207.5 -185.5
l438 918q-98 43 -206 43q-135 4 -256 -65.5t-192.5 -189t-68.5 -253.5zM707 4q213 0 364 148q152 152 152 360q0 145 -77.5 267.5t-207.5 185.5l-438 -918q98 -43 207 -43zM930 1454l-223 -297h-31l211 297h43z" />
    <glyph glyph-name="Scommaaccent" unicode="&#x218;" horiz-adv-x="1437" 
d="M696 1454q140 0 283.5 -39t247.5 -106l-17 -23q-103 66 -239 103.5t-275 37.5q-96 -2 -177.5 -22t-146.5 -59.5t-102 -106t-37 -152.5q0 -113 91 -182q90 -65 342 -133l106 -29q89 -22 90 -22l82 -25l78 -24q25 -8 63.5 -26.5t57.5 -31.5q68 -49 84 -82q49 -89 49 -190
q0 -118 -78 -202t-196.5 -122t-260.5 -38q-163 0 -324.5 45t-273.5 122l17 21q109 -74 266.5 -118t314.5 -44q139 0 250.5 35t183.5 113t72 188q-1 94 -31.5 152.5t-93.5 99.5q-37 29 -116 53q-27 12 -74 25l-78 22q-36 12 -92 25l-105 26q-265 72 -358 144q-94 73 -94 198
q0 93 40 165t109.5 114.5t155.5 64t186 23.5zM793 -201q0 -7 -7 -18l-122 -201l-19 8l105 183q-19 9 -19 28t15.5 27t31 0t15.5 -27z" />
    <glyph glyph-name="scommaaccent" unicode="&#x219;" horiz-adv-x="1093" 
d="M516 1044q104 0 206.5 -27.5t176.5 -76.5l-14 -20q-153 100 -369 100q-147 0 -237.5 -62.5t-90.5 -177.5q0 -80 64 -129q68 -49 244 -94l77 -22l74 -19l64 -18q20 -6 36 -11.5t23.5 -8.5t24 -11t24.5 -12q12 -5 21 -10t17 -12t12 -11t13 -14.5t13 -14.5q45 -45 45 -151
q0 -131 -115 -199q-117 -66 -276 -63q-118 0 -236.5 32.5t-199.5 87.5l14 21q84 -54 196.5 -85.5t225.5 -31.5q164 0 264 61.5t100 176.5q0 48 -16 98q-22 38 -40.5 58t-53.5 36q-10 4 -24 11l-21 10.5t-21.5 8.5t-34.5 11l-63 19l-74 18l-76 20q-193 53 -260 103
q-67 52 -67 145q0 127 97.5 195.5t256.5 68.5zM621 -201q0 -7 -7 -18l-122 -201l-19 8l105 183q-19 9 -19 28t15.5 27t31 0t15.5 -27z" />
    <glyph glyph-name="uni021A" unicode="&#x21a;" horiz-adv-x="1312" 
d="M731 -201q0 -9 -6 -18l-123 -201l-18 8l104 183q-18 9 -18 28t15 27t30.5 0t15.5 -27zM1212 1434v-27h-540v-1407h-29v1407h-541v27h1110z" />
    <glyph glyph-name="uni021B" unicode="&#x21b;" horiz-adv-x="919" 
d="M305 1348v-324h373v-25h-373v-665q0 -147 87.5 -238.5t219.5 -91.5q83 0 154 39l12 -23q-79 -40 -166 -40q-143 0 -239 96q-94 98 -94 258v665h-218v25h218v324h26zM535 -201q0 -7 -7 -18l-122 -201l-19 8l105 183q-19 9 -19 28t15.5 27t31 0t15.5 -27z" />
    <glyph glyph-name="uni0228" unicode="&#x228;" horiz-adv-x="1458" 
d="M1292 1434v-27h-977v-670h899v-26h-899v-684h1002v-27h-565l-54 -109q48 25 101 25q74 0 124 -45.5t50 -116.5q0 -75 -58.5 -124.5t-146.5 -49.5q-109 0 -188 43l12 23q74 -39 176 -39q75 0 125.5 42t50.5 105q0 59 -41.5 97t-103.5 38q-81 0 -129 -51l-21 19l70 143
h-432v1434h1005z" />
    <glyph glyph-name="uni0229" unicode="&#x229;" 
d="M680 1044q239 0 377 -153q139 -151 139 -379v-25h-1006q9 -200 156 -344q145 -139 344 -139q239 0 410 168l18 -16q-179 -176 -428 -176q-33 0 -47 2l-45 -91q48 25 100 25q74 0 124 -45.5t50 -116.5q0 -75 -58 -124.5t-146 -49.5q-110 0 -189 43l13 23q71 -39 176 -39
q75 0 125.5 42t50.5 105q0 59 -42 97t-104 38q-81 0 -129 -51l-20 19l63 129q-191 27 -321 178q-127 151 -127 348q0 220 151 377q149 155 365 155zM680 1020q-96 3 -188 -38t-159 -110t-106.5 -164.5t-36.5 -195.5h979q0 217 -133 362q-134 146 -356 146z" />
    <glyph glyph-name="uni022A" unicode="&#x22a;" horiz-adv-x="1904" 
d="M1212 1960v-25h-520v25h520zM717 1700q13 13 28.5 7.5t19 -19.5t-6.5 -27q-21 -21 -38 -1t-3 40zM1167 1653q-11 0 -19.5 8.5t-8.5 17.5q0 19 18.5 27t28.5 -6q12 -12 5.5 -29.5t-24.5 -17.5zM1700 717q3 -147 -57.5 -284.5t-162 -238t-241 -159.5t-287.5 -55
q-119 -3 -233 34t-207 106.5t-163.5 161.5t-108 205t-35.5 230q0 150 59 286.5t159.5 235.5t238.5 157t290 58q203 0 375 -98.5t272.5 -268t100.5 -370.5zM1313 1331q-120 74 -266.5 90.5t-281 -19t-252 -121.5t-183.5 -208q-97 -168 -97 -356q0 -191 96 -355.5t263 -261.5
q166 -94 360 -94t360 94.5t263 259.5q59 95 82.5 208t9 224t-58 214t-120 188t-175.5 137z" />
    <glyph glyph-name="uni022B" unicode="&#x22b;" horiz-adv-x="1413" 
d="M967 1561v-25h-521v25h521zM471 1290q13 13 28.5 7.5t19 -19.5t-6.5 -27q-21 -21 -38 -1t-3 40zM901 1290q13 13 28 7.5t18 -19.5t-7 -27q-14 -19 -34.5 -3t-9.5 36q2 3 5 6zM322 889q158 155 385 155q228 0 383 -155q159 -156 159 -377t-159 -377q-155 -155 -383 -155
q-227 0 -385 155q-158 158 -158 377t158 377zM1071 870q-150 150 -364 150q-215 0 -365 -150q-152 -149 -152 -358q0 -208 152 -360q151 -148 365 -148q213 0 364 148q152 152 152 360q0 209 -152 358z" />
    <glyph glyph-name="circumflex" unicode="&#x2c6;" horiz-adv-x="647" 
d="M342 1454l246 -297h-31l-233 277l-232 -277h-31l246 297h35z" />
    <glyph glyph-name="caron" unicode="&#x2c7;" horiz-adv-x="647" 
d="M586 1454l-246 -297h-35l-246 297h31l232 -276l233 276h31z" />
    <glyph glyph-name="breve" unicode="&#x2d8;" horiz-adv-x="808" 
d="M678 1442l29 -2q-7 -121 -90 -190.5t-214 -69.5q-130 0 -212 69.5t-89 190.5l29 2q7 -110 81.5 -173t193.5 -63q117 0 192.5 63t79.5 173z" />
    <glyph glyph-name="dotaccent" unicode="&#x2d9;" horiz-adv-x="260" 
d="M102 1325q0 18 14 26t28 0t14 -26q0 -17 -14 -23.5t-28 0t-14 23.5z" />
    <glyph glyph-name="ring" unicode="&#x2da;" horiz-adv-x="645" 
d="M166 1473q63 63 156 63q92 0 155 -63q66 -63 66 -152t-66 -152q-63 -63 -155 -63q-93 0 -156 63t-63 152t63 152zM457 1454q-55 56 -134.5 56t-136.5 -56q-56 -56 -56 -133t56 -133q57 -56 136.5 -56t134.5 56q57 56 57 133t-57 133z" />
    <glyph glyph-name="ogonek" unicode="&#x2db;" horiz-adv-x="567" 
d="M229 8h37l-69 -86q-66 -84 -66 -162q0 -67 49 -110t123 -43q83 0 143 57l19 -20q-70 -64 -162 -64q-86 0 -143.5 50.5t-57.5 129.5q0 82 72 179z" />
    <glyph glyph-name="tilde" unicode="&#x2dc;" horiz-adv-x="874" 
d="M279 1432q41 -6 69 -21t76 -55q51 -40 79 -55t64 -21q63 -8 110 30t66 113l27 -6q-18 -82 -76.5 -127.5t-128.5 -36.5q-42 6 -74.5 23t-84.5 59q-42 31 -54.5 40t-32 17.5t-43.5 12.5q-56 6 -95.5 -31.5t-51.5 -111.5l-29 4q13 85 62.5 129.5t116.5 36.5z" />
    <glyph glyph-name="hungarumlaut" unicode="&#x2dd;" horiz-adv-x="778" 
d="M356 1454l-223 -297h-31l211 297h43zM676 1454l-223 -297h-29l211 297h41z" />
    <glyph glyph-name="dotbelowcomb" unicode="&#x323;" horiz-adv-x="0" 
d="M111 -373q18 18 37 0q19 -16 8 -33q-2 -3 -6 -6q-12 -12 -27.5 -7t-19 18.5t7.5 27.5z" />
    <glyph glyph-name="uni0326" unicode="&#x326;" horiz-adv-x="0" 
d="M209 -201q0 -9 -6 -18l-123 -201l-19 8l105 183q-19 9 -19 28t15.5 27t31 0t15.5 -27z" />
    <glyph glyph-name="uni032D" unicode="&#x32d;" horiz-adv-x="0" 
d="M342 -123l246 -297h-31l-233 277l-232 -277h-31l246 297h35z" />
    <glyph glyph-name="uni0331" unicode="&#x331;" horiz-adv-x="0" 
d="M623 -297v-25h-521v25h521z" />
    <glyph glyph-name="increment" unicode="&#x394;" horiz-adv-x="1228" 
 />
    <glyph glyph-name="Omega" unicode="&#x3a9;" horiz-adv-x="1228" 
 />
    <glyph glyph-name="mu" unicode="&#x3bc;" horiz-adv-x="1228" 
 />
    <glyph glyph-name="pi" unicode="&#x3c0;" horiz-adv-x="1228" 
 />
    <glyph glyph-name="Bdotbelow" unicode="&#x1e04;" horiz-adv-x="1581" 
d="M287 0v1434h592q224 0 346.5 -91t122.5 -262q0 -129 -74.5 -213.5t-212.5 -117.5q185 -25 277 -125t92 -246q0 -75 -25.5 -140t-80.5 -120t-153.5 -87t-232.5 -32h-651zM315 1407v-649h564q212 0 326 83t114 240q0 161 -113 243.5t-327 82.5h-564zM315 731v-704h623
q127 0 220 29.5t144.5 80.5t75 111t23.5 131t-23.5 131t-75 111t-144.5 80.5t-220 29.5h-623zM737 -373q18 18 38 0q19 -16 9 -33q-2 -3 -6 -6q-13 -13 -29 -8t-19.5 19t7.5 28z" />
    <glyph glyph-name="bdotbelow" unicode="&#x1e05;" horiz-adv-x="1368" 
d="M225 1434h27v-572q79 87 184.5 134.5t225.5 47.5q144 3 270.5 -69.5t200.5 -196.5t71 -266q0 -220 -160 -377q-155 -155 -382 -155q-121 0 -228 48t-182 136v-164h-27v1434zM662 1020q-122 0 -229.5 -53t-180.5 -146v-616q73 -94 180.5 -147.5t229.5 -53.5q213 0 364 148
q152 152 152 360q0 209 -152 358q-150 150 -364 150zM649 -373q19 19 38 1q18 -16 7 -34l-6 -6q-14 -20 -32 -4q-20 16 -10 38q1 2 3 5z" />
    <glyph glyph-name="Ddotbelow" unicode="&#x1e0c;" horiz-adv-x="1755" 
d="M287 0v1434h516q150 3 289 -53t241 -152.5t162 -231.5t57 -282q3 -146 -57 -280t-162 -230t-241 -152t-289 -53h-516zM803 1407h-488v-1380h488q143 -3 277 51t232 147t156 222t56 270q2 141 -56 270t-156 222t-232 147t-277 51zM778 -373q18 18 38 0q19 -16 9 -33
q-2 -3 -6 -6q-20 -20 -38 -1t-3 40z" />
    <glyph glyph-name="ddotbelow" unicode="&#x1e0d;" horiz-adv-x="1368" 
d="M1116 1434h27v-1434h-27v164q-76 -87 -182.5 -135.5t-226.5 -48.5q-227 0 -385 155q-158 158 -158 377t158 377q158 155 385 155q244 0 409 -182v572zM707 1020q-138 0 -257.5 -68t-189.5 -185t-70 -255q0 -208 152 -360q151 -148 365 -148q122 0 229 53t180 148v616
q-70 92 -178 145.5t-231 53.5zM672 -373q18 18 37 0q19 -16 8 -33q-2 -3 -6 -6q-12 -12 -27.5 -7t-19 18.5t7.5 27.5z" />
    <glyph glyph-name="Dlinebelow" unicode="&#x1e0e;" horiz-adv-x="1755" 
d="M287 0v1434h516q150 3 289 -53t241 -152.5t162 -231.5t57 -282q3 -146 -57 -280t-162 -230t-241 -152t-289 -53h-516zM803 1407h-488v-1380h488q143 -3 277 51t232 147t156 222t56 270q2 141 -56 270t-156 222t-232 147t-277 51zM1059 -297v-25h-520v25h520z" />
    <glyph glyph-name="dlinebelow" unicode="&#x1e0f;" horiz-adv-x="1368" 
d="M1116 1434h27v-1434h-27v164q-76 -87 -182.5 -135.5t-226.5 -48.5q-227 0 -385 155q-158 158 -158 377t158 377q158 155 385 155q244 0 409 -182v572zM707 1020q-138 0 -257.5 -68t-189.5 -185t-70 -255q0 -208 152 -360q151 -148 365 -148q122 0 229 53t180 148v616
q-70 92 -178 145.5t-231 53.5zM950 -297v-25h-518v25h518z" />
    <glyph glyph-name="Dcircumflexbelow" unicode="&#x1e12;" horiz-adv-x="1755" 
d="M287 0v1434h516q150 3 289 -53t241 -152.5t162 -231.5t57 -282q3 -146 -57 -280t-162 -230t-241 -152t-289 -53h-516zM803 1407h-488v-1380h488q143 -3 277 51t232 147t156 222t56 270q2 141 -56 270t-156 222t-232 147t-277 51zM817 -123l244 -297h-29l-233 277
l-232 -277h-30l245 297h35z" />
    <glyph glyph-name="dcircumflexbelow" unicode="&#x1e13;" horiz-adv-x="1368" 
d="M1116 1434h27v-1434h-27v164q-76 -87 -182.5 -135.5t-226.5 -48.5q-227 0 -385 155q-158 158 -158 377t158 377q158 155 385 155q244 0 409 -182v572zM707 1020q-138 0 -257.5 -68t-189.5 -185t-70 -255q0 -208 152 -360q151 -148 365 -148q122 0 229 53t180 148v616
q-70 92 -178 145.5t-231 53.5zM709 -123l245 -297h-30l-234 277l-231 -277h-31l246 297h35z" />
    <glyph glyph-name="Hdotbelow" unicode="&#x1e24;" horiz-adv-x="1765" 
d="M1481 1434v-1434h-29v711h-1137v-711h-28v1434h28v-697h1137v697h29zM862 -373q18 18 38 0q19 -16 9 -33q-2 -3 -6 -6q-20 -20 -38 -1t-3 40z" />
    <glyph glyph-name="hdotbelow" unicode="&#x1e25;" horiz-adv-x="1386" 
d="M236 1434h26v-590q232 200 531 200q180 0 284.5 -109t104.5 -304v-631h-27v631q0 184 -97 286.5t-265 102.5q-149 0 -287 -54.5t-244 -154.5v-811h-26v1434zM674 -373q19 19 38 1q18 -16 7 -34l-6 -6q-13 -17 -33 -5q-22 13 -13 34z" />
    <glyph glyph-name="Idieresisacute" unicode="&#x1e2e;" horiz-adv-x="602" 
d="M522 2161l-223 -297h-31l211 297h43zM63 1700q13 13 28.5 7.5t19 -19.5t-6.5 -27q-21 -21 -38 -1t-3 40zM494 1700q13 13 27.5 7.5t17.5 -19.5t-7 -27q-14 -19 -34 -3t-9 36q2 3 5 6zM313 1434v-1434h-28v1434h28z" />
    <glyph glyph-name="idieresisacute" unicode="&#x1e2f;" horiz-adv-x="518" 
d="M487 1751l-223 -297h-31l211 297h43zM29 1290q13 13 28.5 7.5t19 -19.5t-6.5 -27q-21 -21 -38 -1t-3 40zM459 1290q13 13 28 7.5t18 -19.5t-7 -27q-14 -19 -34.5 -3t-9.5 36q2 3 5 6zM276 1024v-1024h-26v1024h26z" />
    <glyph glyph-name="Ldotbelow" unicode="&#x1e36;" horiz-adv-x="1288" 
d="M315 1434v-1407h873v-27h-901v1434h28zM625 -373q19 19 38 1q18 -16 7 -34l-6 -6q-14 -20 -32 -4q-20 16 -10 38q1 2 3 5z" />
    <glyph glyph-name="ldotbelow" unicode="&#x1e37;" horiz-adv-x="466" 
d="M262 1434v-1434h-26v1434h26zM229 -373q18 18 38 0q19 -16 9 -33q-2 -3 -6 -6q-13 -13 -29 -8t-19.5 19t7.5 28z" />
    <glyph glyph-name="Lcircumflexbelow" unicode="&#x1e3c;" horiz-adv-x="1288" 
d="M315 1434v-1407h873v-27h-901v1434h28zM662 -123l245 -297h-30l-232 277l-231 -277h-31l246 297h33z" />
    <glyph glyph-name="lcircumflexbelow" unicode="&#x1e3d;" horiz-adv-x="466" 
d="M262 1434v-1434h-26v1434h26zM266 -123l246 -297h-31l-231 277l-232 -277h-30l245 297h33z" />
    <glyph glyph-name="Macute" unicode="&#x1e3e;" horiz-adv-x="2177" 
d="M1890 1434v-1434h-28v1407l-762 -1282h-33l-762 1282v-1407h-29v1434h46l761 -1282l762 1282h45zM1309 1864l-224 -297h-30l211 297h43z" />
    <glyph glyph-name="macute" unicode="&#x1e3f;" horiz-adv-x="2152" 
d="M721 1044q117 0 203.5 -51t130.5 -147q223 198 514 198q174 0 275.5 -109t101.5 -304v-631h-27v631q0 187 -95 288t-255 101q-287 0 -504 -199q33 -79 33 -190v-631h-27v631q0 187 -95 288t-255 101q-133 0 -238 -45q-109 -48 -233 -158v-817h-27v1024h27v-172
q124 104 232 148t239 44zM1298 1454l-223 -297h-31l211 297h43z" />
    <glyph glyph-name="Ndotaccent" unicode="&#x1e44;" horiz-adv-x="1724" 
d="M842 1755q13 13 28 7.5t18 -19.5t-7 -27q-13 -20 -32 -4q-20 17 -10 38zM1460 1434v-1434h-45l-1120 1407v-1407h-29v1434h45l1121 -1407v1407h28z" />
    <glyph glyph-name="ndotaccent" unicode="&#x1e45;" horiz-adv-x="1376" 
d="M668 1346q13 13 28.5 7.5t19 -19.5t-6.5 -27q-13 -13 -28.5 -7.5t-19 19.5t6.5 27zM782 1044q180 0 284.5 -109t104.5 -304v-631h-26v631q0 184 -97.5 286.5t-265.5 102.5q-147 0 -284 -54.5t-246 -154.5v-811h-27v1024h27v-180q232 200 530 200z" />
    <glyph glyph-name="Ndotbelow" unicode="&#x1e46;" horiz-adv-x="1724" 
d="M1460 1434v-1434h-45l-1120 1407v-1407h-29v1434h45l1121 -1407v1407h28zM842 -373q19 19 38 1q18 -16 7 -34l-6 -6q-14 -20 -32 -4q-20 16 -10 38q1 2 3 5z" />
    <glyph glyph-name="ndotbelow" unicode="&#x1e47;" horiz-adv-x="1376" 
d="M782 1044q180 0 284.5 -109t104.5 -304v-631h-26v631q0 184 -97.5 286.5t-265.5 102.5q-147 0 -284 -54.5t-246 -154.5v-811h-27v1024h27v-180q232 200 530 200zM668 -373q18 18 38 0q19 -16 9 -33q-2 -3 -6 -6q-13 -13 -29 -8t-19.5 19t7.5 28z" />
    <glyph glyph-name="Ncircumflexbelow" unicode="&#x1e4a;" horiz-adv-x="1724" 
d="M1460 1434v-1434h-45l-1120 1407v-1407h-29v1434h45l1121 -1407v1407h28zM879 -123l245 -297h-30l-232 277l-231 -277h-31l246 297h33z" />
    <glyph glyph-name="ncircumflexbelow" unicode="&#x1e4b;" horiz-adv-x="1376" 
d="M782 1044q180 0 284.5 -109t104.5 -304v-631h-26v631q0 184 -97.5 286.5t-265.5 102.5q-147 0 -284 -54.5t-246 -154.5v-811h-27v1024h27v-180q232 200 530 200zM705 -123l245 -297h-30l-232 277l-231 -277h-31l246 297h33z" />
    <glyph glyph-name="Otildeacute" unicode="&#x1e4c;" horiz-adv-x="1904" 
d="M1176 2150l-224 -297h-30l211 297h43zM797 1759q36 -4 66.5 -21t76.5 -55q51 -39 78.5 -54t66.5 -19q62 -9 109 28.5t66 114.5l28 -6q-20 -84 -77.5 -129.5t-129.5 -34.5q-40 4 -71.5 21t-85.5 59q-51 39 -75 52.5t-56 17.5q-55 8 -95 -29.5t-53 -114.5l-29 6
q17 86 65 129t116 35zM952 1454q203 0 375 -98.5t272.5 -268t100.5 -370.5q0 -200 -100 -370t-273 -269q-171 -98 -375 -98q-203 0 -374 98q-173 99 -273 269t-100 370q-2 117 35.5 230t108 204.5t163.5 161t207 106.5t233 35zM1313 1331q-120 74 -266.5 90.5t-281 -19
t-252 -121.5t-183.5 -208q-97 -168 -97 -356q0 -191 96 -355.5t263 -261.5q166 -94 360 -94t360 94.5t263 259.5q59 95 82.5 208t9 224t-58 214t-120 188t-175.5 137z" />
    <glyph glyph-name="otildeacute" unicode="&#x1e4d;" horiz-adv-x="1413" 
d="M930 1731l-223 -297h-31l211 297h43zM551 1368q39 -6 66 -20.5t77 -55.5q50 -39 80 -54t66 -19q63 -8 109.5 29t64.5 114l28 -6q-22 -84 -78.5 -128.5t-127.5 -35.5q-40 4 -72 21t-86 59q-50 39 -74.5 52t-56.5 17q-55 8 -95 -29.5t-53 -113.5l-28 6q17 86 64.5 129
t115.5 35zM707 1044q144 3 270.5 -69.5t200.5 -196.5t71 -266q0 -221 -159 -377q-155 -155 -383 -155q-227 0 -385 155q-158 158 -158 377t158 377q158 155 385 155zM707 1020q-135 4 -256 -65.5t-192.5 -189t-68.5 -253.5q0 -208 152 -360q151 -148 365 -148
q101 -3 197.5 38t166.5 110t112 164t40 196q0 209 -152 358q-150 150 -364 150z" />
    <glyph glyph-name="Omacrongrave" unicode="&#x1e50;" horiz-adv-x="1904" 
d="M1700 717q3 -147 -57.5 -284.5t-162 -238t-241 -159.5t-287.5 -55q-119 -3 -233 34t-207 106.5t-163.5 161.5t-108 205t-35.5 230q0 150 59 286.5t159.5 235.5t238.5 157t290 58q203 0 375 -98.5t272.5 -268t100.5 -370.5zM1313 1331q-120 74 -266.5 90.5t-281 -19
t-252 -121.5t-183.5 -208q-97 -168 -97 -356q0 -191 96 -355.5t263 -261.5q166 -94 360 -94t360 94.5t263 259.5q59 95 82.5 208t9 224t-58 214t-120 188t-175.5 137zM772 2161l211 -297h-31l-223 297h43zM1212 1677v-24h-520v24h520z" />
    <glyph glyph-name="omacrongrave" unicode="&#x1e51;" horiz-adv-x="1413" 
d="M526 1731l211 -297h-30l-224 297h43zM967 1268v-25h-521v25h521zM707 1044q144 3 270.5 -69.5t200.5 -196.5t71 -266q0 -221 -159 -377q-155 -155 -383 -155q-227 0 -385 155q-158 158 -158 377t158 377q158 155 385 155zM707 1020q-135 4 -256 -65.5t-192.5 -189
t-68.5 -253.5q0 -208 152 -360q151 -148 365 -148q101 -3 197.5 38t166.5 110t112 164t40 196q0 209 -152 358q-150 150 -364 150z" />
    <glyph glyph-name="Omacronacute" unicode="&#x1e52;" horiz-adv-x="1904" 
d="M1700 717q3 -147 -57.5 -284.5t-162 -238t-241 -159.5t-287.5 -55q-119 -3 -233 34t-207 106.5t-163.5 161.5t-108 205t-35.5 230q0 150 59 286.5t159.5 235.5t238.5 157t290 58q203 0 375 -98.5t272.5 -268t100.5 -370.5zM1313 1331q-120 74 -266.5 90.5t-281 -19
t-252 -121.5t-183.5 -208q-97 -168 -97 -356q0 -191 96 -355.5t263 -261.5q166 -94 360 -94t360 94.5t263 259.5q59 95 82.5 208t9 224t-58 214t-120 188t-175.5 137zM1176 2161l-224 -297h-30l211 297h43zM1212 1677v-24h-520v24h520z" />
    <glyph glyph-name="omacronacute" unicode="&#x1e53;" horiz-adv-x="1413" 
d="M322 889q158 155 385 155q228 0 383 -155q159 -156 159 -377t-159 -377q-155 -155 -383 -155q-227 0 -385 155q-158 158 -158 377t158 377zM1071 870q-150 150 -364 150q-215 0 -365 -150q-152 -149 -152 -358q0 -208 152 -360q151 -148 365 -148q213 0 364 148
q152 152 152 360q0 209 -152 358zM930 1731l-223 -297h-31l211 297h43zM967 1268v-25h-521v25h521z" />
    <glyph glyph-name="Sdotbelow" unicode="&#x1e62;" horiz-adv-x="1437" 
d="M696 1454q140 0 283.5 -39t247.5 -106l-17 -23q-103 66 -239 103.5t-275 37.5q-96 -2 -177.5 -22t-146.5 -59.5t-102 -106t-37 -152.5q0 -113 91 -182q90 -65 342 -133l106 -29q89 -22 90 -22l82 -25l78 -24q25 -8 63.5 -26.5t57.5 -31.5q68 -49 84 -82q49 -89 49 -190
q0 -118 -78 -202t-196.5 -122t-260.5 -38q-163 0 -324.5 45t-273.5 122l17 21q109 -74 266.5 -118t314.5 -44q139 0 250.5 35t183.5 113t72 188q-1 94 -31.5 152.5t-93.5 99.5q-37 29 -116 53q-27 12 -74 25l-78 22q-36 12 -92 25l-105 26q-265 72 -358 144q-94 73 -94 198
q0 93 40 165t109.5 114.5t155.5 64t186 23.5zM698 -373q18 18 38 0q19 -16 9 -33q-2 -3 -6 -6q-20 -20 -38 -1t-3 40z" />
    <glyph glyph-name="sdotbelow" unicode="&#x1e63;" horiz-adv-x="1093" 
d="M516 1044q104 0 206.5 -27.5t176.5 -76.5l-14 -20q-153 100 -369 100q-147 0 -237.5 -62.5t-90.5 -177.5q0 -80 64 -129q68 -49 244 -94l77 -22l74 -19l64 -18q20 -6 36 -11.5t23.5 -8.5t24 -11t24.5 -12q12 -5 21 -10t17 -12t12 -11t13 -14.5t13 -14.5q45 -45 45 -151
q0 -131 -115 -199q-117 -66 -276 -63q-118 0 -236.5 32.5t-199.5 87.5l14 21q84 -54 196.5 -85.5t225.5 -31.5q164 0 264 61.5t100 176.5q0 48 -16 98q-22 38 -40.5 58t-53.5 36q-10 4 -24 11l-21 10.5t-21.5 8.5t-34.5 11l-63 19l-74 18l-76 20q-193 53 -260 103
q-67 52 -67 145q0 127 97.5 195.5t256.5 68.5zM526 -373q19 19 38 1q18 -16 7 -34l-6 -6q-14 -20 -32 -4q-20 16 -10 38q1 2 3 5z" />
    <glyph glyph-name="Tdotbelow" unicode="&#x1e6c;" horiz-adv-x="1312" 
d="M1212 1434v-27h-540v-1407h-29v1407h-541v27h1110zM637 -373q19 19 38 1q18 -16 7 -34l-6 -6q-14 -20 -32 -4q-20 16 -10 38q1 2 3 5z" />
    <glyph glyph-name="tdotbelow" unicode="&#x1e6d;" horiz-adv-x="919" 
d="M305 1348v-324h373v-25h-373v-665q0 -147 87.5 -238.5t219.5 -91.5q83 0 154 39l12 -23q-79 -40 -166 -40q-143 0 -239 96q-94 98 -94 258v665h-218v25h218v324h26zM440 -373q19 19 38 1q18 -16 7 -34l-6 -6q-13 -17 -33 -5q-22 13 -13 34z" />
    <glyph glyph-name="Tlinebelow" unicode="&#x1e6e;" horiz-adv-x="1312" 
d="M1212 1434v-27h-540v-1407h-29v1407h-541v27h1110zM918 -297v-25h-521v25h521z" />
    <glyph glyph-name="tlinebelow" unicode="&#x1e6f;" horiz-adv-x="919" 
d="M305 1348v-324h373v-25h-373v-665q0 -147 87.5 -238.5t219.5 -91.5q83 0 154 39l12 -23q-79 -40 -166 -40q-143 0 -239 96q-94 98 -94 258v665h-218v25h218v324h26zM721 -297v-25h-520v25h520z" />
    <glyph glyph-name="Tcircumflexbelow" unicode="&#x1e70;" horiz-adv-x="1312" 
d="M1212 1434v-27h-540v-1407h-29v1407h-541v27h1110zM674 -123l246 -297h-31l-232 277l-231 -277h-31l246 297h33z" />
    <glyph glyph-name="tcircumflexbelow" unicode="&#x1e71;" horiz-adv-x="919" 
d="M305 1348v-324h373v-25h-373v-665q0 -147 87.5 -238.5t219.5 -91.5q83 0 154 39l12 -23q-79 -40 -166 -40q-143 0 -239 96q-94 98 -94 258v665h-218v25h218v324h26zM477 -123l246 -297h-31l-231 277l-232 -277h-30l245 297h33z" />
    <glyph glyph-name="Wgrave" unicode="&#x1e80;" horiz-adv-x="2234" 
d="M2130 1434l-502 -1434h-41l-471 1409l-471 -1409h-43l-502 1434h31l492 -1407l471 1407h43l471 -1407l491 1407h31zM936 1864l211 -297h-31l-223 297h43z" />
    <glyph glyph-name="wgrave" unicode="&#x1e81;" horiz-adv-x="1667" 
d="M1608 1024l-389 -1024h-37l-348 999l-347 -999h-36l-390 1024h29l379 -997l346 997h39l346 -997l379 997h29zM653 1454l211 -297h-30l-224 297h43z" />
    <glyph glyph-name="Wacute" unicode="&#x1e82;" horiz-adv-x="2234" 
d="M2130 1434l-502 -1434h-41l-471 1409l-471 -1409h-43l-502 1434h31l492 -1407l471 1407h43l471 -1407l491 1407h31zM1339 1864l-223 -297h-31l211 297h43z" />
    <glyph glyph-name="wacute" unicode="&#x1e83;" horiz-adv-x="1667" 
d="M1608 1024l-389 -1024h-37l-348 999l-347 -999h-36l-390 1024h29l379 -997l346 997h39l346 -997l379 997h29zM1057 1454l-223 -297h-31l211 297h43z" />
    <glyph glyph-name="Wdieresis" unicode="&#x1e84;" horiz-adv-x="2234" 
d="M881 1755q13 13 28.5 7.5t19 -19.5t-6.5 -27q-21 -21 -38 -1t-3 40zM1331 1708q-12 0 -20 8.5t-8 20.5q0 15 18.5 23t28.5 -5q12 -12 5.5 -29.5t-24.5 -17.5zM2130 1434l-502 -1434h-41l-471 1409l-471 -1409h-43l-502 1434h31l492 -1407l471 1407h43l471 -1407l491 1407
h31z" />
    <glyph glyph-name="wdieresis" unicode="&#x1e85;" horiz-adv-x="1667" 
d="M598 1346q13 13 28.5 7.5t19 -19.5t-6.5 -27q-21 -21 -38 -1t-3 40zM1028 1346q13 13 28 7.5t18 -19.5t-7 -27q-14 -19 -34.5 -3t-9.5 36q2 3 5 6zM1608 1024l-389 -1024h-37l-348 999l-347 -999h-36l-390 1024h29l379 -997l346 997h39l346 -997l379 997h29z" />
    <glyph glyph-name="Zdotbelow" unicode="&#x1e92;" horiz-adv-x="1406" 
d="M1243 1434v-33l-1069 -1374h1090v-27h-1121v33l1069 1374h-1036v27h1067zM688 -373q18 18 37 0q19 -16 8 -33q-2 -3 -6 -6q-12 -12 -27.5 -7t-19 18.5t7.5 27.5z" />
    <glyph glyph-name="zdotbelow" unicode="&#x1e93;" horiz-adv-x="1101" 
d="M926 1024v-31l-785 -968h809v-25h-837v31l784 968h-739v25h768zM532 -373q18 18 37 0q19 -16 8 -33q-2 -3 -6 -6q-12 -12 -27.5 -7t-19 18.5t7.5 27.5z" />
    <glyph glyph-name="Adotbelow" unicode="&#x1ea0;" horiz-adv-x="1599" 
d="M819 1434l678 -1434h-31l-209 442h-915l-209 -442h-31l680 1434h37zM801 1407l-445 -938h889zM778 -373q19 19 38 1q18 -16 7 -34l-6 -6q-13 -17 -33 -5q-22 13 -13 34z" />
    <glyph glyph-name="adotbelow" unicode="&#x1ea1;" horiz-adv-x="1261" 
d="M645 1044q194 0 304 -97.5t110 -284.5v-662h-27v135q-210 -155 -516 -155q-162 0 -268 92q-105 92 -105 243q0 148 109.5 225.5t308.5 77.5h471v44q0 177 -101.5 267.5t-285.5 90.5q-225 0 -412 -146l-16 21q189 149 428 149zM1032 166v428h-471q-187 0 -289 -71.5
t-102 -207.5q0 -139 96.5 -225t249.5 -86q309 0 516 162zM612 -373q18 18 37 0q19 -16 8 -33q-2 -3 -6 -6q-12 -12 -27.5 -7t-19 18.5t7.5 27.5z" />
    <glyph glyph-name="Ahookabove" unicode="&#x1ea2;" horiz-adv-x="1599" 
d="M811 2054q94 0 150.5 -41t56.5 -112q0 -39 -21 -68.5t-69 -67.5l-31 -22l-47 -39q-39 -39 -39 -98h-27q0 30 11 59q9 28 32 51q17 17 23 21q1 1 61 49q45 32 62.5 56.5t17.5 58.5q0 60 -49 94.5t-131 34.5t-136 -37.5t-61 -100.5l-26 2q11 74 71 117t152 43zM817 1434
l678 -1434h-31l-209 442h-915l-209 -442h-31l680 1434h37zM799 1407l-445 -938h889z" />
    <glyph glyph-name="ahookabove" unicode="&#x1ea3;" horiz-adv-x="1261" 
d="M653 1606q93 0 149 -41.5t56 -112.5q0 -41 -22.5 -71.5t-67.5 -63.5l-29 -23l-47 -39q-41 -35 -41 -98h-26q0 33 10 60q16 36 35 53l22 18q5 5 60 49q44 32 61.5 56.5t17.5 58.5q0 60 -48 94.5t-130 34.5t-135.5 -37t-60.5 -100l-27 2q9 74 69.5 117t153.5 43zM645 1044
q194 0 304 -97.5t110 -284.5v-662h-27v135q-210 -155 -516 -155q-162 0 -268 92q-105 92 -105 243q0 148 109.5 225.5t308.5 77.5h471v44q0 179 -104.5 268.5t-282.5 89.5q-225 0 -412 -146l-16 21q189 149 428 149zM1032 166v428h-471q-187 0 -289 -71.5t-102 -207.5
q0 -139 96.5 -225t249.5 -86q309 0 516 162z" />
    <glyph glyph-name="Acircumflexacute" unicode="&#x1ea4;" horiz-adv-x="1599" 
d="M817 1864l246 -297h-31l-231 276l-232 -276h-30l245 297h33zM819 1434l678 -1434h-31l-209 442h-915l-209 -442h-31l680 1434h37zM801 1407l-445 -938h889zM1370 1950l-223 -297h-31l211 297h43z" />
    <glyph glyph-name="acircumflexacute" unicode="&#x1ea5;" horiz-adv-x="1261" 
d="M647 1454l246 -297h-31l-231 277l-232 -277h-30l245 297h33zM645 1044q194 0 304 -97.5t110 -284.5v-662h-27v135q-210 -155 -516 -155q-162 0 -268 92q-105 92 -105 243q0 148 109.5 225.5t308.5 77.5h471v44q0 177 -101.5 267.5t-285.5 90.5q-225 0 -412 -146l-16 21
q189 149 428 149zM1032 166v428h-471q-187 0 -289 -71.5t-102 -207.5q0 -139 96.5 -225t249.5 -86q309 0 516 162zM1200 1540l-223 -297h-31l211 297h43z" />
    <glyph glyph-name="Acircumflexgrave" unicode="&#x1ea6;" horiz-adv-x="1599" 
d="M815 1864l246 -297h-31l-231 276l-232 -276h-30l245 297h33zM817 1434l678 -1434h-31l-209 442h-915l-209 -442h-31l680 1434h37zM799 1407l-445 -938h889zM991 1950l211 -297h-31l-223 297h43z" />
    <glyph glyph-name="acircumflexgrave" unicode="&#x1ea7;" horiz-adv-x="1261" 
d="M645 1454l246 -297h-31l-231 277l-232 -277h-30l245 297h33zM643 1044q194 0 304 -97.5t110 -284.5v-662h-27v135q-210 -155 -516 -155q-162 0 -268 92q-105 92 -105 243q0 148 109.5 225.5t308.5 77.5h471v44q0 177 -101.5 267.5t-285.5 90.5q-225 0 -412 -146l-16 21
q189 149 428 149zM1030 166v428h-471q-187 0 -289 -71.5t-102 -207.5q0 -139 96.5 -225t249.5 -86q309 0 516 162zM821 1540l211 -297h-31l-223 297h43z" />
    <glyph glyph-name="Acircumflexhookabove" unicode="&#x1ea8;" horiz-adv-x="1599" 
d="M1208 2101q95 0 151 -41t56 -112q0 -39 -21 -68.5t-69 -67.5q-6 -4 -29.5 -21.5t-27.5 -21l-20 -17.5t-19 -20.5t-10.5 -20t-9 -27.5t-1.5 -31h-26q0 32 10 59q10 30 33 53l22 19q4 4 17 14.5t27.5 21.5t17.5 13q30 24 43.5 37t25 33.5t11.5 44.5q0 60 -49.5 94.5
t-131.5 34.5t-135.5 -37.5t-60.5 -100.5l-27 3q12 75 72 117t151 42zM815 1864l246 -297h-31l-231 276l-232 -276h-30l245 297h33zM817 1434l678 -1434h-31l-209 442h-915l-209 -442h-31l680 1434h37zM799 1407l-445 -938h889z" />
    <glyph glyph-name="acircumflexhookabove" unicode="&#x1ea9;" horiz-adv-x="1261" 
d="M1038 1692q94 0 150.5 -41.5t56.5 -112.5q0 -42 -21.5 -70.5t-68.5 -64.5l-31 -23l-47 -39q-39 -39 -39 -98h-26q0 33 10 60q10 30 33 53l22 18q4 4 17 14.5t27.5 21.5t17.5 13q42 31 61 56t19 59q0 60 -49.5 94.5t-131.5 34.5t-135.5 -37t-60.5 -100l-27 2
q10 75 70 117.5t153 42.5zM645 1454l246 -297h-31l-231 277l-232 -277h-30l245 297h33zM643 1044q194 0 304 -97.5t110 -284.5v-662h-27v135q-210 -155 -516 -155q-162 0 -268 92q-105 92 -105 243q0 148 109.5 225.5t308.5 77.5h471v44q0 179 -104.5 268.5t-282.5 89.5
q-225 0 -412 -146l-16 21q189 149 428 149zM1030 166v428h-471q-187 0 -289 -71.5t-102 -207.5q0 -139 96.5 -225t249.5 -86q309 0 516 162z" />
    <glyph glyph-name="Acircumflextilde" unicode="&#x1eaa;" horiz-adv-x="1599" 
d="M643 2091q35 -4 63 -19t80 -55q51 -40 80.5 -55.5t65.5 -19.5q62 -8 108.5 30t65.5 113l29 -6q-20 -84 -77 -128t-130 -36q-41 6 -73.5 23t-84.5 57q-50 39 -74.5 52t-56.5 17q-55 8 -94.5 -29.5t-52.5 -111.5l-29 4q17 86 64.5 129t115.5 35zM815 1864l246 -297h-31
l-231 276l-232 -276h-30l245 297h33zM817 1434l678 -1434h-31l-209 442h-915l-209 -442h-31l680 1434h37zM799 1407l-445 -938h889z" />
    <glyph glyph-name="acircumflextilde" unicode="&#x1eab;" horiz-adv-x="1261" 
d="M473 1667q35 -4 63 -19t80 -55q51 -40 80.5 -55.5t65.5 -19.5q62 -9 108.5 29t65.5 114l29 -6q-20 -84 -77 -128t-130 -36q-41 6 -73.5 23t-84.5 57q-48 39 -73.5 52.5t-57.5 16.5q-55 8 -94.5 -29.5t-52.5 -111.5l-29 4q17 86 64.5 129t115.5 35zM645 1454l246 -297h-31
l-231 277l-232 -277h-30l245 297h33zM643 1044q194 0 304 -97.5t110 -284.5v-662h-27v135q-210 -155 -516 -155q-162 0 -268 92q-105 92 -105 243q0 148 109.5 225.5t308.5 77.5h471v44q0 179 -104.5 268.5t-282.5 89.5q-225 0 -412 -146l-16 21q189 149 428 149zM1030 166
v428h-471q-187 0 -289 -71.5t-102 -207.5q0 -139 96.5 -225t249.5 -86q309 0 516 162z" />
    <glyph glyph-name="Acircumflexdotbelow" unicode="&#x1eac;" horiz-adv-x="1599" 
d="M817 1864l246 -297h-31l-231 276l-232 -276h-30l245 297h33zM819 1434l678 -1434h-31l-209 442h-915l-209 -442h-31l680 1434h37zM801 1407l-445 -938h889zM111 -373q18 18 37 0q19 -16 8 -33q-2 -3 -6 -6q-12 -12 -27.5 -7t-19 18.5t7.5 27.5z" />
    <glyph glyph-name="acircumflexdotbelow" unicode="&#x1ead;" horiz-adv-x="1261" 
d="M647 1454l246 -297h-31l-231 277l-232 -277h-30l245 297h33zM645 1044q194 0 304 -97.5t110 -284.5v-662h-27v135q-210 -155 -516 -155q-162 0 -268 92q-105 92 -105 243q0 148 109.5 225.5t308.5 77.5h471v44q0 177 -101.5 267.5t-285.5 90.5q-225 0 -412 -146l-16 21
q189 149 428 149zM1032 166v428h-471q-187 0 -289 -71.5t-102 -207.5q0 -139 96.5 -225t249.5 -86q309 0 516 162zM612 -373q18 18 37 0q19 -16 8 -33q-2 -3 -6 -6q-12 -12 -27.5 -7t-19 18.5t7.5 27.5z" />
    <glyph glyph-name="Abreveacute" unicode="&#x1eae;" horiz-adv-x="1599" 
d="M1075 1851l29 -2q-10 -121 -91.5 -190.5t-211.5 -69.5t-211.5 69.5t-91.5 190.5l28 2q7 -110 81.5 -172.5t193.5 -62.5q118 0 191.5 62t82.5 173zM819 1434l678 -1434h-31l-209 442h-915l-209 -442h-31l680 1434h37zM801 1407l-445 -938h889zM1024 2161l-223 -297h-31
l211 297h43z" />
    <glyph glyph-name="abreveacute" unicode="&#x1eaf;" horiz-adv-x="1261" 
d="M905 1442l29 -2q-10 -121 -91.5 -190.5t-211.5 -69.5t-211.5 69.5t-91.5 190.5l28 2q7 -110 81.5 -173t193.5 -63q118 0 190.5 63t83.5 173zM645 1044q194 0 304 -97.5t110 -284.5v-662h-27v135q-210 -155 -516 -155q-162 0 -268 92q-105 92 -105 243q0 148 109.5 225.5
t308.5 77.5h471v44q0 179 -104.5 268.5t-282.5 89.5q-225 0 -412 -146l-16 21q189 149 428 149zM1032 166v428h-471q-187 0 -289 -71.5t-102 -207.5q0 -139 96.5 -225t249.5 -86q309 0 516 162zM854 1751l-223 -297h-31l211 297h43z" />
    <glyph glyph-name="Abrevegrave" unicode="&#x1eb0;" horiz-adv-x="1599" 
d="M1075 1851l29 -2q-10 -121 -91.5 -190.5t-211.5 -69.5t-211.5 69.5t-91.5 190.5l28 2q7 -110 81.5 -172.5t193.5 -62.5q118 0 191.5 62t82.5 173zM819 1434l678 -1434h-31l-209 442h-915l-209 -442h-31l680 1434h37zM801 1407l-445 -938h889zM621 2161l210 -297h-30
l-223 297h43z" />
    <glyph glyph-name="abrevegrave" unicode="&#x1eb1;" horiz-adv-x="1261" 
d="M905 1442l29 -2q-10 -121 -91.5 -190.5t-211.5 -69.5t-211.5 69.5t-91.5 190.5l28 2q7 -110 81.5 -173t193.5 -63q118 0 190.5 63t83.5 173zM645 1044q194 0 304 -97.5t110 -284.5v-662h-27v135q-210 -155 -516 -155q-162 0 -268 92q-105 92 -105 243q0 148 109.5 225.5
t308.5 77.5h471v44q0 179 -104.5 268.5t-282.5 89.5q-225 0 -412 -146l-16 21q189 149 428 149zM1032 166v428h-471q-187 0 -289 -71.5t-102 -207.5q0 -139 96.5 -225t249.5 -86q309 0 516 162zM451 1751l211 -297h-31l-223 297h43z" />
    <glyph glyph-name="Abrevehookabove" unicode="&#x1eb2;" horiz-adv-x="1599" 
d="M811 2234q95 0 151 -41t56 -112q0 -41 -22.5 -71t-67.5 -64l-31 -23l-47 -39q-39 -39 -39 -98h-27q0 30 11 59q5 15 12 27t21.5 26t21.5 20.5t31 24.5t30 23q45 32 62.5 56.5t17.5 58.5q0 60 -49 94.5t-131 34.5t-136 -37t-61 -100l-26 2q10 73 70.5 116t152.5 43z
M1073 1851l29 -2q-10 -121 -91.5 -190.5t-211.5 -69.5t-211.5 69.5t-91.5 190.5l28 2q7 -110 81.5 -172.5t193.5 -62.5q118 0 191.5 62t82.5 173zM817 1434l678 -1434h-31l-209 442h-915l-209 -442h-31l680 1434h37zM799 1407l-445 -938h889z" />
    <glyph glyph-name="abrevehookabove" unicode="&#x1eb3;" horiz-adv-x="1261" 
d="M641 1825q94 0 150.5 -41.5t56.5 -112.5q0 -39 -21 -67.5t-69 -67.5l-31 -23l-47 -38q-39 -39 -39 -99h-27q0 31 11 60q9 28 32 51q14 14 23 20q1 1 61 49q45 32 62.5 56.5t17.5 58.5q0 60 -49 94.5t-131 34.5t-135 -37t-62 -100l-26 2q11 74 71 117t152 43zM903 1442
l29 -2q-10 -121 -91.5 -190.5t-211.5 -69.5t-211.5 69.5t-91.5 190.5l28 2q7 -110 81.5 -173t193.5 -63q118 0 190.5 63t83.5 173zM643 1044q194 0 304 -97.5t110 -284.5v-662h-27v135q-210 -155 -516 -155q-162 0 -268 92q-105 92 -105 243q0 148 109.5 225.5t308.5 77.5
h471v44q0 179 -104.5 268.5t-282.5 89.5q-225 0 -412 -146l-16 21q189 149 428 149zM1030 166v428h-471q-187 0 -289 -71.5t-102 -207.5q0 -139 96.5 -225t249.5 -86q309 0 516 162z" />
    <glyph glyph-name="Abrevetilde" unicode="&#x1eb4;" horiz-adv-x="1599" 
d="M645 2050q35 -4 62.5 -19.5t80.5 -56.5q50 -39 80 -54t66 -19q62 -8 108.5 30t65.5 113l29 -6q-20 -84 -77.5 -129.5t-129.5 -34.5q-43 6 -76 23t-82 57q-50 39 -74.5 52t-56.5 17q-55 8 -94.5 -29t-52.5 -114l-29 6q15 85 64.5 129t115.5 35zM1075 1851l29 -2
q-10 -121 -91.5 -190.5t-211.5 -69.5t-211.5 69.5t-91.5 190.5l28 2q7 -110 81.5 -172.5t193.5 -62.5q118 0 191.5 62t82.5 173zM819 1434l678 -1434h-31l-209 442h-915l-209 -442h-31l680 1434h37zM801 1407l-445 -938h889z" />
    <glyph glyph-name="abrevetilde" unicode="&#x1eb5;" horiz-adv-x="1261" 
d="M475 1657q35 -4 62.5 -19.5t80.5 -56.5q47 -40 76 -55t70 -21q63 -6 109.5 31.5t64.5 114.5l29 -9q-20 -82 -77.5 -126.5t-129.5 -34.5q-41 3 -75 21t-83 59q-50 39 -74.5 52t-56.5 17q-55 6 -94.5 -31.5t-52.5 -111.5l-29 6q17 86 64.5 129t115.5 35zM905 1442l29 -2
q-10 -121 -91.5 -190.5t-211.5 -69.5t-211.5 69.5t-91.5 190.5l28 2q7 -110 81.5 -173t193.5 -63t193 63t81 173zM645 1044q194 0 304 -97.5t110 -284.5v-662h-27v135q-210 -155 -516 -155q-162 0 -268 92q-105 92 -105 243q0 148 109.5 225.5t308.5 77.5h471v44
q0 179 -104.5 268.5t-282.5 89.5q-225 0 -412 -146l-16 21q189 149 428 149zM1032 166v428h-471q-187 0 -289 -71.5t-102 -207.5q0 -139 96.5 -225t249.5 -86q309 0 516 162z" />
    <glyph glyph-name="Abrevedotbelow" unicode="&#x1eb6;" horiz-adv-x="1599" 
d="M1075 1851l29 -2q-10 -121 -91.5 -190.5t-211.5 -69.5t-211.5 69.5t-91.5 190.5l28 2q7 -110 81.5 -172.5t193.5 -62.5q118 0 191.5 62t82.5 173zM819 1434l678 -1434h-31l-209 442h-915l-209 -442h-31l680 1434h37zM801 1407l-445 -938h889zM778 -373q19 19 38 1
q18 -16 7 -34l-6 -6q-13 -17 -33 -5q-22 13 -13 34z" />
    <glyph glyph-name="abrevedotbelow" unicode="&#x1eb7;" horiz-adv-x="1261" 
d="M905 1442l29 -2q-10 -121 -91.5 -190.5t-211.5 -69.5t-211.5 69.5t-91.5 190.5l28 2q7 -110 81.5 -173t193.5 -63q118 0 190.5 63t83.5 173zM645 1044q194 0 304 -97.5t110 -284.5v-662h-27v135q-210 -155 -516 -155q-162 0 -268 92q-105 92 -105 243q0 148 109.5 225.5
t308.5 77.5h471v44q0 179 -104.5 268.5t-282.5 89.5q-225 0 -412 -146l-16 21q189 149 428 149zM1032 166v428h-471q-187 0 -289 -71.5t-102 -207.5q0 -139 96.5 -225t249.5 -86q309 0 516 162zM612 -373q18 18 37 0q19 -16 8 -33q-2 -3 -6 -6q-12 -12 -27.5 -7t-19 18.5
t7.5 27.5z" />
    <glyph glyph-name="Edotbelow" unicode="&#x1eb8;" horiz-adv-x="1458" 
d="M1292 1434v-27h-977v-670h899v-26h-899v-684h1002v-27h-1030v1434h1005zM756 -373q19 19 38 1q18 -16 7 -34l-6 -6q-14 -20 -32 -4q-20 16 -10 38q1 2 3 5z" />
    <glyph glyph-name="edotbelow" unicode="&#x1eb9;" 
d="M680 1044q233 1 377 -152.5t139 -379.5v-25h-1006q9 -200 156 -344q145 -139 344 -139q239 0 410 168l18 -16q-179 -176 -428 -176q-218 0 -373 155q-153 156 -153 377q0 220 151 377q149 155 365 155zM680 1020q-202 0 -346 -150q-144 -147 -144 -358h979
q0 217 -133 362q-134 146 -356 146zM655 -373q18 18 38 0q19 -16 9 -33q-2 -3 -6 -6q-13 -13 -29 -8t-19.5 19t7.5 28z" />
    <glyph glyph-name="Ehookabove" unicode="&#x1eba;" horiz-adv-x="1458" 
d="M793 2054q95 0 150.5 -41t55.5 -112q0 -29 -13.5 -54t-29.5 -41t-47 -41l-30 -22l-48 -39q-38 -38 -38 -98h-27q0 32 10 59q5 15 12 27.5t21 26t22.5 20.5t31 24t30.5 23q45 32 62.5 56.5t17.5 58.5q0 60 -49 94.5t-131 34.5t-136 -37.5t-61 -100.5l-27 2q10 73 71 116.5
t153 43.5zM1290 1434v-27h-977v-670h899v-26h-899v-684h1002v-27h-1030v1434h1005z" />
    <glyph glyph-name="ehookabove" unicode="&#x1ebb;" 
d="M692 1606q93 0 149 -41.5t56 -112.5q0 -41 -22.5 -71.5t-67.5 -63.5l-29 -23l-47 -39q-41 -35 -41 -98h-26q0 33 10 60q16 36 35 53l22 18q5 5 60 49q44 32 61.5 56.5t17.5 58.5q0 60 -48 94.5t-130 34.5t-135.5 -37t-60.5 -100l-27 2q10 75 70 117.5t153 42.5zM678 1044
q239 0 377 -153q139 -151 139 -379v-25h-1006q9 -200 156 -344q145 -139 344 -139q239 0 410 168l18 -16q-179 -176 -428 -176q-218 0 -373 155q-153 156 -153 377q0 220 151 377q149 155 365 155zM678 1020q-202 0 -346 -150q-144 -147 -144 -358h979q0 217 -133 362
q-134 146 -356 146z" />
    <glyph glyph-name="Etilde" unicode="&#x1ebc;" horiz-adv-x="1458" 
d="M627 1841q36 -6 64 -21t79 -55q50 -39 79.5 -54t65.5 -21q62 -8 109 30.5t66 112.5l28 -6q-20 -81 -77.5 -126.5t-129.5 -37.5q-42 6 -74.5 23t-82.5 59q-53 40 -76.5 53t-54.5 17q-54 6 -93.5 -31t-54.5 -113l-29 4q17 86 65 130t116 36zM1292 1434v-27h-977v-670h899
v-26h-899v-684h1002v-27h-1030v1434h1005z" />
    <glyph glyph-name="etilde" unicode="&#x1ebd;" 
d="M520 1432q36 -6 64.5 -21.5t79.5 -54.5q48 -40 76 -55t69 -21q62 -8 108.5 30t65.5 113l29 -6q-22 -83 -79 -128t-128 -36q-43 6 -75 23t-83 59q-40 30 -54.5 39.5t-33.5 18t-43 12.5q-55 6 -94.5 -31.5t-52.5 -111.5l-29 4q17 86 64.5 130t115.5 36zM680 1044
q239 0 377 -153q139 -151 139 -379v-25h-1006q9 -200 156 -344q145 -139 344 -139q239 0 410 168l18 -16q-179 -176 -428 -176q-218 0 -373 155q-153 156 -153 377q0 220 151 377q149 155 365 155zM680 1020q-202 0 -346 -150q-144 -147 -144 -358h979q0 217 -133 362
q-134 146 -356 146z" />
    <glyph glyph-name="Ecircumflexacute" unicode="&#x1ebe;" horiz-adv-x="1458" 
d="M1352 1950l-224 -297h-30l211 297h43zM799 1864l245 -297h-30l-232 276l-231 -276h-31l246 297h33zM1292 1434v-27h-977v-670h899v-26h-899v-684h1002v-27h-1030v1434h1005z" />
    <glyph glyph-name="ecircumflexacute" unicode="&#x1ebf;" 
d="M692 1454l246 -297h-31l-231 277l-232 -277h-30l245 297h33zM680 1044q233 1 377 -152.5t139 -379.5v-25h-1006q9 -200 156 -344q145 -139 344 -139q239 0 410 168l18 -16q-179 -176 -428 -176q-218 0 -373 155q-153 156 -153 377q0 220 151 377q149 155 365 155z
M680 1020q-96 3 -188 -38t-159 -110t-106.5 -164.5t-36.5 -195.5h979q0 217 -133 362q-134 146 -356 146zM1245 1540l-223 -297h-31l211 297h43z" />
    <glyph glyph-name="Ecircumflexgrave" unicode="&#x1ec0;" horiz-adv-x="1458" 
d="M973 1950l211 -297h-31l-223 297h43zM797 1864l245 -297h-30l-232 276l-231 -276h-31l246 297h33zM1290 1434v-27h-977v-670h899v-26h-899v-684h1002v-27h-1030v1434h1005z" />
    <glyph glyph-name="ecircumflexgrave" unicode="&#x1ec1;" 
d="M866 1540l211 -297h-30l-224 297h43zM690 1454l246 -297h-31l-231 277l-232 -277h-30l245 297h33zM678 1044q239 0 377 -153q139 -151 139 -379v-25h-1006q9 -200 156 -344q145 -139 344 -139q239 0 410 168l18 -16q-179 -176 -428 -176q-218 0 -373 155
q-153 156 -153 377q0 220 151 377q149 155 365 155zM678 1020q-202 0 -346 -150q-144 -147 -144 -358h979q0 217 -133 362q-134 146 -356 146z" />
    <glyph glyph-name="Ecircumflexhookabove" unicode="&#x1ec2;" horiz-adv-x="1458" 
d="M1182 2101q95 0 151 -41t56 -112q0 -42 -22 -71t-69 -65l-30 -22l-47 -39q-39 -39 -39 -98h-27q0 32 10 59q6 19 19.5 36t23.5 26t36.5 29.5t37.5 29.5q30 24 43.5 37t25 33.5t11.5 44.5q0 60 -49 94.5t-131 34.5t-136 -37.5t-61 -100.5l-27 3q12 74 72.5 116.5
t151.5 42.5zM788 1864l246 -297h-30l-232 276l-231 -276h-31l246 297h32zM1290 1434v-27h-977v-670h899v-26h-899v-684h1002v-27h-1030v1434h1005z" />
    <glyph glyph-name="ecircumflexhookabove" unicode="&#x1ec3;" 
d="M1083 1692q94 0 150.5 -41.5t56.5 -112.5q0 -42 -21.5 -70.5t-68.5 -64.5l-31 -23l-47 -39q-39 -39 -39 -98h-26q0 33 10 60q10 30 33 53l22 18q4 4 17 14.5t27.5 21.5t17.5 13q42 31 61 56t19 59q0 60 -49.5 94.5t-131.5 34.5t-135.5 -37t-60.5 -100l-27 2
q10 75 70 117.5t153 42.5zM690 1454l246 -297h-31l-231 277l-232 -277h-30l245 297h33zM678 1044q233 1 377 -152.5t139 -379.5v-25h-1006q9 -200 156 -344q145 -139 344 -139q239 0 410 168l18 -16q-179 -176 -428 -176q-218 0 -373 155q-153 156 -153 377q0 220 151 377
q149 155 365 155zM678 1020q-202 0 -346 -150q-144 -147 -144 -358h979q0 217 -133 362q-134 146 -356 146z" />
    <glyph glyph-name="Ecircumflextilde" unicode="&#x1ec4;" horiz-adv-x="1458" 
d="M625 2093q36 -6 64 -21t79 -55q47 -39 75 -54t70 -21q62 -8 108.5 30t65.5 113l29 -6q-20 -81 -77.5 -126.5t-129.5 -37.5q-42 6 -74.5 23t-82.5 59q-54 40 -75 51.5t-56 17.5q-56 5 -94.5 -31t-53.5 -112l-29 4q17 86 65 130t116 36zM797 1864l245 -297h-30l-232 276
l-231 -276h-31l246 297h33zM1290 1434v-27h-977v-670h899v-26h-899v-684h1002v-27h-1030v1434h1005z" />
    <glyph glyph-name="ecircumflextilde" unicode="&#x1ec5;" 
d="M518 1671q36 -4 64.5 -19t79.5 -55q50 -40 77 -54.5t68 -20.5q62 -8 108.5 30t65.5 113l29 -6q-22 -83 -79 -128t-128 -36q-43 6 -76 23t-82 57q-49 39 -74 53t-57 17q-54 8 -94.5 -29.5t-52.5 -112.5l-29 4q17 86 64.5 129t115.5 35zM690 1454l246 -297h-31l-231 277
l-232 -277h-30l245 297h33zM678 1044q239 0 377 -153q139 -151 139 -379v-25h-1006q9 -200 156 -344q145 -139 344 -139q239 0 410 168l18 -16q-179 -176 -428 -176q-218 0 -373 155q-153 156 -153 377q0 220 151 377q149 155 365 155zM678 1020q-202 0 -346 -150
q-144 -147 -144 -358h979q0 217 -133 362q-134 146 -356 146z" />
    <glyph glyph-name="Ecircumflexdotbelow" unicode="&#x1ec6;" horiz-adv-x="1458" 
d="M799 1864l245 -297h-30l-232 276l-231 -276h-31l246 297h33zM1292 1434v-27h-977v-670h899v-26h-899v-684h1002v-27h-1030v1434h1005zM756 -373q18 18 38 0q19 -16 9 -33q-2 -3 -6 -6q-20 -20 -38 -1t-3 40z" />
    <glyph glyph-name="ecircumflexdotbelow" unicode="&#x1ec7;" 
d="M692 1454l246 -297h-31l-231 277l-232 -277h-30l245 297h33zM680 1044q233 1 377 -152.5t139 -379.5v-25h-1006q9 -200 156 -344q145 -139 344 -139q239 0 410 168l18 -16q-179 -176 -428 -176q-218 0 -373 155q-153 156 -153 377q0 220 151 377q149 155 365 155z
M680 1020q-96 3 -188 -38t-159 -110t-106.5 -164.5t-36.5 -195.5h979q0 217 -133 362q-134 146 -356 146zM655 -373q18 18 38 0q19 -16 9 -33q-2 -3 -6 -6q-20 -20 -38 -1t-3 40z" />
    <glyph glyph-name="Ihookabove" unicode="&#x1ec8;" horiz-adv-x="602" 
d="M315 2054q95 0 151 -41t56 -112q0 -41 -22.5 -71.5t-67.5 -64.5l-31 -22l-47 -39q-39 -39 -39 -98h-26q0 32 10 59q5 15 12 27.5t21 26t22.5 20.5t31 24t30.5 23q45 32 62.5 56.5t17.5 58.5q0 60 -49.5 94.5t-131.5 34.5t-135.5 -37.5t-60.5 -100.5l-27 2q11 74 71 117
t152 43zM315 1434v-1434h-28v1434h28z" />
    <glyph glyph-name="ihookabove" unicode="&#x1ec9;" horiz-adv-x="518" 
d="M279 1606q94 0 150 -41t56 -113q0 -40 -22.5 -70.5t-67.5 -64.5l-30 -23l-48 -39q-38 -38 -38 -98h-27q0 33 10 60q10 30 33 53l22 18q4 4 17 14.5t27.5 21.5t17.5 13q42 31 61 56t19 59q0 60 -49 94.5t-131 34.5t-136 -37t-61 -100l-27 2q10 75 70.5 117.5t153.5 42.5z
M279 1024v-1024h-27v1024h27z" />
    <glyph glyph-name="Idotbelow" unicode="&#x1eca;" horiz-adv-x="602" 
d="M315 1434v-1434h-28v1434h28zM281 -373q14 14 29 7.5t17.5 -21t-8.5 -25.5q-13 -17 -33 -5q-21 13 -12 34z" />
    <glyph glyph-name="idotbelow" unicode="&#x1ecb;" horiz-adv-x="518" 
d="M236 1325q0 29 28 29q29 0 29 -29t-29 -29q-28 0 -28 29zM279 1024v-1024h-27v1024h27zM244 -373q19 19 38 1q18 -16 7 -34l-6 -6q-14 -20 -32 -4q-20 16 -10 38q1 2 3 5z" />
    <glyph glyph-name="Odotbelow" unicode="&#x1ecc;" horiz-adv-x="1904" 
d="M1700 717q3 -147 -57.5 -284.5t-162 -238t-241 -159.5t-287.5 -55q-119 -3 -233 34t-207 106.5t-163.5 161.5t-108 205t-35.5 230q0 150 59 286.5t159.5 235.5t238.5 157t290 58q203 0 375 -98.5t272.5 -268t100.5 -370.5zM1313 1331q-120 74 -266.5 90.5t-281 -19
t-252 -121.5t-183.5 -208q-97 -168 -97 -356q0 -191 96 -355.5t263 -261.5q166 -94 360 -94t360 94.5t263 259.5q59 95 82.5 208t9 224t-58 214t-120 188t-175.5 137zM932 -373q19 19 38 1q18 -16 7 -34l-6 -6q-14 -20 -32 -4q-20 16 -10 38q1 2 3 5z" />
    <glyph glyph-name="odotbelow" unicode="&#x1ecd;" horiz-adv-x="1413" 
d="M322 889q158 155 385 155q228 0 383 -155q159 -156 159 -377t-159 -377q-155 -155 -383 -155q-227 0 -385 155q-158 158 -158 377t158 377zM1071 870q-150 150 -364 150q-215 0 -365 -150q-152 -149 -152 -358q0 -208 152 -360q151 -148 365 -148q213 0 364 148
q152 152 152 360q0 209 -152 358zM686 -373q19 19 38 1q18 -16 7 -34l-6 -6q-14 -20 -32 -4q-20 16 -10 38q1 2 3 5z" />
    <glyph glyph-name="Ohookabove" unicode="&#x1ece;" horiz-adv-x="1904" 
d="M961 2054q93 0 149.5 -41t56.5 -112q0 -41 -22.5 -71.5t-67.5 -64.5l-30 -22l-48 -39q-38 -38 -38 -98h-27q0 32 10 59q9 27 33 51q19 19 22 21q4 4 17 14.5t27.5 21.5t17.5 13q45 32 62.5 56.5t17.5 58.5q0 60 -49 94.5t-131 34.5t-136 -37.5t-61 -100.5l-27 2
q10 73 71 116.5t153 43.5zM950 1454q203 0 375 -98.5t272.5 -268t100.5 -370.5q0 -200 -100 -370t-273 -269q-171 -98 -375 -98t-375 98q-173 99 -272.5 269t-99.5 370q-2 117 35.5 230t108 204.5t163.5 161t207 106.5t233 35zM1311 1331q-120 74 -266.5 90.5t-281 -19
t-252 -121.5t-183.5 -208q-97 -168 -97 -356q0 -191 96 -355.5t263 -261.5q166 -94 360 -94t360 94.5t263 259.5q59 95 82.5 208t9 224t-58 214t-120 188t-175.5 137z" />
    <glyph glyph-name="ohookabove" unicode="&#x1ecf;" horiz-adv-x="1413" 
d="M715 1606q94 0 150.5 -41.5t56.5 -112.5q0 -41 -23 -71.5t-68 -63.5l-28 -23l-47 -39q-41 -35 -41 -98h-27q0 33 10 60q10 30 33 53l23 18q1 1 61 49q45 32 62.5 56.5t17.5 58.5q0 60 -47.5 94.5t-132.5 34.5q-81 0 -133.5 -37t-63.5 -100l-24 2q7 74 67.5 117t153.5 43z
M705 1044q144 3 270.5 -69.5t200.5 -196.5t71 -266q0 -220 -160 -377q-155 -155 -382 -155q-228 0 -386 155q-157 157 -157 377t157 377q158 155 386 155zM705 1020q-135 4 -256 -65.5t-192.5 -189t-68.5 -253.5q0 -208 152 -360q151 -148 365 -148q101 -3 197.5 38
t166.5 110t112 164t40 196q0 209 -152 358q-150 150 -364 150z" />
    <glyph glyph-name="Ocircumflexacute" unicode="&#x1ed0;" horiz-adv-x="1904" 
d="M1524 1950l-224 -297h-30l211 297h43zM971 1864l246 -297h-31l-232 276l-233 -276h-31l246 297h35zM1700 717q3 -147 -57.5 -284.5t-162 -238t-241 -159.5t-287.5 -55q-119 -3 -233 34t-207 106.5t-163.5 161.5t-108 205t-35.5 230q0 150 59 286.5t159.5 235.5t238.5 157
t290 58q203 0 375 -98.5t272.5 -268t100.5 -370.5zM1313 1331q-120 74 -266.5 90.5t-281 -19t-252 -121.5t-183.5 -208q-97 -168 -97 -356q0 -191 96 -355.5t263 -261.5q166 -94 360 -94t360 94.5t263 259.5q59 95 82.5 208t9 224t-58 214t-120 188t-175.5 137z" />
    <glyph glyph-name="ocircumflexacute" unicode="&#x1ed1;" horiz-adv-x="1413" 
d="M723 1454l246 -297h-31l-231 277l-232 -277h-31l246 297h33zM707 1044q144 3 270.5 -69.5t200.5 -196.5t71 -266q0 -221 -159 -377q-155 -155 -383 -155q-227 0 -385 155q-158 158 -158 377t158 377q158 155 385 155zM707 1020q-135 4 -256 -65.5t-192.5 -189
t-68.5 -253.5q0 -208 152 -360q151 -148 365 -148q101 -3 197.5 38t166.5 110t112 164t40 196q0 209 -152 358q-150 150 -364 150zM1276 1540l-223 -297h-31l211 297h43z" />
    <glyph glyph-name="Ocircumflexgrave" unicode="&#x1ed2;" horiz-adv-x="1904" 
d="M1143 1950l211 -297h-31l-223 297h43zM969 1864l245 -297h-30l-232 276l-233 -276h-31l246 297h35zM1698 717q3 -147 -57.5 -284.5t-162 -238t-241 -159.5t-287.5 -55q-119 -3 -233 34t-207 106.5t-163.5 161.5t-108 205t-35.5 230q0 150 59 286.5t159.5 235.5t238.5 157
t290 58q203 0 375 -98.5t272.5 -268t100.5 -370.5zM1311 1331q-120 74 -266.5 90.5t-281 -19t-252 -121.5t-183.5 -208q-97 -168 -97 -356q0 -191 96 -355.5t263 -261.5q166 -94 360 -94t360 94.5t263 259.5q59 95 82.5 208t9 224t-58 214t-120 188t-175.5 137z" />
    <glyph glyph-name="ocircumflexgrave" unicode="&#x1ed3;" horiz-adv-x="1413" 
d="M721 1454l246 -297h-31l-231 277l-232 -277h-31l246 297h33zM705 1044q144 3 270.5 -69.5t200.5 -196.5t71 -266q0 -220 -160 -377q-155 -155 -382 -155q-228 0 -386 155q-157 157 -157 377t157 377q158 155 386 155zM705 1020q-135 4 -256 -65.5t-192.5 -189
t-68.5 -253.5q0 -208 152 -360q151 -148 365 -148q101 -3 197.5 38t166.5 110t112 164t40 196q0 209 -152 358q-150 150 -364 150zM897 1540l211 -297h-31l-223 297h43z" />
    <glyph glyph-name="Ocircumflexhookabove" unicode="&#x1ed4;" horiz-adv-x="1904" 
d="M1360 2101q95 0 151 -41t56 -112q0 -42 -21.5 -71t-68.5 -65l-31 -22l-47 -39q-39 -39 -39 -98h-27q0 32 10 59q6 19 19.5 36t23.5 26t36.5 29.5t37.5 29.5q42 31 61 56t19 59q0 60 -49 94.5t-131 34.5t-136 -37.5t-61 -100.5l-26 3q10 75 70 117t153 42zM967 1864
l245 -297h-30l-232 276l-231 -276h-31l246 297h33zM950 1454q203 0 375 -98.5t272.5 -268t100.5 -370.5q0 -200 -100 -370t-273 -269q-171 -98 -375 -98t-375 98q-173 99 -272.5 269t-99.5 370q-2 117 35.5 230t108 204.5t163.5 161t207 106.5t233 35zM1311 1331
q-120 74 -266.5 90.5t-281 -19t-252 -121.5t-183.5 -208q-97 -168 -97 -356q0 -191 96 -355.5t263 -261.5q166 -94 360 -94t360 94.5t263 259.5q59 95 82.5 208t9 224t-58 214t-120 188t-175.5 137z" />
    <glyph glyph-name="ocircumflexhookabove" unicode="&#x1ed5;" horiz-adv-x="1413" 
d="M1114 1692q94 0 150.5 -41.5t56.5 -112.5q0 -42 -21.5 -70.5t-68.5 -64.5q-6 -5 -26 -19.5t-25 -18.5t-19 -16t-17.5 -17.5t-12 -16.5t-10.5 -20.5t-4.5 -23t-2.5 -28.5h-27q0 31 11 60q10 31 32 53l23 18q1 1 61 49q42 31 61 56t19 59q0 60 -49 94.5t-131 34.5
t-135.5 -37t-60.5 -100l-27 2q10 75 70 117.5t153 42.5zM721 1454l246 -297h-31l-231 277l-232 -277h-31l246 297h33zM705 1044q144 3 270.5 -69.5t200.5 -196.5t71 -266q0 -220 -160 -377q-155 -155 -382 -155q-228 0 -386 155q-157 157 -157 377t157 377q158 155 386 155z
M705 1020q-135 4 -256 -65.5t-192.5 -189t-68.5 -253.5q0 -208 152 -360q151 -148 365 -148q101 -3 197.5 38t166.5 110t112 164t40 196q0 209 -152 358q-150 150 -364 150z" />
    <glyph glyph-name="Ocircumflextilde" unicode="&#x1ed6;" horiz-adv-x="1904" 
d="M795 2091q35 -4 62.5 -19.5t80.5 -56.5q52 -39 81 -54t64 -19q62 -8 108.5 30t65.5 113l29 -6q-20 -84 -77 -128t-130 -36q-41 6 -72.5 22.5t-84.5 57.5q-50 39 -74.5 52t-56.5 17q-55 8 -95 -29.5t-53 -111.5l-29 4q17 86 65 129t116 35zM967 1864l245 -297h-30
l-232 276l-231 -276h-31l246 297h33zM950 1454q203 0 375 -98.5t272.5 -268t100.5 -370.5q0 -200 -100 -370t-273 -269q-171 -98 -375 -98t-375 98q-173 99 -272.5 269t-99.5 370q-2 117 35.5 230t108 204.5t163.5 161t207 106.5t233 35zM1311 1331q-120 74 -266.5 90.5
t-281 -19t-252 -121.5t-183.5 -208q-97 -168 -97 -356q0 -191 96 -355.5t263 -261.5q166 -94 360 -94t360 94.5t263 259.5q59 95 82.5 208t9 224t-58 214t-120 188t-175.5 137z" />
    <glyph glyph-name="ocircumflextilde" unicode="&#x1ed7;" horiz-adv-x="1413" 
d="M549 1675q67 -8 143 -76q50 -38 79.5 -53.5t66.5 -21.5q63 -6 109.5 31t64.5 112l28 -6q-22 -83 -78 -127t-128 -35q-40 4 -72 21t-86 59q-53 40 -76.5 53t-54.5 17q-55 6 -95 -32t-53 -112l-28 4q17 87 64.5 130.5t115.5 35.5zM721 1454l246 -297h-31l-231 277
l-232 -277h-31l246 297h33zM705 1044q144 3 270.5 -69.5t200.5 -196.5t71 -266q0 -220 -160 -377q-155 -155 -382 -155q-228 0 -386 155q-157 157 -157 377t157 377q158 155 386 155zM705 1020q-135 4 -256 -65.5t-192.5 -189t-68.5 -253.5q0 -208 152 -360
q151 -148 365 -148q101 -3 197.5 38t166.5 110t112 164t40 196q0 209 -152 358q-150 150 -364 150z" />
    <glyph glyph-name="Ocircumflexdotbelow" unicode="&#x1ed8;" horiz-adv-x="1904" 
d="M969 1864l245 -297h-30l-232 276l-231 -276h-31l246 297h33zM1700 717q3 -147 -57.5 -284.5t-162 -238t-241 -159.5t-287.5 -55q-119 -3 -233 34t-207 106.5t-163.5 161.5t-108 205t-35.5 230q0 150 59 286.5t159.5 235.5t238.5 157t290 58q203 0 375 -98.5t272.5 -268
t100.5 -370.5zM1313 1331q-120 74 -266.5 90.5t-281 -19t-252 -121.5t-183.5 -208q-97 -168 -97 -356q0 -191 96 -355.5t263 -261.5q166 -94 360 -94t360 94.5t263 259.5q59 95 82.5 208t9 224t-58 214t-120 188t-175.5 137zM932 -373q18 18 38 0q19 -16 9 -33q-2 -3 -6 -6
q-20 -20 -38 -1t-3 40z" />
    <glyph glyph-name="ocircumflexdotbelow" unicode="&#x1ed9;" horiz-adv-x="1413" 
d="M723 1454l246 -297h-31l-231 277l-232 -277h-31l246 297h33zM707 1044q144 3 270.5 -69.5t200.5 -196.5t71 -266q0 -221 -159 -377q-155 -155 -383 -155q-227 0 -385 155q-158 158 -158 377t158 377q158 155 385 155zM707 1020q-135 4 -256 -65.5t-192.5 -189
t-68.5 -253.5q0 -208 152 -360q151 -148 365 -148q101 -3 197.5 38t166.5 110t112 164t40 196q0 209 -152 358q-150 150 -364 150zM686 -373q18 18 38 0q19 -16 9 -33q-2 -3 -6 -6q-20 -20 -38 -1t-3 40z" />
    <glyph glyph-name="Ohornacute" unicode="&#x1eda;" horiz-adv-x="1904" 
d="M1835 1505h27v-55q0 -122 -77 -218.5t-196 -127.5q111 -178 111 -387q3 -147 -57.5 -284.5t-162 -238t-241 -159.5t-287.5 -55q-119 -3 -233 34t-207 106.5t-163.5 161.5t-108 205t-35.5 230q0 150 59 286.5t159.5 235.5t238.5 157t290 58q189 0 354 -89t269 -239
q113 26 186.5 117t73.5 207v55zM1313 1331q-120 74 -266.5 90.5t-281 -19t-252 -121.5t-183.5 -208q-97 -168 -97 -356q0 -191 96 -355.5t263 -261.5q166 -94 360 -94t360 94.5t263 259.5q59 95 82.5 208t9 224t-58 214t-120 188t-175.5 137zM1176 1864l-224 -297h-30
l211 297h43z" />
    <glyph glyph-name="ohornacute" unicode="&#x1edb;" horiz-adv-x="1413" 
d="M1346 1114h26v-53q0 -97 -48.5 -179t-131.5 -130q57 -111 57 -240q0 -221 -159 -377q-155 -155 -383 -155q-227 0 -385 155q-158 158 -158 377t158 377q158 155 385 155q150 0 275.5 -73t197.5 -197q76 45 121 121.5t45 165.5v53zM707 4q101 -3 197.5 38t166.5 110
t112 164t40 196q0 209 -152 358q-150 150 -364 150q-215 0 -365 -150q-152 -149 -152 -358q0 -208 152 -360q151 -148 365 -148zM930 1454l-223 -297h-31l211 297h43z" />
    <glyph glyph-name="Ohorngrave" unicode="&#x1edc;" horiz-adv-x="1904" 
d="M1835 1505h27v-55q0 -122 -77 -218.5t-196 -127.5q111 -178 111 -387q3 -147 -57.5 -284.5t-162 -238t-241 -159.5t-287.5 -55q-119 -3 -233 34t-207 106.5t-163.5 161.5t-108 205t-35.5 230q0 150 59 286.5t159.5 235.5t238.5 157t290 58q189 0 354 -89t269 -239
q113 26 186.5 117t73.5 207v55zM1313 1331q-120 74 -266.5 90.5t-281 -19t-252 -121.5t-183.5 -208q-97 -168 -97 -356q0 -191 96 -355.5t263 -261.5q166 -94 360 -94t360 94.5t263 259.5q59 95 82.5 208t9 224t-58 214t-120 188t-175.5 137zM772 1864l211 -297h-31
l-223 297h43z" />
    <glyph glyph-name="ohorngrave" unicode="&#x1edd;" horiz-adv-x="1413" 
d="M1346 1114h26v-53q0 -97 -48.5 -179t-131.5 -130q57 -111 57 -240q0 -221 -159 -377q-155 -155 -383 -155q-227 0 -385 155q-158 158 -158 377t158 377q158 155 385 155q150 0 275.5 -73t197.5 -197q76 45 121 121.5t45 165.5v53zM707 4q101 -3 197.5 38t166.5 110
t112 164t40 196q0 209 -152 358q-150 150 -364 150q-215 0 -365 -150q-152 -149 -152 -358q0 -208 152 -360q151 -148 365 -148zM526 1454l211 -297h-30l-224 297h43z" />
    <glyph glyph-name="Ohornhookabove" unicode="&#x1ede;" horiz-adv-x="1904" 
d="M961 2054q93 0 149.5 -41t56.5 -112q0 -41 -22.5 -71.5t-67.5 -64.5l-30 -22l-48 -39q-38 -38 -38 -98h-27q0 32 10 59q9 27 33 51q19 19 22 21q4 4 17 14.5t27.5 21.5t17.5 13q45 32 62.5 56.5t17.5 58.5q0 60 -49 94.5t-131 34.5t-136 -37.5t-61 -100.5l-27 2
q10 73 71 116.5t153 43.5zM1833 1505h27v-55q0 -122 -77 -218.5t-196 -127.5q111 -178 111 -387q0 -200 -100 -370t-273 -269q-171 -98 -375 -98t-375 98q-173 99 -272.5 269t-99.5 370q-2 117 35.5 230t108 204.5t163.5 161t207 106.5t233 35q191 0 354.5 -88.5
t268.5 -239.5q113 26 186.5 117t73.5 207v55zM1311 1331q-120 74 -266.5 90.5t-281 -19t-252 -121.5t-183.5 -208q-97 -168 -97 -356q0 -191 96 -355.5t263 -261.5q166 -94 360 -94t360 94.5t263 259.5q59 95 82.5 208t9 224t-58 214t-120 188t-175.5 137z" />
    <glyph glyph-name="ohornhookabove" unicode="&#x1edf;" horiz-adv-x="1413" 
d="M715 1606q94 0 150.5 -41.5t56.5 -112.5q0 -41 -23 -71.5t-68 -63.5l-28 -23l-47 -39q-41 -35 -41 -98h-27q0 33 10 60q10 30 33 53l23 18q1 1 61 49q45 32 62.5 56.5t17.5 58.5q0 60 -47.5 94.5t-132.5 34.5q-81 0 -133.5 -37t-63.5 -100l-24 2q7 74 67.5 117t153.5 43z
M1343 1116h27v-55q0 -96 -48.5 -178.5t-131.5 -130.5q57 -111 57 -240q0 -220 -160 -377q-155 -155 -382 -155q-228 0 -386 155q-157 157 -157 377t157 377q158 155 386 155q148 0 274 -73t199 -197q76 45 120.5 121t44.5 166v55zM705 1020q-135 4 -256 -65.5t-192.5 -189
t-68.5 -253.5q0 -208 152 -360q151 -148 365 -148q101 -3 197.5 38t166.5 110t112 164t40 196q0 209 -152 358q-150 150 -364 150z" />
    <glyph glyph-name="Ohorntilde" unicode="&#x1ee0;" horiz-adv-x="1904" 
d="M797 1841q36 -6 64 -21t79 -55q50 -39 79.5 -54t65.5 -21q62 -8 109 30.5t66 112.5l28 -6q-20 -81 -77.5 -126.5t-129.5 -37.5q-42 6 -74.5 23t-82.5 59q-14 9 -33.5 23.5t-27.5 19.5t-21 12t-24 10t-25 5q-54 6 -93.5 -31t-54.5 -113l-29 4q17 86 65 130t116 36z
M1835 1505h27v-55q0 -122 -77 -218.5t-196 -127.5q111 -178 111 -387q0 -200 -100 -370t-273 -269q-171 -98 -375 -98q-203 0 -374 98q-173 99 -273 269t-100 370q-2 117 35.5 230t108 204.5t163.5 161t207 106.5t233 35q189 0 354 -89t269 -239q113 26 186.5 117t73.5 207
v55zM1313 1331q-120 74 -266.5 90.5t-281 -19t-252 -121.5t-183.5 -208q-97 -168 -97 -356q0 -191 96 -355.5t263 -261.5q166 -94 360 -94t360 94.5t263 259.5q59 95 82.5 208t9 224t-58 214t-120 188t-175.5 137z" />
    <glyph glyph-name="ohorntilde" unicode="&#x1ee1;" horiz-adv-x="1413" 
d="M551 1432q36 -6 64 -21t79 -55q50 -39 80 -54.5t66 -21.5q62 -8 108.5 30t65.5 113l28 -6q-22 -83 -78.5 -128t-127.5 -36q-42 6 -75 23t-83 59q-53 40 -76.5 53t-54.5 17q-55 6 -95 -31.5t-53 -111.5l-28 4q17 86 64.5 130t115.5 36zM1346 1116h26v-55
q0 -96 -48.5 -178.5t-131.5 -130.5q57 -111 57 -240q0 -221 -159 -377q-155 -155 -383 -155q-227 0 -385 155q-158 158 -158 377t158 377q158 155 385 155q150 0 275.5 -73t197.5 -197q76 45 121 121.5t45 165.5v55zM707 1020q-135 4 -256 -65.5t-192.5 -189t-68.5 -253.5
q0 -208 152 -360q151 -148 365 -148q101 -3 197.5 38t166.5 110t112 164t40 196q0 209 -152 358q-150 150 -364 150z" />
    <glyph glyph-name="Ohorndotbelow" unicode="&#x1ee2;" horiz-adv-x="1904" 
d="M1835 1505h27v-55q0 -122 -77 -218.5t-196 -127.5q111 -178 111 -387q3 -147 -57.5 -284.5t-162 -238t-241 -159.5t-287.5 -55q-119 -3 -233 34t-207 106.5t-163.5 161.5t-108 205t-35.5 230q0 150 59 286.5t159.5 235.5t238.5 157t290 58q189 0 354 -89t269 -239
q113 26 186.5 117t73.5 207v55zM1313 1331q-120 74 -266.5 90.5t-281 -19t-252 -121.5t-183.5 -208q-97 -168 -97 -356q0 -191 96 -355.5t263 -261.5q166 -94 360 -94t360 94.5t263 259.5q59 95 82.5 208t9 224t-58 214t-120 188t-175.5 137zM932 -373q19 19 38 1
q18 -16 7 -34l-6 -6q-13 -17 -33 -5q-22 13 -13 34z" />
    <glyph glyph-name="ohorndotbelow" unicode="&#x1ee3;" horiz-adv-x="1413" 
d="M1346 1114h26v-53q0 -97 -48.5 -179t-131.5 -130q57 -111 57 -240q0 -221 -159 -377q-155 -155 -383 -155q-227 0 -385 155q-158 158 -158 377t158 377q158 155 385 155q150 0 275.5 -73t197.5 -197q76 45 121 121.5t45 165.5v53zM707 4q101 -3 197.5 38t166.5 110
t112 164t40 196q0 209 -152 358q-150 150 -364 150q-215 0 -365 -150q-152 -149 -152 -358q0 -208 152 -360q151 -148 365 -148zM686 -373q18 18 38 0q19 -16 9 -33q-2 -3 -6 -6q-20 -20 -38 -1t-3 40z" />
    <glyph glyph-name="Udotbelow" unicode="&#x1ee4;" horiz-adv-x="1765" 
d="M1470 1434h29v-811q0 -305 -168 -473q-167 -170 -438 -170q-270 0 -440 170q-166 169 -166 473v811h28v-811q0 -289 158 -455q158 -162 420 -162q263 0 418 162q159 163 159 455v811zM864 -373q18 18 38 0q19 -16 9 -33q-2 -3 -6 -6q-20 -20 -38 -1t-3 40z" />
    <glyph glyph-name="udotbelow" unicode="&#x1ee5;" horiz-adv-x="1355" 
d="M1151 1024v-1024h-27v180q-232 -200 -530 -200q-180 0 -284.5 109t-104.5 304v631h26v-631q0 -184 97.5 -286.5t265.5 -102.5q149 0 286.5 54.5t243.5 154.5v811h27zM657 -373q19 19 38 1q18 -16 7 -34l-6 -6q-14 -20 -32 -4q-20 16 -10 38q1 2 3 5z" />
    <glyph glyph-name="Uhookabove" unicode="&#x1ee6;" horiz-adv-x="1765" 
d="M1100 1901q0 -42 -21.5 -71t-68.5 -65l-31 -22l-45 -39q-41 -35 -41 -98h-27q0 30 11 59q9 28 32 51q17 17 23 21q1 1 61 49q45 32 62.5 56.5t17.5 58.5q0 60 -47.5 94.5t-132.5 34.5q-81 0 -133.5 -37.5t-63.5 -100.5l-26 2q12 75 72 117.5t151 42.5q92 0 149.5 -41.5
t57.5 -111.5zM1468 1434h29v-811q0 -305 -168 -473q-167 -170 -438 -170t-438.5 171t-167.5 472v811h28v-811q0 -289 158 -455q158 -162 420 -162q263 0 418 162q159 163 159 455v811z" />
    <glyph glyph-name="uhookabove" unicode="&#x1ee7;" horiz-adv-x="1355" 
d="M688 1606q93 0 149 -41.5t56 -112.5q0 -41 -22.5 -71.5t-67.5 -63.5l-29 -23l-47 -39q-39 -34 -39 -98h-26q0 39 8 60q16 36 35 53l22 18q9 9 59 49q45 32 62.5 56.5t17.5 58.5q0 60 -48 94.5t-130 34.5t-135.5 -37t-60.5 -100l-27 2q10 75 70 117.5t153 42.5zM1149 1024
v-1024h-27v180q-232 -200 -530 -200q-180 0 -284.5 109t-104.5 304v631h26v-631q0 -184 97.5 -286.5t265.5 -102.5q149 0 286.5 54.5t243.5 154.5v811h27z" />
    <glyph glyph-name="Uhornacute" unicode="&#x1ee8;" horiz-adv-x="1765" 
d="M1749 1505h27v-55q0 -123 -80 -223q-79 -98 -199 -125v-479q0 -305 -168 -473q-167 -170 -438 -170t-438.5 171t-167.5 472v811h28v-811q0 -289 158 -455q158 -162 420 -162q263 0 418 162q159 163 159 455v811h29v-306q110 30 181 119t71 203v55zM1104 1864l-223 -297
h-31l211 297h43z" />
    <glyph glyph-name="uhornacute" unicode="&#x1ee9;" horiz-adv-x="1355" 
d="M1352 1114h26v-53q0 -109 -63 -199.5t-164 -132.5v-729h-27v180q-232 -200 -530 -200q-180 0 -284.5 109t-104.5 304v631h26v-631q0 -184 97.5 -286.5t265.5 -102.5q149 0 286.5 54.5t243.5 154.5v811h27v-268q92 42 146.5 124t54.5 181v53zM901 1454l-223 -297h-31
l211 297h43z" />
    <glyph glyph-name="Uhorngrave" unicode="&#x1eea;" horiz-adv-x="1765" 
d="M1749 1505h27v-55q0 -123 -80 -223q-79 -98 -199 -125v-479q0 -305 -168 -473q-167 -170 -438 -170t-438.5 171t-167.5 472v811h28v-811q0 -289 158 -455q158 -162 420 -162q263 0 418 162q159 163 159 455v811h29v-306q110 30 181 119t71 203v55zM700 1864l211 -297h-30
l-224 297h43z" />
    <glyph glyph-name="uhorngrave" unicode="&#x1eeb;" horiz-adv-x="1355" 
d="M1352 1114h26v-53q0 -109 -63 -199.5t-164 -132.5v-729h-27v180q-232 -200 -530 -200q-180 0 -284.5 109t-104.5 304v631h26v-631q0 -184 97.5 -286.5t265.5 -102.5q149 0 286.5 54.5t243.5 154.5v811h27v-268q92 42 146.5 124t54.5 181v53zM498 1454l211 -297h-31
l-223 297h43z" />
    <glyph glyph-name="Uhornhookabove" unicode="&#x1eec;" horiz-adv-x="1765" 
d="M1100 1901q0 -42 -21.5 -71t-68.5 -65l-31 -22l-45 -39q-41 -35 -41 -98h-27q0 30 11 59q9 28 32 51q17 17 23 21q1 1 61 49q45 32 62.5 56.5t17.5 58.5q0 60 -47.5 94.5t-132.5 34.5q-81 0 -133.5 -37.5t-63.5 -100.5l-26 2q12 75 72 117.5t151 42.5q92 0 149.5 -41.5
t57.5 -111.5zM1749 1505h27v-55q0 -123 -80 -223q-79 -98 -199 -125v-479q0 -305 -168 -473q-167 -170 -438 -170t-438.5 171t-167.5 472v811h28v-811q0 -289 158 -455q158 -162 420 -162q263 0 418 162q159 163 159 455v811h29v-306q111 29 181.5 118t70.5 204v55z" />
    <glyph glyph-name="uhornhookabove" unicode="&#x1eed;" horiz-adv-x="1355" 
d="M690 1606q93 0 149 -41.5t56 -112.5q0 -41 -22.5 -71.5t-67.5 -63.5l-29 -23l-47 -39q-39 -34 -39 -98h-26q0 39 8 60q16 36 35 53l22 18q9 9 59 49q45 32 62.5 56.5t17.5 58.5q0 60 -48 94.5t-130 34.5t-135.5 -37t-60.5 -100l-27 2q10 75 70 117.5t153 42.5zM1352 1116
h26v-55q0 -111 -63 -201.5t-164 -130.5v-729h-27v180q-232 -200 -530 -200q-180 0 -284.5 109t-104.5 304v631h26v-631q0 -184 97.5 -286.5t265.5 -102.5q149 0 286.5 54.5t243.5 154.5v811h27v-268q92 42 146.5 124t54.5 181v55z" />
    <glyph glyph-name="Uhorntilde" unicode="&#x1eee;" horiz-adv-x="1765" 
d="M727 1841q36 -6 64 -21t79 -55q50 -38 79.5 -53.5t66.5 -21.5q62 -8 108.5 30t65.5 113l29 -6q-20 -81 -77.5 -126.5t-129.5 -37.5q-42 6 -75 23t-83 59q-53 40 -76.5 53t-54.5 17q-54 6 -93.5 -31t-54.5 -113l-28 4q17 86 64.5 130t115.5 36zM1751 1505h27v-55
q0 -123 -80 -223q-79 -98 -199 -125v-479q0 -305 -168 -473q-167 -170 -438 -170t-438.5 171t-167.5 472v811h28v-811q0 -289 158 -455q158 -162 420 -162q263 0 418 162q159 163 159 455v811h29v-306q110 30 181 119t71 203v55z" />
    <glyph glyph-name="uhorntilde" unicode="&#x1eef;" horiz-adv-x="1355" 
d="M522 1432q36 -6 64.5 -21.5t79.5 -54.5t80 -54.5t65 -21.5q62 -8 108.5 30t65.5 113l29 -6q-20 -81 -77.5 -126.5t-129.5 -37.5q-42 6 -75 23t-83 59q-53 40 -76.5 53t-54.5 17q-55 6 -94.5 -31.5t-52.5 -111.5l-29 4q15 87 63.5 129.5t116.5 36.5zM1352 1116h26v-55
q0 -109 -63 -199.5t-164 -132.5v-729h-27v180q-232 -200 -530 -200q-180 0 -284.5 109t-104.5 304v631h26v-631q0 -184 97.5 -286.5t265.5 -102.5q149 0 286.5 54.5t243.5 154.5v811h27v-268q92 42 146.5 124t54.5 181v55z" />
    <glyph glyph-name="Uhorndotbelow" unicode="&#x1ef0;" horiz-adv-x="1765" 
d="M1749 1505h27v-55q0 -123 -80 -223q-79 -98 -199 -125v-479q0 -305 -168 -473q-167 -170 -438 -170t-438.5 171t-167.5 472v811h28v-811q0 -289 158 -455q158 -162 420 -162q263 0 418 162q159 163 159 455v811h29v-306q110 30 181 119t71 203v55zM862 -373q18 18 38 0
q19 -16 9 -33q-2 -3 -6 -6q-20 -20 -38 -1t-3 40z" />
    <glyph glyph-name="uhorndotbelow" unicode="&#x1ef1;" horiz-adv-x="1355" 
d="M1352 1114h26v-53q0 -109 -63 -199.5t-164 -132.5v-729h-27v180q-232 -200 -530 -200q-180 0 -284.5 109t-104.5 304v631h26v-631q0 -184 97.5 -286.5t265.5 -102.5q149 0 286.5 54.5t243.5 154.5v811h27v-268q92 42 146.5 124t54.5 181v53zM657 -373q19 19 38 1
q18 -16 7 -34l-6 -6q-14 -20 -32 -4q-20 16 -10 38q1 2 3 5z" />
    <glyph glyph-name="Ygrave" unicode="&#x1ef2;" horiz-adv-x="1519" 
d="M1417 1434l-643 -893v-541h-29v541l-643 893h35l623 -865l622 865h35zM580 1864l211 -297h-31l-223 297h43z" />
    <glyph glyph-name="ygrave" unicode="&#x1ef3;" horiz-adv-x="1103" 
d="M373 1454l211 -297h-31l-223 297h43zM90 1024l471 -1024l455 1024h28l-503 -1135q-77 -169 -157.5 -238t-193.5 -71q-62 0 -129 25l11 22q58 -22 118 -22q103 2 178.5 68t147.5 227l31 67l-486 1057h29z" />
    <glyph glyph-name="Ydotbelow" unicode="&#x1ef4;" horiz-adv-x="1519" 
d="M1417 1434l-643 -893v-541h-29v541l-643 893h35l623 -865l622 865h35zM739 -373q18 18 38 0q19 -16 9 -33q-2 -3 -6 -6q-20 -20 -38 -1t-3 40z" />
    <glyph glyph-name="ydotbelow" unicode="&#x1ef5;" horiz-adv-x="1103" 
d="M90 1024l471 -1024l455 1024h28l-503 -1135q-77 -169 -157.5 -238t-193.5 -71q-62 0 -129 25l11 22q58 -22 118 -22q103 2 178.5 68t147.5 227l31 67l-486 1057h29zM788 -373q18 18 37 0q19 -16 8 -33q-2 -3 -6 -6q-12 -12 -27.5 -7t-19 18.5t7.5 27.5z" />
    <glyph glyph-name="Yhookabove" unicode="&#x1ef6;" horiz-adv-x="1519" 
d="M772 2054q92 0 148.5 -41t56.5 -112q0 -41 -22.5 -72t-67.5 -64l-29 -22l-47 -39q-41 -35 -41 -98h-27q0 30 11 59q6 18 19.5 36t22.5 26t38 30.5t36 28.5q45 32 62.5 56.5t17.5 58.5q0 60 -48 94.5t-130 34.5t-136 -37.5t-63 -100.5l-24 2q7 73 68.5 116.5t154.5 43.5z
M1415 1434l-643 -893v-541h-29v541l-643 893h35l623 -865l622 865h35z" />
    <glyph glyph-name="yhookabove" unicode="&#x1ef7;" horiz-adv-x="1103" 
d="M567 1606q93 0 149 -41.5t56 -112.5q0 -41 -22.5 -71.5t-67.5 -63.5q-69 -51 -85 -71q-30 -35 -30 -89h-26q0 39 8 60q16 36 35 53l22 18q5 5 60 49q44 32 61.5 56.5t17.5 58.5q0 60 -48 94.5t-130 34.5t-135.5 -37t-60.5 -100l-27 2q10 75 70 117.5t153 42.5zM88 1024
l471 -1024l455 1024h28l-503 -1135q-78 -174 -158.5 -240t-192.5 -69q-62 0 -129 25l11 22q58 -22 118 -22q103 2 178.5 68t147.5 227l31 67l-486 1057h29z" />
    <glyph glyph-name="Ytilde" unicode="&#x1ef8;" horiz-adv-x="1519" 
d="M604 1841q36 -6 64.5 -21.5t79.5 -54.5q50 -39 79.5 -54t65.5 -21q62 -8 108.5 30t65.5 113l29 -6q-20 -81 -77.5 -126.5t-129.5 -37.5q-42 6 -75 23t-83 59q-53 40 -76.5 53t-54.5 17q-54 6 -93 -31t-54 -113l-29 4q17 86 64.5 130t115.5 36zM1417 1434l-643 -893v-541
h-29v541l-643 893h35l623 -865l622 865h35z" />
    <glyph glyph-name="ytilde" unicode="&#x1ef9;" horiz-adv-x="1103" 
d="M397 1432q36 -6 64.5 -21.5t79.5 -54.5q48 -40 76 -55t69 -21q62 -8 108.5 30t65.5 113l29 -6q-20 -81 -77.5 -126.5t-129.5 -37.5q-42 6 -75 23t-83 59q-53 40 -76.5 53t-54.5 17q-55 6 -94.5 -31.5t-52.5 -111.5l-29 4q17 86 64.5 130t115.5 36zM90 1024l471 -1024
l455 1024h28l-503 -1135q-77 -169 -157.5 -238t-193.5 -71q-62 0 -129 25l11 22q58 -22 118 -22q103 2 178.5 68t147.5 227l31 67l-486 1057h29z" />
    <glyph glyph-name="endash" unicode="&#x2013;" horiz-adv-x="1122" 
d="M1022 545v-27h-920v27h920z" />
    <glyph glyph-name="emdash" unicode="&#x2014;" horiz-adv-x="1468" 
d="M1366 545v-25h-1264v25h1264z" />
    <glyph glyph-name="quoteleft" unicode="&#x2018;" horiz-adv-x="309" 
d="M231 1536l19 -8l-105 -182q19 -10 19 -29q0 -18 -15.5 -26t-31 0t-15.5 26q0 7 7 18z" />
    <glyph glyph-name="quoteright" unicode="&#x2019;" horiz-adv-x="309" 
d="M209 1505q0 -9 -6 -18l-123 -201l-19 8l105 183q-19 9 -19 28q0 18 15.5 26t31 0t15.5 -26z" />
    <glyph glyph-name="quotesinglbase" unicode="&#x201a;" horiz-adv-x="309" 
d="M209 8q0 -9 -6 -18l-123 -201l-19 8l105 183q-19 10 -19 28t15.5 26t31 0t15.5 -26z" />
    <glyph glyph-name="quotedblleft" unicode="&#x201c;" horiz-adv-x="530" 
d="M231 1536l19 -8l-105 -182q19 -10 19 -29q0 -18 -15.5 -26t-31 0t-15.5 26q0 7 7 18zM453 1536l18 -8l-104 -182q18 -9 18 -29q0 -19 -15.5 -27t-30.5 0t-15 27q0 6 4 18z" />
    <glyph glyph-name="quotedblright" unicode="&#x201d;" horiz-adv-x="530" 
d="M209 1505q0 -9 -6 -18l-123 -201l-19 8l105 183q-19 9 -19 28q0 18 15.5 26t31 0t15.5 -26zM430 1505q0 -9 -6 -18l-123 -201l-18 8l104 183q-18 9 -18 28q0 18 15.5 26t30.5 0.5t15 -26.5z" />
    <glyph glyph-name="quotedblbase" unicode="&#x201e;" horiz-adv-x="530" 
d="M209 8q0 -9 -6 -18l-123 -201l-19 8l105 183q-19 10 -19 28t15.5 26t31 0t15.5 -26zM430 8q0 -9 -6 -18l-123 -201l-18 8l104 183q-18 9 -18 28q0 18 15.5 26t30.5 0t15 -26z" />
    <glyph glyph-name="dagger" unicode="&#x2020;" horiz-adv-x="1212" 
d="M621 1454v-512h448v-27h-448v-1228h-29v1228h-449v27h449v512h29z" />
    <glyph glyph-name="daggerdbl" unicode="&#x2021;" horiz-adv-x="1212" 
d="M621 1454v-512h448v-27h-448v-690h448v-26h-448v-512h-29v512h-449v26h449v690h-449v27h449v512h29z" />
    <glyph glyph-name="bullet" unicode="&#x2022;" horiz-adv-x="532" 
d="M150 762q50 50 117 50t114 -50q49 -47 49 -114.5t-49 -117.5q-47 -47 -114 -47t-117 47q-47 50 -47 117.5t47 114.5z" />
    <glyph glyph-name="ellipsis" unicode="&#x2026;" horiz-adv-x="1140" 
d="M102 10q0 31 31 31t31 -31q0 -30 -31 -30t-31 30zM602 10q0 -19 -15 -27t-30.5 0t-15.5 27q0 18 15.5 26t30.5 0t15 -26zM1038 10q0 -19 -15 -27t-30.5 0t-15.5 27q0 18 15.5 26t30.5 0t15 -26z" />
    <glyph glyph-name="perthousand" unicode="&#x2030;" horiz-adv-x="2408" 
d="M1374 1468l-1100 -1503h-34l1099 1503h35zM403 1446q141 0 222.5 -97.5t81.5 -261.5t-82 -262q-81 -96 -222 -96q-137 0 -221 96q-80 100 -80 262q0 165 81 262t220 97zM403 1419q-126 0 -199 -89.5t-73 -242.5t72 -243q73 -88 200 -88q128 0 201 88q74 89 74 243
t-74 243t-201 89zM1526 346q0 -165 -81 -261.5t-222 -96.5q-139 0 -220 96.5t-81 261.5q0 164 81 261.5t220 97.5q141 0 222 -97.5t81 -261.5zM1784 606q82 99 221 99q141 0 221 -99q82 -94 82 -260q0 -164 -82 -262q-81 -96 -221 -96q-137 0 -221 96q-80 100 -80 262
q0 165 80 260zM1223 678q-126 0 -201 -90q-72 -90 -72 -242q0 -154 72 -244q73 -88 201 -88q127 0 200.5 89t73.5 243q0 153 -73.5 242.5t-200.5 89.5zM2206 588q-75 90 -201 90t-201 -90q-71 -89 -71 -242q0 -155 71 -244q73 -88 201 -88t201 88t73 244q0 154 -73 242z" />
    <glyph glyph-name="guilsinglleft" unicode="&#x2039;" horiz-adv-x="483" 
d="M401 903l23 -16l-285 -344l285 -344l-23 -17l-299 361z" />
    <glyph glyph-name="guilsinglright" unicode="&#x203a;" horiz-adv-x="483" 
d="M84 903l299 -360l-299 -361l-23 17l285 344l-285 344z" />
    <glyph glyph-name="fraction" unicode="&#x2044;" horiz-adv-x="1228" 
d="M993 1468l-946 -1503h-33l947 1503h32z" />
    <glyph glyph-name="zerosuperior" unicode="&#x2070;" horiz-adv-x="823" 
d="M721 1163q0 -165 -83.5 -264.5t-225.5 -99.5q-146 0 -228 98q-82 101 -82 266q0 166 82 264q82 101 228 101q142 0 225.5 -99.5t83.5 -265.5zM412 1503q-130 0 -207 -92q-74 -89 -74 -248t74 -248q78 -90 207 -90q131 0 205.5 90t74.5 248q0 156 -75 248t-205 92z" />
    <glyph glyph-name="foursuperior" unicode="&#x2074;" horiz-adv-x="649" 
d="M442 1516v-463h146v-25h-146v-221h-28v221h-394v25l396 463h26zM414 1473l-357 -420h357v420z" />
    <glyph glyph-name="fivesuperior" unicode="&#x2075;" horiz-adv-x="608" 
d="M489 1516v-25h-385v-297q75 57 185 57q103 0 174.5 -61t71.5 -158q0 -99 -76 -167t-187 -68q-148 0 -233 98l20 18q81 -90 213 -90q101 0 167.5 58.5t66.5 150.5q0 87 -61 141t-156 54q-122 0 -197 -78l-16 16v351h413z" />
    <glyph glyph-name="sixsuperior" unicode="&#x2076;" horiz-adv-x="706" 
d="M408 1528q119 0 213 -76l-17 -20q-89 71 -196 71q-123 0 -189.5 -93.5t-66.5 -262.5v-4q32 60 96.5 93.5t148.5 33.5q105 0 176.5 -67t71.5 -169q0 -103 -70.5 -169t-177.5 -66q-66 0 -116.5 23t-80 58t-47.5 83.5t-24 92t-6 91.5q0 180 74.5 281t210.5 100zM156 1069
q30 -246 241 -246q97 0 158 58t61 153q0 94 -61 152q-60 57 -158 57q-97 0 -163 -47.5t-78 -126.5z" />
    <glyph glyph-name="sevensuperior" unicode="&#x2077;" horiz-adv-x="544" 
d="M524 1516v-25l-399 -684h-33l400 684h-472v25h504z" />
    <glyph glyph-name="eightsuperior" unicode="&#x2078;" horiz-adv-x="737" 
d="M610 1352q0 -59 -37 -101t-102 -61q164 -47 164 -191q0 -87 -75 -143.5t-191 -56.5q-117 0 -192 56.5t-75 143.5q0 71 44 120.5t120 70.5q-64 19 -100.5 61t-36.5 101q0 75 68.5 125.5t171.5 50.5t172 -50.5t69 -125.5zM369 1501q-94 0 -152.5 -41.5t-58.5 -107.5
q0 -69 57 -109.5t154 -40.5q95 0 154 40.5t59 109.5q0 66 -59.5 107.5t-153.5 41.5zM369 1176q-26 0 -53.5 -3.5t-62 -15t-60.5 -29.5t-44 -51.5t-18 -77.5q0 -76 66.5 -125t171.5 -49q107 0 172 49t65 125q0 82 -63.5 129.5t-173.5 47.5z" />
    <glyph glyph-name="ninesuperior" unicode="&#x2079;" horiz-adv-x="706" 
d="M309 1528q79 0 136.5 -32.5t84.5 -90.5q54 -102 54 -225q0 -179 -74.5 -280t-210.5 -101q-120 0 -213 75l16 21q90 -72 197 -72q124 0 190 93t66 264v4q-32 -60 -98 -93.5t-148 -33.5q-109 0 -178.5 65.5t-69.5 169.5t69.5 170t178.5 66zM309 1503q-98 0 -158.5 -57.5
t-60.5 -153.5q0 -93 61 -151t158 -58t162.5 47.5t77.5 126.5q-30 246 -240 246z" />
    <glyph glyph-name="zeroinferior" unicode="&#x2080;" horiz-adv-x="823" 
d="M719 66q0 -166 -83.5 -265.5t-225.5 -99.5q-147 0 -228 100q-82 98 -82 262q0 167 82 265q81 100 228 100q142 0 225.5 -98.5t83.5 -263.5zM614 311q-74 92 -204 92t-207 -92q-74 -89 -74 -248q0 -156 74 -245q77 -92 207 -92t204 92q76 88 76 245q0 160 -76 248z" />
    <glyph glyph-name="oneinferior" unicode="&#x2081;" horiz-adv-x="339" 
d="M197 422v-709h-29v680l-148 -33v27l156 35h21z" />
    <glyph glyph-name="twoinferior" unicode="&#x2082;" horiz-adv-x="618" 
d="M293 432q93 0 158 -54t65 -138q0 -48 -28 -92t-105 -119l-293 -291h447v-25h-486v25l314 309q72 72 97 111t25 82q0 74 -56.5 121t-137.5 47q-82 0 -132.5 -31.5t-94.5 -104.5l-25 15q35 51 68 81t78.5 47t105.5 17z" />
    <glyph glyph-name="threeinferior" unicode="&#x2083;" horiz-adv-x="641" 
d="M504 420v-25l-277 -295q49 11 80 11q104 0 168 -50.5t64 -134.5q0 -102 -74 -163.5t-193 -61.5q-115 0 -231 78l16 20q107 -73 215 -73q109 0 173.5 54t64.5 146q0 73 -55 115.5t-148 42.5q-60 0 -127 -25l-10 23l295 311h-383v27h422z" />
    <glyph glyph-name="fourinferior" unicode="&#x2084;" horiz-adv-x="649" 
d="M442 422v-463h146v-25h-146v-221h-28v221h-394v25l396 463h26zM414 379l-357 -420h357v420z" />
    <glyph glyph-name="fiveinferior" unicode="&#x2085;" horiz-adv-x="608" 
d="M489 418v-25h-385v-295q76 58 185 58q104 0 175 -62.5t71 -159.5q0 -99 -76 -167t-187 -68q-149 0 -233 100l20 17q81 -90 213 -90q100 0 167 59t67 149t-61 142.5t-156 52.5q-122 0 -197 -78l-16 17v350h413z" />
    <glyph glyph-name="sixinferior" unicode="&#x2086;" horiz-adv-x="706" 
d="M408 430q117 0 213 -78l-17 -20q-89 71 -196 71q-124 0 -190 -93t-66 -261v-4q31 57 96.5 91t148.5 34q107 0 177.5 -65.5t70.5 -167.5q0 -104 -71 -171t-177 -67q-66 1 -116 24t-79.5 58t-48 83.5t-24.5 92.5t-6 92q0 179 74.5 280t210.5 101zM156 -29q30 -245 241 -245
q98 0 158 57q61 58 61 151q0 94 -61 152q-62 59 -158 59q-97 0 -163 -47.5t-78 -126.5z" />
    <glyph glyph-name="seveninferior" unicode="&#x2087;" horiz-adv-x="544" 
d="M524 422v-25l-399 -684h-33l400 682h-472v27h504z" />
    <glyph glyph-name="eightinferior" unicode="&#x2088;" horiz-adv-x="737" 
d="M610 254q0 -59 -37 -101t-102 -61q76 -21 120 -70t44 -120q0 -87 -75 -144t-191 -57t-191.5 57t-75.5 144q0 71 44 120t120 70q-64 19 -100.5 61t-36.5 101q0 75 68.5 125.5t171.5 50.5t172 -50.5t69 -125.5zM158 254q0 -71 56.5 -110.5t154.5 -39.5q95 0 154 40.5
t59 109.5q0 66 -59.5 107.5t-153.5 41.5q-93 0 -152 -41.5t-59 -107.5zM369 78q-27 0 -54 -3.5t-61.5 -14.5t-60.5 -29t-44 -51.5t-18 -77.5q0 -76 66.5 -126t171.5 -50q106 0 171.5 50.5t65.5 125.5q0 82 -63.5 129t-173.5 47z" />
    <glyph glyph-name="nineinferior" unicode="&#x2089;" horiz-adv-x="706" 
d="M309 430q80 0 137 -33t85.5 -88t40.5 -110.5t12 -116.5q0 -178 -74.5 -279.5t-210.5 -101.5q-119 0 -213 76l16 20q89 -71 197 -71q123 0 189.5 93.5t66.5 262.5v4q-32 -60 -98 -93.5t-148 -33.5q-109 0 -178.5 66.5t-69.5 169.5q0 104 69.5 169.5t178.5 65.5zM309 406
q-94 0 -157 -60q-62 -59 -62 -151q0 -93 62 -152q60 -57 157 -57t162.5 47.5t77.5 126.5q-30 246 -240 246z" />
    <glyph glyph-name="Euro" unicode="&#x20ac;" horiz-adv-x="1613" 
d="M1450 248l20 -17q-94 -117 -228 -184t-284 -67q-231 0 -411 149t-242 387h-203v27h197q-18 85 -18 174q0 73 12 143h-191v27h197q52 245 238 405q183 162 421 162q150 0 283.5 -66.5t228.5 -185.5l-22 -16q-93 116 -219 178.5t-271 62.5q-225 0 -401 -153
q-177 -151 -229 -387h759v-27h-765q-13 -76 -13 -143q0 -84 19 -174h759v-27h-753q61 -222 233 -366q176 -144 391 -144q145 0 271 62.5t221 179.5z" />
    <glyph glyph-name="trademark" unicode="&#x2122;" horiz-adv-x="1808" 
d="M657 1434v-25h-284v-739h-27v739h-285v25h596zM1706 1434v-764h-27v723l-391 -658h-24l-392 658v-723h-28v764h35l397 -668l397 668h33z" />
    <glyph glyph-name="oneeighth" unicode="&#x215b;" horiz-adv-x="1341" 
d="M999 1468l-946 -1503h-33l947 1503h32zM217 1434v-709h-29v680l-149 -33v27l156 35h22zM973 717q103 0 172 -50.5t69 -125.5q0 -59 -37 -101t-102 -61q76 -21 120 -70.5t44 -120.5q0 -86 -74 -143t-192 -57q-116 0 -191 56.5t-75 143.5q0 71 43.5 120.5t119.5 70.5
q-64 19 -100.5 61t-36.5 101q0 75 69.5 125.5t170.5 50.5zM762 541q0 -71 56.5 -110.5t154.5 -39.5t155.5 39.5t57.5 110.5q0 66 -59.5 107.5t-153.5 41.5q-93 0 -152 -41.5t-59 -107.5zM973 365q-26 0 -53.5 -3.5t-62 -15t-60.5 -29.5t-44 -51.5t-18 -77.5q0 -76 66.5 -126
t171.5 -50t171 50t66 126q0 82 -63.5 129.5t-173.5 47.5z" />
    <glyph glyph-name="threeeighths" unicode="&#x215c;" horiz-adv-x="1556" 
d="M1204 1468l-946 -1503h-35l948 1503h33zM504 1434v-25l-277 -293q36 8 80 8q104 0 168 -50t64 -134q0 -102 -74 -163.5t-193 -61.5q-115 0 -231 78l16 20q110 -72 215 -72q109 0 173.5 53.5t64.5 145.5q0 73 -55 115.5t-148 42.5q-60 0 -127 -25l-10 23l295 313h-383v25
h422zM1186 717q104 0 172.5 -50.5t68.5 -125.5q0 -60 -36 -101.5t-103 -60.5q79 -20 122.5 -70t43.5 -121q0 -87 -75 -143.5t-193 -56.5q-116 0 -191 56.5t-75 143.5q0 72 43 121.5t122 69.5q-67 19 -103 60.5t-36 101.5q0 75 69.5 125.5t170.5 50.5zM975 541
q0 -71 56.5 -110.5t154.5 -39.5t155.5 39.5t57.5 110.5q0 66 -59.5 107.5t-153.5 41.5q-93 0 -152 -41.5t-59 -107.5zM1186 365q-25 0 -52 -3.5t-61.5 -15t-61 -29.5t-45 -51.5t-18.5 -77.5q0 -75 66.5 -125.5t171.5 -50.5q107 0 173 50t66 126q0 82 -63.5 129.5
t-175.5 47.5z" />
    <glyph glyph-name="fiveeighths" unicode="&#x215d;" horiz-adv-x="1536" 
d="M1182 1468l-946 -1503h-35l948 1503h33zM489 1434v-25h-385v-297q75 57 185 57q105 0 175.5 -61t70.5 -158q0 -99 -76 -167t-187 -68q-148 0 -233 98l20 18q81 -90 213 -90q102 0 168 58.5t66 150.5q0 87 -61 141t-156 54q-122 0 -197 -78l-16 16v351h413zM1405 541
q0 -60 -36 -101.5t-103 -60.5q79 -20 122.5 -70t43.5 -121q0 -87 -75.5 -143.5t-193.5 -56.5q-116 0 -191 56.5t-75 143.5q0 71 43.5 121t122.5 70q-67 19 -103 60.5t-36 101.5q0 75 68 125.5t171 50.5q104 0 173 -50.5t69 -125.5zM952 541q0 -71 56.5 -110.5t154.5 -39.5
q96 0 154.5 40t58.5 110q0 66 -59.5 107.5t-153.5 41.5q-93 0 -152 -41.5t-59 -107.5zM1163 365q-34 0 -68.5 -6.5t-75.5 -23.5t-67 -55t-26 -92q0 -76 66 -126t171 -50q107 0 173.5 50t66.5 126q0 82 -64 129.5t-176 47.5z" />
    <glyph glyph-name="seveneighths" unicode="&#x215e;" horiz-adv-x="1351" 
d="M999 1468l-946 -1503h-33l947 1503h32zM539 1434v-25l-400 -684h-33l400 684h-471v25h504zM983 717q103 0 172.5 -50.5t69.5 -125.5q0 -59 -37.5 -101t-102.5 -61q76 -21 120 -70.5t44 -120.5q0 -86 -74 -143t-192 -57q-116 0 -191 56.5t-75 143.5q0 71 44 120.5
t120 70.5q-64 19 -101 61t-37 101q0 75 69.5 125.5t170.5 50.5zM772 541q0 -71 56.5 -110.5t154.5 -39.5t155.5 39.5t57.5 110.5q0 66 -59.5 107.5t-153.5 41.5q-93 0 -152 -41.5t-59 -107.5zM983 365q-26 0 -53.5 -3.5t-62 -15t-60.5 -29.5t-44 -51.5t-18 -77.5
q0 -76 66.5 -126t171.5 -50t171.5 50t66.5 126q0 82 -64 129.5t-174 47.5z" />
    <glyph glyph-name="partialdiff" unicode="&#x2202;" horiz-adv-x="1433" 
 />
    <glyph glyph-name="emptyset" unicode="&#x2205;" horiz-adv-x="1433" 
 />
    <glyph glyph-name="product" unicode="&#x220f;" horiz-adv-x="1433" 
 />
    <glyph glyph-name="summation" unicode="&#x2211;" horiz-adv-x="1433" 
 />
    <glyph glyph-name="minus" unicode="&#x2212;" horiz-adv-x="1171" 
d="M1069 618v-28h-967v28h967z" />
    <glyph glyph-name="radical" unicode="&#x221a;" horiz-adv-x="1433" 
 />
    <glyph glyph-name="infinity" unicode="&#x221e;" horiz-adv-x="1433" 
 />
    <glyph glyph-name="integral" unicode="&#x222b;" horiz-adv-x="1433" 
 />
    <glyph glyph-name="approxequal" unicode="&#x2248;" horiz-adv-x="1247" 
d="M385 893q58 -6 103.5 -30.5t123.5 -88.5q81 -64 126.5 -88t103.5 -31q99 -12 172 47.5t104 180.5l27 -6q-30 -126 -115 -193t-192 -55q-60 7 -110 33.5t-132 91.5q-80 63 -120 85.5t-95 26.5q-90 15 -160 -48.5t-90 -188.5l-29 4q25 135 101.5 204.5t181.5 55.5zM385 434
q58 -7 103.5 -32t123.5 -89q82 -63 127 -86.5t103 -29.5q99 -12 172 47.5t104 177.5l27 -6q-30 -126 -115 -193t-192 -53q-61 7 -111 33t-131 90q-71 61 -114.5 84.5t-100.5 30.5q-94 11 -160.5 -51.5t-89.5 -188.5l-29 6q25 134 101.5 203t181.5 57z" />
    <glyph glyph-name="notequal" unicode="&#x2260;" horiz-adv-x="1236" 
d="M1133 768h-416l-170 -358h586v-27h-598l-199 -418h-33l201 418h-404v27h416l170 358h-586v27h598l199 419h33l-201 -419h404v-27z" />
    <glyph glyph-name="lessequal" unicode="&#x2264;" horiz-adv-x="1169" 
d="M1067 1120v-30l-932 -406l932 -405v-31l-965 420v32zM1067 27v-27h-965v27h965z" />
    <glyph glyph-name="greaterequal" unicode="&#x2265;" horiz-adv-x="1169" 
d="M102 1120l965 -420v-32l-965 -420v31l932 405l-932 406v30zM1067 27v-27h-965v27h965z" />
    <glyph glyph-name="lozenge" unicode="&#x25ca;" horiz-adv-x="1228" 
 />
    <glyph glyph-name="NULL" horiz-adv-x="0" 
 />
    <glyph glyph-name="CR" horiz-adv-x="681" 
 />
    <glyph glyph-name="A.sc" horiz-adv-x="1130" 
d="M582 1024l487 -1024h-31l-149 311h-647l-150 -311h-31l488 1024h33zM565 995l-313 -659h625z" />
    <glyph glyph-name="AE.sc" horiz-adv-x="1411" 
d="M547 1024h741v-23h-696v-471h641v-22h-641v-485h715v-23h-744v311h-323l-150 -311h-31zM563 995l-313 -659h313v659z" />
    <glyph glyph-name="Aacute.sc" horiz-adv-x="1130" 
d="M582 1024l487 -1024h-31l-149 311h-647l-150 -311h-31l488 1024h33zM565 995l-313 -659h625zM788 1454l-223 -297h-30l210 297h43z" />
    <glyph glyph-name="Abreve.sc" horiz-adv-x="1130" 
d="M838 1442l28 -2q-10 -121 -91.5 -190.5t-211.5 -69.5t-211.5 69.5t-91.5 190.5l29 2q7 -110 81 -173t193 -63q118 0 191 63t84 173zM580 1024l487 -1024h-31l-149 311h-647l-150 -311h-31l488 1024h33zM563 995l-313 -659h624z" />
    <glyph glyph-name="Acaron.sc" horiz-adv-x="1130" 
d="M825 1454l-245 -297h-33l-246 297h31l231 -276l232 276h30zM580 1024l487 -1024h-31l-149 311h-647l-150 -311h-31l488 1024h33zM563 995l-313 -659h624z" />
    <glyph glyph-name="Acircumflex.sc" horiz-adv-x="1130" 
d="M582 1454l245 -297h-30l-232 277l-231 -277h-31l246 297h33zM582 1024l487 -1024h-31l-149 311h-647l-150 -311h-31l488 1024h33zM565 995l-313 -659h625z" />
    <glyph glyph-name="Acircumflexdotbelow.sc" horiz-adv-x="1130" 
d="M582 1454l245 -297h-30l-232 277l-231 -277h-31l246 297h33zM582 1024l487 -1024h-31l-149 311h-647l-150 -311h-31l488 1024h33zM565 995l-313 -659h625zM545 -373q18 18 37 0q19 -16 8 -33q-2 -3 -6 -6q-12 -12 -27.5 -7t-19 18.5t7.5 27.5z" />
    <glyph glyph-name="Adieresis.sc" horiz-adv-x="1130" 
d="M330 1346q13 13 28.5 7.5t19 -19.5t-6.5 -27q-21 -21 -38 -1t-3 40zM760 1346q13 13 28 7.5t18 -19.5t-7 -27q-14 -19 -34.5 -3t-9.5 36q2 3 5 6zM582 1024l487 -1024h-31l-149 311h-647l-150 -311h-31l488 1024h33zM565 995l-313 -659h625z" />
    <glyph glyph-name="Adieresismacron.sc" horiz-adv-x="1130" 
d="M330 1346q13 13 28.5 7.5t19 -19.5t-6.5 -27q-21 -21 -38 -1t-3 40zM760 1346q13 13 28 7.5t18 -19.5t-7 -27q-14 -19 -34.5 -3t-9.5 36q2 3 5 6zM582 1024l487 -1024h-31l-149 311h-647l-150 -311h-31l488 1024h33zM565 995l-313 -659h625zM825 1561v-25h-520v25h520z
" />
    <glyph glyph-name="Agrave.sc" horiz-adv-x="1130" 
d="M582 1024l487 -1024h-31l-149 311h-647l-150 -311h-31l488 1024h33zM565 995l-313 -659h625zM385 1454l211 -297h-31l-223 297h43z" />
    <glyph glyph-name="Amacron.sc" horiz-adv-x="1130" 
d="M582 1024l487 -1024h-31l-149 311h-647l-150 -311h-31l488 1024h33zM565 995l-313 -659h625zM825 1339v-24h-520v24h520z" />
    <glyph glyph-name="Aogonek.sc" horiz-adv-x="1130" 
d="M582 1024l487 -1024v-6l-63 -80q-68 -83 -68 -162q0 -67 49.5 -110t122.5 -43q83 0 143 57l21 -21q-69 -63 -164 -63q-86 0 -143.5 50.5t-57.5 129.5q0 83 74 178l55 70l-149 311h-647l-150 -311h-31l488 1024h33zM565 995l-313 -659h625z" />
    <glyph glyph-name="Aring.sc" horiz-adv-x="1130" 
d="M565 1536q91 0 156 -63t65 -152t-65 -152t-156 -63q-92 0 -156.5 63.5t-64.5 151.5t64.5 151.5t156.5 63.5zM565 1509q-77 0 -134.5 -56t-57.5 -132t57.5 -132t134.5 -56q80 0 136.5 55t56.5 133t-56.5 133t-136.5 55zM582 1024l487 -1024h-31l-149 311h-647l-150 -311
h-31l488 1024h33zM565 995l-313 -659h625z" />
    <glyph glyph-name="Atilde.sc" horiz-adv-x="1130" 
d="M410 1432q36 -6 64 -21t79 -55q51 -39 80 -54.5t65 -21.5q62 -8 108.5 30t65.5 113l29 -6q-20 -81 -77.5 -126.5t-129.5 -37.5q-42 6 -74.5 23t-82.5 59q-53 40 -76.5 53t-54.5 17q-55 6 -95 -31.5t-53 -111.5l-29 4q17 86 65 130t116 36zM582 1024l487 -1024h-31
l-149 311h-647l-150 -311h-31l488 1024h33zM565 995l-313 -659h625z" />
    <glyph glyph-name="B.sc" horiz-adv-x="1132" 
d="M205 0v1024h426q165 0 252.5 -64t87.5 -186q0 -183 -199 -235q129 -19 193.5 -91t64.5 -176q0 -122 -89 -197t-267 -75h-469zM233 1001v-456h398q150 0 230.5 58.5t80.5 170.5q0 227 -311 227h-398zM233 522v-499h441q165 0 246 67.5t81 181.5q0 115 -81 182.5t-246 67.5
h-441z" />
    <glyph glyph-name="Bdotbelow.sc" horiz-adv-x="1132" 
d="M205 0v1024h426q165 0 252.5 -64t87.5 -186q0 -183 -199 -235q129 -19 193.5 -91t64.5 -176q0 -122 -89 -197t-267 -75h-469zM233 1001v-456h398q150 0 230.5 58.5t80.5 170.5q0 227 -311 227h-398zM233 522v-499h441q165 0 246 67.5t81 181.5q0 115 -81 182.5t-246 67.5
h-441zM528 -373q18 18 37 0q19 -16 8 -33q-2 -3 -6 -6q-12 -12 -27.5 -7t-19 18.5t7.5 27.5z" />
    <glyph glyph-name="C.sc" horiz-adv-x="1198" 
d="M686 1044q120 0 227 -49t183 -135l-21 -16q-153 176 -389 176q-135 3 -256 -67t-192 -189t-68 -252q0 -206 152 -358q150 -150 364 -150q236 0 389 176l21 -16q-75 -86 -183.5 -135t-226.5 -49q-227 0 -385 155q-158 158 -158 377q0 217 158 375q160 157 385 157z" />
    <glyph glyph-name="Cacute.sc" horiz-adv-x="1198" 
d="M887 1454l-223 -297h-31l211 297h43zM686 1044q118 0 226.5 -49t183.5 -135l-21 -16q-153 176 -389 176q-214 0 -364 -150q-152 -152 -152 -358t152 -358q150 -150 364 -150q236 0 389 176l21 -16q-76 -87 -183 -135.5t-227 -48.5q-227 0 -385 155q-158 158 -158 377
q0 217 158 375q160 157 385 157z" />
    <glyph glyph-name="Ccaron.sc" horiz-adv-x="1198" 
d="M924 1454l-246 -297h-35l-244 297h29l234 -276l231 276h31zM684 1044q120 0 227 -49t183 -135l-21 -16q-153 176 -389 176q-135 3 -256 -67t-192 -189t-68 -252q0 -207 151 -358q150 -150 365 -150q236 0 389 176l21 -16q-75 -86 -183.5 -135t-226.5 -49q-227 0 -385 155
q-158 158 -158 377q0 217 158 375q160 157 385 157z" />
    <glyph glyph-name="Ccedilla.sc" horiz-adv-x="1198" 
d="M686 1044q118 0 226.5 -49t183.5 -135l-21 -16q-153 176 -389 176q-214 0 -364 -150q-152 -152 -152 -358t152 -358q150 -150 364 -150q236 0 389 176l21 -16q-75 -86 -183.5 -135t-226.5 -49q-58 0 -117 12l-49 -101q48 25 101 25q74 0 124 -45.5t50 -116.5
q0 -75 -58.5 -124.5t-146.5 -49.5q-110 0 -189 43l13 23q71 -39 176 -39q75 0 125.5 42t50.5 105q0 59 -41.5 97t-103.5 38q-81 0 -129 -51l-21 19l70 141q-175 50 -286.5 191t-111.5 323q0 217 158 375q160 157 385 157z" />
    <glyph glyph-name="Cdotaccent.sc" horiz-adv-x="1198" 
d="M643 1346q13 13 28 7.5t18 -19.5t-7 -27q-14 -19 -34.5 -3t-9.5 36q2 3 5 6zM686 1044q118 0 226.5 -49t183.5 -135l-21 -16q-153 176 -389 176q-214 0 -364 -150q-152 -152 -152 -358t152 -358q150 -150 364 -150q236 0 389 176l21 -16q-76 -87 -183 -135.5t-227 -48.5
q-227 0 -385 155q-158 158 -158 377q0 217 158 375q160 157 385 157z" />
    <glyph glyph-name="D.sc" horiz-adv-x="1259" 
d="M205 0v1024h373q224 0 380 -147q158 -149 158 -365t-158 -365q-156 -147 -380 -147h-373zM578 1001h-345v-978h345q212 0 360 139q149 140 149 350q0 211 -149 348q-147 141 -360 141z" />
    <glyph glyph-name="Dcaron.sc" horiz-adv-x="1259" 
d="M864 1454l-246 -297h-32l-246 297h31l231 -276l232 276h30zM203 0v1024h372q225 0 381 -147q158 -149 158 -365t-158 -365q-156 -147 -381 -147h-372zM575 1001h-344v-978h344q213 0 361 139q149 140 149 350q0 211 -149 348q-147 141 -361 141z" />
    <glyph glyph-name="Dcircumflexbelow.sc" horiz-adv-x="1259" 
d="M596 -123l246 -297h-31l-233 277l-232 -277h-31l246 297h35zM205 0v1024h373q224 0 380 -147q158 -149 158 -365t-158 -365q-156 -147 -380 -147h-373zM578 1001h-345v-978h345q212 0 360 139q149 140 149 350q0 211 -149 348q-147 141 -360 141z" />
    <glyph glyph-name="Dcroat.sc" horiz-adv-x="1259" 
d="M205 524v500h373q224 0 380 -147q158 -149 158 -365t-158 -365q-156 -147 -380 -147h-373v500h-205v24h205zM233 500v-477h345q212 0 360 139q149 140 149 350q0 211 -149 348q-147 141 -360 141h-345v-477h463v-24h-463z" />
    <glyph glyph-name="Ddotbelow.sc" horiz-adv-x="1259" 
d="M205 0v1024h373q224 0 380 -147q158 -149 158 -365t-158 -365q-156 -147 -380 -147h-373zM578 1001h-345v-978h345q212 0 360 139q149 140 149 350q0 211 -149 348q-147 141 -360 141zM559 -373q18 18 37 0q19 -16 8 -33q-2 -3 -6 -6q-12 -12 -27.5 -7t-19 18.5t7.5 27.5
z" />
    <glyph glyph-name="Dlinebelow.sc" horiz-adv-x="1259" 
d="M205 0v1024h373q224 0 380 -147q158 -149 158 -365t-158 -365q-156 -147 -380 -147h-373zM578 1001h-345v-978h345q212 0 360 139q149 140 149 350q0 211 -149 348q-147 141 -360 141zM838 -297v-25h-521v25h521z" />
    <glyph glyph-name="E.sc" horiz-adv-x="1050" 
d="M932 1024v-23h-699v-471h644v-22h-644v-485h715v-23h-743v1024h727z" />
    <glyph glyph-name="Eacute.sc" horiz-adv-x="1050" 
d="M930 1024v-23h-699v-471h643v-22h-643v-485h715v-23h-743v1024h727zM799 1454l-224 -297h-30l211 297h43z" />
    <glyph glyph-name="Ecaron.sc" horiz-adv-x="1050" 
d="M838 1454l-246 -297h-33l-246 297h31l231 -276l232 276h31zM930 1024v-23h-699v-471h643v-22h-643v-485h715v-23h-743v1024h727z" />
    <glyph glyph-name="Ecircumflex.sc" horiz-adv-x="1050" 
d="M594 1454l246 -297h-31l-231 277l-232 -277h-31l246 297h33zM932 1024v-23h-699v-471h644v-22h-644v-485h715v-23h-743v1024h727z" />
    <glyph glyph-name="Ecircumflexdotbelow.sc" horiz-adv-x="1050" 
d="M594 1454l246 -297h-31l-231 277l-232 -277h-31l246 297h33zM932 1024v-23h-699v-471h644v-22h-644v-485h715v-23h-743v1024h727zM506 -373q18 18 38 0q19 -16 9 -33q-2 -3 -6 -6q-20 -20 -38 -1t-3 40z" />
    <glyph glyph-name="Edieresis.sc" horiz-adv-x="1050" 
d="M340 1346q13 13 28.5 7.5t19 -19.5t-6.5 -27q-21 -21 -38 -1t-3 40zM770 1346q13 13 28 7.5t18 -19.5t-7 -27q-14 -19 -34.5 -3t-9.5 36q2 3 5 6zM930 1024v-23h-699v-471h643v-22h-643v-485h715v-23h-743v1024h727z" />
    <glyph glyph-name="Edotaccent.sc" horiz-adv-x="1050" 
d="M557 1346q13 13 28.5 7.5t19 -19.5t-6.5 -27q-13 -13 -28.5 -7.5t-19 19.5t6.5 27zM932 1024v-23h-699v-471h644v-22h-644v-485h715v-23h-743v1024h727z" />
    <glyph glyph-name="Edotbelow.sc" horiz-adv-x="1050" 
d="M932 1024v-23h-699v-471h644v-22h-644v-485h715v-23h-743v1024h727zM506 -373q19 19 38 1q18 -16 7 -34l-6 -6q-14 -20 -32 -4q-20 16 -10 38q1 2 3 5z" />
    <glyph glyph-name="Egrave.sc" horiz-adv-x="1050" 
d="M932 1024v-23h-699v-471h644v-22h-644v-485h715v-23h-743v1024h727zM397 1454l211 -297h-30l-224 297h43z" />
    <glyph glyph-name="Emacron.sc" horiz-adv-x="1050" 
d="M932 1024v-23h-699v-471h644v-22h-644v-485h715v-23h-743v1024h727zM838 1339v-24h-521v24h521z" />
    <glyph glyph-name="Eogonek.sc" horiz-adv-x="1050" 
d="M932 1024v-23h-699v-471h644v-22h-644v-485h715v-23h-213l-53 -66q-66 -84 -66 -161q0 -67 48.5 -110.5t121.5 -43.5q86 0 146 57l18 -20q-70 -64 -164 -64q-83 0 -140.5 51.5t-57.5 129.5q0 83 71 178l39 49h-493v1024h727z" />
    <glyph glyph-name="Eth.sc" horiz-adv-x="1259" 
d="M205 524v500h373q224 0 380 -147q158 -149 158 -365t-158 -365q-156 -147 -380 -147h-373v500h-205v24h205zM233 500v-477h345q212 0 360 139q149 140 149 350q0 211 -149 348q-147 141 -360 141h-345v-477h463v-24h-463z" />
    <glyph glyph-name="Etilde.sc" horiz-adv-x="1050" 
d="M420 1432q36 -6 64 -21t79 -55q50 -39 80 -54.5t66 -21.5q62 -8 108.5 30t65.5 113l28 -6q-20 -82 -77 -127t-129 -37q-42 6 -75 23t-83 59q-53 40 -76.5 53t-54.5 17q-55 6 -95 -31.5t-53 -111.5l-28 4q17 86 64.5 130t115.5 36zM930 1024v-23h-699v-471h643v-22h-643
v-485h715v-23h-743v1024h727z" />
    <glyph glyph-name="F.sc" horiz-adv-x="995" 
d="M893 1024v-23h-660v-491h605v-23h-605v-487h-28v1024h688z" />
    <glyph glyph-name="G.sc" horiz-adv-x="1296" 
d="M686 1044q211 0 363 -137l-19 -18q-146 131 -344 131q-214 0 -364 -150q-152 -152 -152 -358t152 -358q150 -150 364 -150q221 0 387 146l2 319h-393v25h420l-2 -355q-170 -159 -414 -159q-227 0 -385 155q-158 158 -158 375q0 219 158 377q160 157 385 157z" />
    <glyph glyph-name="Gbreve.sc" horiz-adv-x="1296" 
d="M686 1044q211 0 363 -137l-19 -18q-146 131 -344 131q-214 0 -364 -150q-152 -152 -152 -358t152 -358q150 -150 364 -150q221 0 387 146l2 319h-393v25h420l-2 -355q-170 -159 -414 -159q-227 0 -385 155q-158 158 -158 375q0 219 158 377q160 157 385 157zM932 1442
l29 -2q-7 -121 -90 -190.5t-214 -69.5q-130 0 -212 69.5t-89 190.5l29 2q7 -110 81 -173t193 -63q117 0 193 63t80 173z" />
    <glyph glyph-name="Gcaron.sc" horiz-adv-x="1296" 
d="M920 1454l-246 -297h-35l-246 297h31l233 -276l232 276h31zM684 1044q211 0 363 -137l-19 -18q-146 131 -344 131q-215 0 -365 -150q-151 -151 -151 -358t151 -358q150 -150 365 -150q221 0 387 146l2 319h-393v25h420l-2 -355q-170 -159 -414 -159q-227 0 -385 155
q-158 158 -158 375q0 219 158 377q160 157 385 157z" />
    <glyph glyph-name="Gcommaaccent.sc" horiz-adv-x="1296" 
d="M686 1044q211 0 363 -137l-19 -18q-146 131 -344 131q-214 0 -364 -150q-152 -152 -152 -358t152 -358q150 -150 364 -150q221 0 387 146l2 319h-393v25h420l-2 -355q-170 -159 -414 -159q-227 0 -385 155q-158 158 -158 375q0 219 158 377q160 157 385 157zM690 -170
q14 0 22.5 -9t8.5 -22q0 -9 -6 -18l-123 -201l-19 8l105 183q-19 9 -19 28q0 13 9.5 22t21.5 9z" />
    <glyph glyph-name="Gdotaccent.sc" horiz-adv-x="1296" 
d="M639 1346q19 19 38.5 -0.5t0.5 -38.5t-38.5 0.5t-0.5 38.5zM686 1044q211 0 363 -137l-19 -18q-146 131 -344 131q-214 0 -364 -150q-152 -152 -152 -358t152 -358q150 -150 364 -150q221 0 387 146l2 319h-393v25h420l-2 -355q-170 -159 -414 -159q-227 0 -385 155
q-158 158 -158 375q0 219 158 377q160 157 385 157z" />
    <glyph glyph-name="H.sc" horiz-adv-x="1269" 
d="M1065 1024v-1024h-29v508h-803v-508h-28v1024h28v-494h803v494h29z" />
    <glyph glyph-name="Hbar.sc" horiz-adv-x="1269" 
d="M1270 809v-25h-205v-784h-29v508h-803v-508h-28v784h-205v25h205v215h28v-215h803v215h29v-215h205zM1036 530v254h-803v-254h803z" />
    <glyph glyph-name="Hdotbelow.sc" horiz-adv-x="1269" 
d="M1065 1024v-1024h-29v508h-803v-508h-28v1024h28v-494h803v494h29zM616 -373q18 18 37 0q19 -16 8 -33q-2 -3 -6 -6q-12 -12 -27.5 -7t-19 18.5t7.5 27.5z" />
    <glyph glyph-name="I.sc" horiz-adv-x="438" 
d="M233 1024v-1024h-28v1024h28z" />
    <glyph glyph-name="IJ.sc" horiz-adv-x="1341" 
d="M1110 1024h27v-686q0 -170 -89 -264t-239 -94q-183 0 -309 126l18 19q121 -121 291 -121q139 0 220 87.5t81 246.5v686zM233 1024v-1024h-28v1024h28z" />
    <glyph glyph-name="Iacute.sc" horiz-adv-x="438" 
d="M442 1454l-223 -297h-31l211 297h43zM233 1024v-1024h-28v1024h28z" />
    <glyph glyph-name="Icircumflex.sc" horiz-adv-x="438" 
d="M236 1454l245 -297h-30l-232 277l-231 -277h-31l246 297h33zM233 1024v-1024h-28v1024h28z" />
    <glyph glyph-name="Idieresis.sc" horiz-adv-x="438" 
d="M-14 1346q14 19 34.5 3t9.5 -36q-2 -3 -5 -6q-13 -13 -28 -7.5t-18 19.5t7 27zM414 1346q13 13 28 7.5t18 -19.5t-7 -27q-14 -19 -34.5 -3t-9.5 36q2 3 5 6zM233 1024v-1024h-28v1024h28z" />
    <glyph glyph-name="Idieresisacute.sc" horiz-adv-x="438" 
d="M442 1751l-223 -297h-31l211 297h43zM-14 1290q14 19 34.5 3t9.5 -36q-2 -3 -5 -6q-20 -20 -39 0t0 39zM414 1290q13 13 28 7.5t18 -19.5t-7 -27q-14 -19 -34.5 -3t-9.5 36q2 3 5 6zM233 1024v-1024h-28v1024h28z" />
    <glyph glyph-name="Idotaccent.sc" horiz-adv-x="438" 
d="M197 1346q13 13 28 7.5t18 -19.5t-7 -27q-13 -20 -32 -4q-20 17 -10 38zM231 1024v-1024h-28v1024h28z" />
    <glyph glyph-name="Igrave.sc" horiz-adv-x="438" 
d="M39 1454l211 -297h-31l-223 297h43zM233 1024v-1024h-28v1024h28z" />
    <glyph glyph-name="Imacron.sc" horiz-adv-x="438" 
d="M236 1024v-1024h-29v1024h29zM481 1339v-24h-520v24h520z" />
    <glyph glyph-name="Iogonek.sc" horiz-adv-x="438" 
d="M231 1024v-1032l-61 -78q-66 -84 -66 -162q0 -67 48.5 -110t121.5 -43q84 0 144 57l20 -21q-69 -63 -164 -63q-85 0 -141.5 50.5t-56.5 129.5q0 83 71 178l56 70v1024h28z" />
    <glyph glyph-name="Itilde.sc" horiz-adv-x="438" 
d="M66 1432q36 -6 64 -21t79 -55q51 -39 80 -54.5t65 -21.5q62 -8 108.5 30t65.5 113l29 -6q-20 -81 -77.5 -126.5t-129.5 -37.5q-42 6 -74.5 23t-82.5 59q-53 39 -77 52.5t-55 17.5q-55 6 -94.5 -31.5t-52.5 -111.5l-29 4q17 86 65 130t116 36zM236 1024v-1024h-29v1024h29
z" />
    <glyph glyph-name="J.sc" horiz-adv-x="903" 
d="M672 1024h26v-686q0 -171 -88.5 -264.5t-238.5 -93.5q-184 0 -310 126l19 19q121 -121 291 -121q139 0 220 87.5t81 246.5v686z" />
    <glyph glyph-name="K.sc" horiz-adv-x="1079" 
d="M987 1024l-407 -393l438 -631h-33l-426 610l-326 -313v-297h-28v1024h28v-692l715 692h39z" />
    <glyph glyph-name="Kcommaaccent.sc" horiz-adv-x="1079" 
d="M987 1024l-407 -393l438 -631h-33l-426 610l-326 -313v-297h-28v1024h28v-692l715 692h39zM614 -201q0 -9 -6 -18l-123 -201l-18 8l104 183q-18 9 -18 28t15.5 27t30.5 0t15 -27z" />
    <glyph glyph-name="L.sc" horiz-adv-x="917" 
d="M233 1024v-1001h623v-23h-651v1024h28z" />
    <glyph glyph-name="Lacute.sc" horiz-adv-x="917" 
d="M702 1454l-223 -297h-30l210 297h43zM233 1024v-1001h623v-23h-651v1024h28z" />
    <glyph glyph-name="Lcaron.sc" horiz-adv-x="917" 
d="M741 1014q0 -7 -4 -19l-125 -200l-18 8l104 182q-18 9 -18 29q0 18 15 26t30.5 0t15.5 -26zM233 1024v-1001h623v-23h-651v1024h28z" />
    <glyph glyph-name="Lcircumflexbelow.sc" horiz-adv-x="917" 
d="M233 1024v-1001h623v-23h-651v1024h28zM520 -123l246 -297h-31l-231 277l-232 -277h-30l245 297h33z" />
    <glyph glyph-name="Lcommaaccent.sc" horiz-adv-x="917" 
d="M578 -201q0 -7 -7 -18l-122 -201l-19 8l105 183q-19 9 -19 28t15.5 27t31 0t15.5 -27zM233 1024v-1001h623v-23h-651v1024h28z" />
    </font>
</defs>
</svg>
