<?xml version="1.0" standalone="no"?>
<!DOCTYPE svg PUBLIC "-//W3C//DTD SVG 1.1//EN" "http://www.w3.org/Graphics/SVG/1.1/DTD/svg11.dtd" >
<svg xmlns="http://www.w3.org/2000/svg" xmlns:xlink="http://www.w3.org/1999/xlink" version="1.1">
<metadata>
Created by FontForge 20170731 at Fri Nov 12 15:52:57 2021
 By Aleksey,,,
Copyright (c) 2014 by Jonathan Hill. All rights reserved.
</metadata>
<defs>
<font id="Loew-ExtraBold" horiz-adv-x="1236" >
  <font-face 
    font-family="Loew ExtraBold"
    font-weight="800"
    font-stretch="normal"
    units-per-em="2048"
    panose-1="0 0 9 0 0 0 0 0 0 0"
    ascent="1583"
    descent="-465"
    x-height="1024"
    cap-height="1434"
    bbox="-156 -623 2619 2431"
    underline-thickness="102"
    underline-position="-307"
    unicode-range="U+0020-FB02"
  />
<missing-glyph horiz-adv-x="1024" 
d="M1024 0h-1024v1434h1024v-1434zM164 1331l348 -522l348 522h-696zM922 1239l-349 -522l349 -522v1044zM512 625l-348 -523h696zM451 717l-349 522v-1044z" />
    <glyph glyph-name="fi" unicode="fi" horiz-adv-x="1429" 
d="M557 1454q122 0 258 -43l-39 -188q-68 26 -127 26q-71 -2 -114 -43t-43 -114v-68h796v-1024h-305v793h-491v-793h-306v793h-141v231h141v76q0 176 101 265t270 89z" />
    <glyph glyph-name="fl" unicode="fl" horiz-adv-x="1396" 
d="M557 1454q86 0 170 -20h551v-1434h-305v1223h-197q-68 26 -127 26q-71 -2 -114 -43t-43 -114v-68h276v-231h-276v-793h-306v793h-141v231h141v76q0 176 101 265t270 89z" />
    <glyph glyph-name="f_f" unicode="ff" horiz-adv-x="1654" 
d="M557 1454q122 0 258 -43l-39 -188q-68 26 -127 26q-71 -2 -114 -43t-43 -114v-68h522v76q0 94 29.5 164t81.5 110.5t117 60t142 19.5q122 0 258 -43l-38 -188q-68 26 -127 26q-71 -2 -114.5 -43t-43.5 -114v-68h276v-231h-276v-793h-305v793h-522v-793h-306v793h-141v231
h141v76q0 176 101 265t270 89z" />
    <glyph glyph-name="f_f_i" unicode="ffi" horiz-adv-x="2256" 
d="M557 1454q122 0 258 -43l-39 -188q-68 26 -127 26q-71 -2 -114 -43t-43 -114v-68h522v76q0 94 29.5 164t81.5 110.5t117 60t142 19.5q122 0 258 -43l-38 -188q-68 26 -127 26q-71 -2 -114.5 -43t-43.5 -114v-68h797v-1024h-306v793h-491v-793h-305v793h-522v-793h-306
v793h-141v231h141v76q0 176 101 265t270 89z" />
    <glyph glyph-name="f_f_l" unicode="ffl" horiz-adv-x="2224" 
d="M557 1454q122 0 258 -43l-39 -188q-68 26 -127 26q-71 -2 -114 -43t-43 -114v-68h522v76q0 176 100.5 265t269.5 89q86 0 170 -20h551v-1434h-305v1223h-196q-68 26 -127 26q-71 -2 -114.5 -43t-43.5 -114v-68h276v-231h-276v-793h-305v793h-522v-793h-306v793h-141v231
h141v76q0 176 101 265t270 89z" />
    <glyph glyph-name=".notdef" horiz-adv-x="1024" 
d="M1024 0h-1024v1434h1024v-1434zM164 1331l348 -522l348 522h-696zM922 1239l-349 -522l349 -522v1044zM512 625l-348 -523h696zM451 717l-349 522v-1044z" />
    <glyph glyph-name=".null" horiz-adv-x="0" 
 />
    <glyph glyph-name="nonmarkingreturn" horiz-adv-x="682" 
 />
    <glyph glyph-name="space" unicode=" " horiz-adv-x="512" 
 />
    <glyph glyph-name="exclam" unicode="!" horiz-adv-x="495" 
d="M420 1434l-31 -1035h-283l-30 1035h344zM414 119q0 -59 -49 -100.5t-117 -41.5q-51 -3 -92 23.5t-59 64.5t-10.5 81.5t44.5 72.5q35 34 86 41t95 -9t74.5 -52t27.5 -80z" />
    <glyph glyph-name="quotedbl" unicode="&#x22;" horiz-adv-x="782" 
d="M311 1454l-20 -532h-199l-20 532h239zM709 1454l-21 -532h-199l-20 532h240z" />
    <glyph glyph-name="numbersign" unicode="#" horiz-adv-x="1536" 
d="M1300 1434l-55 -312h232l-41 -233h-232l-57 -324h231l-41 -233h-231l-57 -332h-238l57 332h-342l-57 -332h-238l58 332h-232l41 233h232l57 324h-231l41 233h231l55 312h238l-55 -312h342l55 312h237zM967 889h-342l-58 -324h342z" />
    <glyph glyph-name="dollar" unicode="$" horiz-adv-x="1449" 
d="M586 1675h272v-229q260 -27 457 -150l-137 -252q-117 63 -248 99.5t-240 36.5q-78 -3 -128 -36t-50 -102q0 -33 18.5 -53.5t75.5 -42.5t174 -53l138 -41q151 -40 227 -86q116 -71 147 -129q54 -89 54 -203q0 -192 -124 -307t-343 -139l-21 -2v-228h-272v236
q-274 34 -488 180l148 244q266 -160 561 -160q83 0 138.5 34t55.5 101q0 79 -51 105q-52 31 -233 80l-29 6q-126 34 -191 55t-132 53q-104 50 -152.5 121t-52.5 188q0 185 114 298t312 143v233z" />
    <glyph glyph-name="percent" unicode="%" horiz-adv-x="1849" 
d="M1608 1468l-1100 -1503h-272l1099 1503h273zM152 1343q95 109 264 109q171 0 266 -109q96 -110 96 -288q0 -181 -96 -291q-94 -107 -266 -107q-170 0 -264 107q-95 109 -95 291q0 179 95 288zM418 1266q-68 0 -109 -57.5t-41 -153.5t41.5 -153.5t108.5 -57.5
q66 0 106.5 57.5t40.5 153.5t-40.5 153.5t-106.5 57.5zM1163 668q95 108 264 108q173 0 267 -108q96 -110 96 -289t-96 -289q-93 -106 -267 -106q-171 0 -264 106q-96 110 -96 289t96 289zM1280 381q0 -98 40.5 -154.5t109.5 -56.5q66 0 106 55q41 59 41 154q0 97 -41 156
q-39 57 -109 57q-66 0 -106.5 -57.5t-40.5 -153.5z" />
    <glyph glyph-name="ampersand" unicode="&#x26;" horiz-adv-x="1570" 
d="M784 1454q158 0 271 -94q116 -91 116 -238q0 -128 -56.5 -211t-168.5 -143l-69 -35l233 -254q71 84 133 238l213 -103q-68 -188 -168 -315l150 -158l-230 -170l-106 121q-173 -135 -406 -147q-146 -8 -273 39.5t-207 144t-85 221.5q-12 241 315 416l37 18l-26 31
q-62 74 -85.5 127.5t-23.5 126.5q0 72 25 135t68 109t99 79t118.5 48.5t125.5 13.5zM776 1241q-70 0 -120 -43.5t-50 -114.5q0 -11 1 -20.5t2 -16.5t5.5 -16t6 -13.5t10 -15.5t11.5 -15t16 -20t18 -22l39 -43l102 49q52 25 79.5 60t27.5 96q0 59 -43.5 97t-104.5 38z
M918 293l-269 305l-45 -23q-168 -82 -162 -196q4 -85 76 -135t178 -45q134 6 222 94z" />
    <glyph glyph-name="quotesingle" unicode="'" horiz-adv-x="385" 
d="M311 1454l-20 -532h-199l-20 532h239z" />
    <glyph glyph-name="parenleft" unicode="(" horiz-adv-x="616" 
d="M305 1528l258 -125q-67 -150 -114 -359q-48 -215 -48 -405q0 -196 48 -414q50 -214 120 -360l-260 -127q-99 169 -170 422q-67 247 -67 479q0 228 65 473q69 249 168 416z" />
    <glyph glyph-name="parenright" unicode=")" horiz-adv-x="616" 
d="M49 1403l258 125q99 -167 168 -416q68 -245 68 -473q0 -232 -70 -479q-68 -249 -168 -422l-260 127q68 141 119 360q49 209 49 414q0 194 -47 405q-47 209 -117 359z" />
    <glyph glyph-name="asterisk" unicode="*" horiz-adv-x="782" 
d="M481 1454l-6 -186l176 63l56 -174l-179 -53l115 -148l-149 -106l-105 154l-104 -154l-150 106l115 148l-178 53l55 174l176 -63l-6 186h184z" />
    <glyph glyph-name="plus" unicode="+" horiz-adv-x="1103" 
d="M1028 690v-233h-362v-361h-234v361h-360v233h360v363h234v-363h362z" />
    <glyph glyph-name="comma" unicode="," horiz-adv-x="471" 
d="M399 119q0 -39 -20 -72l-242 -356l-90 41l115 260q-42 19 -66 52.5t-24 74.5q0 60 48 100.5t116 40.5t115.5 -40.5t47.5 -100.5z" />
    <glyph glyph-name="hyphen" unicode="-" horiz-adv-x="854" 
d="M778 659v-256h-706v256h706z" />
    <glyph glyph-name="period" unicode="." horiz-adv-x="473" 
d="M119 219q50 41 117 41t114 -41q50 -41 50 -100.5t-50 -100.5q-47 -41 -114 -41t-117 41q-47 41 -47 100.5t47 100.5z" />
    <glyph glyph-name="slash" unicode="/" horiz-adv-x="1091" 
d="M1038 1468l-716 -1503h-271l715 1503h272z" />
    <glyph glyph-name="zero" unicode="0" horiz-adv-x="1484" 
d="M268 1219q176 194 473 194q298 0 471 -194q174 -192 174 -523q0 -330 -174 -522q-173 -194 -471 -194q-297 0 -473 194q-172 193 -172 522q0 330 172 523zM969 1006q-83 114 -230 114q-145 0 -227 -114q-82 -113 -82 -310q0 -196 82 -309q83 -115 227 -115q147 0 230 115
q84 116 84 309q0 194 -84 310z" />
    <glyph glyph-name="one" unicode="1" horiz-adv-x="823" 
d="M682 1393v-1393h-328v1104l-252 -55l-59 245l381 99h258z" />
    <glyph glyph-name="two" unicode="2" 
d="M635 1413q102 2 195.5 -27.5t165 -85t114 -142.5t41.5 -191q0 -120 -78 -230q-79 -109 -268 -258l-230 -213h599v-266h-1104v248l614 493q73 61 102 107t29 98q0 83 -56 131.5t-145 48.5q-194 0 -344 -184l-207 174q97 144 246.5 220.5t325.5 76.5z" />
    <glyph glyph-name="three" unicode="3" horiz-adv-x="1277" 
d="M1135 1393v-236l-377 -344q70 0 135 -18q134 -32 210.5 -123t76.5 -219q0 -220 -154 -347q-153 -126 -401 -126q-291 0 -562 198l201 207q74 -61 164.5 -94t177.5 -31q112 0 179 55t67 152q0 81 -66 123.5t-172 42.5q-95 0 -217 -35l-53 174l389 354h-575v267h977z" />
    <glyph glyph-name="four" unicode="4" horiz-adv-x="1366" 
d="M1106 1393v-852h203v-244h-203v-297h-326v297h-688l-41 256l680 840h375zM780 1018l-383 -477h383v477z" />
    <glyph glyph-name="five" unicode="5" horiz-adv-x="1261" 
d="M1116 1393v-267h-651l-4 -280q103 53 229 53q220 0 357 -113q139 -115 139 -331q0 -225 -156 -351q-154 -124 -387 -124q-166 0 -319.5 62.5t-260.5 178.5l170 191q78 -77 177.5 -117.5t199.5 -40.5q111 2 180.5 62t69.5 161q0 91 -66.5 149t-164.5 58q-173 0 -277 -104
l-207 104l29 709h942z" />
    <glyph glyph-name="six" unicode="6" horiz-adv-x="1298" 
d="M717 1413q251 0 457 -141l-136 -207q-125 88 -282 88q-142 0 -224 -90.5t-94 -257.5l-2 -43q121 133 342 133q213 0 334 -121t121 -299q0 -96 -37.5 -184.5t-104.5 -158t-170.5 -111t-226.5 -41.5q-104 0 -191 23t-147.5 62t-107.5 94.5t-75 115t-46 129.5t-24.5 132.5
t-6.5 129.5q0 356 161 553.5t460 193.5zM692 690q-104 0 -175 -53t-83 -141q34 -273 258 -273q103 0 168.5 65t65.5 169q0 105 -66 169t-168 64z" />
    <glyph glyph-name="seven" unicode="7" horiz-adv-x="1177" 
d="M1137 1393v-258l-645 -1135h-369l643 1112h-709v281h1080z" />
    <glyph glyph-name="eight" unicode="8" horiz-adv-x="1351" 
d="M1206 1044q0 -105 -60 -185.5t-169 -123.5q132 -48 203 -138.5t71 -213.5q0 -177 -161 -289q-159 -114 -416 -114q-254 0 -418 114q-160 115 -160 289q0 123 71.5 213.5t203.5 138.5q-107 43 -167.5 124t-60.5 185q0 160 150 265q149 104 381 104t381 -104
q151 -106 151 -265zM444 997q0 -87 63 -136.5t167 -49.5t166.5 49.5t62.5 136.5q0 78 -64.5 131.5t-164.5 53.5q-98 0 -164 -54t-66 -131zM674 623q-44 0 -87 -11t-81.5 -34t-62 -64.5t-23.5 -95.5q0 -87 71 -144t183 -57q114 0 184 57.5t70 143.5q0 94 -68.5 148.5
t-185.5 56.5z" />
    <glyph glyph-name="nine" unicode="9" horiz-adv-x="1298" 
d="M602 1413q105 0 191.5 -23t147.5 -62t107.5 -94.5t75 -114.5t46 -129t24 -132t6.5 -129q0 -352 -160 -553q-156 -199 -458 -196q-254 0 -459 141l137 207q125 -88 281 -88q138 0 218 86.5t97 246.5q4 36 4 60q-120 -135 -342 -135q-214 0 -334 120q-121 121 -121 300
q0 97 37.5 185.5t105 157.5t170.5 110.5t226 41.5zM606 1171q-102 0 -168.5 -65.5t-66.5 -169.5t65 -169t168 -65q104 0 175 53.5t83 141.5q-30 274 -256 274z" />
    <glyph glyph-name="colon" unicode=":" horiz-adv-x="458" 
d="M221 766q-68 0 -116 41.5t-48 99.5q-3 44 27.5 80t74.5 52t94 9.5t83 -40.5q39 -29 47 -72.5t-10.5 -81t-60 -64t-91.5 -24.5zM221 260q69 0 116.5 -40.5t47.5 -100.5q3 -44 -27.5 -79.5t-74.5 -51t-94.5 -9t-84.5 38.5q-37 29 -44.5 72.5t10.5 81.5t59 64.5t92 23.5z
" />
    <glyph glyph-name="semicolon" unicode=";" horiz-adv-x="471" 
d="M236 766q-68 0 -116 41.5t-48 99.5q-3 44 27.5 80t74 52t93.5 9.5t83 -40.5q31 -23 43 -56t3.5 -65.5t-29 -60.5t-56 -45t-75.5 -15zM236 260q45 0 83 -20t57.5 -50.5t23 -68.5t-20.5 -74l-242 -356l-90 41l115 260q-42 19 -66 52.5t-24 74.5q0 60 48 100.5t116 40.5z
" />
    <glyph glyph-name="less" unicode="&#x3c;" horiz-adv-x="1167" 
d="M1094 1253v-301l-719 -276l719 -277v-299l-1022 414v324z" />
    <glyph glyph-name="equal" unicode="=" horiz-adv-x="1187" 
d="M1112 924v-234h-1040v234h1040zM1112 485v-233h-1040v233h1040z" />
    <glyph glyph-name="greater" unicode="&#x3e;" horiz-adv-x="1167" 
d="M72 1253l1022 -415v-324l-1022 -414v299l716 277l-716 276v301z" />
    <glyph glyph-name="question" unicode="?" horiz-adv-x="1173" 
d="M602 1454q225 0 359.5 -114t134.5 -310q0 -106 -51.5 -187.5t-167.5 -178.5l-35 -31q-14 -13 -29.5 -26t-28.5 -27q-6 -6 -10 -11.5t-6.5 -9t-5.5 -9t-4 -7.5t-4 -10t-4 -11q-13 -30 -13 -78l-2 -45h-278l-4 93q0 122 47 188q8 9 25 32t32 38q12 12 37 32q1 1 35.5 33
t48.5 43q47 40 66.5 73.5t19.5 78.5q0 75 -52.5 119.5t-140.5 44.5q-87 0 -144.5 -47t-66.5 -126l-297 31q29 196 174 309t365 113zM760 119q0 -60 -47.5 -101t-116.5 -41q-51 -3 -92 23.5t-59 64.5t-10.5 81.5t44.5 72.5q34 32 84.5 39t94.5 -8.5t74.5 -51t27.5 -79.5z" />
    <glyph glyph-name="at" unicode="@" horiz-adv-x="2093" 
d="M1991 502q0 -229 -138 -355q-133 -124 -340 -127q-173 -3 -323 78v101q-108 -117 -258 -117q-159 0 -258 117q-99 120 -99 290q0 174 99 291q98 119 258 119q150 0 258 -117v105h231v-633q35 -14 80 -14q101 0 166.5 72.5t65.5 187.5q0 315 -187 514q-185 200 -502 200
q-314 0 -499 -200t-185 -514q0 -317 187 -516q189 -201 500 -201q98 0 208 22l58 -229q-130 -31 -266 -31q-214 -1 -393 70.5t-301 198.5t-188.5 304.5t-62.5 383.5q-1 207 63 382t183 302t298 198t398 70q221 0 400.5 -71t298.5 -197.5t183.5 -301.5t64.5 -382zM1014 702
q-86 0 -147.5 -62t-61.5 -148q0 -89 61 -151t148 -62q114 0 176 96v231q-62 96 -176 96z" />
    <glyph glyph-name="A" unicode="A" horiz-adv-x="1718" 
d="M1069 1434l588 -1434h-389l-111 283h-600l-111 -283h-389l584 1434h428zM856 1071l-213 -528h426z" />
    <glyph glyph-name="B" unicode="B" horiz-adv-x="1529" 
d="M168 0v1434h741q227 0 348 -92.5t121 -270.5q0 -237 -223 -319q144 -40 215.5 -135t71.5 -228q0 -61 -15 -115.5t-51.5 -105.5t-91.5 -87.5t-141 -58.5t-195 -22h-780zM494 1167v-329h321q106 0 164.5 42t58.5 121q0 82 -57 124t-166 42h-321zM494 621v-355h374
q118 0 176 48.5t58 127.5q0 82 -58 130.5t-176 48.5h-374z" />
    <glyph glyph-name="C" unicode="C" horiz-adv-x="1570" 
d="M877 1454q183 0 343 -81t265 -224l-283 -158q-123 156 -323 156q-180 0 -299 -125t-119 -305q0 -182 119 -307t299 -125q199 0 323 157l283 -159q-106 -141 -266 -222t-342 -81q-150 -4 -291 55t-243.5 159.5t-163 238t-56.5 284.5q-3 117 35 230t109 204.5t165 161
t209.5 106.5t235.5 35z" />
    <glyph glyph-name="D" unicode="D" horiz-adv-x="1654" 
d="M168 0v1434h598q204 4 381.5 -91.5t282 -263.5t100.5 -364q4 -194 -100.5 -361t-282 -262.5t-381.5 -91.5h-598zM754 1143h-260v-850h260q183 0 313 121q129 123 129 303t-129 303t-313 123z" />
    <glyph glyph-name="E" unicode="E" horiz-adv-x="1415" 
d="M1313 1434v-293h-819v-277h761v-278h-761v-293h833v-293h-1159v1434h1145z" />
    <glyph glyph-name="F" unicode="F" horiz-adv-x="1351" 
d="M1266 1434v-293h-772v-332h704v-279h-704v-530h-326v1434h1098z" />
    <glyph glyph-name="G" unicode="G" horiz-adv-x="1669" 
d="M907 1454q320 -3 553 -205l-213 -223q-148 130 -340 127q-183 0 -315 -123q-131 -119 -131 -313q0 -181 122 -305.5t304 -124.5q176 0 315 92v188h-295v234h606v-604q-269 -217 -626 -217q-151 -4 -294 55t-247 159.5t-165.5 238.5t-57.5 284q0 167 65 308.5t173.5 235
t250 144.5t295.5 49z" />
    <glyph glyph-name="H" unicode="H" horiz-adv-x="1667" 
d="M1497 1434v-1434h-328v575h-675v-575h-326v1434h326v-566h675v566h328z" />
    <glyph glyph-name="I" unicode="I" horiz-adv-x="665" 
d="M494 1434v-1434h-326v1434h326z" />
    <glyph glyph-name="J" unicode="J" horiz-adv-x="1261" 
d="M764 1434h328v-873q0 -315 -142 -448t-407 -133q-361 0 -492 227l260 172q75 -100 215 -100q113 0 175.5 69t62.5 213v873z" />
    <glyph glyph-name="K" unicode="K" horiz-adv-x="1566" 
d="M1489 1434l-520 -590l538 -844h-417l-336 584l-256 -279v-305h-328v1434h328v-650l555 650h436z" />
    <glyph glyph-name="L" unicode="L" horiz-adv-x="1284" 
d="M494 1434v-1141h731v-293h-1057v1434h326z" />
    <glyph glyph-name="M" unicode="M" horiz-adv-x="2060" 
d="M1888 1434v-1434h-321v999l-488 -821h-112l-490 821v-999h-319v1434h428l436 -727l438 727h428z" />
    <glyph glyph-name="N" unicode="N" horiz-adv-x="1640" 
d="M1485 1434v-1434h-340l-668 901v-901h-321v1434h340l669 -902v902h320z" />
    <glyph glyph-name="O" unicode="O" horiz-adv-x="1777" 
d="M504 1356q174 98 383 98q206 0 382 -98t279 -269t103 -370q0 -200 -101.5 -370t-279.5 -269q-174 -98 -383 -98q-207 0 -383 97.5t-279 268.5q-102 170 -102 371q0 200 101.5 370t279.5 269zM887 1147q-182 0 -304 -124.5t-122 -305.5t122 -305.5t304 -124.5
q184 0 303 125q121 127 121 305t-121 305q-119 125 -303 125z" />
    <glyph glyph-name="P" unicode="P" horiz-adv-x="1509" 
d="M168 0v1434h614q320 0 470.5 -124t150.5 -384q0 -256 -151.5 -378t-467.5 -122h-290v-426h-326zM768 1153h-274v-475h276q154 0 223.5 56t69.5 179t-69.5 181.5t-225.5 58.5z" />
    <glyph glyph-name="Q" unicode="Q" horiz-adv-x="1822" 
d="M1651 717q0 -264 -172 -463l217 -217l-174 -164l-226 225q-184 -118 -409 -118q-207 0 -383 97.5t-279 268.5q-102 170 -102 371t102 370q103 171 279.5 269t382.5 98q121 2 238 -35t212 -106.5t167.5 -161t111 -204.5t35.5 -230zM887 287q96 0 172 49l-178 178l176 162
l178 -178q76 94 76 219q0 178 -121 305q-119 125 -303 125q-183 0 -305 -125q-121 -127 -121 -305t121 -305q122 -125 305 -125z" />
    <glyph glyph-name="R" unicode="R" horiz-adv-x="1540" 
d="M168 0v1434h635q339 0 488 -114.5t149 -371.5q0 -179 -72 -286t-227 -154l342 -508h-377l-303 465l-78 -2h-231v-463h-326zM819 1139h-325v-422h325q153 0 218 49t65 162t-65 162t-218 49z" />
    <glyph glyph-name="S" unicode="S" horiz-adv-x="1449" 
d="M725 1454q341 0 602 -158l-137 -252q-116 63 -251.5 99.5t-248.5 36.5q-87 -2 -138.5 -37t-51.5 -101q0 -49 51 -75q56 -29 227 -74l142 -41q57 -14 125.5 -39t107.5 -47q115 -65 154 -129q53 -87 53 -203q0 -217 -158 -335.5t-432 -118.5q-393 0 -686 194l147 244
q272 -160 576 -160q90 0 149.5 34t59.5 101q0 78 -53 105q-55 31 -242 77l-35 9q-94 25 -134 36t-94.5 30.5t-101.5 41.5q-107 52 -158 124t-51 188q0 90 29.5 164.5t81.5 127t124.5 88.5t158.5 53t184 17z" />
    <glyph glyph-name="T" unicode="T" horiz-adv-x="1314" 
d="M1257 1434v-279h-436v-1155h-329v1155h-435v279h1200z" />
    <glyph glyph-name="U" unicode="U" horiz-adv-x="1624" 
d="M1141 1434h325v-781q0 -335 -172 -504t-477 -169q-311 0 -480 170.5t-169 502.5v781h326v-781q0 -189 85.5 -281.5t237.5 -92.5q155 0 239.5 94t84.5 280v781z" />
    <glyph glyph-name="V" unicode="V" horiz-adv-x="1673" 
d="M1612 1434l-565 -1434h-429l-561 1434h389l388 -1051l389 1051h389z" />
    <glyph glyph-name="W" unicode="W" horiz-adv-x="2328" 
d="M2269 1434l-475 -1434h-338l-293 922l-295 -922h-336l-475 1434h363l297 -928l284 928h322l287 -928l295 928h364z" />
    <glyph glyph-name="X" unicode="X" horiz-adv-x="1581" 
d="M1499 1434l-504 -703l525 -731h-400l-336 469l-335 -469h-392l523 731l-502 703h399l316 -441l313 441h393z" />
    <glyph glyph-name="Y" unicode="Y" horiz-adv-x="1607" 
d="M1546 1434l-581 -932v-502h-326v496l-582 938h389l357 -588l358 588h385z" />
    <glyph glyph-name="Z" unicode="Z" horiz-adv-x="1409" 
d="M1303 1434v-232l-752 -913h774v-289h-1241v236l731 909h-684v289h1172z" />
    <glyph glyph-name="bracketleft" unicode="[" horiz-adv-x="673" 
d="M625 1518v-211h-263v-1346h263v-211h-553v1768h553z" />
    <glyph glyph-name="backslash" unicode="\" horiz-adv-x="1091" 
d="M51 1468h271l716 -1503h-272z" />
    <glyph glyph-name="bracketright" unicode="]" horiz-adv-x="673" 
d="M600 1518v-1768h-555v211h264v1346h-264v211h555z" />
    <glyph glyph-name="asciicircum" unicode="^" horiz-adv-x="1101" 
d="M739 1454l289 -741h-293l-186 497l-187 -497h-290l288 741h379z" />
    <glyph glyph-name="underscore" unicode="_" horiz-adv-x="1368" 
d="M1292 -137v-176h-1220v176h1220z" />
    <glyph glyph-name="grave" unicode="`" horiz-adv-x="702" 
d="M389 1481l240 -346h-262l-295 346h317z" />
    <glyph glyph-name="a" unicode="a" horiz-adv-x="1216" 
d="M662 1044q204 0 321 -95.5t117 -286.5v-662h-305v125q-154 -145 -371 -145q-150 0 -245 89.5t-95 231.5t100.5 221.5t278.5 79.5h332v31q0 86 -56.5 131t-158.5 45q-159 -3 -316 -98l-88 194q231 136 486 139zM795 233v252h-213q-94 0 -145.5 -39.5t-51.5 -113.5
q0 -75 49.5 -122.5t124.5 -47.5q141 0 236 71z" />
    <glyph glyph-name="b" unicode="b" horiz-adv-x="1325" 
d="M129 1434h305v-541q139 151 338 151q137 0 243 -71.5t162 -192t56 -268.5q0 -227 -127 -381q-127 -151 -334 -151q-199 0 -338 151v-131h-305v1434zM659 786q-68 0 -130 -34.5t-95 -89.5v-300q35 -57 95.5 -90.5t129.5 -33.5q114 0 193 79q80 83 80 195q0 114 -80 194
t-193 80z" />
    <glyph glyph-name="c" unicode="c" horiz-adv-x="1181" 
d="M647 1044q135 0 253.5 -58.5t197.5 -162.5l-234 -131q-79 94 -202 94q-115 0 -193 -81q-80 -80 -80 -193q0 -112 80 -195q79 -79 193 -79q126 0 208 98l232 -129q-76 -105 -196.5 -166t-258.5 -61q-233 0 -395 155t-162 377t162 377t395 155z" />
    <glyph glyph-name="d" unicode="d" horiz-adv-x="1325" 
d="M891 1434h305v-1434h-305v131q-139 -151 -338 -151q-138 0 -244.5 71.5t-162.5 192t-56 268.5t56 268.5t162.5 192t244.5 71.5q196 0 338 -151v541zM664 786q-111 0 -192 -81t-81 -193t80 -195q79 -79 193 -79q69 0 129.5 33.5t97.5 90.5v300q-37 57 -97.5 90.5
t-129.5 33.5z" />
    <glyph glyph-name="e" unicode="e" 
d="M625 1044q240 1 388.5 -152.5t143.5 -379.5v-78h-772q3 -104 84 -170q76 -62 193 -65q153 0 253 100l160 -143q-185 -176 -440 -176q-227 0 -385 155q-160 157 -160 377q0 221 156 377q155 155 379 155zM631 829q-102 0 -172 -73q-72 -75 -72 -176h485q0 108 -66.5 178.5
t-174.5 70.5z" />
    <glyph glyph-name="f" unicode="f" horiz-adv-x="827" 
d="M557 1454q122 0 258 -43l-39 -188q-68 26 -127 26q-71 -2 -114 -43t-43 -114v-68h276v-231h-276v-793h-306v793h-141v231h141v76q0 176 101 265t270 89z" />
    <glyph glyph-name="g" unicode="g" horiz-adv-x="1351" 
d="M555 1044q203 0 352 -149v129h305v-958q0 -128 -41.5 -224t-116.5 -153t-171 -85t-213 -28q-286 3 -547 150l88 196q196 -112 397 -115q137 -3 218 62.5t81 196.5v90q-135 -156 -352 -156q-207 0 -334 145q-125 143 -125 369q0 230 125 379q127 151 334 151zM666 786
q-112 0 -191 -79q-78 -81 -78 -193t79 -191t190 -79q77 0 140.5 39t100.5 106v277q-42 55 -105.5 87.5t-135.5 32.5z" />
    <glyph glyph-name="h" unicode="h" horiz-adv-x="1327" 
d="M139 1434h305v-533q180 143 400 143q165 0 264.5 -91.5t99.5 -258.5v-694h-305v602q0 93 -48.5 145t-133.5 52q-156 0 -277 -103v-696h-305v1434z" />
    <glyph glyph-name="i" unicode="i" horiz-adv-x="602" 
d="M195 1384q49 41 115.5 41t113.5 -41q50 -38 50 -95.5t-50 -98.5q-47 -41 -113.5 -41t-115.5 41q-47 41 -47 98.5t47 95.5zM463 1024v-1024h-305v1024h305z" />
    <glyph glyph-name="j" unicode="j" horiz-adv-x="595" 
d="M190 1384q47 41 115 41t115 -41q47 -38 47 -95.5t-47 -98.5t-115 -41t-115 41t-47 98.5t47 95.5zM154 1024h305v-1092q0 -168 -99 -260t-258 -92q-104 0 -200 35l30 166q24 -8 54 -8q73 0 120.5 49.5t47.5 128.5v1073z" />
    <glyph glyph-name="k" unicode="k" horiz-adv-x="1263" 
d="M444 1434v-852l398 442h362l-348 -406l375 -618h-332l-254 399l-201 -202v-197h-305v1434h305z" />
    <glyph glyph-name="l" unicode="l" horiz-adv-x="569" 
d="M453 1434v-1434h-306v1434h306z" />
    <glyph glyph-name="m" unicode="m" horiz-adv-x="2004" 
d="M813 1044q213 0 301 -155q102 84 199 119.5t213 35.5q158 0 259 -91t101 -259v-694h-305v602q0 93 -48 145t-130 52q-139 0 -252 -88q8 -63 8 -136v-575h-305v602q0 93 -48 145t-130 52q-126 0 -242 -90v-709h-305v1024h305v-131q177 151 379 151z" />
    <glyph glyph-name="n" unicode="n" horiz-adv-x="1316" 
d="M834 1044q161 0 262.5 -90.5t101.5 -259.5v-694h-305v602q0 93 -48.5 145t-133.5 52q-156 0 -277 -103v-696h-305v1024h305v-123q180 143 400 143z" />
    <glyph glyph-name="o" unicode="o" horiz-adv-x="1333" 
d="M258 889q168 155 408 155q239 0 407 -155q170 -156 170 -377t-170 -377q-168 -155 -407 -155q-240 0 -408 155t-168 377t168 377zM858 705q-78 81 -194 81q-114 0 -195 -81q-80 -80 -80 -193q0 -112 80 -195q82 -79 195 -79q115 0 194 79q82 82 82 195q0 114 -82 193z
" />
    <glyph glyph-name="p" unicode="p" horiz-adv-x="1349" 
d="M782 1044q208 0 334 -153q127 -151 127 -379q0 -227 -127 -381q-127 -151 -334 -151q-199 0 -338 151v-530h-305v1423h305v-131q139 151 338 151zM670 786q-69 0 -129 -33.5t-97 -90.5v-297q32 -57 95 -92t131 -35q113 0 192 79q80 83 80 195q0 113 -80 193
q-78 81 -192 81z" />
    <glyph glyph-name="q" unicode="q" horiz-adv-x="1325" 
d="M553 1044q196 0 338 -151v131h305v-1423h-305v530q-139 -151 -338 -151q-138 0 -244.5 71.5t-162.5 192t-56 268.5t56 268.5t162.5 192t244.5 71.5zM664 786q-111 0 -192 -81t-81 -193t80 -195q79 -79 193 -79q69 0 129.5 33.5t97.5 90.5v300q-37 57 -97.5 90.5
t-129.5 33.5z" />
    <glyph glyph-name="r" unicode="r" horiz-adv-x="851" 
d="M819 1044v-245q-218 0 -385 -191v-608h-305v1024h305v-190q82 100 182.5 155t202.5 55z" />
    <glyph glyph-name="s" unicode="s" horiz-adv-x="1073" 
d="M524 1044q250 0 437 -114l-101 -185q-174 97 -336 97q-57 0 -95 -24.5t-38 -72.5q0 -35 32.5 -54t141.5 -48q18 -4 101 -29q121 -35 170 -65q149 -79 149 -244q0 -156 -114 -240.5t-312 -84.5q-285 0 -498 139l107 178q183 -115 389 -115q63 0 104 23.5t41 70.5
q0 52 -30 70q-28 19 -135 47l-39 10q-68 19 -97.5 28t-68.5 23t-74 31q-75 38 -113.5 94.5t-38.5 141.5q0 156 114 239.5t304 83.5z" />
    <glyph glyph-name="t" unicode="t" horiz-adv-x="925" 
d="M498 1298v-274h270v-231h-270v-404q0 -77 45.5 -120.5t118.5 -43.5q68 0 139 41l39 -209q-139 -74 -295 -77q-148 -3 -252 90q-100 93 -100 266v457h-148v231h148v274h305z" />
    <glyph glyph-name="u" unicode="u" horiz-adv-x="1302" 
d="M117 1024h305v-602q0 -94 49 -145.5t133 -51.5q158 0 279 103v696h303v-1024h-303v123q-180 -143 -402 -143q-161 0 -262.5 90.5t-101.5 259.5v694z" />
    <glyph glyph-name="v" unicode="v" horiz-adv-x="1243" 
d="M1210 1024l-401 -1024h-377l-401 1024h323l267 -715l264 715h325z" />
    <glyph glyph-name="w" unicode="w" horiz-adv-x="1701" 
d="M1669 1024l-317 -1024h-330l-172 573l-174 -573h-328l-317 1024h303l192 -696l205 696h238l205 -696l192 696h303z" />
    <glyph glyph-name="x" unicode="x" horiz-adv-x="1183" 
d="M1139 1024l-371 -506l383 -518h-348l-215 315l-215 -315h-342l383 520l-371 504h346l203 -299l205 299h342z" />
    <glyph glyph-name="y" unicode="y" horiz-adv-x="1228" 
d="M881 1024h315l-438 -1120q-127 -324 -420 -324q-128 -3 -307 66l84 198q119 -46 192 -37q112 6 180 136l13 26l-447 1055h322l260 -676z" />
    <glyph glyph-name="z" unicode="z" horiz-adv-x="1103" 
d="M1001 1024v-199l-507 -579h530v-246h-956v199l505 579h-464v246h892z" />
    <glyph glyph-name="braceleft" unicode="{" horiz-adv-x="739" 
d="M690 1518v-201l-65 2q-107 0 -107 -98v-394q0 -135 -92 -194q92 -59 92 -193v-393q0 -98 107 -98h65v-201h-176q-285 0 -285 262v430q0 37 -24.5 61.5t-61.5 24.5h-71v215h71q37 0 61.5 23.5t24.5 60.5v430q0 263 285 263h176z" />
    <glyph glyph-name="bar" unicode="|" horiz-adv-x="647" 
d="M477 1536v-1849h-309v1849h309z" />
    <glyph glyph-name="braceright" unicode="}" horiz-adv-x="739" 
d="M45 1317v201h176q285 0 285 -263v-430q0 -37 24.5 -60.5t61.5 -23.5l72 -2v-215h-72q-37 0 -61.5 -23.5t-24.5 -60.5v-430q0 -262 -285 -262h-176v201h66q106 0 106 96v395q0 134 92 193q-92 59 -92 192v396q0 96 -106 96h-66z" />
    <glyph glyph-name="asciitilde" unicode="~" horiz-adv-x="1153" 
d="M305 825q58 10 110.5 -2.5t149.5 -56.5q25 -10 47 -21q81 -37 121 -49q25 -8 66 -4q107 6 137 125l149 -18q9 -150 -51 -246t-168 -111q-61 -10 -113.5 2.5t-150.5 57.5l-45 18q-71 31 -123 47q-27 9 -63 6q-48 -2 -82.5 -35t-46.5 -92l-150 17q-12 153 45 249t168 113z
" />
    <glyph glyph-name="exclamdown" unicode="&#xa1;" horiz-adv-x="495" 
d="M248 760q-66 0 -115 42.5t-49 100.5q-4 44 27 79.5t75 51t95 9t84 -38.5q38 -29 46 -73t-10.5 -82.5t-60 -65t-92.5 -23.5zM387 623l33 -1035h-344l33 1035h278z" />
    <glyph glyph-name="cent" unicode="&#xa2;" horiz-adv-x="1181" 
d="M518 1266h242v-236q212 -41 338 -207l-234 -131q-79 94 -202 94q-115 0 -193 -81q-80 -80 -80 -193q0 -112 80 -195q79 -79 193 -79q126 0 208 98l232 -129q-126 -172 -342 -213v-236h-242v240q-184 40 -306 184t-122 330q0 185 121 330q123 144 307 184v240z" />
    <glyph glyph-name="sterling" unicode="&#xa3;" horiz-adv-x="1353" 
d="M817 1454q290 0 445 -192l-175 -191q-89 109 -249 109q-105 0 -162.5 -55t-57.5 -162v-175h463v-217h-463v-309h654v-262h-1141v262h162v309h-162v220h162v208q0 225 137 340t387 115z" />
    <glyph glyph-name="currency" unicode="&#xa4;" horiz-adv-x="1228" 
 />
    <glyph glyph-name="yen" unicode="&#xa5;" horiz-adv-x="1607" 
d="M1546 1434l-377 -598h213v-218h-342l-75 -116v-76h417v-217h-417v-209h-326v209h-424v219h424v68l-78 122h-346v220h217l-375 596h389l357 -588l358 588h385z" />
    <glyph glyph-name="brokenbar" unicode="&#xa6;" horiz-adv-x="647" 
d="M477 1536v-758h-309v758h309zM477 444v-757h-309v757h309z" />
    <glyph glyph-name="section" unicode="&#xa7;" horiz-adv-x="1284" 
d="M643 1454q299 0 522 -137l-121 -221q-101 55 -217 85.5t-215 30.5q-74 0 -118.5 -29.5t-44.5 -84.5q0 -42 43 -66q42 -22 198 -63q166 -47 203 -60q90 -30 160 -73q143 -82 143 -267q0 -166 -117 -268q117 -88 117 -246q0 -188 -138 -291.5t-376 -103.5q-345 0 -598 168
l129 215q235 -137 502 -137q79 0 128.5 29.5t49.5 84.5q0 68 -45 91q-46 27 -211 67q-10 2 -29 8q-178 43 -286 93q-94 44 -138.5 107t-44.5 163q0 176 133 276q-133 83 -133 236q0 100 39.5 176.5t109.5 123t159.5 70t195.5 23.5zM565 694q-116 -15 -116 -108q0 -42 40 -66
q37 -19 189 -61q61 -13 110 -27q105 21 105 100q0 63 -37 84q-37 22 -145 56q-89 19 -146 22z" />
    <glyph glyph-name="dieresis" unicode="&#xa8;" horiz-adv-x="802" 
d="M319 1325q0 -54 -37 -90.5t-92 -36.5t-92 36.5t-37 90.5q0 57 36 93t93 36q55 0 92 -36.5t37 -92.5zM522 1417q37 37 92.5 37t90.5 -37q37 -37 37 -91t-37 -91q-35 -37 -90.5 -37t-92.5 37t-37 91t37 91z" />
    <glyph glyph-name="copyright" unicode="&#xa9;" horiz-adv-x="1654" 
d="M827 1454q200 0 370 -98t269 -269q99 -169 99 -370t-99 -371q-98 -171 -268 -268.5t-371 -97.5q-146 -4 -283.5 55t-237.5 159.5t-159.5 238t-56.5 284.5q0 201 99 370.5t268.5 268t369.5 98.5zM827 1264q-107 2 -208 -42t-175.5 -118t-118 -176t-40.5 -209
q0 -224 159 -383q160 -160 383 -160t383 160q162 158 162 383t-162 383q-158 162 -383 162zM829 1102q96 0 182.5 -45.5t141.5 -122.5l-160 -90q-60 84 -164 84q-86 0 -143 -60t-57 -151t57 -151t143 -60q104 0 164 84l160 -90q-55 -77 -141.5 -122.5t-182.5 -45.5
q-163 0 -278 112q-115 115 -115 273q0 155 115 270q118 115 278 115z" />
    <glyph glyph-name="ordfeminine" unicode="&#xaa;" horiz-adv-x="821" 
d="M438 1446q135 0 214 -64.5t79 -191.5v-442h-207v81q-101 -94 -245 -94q-99 0 -163.5 59.5t-64.5 155.5t68 148.5t186 52.5h219v20q0 59 -37 88t-104 27q-108 0 -211 -63l-59 131q157 89 325 92zM524 905v166h-141q-129 0 -129 -100q0 -51 33 -82t82 -31q90 0 155 47z" />
    <glyph glyph-name="guillemotleft" unicode="&#xab;" horiz-adv-x="1234" 
d="M438 1004l226 -117l-271 -344l271 -344l-228 -115l-364 459zM963 1004l225 -117l-270 -344l270 -344l-227 -115l-365 459z" />
    <glyph glyph-name="logicalnot" unicode="&#xac;" horiz-adv-x="1433" 
 />
    <glyph glyph-name="registered" unicode="&#xae;" horiz-adv-x="1654" 
d="M827 1454q200 0 370 -98t269 -269q99 -169 99 -370t-99 -371q-98 -171 -268 -268.5t-371 -97.5q-146 -4 -283.5 55t-237.5 159.5t-159.5 238t-56.5 284.5q0 201 99 370.5t268.5 268t369.5 98.5zM827 1264q-107 2 -208 -42t-175.5 -118t-118 -176t-40.5 -209
q0 -224 159 -383q160 -160 383 -160t383 160q162 158 162 383t-162 383q-158 162 -383 162zM532 387v678h304q158 0 229.5 -55t71.5 -176q0 -158 -136 -205l162 -242h-188l-144 217h-32h-101v-217h-166zM698 918v-185h144q69 0 97 20.5t28 71.5t-28 72t-97 21h-144z" />
    <glyph glyph-name="overscore" unicode="&#xaf;" horiz-adv-x="821" 
d="M748 1421v-190h-676v190h676z" />
    <glyph glyph-name="degree" unicode="&#xb0;" horiz-adv-x="890" 
d="M180 1477q106 106 262 106q159 0 265 -106q108 -108 108 -258t-108 -258q-107 -107 -265 -107q-155 0 -262 107q-108 108 -108 258t108 258zM444 1415q-82 0 -141 -57.5t-59 -138.5q-4 -61 33 -110.5t90.5 -71t114.5 -12.5t102 54q47 41 56.5 101.5t-13 113t-72.5 89
t-111 32.5z" />
    <glyph glyph-name="plusminus" unicode="&#xb1;" horiz-adv-x="1103" 
d="M666 866h362v-233h-362v-328h-234v328h-360v233h360v328h234v-328zM72 -141v235h956v-235h-956z" />
    <glyph glyph-name="twosuperior" unicode="&#xb2;" horiz-adv-x="655" 
d="M330 1528q113 0 194.5 -64t81.5 -174q0 -61 -34 -113.5t-119 -121.5l-107 -101h272v-163h-591v145l309 250q37 32 50 51t13 43q0 32 -25 53t-61 21q-87 0 -163 -101l-130 109q47 79 129.5 122.5t180.5 43.5z" />
    <glyph glyph-name="threesuperior" unicode="&#xb3;" horiz-adv-x="673" 
d="M604 1516v-140l-172 -157q25 0 37 -2q73 -20 115.5 -70t42.5 -117q0 -112 -83.5 -182t-213.5 -70q-161 0 -307 113l112 117q80 -68 170 -68q55 2 86 27t31 71q0 76 -105 76q-47 0 -108 -18l-31 102l182 156h-284v162h528z" />
    <glyph glyph-name="acute" unicode="&#xb4;" horiz-adv-x="702" 
d="M629 1481l-295 -346h-262l239 346h318z" />
    <glyph glyph-name="paragraph" unicode="&#xb6;" horiz-adv-x="1617" 
d="M686 1434h762v-1762h-256v1530h-203v-1530h-258v850h-86q-262 0 -401 127q-140 128 -140 328q0 215 147 336t435 121z" />
    <glyph glyph-name="middot" unicode="&#xb7;" horiz-adv-x="473" 
d="M399 614q0 -60 -47 -100.5t-116 -40.5t-116.5 40.5t-47.5 100.5t48 101t116 41t115.5 -41t47.5 -101z" />
    <glyph glyph-name="cedilla" unicode="&#xb8;" horiz-adv-x="616" 
d="M242 27h145l-59 -117q38 3 71 -2q63 -14 102.5 -62t39.5 -114q0 -91 -69.5 -144t-178.5 -53q-121 0 -221 53l41 109q56 -29 127 -29q53 0 85.5 30.5t32.5 70.5q1 37 -23.5 61.5t-62.5 26.5q-39 0 -69 -21l-39 35z" />
    <glyph glyph-name="onesuperior" unicode="&#xb9;" horiz-adv-x="440" 
d="M373 1516v-728h-201v549l-125 -28l-35 151l209 56h152z" />
    <glyph glyph-name="ordmasculine" unicode="&#xba;" horiz-adv-x="935" 
d="M469 733q-160 0 -274 105q-113 104 -113 252q0 96 52 178.5t140 130.5q91 47 195.5 47t192.5 -47q88 -48 140 -130.5t52 -178.5q0 -146 -114 -251.5t-271 -105.5zM467 1272q-75 0 -128.5 -53.5t-53.5 -128.5t53.5 -129t128.5 -54t128.5 54t53.5 129t-53.5 128.5
t-128.5 53.5z" />
    <glyph glyph-name="guillemotright" unicode="&#xbb;" horiz-adv-x="1234" 
d="M270 1004l367 -461l-365 -459l-227 115l270 344l-270 344zM795 1004l366 -461l-364 -459l-228 115l271 344l-271 344z" />
    <glyph glyph-name="onequarter" unicode="&#xbc;" horiz-adv-x="1421" 
d="M1249 1468l-946 -1503h-246l947 1503h245zM379 1434v-727h-203v548l-123 -28l-35 151l209 56h152zM1290 727v-428h103v-152h-103v-147h-192v147h-350l-25 148l350 432h217zM1098 528l-176 -229h176v229z" />
    <glyph glyph-name="onehalf" unicode="&#xbd;" horiz-adv-x="1476" 
d="M1249 1468l-946 -1503h-246l947 1503h245zM379 1434v-727h-203v548l-123 -28l-35 151l209 56h152zM1151 737q112 0 195 -65q81 -63 81 -172q0 -64 -34.5 -116t-120.5 -122l-105 -98h273v-164h-592v145l309 248q37 32 50.5 51t13.5 43q0 34 -25 55t-61 21q-89 0 -164 -100
l-129 108q45 78 128.5 120.5t180.5 45.5z" />
    <glyph glyph-name="threequarters" unicode="&#xbe;" horiz-adv-x="1558" 
d="M1391 1468l-947 -1503h-245l946 1503h246zM604 1434v-140l-172 -157q25 0 39 -2q70 -21 113 -71t43 -116q0 -112 -83.5 -182t-213.5 -70q-161 0 -307 113l112 117q80 -68 170 -68q55 2 86 27t31 71q0 76 -105 76q-47 0 -108 -18l-31 102l182 156h-284v162h528zM1430 727
v-428h100v-152h-103v-147h-192v147h-350l-25 148l350 432h220zM1235 528l-176 -229h176v229z" />
    <glyph glyph-name="questiondown" unicode="&#xbf;" horiz-adv-x="1173" 
d="M461 1014q49 43 116.5 43t114.5 -43q50 -41 50 -99.5t-50 -101.5q-47 -41 -114 -41t-117 41q-47 43 -47 101.5t47 99.5zM438 635l279 -2l2 -92q5 -90 -43 -183q-9 -23 -74 -88l-53 -47q-27 -23 -53 -49q-46 -40 -66 -73t-20 -76q0 -77 51.5 -120.5t140.5 -43.5
q88 0 144.5 45.5t66.5 124.5l297 -29q-29 -197 -175 -309.5t-364 -112.5q-225 0 -359 114t-134 310q0 106 51.5 188t167.5 177l35 30q50 46 57 54q47 53 47 137z" />
    <glyph glyph-name="Agrave" unicode="&#xc0;" horiz-adv-x="1718" 
d="M752 1890l241 -346h-262l-297 346h318zM1069 1434l588 -1434h-389l-111 283h-600l-111 -283h-389l584 1434h428zM856 1071l-213 -528h426z" />
    <glyph glyph-name="Aacute" unicode="&#xc1;" horiz-adv-x="1718" 
d="M1069 1434l588 -1434h-389l-111 283h-600l-111 -283h-389l584 1434h428zM856 1071l-213 -528h426zM1270 1890l-295 -346h-262l239 346h318z" />
    <glyph glyph-name="Acircumflex" unicode="&#xc2;" horiz-adv-x="1718" 
d="M1016 1890l250 -346h-254l-156 189l-158 -189h-252l250 346h320zM1069 1434l588 -1434h-389l-111 283h-600l-111 -283h-389l584 1434h428zM856 1071l-213 -528h426z" />
    <glyph glyph-name="Atilde" unicode="&#xc3;" horiz-adv-x="1718" 
d="M647 1878q44 7 84 -2t109 -39q113 -52 168 -55q73 -3 98 88l117 -12q10 -114 -33.5 -188.5t-126.5 -88.5q-46 -7 -85.5 2t-111.5 41q-85 36 -110 43.5t-58 7.5q-70 -6 -88 -88l-116 15q-12 114 30.5 187.5t122.5 88.5zM1069 1434l588 -1434h-389l-111 283h-600l-111 -283
h-389l584 1434h428zM856 1071l-213 -528h426z" />
    <glyph glyph-name="Adieresis" unicode="&#xc4;" horiz-adv-x="1718" 
d="M643 1864q41 3 73 -20.5t46 -58t8 -74t-35 -66.5q-27 -29 -66.5 -35t-74 8t-58 45.5t-20.5 71.5q0 57 36 93t91 36zM1067 1608q-53 0 -91 37t-38 90q-4 41 20 73t59 46t75 8t67 -35q29 -27 35 -66.5t-8 -74t-46 -58t-73 -20.5zM1069 1434l588 -1434h-389l-111 283h-600
l-111 -283h-389l584 1434h428zM856 1071l-213 -528h426z" />
    <glyph glyph-name="Aring" unicode="&#xc5;" horiz-adv-x="1718" 
d="M856 1997q112 0 193 -78q79 -76 79 -188q0 -109 -81 -188t-191 -79q-111 0 -192 78q-80 77 -80 189q0 109 81 187.5t191 78.5zM856 1853q-51 0 -88 -35.5t-37 -86.5q0 -52 36 -87.5t89 -35.5q51 0 88 36t37 87q0 50 -37.5 86t-87.5 36zM1069 1434l588 -1434h-389
l-111 283h-600l-111 -283h-389l584 1434h428zM856 1071l-213 -528h426z" />
    <glyph glyph-name="AE" unicode="&#xc6;" horiz-adv-x="2103" 
d="M2001 1434v-293h-819v-277h762v-278h-762v-293h833v-293h-1159v283h-299l-111 -283h-389l584 1434h1360zM856 1071l-213 -528h213v528z" />
    <glyph glyph-name="Ccedilla" unicode="&#xc7;" horiz-adv-x="1570" 
d="M877 -20q-42 0 -62 2l-37 -72q39 3 72 -2q62 -14 101.5 -61.5t39.5 -114.5q0 -91 -70.5 -144t-179.5 -53q-118 0 -221 53l41 109q60 -29 129 -29q52 0 85.5 30.5t33.5 70.5q0 37 -24 62t-62 26q-40 0 -70 -21l-39 35l66 133q-247 65 -401 260q-156 200 -156 453
q-3 117 35 230t109 204.5t165 161t209.5 106.5t235.5 35q183 0 343.5 -81.5t264.5 -223.5l-283 -158q-123 156 -323 156q-180 0 -299 -125t-119 -305q0 -182 119 -307t299 -125q199 0 323 157l283 -159q-106 -141 -266 -222t-342 -81z" />
    <glyph glyph-name="Egrave" unicode="&#xc8;" horiz-adv-x="1415" 
d="M1313 1434v-293h-819v-277h761v-278h-761v-293h833v-293h-1159v1434h1145zM686 1890l240 -346h-262l-295 346h317z" />
    <glyph glyph-name="Eacute" unicode="&#xc9;" horiz-adv-x="1415" 
d="M1313 1434v-293h-819v-277h761v-278h-761v-293h833v-293h-1159v1434h1145zM1202 1890l-295 -346h-262l240 346h317z" />
    <glyph glyph-name="Ecircumflex" unicode="&#xca;" horiz-adv-x="1415" 
d="M948 1890l250 -346h-252l-158 189l-155 -189h-254l250 346h319zM1313 1434v-293h-819v-277h761v-278h-761v-293h833v-293h-1159v1434h1145z" />
    <glyph glyph-name="Edieresis" unicode="&#xcb;" horiz-adv-x="1415" 
d="M485 1827q37 37 92.5 37t92.5 -37t37 -91t-37 -91t-92.5 -37t-92.5 37t-37 91t37 91zM1128 1735q0 -54 -37 -90.5t-92 -36.5q-54 0 -90.5 36.5t-36.5 90.5q0 57 36 93t91 36q57 0 93 -36t36 -93zM1313 1434v-293h-819v-277h761v-278h-761v-293h833v-293h-1159v1434h1145z
" />
    <glyph glyph-name="Igrave" unicode="&#xcc;" horiz-adv-x="665" 
d="M242 1890l241 -346h-262l-297 346h318zM498 1434v-1434h-326v1434h326z" />
    <glyph glyph-name="Iacute" unicode="&#xcd;" horiz-adv-x="665" 
d="M494 1434v-1434h-326v1434h326zM756 1890l-295 -346h-262l239 346h318z" />
    <glyph glyph-name="Icircumflex" unicode="&#xce;" horiz-adv-x="665" 
d="M506 1890l250 -346h-254l-156 189l-158 -189h-254l252 346h320zM498 1434v-1434h-326v1434h326z" />
    <glyph glyph-name="Idieresis" unicode="&#xcf;" horiz-adv-x="665" 
d="M37 1827q37 37 92 37t92 -37t37 -91t-37 -91t-92 -37t-92 37q-35 37 -35 91t35 91zM553 1864q41 3 73 -20.5t46 -58t8 -74t-35 -66.5q-27 -29 -67 -35t-75 8t-59 45.5t-20 71.5q0 56 37 92.5t92 36.5zM494 1434v-1434h-326v1434h326z" />
    <glyph glyph-name="Eth" unicode="&#xd0;" horiz-adv-x="1671" 
d="M184 844v590h598q204 4 381.5 -91.5t282 -263.5t100.5 -364q4 -194 -100.5 -361t-282 -262.5t-381.5 -91.5h-598v590h-141v254h141zM510 590v-297h260q183 0 313 121q129 123 129 303t-129 303t-313 123h-260v-299h260v-254h-260z" />
    <glyph glyph-name="Ntilde" unicode="&#xd1;" horiz-adv-x="1640" 
d="M643 1878q44 7 84.5 -1.5t108.5 -39.5q116 -52 168 -55q75 -3 100 88l117 -12q10 -114 -34.5 -188.5t-125.5 -88.5q-46 -7 -85.5 2t-111.5 41q-23 9 -50.5 20.5t-38 16t-24 9.5t-21 5.5t-16 1t-20.5 -1.5q-68 -6 -86 -88l-116 15q-12 114 30.5 187t120.5 89zM1485 1434
v-1434h-340l-668 901v-901h-321v1434h340l669 -902v902h320z" />
    <glyph glyph-name="Ograve" unicode="&#xd2;" horiz-adv-x="1777" 
d="M504 1356q174 98 383 98q206 0 382 -98t279 -269t103 -370q0 -200 -101.5 -370t-279.5 -269q-174 -98 -383 -98q-207 0 -383 97.5t-279 268.5q-102 170 -102 371q0 200 101.5 370t279.5 269zM887 1147q-182 0 -304 -124.5t-122 -305.5t122 -305.5t304 -124.5
q184 0 303 125q121 127 121 305t-121 305q-119 125 -303 125zM784 1890l240 -346h-262l-295 346h317z" />
    <glyph glyph-name="Oacute" unicode="&#xd3;" horiz-adv-x="1777" 
d="M504 1356q174 98 383 98q206 0 382 -98t279 -269t103 -370q0 -200 -101.5 -370t-279.5 -269q-174 -98 -383 -98q-207 0 -383 97.5t-279 268.5q-102 170 -102 371q0 200 101.5 370t279.5 269zM887 1147q-182 0 -304 -124.5t-122 -305.5t122 -305.5t304 -124.5
q184 0 303 125q121 127 121 305t-121 305q-119 125 -303 125zM1300 1890l-294 -346h-263l240 346h317z" />
    <glyph glyph-name="Ocircumflex" unicode="&#xd4;" horiz-adv-x="1777" 
d="M1047 1890l249 -346h-254l-155 189l-156 -189h-254l250 346h320zM504 1356q174 98 383 98q206 0 382 -98t279 -269t103 -370q0 -200 -101.5 -370t-279.5 -269q-174 -98 -383 -98q-207 0 -383 97.5t-279 268.5q-102 170 -102 371q0 200 101.5 370t279.5 269zM887 287
q183 0 303.5 124t120.5 306q0 178 -121 305q-119 125 -303 125q-183 0 -305 -125q-121 -127 -121 -305t121 -305q122 -125 305 -125z" />
    <glyph glyph-name="Otilde" unicode="&#xd5;" horiz-adv-x="1777" 
d="M678 1878q44 7 83 -1.5t109 -39.5q113 -52 168 -55q74 -3 99 88l116 -12q10 -114 -33.5 -188.5t-125.5 -88.5q-46 -7 -85.5 2t-111.5 41q-85 36 -110 43.5t-58 7.5q-71 -6 -86 -88l-119 15q-9 116 32.5 188.5t121.5 87.5zM504 1356q174 98 383 98q206 0 382 -98t279 -269
t103 -370q0 -200 -101.5 -370t-279.5 -269q-174 -98 -383 -98q-207 0 -383 97.5t-279 268.5q-102 170 -102 371q0 200 101.5 370t279.5 269zM887 1147q-182 0 -304 -124.5t-122 -305.5q0 -178 121 -305q122 -125 305 -125q184 0 303 125q121 127 121 305t-121 305
q-119 125 -303 125z" />
    <glyph glyph-name="Odieresis" unicode="&#xd6;" horiz-adv-x="1777" 
d="M676 1864q40 3 71.5 -20.5t45.5 -58t8 -74t-35 -66.5q-27 -29 -66.5 -35t-74 8t-58 45.5t-20.5 71.5q0 57 36 93t93 36zM1227 1735q0 -55 -36.5 -91t-92.5 -36q-53 0 -91 37t-38 90q0 55 36.5 92t92.5 37t92.5 -37t36.5 -92zM504 1356q174 98 383 98q206 0 382 -98
t279 -269t103 -370q0 -200 -101.5 -370t-279.5 -269q-174 -98 -383 -98q-207 0 -383 97.5t-279 268.5q-102 170 -102 371q0 200 101.5 370t279.5 269zM887 1147q-182 0 -304 -124.5t-122 -305.5t122 -305.5t304 -124.5q184 0 303 125q121 127 121 305t-121 305
q-119 125 -303 125z" />
    <glyph glyph-name="multiply" unicode="&#xd7;" horiz-adv-x="987" 
d="M748 995l165 -166l-256 -256l256 -256l-165 -163l-256 254l-254 -254l-166 163l254 256l-254 256l166 166l254 -256z" />
    <glyph glyph-name="Oslash" unicode="&#xd8;" horiz-adv-x="1777" 
d="M1141 1536h270l-98 -207q158 -104 248 -265t90 -347q4 -146 -57.5 -284t-165.5 -238.5t-247 -159.5t-294 -55q-108 0 -203 26l-51 -108h-273l101 206q-155 102 -246.5 264t-91.5 349q-3 117 35.5 230t111 204.5t167.5 161t212 106.5t238 35q104 0 203 -27zM461 717
q0 -197 137 -322l356 748q-46 4 -67 4q-183 0 -305 -125q-121 -127 -121 -305zM887 285q184 0 303 125q121 127 121 307q0 195 -135 321l-357 -747q34 -6 68 -6z" />
    <glyph glyph-name="Ugrave" unicode="&#xd9;" horiz-adv-x="1624" 
d="M711 1890l241 -346h-262l-297 346h318zM1141 1434h325v-781q0 -332 -169 -502.5t-480 -170.5t-480 170.5t-169 502.5v781h326v-781q0 -189 85.5 -281.5t237.5 -92.5q155 0 239.5 94t84.5 280v781z" />
    <glyph glyph-name="Uacute" unicode="&#xda;" horiz-adv-x="1624" 
d="M1229 1890l-295 -346h-264l241 346h318zM1141 1434h325v-781q0 -335 -172 -504t-477 -169q-311 0 -480 170.5t-169 502.5v781h326v-781q0 -189 85.5 -281.5t237.5 -92.5q155 0 239.5 94t84.5 280v781z" />
    <glyph glyph-name="Ucircumflex" unicode="&#xdb;" horiz-adv-x="1624" 
d="M975 1890l250 -346h-254l-156 189l-158 -189h-254l252 346h320zM1141 1434h325v-781q0 -335 -172 -504t-477 -169q-311 0 -480 170.5t-169 502.5v781h326v-781q0 -189 85.5 -281.5t237.5 -92.5q155 0 239.5 94t84.5 280v781z" />
    <glyph glyph-name="Udieresis" unicode="&#xdc;" horiz-adv-x="1624" 
d="M602 1864q41 3 73 -20.5t46 -58t8 -74t-35 -66.5q-27 -29 -67 -35t-75 8t-59 45.5t-20 71.5q0 56 37.5 92.5t91.5 36.5zM1155 1735q0 -55 -36.5 -91t-92.5 -36q-54 0 -91.5 36.5t-37.5 90.5q0 55 36.5 92t92.5 37t92.5 -37t36.5 -92zM1141 1434h325v-781
q0 -335 -172 -504t-477 -169q-311 0 -480 170.5t-169 502.5v781h326v-781q0 -189 85.5 -281.5t237.5 -92.5q155 0 239.5 94t84.5 280v781z" />
    <glyph glyph-name="Yacute" unicode="&#xdd;" horiz-adv-x="1607" 
d="M1217 1890l-297 -346h-263l242 346h318zM1546 1434l-581 -932v-502h-326v496l-582 938h389l357 -588l358 588h385z" />
    <glyph glyph-name="Thorn" unicode="&#xde;" horiz-adv-x="1509" 
d="M494 1434v-181h286q323 0 473 -123.5t150 -384.5q0 -256 -151.5 -376.5t-467.5 -120.5h-290v-248h-326v1434h326zM768 973h-274v-475h276q152 0 222.5 56.5t70.5 178.5q0 125 -70 182.5t-225 57.5z" />
    <glyph glyph-name="germandbls" unicode="&#xdf;" horiz-adv-x="1392" 
d="M686 1456q231 0 379.5 -103.5t148.5 -275.5q0 -214 -206 -309q143 -44 222 -141.5t79 -231.5q0 -195 -158 -307q-156 -108 -418 -108q-69 0 -135 16l29 242q58 -16 112 -13q115 4 180.5 61t65.5 146q0 97 -68 153t-184 56h-108v213h71q94 0 154.5 48t60.5 130
q0 76 -61 127t-154 51q-100 0 -156.5 -54.5t-56.5 -151.5v-1004h-325v930q0 257 135 391.5t393 134.5z" />
    <glyph glyph-name="agrave" unicode="&#xe0;" horiz-adv-x="1216" 
d="M662 1044q204 0 321 -95.5t117 -286.5v-662h-305v125q-154 -145 -371 -145q-150 0 -245 89.5t-95 231.5t100.5 221.5t278.5 79.5h332v31q0 86 -56.5 131t-158.5 45q-159 -3 -316 -98l-88 194q231 136 486 139zM795 233v252h-213q-94 0 -145.5 -39.5t-51.5 -113.5
q0 -75 49.5 -122.5t124.5 -47.5q141 0 236 71zM555 1481l240 -346h-263l-294 346h317z" />
    <glyph glyph-name="aacute" unicode="&#xe1;" horiz-adv-x="1216" 
d="M662 1044q204 0 321 -95.5t117 -286.5v-662h-305v125q-154 -145 -371 -145q-150 0 -245 89.5t-95 231.5t100.5 221.5t278.5 79.5h332v31q0 86 -56.5 131t-158.5 45q-159 -3 -316 -98l-88 194q231 136 486 139zM795 233v252h-213q-94 0 -145.5 -39.5t-51.5 -113.5
q0 -75 49.5 -122.5t124.5 -47.5q141 0 236 71zM1071 1481l-295 -346h-262l240 346h317z" />
    <glyph glyph-name="acircumflex" unicode="&#xe2;" horiz-adv-x="1216" 
d="M817 1481l250 -346h-252l-158 188l-155 -188h-254l250 346h319zM662 1044q204 0 321 -95.5t117 -286.5v-662h-305v125q-154 -145 -371 -145q-150 0 -245 89.5t-95 231.5t100.5 221.5t278.5 79.5h332v31q0 86 -56.5 131t-158.5 45q-159 -3 -316 -98l-88 194
q231 136 486 139zM795 233v252h-213q-94 0 -145.5 -39.5t-51.5 -113.5q0 -75 49.5 -122.5t124.5 -47.5q141 0 236 71z" />
    <glyph glyph-name="atilde" unicode="&#xe3;" horiz-adv-x="1216" 
d="M449 1468q49 4 85 -4t107 -37q116 -52 168 -55q76 -3 98 88l119 -12q7 -115 -36.5 -189t-125.5 -88q-43 -7 -82 2t-114 41q-19 9 -34 16.5t-28.5 13t-22.5 9.5t-20 6.5t-15 4t-13.5 2t-11 0.5h-12h-11.5q-68 -6 -86 -88l-119 14q-10 114 32 188t122 88zM662 1044
q204 0 321 -95.5t117 -286.5v-662h-305v125q-154 -145 -371 -145q-150 0 -245 89.5t-95 231.5t100.5 221.5t278.5 79.5h332v31q0 86 -56.5 131t-158.5 45q-159 -3 -316 -98l-88 194q231 136 486 139zM795 233v252h-213q-94 0 -145.5 -39.5t-51.5 -113.5q0 -75 49.5 -122.5
t124.5 -47.5q141 0 236 71z" />
    <glyph glyph-name="adieresis" unicode="&#xe4;" horiz-adv-x="1216" 
d="M446 1454q41 3 73 -20.5t46 -58t8.5 -74t-34.5 -66.5q-27 -29 -67.5 -35t-75.5 8t-59 45.5t-20 71.5q0 57 36 93t93 36zM870 1198q-56 0 -92.5 36t-36.5 91q-3 41 20.5 73t58.5 46t74.5 8t66.5 -35q29 -27 34.5 -66.5t-8 -74t-45.5 -58t-72 -20.5zM662 1044
q204 0 321 -95.5t117 -286.5v-662h-305v125q-154 -145 -371 -145q-150 0 -245 89.5t-95 231.5t100.5 221.5t278.5 79.5h332v31q0 86 -56.5 131t-158.5 45q-159 -3 -316 -98l-88 194q231 136 486 139zM795 233v252h-213q-94 0 -145.5 -39.5t-51.5 -113.5q0 -75 49.5 -122.5
t124.5 -47.5q141 0 236 71z" />
    <glyph glyph-name="aring" unicode="&#xe5;" horiz-adv-x="1216" 
d="M657 1587q112 0 193 -78q80 -77 80 -188q0 -108 -80.5 -187t-192.5 -79q-111 0 -192 78q-80 77 -80 188q0 109 81 187.5t191 78.5zM532 1321q0 -52 36.5 -87.5t88.5 -35.5q38 -3 69.5 20t45.5 56t8 71t-35 62q-26 29 -64.5 34.5t-71.5 -8t-56 -44.5t-21 -68zM662 1044
q204 0 321 -95.5t117 -286.5v-662h-305v125q-154 -145 -371 -145q-150 0 -245 89.5t-95 231.5t100.5 221.5t278.5 79.5h332v31q0 86 -56.5 131t-158.5 45q-159 -3 -316 -98l-88 194q231 136 486 139zM795 233v252h-213q-94 0 -145.5 -39.5t-51.5 -113.5q0 -75 49.5 -122.5
t124.5 -47.5q141 0 236 71z" />
    <glyph glyph-name="ae" unicode="&#xe6;" horiz-adv-x="2052" 
d="M1972 512v-78h-772q6 -103 85.5 -168t191.5 -67q156 0 256 100l159 -143q-185 -176 -442 -176q-202 0 -350 124v-104h-305v125q-154 -145 -371 -145q-150 0 -245 89.5t-95 231.5t100.5 221.5t278.5 79.5h332v31q0 86 -56.5 131t-158.5 45q-159 -3 -316 -98l-88 194
q231 136 486 139q280 3 385 -172q72 82 175 127t218 45q243 0 387 -153q145 -151 145 -379zM1202 580h486q0 106 -66 177.5t-176 71.5q-102 0 -172 -73q-72 -75 -72 -176zM795 233v252h-213q-94 0 -145.5 -39.5t-51.5 -113.5q0 -75 49.5 -122.5t124.5 -47.5q141 0 236 71z
" />
    <glyph glyph-name="ccedilla" unicode="&#xe7;" horiz-adv-x="1181" 
d="M647 -20h-14l-35 -70q39 3 70 -2q64 -14 103.5 -61.5t39.5 -114.5q0 -91 -70.5 -144t-179.5 -53q-121 0 -221 53l41 109q60 -29 129 -29q52 0 84.5 29t34.5 72q0 37 -23.5 62t-64.5 26q-38 0 -68 -21l-39 35l64 129q-179 47 -293 188q-115 142 -115 324q0 222 162 377
t395 155q135 0 253.5 -58.5t197.5 -162.5l-234 -131q-79 94 -202 94q-115 0 -193 -81q-80 -80 -80 -193q0 -112 80 -195q79 -79 193 -79q126 0 208 98l232 -129q-76 -105 -196.5 -166t-258.5 -61z" />
    <glyph glyph-name="egrave" unicode="&#xe8;" 
d="M520 1481l240 -346h-262l-295 346h317zM625 1044q243 0 387 -153q145 -151 145 -379v-78h-772q6 -106 84.5 -169t192.5 -66q153 0 253 100l160 -143q-185 -176 -440 -176q-144 -3 -271 69.5t-202 196.5t-72 266q0 221 156 377q155 155 379 155zM631 829q-102 0 -172 -73
q-72 -75 -72 -176h485q0 108 -66.5 178.5t-174.5 70.5z" />
    <glyph glyph-name="eacute" unicode="&#xe9;" 
d="M625 1044q240 1 388.5 -152.5t143.5 -379.5v-78h-772q3 -104 84 -170q76 -62 193 -65q153 0 253 100l160 -143q-185 -176 -440 -176q-227 0 -385 155q-160 157 -160 377q0 221 156 377q155 155 379 155zM631 829q-102 0 -172 -73q-72 -75 -72 -176h485q0 108 -66.5 178.5
t-174.5 70.5zM1036 1481l-295 -346h-262l240 346h317z" />
    <glyph glyph-name="ecircumflex" unicode="&#xea;" 
d="M782 1481l250 -346h-254l-155 188l-156 -188h-254l250 346h319zM625 1044q243 0 387 -153q145 -151 145 -379v-78h-772q3 -104 84 -170q76 -62 193 -65q153 0 253 100l160 -143q-185 -176 -440 -176q-227 0 -385 155q-160 157 -160 377q0 221 156 377q155 155 379 155z
M631 829q-102 0 -172 -73q-72 -75 -72 -176h485q0 108 -66.5 178.5t-174.5 70.5z" />
    <glyph glyph-name="edieresis" unicode="&#xeb;" 
d="M319 1417q37 37 92.5 37t90.5 -37q37 -37 37 -91t-37 -91q-35 -37 -90.5 -37t-92.5 37t-37 91t37 91zM834 1454q57 0 93 -36t36 -93q0 -54 -37 -90.5t-92 -36.5t-91 36.5t-36 90.5q0 57 36.5 93t90.5 36zM625 1044q240 1 388.5 -152.5t143.5 -379.5v-78h-772
q3 -104 84 -170q76 -62 193 -65q153 0 253 100l160 -143q-185 -176 -440 -176q-227 0 -385 155q-160 157 -160 377q0 221 156 377q155 155 379 155zM631 829q-102 0 -172 -73q-72 -75 -72 -176h485q0 108 -66.5 178.5t-174.5 70.5z" />
    <glyph glyph-name="igrave" unicode="&#xec;" horiz-adv-x="591" 
d="M203 1481l241 -346h-264l-295 346h318zM457 1024v-1024h-305v1024h305z" />
    <glyph glyph-name="iacute" unicode="&#xed;" horiz-adv-x="591" 
d="M721 1481l-297 -346h-262l241 346h318zM457 1024v-1024h-305v1024h305z" />
    <glyph glyph-name="icircumflex" unicode="&#xee;" horiz-adv-x="591" 
d="M467 1481l252 -346h-254l-158 188l-155 -188h-254l249 346h320zM459 1024v-1024h-305v1024h305z" />
    <glyph glyph-name="idieresis" unicode="&#xef;" horiz-adv-x="591" 
d="M96 1454q57 0 93 -36t36 -93q0 -54 -37 -90.5t-92 -36.5q-54 0 -91.5 36.5t-37.5 90.5q0 55 36.5 92t92.5 37zM520 1454q55 0 92 -36.5t37 -92.5q0 -54 -37 -90.5t-92 -36.5t-92 36.5t-37 90.5q0 57 36 93t93 36zM459 1024v-1024h-305v1024h305z" />
    <glyph glyph-name="eth" unicode="&#xf0;" horiz-adv-x="1329" 
d="M1110 1520l104 -158l-139 -84q133 -216 133 -567q0 -112 -14 -202t-53 -187q-29 -74 -73 -134t-108 -108t-153 -74t-197 -26q-97 -1 -184 28t-151.5 79.5t-111.5 117t-70 144t-21 157.5q0 192 121 319q120 129 333 129q212 0 344 -129v21q-3 168 -53 274l-168 -102
l-104 158l149 90q-73 46 -172 43q-130 0 -246 -72l-92 209q174 98 379 98q231 3 387 -123zM612 223q239 0 260 314q-20 86 -91 137t-169 51q-103 0 -168 -69t-65 -181t65 -182t168 -70z" />
    <glyph glyph-name="ntilde" unicode="&#xf1;" horiz-adv-x="1316" 
d="M449 1468q42 7 83 -2.5t109 -38.5q113 -52 168 -55q73 -3 98 88l117 -12q10 -114 -33.5 -188.5t-126.5 -88.5q-46 -9 -87 1t-109 42q-88 38 -112 45t-58 7q-68 -6 -86 -88l-117 14q-10 115 31 188.5t123 87.5zM834 1044q161 0 262.5 -90.5t101.5 -259.5v-694h-305v602
q0 93 -48.5 145t-133.5 52q-156 0 -277 -103v-696h-305v1024h305v-123q180 143 400 143z" />
    <glyph glyph-name="ograve" unicode="&#xf2;" horiz-adv-x="1333" 
d="M563 1481l242 -346h-262l-297 346h317zM258 889q168 155 408 155q239 0 407 -155q170 -156 170 -377t-170 -377q-168 -155 -407 -155q-240 0 -408 155t-168 377t168 377zM666 238q112 0 193 81t81 193q0 114 -82 193q-78 81 -194 81q-114 0 -195 -81q-80 -80 -80 -193
q0 -112 80 -195q82 -79 197 -79z" />
    <glyph glyph-name="oacute" unicode="&#xf3;" horiz-adv-x="1333" 
d="M258 889q168 155 408 155q239 0 407 -155q170 -156 170 -377t-170 -377q-168 -155 -407 -155q-240 0 -408 155t-168 377t168 377zM858 705q-78 81 -194 81q-114 0 -195 -81q-80 -80 -80 -193q0 -112 80 -195q82 -79 195 -79q115 0 194 79q82 82 82 195q0 114 -82 193z
M1081 1481l-295 -346h-262l240 346h317z" />
    <glyph glyph-name="ocircumflex" unicode="&#xf4;" horiz-adv-x="1333" 
d="M827 1481l250 -346h-254l-155 188l-158 -188h-254l252 346h319zM258 889q168 155 408 155q239 0 407 -155q170 -156 170 -377t-170 -377q-168 -155 -407 -155q-240 0 -408 155t-168 377t168 377zM858 705q-78 81 -194 81q-114 0 -195 -81q-80 -80 -80 -193
q0 -112 80 -195q82 -79 195 -79q115 0 194 79q82 82 82 195q0 114 -82 193z" />
    <glyph glyph-name="otilde" unicode="&#xf5;" horiz-adv-x="1333" 
d="M459 1468q45 7 82.5 -2t109.5 -39q113 -52 168 -55q74 -3 99 88l116 -12q10 -114 -33.5 -188.5t-126.5 -88.5q-46 -7 -85 2t-111 41q-88 38 -112 45t-58 7q-68 -6 -86 -88l-117 14q-10 115 31 188.5t123 87.5zM258 889q168 155 408 155q239 0 407 -155q170 -156 170 -377
t-170 -377q-168 -155 -407 -155q-240 0 -408 155t-168 377t168 377zM666 786q-116 0 -197 -81q-80 -80 -80 -193q0 -112 80 -195q82 -79 197 -79q112 0 193 81t81 193t-81 193t-193 81z" />
    <glyph glyph-name="odieresis" unicode="&#xf6;" horiz-adv-x="1333" 
d="M362 1417q37 37 92.5 37t92.5 -37t37 -91t-37 -91t-92.5 -37t-92.5 37q-35 37 -35 91t35 91zM879 1454q56 0 92.5 -36t36.5 -93q0 -54 -37 -90.5t-92 -36.5t-92 36.5t-37 90.5q0 56 37 92.5t92 36.5zM258 889q168 155 408 155q239 0 407 -155q170 -156 170 -377
t-170 -377q-168 -155 -407 -155q-240 0 -408 155t-168 377t168 377zM858 705q-78 81 -194 81q-114 0 -195 -81q-80 -80 -80 -193q0 -112 80 -195q82 -79 195 -79q115 0 194 79q82 82 82 195q0 114 -82 193z" />
    <glyph glyph-name="divide" unicode="&#xf7;" horiz-adv-x="1169" 
d="M582 1159q51 3 92.5 -23t59.5 -64t10 -81.5t-46 -72.5q-33 -32 -83.5 -39t-95 8.5t-75 51t-26.5 79.5q0 60 47.5 100.5t116.5 40.5zM1094 711v-236h-1022v236h1022zM465 268q49 41 117.5 41t115.5 -41q50 -41 50 -100t-50 -100q-47 -41 -115.5 -41t-117.5 41
q-47 41 -47 100t47 100z" />
    <glyph glyph-name="oslash" unicode="&#xf8;" horiz-adv-x="1333" 
d="M862 1126h195l-78 -165q123 -73 193.5 -192t70.5 -257q0 -221 -170 -377q-168 -155 -405 -155q-78 0 -148 18l-49 -100h-195l80 165q-124 73 -195 191.5t-71 257.5q0 222 168 377t410 155q76 0 147 -18zM389 512q0 -116 86 -199l223 471q-10 2 -32 2q-116 0 -197 -81
q-80 -80 -80 -193zM858 707l-223 -467l31 -2q113 0 192 79q82 82 82 195q0 116 -82 195z" />
    <glyph glyph-name="ugrave" unicode="&#xf9;" horiz-adv-x="1302" 
d="M553 1481l240 -346h-263l-294 346h317zM1186 1024v-1024h-303v123q-180 -143 -402 -143q-160 0 -262 90t-102 260v694h305v-602q0 -93 48.5 -145t133.5 -52q158 0 279 103v696h303z" />
    <glyph glyph-name="uacute" unicode="&#xfa;" horiz-adv-x="1302" 
d="M1069 1481l-295 -346h-262l240 346h317zM1186 1024v-1024h-303v123q-180 -143 -402 -143q-160 0 -262 90t-102 260v694h305v-602q0 -93 48.5 -145t133.5 -52q158 0 279 103v696h303z" />
    <glyph glyph-name="ucircumflex" unicode="&#xfb;" horiz-adv-x="1302" 
d="M815 1481l250 -346h-254l-156 188l-155 -188h-254l250 346h319zM117 1024h305v-602q0 -93 48.5 -145t133.5 -52q158 0 279 103v696h303v-1024h-303v123q-180 -143 -402 -143q-161 0 -262.5 90.5t-101.5 259.5v694z" />
    <glyph glyph-name="udieresis" unicode="&#xfc;" horiz-adv-x="1302" 
d="M352 1417q37 37 91.5 37t91.5 -37t37 -91t-37 -91t-91.5 -37t-91.5 37t-37 91t37 91zM866 1454q57 0 93 -36t36 -93q0 -54 -37 -90.5t-92 -36.5t-92 36.5t-37 90.5q0 56 37.5 92.5t91.5 36.5zM117 1024h305v-602q0 -94 49 -145.5t133 -51.5q158 0 279 103v696h303v-1024
h-303v123q-180 -143 -402 -143q-164 0 -264 92t-100 258v694z" />
    <glyph glyph-name="yacute" unicode="&#xfd;" horiz-adv-x="1228" 
d="M1047 1481l-295 -346h-263l240 346h318zM375 1024l260 -676l246 676h315l-438 -1120q-127 -324 -420 -324q-128 -3 -307 66l84 198q119 -46 192 -37q112 6 180 136l13 26l-447 1055h322z" />
    <glyph glyph-name="thorn" unicode="&#xfe;" horiz-adv-x="1349" 
d="M139 1434h305v-541q139 151 338 151q208 0 334 -153q127 -151 127 -379q0 -227 -127 -381q-127 -151 -334 -151q-199 0 -338 151v-530h-305v1833zM670 786q-69 0 -129 -33.5t-97 -90.5v-300q35 -57 96 -90.5t130 -33.5q113 0 192 79q80 83 80 195q0 113 -80 193
q-78 81 -192 81z" />
    <glyph glyph-name="ydieresis" unicode="&#xff;" horiz-adv-x="1228" 
d="M422 1454q41 3 72.5 -20.5t45 -58t7.5 -74t-35 -66.5q-25 -29 -65 -35t-75 8t-59 45.5t-20 71.5q0 57 36 93t93 36zM844 1198q-54 0 -90.5 36.5t-36.5 90.5q-4 41 19.5 73t58 46t74.5 8t67 -35q29 -27 35 -66.5t-8 -74t-46 -58t-73 -20.5zM881 1024h315l-438 -1120
q-127 -324 -420 -324q-128 -3 -307 66l84 198q119 -46 192 -37q112 6 180 136l13 26l-447 1055h322l260 -676z" />
    <glyph glyph-name="Amacron" unicode="&#x100;" horiz-adv-x="1718" 
d="M1194 1831v-191h-678v191h678zM1069 1434l588 -1434h-389l-111 283h-600l-111 -283h-389l584 1434h428zM856 1071l-213 -528h426z" />
    <glyph glyph-name="amacron" unicode="&#x101;" horiz-adv-x="1216" 
d="M662 1044q204 0 321 -95.5t117 -286.5v-662h-305v125q-154 -145 -371 -145q-150 0 -245 89.5t-95 231.5t100.5 221.5t278.5 79.5h332v31q0 86 -56.5 131t-158.5 45q-159 -3 -316 -98l-88 194q231 136 486 139zM795 233v252h-213q-94 0 -145.5 -39.5t-51.5 -113.5
q0 -75 49.5 -122.5t124.5 -47.5q141 0 236 71zM991 1421v-190h-676v190h676z" />
    <glyph glyph-name="Abreve" unicode="&#x102;" horiz-adv-x="1718" 
d="M1038 1896l203 -2q-3 -142 -111 -237q-109 -92 -270 -92q-159 0 -268 92q-108 95 -111 237l203 2q1 -68 50.5 -107.5t125.5 -39.5q79 0 128 39.5t50 107.5zM1069 1434l588 -1434h-389l-111 283h-600l-111 -283h-389l584 1434h428zM856 1071l-213 -528h426z" />
    <glyph glyph-name="abreve" unicode="&#x103;" horiz-adv-x="1216" 
d="M836 1487l202 -2q-3 -142 -111.5 -236t-267.5 -94t-268 92q-109 95 -112 238l202 2q4 -68 53 -108t125 -40t126 40t51 108zM662 1044q204 0 321 -95.5t117 -286.5v-662h-305v125q-154 -145 -371 -145q-150 0 -245 89.5t-95 231.5t100.5 221.5t278.5 79.5h332v31
q0 86 -56.5 131t-158.5 45q-159 -3 -316 -98l-88 194q231 136 486 139zM795 233v252h-213q-94 0 -145.5 -39.5t-51.5 -113.5q0 -75 49.5 -122.5t124.5 -47.5q141 0 236 71z" />
    <glyph glyph-name="Aogonek" unicode="&#x104;" horiz-adv-x="1718" 
d="M1069 1434l588 -1434l-219 -2l-23 -27q-64 -88 -49 -151q6 -35 34.5 -58t69.5 -24q48 -3 95 18l39 -137q-82 -43 -191 -43q-89 0 -148.5 33t-78.5 90q-46 108 61 270l21 31l-111 283h-600l-111 -283h-389l584 1434h428zM856 1071l-213 -528h426z" />
    <glyph glyph-name="aogonek" unicode="&#x105;" horiz-adv-x="1216" 
d="M662 1044q204 0 321 -95.5t117 -286.5v-662l-137 -4l-21 -27q-65 -90 -51 -151q6 -35 34 -57t70 -25q50 -3 95 20l38 -139q-84 -41 -190 -41q-90 0 -149 32t-78 89q-47 109 61 272l23 31v125q-154 -145 -371 -145q-150 0 -245 89.5t-95 231.5t100.5 221.5t278.5 79.5h332
v31q0 86 -56.5 131t-158.5 45q-159 -3 -316 -98l-88 194q231 136 486 139zM795 233v252h-213q-94 0 -145.5 -39.5t-51.5 -113.5q0 -75 49.5 -122.5t124.5 -47.5q141 0 236 71z" />
    <glyph glyph-name="Cacute" unicode="&#x106;" horiz-adv-x="1570" 
d="M1266 1890l-295 -346h-262l239 346h318zM877 1454q183 0 343 -81t265 -224l-283 -158q-123 156 -323 156q-180 0 -299 -125t-119 -305t120 -306t298 -126q199 0 323 157l283 -159q-106 -141 -266 -222t-342 -81q-153 0 -292.5 58t-240.5 157t-161 235.5t-60 286.5
q-3 117 35 230t109 204.5t165 161t209.5 106.5t235.5 35z" />
    <glyph glyph-name="cacute" unicode="&#x107;" horiz-adv-x="1181" 
d="M1036 1481l-297 -346h-262l242 346h317zM647 1044q135 0 253.5 -58.5t197.5 -162.5l-234 -131q-79 94 -202 94q-111 0 -192 -81t-81 -193t81 -193t192 -81q126 0 208 98l232 -129q-76 -105 -196.5 -166t-258.5 -61q-233 0 -395 155t-162 377t162 377t395 155z" />
    <glyph glyph-name="Cdotaccent" unicode="&#x10a;" horiz-adv-x="1570" 
d="M852 1608q-54 0 -91.5 36.5t-37.5 90.5q-4 41 20 73t59 46t75 8t67 -35q29 -27 35 -66.5t-8 -74t-46 -58t-73 -20.5zM877 1454q183 0 343 -81t265 -224l-283 -158q-123 156 -323 156q-180 0 -299 -125t-119 -305q0 -182 119 -307t299 -125q199 0 323 157l283 -159
q-106 -141 -266 -222t-342 -81q-150 -4 -291 55t-243.5 159.5t-163 238t-56.5 284.5q-3 117 35 230t109 204.5t165 161t209.5 106.5t235.5 35z" />
    <glyph glyph-name="cdotaccent" unicode="&#x10b;" horiz-adv-x="1181" 
d="M621 1454q41 3 73 -20.5t46 -58t8 -74t-35 -66.5q-27 -29 -67 -35t-74.5 8t-58 45.5t-19.5 71.5q0 57 35.5 93t91.5 36zM647 1044q135 0 253.5 -58.5t197.5 -162.5l-234 -131q-79 94 -202 94q-115 0 -193 -81q-80 -80 -80 -193q0 -112 80 -195q79 -79 193 -79
q126 0 208 98l232 -129q-76 -105 -196.5 -166t-258.5 -61q-233 0 -395 155t-162 377t162 377t395 155z" />
    <glyph glyph-name="Ccaron" unicode="&#x10c;" horiz-adv-x="1570" 
d="M1262 1890l-250 -346h-320l-252 346h254l158 -186l156 186h254zM877 1454q183 0 343.5 -81.5t264.5 -223.5l-283 -158q-123 156 -323 156q-180 0 -299 -125t-119 -305t120 -306t298 -126q199 0 323 157l283 -159q-106 -141 -266 -222t-342 -81q-150 -4 -291 55
t-243.5 159.5t-163 238t-56.5 284.5q-3 117 35 230t109 204.5t165 161t209.5 106.5t235.5 35z" />
    <glyph glyph-name="ccaron" unicode="&#x10d;" horiz-adv-x="1181" 
d="M1030 1481l-250 -346h-319l-250 346h254l156 -187l155 187h254zM647 1044q135 0 253.5 -58.5t197.5 -162.5l-234 -131q-79 94 -202 94q-111 0 -192 -81t-81 -193t81 -193t192 -81q126 0 208 98l232 -129q-76 -105 -196.5 -166t-258.5 -61q-148 -3 -278 69.5t-206 196.5
t-73 266q0 222 162 377t395 155z" />
    <glyph glyph-name="Dcaron" unicode="&#x10e;" horiz-adv-x="1654" 
d="M1143 1890l-250 -346h-320l-249 346h254l155 -186l156 186h254zM168 0v1434h598q204 4 381.5 -91.5t282 -263.5t100.5 -364q4 -194 -100.5 -361t-282 -262.5t-381.5 -91.5h-598zM754 1143h-260v-850h260q183 0 313 121q129 123 129 303t-129 303t-313 123z" />
    <glyph glyph-name="dcaron" unicode="&#x10f;" horiz-adv-x="1671" 
d="M1671 1329q0 -35 -20 -61l-213 -318l-78 35l102 234q-35 14 -57.5 44.5t-22.5 65.5q0 54 41.5 89.5t102.5 35.5q62 0 103.5 -35.5t41.5 -89.5zM891 1434h305v-1434h-305v131q-139 -151 -338 -151q-209 0 -336 151q-127 154 -127 381q0 228 127 379q126 153 336 153
q196 0 338 -151v541zM664 786q-115 0 -193 -81q-80 -80 -80 -193q0 -112 80 -195q79 -79 193 -79q69 0 129.5 33.5t97.5 90.5v300q-37 57 -97.5 90.5t-129.5 33.5z" />
    <glyph glyph-name="Dcroat" unicode="&#x110;" horiz-adv-x="1671" 
d="M184 844v590h598q204 4 381.5 -91.5t282 -263.5t100.5 -364q4 -194 -100.5 -361t-282 -262.5t-381.5 -91.5h-598v590h-141v254h141zM510 590v-297h260q183 0 313 121q129 123 129 303t-129 303t-313 123h-260v-299h260v-254h-260z" />
    <glyph glyph-name="dslash" unicode="&#x111;" horiz-adv-x="1325" 
d="M1343 1321v-188h-147v-1133h-305v131q-139 -151 -338 -151q-138 0 -244.5 71.5t-162.5 192t-56 268.5t56 268.5t162.5 192t244.5 71.5q196 0 338 -151v240h-223v188h223v113h305v-113h147zM891 362v300q-37 57 -97.5 90.5t-129.5 33.5q-115 0 -193 -81q-80 -80 -80 -193
q0 -112 80 -195q79 -79 193 -79q69 0 129.5 33.5t97.5 90.5z" />
    <glyph glyph-name="Emacron" unicode="&#x112;" horiz-adv-x="1415" 
d="M1073 1831v-191h-678v191h678zM1313 1434v-293h-819v-277h761v-278h-761v-293h833v-293h-1159v1434h1145z" />
    <glyph glyph-name="emacron" unicode="&#x113;" 
d="M961 1421v-190h-676v190h676zM625 1044q243 0 387 -153q145 -151 145 -379v-78h-772q3 -104 84 -170q76 -62 193 -65q153 0 253 100l160 -143q-185 -176 -440 -176q-227 0 -385 155q-160 157 -160 377q0 221 156 377q155 155 379 155zM631 829q-102 0 -172 -73
q-72 -75 -72 -176h485q0 108 -66.5 178.5t-174.5 70.5z" />
    <glyph glyph-name="Edotaccent" unicode="&#x116;" horiz-adv-x="1415" 
d="M643 1827q37 37 92 37t92 -37t37 -91t-37 -91t-92 -37t-92 37t-37 91t37 91zM1313 1434v-293h-819v-277h761v-278h-761v-293h833v-293h-1159v1434h1145z" />
    <glyph glyph-name="edotaccent" unicode="&#x117;" 
d="M530 1417q37 37 92.5 37t92.5 -37t37 -91t-37 -91t-92.5 -37t-92.5 37t-37 91t37 91zM625 1044q243 0 387 -153q145 -151 145 -379v-78h-772q3 -104 84 -170q76 -62 193 -65q153 0 253 100l160 -143q-185 -176 -440 -176q-227 0 -385 155q-160 157 -160 377
q0 221 156 377q155 155 379 155zM631 829q-102 0 -172 -73q-72 -75 -72 -176h485q0 108 -66.5 178.5t-174.5 70.5z" />
    <glyph glyph-name="Eogonek" unicode="&#x118;" horiz-adv-x="1415" 
d="M1313 1434v-293h-819v-277h761v-278h-761v-293h833v-293h-125l-22 -29q-51 -78 -39 -137q6 -35 34.5 -58t69.5 -24q47 -3 94 21l39 -140q-84 -41 -190 -41q-90 0 -149 32t-78 89q-47 105 53 262l18 25h-864v1434h1145z" />
    <glyph glyph-name="eogonek" unicode="&#x119;" 
d="M625 1044q243 0 387 -153q145 -151 145 -379v-78h-772q3 -104 84 -170q78 -63 193 -63q152 -3 253 98l160 -143q-71 -68 -151 -107l-23 -29q-64 -87 -49 -151q6 -35 34 -57t70 -25q50 -3 95 20l39 -139q-84 -41 -191 -41q-90 0 -149 32t-78 89q-38 89 30 219l15 21
q-49 -9 -99 -6q-231 9 -380 161q-148 151 -148 369q0 221 156 377q155 155 379 155zM631 829q-102 0 -172 -73q-72 -75 -72 -176h485q0 108 -66.5 178.5t-174.5 70.5z" />
    <glyph glyph-name="Ecaron" unicode="&#x11a;" horiz-adv-x="1415" 
d="M1313 1434v-293h-819v-277h761v-278h-761v-293h833v-293h-1159v1434h1145zM1145 1890l-252 -346h-320l-249 346h254l155 -186l158 186h254z" />
    <glyph glyph-name="ecaron" unicode="&#x11b;" 
d="M1032 1481l-250 -346h-319l-252 346h254l158 -187l155 187h254zM625 1044q240 1 388.5 -152.5t143.5 -379.5v-78h-772q3 -104 84 -170q76 -62 193 -65q153 0 253 100l160 -143q-185 -176 -440 -176q-227 0 -385 155q-160 157 -160 377q0 221 156 377q155 155 379 155z
M631 829q-102 0 -172 -73q-72 -75 -72 -176h485q0 108 -66.5 178.5t-174.5 70.5z" />
    <glyph glyph-name="Gbreve" unicode="&#x11e;" horiz-adv-x="1669" 
d="M1026 1896l203 -2q-3 -142 -111 -237q-109 -92 -268 -92t-268 92q-110 96 -113 237l205 2q1 -68 50.5 -107.5t125.5 -39.5t125.5 39.5t50.5 107.5zM907 1454q320 -3 553 -205l-213 -223q-148 130 -340 127q-184 0 -315 -122.5t-131 -313.5q0 -178 121 -305
q122 -125 305 -125q176 0 315 92v188h-295v234h606v-604q-269 -217 -626 -217q-151 -4 -294 55t-247 159.5t-165.5 238.5t-57.5 284q0 167 65 308.5t173.5 235t250 144.5t295.5 49z" />
    <glyph glyph-name="gbreve" unicode="&#x11f;" horiz-adv-x="1351" 
d="M881 1487l204 -2q-3 -142 -112.5 -236t-267.5 -94q-160 0 -269 92q-107 94 -110 238l202 2q1 -68 51 -108t126 -40t125.5 40t50.5 108zM555 1044q203 0 352 -149v129h305v-958q0 -128 -41.5 -224t-116.5 -153t-171 -85t-213 -28q-286 3 -547 150l88 196
q196 -112 397 -115q139 -2 219 65t80 194v90q-135 -156 -352 -156q-207 0 -334 145q-125 143 -125 369q0 230 125 379q127 151 334 151zM666 786q-112 0 -191 -79q-78 -81 -78 -193q0 -109 78 -190q80 -80 191 -80q77 0 140.5 39t100.5 106v277q-43 56 -106.5 88t-134.5 32z
" />
    <glyph glyph-name="Gdotaccent" unicode="&#x120;" horiz-adv-x="1669" 
d="M844 1864q41 3 73 -20.5t46 -58t8 -74t-35 -66.5q-27 -29 -67 -35t-75 8t-59 45.5t-20 71.5q0 57 36.5 93t92.5 36zM907 1454q320 -3 553 -205l-213 -223q-148 130 -340 127q-183 0 -315 -123q-129 -120 -129 -313q0 -182 120.5 -306t303.5 -124q176 0 315 92v188h-295
v234h606v-604q-269 -217 -626 -217q-151 -4 -294 55t-247 159.5t-165.5 238.5t-57.5 284q0 167 65 308.5t173.5 235t250 144.5t295.5 49z" />
    <glyph glyph-name="gdotaccent" unicode="&#x121;" horiz-adv-x="1351" 
d="M700 1454q41 3 73 -20.5t45.5 -58t7.5 -74t-35 -66.5q-25 -29 -65 -35t-75 8t-59.5 45.5t-20.5 71.5q0 57 36 93t93 36zM555 1044q203 0 352 -149v129h305v-958q0 -128 -41.5 -224t-116.5 -153t-171 -85t-213 -28q-286 3 -547 150l88 196q196 -112 397 -115
q137 -3 218 62.5t81 196.5v90q-135 -156 -352 -156q-207 0 -334 145q-125 143 -125 369q0 230 125 379q127 151 334 151zM666 786q-112 0 -191 -79q-78 -81 -78 -193q0 -109 78 -190q80 -80 191 -80q77 0 140.5 39t100.5 106v277q-42 55 -105.5 87.5t-135.5 32.5z" />
    <glyph glyph-name="Gcommaaccent" unicode="&#x122;" horiz-adv-x="1669" 
d="M907 1454q320 -3 553 -205l-213 -223q-148 130 -340 127q-183 0 -315 -123q-131 -119 -131 -313q0 -181 122 -305.5t304 -124.5q176 0 315 92v188h-295v234h606v-604q-269 -217 -626 -217q-151 -4 -294 55t-247 159.5t-165.5 238.5t-57.5 284q0 167 65 308.5t173.5 235
t250 144.5t295.5 49zM1028 -244q0 -35 -20 -61l-213 -318l-78 35l102 234q-35 16 -57.5 45t-22.5 65q0 53 42.5 89t103.5 36q60 0 101.5 -35.5t41.5 -89.5z" />
    <glyph glyph-name="gcommaaccent" unicode="&#x123;" horiz-adv-x="1351" 
d="M750 1704l77 -37l-102 -231q36 -18 57 -47.5t21 -65.5q0 -51 -42 -87t-102 -36t-101.5 36t-41.5 87q0 35 19 63zM555 1044q203 0 352 -149v129h305v-958q0 -128 -41.5 -224t-116.5 -153t-171 -85t-213 -28q-286 3 -547 150l88 196q196 -112 397 -115q139 -2 219 65
t80 194v90q-135 -156 -352 -156q-207 0 -334 145q-125 143 -125 369q0 230 125 379q127 151 334 151zM666 786q-112 0 -191 -79q-78 -81 -78 -193t79 -191t190 -79q77 0 140.5 39t100.5 106v277q-43 56 -106.5 88t-134.5 32z" />
    <glyph glyph-name="Hbar" unicode="&#x126;" horiz-adv-x="1667" 
d="M1634 1270v-207h-135v-1063h-328v575h-675v-575h-326v1063h-137v207h137v164h326v-164h675v164h328v-164h135zM1171 868v195h-675v-195h675z" />
    <glyph glyph-name="hbar" unicode="&#x127;" horiz-adv-x="1327" 
d="M846 1044q165 0 264.5 -91.5t99.5 -258.5v-694h-305v602q0 94 -49 145.5t-133 51.5q-156 0 -277 -103v-696h-305v1133h-141v188h141v113h305v-113h287v-188h-287v-232q180 143 400 143z" />
    <glyph glyph-name="Itilde" unicode="&#x128;" horiz-adv-x="665" 
d="M145 1878q42 7 83.5 -2.5t109.5 -38.5q113 -52 168 -55q73 -3 98 88l117 -12q10 -114 -33.5 -188.5t-126.5 -88.5q-46 -7 -85 2t-111 41q-88 37 -111.5 44t-58.5 7q-68 -6 -86 -88l-117 15q-10 115 30.5 188.5t122.5 87.5zM506 1434v-1434h-326v1434h326z" />
    <glyph glyph-name="itilde" unicode="&#x129;" horiz-adv-x="591" 
d="M109 1468q44 7 84 -1.5t108 -39.5q116 -52 168 -55q75 -3 100 88l117 -12q10 -114 -34.5 -188.5t-125.5 -88.5q-45 -7 -83.5 2t-114.5 41q-84 37 -110 44.5t-58 7.5q-68 -6 -86 -88l-117 14q-12 114 30 188t122 88zM469 1024v-1024h-305v1024h305z" />
    <glyph glyph-name="Imacron" unicode="&#x12a;" horiz-adv-x="665" 
d="M680 1831v-191h-676v191h676zM496 1434v-1434h-326v1434h326z" />
    <glyph glyph-name="imacron" unicode="&#x12b;" horiz-adv-x="591" 
d="M645 1421v-190h-676v190h676zM459 1024v-1024h-305v1024h305z" />
    <glyph glyph-name="Iogonek" unicode="&#x12e;" horiz-adv-x="665" 
d="M494 1434v-1436l-25 -33q-64 -87 -49 -151q6 -35 34.5 -58t69.5 -24q49 -3 94 20l39 -139q-82 -43 -190 -43q-90 0 -149 32.5t-78 90.5q-47 109 61 272l21 29l-154 6v1434h326z" />
    <glyph glyph-name="iogonek" unicode="&#x12f;" horiz-adv-x="591" 
d="M213 1417q37 37 92 37t92 -37t37 -91t-37 -91t-92 -37t-92 37q-35 37 -35 91t35 91zM457 1024v-1028l-23 -31q-65 -90 -51 -151q6 -36 35 -58.5t71 -23.5q48 -3 93 20l39 -139q-82 -43 -191 -43q-87 0 -147 33t-80 90q-47 109 61 272l19 25l-131 10v1024h305z" />
    <glyph glyph-name="Idot" unicode="&#x130;" horiz-adv-x="665" 
d="M250 1827q37 37 92 37t92 -37t37 -91t-37 -91t-92 -37t-92 37t-37 91t37 91zM494 1434v-1434h-326v1434h326z" />
    <glyph glyph-name="dotlessi" unicode="&#x131;" horiz-adv-x="591" 
d="M457 1024v-1024h-305v1024h305z" />
    <glyph glyph-name="IJ" unicode="&#x132;" horiz-adv-x="1927" 
d="M1430 1434h325v-873q0 -316 -141 -448q-139 -133 -406 -133q-359 0 -493 227l262 172q75 -100 215 -100q113 0 175.5 71t62.5 211v873zM494 1434v-1434h-326v1434h326z" />
    <glyph glyph-name="ij" unicode="&#x133;" horiz-adv-x="1196" 
d="M195 1384q49 41 115.5 41t113.5 -41q50 -38 50 -95.5t-50 -98.5q-47 -41 -113.5 -41t-115.5 41q-47 41 -47 98.5t47 95.5zM905 1425q50 3 90.5 -22.5t58 -62t10.5 -79t-44 -71.5q-32 -32 -82.5 -38.5t-94.5 8.5t-74 50t-26 78q0 57 47.5 97t114.5 40zM463 1024v-1024
h-305v1024h305zM752 1024h305v-1092q0 -168 -99 -260t-258 -92q-102 0 -198 35l30 166q24 -8 54 -8q73 0 119.5 49.5t46.5 128.5v1073z" />
    <glyph glyph-name="Kcommaaccent" unicode="&#x136;" horiz-adv-x="1566" 
d="M1489 1434l-520 -590l538 -844h-417l-336 584l-256 -279v-305h-328v1434h328v-650l555 650h436zM946 -244q0 -35 -20 -61l-213 -318l-80 35l104 234q-36 13 -58 43.5t-22 66.5q0 54 41.5 89.5t102.5 35.5t103 -36t42 -89z" />
    <glyph glyph-name="kcommaaccent" unicode="&#x137;" horiz-adv-x="1263" 
d="M444 1434v-852l398 442h362l-348 -406l375 -618h-332l-254 399l-201 -202v-197h-305v1434h305zM793 -244q0 -32 -19 -61l-215 -318l-78 35l105 234q-36 13 -58 43.5t-22 66.5q0 54 41.5 89.5t101.5 35.5q61 0 102.5 -35.5t41.5 -89.5z" />
    <glyph glyph-name="Lacute" unicode="&#x139;" horiz-adv-x="1284" 
d="M1063 1890l-297 -346h-262l241 346h318zM494 1434v-1141h731v-293h-1057v1434h326z" />
    <glyph glyph-name="lacute" unicode="&#x13a;" horiz-adv-x="569" 
d="M453 1434v-1434h-306v1434h306zM727 1890l-295 -346h-262l240 346h317z" />
    <glyph glyph-name="Lcommaaccent" unicode="&#x13b;" horiz-adv-x="1284" 
d="M494 1434v-1141h731v-293h-1057v1434h326zM659 -119q83 0 125.5 -62.5t-0.5 -123.5l-213 -318l-77 35l102 234q-35 16 -57.5 45t-22.5 65q0 54 41.5 89.5t101.5 35.5z" />
    <glyph glyph-name="lcommaaccent" unicode="&#x13c;" horiz-adv-x="569" 
d="M451 1434v-1434h-306v1434h306zM311 -119q62 0 104 -35.5t42 -89.5q0 -34 -21 -61l-213 -318l-78 35l103 234q-35 14 -57.5 44.5t-22.5 65.5q0 52 42 88.5t101 36.5z" />
    <glyph glyph-name="Lcaron" unicode="&#x13d;" horiz-adv-x="1284" 
d="M1141 1329q0 -34 -21 -61l-213 -318l-78 35l103 234q-35 15 -57.5 45.5t-22.5 64.5q0 54 41.5 89.5t101.5 35.5q62 0 104 -35.5t42 -89.5zM494 1434v-1141h731v-293h-1057v1434h326z" />
    <glyph glyph-name="lcaron" unicode="&#x13e;" horiz-adv-x="927" 
d="M928 1331q0 -36 -21 -63l-213 -318l-78 35l103 234q-35 16 -57.5 45.5t-22.5 66.5q0 51 42.5 87t102.5 36t102 -36t42 -87zM453 1434v-1434h-306v1434h306z" />
    <glyph glyph-name="Ldot" unicode="&#x13f;" horiz-adv-x="1284" 
d="M494 1434v-1141h731v-293h-1057v1434h326zM834 866q50 41 117 41t114 -41q49 -41 49 -100t-49 -102q-47 -41 -114 -41t-117 41q-47 43 -47 102t47 100z" />
    <glyph glyph-name="ldot" unicode="&#x140;" horiz-adv-x="993" 
d="M453 1434v-1434h-306v1434h306zM649 866q49 41 118 41t116 -41q49 -41 49 -100t-49 -102q-47 -41 -115.5 -41t-118.5 41q-47 43 -47 102t47 100z" />
    <glyph glyph-name="Lslash" unicode="&#x141;" horiz-adv-x="1386" 
d="M555 293h729v-293h-1055v575l-184 -98v301l184 99v557h326v-381l199 108v-301l-199 -108v-459z" />
    <glyph glyph-name="lslash" unicode="&#x142;" horiz-adv-x="739" 
d="M694 1161v-301l-182 -102v-758h-305v586l-162 -90v301l162 90v547h305v-375z" />
    <glyph glyph-name="Nacute" unicode="&#x143;" horiz-adv-x="1640" 
d="M1268 1890l-297 -346h-262l241 346h318zM1485 1434v-1434h-340l-668 901v-901h-321v1434h340l669 -902v902h320z" />
    <glyph glyph-name="nacute" unicode="&#x144;" horiz-adv-x="1316" 
d="M834 1044q161 0 262.5 -90.5t101.5 -259.5v-694h-305v602q0 93 -48.5 145t-133.5 52q-156 0 -277 -103v-696h-305v1024h305v-123q180 143 400 143zM1071 1481l-295 -346h-262l240 346h317z" />
    <glyph glyph-name="Ncommaaccent" unicode="&#x145;" horiz-adv-x="1640" 
d="M1485 1434v-1434h-340l-668 901v-901h-321v1434h340l669 -902v902h320zM1010 -244q0 -34 -21 -61l-213 -318l-78 35l103 234q-35 16 -57.5 45t-22.5 65q0 54 41.5 89.5t101.5 35.5q62 0 104 -35.5t42 -89.5z" />
    <glyph glyph-name="ncommaaccent" unicode="&#x146;" horiz-adv-x="1316" 
d="M834 1044q161 0 262.5 -90.5t101.5 -259.5v-694h-305v602q0 93 -48.5 145t-133.5 52q-156 0 -277 -103v-696h-305v1024h305v-123q180 143 400 143zM813 -244q0 -34 -18 -61l-215 -318l-78 35l102 234q-35 14 -57.5 44.5t-22.5 65.5q0 53 42.5 89t103.5 36
q60 0 101.5 -35.5t41.5 -89.5z" />
    <glyph glyph-name="Ncaron" unicode="&#x147;" horiz-adv-x="1640" 
d="M1262 1890l-250 -346h-320l-250 346h254l156 -186l156 186h254zM1485 1434v-1434h-340l-668 901v-901h-321v1434h340l669 -902v902h320z" />
    <glyph glyph-name="ncaron" unicode="&#x148;" horiz-adv-x="1316" 
d="M1067 1481l-252 -346h-319l-250 346h254l155 -187l158 187h254zM834 1044q165 0 264.5 -91.5t99.5 -258.5v-694h-305v602q0 93 -48.5 145t-133.5 52q-156 0 -277 -103v-696h-305v1024h305v-123q180 143 400 143z" />
    <glyph glyph-name="Eng" unicode="&#x14a;" horiz-adv-x="1640" 
d="M1165 1434h320v-1344q0 -301 -135.5 -437t-405.5 -136q-353 0 -485 225l256 168q75 -100 213 -100q193 0 227 190h-10l-668 901v-901h-321v1434h340l667 -899v51z" />
    <glyph glyph-name="eng" unicode="&#x14b;" horiz-adv-x="1316" 
d="M834 1044q161 0 262.5 -90t101.5 -260v-762q0 -168 -98.5 -260t-257.5 -92q-103 0 -199 35l29 166q24 -8 55 -8q70 0 118 50t48 128v651q0 93 -48.5 145t-133.5 52q-156 0 -277 -103v-696h-305v1024h305v-123q180 143 400 143z" />
    <glyph glyph-name="Omacron" unicode="&#x14c;" horiz-adv-x="1777" 
d="M1225 1831v-191h-676v191h676zM504 1356q174 98 383 98q206 0 382 -98t279 -269t103 -370q0 -200 -101.5 -370t-279.5 -269q-174 -98 -383 -98q-207 0 -383 97.5t-279 268.5q-102 170 -102 371q0 200 101.5 370t279.5 269zM887 287q183 0 303.5 124t120.5 306
q0 178 -121 305q-119 125 -303 125q-183 0 -305 -125q-121 -127 -121 -305t121 -305q122 -125 305 -125z" />
    <glyph glyph-name="omacron" unicode="&#x14d;" horiz-adv-x="1333" 
d="M1004 1421v-190h-676v190h676zM258 889q168 155 408 155q239 0 407 -155q170 -156 170 -377t-170 -377q-168 -155 -407 -155q-240 0 -408 155t-168 377t168 377zM666 238q112 0 193 81t81 193q0 114 -82 193q-78 81 -194 81q-114 0 -195 -81q-80 -80 -80 -193
q0 -112 80 -195q82 -79 197 -79z" />
    <glyph glyph-name="Ohungarumlaut" unicode="&#x150;" horiz-adv-x="1777" 
d="M1079 1890l-295 -346h-262l240 346h317zM1559 1890l-295 -346h-265l242 346h318zM504 1356q174 98 383 98q206 0 382 -98t279 -269t103 -370q0 -200 -101.5 -370t-279.5 -269q-174 -98 -383 -98q-207 0 -383 97.5t-279 268.5q-102 170 -102 371q0 200 101.5 370
t279.5 269zM887 1147q-182 0 -304 -124.5t-122 -305.5q0 -178 121 -305q122 -125 305 -125q184 0 303 125q121 127 121 305t-121 305q-119 125 -303 125z" />
    <glyph glyph-name="ohungarumlaut" unicode="&#x151;" horiz-adv-x="1333" 
d="M258 889q168 155 408 155q239 0 407 -155q170 -156 170 -377t-170 -377q-168 -155 -407 -155q-240 0 -408 155t-168 377t168 377zM858 705q-78 81 -194 81q-114 0 -195 -81q-80 -80 -80 -193q0 -112 80 -195q82 -79 195 -79q115 0 194 79q82 82 82 195q0 114 -82 193z
M860 1481l-295 -346h-262l240 346h317zM1339 1481l-297 -346h-262l242 346h317z" />
    <glyph glyph-name="OE" unicode="&#x152;" horiz-adv-x="2566" 
d="M1647 293h833v-293h-1159v109q-197 -129 -434 -129q-151 -4 -294 55t-247 159.5t-165.5 238.5t-57.5 284q-3 117 35.5 230t111 204.5t167.5 161t212 106.5t238 35q239 0 434 -131v111h1145v-293h-819v-277h759v-278h-759v-293zM582 412q122 -125 305 -125q184 0 303 125
q121 127 121 305t-121 305q-119 125 -303 125q-183 0 -305 -125q-121 -127 -121 -305t121 -305z" />
    <glyph glyph-name="oe" unicode="&#x153;" horiz-adv-x="2099" 
d="M2019 512v-78h-772q6 -103 84.5 -168t192.5 -67q156 0 256 100l159 -143q-185 -176 -442 -176q-116 0 -222 46t-181 128q-80 -82 -191 -128t-235 -46q-242 0 -410 155t-168 377t168 377t410 155q122 0 232.5 -45.5t193.5 -128.5q74 83 176.5 128.5t216.5 45.5
q243 0 387 -153q145 -151 145 -379zM1249 580h486q0 108 -66.5 178.5t-175.5 70.5q-102 0 -172 -73q-72 -75 -72 -176zM469 317q82 -79 195 -79q115 0 194 79q82 82 82 195q0 114 -82 193q-78 81 -194 81q-114 0 -195 -81q-80 -80 -80 -193q0 -112 80 -195z" />
    <glyph glyph-name="Racute" unicode="&#x154;" horiz-adv-x="1540" 
d="M1221 1890l-295 -346h-262l239 346h318zM168 0v1434h635q339 0 488 -114.5t149 -371.5q0 -179 -72 -286t-227 -154l342 -508h-377l-303 465l-78 -2h-231v-463h-326zM819 1139h-325v-422l325 -2q152 0 217.5 50t65.5 163q0 114 -65.5 162.5t-217.5 48.5z" />
    <glyph glyph-name="racute" unicode="&#x155;" horiz-adv-x="851" 
d="M854 1481l-295 -346h-262l240 346h317zM819 1044v-245q-218 0 -385 -191v-608h-305v1024h305v-190q78 100 181 155t204 55z" />
    <glyph glyph-name="Rcommaaccent" unicode="&#x156;" horiz-adv-x="1540" 
d="M168 0v1434h635q339 0 488 -114.5t149 -371.5q0 -179 -72 -286t-227 -154l342 -508h-377l-303 465l-78 -2h-231v-463h-326zM819 1139h-325v-422h325q153 0 218 49t65 162t-65 162t-218 49zM963 -244q0 -32 -19 -61l-215 -318l-78 35l105 234q-36 15 -58 44.5t-22 65.5
q0 54 41.5 89.5t101.5 35.5t102 -37t42 -88z" />
    <glyph glyph-name="rcommaaccent" unicode="&#x157;" horiz-adv-x="851" 
d="M819 1044v-245q-218 0 -385 -191v-608h-305v1024h305v-190q82 100 182.5 155t202.5 55zM596 -244q0 -34 -18 -61l-216 -318l-77 35l102 234q-35 14 -57.5 44.5t-22.5 65.5q0 53 42.5 89t103.5 36q60 0 101.5 -35.5t41.5 -89.5z" />
    <glyph glyph-name="Rcaron" unicode="&#x158;" horiz-adv-x="1540" 
d="M168 0v1434h635q339 0 488 -114.5t149 -371.5q0 -179 -72 -286t-227 -154l342 -508h-377l-303 465l-78 -2h-231v-463h-326zM819 1139h-325v-422h325q153 0 218 49t65 162t-65 162t-218 49zM1217 1890l-252 -346h-320l-250 346h254l156 -186l158 186h254z" />
    <glyph glyph-name="rcaron" unicode="&#x159;" horiz-adv-x="851" 
d="M819 1044v-245q-218 0 -385 -191v-608h-305v1024h305v-190q82 100 182.5 155t202.5 55zM850 1481l-252 -346h-319l-250 346h254l155 -187l158 187h254z" />
    <glyph glyph-name="Sacute" unicode="&#x15a;" horiz-adv-x="1449" 
d="M1147 1890l-295 -346h-262l239 346h318zM725 1454q341 0 602 -158l-137 -252q-117 61 -254 98.5t-246 37.5q-87 -2 -138.5 -37t-51.5 -101q0 -49 51 -75q56 -29 227 -74l142 -41q57 -14 125.5 -39t107.5 -47q115 -65 154 -129q53 -87 53 -203q0 -217 -158 -335.5
t-432 -118.5q-393 0 -686 194l147 244q272 -160 576 -160q94 0 151.5 35t57.5 100q0 78 -53 105q-55 31 -242 77l-35 9q-94 25 -134 36t-94.5 30.5t-101.5 41.5q-107 52 -158 124t-51 188q0 90 29.5 164.5t81.5 127t124.5 88.5t158.5 53t184 17z" />
    <glyph glyph-name="sacute" unicode="&#x15b;" horiz-adv-x="1073" 
d="M946 1481l-295 -346h-262l240 346h317zM522 1044q248 0 436 -114l-100 -185q-174 97 -336 97q-59 0 -96 -23.5t-37 -73.5q0 -35 32.5 -54t141.5 -48q8 -2 33 -9t31 -9t26 -7.5t26.5 -8t23 -7.5t23.5 -7.5t20.5 -7.5t23 -9.5t21.5 -9.5t24 -11q86 -38 124 -96t44 -156
q0 -156 -114 -240.5t-312 -84.5q-285 0 -498 139l107 178q183 -115 389 -115q65 0 105 24t40 70q0 52 -30 70q-28 19 -135 47l-39 10q-69 19 -112.5 33t-94 34.5t-80 42.5t-56 52t-38 69t-11.5 87q0 156 114 239.5t304 83.5z" />
    <glyph glyph-name="Scedilla" unicode="&#x15e;" horiz-adv-x="1449" 
d="M725 1454q341 0 602 -158l-137 -252q-116 63 -251.5 99.5t-248.5 36.5q-87 -2 -138.5 -37t-51.5 -101q0 -49 51 -75q56 -29 227 -74l142 -41q57 -14 125.5 -39t107.5 -47q115 -65 154 -129q53 -87 53 -203q0 -190 -127 -306t-350 -140l-74 -6l-37 -72q39 3 72 -2
q62 -14 101.5 -61.5t39.5 -114.5q0 -91 -70 -144t-178 -53q-121 0 -221 53l39 109q60 -29 129 -29q53 0 86 31t33 70q0 37 -24 62t-62 26q-40 0 -70 -21l-39 35l56 113q-332 24 -580 190l147 244q272 -160 576 -160q90 0 149.5 34t59.5 101q0 78 -53 105q-55 31 -242 77
l-35 9q-94 25 -134 36t-94.5 30.5t-101.5 41.5q-107 52 -158 124t-51 188q0 90 29.5 164.5t81.5 127t124.5 88.5t158.5 53t184 17z" />
    <glyph glyph-name="scedilla" unicode="&#x15f;" horiz-adv-x="1073" 
d="M524 1044q250 0 437 -114l-101 -185q-174 97 -336 97q-59 0 -96 -25.5t-37 -71.5q0 -35 32.5 -54t141.5 -48q8 -2 33 -9t31 -9t26 -7.5t26.5 -8t23 -7.5t23.5 -7.5t20.5 -7.5t23 -9.5t21.5 -9.5t24 -11q86 -38 124 -96t44 -156q0 -141 -97.5 -225t-266.5 -96l-19 -2
l-37 -72q39 3 72 -2q62 -14 101.5 -61.5t39.5 -114.5q0 -91 -70.5 -144t-179.5 -53q-118 0 -221 53l41 109q60 -29 129 -29q52 0 85.5 30.5t33.5 70.5q0 37 -23.5 62t-64.5 26q-38 0 -68 -21l-39 35l56 113q-227 21 -396 135l107 178q183 -115 389 -115q63 0 104 23.5
t41 70.5q0 52 -30 70q-28 19 -135 47l-39 10q-68 19 -97.5 28t-68.5 23t-74 31q-75 38 -113.5 94.5t-38.5 141.5q0 156 114 239.5t304 83.5z" />
    <glyph glyph-name="Scaron" unicode="&#x160;" horiz-adv-x="1449" 
d="M725 1454q341 0 602 -158l-137 -252q-116 63 -251.5 99.5t-248.5 36.5q-87 -2 -138.5 -37t-51.5 -101q0 -49 51 -75q56 -29 227 -74l142 -41q57 -14 125.5 -39t107.5 -47q115 -65 154 -129q53 -87 53 -203q0 -217 -158 -335.5t-432 -118.5q-393 0 -686 194l147 244
q272 -160 576 -160q90 0 149.5 34t59.5 101q0 78 -53 105q-55 31 -242 77l-35 9q-94 25 -134 36t-94.5 30.5t-101.5 41.5q-107 52 -158 124t-51 188q0 90 29.5 164.5t81.5 127t124.5 88.5t158.5 53t184 17zM1143 1890l-252 -346h-320l-249 346h253l156 -186l158 186h254z
" />
    <glyph glyph-name="scaron" unicode="&#x161;" horiz-adv-x="1073" 
d="M944 1481l-250 -346h-319l-252 346h254l158 -187l155 187h254zM524 1044q250 0 437 -114l-101 -185q-174 97 -336 97q-57 0 -95 -24.5t-38 -72.5q0 -35 32.5 -54t141.5 -48q18 -4 101 -29q121 -35 170 -65q149 -79 149 -244q0 -156 -114 -240.5t-312 -84.5
q-285 0 -498 139l107 178q183 -115 389 -115q63 0 104 23.5t41 70.5q0 52 -30 70q-28 19 -135 47l-39 10q-68 19 -97.5 28t-68.5 23t-74 31q-75 38 -113.5 94.5t-38.5 141.5q0 156 114 239.5t304 83.5z" />
    <glyph glyph-name="Tcedilla" unicode="&#x162;" horiz-adv-x="1314" 
d="M1257 1434v-279h-436v-1157l-100 -4l-43 -88q39 3 72 -2q62 -14 101.5 -61.5t39.5 -112.5q0 -94 -70 -146.5t-180 -52.5q-118 0 -221 53l41 109q60 -29 129 -29q55 4 87 32t32 68q0 37 -24 61.5t-62 29.5q-40 0 -70 -21l-39 33l61 127l-83 6v1155h-435v279h1200z" />
    <glyph glyph-name="tcedilla" unicode="&#x163;" horiz-adv-x="925" 
d="M498 1298v-274h270v-231h-270v-404q0 -77 45.5 -120.5t118.5 -43.5q68 0 139 41l39 -209q-70 -37 -158 -57q-76 -12 -145 -6l-43 -84q41 3 71 -2q64 -14 104 -61.5t40 -114.5q0 -91 -70.5 -144t-179.5 -53q-121 0 -221 53l41 109q60 -29 127 -29q53 1 85.5 30t32.5 71
q1 37 -23.5 61.5t-62.5 26.5q-39 0 -69 -21l-39 35l67 137q-96 36 -150 119.5t-54 208.5v457h-148v231h148v274h305z" />
    <glyph glyph-name="Tcaron" unicode="&#x164;" horiz-adv-x="1314" 
d="M1055 1890l-250 -346h-320l-249 346h251l158 -186l156 186h254zM1257 1434v-279h-436v-1155h-329v1155h-435v279h1200z" />
    <glyph glyph-name="tcaron" unicode="&#x165;" horiz-adv-x="1099" 
d="M1020 1470q0 -36 -21 -63l-213 -315l-77 34l102 234q-36 14 -58 44t-22 66q0 51 43 88t103 37t101.5 -37t41.5 -88zM498 1298v-274h270v-231h-270v-404q0 -77 45.5 -120.5t118.5 -43.5q68 0 139 41l39 -209q-139 -74 -295 -77q-148 -3 -252 90q-100 93 -100 266v457h-148
v231h148v274h305z" />
    <glyph glyph-name="Tbar" unicode="&#x166;" horiz-adv-x="1314" 
d="M1257 1155h-436v-336h174v-190h-174v-629h-329v629h-173v190h173v336h-435v279h1200v-279z" />
    <glyph glyph-name="tbar" unicode="&#x167;" horiz-adv-x="925" 
d="M801 266l39 -209q-139 -74 -295 -77q-148 -3 -252 90q-100 93 -100 266v104h-125v189h125v164h-148v231h148v274h305v-274h270v-231h-270v-164h245v-189h-245v-51q0 -77 45.5 -120.5t118.5 -43.5q68 0 139 41z" />
    <glyph glyph-name="Utilde" unicode="&#x168;" horiz-adv-x="1624" 
d="M604 1878q46 7 85.5 -1.5t109.5 -39.5q113 -52 168 -55q73 -3 98 88l117 -12q10 -114 -33.5 -188.5t-126.5 -88.5q-46 -7 -85.5 2t-111.5 41q-86 37 -110.5 44t-59.5 7q-68 -6 -86 -88l-116 15q-12 114 30.5 187t120.5 89zM1141 1434h325v-781q0 -332 -169 -502.5
t-480 -170.5t-480 170.5t-169 502.5v781h326v-781q0 -189 85.5 -281.5t237.5 -92.5q155 0 239.5 94t84.5 280v781z" />
    <glyph glyph-name="utilde" unicode="&#x169;" horiz-adv-x="1302" 
d="M446 1468q44 7 83.5 -1.5t109.5 -39.5q113 -52 168 -55q73 -3 98 88l117 -12q12 -113 -33.5 -189t-126.5 -88q-46 -9 -87 1t-109 42q-86 37 -111 44.5t-57 7.5q-71 -6 -86 -88l-119 14q-10 115 31.5 188.5t121.5 87.5zM1186 1024v-1024h-303v123q-180 -143 -402 -143
q-161 0 -262.5 90.5t-101.5 259.5v694h305v-602q0 -93 48.5 -145t133.5 -52q158 0 279 103v696h303z" />
    <glyph glyph-name="Umacron" unicode="&#x16a;" horiz-adv-x="1624" 
d="M1141 1434h325v-781q0 -335 -172 -504t-477 -169q-311 0 -480 170.5t-169 502.5v781h326v-781q0 -189 85.5 -281.5t237.5 -92.5q155 0 239.5 94t84.5 280v781zM1151 1831v-191h-676v191h676z" />
    <glyph glyph-name="umacron" unicode="&#x16b;" horiz-adv-x="1302" 
d="M993 1421v-190h-676v190h676zM117 1024h305v-602q0 -93 48.5 -145t133.5 -52q158 0 279 103v696h303v-1024h-303v123q-180 -143 -402 -143q-161 0 -262.5 90.5t-101.5 259.5v694z" />
    <glyph glyph-name="Uring" unicode="&#x16e;" horiz-adv-x="1624" 
d="M815 1464q-113 0 -192.5 79t-79.5 188q0 111 80 188q81 78 192 78q112 0 193 -78q79 -76 79 -188q0 -113 -79 -189q-81 -78 -193 -78zM815 1853q-52 0 -88.5 -35.5t-36.5 -86.5q-2 -38 21 -69t56 -44.5t71.5 -8t64.5 32.5q28 28 34 65.5t-7.5 69.5t-44.5 54t-70 22z
M1141 1434h325v-781q0 -332 -169 -502.5t-480 -170.5t-480 170.5t-169 502.5v781h326v-781q0 -189 85.5 -281.5t237.5 -92.5q155 0 239.5 94t84.5 280v781z" />
    <glyph glyph-name="uring" unicode="&#x16f;" horiz-adv-x="1302" 
d="M463 1509q81 78 192 78q112 0 193 -78q80 -77 80 -188t-80 -188q-81 -78 -193 -78q-111 0 -192 78q-80 77 -80 188t80 188zM655 1444q-52 0 -88.5 -36t-36.5 -87q-2 -38 21 -68.5t56 -44t71.5 -8t64.5 32.5q28 28 34 65.5t-7.5 69.5t-44.5 54t-70 22zM117 1024h305v-602
q0 -93 48.5 -145t133.5 -52q158 0 279 103v696h303v-1024h-303v123q-180 -143 -402 -143q-164 0 -264 92t-100 258v694z" />
    <glyph glyph-name="Uhungarumlaut" unicode="&#x170;" horiz-adv-x="1624" 
d="M1008 1890l-295 -346h-262l239 346h318zM1487 1890l-297 -346h-262l241 346h318zM1141 1434h325v-781q0 -332 -169 -502.5t-480 -170.5t-480 170.5t-169 502.5v781h326v-781q0 -189 85.5 -281.5t237.5 -92.5q155 0 239.5 94t84.5 280v781z" />
    <glyph glyph-name="uhungarumlaut" unicode="&#x171;" horiz-adv-x="1302" 
d="M848 1481l-295 -346h-262l239 346h318zM1327 1481l-295 -346h-264l242 346h317zM117 1024h305v-602q0 -93 48.5 -145t133.5 -52q158 0 279 103v696h305v-1024h-305v123q-180 -143 -402 -143q-161 0 -262.5 90.5t-101.5 259.5v694z" />
    <glyph glyph-name="Uogonek" unicode="&#x172;" horiz-adv-x="1624" 
d="M1141 1434h325v-781q0 -442 -299 -598l-24 -32q-65 -90 -51 -152q6 -35 34.5 -58t69.5 -24q48 -3 94 21l39 -140q-84 -41 -190 -41q-90 0 -149.5 32t-78.5 89q-38 89 33 219l14 23q-68 -12 -141 -12q-311 0 -480 170.5t-169 502.5v781h326v-781q0 -189 85.5 -281.5
t237.5 -92.5q155 0 239.5 94t84.5 280v781z" />
    <glyph glyph-name="uogonek" unicode="&#x173;" horiz-adv-x="1302" 
d="M117 1024h305v-602q0 -93 48.5 -145t133.5 -52q158 0 279 103v696h303v-1028l-144 -6l-14 -17q-64 -88 -49 -151q6 -37 35 -59.5t69 -22.5q48 -3 95 18l39 -139q-84 -41 -191 -41q-89 0 -148.5 32.5t-78.5 88.5q-47 109 61 272l23 31v121q-180 -143 -402 -143
q-161 0 -262.5 90.5t-101.5 259.5v694z" />
    <glyph glyph-name="Wcircumflex" unicode="&#x174;" horiz-adv-x="2328" 
d="M2269 1434l-475 -1434h-338l-293 922l-295 -922h-336l-475 1434h363l297 -928l284 928h322l287 -928l295 928h364zM1323 1890l252 -346h-254l-158 189l-155 -189h-254l250 346h319z" />
    <glyph glyph-name="wcircumflex" unicode="&#x175;" horiz-adv-x="1701" 
d="M1008 1481l249 -346h-253l-156 188l-158 -188h-252l250 346h320zM1669 1024l-317 -1024h-330l-172 573l-174 -573h-328l-317 1024h303l192 -696l205 696h238l205 -696l192 696h303z" />
    <glyph glyph-name="Ycircumflex" unicode="&#x176;" horiz-adv-x="1607" 
d="M1546 1434l-581 -932v-502h-326v496l-582 938h389l357 -588l358 588h385zM961 1890l251 -346h-254l-157 189l-156 -189h-254l250 346h320z" />
    <glyph glyph-name="ycircumflex" unicode="&#x177;" horiz-adv-x="1228" 
d="M793 1481l249 -346h-254l-155 188l-156 -188h-254l250 346h320zM881 1024h315l-438 -1120q-127 -324 -420 -324q-128 -3 -307 66l84 198q119 -46 192 -37q112 6 180 136l13 26l-447 1055h322l260 -676z" />
    <glyph glyph-name="Ydieresis" unicode="&#x178;" horiz-adv-x="1607" 
d="M590 1864q56 0 92.5 -37t36.5 -92q0 -54 -37 -90.5t-92 -36.5q-54 0 -91.5 36.5t-37.5 90.5q0 56 37 92.5t92 36.5zM1014 1608q-56 0 -92.5 36t-36.5 91q-4 41 20 73t59 46t75 8t67 -35q29 -27 35 -66.5t-8 -74t-46 -58t-73 -20.5zM1546 1434l-581 -932v-502h-326v496
l-582 938h389l357 -588l358 588h385z" />
    <glyph glyph-name="Zacute" unicode="&#x179;" horiz-adv-x="1409" 
d="M1303 1434v-232l-752 -913h774v-289h-1241v236l731 909h-684v289h1172zM1118 1890l-295 -346h-262l240 346h317z" />
    <glyph glyph-name="zacute" unicode="&#x17a;" horiz-adv-x="1103" 
d="M981 1481l-297 -346h-262l242 346h317zM1001 1024v-199l-507 -579h530v-246h-956v199l505 579h-464v246h892z" />
    <glyph glyph-name="Zdotaccent" unicode="&#x17b;" horiz-adv-x="1409" 
d="M705 1864q41 3 73 -20.5t46 -58t8 -74t-35 -66.5q-27 -29 -67.5 -35t-75.5 8t-59 45.5t-20 71.5q0 57 37 93t93 36zM1303 1434v-232l-752 -913h774v-289h-1241v236l731 909h-684v289h1172z" />
    <glyph glyph-name="zdotaccent" unicode="&#x17c;" horiz-adv-x="1103" 
d="M473 1417q37 37 92 37t92 -37t37 -91t-37 -91t-92 -37t-92 37t-37 91t37 91zM1001 1024v-199l-507 -579h530v-246h-956v199l505 579h-464v246h892z" />
    <glyph glyph-name="Zcaron" unicode="&#x17d;" horiz-adv-x="1409" 
d="M1114 1890l-250 -346h-319l-252 346h254l158 -186l155 186h254zM1303 1434v-232l-752 -913h774v-289h-1241v236l731 909h-684v289h1172z" />
    <glyph glyph-name="zcaron" unicode="&#x17e;" horiz-adv-x="1103" 
d="M975 1481l-250 -346h-319l-250 346h252l157 -187l156 187h254zM1001 1024v-199l-507 -579h530v-246h-956v199l505 579h-464v246h892z" />
    <glyph glyph-name="florin" unicode="&#x192;" horiz-adv-x="827" 
d="M557 1454q122 0 258 -43l-39 -188q-68 26 -127 26q-71 -2 -114 -43t-43 -114v-207h276v-232h-276v-721q0 -76 -22.5 -133.5t-62 -93t-87.5 -55t-105 -25.5q-77 -30 -170 -24v178q66 7 103.5 53.5t37.5 118.5v702h-141v232h141v215q0 176 101 265t270 89z" />
    <glyph glyph-name="Ohorn" unicode="&#x1a0;" horiz-adv-x="1777" 
d="M1522 1513h297v-71q0 -123 -77.5 -220t-197.5 -128q107 -174 107 -377q0 -200 -101.5 -370t-279.5 -269q-174 -98 -383 -98t-383 98q-178 99 -279.5 269t-101.5 370q-3 117 35.5 230t111 204.5t167.5 161t212 106.5t238 35q150 0 284.5 -55.5t239.5 -155.5q50 19 80.5 62
t30.5 96v112zM1190 1022q-119 125 -303 125q-183 0 -305 -125q-121 -127 -121 -305q0 -180 121 -307q122 -125 305 -125q184 0 303 125q121 127 121 307q0 178 -121 305z" />
    <glyph glyph-name="ohorn" unicode="&#x1a1;" horiz-adv-x="1333" 
d="M1112 1128h297v-71q0 -108 -59 -196t-156 -130q49 -104 49 -219q0 -221 -170 -377q-168 -155 -407 -155q-240 0 -408 155t-168 377t168 377t410 155q228 0 385 -151q59 47 59 125v110zM858 705q-78 81 -194 81q-114 0 -195 -81q-80 -80 -80 -193q0 -112 80 -195
q82 -79 195 -79q115 0 194 79q82 82 82 195q0 114 -82 193z" />
    <glyph glyph-name="Uhorn" unicode="&#x1af;" horiz-adv-x="1624" 
d="M1618 1513h268v-71q0 -160 -106.5 -250t-313.5 -105v-434q0 -332 -169 -502.5t-480 -170.5t-480 170.5t-169 502.5v781h326v-781q0 -189 85.5 -281.5t237.5 -92.5q155 0 239.5 94t84.5 280v781h325v-203q65 7 108.5 56.5t43.5 113.5v112z" />
    <glyph glyph-name="uhorn" unicode="&#x1b0;" horiz-adv-x="1302" 
d="M1311 1128h235v-71q0 -157 -86.5 -243.5t-273.5 -106.5v-707h-303v123q-180 -143 -402 -143q-164 0 -264 92t-100 258v694h305v-602q0 -93 48.5 -145t133.5 -52q158 0 279 103v696h303v-172q56 18 90.5 62.5t34.5 103.5v110z" />
    <glyph glyph-name="Acaron" unicode="&#x1cd;" horiz-adv-x="1718" 
d="M1069 1434l588 -1434h-389l-111 283h-600l-111 -283h-389l584 1434h428zM856 1071l-213 -528h426zM1266 1890l-252 -346h-320l-250 346h254l156 -186l158 186h254z" />
    <glyph glyph-name="acaron" unicode="&#x1ce;" horiz-adv-x="1216" 
d="M1063 1481l-250 -346h-319l-252 346h254l157 -187l156 187h254zM662 1044q204 0 321 -95.5t117 -286.5v-662h-305v125q-154 -145 -371 -145q-150 0 -245 89.5t-95 231.5t100.5 221.5t278.5 79.5h332v31q0 86 -56.5 131t-158.5 45q-159 -3 -316 -98l-88 194
q231 136 486 139zM795 233v252h-213q-94 0 -145.5 -39.5t-51.5 -113.5q0 -75 49.5 -122.5t124.5 -47.5q141 0 236 71z" />
    <glyph glyph-name="Icaron" unicode="&#x1cf;" horiz-adv-x="665" 
d="M754 1890l-252 -346h-320l-250 346h254l156 -186l158 186h254zM496 1434v-1434h-326v1434h326z" />
    <glyph glyph-name="icaron" unicode="&#x1d0;" horiz-adv-x="591" 
d="M715 1481l-250 -346h-320l-249 346h254l155 -187l156 187h254zM457 1024v-1024h-305v1024h305z" />
    <glyph glyph-name="Ocaron" unicode="&#x1d1;" horiz-adv-x="1777" 
d="M1296 1890l-249 -346h-322l-250 346h254l156 -186l157 186h254zM504 1356q174 98 383 98q206 0 382 -98t279 -269t103 -370q0 -200 -101.5 -370t-279.5 -269q-174 -98 -383 -98q-207 0 -383 97.5t-279 268.5q-102 170 -102 371q0 200 101.5 370t279.5 269zM887 1147
q-182 0 -304 -124.5t-122 -305.5q0 -178 121 -305q122 -125 305 -125q184 0 303 125q121 127 121 305t-121 305q-119 125 -303 125z" />
    <glyph glyph-name="ocaron" unicode="&#x1d2;" horiz-adv-x="1333" 
d="M258 889q168 155 408 155q239 0 407 -155q170 -156 170 -377t-170 -377q-168 -155 -407 -155q-240 0 -408 155t-168 377t168 377zM858 705q-78 81 -194 81q-114 0 -195 -81q-80 -80 -80 -193q0 -112 80 -195q82 -79 195 -79q115 0 194 79q82 82 82 195q0 114 -82 193z
M1077 1481l-252 -346h-319l-250 346h254l156 -187l157 187h254z" />
    <glyph glyph-name="Ucaron" unicode="&#x1d3;" horiz-adv-x="1624" 
d="M1141 1434h325v-781q0 -335 -172 -504t-477 -169q-311 0 -480 170.5t-169 502.5v781h326v-781q0 -189 85.5 -281.5t237.5 -92.5q155 0 239.5 94t84.5 280v781zM1225 1890l-252 -346h-320l-250 346h254l156 -186l158 186h254z" />
    <glyph glyph-name="ucaron" unicode="&#x1d4;" horiz-adv-x="1302" 
d="M1065 1481l-250 -346h-321l-250 346h254l157 -187l156 187h254zM117 1024h305v-602q0 -93 48.5 -145t133.5 -52q158 0 279 103v696h303v-1024h-303v123q-180 -143 -402 -143q-161 0 -262.5 90.5t-101.5 259.5v694z" />
    <glyph glyph-name="Udieresismacron" unicode="&#x1d5;" horiz-adv-x="1624" 
d="M1151 2148v-190h-676v190h676zM602 1827q57 0 93 -36t36 -93q3 -41 -21 -73.5t-58.5 -46t-74.5 -7.5t-67 35q-29 27 -35 67t7.5 74.5t46 58.5t73.5 21zM934 1790q37 37 92 37t92 -37t37 -92t-37 -92t-92 -37t-92 37t-37 92t37 92zM1141 1434h325v-781q0 -332 -169 -502.5
t-480 -170.5t-480 170.5t-169 502.5v781h326v-781q0 -189 85.5 -281.5t237.5 -92.5q155 0 239.5 94t84.5 280v781z" />
    <glyph glyph-name="udieresismacron" unicode="&#x1d6;" horiz-adv-x="1302" 
d="M993 1726v-190h-676v190h676zM352 1403q37 37 91.5 37t91.5 -37t37 -92t-37 -92t-91.5 -37t-91.5 37t-37 92t37 92zM866 1440q41 3 73 -21t46 -58.5t8 -74.5t-35 -67q-27 -29 -67 -35t-75 7.5t-59 46t-20 73.5q0 53 38.5 91t90.5 38zM117 1024h305v-602q0 -94 49 -145.5
t133 -51.5q158 0 279 103v696h303v-1024h-303v123q-180 -143 -402 -143q-164 0 -264 92t-100 258v694z" />
    <glyph glyph-name="Udieresisacute" unicode="&#x1d7;" horiz-adv-x="1624" 
d="M1229 2267l-295 -346h-264l241 346h318zM602 1569q-53 0 -91 37.5t-38 91.5q-4 41 20 73t59 46t75 8t67 -35q29 -27 35 -67t-8 -75t-46 -59t-73 -20zM1026 1569q-54 0 -91.5 37.5t-37.5 91.5q-4 41 20 73t59 46t75 8t67 -35q29 -27 35 -67t-8 -75t-46 -59t-73 -20z
M1141 1434h325v-781q0 -332 -169 -502.5t-480 -170.5t-480 170.5t-169 502.5v781h326v-781q0 -189 85.5 -281.5t237.5 -92.5q155 0 239.5 94t84.5 280v781z" />
    <glyph glyph-name="udieresisacute" unicode="&#x1d8;" horiz-adv-x="1302" 
d="M1069 1858l-295 -345h-262l240 345h317zM352 1403q37 37 91.5 37t91.5 -37t37 -92t-37 -92t-91.5 -37t-91.5 37t-37 92t37 92zM866 1440q41 3 73 -21t46 -58.5t8 -74.5t-35 -67q-27 -29 -67 -35t-75 7.5t-59 46t-20 73.5q0 53 38.5 91t90.5 38zM117 1024h305v-602
q0 -94 49 -145.5t133 -51.5q158 0 279 103v696h303v-1024h-303v123q-180 -143 -402 -143q-164 0 -264 92t-100 258v694z" />
    <glyph glyph-name="Udieresiscaron" unicode="&#x1d9;" horiz-adv-x="1624" 
d="M1225 2265l-252 -344h-320l-250 344h254l156 -186l158 186h254zM602 1569q-53 0 -91 37.5t-38 91.5q-4 41 20 73t59 46t75 8t67 -35q29 -27 35 -67t-8 -75t-46 -59t-73 -20zM1026 1569q-54 0 -91.5 37.5t-37.5 91.5q-4 41 20 73t59 46t75 8t67 -35q29 -27 35 -67t-8 -75
t-46 -59t-73 -20zM1141 1434h325v-781q0 -332 -169 -502.5t-480 -170.5t-480 170.5t-169 502.5v781h326v-781q0 -189 85.5 -281.5t237.5 -92.5q155 0 239.5 94t84.5 280v781z" />
    <glyph glyph-name="udieresiscaron" unicode="&#x1da;" horiz-adv-x="1302" 
d="M1065 1858l-250 -345h-321l-250 345h254l157 -187l156 187h254zM444 1440q40 3 72 -21t45.5 -58.5t8 -74.5t-34.5 -67q-27 -29 -66.5 -35t-74.5 7.5t-58.5 46t-20.5 73.5q0 54 36.5 91.5t92.5 37.5zM866 1182q-54 0 -91.5 36.5t-37.5 92.5q-4 41 20 73t59 46t75 8t67 -35
q29 -27 35 -67t-8 -75t-46 -59t-73 -20zM117 1024h305v-602q0 -93 48.5 -145t133.5 -52q158 0 279 103v696h303v-1024h-303v123q-180 -143 -402 -143q-161 0 -262.5 90.5t-101.5 259.5v694z" />
    <glyph glyph-name="Udieresisgrave" unicode="&#x1db;" horiz-adv-x="1624" 
d="M711 2265l241 -344h-262l-297 344h318zM602 1827q57 0 93 -36t36 -93q3 -41 -21 -73.5t-58.5 -46t-74.5 -7.5t-67 35q-29 27 -35 67t7.5 74.5t46 58.5t73.5 21zM934 1790q37 37 92 37t92 -37t37 -92t-37 -92t-92 -37t-92 37t-37 92t37 92zM1141 1434h325v-781
q0 -332 -169 -502.5t-480 -170.5t-480 170.5t-169 502.5v781h326v-781q0 -189 85.5 -281.5t237.5 -92.5q155 0 239.5 94t84.5 280v781z" />
    <glyph glyph-name="udieresisgrave" unicode="&#x1dc;" horiz-adv-x="1302" 
d="M553 1858l240 -345h-263l-294 345h317zM352 1403q37 37 91.5 37t91.5 -37t37 -92t-37 -92t-91.5 -37t-91.5 37t-37 92t37 92zM866 1440q41 3 73 -21t46 -58.5t8 -74.5t-35 -67q-27 -29 -67 -35t-75 7.5t-59 46t-20 73.5q0 53 38.5 91t90.5 38zM117 1024h305v-602
q0 -94 49 -145.5t133 -51.5q158 0 279 103v696h303v-1024h-303v123q-180 -143 -402 -143q-164 0 -264 92t-100 258v694z" />
    <glyph glyph-name="Adieresismacron" unicode="&#x1de;" horiz-adv-x="1718" 
d="M1194 2109v-188h-678v188h678zM643 1827q57 0 93 -36t36 -93q3 -41 -20.5 -73.5t-58 -46t-74 -7.5t-66.5 35q-29 27 -35 67t8 74.5t45.5 58.5t71.5 21zM975 1790q37 37 92 37t92 -37t37 -92t-37 -92t-92 -37t-92 37t-37 92t37 92zM1069 1434l588 -1434h-389l-111 283
h-600l-111 -283h-389l584 1434h428zM856 1071l-213 -528h426z" />
    <glyph glyph-name="adieresismacron" unicode="&#x1df;" horiz-adv-x="1216" 
d="M991 1726v-190h-676v190h676zM350 1417q37 37 92 37t90 -37q37 -37 37 -91t-37 -91q-35 -37 -90 -37t-92 37t-37 91t37 91zM864 1454q57 0 93 -36t36 -93q0 -54 -37 -90.5t-92 -36.5t-91 36.5t-36 90.5q0 57 36.5 93t90.5 36zM662 1044q204 0 321 -95.5t117 -286.5v-662
h-305v125q-154 -145 -371 -145q-150 0 -245 89.5t-95 231.5t100.5 221.5t278.5 79.5h332v31q0 86 -56.5 131t-158.5 45q-159 -3 -316 -98l-88 194q231 136 486 139zM795 233v252h-213q-94 0 -145.5 -39.5t-51.5 -113.5q0 -75 49.5 -122.5t124.5 -47.5q141 0 236 71z" />
    <glyph glyph-name="Gcaron" unicode="&#x1e6;" horiz-adv-x="1669" 
d="M1253 1890l-249 -346h-320l-252 346h254l158 -186l155 186h254zM907 1454q320 -3 553 -205l-213 -223q-148 130 -340 127q-183 0 -315 -123q-131 -119 -131 -313q0 -181 122 -305.5t304 -124.5q176 0 315 92v188h-295v234h606v-604q-269 -217 -626 -217q-151 -4 -294 55
t-247 159.5t-165.5 238.5t-57.5 284q0 167 65 308.5t173.5 235t250 144.5t295.5 49z" />
    <glyph glyph-name="gcaron" unicode="&#x1e7;" horiz-adv-x="1351" 
d="M1108 1481l-250 -346h-319l-250 346h254l155 -187l158 187h252zM555 1044q203 0 352 -149v129h305v-958q0 -128 -41.5 -224t-116.5 -153t-171 -85t-213 -28q-286 3 -547 150l88 196q196 -112 397 -115q137 -3 218 62.5t81 196.5v90q-135 -156 -352 -156q-207 0 -334 145
q-125 143 -125 369q0 230 125 379q127 151 334 151zM666 786q-112 0 -191 -79q-78 -81 -78 -193t79 -191t190 -79q77 0 140.5 39t100.5 106v277q-42 55 -105.5 87.5t-135.5 32.5z" />
    <glyph glyph-name="Oslashacute" unicode="&#x1fe;" horiz-adv-x="1777" 
d="M1266 1890l-295 -346h-264l241 346h318zM1141 1536h270l-98 -207q158 -104 248 -265t90 -347q4 -146 -57.5 -284t-165.5 -238.5t-247 -159.5t-294 -55q-108 0 -203 26l-51 -108h-273l101 206q-157 104 -247.5 265t-90.5 348q-3 117 35.5 230t111 204.5t167.5 161
t212 106.5t238 35q104 0 203 -27zM461 717q0 -197 137 -322l356 748q-46 4 -67 4q-182 0 -304 -124.5t-122 -305.5zM887 285q184 0 303 125q121 127 121 307q0 195 -135 321l-357 -747q34 -6 68 -6z" />
    <glyph glyph-name="oslashacute" unicode="&#x1ff;" horiz-adv-x="1333" 
d="M1024 1481l-295 -346h-262l240 346h317zM862 1126h195l-78 -165q123 -73 193.5 -192t70.5 -257q0 -221 -170 -377q-168 -155 -405 -155q-78 0 -148 18l-49 -100h-195l80 165q-124 73 -195 191.5t-71 257.5q0 222 168 377t410 155q76 0 147 -18zM389 512q0 -116 86 -199
l223 471q-10 2 -32 2q-116 0 -197 -81q-80 -80 -80 -193zM858 707l-223 -467l31 -2q114 0 194 80t80 194q0 116 -82 195z" />
    <glyph glyph-name="Scommaaccent" unicode="&#x218;" horiz-adv-x="1449" 
d="M725 1454q341 0 602 -158l-137 -252q-116 63 -251.5 99.5t-248.5 36.5q-87 -2 -138.5 -37t-51.5 -101q0 -49 51 -75q56 -29 227 -74l142 -41q57 -14 125.5 -39t107.5 -47q115 -65 154 -129q53 -87 53 -203q0 -217 -158 -335.5t-432 -118.5q-393 0 -686 194l147 244
q272 -160 576 -160q90 0 149.5 34t59.5 101q0 78 -53 105q-55 31 -242 77l-35 9q-94 25 -134 36t-94.5 30.5t-101.5 41.5q-107 52 -158 124t-51 188q0 90 29.5 164.5t81.5 127t124.5 88.5t158.5 53t184 17zM786 -119q61 0 102.5 -35.5t41.5 -89.5q0 -32 -19 -61l-215 -318
l-78 35l105 234q-36 13 -58 43.5t-22 66.5q0 52 41.5 88.5t101.5 36.5z" />
    <glyph glyph-name="scommaaccent" unicode="&#x219;" horiz-adv-x="1073" 
d="M524 1044q250 0 437 -114l-101 -185q-174 97 -336 97q-57 0 -95 -24.5t-38 -72.5q0 -35 32.5 -54t141.5 -48q18 -4 101 -29q121 -35 170 -65q149 -79 149 -244q0 -156 -114 -240.5t-312 -84.5q-285 0 -498 139l107 178q183 -115 389 -115q63 0 104 23.5t41 70.5
q0 52 -30 70q-28 19 -135 47l-39 10q-68 19 -97.5 28t-68.5 23t-74 31q-75 38 -113.5 94.5t-38.5 141.5q0 156 114 239.5t304 83.5zM698 -244q0 -34 -18 -61l-213 -318l-80 35l105 234q-36 13 -58 43.5t-22 66.5q0 51 41.5 88t101.5 37t101.5 -37t41.5 -88z" />
    <glyph glyph-name="uni021A" unicode="&#x21a;" horiz-adv-x="1314" 
d="M1257 1434v-279h-436v-1155h-329v1155h-435v279h1200zM657 -119q83 0 125.5 -62.5t-0.5 -123.5l-213 -318l-80 35l105 234q-36 15 -58 44.5t-22 65.5q0 54 41.5 89.5t101.5 35.5z" />
    <glyph glyph-name="uni021B" unicode="&#x21b;" horiz-adv-x="925" 
d="M498 1298v-274h270v-231h-270v-404q0 -77 45.5 -120.5t118.5 -43.5q68 0 139 41l39 -209q-139 -74 -295 -77q-148 -3 -252 90q-100 93 -100 266v457h-148v231h148v274h305zM629 -244q0 -32 -19 -61l-215 -318l-78 35l105 234q-80 38 -80 110q0 54 41.5 89.5t101.5 35.5
q61 0 102.5 -35.5t41.5 -89.5z" />
    <glyph glyph-name="uni0228" unicode="&#x228;" horiz-adv-x="1415" 
d="M1313 1434v-293h-819v-277h761v-278h-761v-293h833v-293h-471l-45 -90q39 3 70 -2q64 -16 103.5 -62.5t39.5 -113.5q0 -91 -70.5 -144t-179.5 -53q-121 0 -221 53l41 109q60 -29 127 -29q54 1 86.5 30t34.5 71q0 37 -23.5 62t-64.5 26q-38 0 -68 -21l-39 35l64 129h-543
v1434h1145z" />
    <glyph glyph-name="uni0229" unicode="&#x229;" 
d="M625 1044q243 0 387 -153q145 -151 145 -379v-78h-772q3 -104 84 -170q76 -62 193 -65q153 0 253 100l160 -143q-145 -139 -342 -166l-55 -6l-37 -74q39 3 72 -2q62 -14 101.5 -61.5t39.5 -114.5q0 -95 -71.5 -146t-176.5 -51q-121 0 -221 53l41 109q56 -29 127 -29
q53 1 86 30t33 71q0 37 -24 62t-62 26q-40 0 -70 -21l-39 35l58 117q-192 35 -318 182q-127 148 -127 342q0 221 156 377q155 155 379 155zM631 829q-102 0 -172 -73q-72 -75 -72 -176h485q0 108 -66.5 178.5t-174.5 70.5z" />
    <glyph glyph-name="uni022A" unicode="&#x22a;" horiz-adv-x="1777" 
d="M1225 2142v-190h-676v190h676zM803 1720q0 -56 -36.5 -92.5t-90.5 -36.5q-41 -4 -73.5 20t-46 59t-7.5 75t35 67q27 29 66.5 35t74 -8t58 -46t20.5 -73zM1006 1812q37 37 92 37t92 -37t37 -92t-37 -92t-92 -37t-92 37t-37 92t37 92zM504 1356q174 98 383 98
q206 0 382 -98t279 -269t103 -370q0 -200 -101.5 -370t-279.5 -269q-174 -98 -383 -98q-207 0 -383 97.5t-279 268.5q-102 170 -102 371q0 200 101.5 370t279.5 269zM1190 1022q-119 125 -303 125q-183 0 -305 -125q-121 -127 -121 -305t121 -305q122 -125 305 -125
q184 0 303 125q121 127 121 305t-121 305z" />
    <glyph glyph-name="uni022B" unicode="&#x22b;" horiz-adv-x="1333" 
d="M1004 1726v-190h-676v190h676zM455 1440q41 3 73 -21t46 -58.5t8 -74.5t-35 -67q-27 -29 -67 -35t-74.5 7.5t-58 46t-19.5 73.5q0 53 37 91t90 38zM879 1182q-55 0 -92 36.5t-37 92.5q-4 41 20 73t59 46t75 8t67 -35q29 -27 35 -67t-8 -75t-46 -59t-73 -20zM258 889
q168 155 408 155q239 0 407 -155q170 -156 170 -377t-170 -377q-168 -155 -407 -155q-240 0 -408 155t-168 377t168 377zM666 238q112 0 193 81t81 193q0 114 -82 193q-78 81 -194 81q-114 0 -195 -81q-80 -80 -80 -193q0 -112 80 -195q82 -79 197 -79z" />
    <glyph glyph-name="circumflex" unicode="&#x2c6;" horiz-adv-x="942" 
d="M631 1481l252 -346h-254l-158 188l-156 -188h-254l250 346h320z" />
    <glyph glyph-name="caron" unicode="&#x2c7;" horiz-adv-x="942" 
d="M881 1481l-252 -346h-320l-250 346h254l156 -187l158 187h254z" />
    <glyph glyph-name="breve" unicode="&#x2d8;" horiz-adv-x="903" 
d="M627 1477h202q-3 -144 -111 -237t-267 -93q-160 0 -269 92q-107 94 -110 238h202q1 -66 51 -106t126 -40q75 0 124 39.5t52 106.5z" />
    <glyph glyph-name="dotaccent" unicode="&#x2d9;" horiz-adv-x="403" 
d="M201 1198q-57 0 -93 36t-36 91q-3 41 20.5 73t58 46t74 8t66.5 -35q29 -27 35 -66.5t-8 -74t-45.5 -58t-71.5 -20.5z" />
    <glyph glyph-name="ring" unicode="&#x2da;" horiz-adv-x="690" 
d="M152 1509q81 78 192 78q112 0 193 -78q79 -76 79 -188t-79 -188q-81 -78 -193 -78q-111 0 -192 78q-80 77 -80 188t80 188zM344 1198q50 0 87.5 36.5t37.5 86.5q2 37 -21 68t-56 44.5t-71.5 8t-64.5 -34.5q-29 -24 -35 -62t8 -71t45.5 -56t69.5 -20z" />
    <glyph glyph-name="ogonek" unicode="&#x2db;" horiz-adv-x="579" 
d="M223 10h170l-26 -35q-67 -91 -52 -151q6 -37 36 -59.5t71 -22.5q46 -3 92 18l39 -139q-84 -41 -191 -41q-87 0 -147 32.5t-80 88.5q-46 108 62 272z" />
    <glyph glyph-name="tilde" unicode="&#x2dc;" horiz-adv-x="886" 
d="M242 1468q44 7 83 -1.5t109 -39.5q113 -52 168 -55q76 -3 98 88l119 -12q9 -114 -36 -189.5t-126 -87.5q-43 -7 -84 2t-112 41q-83 36 -110 44t-58 8q-68 -6 -86 -88l-119 14q-10 114 32 188t122 88z" />
    <glyph glyph-name="hungarumlaut" unicode="&#x2dd;" horiz-adv-x="1181" 
d="M629 1481l-295 -346h-262l239 346h318zM1108 1481l-297 -346h-262l242 346h317z" />
    <glyph glyph-name="dotbelowcomb" unicode="&#x323;" horiz-adv-x="0" 
d="M109 -266q37 37 91 37t91 -37t37 -91.5t-37 -91.5t-91 -37t-91 37t-37 91.5t37 91.5z" />
    <glyph glyph-name="uni0326" unicode="&#x326;" horiz-adv-x="0" 
d="M215 -119q60 0 101.5 -37t41.5 -88q0 -34 -18 -61l-215 -318l-78 35l105 234q-36 15 -58 44.5t-22 65.5q0 52 42 88.5t101 36.5z" />
    <glyph glyph-name="uni032D" unicode="&#x32d;" horiz-adv-x="0" 
d="M631 -139l252 -346h-254l-158 186l-156 -186h-254l250 346h320z" />
    <glyph glyph-name="uni0331" unicode="&#x331;" horiz-adv-x="0" 
d="M748 -203v-190h-676v190h676z" />
    <glyph glyph-name="increment" unicode="&#x394;" horiz-adv-x="1228" 
 />
    <glyph glyph-name="Omega" unicode="&#x3a9;" horiz-adv-x="1228" 
 />
    <glyph glyph-name="mu" unicode="&#x3bc;" horiz-adv-x="1228" 
 />
    <glyph glyph-name="pi" unicode="&#x3c0;" horiz-adv-x="1228" 
 />
    <glyph glyph-name="Bdotbelow" unicode="&#x1e04;" horiz-adv-x="1529" 
d="M168 0v1434h741q227 0 348 -92.5t121 -270.5q0 -237 -223 -319q144 -40 215.5 -135t71.5 -228q0 -61 -15 -115.5t-51.5 -105.5t-91.5 -87.5t-141 -58.5t-195 -22h-780zM494 1167v-329h321q106 0 164.5 42t58.5 121q0 82 -57 124t-166 42h-321zM494 621v-355h374
q118 0 176 48.5t58 127.5q0 82 -58 130.5t-176 48.5h-374zM719 -485q-55 0 -92 36.5t-37 92.5q-4 41 20 73t59 45t75 7.5t67 -33.5q29 -27 35 -67t-8 -75t-46 -59t-73 -20z" />
    <glyph glyph-name="bdotbelow" unicode="&#x1e05;" horiz-adv-x="1325" 
d="M129 1434h305v-541q139 151 338 151q137 0 243 -71.5t162 -192t56 -268.5q0 -227 -127 -381q-127 -151 -334 -151q-199 0 -338 151v-131h-305v1434zM659 786q-68 0 -130 -34.5t-95 -89.5v-300q35 -57 95.5 -90.5t129.5 -33.5q114 0 193 79q80 83 80 195q0 114 -80 194
t-193 80zM563 -264q37 35 92.5 35t92.5 -35q37 -37 37 -92.5t-37 -92.5t-92.5 -37t-92.5 37t-37 92.5t37 92.5z" />
    <glyph glyph-name="Ddotbelow" unicode="&#x1e0c;" horiz-adv-x="1654" 
d="M168 0v1434h598q204 4 381.5 -91.5t282 -263.5t100.5 -364q4 -194 -100.5 -361t-282 -262.5t-381.5 -91.5h-598zM754 1143h-260v-850h260q183 0 313 121q129 123 129 303t-129 303t-313 123zM731 -485q-55 0 -92 36.5t-37 92.5q-4 40 20 71.5t59 45.5t75 8t67 -35
q29 -27 35 -66.5t-8 -74t-46 -58t-73 -20.5z" />
    <glyph glyph-name="ddotbelow" unicode="&#x1e0d;" horiz-adv-x="1325" 
d="M891 1434h305v-1434h-305v131q-139 -151 -338 -151q-138 0 -244.5 71.5t-162.5 192t-56 268.5t56 268.5t162.5 192t244.5 71.5q196 0 338 -151v541zM664 786q-111 0 -192 -81t-81 -193t80 -195q79 -79 193 -79q69 0 129.5 33.5t97.5 90.5v300q-37 57 -97.5 90.5
t-129.5 33.5zM584 -266q37 37 92 37t92 -37t37 -91.5t-37 -91.5t-92 -37t-92 37t-37 91.5t37 91.5z" />
    <glyph glyph-name="Dlinebelow" unicode="&#x1e0e;" horiz-adv-x="1654" 
d="M168 0v1434h598q204 4 381.5 -91.5t282 -263.5t100.5 -364q4 -194 -100.5 -361t-282 -262.5t-381.5 -91.5h-598zM754 1143h-260v-850h260q183 0 313 121q129 123 129 303t-129 303t-313 123zM1069 -203v-190h-676v190h676z" />
    <glyph glyph-name="dlinebelow" unicode="&#x1e0f;" horiz-adv-x="1325" 
d="M891 1434h305v-1434h-305v131q-139 -151 -338 -151q-138 0 -244.5 71.5t-162.5 192t-56 268.5t56 268.5t162.5 192t244.5 71.5q196 0 338 -151v541zM664 786q-111 0 -192 -81t-81 -193t80 -195q79 -79 193 -79q69 0 129.5 33.5t97.5 90.5v300q-37 57 -97.5 90.5
t-129.5 33.5zM1014 -203v-190h-676v190h676z" />
    <glyph glyph-name="Dcircumflexbelow" unicode="&#x1e12;" horiz-adv-x="1654" 
d="M168 0v1434h598q204 4 381.5 -91.5t282 -263.5t100.5 -364q4 -194 -100.5 -361t-282 -262.5t-381.5 -91.5h-598zM754 1143h-260v-850h260q183 0 313 121q129 123 129 303t-129 303t-313 123zM891 -139l250 -346h-252l-158 186l-156 -186h-253l249 346h320z" />
    <glyph glyph-name="dcircumflexbelow" unicode="&#x1e13;" horiz-adv-x="1325" 
d="M891 1434h305v-1434h-305v131q-139 -151 -338 -151q-138 0 -244.5 71.5t-162.5 192t-56 268.5t56 268.5t162.5 192t244.5 71.5q196 0 338 -151v541zM664 786q-111 0 -192 -81t-81 -193t80 -195q79 -79 193 -79q69 0 129.5 33.5t97.5 90.5v300q-37 57 -97.5 90.5
t-129.5 33.5zM836 -139l251 -346h-253l-158 186l-156 -186h-254l250 346h320z" />
    <glyph glyph-name="Hdotbelow" unicode="&#x1e24;" horiz-adv-x="1667" 
d="M1497 1434v-1434h-328v575h-675v-575h-326v1434h326v-566h675v566h328zM854 -229q53 0 91 -37t38 -90q3 -41 -21 -73t-58.5 -46t-74.5 -8.5t-67 34.5q-29 27 -35 66.5t7.5 74.5t46 58.5t73.5 20.5z" />
    <glyph glyph-name="hdotbelow" unicode="&#x1e25;" horiz-adv-x="1327" 
d="M139 1434h305v-533q180 143 400 143q165 0 264.5 -91.5t99.5 -258.5v-694h-305v602q0 93 -48.5 145t-133.5 52q-156 0 -277 -103v-696h-305v1434zM610 -266q37 37 92.5 37t92.5 -37t37 -91.5t-37 -91.5t-92.5 -37t-92.5 37t-37 91.5t37 91.5z" />
    <glyph glyph-name="Idieresisacute" unicode="&#x1e2e;" horiz-adv-x="665" 
d="M758 2267l-295 -346h-262l239 346h318zM131 1827q57 0 93 -36t36 -93q3 -41 -21 -73.5t-58.5 -46t-74.5 -7.5t-67 35q-29 27 -35 67t8 74.5t46 58.5t73 21zM463 1790q37 37 92 37t92 -37t37 -92t-37 -92t-92 -37t-92 37t-37 92t37 92zM496 1434v-1434h-326v1434h326z" />
    <glyph glyph-name="idieresisacute" unicode="&#x1e2f;" horiz-adv-x="591" 
d="M723 1858l-297 -345h-262l242 345h317zM96 1440q56 0 92.5 -37.5t36.5 -91.5q3 -41 -21 -73.5t-58.5 -46t-74.5 -7.5t-67 35q-29 27 -35 67t8 74.5t46 58.5t73 21zM520 1440q41 3 73 -21t46 -58.5t8 -74.5t-35 -67q-27 -29 -67 -35t-75 7.5t-59 46t-20 73.5
q0 54 36.5 91.5t92.5 37.5zM459 1024v-1024h-305v1024h305z" />
    <glyph glyph-name="Ldotbelow" unicode="&#x1e36;" horiz-adv-x="1284" 
d="M494 1434v-1141h731v-293h-1057v1434h326zM647 -229q57 0 93 -36.5t36 -90.5q0 -56 -37 -92.5t-92 -36.5t-91 36.5t-36 92.5q0 54 36 90.5t91 36.5z" />
    <glyph glyph-name="ldotbelow" unicode="&#x1e37;" horiz-adv-x="569" 
d="M453 1434v-1434h-306v1434h306zM211 -264q37 35 91 35t91 -35q37 -37 37 -92.5t-37 -92.5t-91 -37t-91 37t-37 92.5t37 92.5z" />
    <glyph glyph-name="Lcircumflexbelow" unicode="&#x1e3c;" horiz-adv-x="1284" 
d="M494 1434v-1141h731v-293h-1057v1434h326zM807 -139l252 -346h-254l-158 186l-155 -186h-254l249 346h320z" />
    <glyph glyph-name="lcircumflexbelow" unicode="&#x1e3d;" horiz-adv-x="569" 
d="M455 1434v-1434h-305v1434h305zM465 -139l250 -346h-254l-158 186l-156 -186h-253l249 346h322z" />
    <glyph glyph-name="Macute" unicode="&#x1e3e;" horiz-adv-x="2060" 
d="M1438 1890l-295 -346h-262l239 346h318zM1888 1434v-1434h-321v999l-488 -821h-114l-488 821v-999h-319v1434h428l436 -727l438 727h428z" />
    <glyph glyph-name="macute" unicode="&#x1e3f;" horiz-adv-x="2004" 
d="M1460 1481l-295 -346h-262l240 346h317zM813 1044q213 0 301 -155q102 84 199 119.5t213 35.5q164 0 262 -91.5t98 -258.5v-694h-305v602q0 94 -48.5 145.5t-129.5 51.5q-139 0 -252 -88q8 -63 8 -136v-575h-305v602q0 93 -48 145t-130 52q-126 0 -242 -90v-709h-305
v1024h305v-131q177 151 379 151z" />
    <glyph glyph-name="Ndotaccent" unicode="&#x1e44;" horiz-adv-x="1640" 
d="M852 1864q41 3 73 -20.5t46 -58t8 -74t-35 -66.5q-27 -29 -66.5 -35t-74 8t-58 45.5t-20.5 71.5q0 57 35.5 93t91.5 36zM1485 1434v-1434h-340l-668 901v-901h-321v1434h340l669 -902v902h320z" />
    <glyph glyph-name="ndotaccent" unicode="&#x1e45;" horiz-adv-x="1316" 
d="M565 1417q37 37 92.5 37t92.5 -37t37 -91t-37 -91t-92.5 -37t-92.5 37t-37 91t37 91zM834 1044q161 0 262.5 -90.5t101.5 -259.5v-694h-305v602q0 93 -48.5 145t-133.5 52q-156 0 -277 -103v-696h-305v1024h305v-123q180 143 400 143z" />
    <glyph glyph-name="Ndotbelow" unicode="&#x1e46;" horiz-adv-x="1640" 
d="M1485 1434v-1434h-340l-668 901v-901h-321v1434h340l669 -902v902h320zM852 -485q-54 0 -90.5 36.5t-36.5 92.5q-3 41 20.5 73t58 45t74 7.5t66.5 -33.5q29 -27 35 -67t-8 -75t-46 -59t-73 -20z" />
    <glyph glyph-name="ndotbelow" unicode="&#x1e47;" horiz-adv-x="1316" 
d="M834 1044q161 0 262.5 -90.5t101.5 -259.5v-694h-305v602q0 93 -48.5 145t-133.5 52q-156 0 -277 -103v-696h-305v1024h305v-123q180 143 400 143zM657 -229q53 0 91 -37t38 -90q3 -41 -21 -73t-58.5 -46t-74.5 -8.5t-67 34.5q-29 27 -35 66.5t7.5 74.5t46 58.5
t73.5 20.5z" />
    <glyph glyph-name="Ncircumflexbelow" unicode="&#x1e4a;" horiz-adv-x="1640" 
d="M1485 1434v-1434h-340l-668 901v-901h-321v1434h340l669 -902v902h320zM1012 -139l252 -346h-254l-158 186l-156 -186h-254l250 346h320z" />
    <glyph glyph-name="ncircumflexbelow" unicode="&#x1e4b;" horiz-adv-x="1316" 
d="M834 1044q161 0 262.5 -90.5t101.5 -259.5v-694h-305v602q0 93 -48.5 145t-133.5 52q-156 0 -277 -103v-696h-305v1024h305v-123q180 143 400 143zM817 -139l250 -346h-254l-156 186l-157 -186h-254l252 346h319z" />
    <glyph glyph-name="Otildeacute" unicode="&#x1e4c;" horiz-adv-x="1777" 
d="M1300 2234l-294 -346h-263l240 346h317zM678 1825q44 7 83 -1.5t109 -39.5q115 -53 168 -53q75 -3 99 88l116 -15q10 -114 -33 -188t-126 -88q-46 -7 -85.5 2t-111.5 41q-22 9 -48.5 20.5t-38 16.5t-26 10.5t-22 6.5t-16 0.5t-17.5 -3.5q-71 -3 -86 -86l-119 12
q-12 115 31 190t123 87zM504 1356q174 98 383 98q206 0 382 -98t279 -269t103 -370q0 -200 -101.5 -370t-279.5 -269q-174 -98 -383 -98q-207 0 -383 97.5t-279 268.5q-102 170 -102 371q0 200 101.5 370t279.5 269zM887 1147q-182 0 -304 -124.5t-122 -305.5
q0 -178 121 -305q122 -125 305 -125q184 0 303 125q121 127 121 305t-121 305q-119 125 -303 125z" />
    <glyph glyph-name="otildeacute" unicode="&#x1e4d;" horiz-adv-x="1333" 
d="M1081 1853l-295 -346h-262l240 346h317zM459 1450q44 7 83 -1.5t109 -39.5q113 -52 168 -55q75 -3 99 90l116 -14q10 -114 -33.5 -188.5t-126.5 -88.5q-46 -7 -85 2t-111 41q-19 8 -44 18.5t-34.5 14.5t-24.5 9.5t-20 6.5t-14.5 2.5t-16 1t-16.5 -1.5q-67 -3 -86 -88
l-117 15q-10 115 31 188.5t123 87.5zM258 889q168 155 408 155q239 0 407 -155q170 -156 170 -377t-170 -377q-168 -155 -407 -155q-240 0 -408 155t-168 377t168 377zM666 786q-115 0 -196 -80.5t-81 -193.5q0 -112 80 -195q82 -79 197 -79q112 0 193 81t81 193
q0 114 -82 193q-78 81 -192 81z" />
    <glyph glyph-name="Omacrongrave" unicode="&#x1e50;" horiz-adv-x="1777" 
d="M784 2236l240 -346h-262l-295 346h317zM1225 1759v-190h-676v190h676zM504 1356q174 98 383 98q206 0 382 -98t279 -269t103 -370q0 -200 -101.5 -370t-279.5 -269q-174 -98 -383 -98q-207 0 -383 97.5t-279 268.5q-102 170 -102 371q0 200 101.5 370t279.5 269zM887 287
q183 0 303.5 124t120.5 306q0 178 -121 305q-119 125 -303 125q-183 0 -305 -125q-121 -127 -121 -305t121 -305q122 -125 305 -125z" />
    <glyph glyph-name="omacrongrave" unicode="&#x1e51;" horiz-adv-x="1333" 
d="M563 1853l242 -346h-262l-297 346h317zM1004 1401v-191h-676v191h676zM258 889q168 155 408 155q239 0 407 -155q170 -156 170 -377t-170 -377q-168 -155 -407 -155q-240 0 -408 155t-168 377t168 377zM666 238q112 0 193 81t81 193q0 114 -82 193q-78 81 -194 81
q-114 0 -195 -81q-80 -80 -80 -193q0 -112 80 -195q82 -79 197 -79z" />
    <glyph glyph-name="Omacronacute" unicode="&#x1e52;" horiz-adv-x="1777" 
d="M1300 2236l-294 -346h-263l240 346h317zM1225 1759v-190h-676v190h676zM504 1356q174 98 383 98q206 0 382 -98t279 -269t103 -370q0 -200 -101.5 -370t-279.5 -269q-174 -98 -383 -98q-207 0 -383 97.5t-279 268.5q-102 170 -102 371q0 200 101.5 370t279.5 269z
M887 287q183 0 303.5 124t120.5 306q0 178 -121 305q-119 125 -303 125q-183 0 -305 -125q-121 -127 -121 -305t121 -305q122 -125 305 -125z" />
    <glyph glyph-name="omacronacute" unicode="&#x1e53;" horiz-adv-x="1333" 
d="M258 889q168 155 408 155q239 0 407 -155q170 -156 170 -377t-170 -377q-168 -155 -407 -155q-240 0 -408 155t-168 377t168 377zM858 705q-78 81 -194 81q-114 0 -195 -81q-80 -80 -80 -193q0 -112 80 -195q82 -79 195 -79q115 0 194 79q82 82 82 195q0 114 -82 193z
M1004 1401v-191h-676v191h676zM1081 1853l-295 -346h-262l240 346h317z" />
    <glyph glyph-name="Sdotbelow" unicode="&#x1e62;" horiz-adv-x="1449" 
d="M725 1454q341 0 602 -158l-137 -252q-116 63 -251.5 99.5t-248.5 36.5q-87 -2 -138.5 -37t-51.5 -101q0 -49 51 -75q56 -29 227 -74l142 -41q57 -14 125.5 -39t107.5 -47q115 -65 154 -129q53 -87 53 -203q0 -217 -158 -335.5t-432 -118.5q-393 0 -686 194l147 244
q272 -160 576 -160q90 0 149.5 34t59.5 101q0 78 -53 105q-55 31 -242 77l-35 9q-94 25 -134 36t-94.5 30.5t-101.5 41.5q-107 52 -158 124t-51 188q0 90 29.5 164.5t81.5 127t124.5 88.5t158.5 53t184 17zM682 -264q37 35 92 35t92 -35q37 -37 37 -92.5t-37 -92.5t-92 -37
t-92 37t-37 92.5t37 92.5z" />
    <glyph glyph-name="sdotbelow" unicode="&#x1e63;" horiz-adv-x="1073" 
d="M524 1044q250 0 437 -114l-101 -185q-174 97 -336 97q-57 0 -95 -24.5t-38 -72.5q0 -35 32.5 -54t141.5 -48q18 -4 101 -29q121 -35 170 -65q149 -79 149 -244q0 -156 -114 -240.5t-312 -84.5q-285 0 -498 139l107 178q183 -115 389 -115q63 0 104 23.5t41 70.5
q0 52 -30 70q-28 19 -135 47l-39 10q-68 19 -97.5 28t-68.5 23t-74 31q-75 38 -113.5 94.5t-38.5 141.5q0 156 114 239.5t304 83.5zM451 -266q37 37 92 37t92 -37t37 -91.5t-37 -91.5t-92 -37t-92 37t-37 91.5t37 91.5z" />
    <glyph glyph-name="Tdotbelow" unicode="&#x1e6c;" horiz-adv-x="1314" 
d="M1257 1434v-279h-436v-1155h-329v1155h-435v279h1200zM645 -229q57 0 93 -36.5t36 -90.5q3 -41 -21 -73t-58.5 -46t-74.5 -8.5t-67 34.5q-29 27 -35 66.5t7.5 74.5t46 58.5t73.5 20.5z" />
    <glyph glyph-name="tdotbelow" unicode="&#x1e6d;" horiz-adv-x="925" 
d="M498 1298v-274h270v-231h-270v-404q0 -77 45.5 -120.5t118.5 -43.5q68 0 139 41l39 -209q-139 -74 -295 -77q-148 -3 -252 90q-100 93 -100 266v457h-148v231h148v274h305zM473 -485q-57 0 -93 36t-36 93q-4 41 20 73t59 45t75 7.5t67 -33.5q29 -27 35 -67t-8 -75
t-46 -59t-73 -20z" />
    <glyph glyph-name="Tlinebelow" unicode="&#x1e6e;" horiz-adv-x="1314" 
d="M1257 1434v-279h-436v-1155h-329v1155h-435v279h1200zM983 -203v-190h-676v190h676z" />
    <glyph glyph-name="tlinebelow" unicode="&#x1e6f;" horiz-adv-x="925" 
d="M498 1298v-274h270v-231h-270v-404q0 -77 45.5 -120.5t118.5 -43.5q68 0 139 41l39 -209q-139 -74 -295 -77q-148 -3 -252 90q-100 93 -100 266v457h-148v231h148v274h305zM811 -203v-190h-676v190h676z" />
    <glyph glyph-name="Tcircumflexbelow" unicode="&#x1e70;" horiz-adv-x="1314" 
d="M1257 1434v-279h-436v-1155h-329v1155h-435v279h1200zM805 -139l252 -346h-254l-158 186l-156 -186h-253l249 346h320z" />
    <glyph glyph-name="tcircumflexbelow" unicode="&#x1e71;" horiz-adv-x="925" 
d="M498 1298v-274h270v-231h-270v-404q0 -77 45.5 -120.5t118.5 -43.5q68 0 139 41l39 -209q-139 -74 -295 -77q-148 -3 -252 90q-100 93 -100 266v457h-148v231h148v274h305zM633 -139l250 -346h-254l-156 186l-158 -186h-254l252 346h320z" />
    <glyph glyph-name="Wgrave" unicode="&#x1e80;" horiz-adv-x="2328" 
d="M1061 1890l242 -346h-265l-295 346h318zM2269 1434l-475 -1434h-338l-293 922l-295 -922h-336l-475 1434h363l297 -928l284 928h322l287 -928l295 928h364z" />
    <glyph glyph-name="wgrave" unicode="&#x1e81;" horiz-adv-x="1701" 
d="M1669 1024l-317 -1024h-330l-172 573l-174 -573h-328l-317 1024h303l192 -696l205 696h238l205 -696l192 696h303zM745 1481l240 -346h-262l-295 346h317z" />
    <glyph glyph-name="Wacute" unicode="&#x1e82;" horiz-adv-x="2328" 
d="M1579 1890l-297 -346h-262l242 346h317zM2269 1434l-475 -1434h-338l-293 922l-295 -922h-336l-475 1434h363l297 -928l284 928h322l287 -928l295 928h364z" />
    <glyph glyph-name="wacute" unicode="&#x1e83;" horiz-adv-x="1701" 
d="M1669 1024l-317 -1024h-330l-172 573l-174 -573h-328l-317 1024h303l192 -696l205 696h238l205 -696l192 696h303zM1262 1481l-295 -346h-262l239 346h318z" />
    <glyph glyph-name="Wdieresis" unicode="&#x1e84;" horiz-adv-x="2328" 
d="M1081 1735q0 -54 -37 -90.5t-92 -36.5t-92 36.5t-37 90.5q0 56 37 92.5t92 36.5q57 0 93 -36t36 -93zM1376 1864q55 0 92 -36.5t37 -92.5q0 -54 -37 -90.5t-92 -36.5q-56 0 -92.5 36t-36.5 91t36.5 92t92.5 37zM2269 1434l-475 -1434h-338l-293 922l-295 -922h-336
l-475 1434h363l297 -928l284 928h322l287 -928l295 928h364z" />
    <glyph glyph-name="wdieresis" unicode="&#x1e85;" horiz-adv-x="1701" 
d="M637 1454q40 3 71.5 -20.5t45.5 -58t8 -74t-35 -66.5q-27 -29 -66.5 -35t-74 8t-58 45.5t-20.5 71.5q0 57 36 93t93 36zM1188 1325q0 -55 -36 -91t-93 -36q-41 -3 -73.5 20.5t-46 58t-7.5 74t35 66.5q27 29 67 35t74.5 -8t58.5 -46t21 -73zM1669 1024l-317 -1024h-330
l-172 573l-174 -573h-328l-317 1024h303l192 -696l205 696h238l205 -696l192 696h303z" />
    <glyph glyph-name="Zdotbelow" unicode="&#x1e92;" horiz-adv-x="1409" 
d="M1303 1434v-232l-752 -913h774v-289h-1241v236l731 909h-684v289h1172zM614 -264q37 35 92.5 35t92.5 -35q37 -37 37 -92.5t-37 -92.5t-92.5 -37t-92.5 37t-37 92.5t37 92.5z" />
    <glyph glyph-name="zdotbelow" unicode="&#x1e93;" horiz-adv-x="1103" 
d="M1001 1024v-199l-507 -579h530v-246h-956v199l505 579h-464v246h892zM475 -264q37 35 92 35t90 -35q37 -37 37 -92.5t-37 -92.5q-35 -37 -90 -37t-92 37t-37 92.5t37 92.5z" />
    <glyph glyph-name="Adotbelow" unicode="&#x1ea0;" horiz-adv-x="1718" 
d="M1069 1434l588 -1434h-389l-111 283h-600l-111 -283h-389l584 1434h428zM856 1071l-213 -528h426zM854 -229q56 0 92.5 -36.5t36.5 -90.5q0 -56 -36.5 -92.5t-92.5 -36.5q-54 0 -90.5 36.5t-36.5 92.5q0 54 36.5 90.5t90.5 36.5z" />
    <glyph glyph-name="adotbelow" unicode="&#x1ea1;" horiz-adv-x="1216" 
d="M662 1044q204 0 321 -95.5t117 -286.5v-662h-305v125q-154 -145 -371 -145q-150 0 -245 89.5t-95 231.5t100.5 221.5t278.5 79.5h332v31q0 86 -56.5 131t-158.5 45q-159 -3 -316 -98l-88 194q231 136 486 139zM795 233v252h-213q-94 0 -145.5 -39.5t-51.5 -113.5
q0 -75 49.5 -122.5t124.5 -47.5q141 0 236 71zM655 -229q54 0 90.5 -36.5t36.5 -90.5q3 -41 -20.5 -73t-58 -46t-74 -8.5t-66.5 34.5q-29 27 -35 66.5t7.5 74.5t46 58.5t73.5 20.5z" />
    <glyph glyph-name="Ahookabove" unicode="&#x1ea2;" horiz-adv-x="1718" 
d="M850 2079q130 0 207.5 -60.5t77.5 -165.5q0 -54 -30 -96.5t-97 -95.5q-51 -39 -63 -55q-14 -20 -15 -50h-170q-3 45 8 86q8 35 39 66q10 10 82 66q45 33 45 69q6 45 -47 64t-109 -0.5t-57 -67.5l-180 16q17 104 100.5 164t208.5 60zM1069 1434l588 -1434h-389l-111 283
h-600l-111 -283h-389l584 1434h428zM856 1071l-213 -528h426z" />
    <glyph glyph-name="ahookabove" unicode="&#x1ea3;" horiz-adv-x="1216" 
d="M657 1657q130 0 206.5 -60t76.5 -165q0 -55 -29.5 -98t-95.5 -95q-42 -28 -60 -49.5t-18 -54.5h-170q-3 52 6 86q10 34 41 65q8 8 41.5 34.5t38.5 31.5q45 33 45 69q7 45 -46.5 64t-109.5 -0.5t-55 -67.5l-180 17q17 104 100.5 163.5t208.5 59.5zM662 1044
q204 0 321 -95.5t117 -286.5v-662h-305v125q-154 -145 -371 -145q-150 0 -245 89.5t-95 231.5t100.5 221.5t278.5 79.5h332v31q0 86 -56.5 131t-158.5 45q-159 -3 -316 -98l-88 194q231 136 486 139zM795 233v252h-213q-94 0 -145.5 -39.5t-51.5 -113.5q0 -75 49.5 -122.5
t124.5 -47.5q141 0 236 71z" />
    <glyph glyph-name="Acircumflexacute" unicode="&#x1ea4;" horiz-adv-x="1718" 
d="M1825 1999l-297 -344h-262l241 344h318zM1016 1890l250 -346h-254l-156 189l-158 -189h-252l250 346h320zM1069 1434l588 -1434h-389l-111 283h-600l-111 -283h-389l584 1434h428zM856 1071l-213 -528h426z" />
    <glyph glyph-name="acircumflexacute" unicode="&#x1ea5;" horiz-adv-x="1216" 
d="M1622 1589l-297 -344h-262l242 344h317zM813 1481l250 -346h-254l-156 188l-155 -188h-254l250 346h319zM662 1044q204 0 321 -95.5t117 -286.5v-662h-305v125q-154 -145 -371 -145q-150 0 -245 89.5t-95 231.5t100.5 221.5t278.5 79.5h332v31q0 86 -56.5 131t-158.5 45
q-159 -3 -316 -98l-88 194q231 136 486 139zM795 233v252h-213q-94 0 -145.5 -39.5t-51.5 -113.5q0 -75 49.5 -122.5t124.5 -47.5q141 0 236 71z" />
    <glyph glyph-name="Acircumflexgrave" unicode="&#x1ea6;" horiz-adv-x="1718" 
d="M1362 1999l240 -344h-263l-295 344h318zM1016 1890l250 -346h-254l-156 189l-158 -189h-252l250 346h320zM1069 1434l588 -1434h-389l-111 283h-600l-111 -283h-389l584 1434h428zM856 1071l-213 -528h426z" />
    <glyph glyph-name="acircumflexgrave" unicode="&#x1ea7;" horiz-adv-x="1216" 
d="M1159 1589l240 -344h-262l-295 344h317zM813 1481l250 -346h-254l-156 188l-155 -188h-254l250 346h319zM662 1044q204 0 321 -95.5t117 -286.5v-662h-305v125q-154 -145 -371 -145q-150 0 -245 89.5t-95 231.5t100.5 221.5t278.5 79.5h332v31q0 86 -56.5 131t-158.5 45
q-159 -3 -316 -98l-88 194q231 136 486 139zM795 233v252h-213q-94 0 -145.5 -39.5t-51.5 -113.5q0 -75 49.5 -122.5t124.5 -47.5q141 0 236 71z" />
    <glyph glyph-name="Acircumflexhookabove" unicode="&#x1ea8;" horiz-adv-x="1718" 
d="M1395 2175q130 0 207 -59.5t77 -163.5q0 -57 -29.5 -99.5t-97.5 -95.5q-41 -29 -59 -50t-18 -52h-170q-3 50 6 84q6 21 19 39.5t23 28t38 31t41 32.5q45 36 45 69q0 35 -28 54.5t-73 19.5q-46 0 -75 -20.5t-35 -57.5l-181 19q17 102 101 161.5t209 59.5zM1016 1890
l250 -346h-254l-156 189l-158 -189h-252l250 346h320zM1069 1434l588 -1434h-389l-111 283h-600l-111 -283h-389l584 1434h428zM856 1071l-213 -528h426z" />
    <glyph glyph-name="acircumflexhookabove" unicode="&#x1ea9;" horiz-adv-x="1216" 
d="M1196 1765q129 0 207 -59t78 -164q0 -61 -30 -102.5t-97 -91.5q-41 -28 -58.5 -49t-17.5 -54h-172q-2 44 8 84q8 35 39 66q6 6 82 65q45 36 45 70q6 45 -47 64t-109 -0.5t-57 -67.5l-180 16q19 105 102 164t207 59zM817 1481l250 -346h-252l-158 188l-155 -188h-254
l250 346h319zM662 1044q204 0 321 -95.5t117 -286.5v-662h-305v125q-154 -145 -371 -145q-150 0 -245 89.5t-95 231.5t100.5 221.5t278.5 79.5h332v31q0 86 -56.5 131t-158.5 45q-159 -3 -316 -98l-88 194q231 136 486 139zM795 233v252h-213q-94 0 -145.5 -39.5
t-51.5 -113.5q0 -75 49.5 -122.5t124.5 -47.5q141 0 236 71z" />
    <glyph glyph-name="Acircumflextilde" unicode="&#x1eaa;" horiz-adv-x="1718" 
d="M647 2251q44 7 83.5 -1.5t109.5 -39.5q115 -53 168 -56q73 -3 98 91l117 -15q10 -114 -33.5 -188t-126.5 -88q-43 -10 -82 0t-115 43q-13 5 -32 13t-27 11.5t-21 9t-18.5 7.5t-14.5 5t-13 4t-10.5 2t-11 1t-9.5 -0.5t-11 -1.5q-70 -6 -88 -88l-116 14q-10 115 31.5 189
t121.5 88zM1016 1890l250 -346h-254l-156 189l-158 -189h-252l250 346h320zM1069 1434l588 -1434h-389l-111 283h-600l-111 -283h-389l584 1434h428zM856 1071l-213 -528h426z" />
    <glyph glyph-name="acircumflextilde" unicode="&#x1eab;" horiz-adv-x="1216" 
d="M444 1831q44 7 83.5 -1.5t109.5 -39.5q115 -53 168 -53q76 -3 98 88l117 -15q12 -113 -33.5 -187.5t-126.5 -86.5q-44 -7 -85.5 2t-110.5 41q-82 36 -109 43.5t-59 7.5q-71 -6 -86 -88l-119 14q-10 114 31.5 187.5t121.5 87.5zM813 1481l250 -346h-254l-156 188
l-155 -188h-254l250 346h319zM662 1044q204 0 321 -95.5t117 -286.5v-662h-305v125q-154 -145 -371 -145q-150 0 -245 89.5t-95 231.5t100.5 221.5t278.5 79.5h332v31q0 86 -56.5 131t-158.5 45q-159 -3 -316 -98l-88 194q231 136 486 139zM795 233v252h-213
q-94 0 -145.5 -39.5t-51.5 -113.5q0 -76 49 -123t125 -47q141 0 236 71z" />
    <glyph glyph-name="Acircumflexdotbelow" unicode="&#x1eac;" horiz-adv-x="1718" 
d="M1016 1890l250 -346h-254l-156 189l-158 -189h-252l250 346h320zM1069 1434l588 -1434h-389l-111 283h-600l-111 -283h-389l584 1434h428zM856 1071l-213 -528h426zM666 -229q54 0 91.5 -36.5t37.5 -90.5q0 -56 -36.5 -92.5t-92.5 -36.5q-57 0 -93 36t-36 93
q0 54 37 90.5t92 36.5z" />
    <glyph glyph-name="acircumflexdotbelow" unicode="&#x1ead;" horiz-adv-x="1216" 
d="M813 1481l250 -346h-254l-156 188l-155 -188h-254l250 346h319zM662 1044q204 0 321 -95.5t117 -286.5v-662h-305v125q-154 -145 -371 -145q-150 0 -245 89.5t-95 231.5t100.5 221.5t278.5 79.5h332v31q0 86 -56.5 131t-158.5 45q-159 -3 -316 -98l-88 194
q231 136 486 139zM795 233v252h-213q-94 0 -145.5 -39.5t-51.5 -113.5q0 -75 49.5 -122.5t124.5 -47.5q141 0 236 71zM563 -266q37 37 91 37t91 -37t37 -91.5t-37 -91.5t-91 -37t-91 37t-37 91.5t37 91.5z" />
    <glyph glyph-name="Abreveacute" unicode="&#x1eae;" horiz-adv-x="1718" 
d="M1270 2277l-295 -344h-262l239 344h318zM1038 1896l203 -2q-3 -142 -111 -237q-109 -92 -270 -92q-159 0 -268 92q-108 95 -111 237l203 2q1 -68 50.5 -107.5t125.5 -39.5q79 0 128 39.5t50 107.5zM1069 1434l588 -1434h-389l-111 283h-600l-111 -283h-389l584 1434h428z
M856 1071l-213 -528h426z" />
    <glyph glyph-name="abreveacute" unicode="&#x1eaf;" horiz-adv-x="1216" 
d="M1067 1858l-295 -345h-262l240 345h317zM836 1487l202 -2q-3 -142 -111.5 -236t-267.5 -94t-268 92q-109 95 -112 238l202 2q4 -68 53 -108t125 -40t126 40t51 108zM662 1044q204 0 321 -95.5t117 -286.5v-662h-305v125q-154 -145 -371 -145q-150 0 -245 89.5t-95 231.5
t100.5 221.5t278.5 79.5h332v31q0 86 -56.5 131t-158.5 45q-159 -3 -316 -98l-88 194q231 136 486 139zM795 233v252h-213q-94 0 -145.5 -39.5t-51.5 -113.5q0 -75 49.5 -122.5t124.5 -47.5q141 0 236 71z" />
    <glyph glyph-name="Abrevegrave" unicode="&#x1eb0;" horiz-adv-x="1718" 
d="M752 2277l241 -344h-262l-297 344h318zM1038 1896l203 -2q-3 -142 -111 -237q-109 -92 -270 -92q-159 0 -268 92q-108 95 -111 237l203 2q1 -68 50.5 -107.5t125.5 -39.5q79 0 128 39.5t50 107.5zM1069 1434l588 -1434h-389l-111 283h-600l-111 -283h-389l584 1434h428z
M856 1071l-213 -528h426z" />
    <glyph glyph-name="abrevegrave" unicode="&#x1eb1;" horiz-adv-x="1216" 
d="M551 1858l240 -345h-263l-295 345h318zM836 1487l202 -2q-3 -142 -111.5 -236t-267.5 -94t-268 92q-109 95 -112 238l202 2q4 -68 53 -108t125 -40t126 40t51 108zM662 1044q204 0 321 -95.5t117 -286.5v-662h-305v125q-154 -145 -371 -145q-150 0 -245 89.5t-95 231.5
t100.5 221.5t278.5 79.5h332v31q0 86 -56.5 131t-158.5 45q-159 -3 -316 -98l-88 194q231 136 486 139zM795 233v252h-213q-94 0 -145.5 -39.5t-51.5 -113.5q0 -75 49.5 -122.5t124.5 -47.5q141 0 236 71z" />
    <glyph glyph-name="Abrevehookabove" unicode="&#x1eb2;" horiz-adv-x="1718" 
d="M850 2431q130 0 207.5 -59t77.5 -164q0 -57 -29.5 -99.5t-97.5 -95.5q-5 -4 -17 -13l-16 -12t-12.5 -10t-11.5 -11t-8 -11t-7 -13t-4 -14.5t-2 -17.5h-170q-2 44 8 84q7 33 39 65q8 8 41.5 35t40.5 33q45 33 45 67t-29 54t-74 20t-74.5 -21t-35.5 -57l-180 19
q17 102 100.5 161.5t208.5 59.5zM1038 1896l203 -2q-3 -142 -111 -237q-109 -92 -270 -92q-159 0 -268 92q-108 95 -111 237l203 2q1 -68 50.5 -107.5t125.5 -39.5q79 0 128 39.5t50 107.5zM1069 1434l588 -1434h-389l-111 283h-600l-111 -283h-389l584 1434h428zM856 1071
l-213 -528h426z" />
    <glyph glyph-name="abrevehookabove" unicode="&#x1eb3;" horiz-adv-x="1216" 
d="M647 2021q129 0 207 -59.5t78 -163.5q0 -57 -29.5 -98.5t-97.5 -95.5q-4 -3 -13.5 -10t-13 -10t-11 -9t-10.5 -9l-8.5 -8.5t-7 -9t-5 -9.5t-4.5 -11.5t-2 -12t-1 -14.5h-172q-2 44 8 84q8 35 39 66q8 8 41 34t41 33q45 33 45 68q6 45 -47 64t-109 -0.5t-57 -67.5l-180 18
q17 102 100.5 161.5t208.5 59.5zM836 1487l202 -2q-3 -144 -110 -238q-109 -92 -269 -92q-159 0 -268 92q-109 95 -112 238l202 2q4 -68 53 -108t125 -40t126 40t51 108zM662 1044q204 0 321 -95.5t117 -286.5v-662h-305v125q-154 -145 -371 -145q-150 0 -245 89.5
t-95 231.5t101 221.5t280 79.5h330v31q0 86 -56.5 131t-158.5 45q-159 -3 -316 -98l-88 194q231 136 486 139zM795 233v252h-213q-94 0 -145.5 -39.5t-51.5 -113.5q0 -75 49.5 -122.5t124.5 -47.5q141 0 236 71z" />
    <glyph glyph-name="Abrevetilde" unicode="&#x1eb4;" horiz-adv-x="1718" 
d="M647 2238q44 7 84 -1t109 -39q117 -54 168 -54q73 -3 98 88l117 -14q10 -114 -33.5 -188t-126.5 -86q-47 -7 -87 1.5t-110 39.5q-93 40 -116.5 48t-51.5 5q-70 -6 -88 -88l-116 12q-12 115 31 189.5t122 86.5zM1038 1896l203 -2q-3 -142 -111 -237q-109 -92 -270 -92
q-159 0 -268 92q-108 95 -111 237l203 2q1 -68 50.5 -107.5t125.5 -39.5q79 0 128 39.5t50 107.5zM1069 1434l588 -1434h-389l-111 283h-600l-111 -283h-389l584 1434h428zM856 1071l-213 -528h426z" />
    <glyph glyph-name="abrevetilde" unicode="&#x1eb5;" horiz-adv-x="1216" 
d="M444 1831q44 7 83.5 -1.5t109.5 -39.5q113 -52 168 -55q77 -3 98 90l117 -15q12 -114 -33 -187.5t-127 -88.5q-43 -7 -84 2t-112 41q-113 48 -134 52q-15 2 -34 -1q-71 -3 -86 -88l-119 14q-10 115 31.5 189t121.5 88zM836 1487l202 -2q-3 -144 -110 -238
q-109 -92 -269 -92q-159 0 -268 92q-109 95 -112 238l202 2q4 -68 53 -108t125 -40t126 40t51 108zM662 1044q204 0 321 -95.5t117 -286.5v-662h-305v125q-154 -145 -371 -145q-150 0 -245 89.5t-95 231.5t100.5 221.5t278.5 79.5h332v31q0 86 -56.5 131t-158.5 45
q-159 -3 -316 -98l-88 194q231 136 486 139zM795 233v252h-213q-94 0 -145.5 -39.5t-51.5 -113.5q0 -75 49.5 -122.5t124.5 -47.5q141 0 236 71z" />
    <glyph glyph-name="Abrevedotbelow" unicode="&#x1eb6;" horiz-adv-x="1718" 
d="M1038 1896l203 -2q-3 -142 -111 -237q-109 -92 -270 -92q-159 0 -268 92q-108 95 -111 237l203 2q1 -68 50.5 -107.5t125.5 -39.5q79 0 128 39.5t50 107.5zM1069 1434l588 -1434h-389l-111 283h-600l-111 -283h-389l584 1434h428zM856 1071l-213 -528h426zM854 -229
q56 0 92.5 -36.5t36.5 -90.5q0 -56 -36.5 -92.5t-92.5 -36.5q-54 0 -90.5 36.5t-36.5 92.5q0 54 36.5 90.5t90.5 36.5z" />
    <glyph glyph-name="abrevedotbelow" unicode="&#x1eb7;" horiz-adv-x="1216" 
d="M836 1487l202 -2q-3 -142 -111.5 -236t-267.5 -94t-268 92q-109 95 -112 238l202 2q4 -68 53 -108t125 -40t126 40t51 108zM662 1044q204 0 321 -95.5t117 -286.5v-662h-305v125q-154 -145 -371 -145q-150 0 -245 89.5t-95 231.5t100.5 221.5t278.5 79.5h332v31
q0 86 -56.5 131t-158.5 45q-159 -3 -316 -98l-88 194q231 136 486 139zM795 233v252h-213q-94 0 -145.5 -39.5t-51.5 -113.5q0 -75 49.5 -122.5t124.5 -47.5q141 0 236 71zM563 -266q37 37 92 37t90 -37q37 -37 37 -91.5t-37 -91.5q-35 -37 -90 -37t-92 37t-37 91.5t37 91.5
z" />
    <glyph glyph-name="Edotbelow" unicode="&#x1eb8;" horiz-adv-x="1415" 
d="M1313 1434v-293h-819v-277h761v-278h-761v-293h833v-293h-1159v1434h1145zM696 -266q37 37 92.5 37t92.5 -37t37 -91.5t-37 -91.5t-92.5 -37t-92.5 37t-37 91.5t37 91.5z" />
    <glyph glyph-name="edotbelow" unicode="&#x1eb9;" 
d="M625 1044q240 1 388.5 -152.5t143.5 -379.5v-78h-772q3 -104 84 -170q76 -62 193 -65q153 0 253 100l160 -143q-185 -176 -440 -176q-227 0 -385 155q-160 157 -160 377q0 221 156 377q155 155 379 155zM631 829q-102 0 -172 -73q-72 -75 -72 -176h485q0 108 -66.5 178.5
t-174.5 70.5zM621 -229q54 0 90.5 -36.5t36.5 -90.5q3 -41 -20.5 -73t-58.5 -46t-74.5 -8.5t-66.5 34.5q-29 27 -35 66.5t8 74.5t46.5 58.5t73.5 20.5z" />
    <glyph glyph-name="Ehookabove" unicode="&#x1eba;" horiz-adv-x="1415" 
d="M741 2079q130 0 206.5 -60.5t76.5 -165.5q0 -55 -29 -97.5t-96 -94.5q-51 -39 -63 -55q-14 -20 -15 -50h-170q-3 52 6 86q11 36 41 66q8 8 41.5 34.5t38.5 31.5q45 33 45 69q0 34 -27 54t-73 20q-47 0 -76.5 -21t-34.5 -57l-180 16q15 103 99 163.5t210 60.5zM1313 1434
v-293h-819v-277h761v-278h-761v-293h833v-293h-1159v1434h1145z" />
    <glyph glyph-name="ehookabove" unicode="&#x1ebb;" 
d="M629 1657q129 0 206.5 -60t77.5 -165q0 -54 -30 -97t-97 -96q-7 -7 -25.5 -21.5t-23.5 -19.5q-26 -26 -26 -63h-172q0 55 8 86q11 37 39 65q8 8 42 34.5t40 31.5q45 33 45 69q0 33 -28 53.5t-73 20.5q-47 0 -76.5 -21t-35.5 -57l-178 17q15 103 99 163t208 60zM625 1044
q243 0 387 -153q145 -151 145 -379v-78h-772q4 -105 83.5 -167.5t193.5 -67.5q153 0 253 100l160 -143q-185 -176 -440 -176q-144 -3 -271 69.5t-202 196.5t-72 266q0 221 156 377q155 155 379 155zM631 829q-102 0 -172 -73q-72 -75 -72 -176h485q0 108 -66.5 178.5
t-174.5 70.5z" />
    <glyph glyph-name="Etilde" unicode="&#x1ebc;" horiz-adv-x="1415" 
d="M526 1878q44 7 84 -2t109 -39q113 -52 168 -55q73 -3 98 88l117 -12q10 -114 -33.5 -188.5t-126.5 -88.5q-46 -7 -85.5 2t-111.5 41q-85 37 -110 44t-57 7q-71 -6 -89 -88l-116 15q-12 114 30.5 187.5t122.5 88.5zM1313 1434v-293h-819v-277h761v-278h-761v-293h833v-293
h-1159v1434h1145z" />
    <glyph glyph-name="etilde" unicode="&#x1ebd;" 
d="M414 1468q49 4 85 -4t107 -37q113 -52 168 -55q76 -3 98 88l117 -12q10 -114 -33.5 -188.5t-126.5 -88.5q-43 -7 -84 2t-112 41q-83 36 -110 44t-58 8q-68 -6 -86 -88l-119 14q-10 114 32 188t122 88zM625 1044q243 0 387 -153q145 -151 145 -379v-78h-772
q6 -106 84.5 -169t192.5 -66q153 0 253 100l160 -143q-185 -176 -440 -176q-144 -3 -271 69.5t-202 196.5t-72 266q0 221 156 377q155 155 379 155zM631 829q-102 0 -172 -73q-72 -75 -72 -176h485q0 108 -66.5 178.5t-174.5 70.5z" />
    <glyph glyph-name="Ecircumflexacute" unicode="&#x1ebe;" horiz-adv-x="1415" 
d="M1706 1999l-297 -344h-262l242 344h317zM897 1890l250 -346h-254l-156 189l-155 -189h-254l250 346h319zM1313 1434v-293h-819v-277h761v-278h-761v-293h833v-293h-1159v1434h1145z" />
    <glyph glyph-name="ecircumflexacute" unicode="&#x1ebf;" 
d="M1591 1589l-297 -344h-262l242 344h317zM782 1481l250 -346h-254l-155 188l-158 -188h-252l250 346h319zM625 1044q243 0 387 -153q145 -151 145 -379v-78h-772q3 -104 84 -170q76 -62 193 -65q153 0 253 100l160 -143q-185 -176 -440 -176q-227 0 -385 155
q-160 157 -160 377q0 221 156 377q155 155 379 155zM631 829q-102 0 -172 -73q-72 -75 -72 -176h485q0 108 -66.5 178.5t-174.5 70.5z" />
    <glyph glyph-name="Ecircumflexgrave" unicode="&#x1ec0;" horiz-adv-x="1415" 
d="M1241 1999l242 -344h-264l-295 344h317zM895 1890l252 -346h-254l-158 189l-155 -189h-254l249 346h320zM1313 1434v-293h-819v-277h761v-278h-761v-293h833v-293h-1159v1434h1145z" />
    <glyph glyph-name="ecircumflexgrave" unicode="&#x1ec1;" 
d="M1128 1589l240 -344h-262l-295 344h317zM782 1481l250 -346h-254l-155 188l-156 -188h-254l250 346h319zM625 1044q240 1 388.5 -152.5t143.5 -379.5v-78h-772q3 -104 84 -170q76 -62 193 -65q153 0 253 100l160 -143q-185 -176 -440 -176q-227 0 -385 155
q-160 157 -160 377q0 221 156 377q155 155 379 155zM631 829q-102 0 -172 -73q-72 -75 -72 -176h485q0 108 -66.5 178.5t-174.5 70.5z" />
    <glyph glyph-name="Ecircumflexhookabove" unicode="&#x1ec2;" horiz-adv-x="1415" 
d="M1327 2175q130 0 207.5 -60t77.5 -163q0 -57 -29.5 -99.5t-97.5 -95.5q-42 -29 -60 -50t-18 -52h-170q-3 50 6 84q6 21 19 39.5t23 28t38 31t41 32.5q45 36 45 69q0 35 -27.5 54.5t-72.5 19.5q-46 0 -75.5 -20.5t-35.5 -57.5l-180 19q17 102 100.5 161.5t208.5 59.5z
M948 1890l250 -346h-254l-156 189l-157 -189h-252l250 346h319zM1313 1434v-293h-819v-277h761v-278h-761v-293h833v-293h-1159v1434h1145z" />
    <glyph glyph-name="ecircumflexhookabove" unicode="&#x1ec3;" 
d="M1161 1765q130 0 207.5 -60t77.5 -163q0 -57 -29.5 -98.5t-97.5 -95.5q-30 -22 -43 -32.5t-23.5 -29t-11.5 -41.5h-170q-2 44 8 84q8 35 39 66q6 6 82 65q43 37 43 70q8 46 -48 64.5t-111 -3.5q-51 -22 -52 -65l-180 16q19 105 101 164t208 59zM782 1481l250 -346h-254
l-155 188l-156 -188h-254l250 346h319zM625 1044q243 0 387 -153q145 -151 145 -379v-78h-772q4 -105 83.5 -167.5t193.5 -67.5q153 0 253 100l160 -143q-185 -176 -440 -176q-144 -3 -271 69.5t-202 196.5t-72 266q0 221 156 377q155 155 379 155zM631 829q-102 0 -172 -73
q-72 -75 -72 -176h485q0 108 -66.5 178.5t-174.5 70.5z" />
    <glyph glyph-name="Ecircumflextilde" unicode="&#x1ec4;" horiz-adv-x="1415" 
d="M526 2245q44 7 83.5 -1.5t109.5 -39.5q117 -54 168 -54q73 -3 98 88l117 -14q10 -112 -34 -187t-126 -87q-46 -9 -88 1t-109 42q-94 39 -116.5 46.5t-50.5 4.5q-71 -6 -89 -88l-116 12q-10 116 31.5 189.5t121.5 87.5zM895 1890l250 -346h-254l-156 189l-157 -189h-252
l249 346h320zM1313 1434v-293h-819v-277h761v-278h-761v-293h833v-293h-1159v1434h1145z" />
    <glyph glyph-name="ecircumflextilde" unicode="&#x1ec5;" 
d="M414 1833q44 7 83 -1.5t109 -41.5q115 -53 168 -53q76 -3 98 88l117 -13q12 -115 -33.5 -189.5t-126.5 -86.5q-44 -7 -85.5 2t-110.5 41q-22 9 -49.5 20t-38 15.5t-24.5 9.5t-21 6t-15.5 1.5t-19.5 -1.5q-68 -6 -86 -88l-119 14q-10 114 32 188.5t122 88.5zM782 1481
l250 -346h-254l-155 188l-156 -188h-254l250 346h319zM625 1044q243 0 387 -153q145 -151 145 -379v-78h-772q3 -104 84 -170q76 -62 193 -65q153 0 253 100l160 -143q-185 -176 -440 -176q-227 0 -385 155q-160 157 -160 377q0 221 156 377q155 155 379 155zM631 829
q-102 0 -172 -73q-72 -75 -72 -176h485q0 108 -66.5 178.5t-174.5 70.5z" />
    <glyph glyph-name="Ecircumflexdotbelow" unicode="&#x1ec6;" horiz-adv-x="1415" 
d="M895 1890l250 -346h-254l-156 189l-157 -189h-252l249 346h320zM1313 1434v-293h-819v-277h761v-278h-761v-293h833v-293h-1159v1434h1145zM696 -266q37 37 92.5 37t92.5 -37t37 -91.5t-37 -91.5t-92.5 -37t-92.5 37t-37 91.5t37 91.5z" />
    <glyph glyph-name="ecircumflexdotbelow" unicode="&#x1ec7;" 
d="M782 1481l250 -346h-254l-155 188l-156 -188h-254l250 346h319zM625 1044q243 0 387 -153q145 -151 145 -379v-78h-772q3 -104 84 -170q76 -62 193 -65q153 0 253 100l160 -143q-185 -176 -440 -176q-227 0 -385 155q-160 157 -160 377q0 221 156 377q155 155 379 155z
M631 829q-102 0 -172 -73q-72 -75 -72 -176h485q0 108 -66.5 178.5t-174.5 70.5zM621 -229q54 0 90.5 -36.5t36.5 -90.5q3 -41 -20.5 -73t-58.5 -46t-74.5 -8.5t-66.5 34.5q-29 27 -35 66.5t8 74.5t46.5 58.5t73.5 20.5z" />
    <glyph glyph-name="Ihookabove" unicode="&#x1ec8;" horiz-adv-x="665" 
d="M336 2079q129 0 207 -60.5t78 -165.5q0 -54 -30 -96.5t-97 -95.5q-7 -6 -25 -20t-23.5 -19t-14.5 -16.5t-11.5 -23t-1.5 -26.5h-172q-3 45 8 86q11 38 39 66q10 10 82 66q45 33 45 69q6 45 -47 64t-109 -0.5t-57 -67.5l-180 16q19 104 101.5 164t207.5 60zM496 1434
v-1434h-326v1434h326z" />
    <glyph glyph-name="ihookabove" unicode="&#x1ec9;" horiz-adv-x="602" 
d="M309 1657q130 0 207.5 -60t77.5 -165q0 -54 -30 -97t-97 -96q-7 -7 -26 -21.5t-23 -19.5q-27 -27 -27 -63h-172q0 55 8 86q11 37 39 65q8 8 42 34.5t40 31.5q45 33 45 69q6 45 -47 64t-109 -0.5t-57 -67.5l-178 17q17 104 99.5 163.5t207.5 59.5zM461 1024v-1024h-305
v1024h305z" />
    <glyph glyph-name="Idotbelow" unicode="&#x1eca;" horiz-adv-x="665" 
d="M494 1434v-1434h-326v1434h326zM330 -485q-56 0 -92.5 36t-36.5 93q-4 40 20 71.5t59 45.5t75 8t67 -35q29 -27 35 -66.5t-8 -74t-46 -58t-73 -20.5z" />
    <glyph glyph-name="idotbelow" unicode="&#x1ecb;" horiz-adv-x="602" 
d="M195 1384q49 41 115.5 41t113.5 -41q50 -38 50 -95.5t-50 -98.5q-47 -41 -113.5 -41t-115.5 41q-47 41 -47 98.5t47 95.5zM463 1024v-1024h-305v1024h305zM309 -229q41 3 73 -20.5t46 -58.5t8 -74.5t-35 -66.5q-27 -29 -67 -34.5t-74.5 8.5t-58 46t-19.5 73q0 56 36 91.5
t91 35.5z" />
    <glyph glyph-name="Odotbelow" unicode="&#x1ecc;" horiz-adv-x="1777" 
d="M504 1356q174 98 383 98q206 0 382 -98t279 -269t103 -370q0 -200 -101.5 -370t-279.5 -269q-174 -98 -383 -98q-207 0 -383 97.5t-279 268.5q-102 170 -102 371q0 200 101.5 370t279.5 269zM887 1147q-182 0 -304 -124.5t-122 -305.5t122 -305.5t304 -124.5
q184 0 303 125q121 127 121 305t-121 305q-119 125 -303 125zM887 -485q-56 0 -92.5 36t-36.5 93q-4 40 20 71.5t59 45.5t75 8t67 -35q29 -27 35 -66.5t-8 -74t-46 -58t-73 -20.5z" />
    <glyph glyph-name="odotbelow" unicode="&#x1ecd;" horiz-adv-x="1333" 
d="M258 889q168 155 408 155q239 0 407 -155q170 -156 170 -377t-170 -377q-168 -155 -407 -155q-240 0 -408 155t-168 377t168 377zM858 705q-78 81 -194 81q-114 0 -195 -81q-80 -80 -80 -193q0 -112 80 -195q82 -79 195 -79q115 0 194 79q82 82 82 195q0 114 -82 193z
M668 -485q-55 0 -92 36.5t-37 92.5q-4 40 20 71.5t59 45.5t75 8t67 -35q29 -27 35 -66.5t-8 -74t-46 -58t-73 -20.5z" />
    <glyph glyph-name="Ohookabove" unicode="&#x1ece;" horiz-adv-x="1777" 
d="M899 2079q130 0 207.5 -60.5t77.5 -165.5q0 -54 -30 -96.5t-97 -95.5q-7 -6 -25 -20t-23.5 -19t-14.5 -16.5t-11.5 -23t-1.5 -26.5h-172q-3 45 8 86q11 38 39 66q10 10 82 66q45 33 45 69q0 33 -28.5 53.5t-73.5 20.5q-44 0 -74.5 -21.5t-36.5 -56.5l-178 16
q17 104 99.5 164t207.5 60zM504 1356q174 98 383 98q206 0 382 -98t279 -269t103 -370q0 -200 -101.5 -370t-279.5 -269q-174 -98 -383 -98q-207 0 -383 97.5t-279 268.5q-102 170 -102 371q0 200 101.5 370t279.5 269zM887 1147q-182 0 -304 -124.5t-122 -305.5
q0 -178 121 -305q122 -125 305 -125q184 0 303 125q121 127 121 305t-121 305q-119 125 -303 125z" />
    <glyph glyph-name="ohookabove" unicode="&#x1ecf;" horiz-adv-x="1333" 
d="M670 1657q130 0 207 -60t77 -165q0 -54 -30 -97t-97 -96q-8 -6 -25.5 -20t-22.5 -19t-14 -16t-11.5 -22.5t-1.5 -26.5h-172q-3 45 8 86q7 33 39 65q10 10 82 66q45 33 45 69q6 45 -47 64t-109 -0.5t-57 -67.5l-181 17q17 104 101 163.5t209 59.5zM258 889
q168 155 408 155q239 0 407 -155q170 -156 170 -377t-170 -377q-168 -155 -407 -155q-240 0 -408 155t-168 377t168 377zM858 705q-78 81 -194 81q-114 0 -195 -81q-80 -80 -80 -193q0 -112 80 -195q82 -79 195 -79q115 0 194 79q82 82 82 195q0 114 -82 193z" />
    <glyph glyph-name="Ocircumflexacute" unicode="&#x1ed0;" horiz-adv-x="1777" 
d="M1858 1999l-295 -344h-265l242 344h318zM1049 1890l249 -346h-254l-155 189l-156 -189h-254l250 346h320zM504 1356q174 98 383 98q206 0 382 -98t279 -269t103 -370q0 -200 -101.5 -370t-279.5 -269q-174 -98 -383 -98q-207 0 -383 97.5t-279 268.5q-102 170 -102 371
q0 200 101.5 370t279.5 269zM887 1147q-182 0 -304 -124.5t-122 -305.5t122 -305.5t304 -124.5q184 0 303 125q121 127 121 305t-121 305q-119 125 -303 125z" />
    <glyph glyph-name="ocircumflexacute" unicode="&#x1ed1;" horiz-adv-x="1333" 
d="M1636 1589l-297 -344h-262l242 344h317zM827 1481l250 -346h-254l-155 188l-156 -188h-254l250 346h319zM258 889q168 155 408 155q239 0 407 -155q170 -156 170 -377t-170 -377q-168 -155 -407 -155q-240 0 -408 155t-168 377t168 377zM666 238q112 0 193 81t81 193
q0 114 -82 193q-78 81 -194 81q-114 0 -195 -81q-80 -80 -80 -193q0 -112 80 -195q82 -79 197 -79z" />
    <glyph glyph-name="Ocircumflexgrave" unicode="&#x1ed2;" horiz-adv-x="1777" 
d="M1393 1999l241 -344h-264l-295 344h318zM1047 1890l251 -346h-254l-157 189l-156 -189h-254l250 346h320zM504 1356q174 98 383 98q206 0 382 -98t279 -269t103 -370q0 -200 -101.5 -370t-279.5 -269q-174 -98 -383 -98q-207 0 -383 97.5t-279 268.5q-102 170 -102 371
q0 200 101.5 370t279.5 269zM887 1147q-182 0 -304 -124.5t-122 -305.5t122 -305.5t304 -124.5q184 0 303 125q121 127 121 305t-121 305q-119 125 -303 125z" />
    <glyph glyph-name="ocircumflexgrave" unicode="&#x1ed3;" horiz-adv-x="1333" 
d="M1174 1589l239 -344h-262l-295 344h318zM827 1481l250 -346h-252l-157 188l-156 -188h-254l250 346h319zM258 889q168 155 408 155q239 0 407 -155q170 -156 170 -377t-170 -377q-168 -155 -407 -155q-240 0 -408 155t-168 377t168 377zM858 705q-78 81 -194 81
q-114 0 -195 -81q-80 -80 -80 -193q0 -112 80 -195q82 -79 195 -79q115 0 194 79q82 82 82 195q0 114 -82 193z" />
    <glyph glyph-name="Ocircumflexhookabove" unicode="&#x1ed4;" horiz-adv-x="1777" 
d="M1425 2175q130 0 207.5 -60t77.5 -163q0 -57 -29.5 -99.5t-97.5 -95.5q-42 -29 -60 -50t-18 -52h-170q-3 50 6 84q6 21 19 39.5t23 28t38 31t41 32.5q45 36 45 69q8 46 -48 64.5t-111 -3.5q-51 -22 -52 -65l-180 19q17 102 100.5 161.5t208.5 59.5zM1047 1890l249 -346
h-254l-155 189l-156 -189h-254l250 346h320zM504 1356q174 98 383 98q206 0 382 -98t279 -269t103 -370q0 -200 -101.5 -370t-279.5 -269q-174 -98 -383 -98q-207 0 -383 97.5t-279 268.5q-102 170 -102 371q0 200 101.5 370t279.5 269zM887 1147q-184 0 -303 -125
q-121 -127 -121 -305t121 -305q119 -125 303 -125t303 125q121 127 121 305q0 182 -120.5 306t-303.5 124z" />
    <glyph glyph-name="ocircumflexhookabove" unicode="&#x1ed5;" horiz-adv-x="1333" 
d="M1206 1765q130 0 207.5 -60t77.5 -163q0 -57 -29.5 -98.5t-97.5 -95.5q-41 -29 -59.5 -50.5t-18.5 -52.5h-170q-3 50 6 84q13 37 33 57q31 31 90 74q43 37 43 70q8 46 -48 64.5t-111 -3.5q-51 -22 -52 -65l-180 16q19 105 101 164t208 59zM827 1481l250 -346h-254
l-155 188l-156 -188h-254l250 346h319zM258 889q168 155 408 155q239 0 407 -155q170 -156 170 -377t-170 -377q-168 -155 -407 -155q-240 0 -408 155t-168 377t168 377zM858 705q-78 81 -194 81q-114 0 -195 -81q-80 -80 -80 -193q0 -112 80 -195q82 -79 195 -79
q115 0 194 79q82 82 82 195q0 114 -82 193z" />
    <glyph glyph-name="Ocircumflextilde" unicode="&#x1ed6;" horiz-adv-x="1777" 
d="M678 2245q44 7 83 -1.5t109 -39.5q115 -53 168 -56q75 -3 99 90l116 -14q10 -114 -33 -188t-126 -88q-45 -6 -87 4t-110 39q-13 5 -32 13t-27 11.5t-21 9t-18.5 7.5t-14.5 5t-13 4t-10.5 2t-11 1t-9.5 -0.5t-11 -1.5q-71 -3 -86 -86l-119 12q-10 116 32 189.5t122 87.5z
M1047 1890l249 -346h-254l-155 189l-156 -189h-254l250 346h320zM504 1356q174 98 383 98q206 0 382 -98t279 -269t103 -370q0 -200 -101.5 -370t-279.5 -269q-174 -98 -383 -98q-207 0 -383 97.5t-279 268.5q-102 170 -102 371q0 200 101.5 370t279.5 269zM887 287
q183 0 303.5 124t120.5 306q0 178 -121 305q-119 125 -303 125q-183 0 -305 -125q-121 -127 -121 -305t121 -305q122 -125 305 -125z" />
    <glyph glyph-name="ocircumflextilde" unicode="&#x1ed7;" horiz-adv-x="1333" 
d="M459 1831q44 7 83 -1.5t109 -39.5q115 -53 168 -53q74 -3 99 88l116 -15q10 -114 -33.5 -188t-126.5 -86q-44 -8 -84.5 1.5t-111.5 39.5q-114 49 -133 52q-15 3 -37 1q-68 -6 -86 -88l-117 12q-10 117 31 190t123 87zM827 1481l250 -346h-254l-155 188l-158 -188h-254
l252 346h319zM258 889q168 155 408 155q239 0 407 -155q170 -156 170 -377t-170 -377q-168 -155 -407 -155q-240 0 -408 155t-168 377t168 377zM858 705q-78 81 -194 81q-114 0 -195 -81q-80 -80 -80 -193q0 -112 80 -195q82 -79 195 -79q115 0 194 79q82 82 82 195
q0 114 -82 193z" />
    <glyph glyph-name="Ocircumflexdotbelow" unicode="&#x1ed8;" horiz-adv-x="1777" 
d="M1047 1890l249 -346h-254l-155 189l-156 -189h-254l250 346h320zM504 1356q174 98 383 98q206 0 382 -98t279 -269t103 -370q0 -200 -101.5 -370t-279.5 -269q-174 -98 -383 -98q-207 0 -383 97.5t-279 268.5q-102 170 -102 371q0 200 101.5 370t279.5 269zM887 287
q183 0 303.5 124t120.5 306q0 178 -121 305q-119 125 -303 125q-183 0 -305 -125q-121 -127 -121 -305t121 -305q122 -125 305 -125zM887 -229q54 0 91.5 -36.5t37.5 -90.5q3 -41 -21 -73t-58.5 -46t-74.5 -8.5t-67 34.5q-29 27 -35 66.5t7.5 74.5t46 58.5t73.5 20.5z" />
    <glyph glyph-name="ocircumflexdotbelow" unicode="&#x1ed9;" horiz-adv-x="1333" 
d="M827 1481l250 -346h-254l-155 188l-158 -188h-254l252 346h319zM258 889q168 155 408 155q239 0 407 -155q170 -156 170 -377t-170 -377q-168 -155 -407 -155q-240 0 -408 155t-168 377t168 377zM858 705q-78 81 -194 81q-114 0 -195 -81q-80 -80 -80 -193
q0 -112 80 -195q82 -79 195 -79q115 0 194 79q82 82 82 195q0 114 -82 193zM668 -485q-55 0 -92 36.5t-37 92.5q-4 40 20 71.5t59 45.5t75 8t67 -35q29 -27 35 -66.5t-8 -74t-46 -58t-73 -20.5z" />
    <glyph glyph-name="Ohornacute" unicode="&#x1eda;" horiz-adv-x="1777" 
d="M1300 1890l-294 -346h-263l240 346h317zM1522 1513h297v-71q0 -123 -78 -220t-197 -128q107 -174 107 -377q0 -200 -101.5 -370t-279.5 -269q-174 -98 -383 -98t-383 98q-178 99 -279.5 269t-101.5 370q-3 117 35.5 230t111 204.5t167.5 161t212 106.5t238 35
q150 0 284.5 -55.5t239.5 -155.5q50 19 80.5 62t30.5 96v112zM1190 1022q-119 125 -303 125q-183 0 -305 -125q-121 -127 -121 -305t121 -305q122 -125 305 -125q184 0 303 125q121 127 121 305t-121 305z" />
    <glyph glyph-name="ohornacute" unicode="&#x1edb;" horiz-adv-x="1333" 
d="M1112 1128h297v-71q0 -108 -59 -196t-156 -130q49 -104 49 -219q0 -221 -170 -377q-168 -155 -407 -155q-240 0 -408 155t-168 377t168 377t410 155q228 0 385 -151q59 47 59 125v110zM858 705q-78 81 -194 81q-114 0 -195 -81q-80 -80 -80 -193q0 -112 80 -195
q82 -79 195 -79q115 0 194 79q82 82 82 195q0 114 -82 193zM1081 1481l-295 -346h-262l240 346h317z" />
    <glyph glyph-name="Ohorngrave" unicode="&#x1edc;" horiz-adv-x="1777" 
d="M784 1890l240 -346h-262l-295 346h317zM1522 1513h297v-71q0 -123 -78 -220t-197 -128q107 -174 107 -377q0 -200 -101.5 -370t-279.5 -269q-174 -98 -383 -98t-383 98q-178 99 -279.5 269t-101.5 370q-3 117 35.5 230t111 204.5t167.5 161t212 106.5t238 35
q150 0 284.5 -55.5t239.5 -155.5q50 19 80.5 62t30.5 96v112zM1190 1022q-119 125 -303 125q-183 0 -305 -125q-121 -127 -121 -305t121 -305q122 -125 305 -125q184 0 303 125q121 127 121 305t-121 305z" />
    <glyph glyph-name="ohorngrave" unicode="&#x1edd;" horiz-adv-x="1333" 
d="M563 1481l242 -346h-262l-297 346h317zM1112 1128h297v-71q0 -108 -59 -196t-156 -130q49 -104 49 -219q0 -221 -170 -377q-168 -155 -407 -155q-240 0 -408 155t-168 377t168 377t410 155q228 0 385 -151q59 47 59 125v110zM858 705q-78 81 -194 81q-114 0 -195 -81
q-80 -80 -80 -193q0 -112 80 -195q82 -79 195 -79q115 0 194 79q82 82 82 195q0 114 -82 193z" />
    <glyph glyph-name="Ohornhookabove" unicode="&#x1ede;" horiz-adv-x="1777" 
d="M899 2079q130 0 207.5 -60.5t77.5 -165.5q0 -54 -30 -96.5t-97 -95.5q-7 -6 -25 -20t-23.5 -19t-14.5 -16.5t-11.5 -23t-1.5 -26.5h-172q-3 45 8 86q11 38 39 66q10 10 82 66q45 33 45 69q0 33 -28.5 53.5t-73.5 20.5q-44 0 -74.5 -21.5t-36.5 -56.5l-178 16
q17 104 99.5 164t207.5 60zM1522 1513h297v-71q0 -123 -77.5 -220t-197.5 -128q107 -174 107 -377q0 -200 -101.5 -370t-279.5 -269q-174 -98 -383 -98t-383 98q-178 99 -279.5 269t-101.5 370q-3 117 35.5 230t111 204.5t167.5 161t212 106.5t238 35q150 0 284.5 -55.5
t239.5 -155.5q50 19 80.5 62t30.5 96v112zM1190 1022q-119 125 -303 125q-183 0 -305 -125q-121 -127 -121 -305q0 -180 121 -307q122 -125 305 -125q184 0 303 125q121 127 121 307q0 178 -121 305z" />
    <glyph glyph-name="ohornhookabove" unicode="&#x1edf;" horiz-adv-x="1333" 
d="M670 1657q130 0 207 -60t77 -165q0 -54 -30 -97t-97 -96q-8 -6 -25.5 -20t-22.5 -19t-14 -16t-11.5 -22.5t-1.5 -26.5h-172q-3 45 8 86q7 33 39 65q10 10 82 66q45 33 45 69q6 45 -47 64t-109 -0.5t-57 -67.5l-181 17q17 104 101 163.5t209 59.5zM1112 1128h297v-71
q0 -106 -60 -196t-155 -130q49 -104 49 -219q0 -221 -170 -377q-168 -155 -405 -155q-154 -3 -288.5 69.5t-213.5 196.5t-76 266q0 222 168 377t410 155q228 0 385 -151q59 47 59 123v112zM666 786q-113 0 -195 -80.5t-82 -193.5q0 -112 80 -195q82 -79 195 -79
q115 0 194 79q82 82 82 195q0 114 -82 193q-78 81 -192 81z" />
    <glyph glyph-name="Ohorntilde" unicode="&#x1ee0;" horiz-adv-x="1777" 
d="M678 1878q44 7 83 -1.5t109 -39.5q113 -52 168 -55q74 -3 99 88l116 -12q10 -114 -33.5 -188.5t-125.5 -88.5q-46 -7 -85.5 2t-111.5 41q-85 36 -110 43.5t-58 7.5q-71 -6 -86 -88l-119 15q-9 116 32.5 188.5t121.5 87.5zM1522 1513h297v-71q0 -123 -78 -220t-197 -128
q107 -174 107 -377q0 -200 -101.5 -370t-279.5 -269q-174 -98 -383 -98t-383 98q-178 99 -279.5 269t-101.5 370q-3 117 35.5 230t111 204.5t167.5 161t212 106.5t238 35q150 0 284.5 -55.5t239.5 -155.5q50 19 80.5 62t30.5 96v112zM1190 1022q-119 125 -303 125
q-183 0 -305 -125q-121 -127 -121 -305t121 -305q122 -125 305 -125q184 0 303 125q121 127 121 305t-121 305z" />
    <glyph glyph-name="ohorntilde" unicode="&#x1ee1;" horiz-adv-x="1333" 
d="M459 1468q45 7 82.5 -2t109.5 -39q113 -52 168 -55q74 -3 99 88l116 -12q10 -114 -33.5 -188.5t-126.5 -88.5q-46 -7 -85 2t-111 41q-88 38 -112 45t-58 7q-68 -6 -86 -88l-117 14q-10 115 31 188.5t123 87.5zM1112 1128h297v-71q0 -108 -59 -196t-156 -130
q49 -104 49 -219q0 -221 -170 -377q-168 -155 -407 -155q-240 0 -408 155t-168 377t168 377t410 155q228 0 385 -151q59 47 59 125v110zM858 705q-78 81 -194 81q-114 0 -195 -81q-80 -80 -80 -193q0 -112 80 -195q82 -79 195 -79q115 0 194 79q82 82 82 195q0 114 -82 193z
" />
    <glyph glyph-name="Ohorndotbelow" unicode="&#x1ee2;" horiz-adv-x="1777" 
d="M1522 1513h297v-71q0 -123 -77.5 -220t-197.5 -128q107 -174 107 -377q0 -200 -101.5 -370t-279.5 -269q-174 -98 -383 -98t-383 98q-178 99 -279.5 269t-101.5 370q-3 117 35.5 230t111 204.5t167.5 161t212 106.5t238 35q150 0 284.5 -55.5t239.5 -155.5q50 19 80.5 62
t30.5 96v112zM1190 1022q-119 125 -303 125q-183 0 -305 -125q-121 -127 -121 -305q0 -180 121 -307q122 -125 305 -125q184 0 303 125q121 127 121 307q0 178 -121 305zM887 -229q41 3 73 -20.5t46 -58.5t8 -74.5t-35 -66.5q-27 -29 -67 -34.5t-75 8.5t-59 46t-20 73
q0 54 36 90.5t93 36.5z" />
    <glyph glyph-name="ohorndotbelow" unicode="&#x1ee3;" horiz-adv-x="1333" 
d="M1112 1128h297v-71q0 -108 -59 -196t-156 -130q49 -104 49 -219q0 -221 -170 -377q-168 -155 -407 -155q-240 0 -408 155t-168 377t168 377t410 155q228 0 385 -151q59 47 59 125v110zM858 705q-78 81 -194 81q-114 0 -195 -81q-80 -80 -80 -193q0 -112 80 -195
q82 -79 195 -79q115 0 194 79q82 82 82 195q0 114 -82 193zM575 -264q37 35 92.5 35t92.5 -35q37 -37 37 -92.5t-37 -92.5t-92.5 -37t-92.5 37t-37 92.5t37 92.5z" />
    <glyph glyph-name="Udotbelow" unicode="&#x1ee4;" horiz-adv-x="1624" 
d="M1141 1434h325v-781q0 -335 -172 -504t-477 -169q-311 0 -480 170.5t-169 502.5v781h326v-781q0 -189 85.5 -281.5t237.5 -92.5q155 0 239.5 94t84.5 280v781zM815 -229q57 0 93 -36.5t36 -90.5q3 -41 -21 -73t-58.5 -46t-74.5 -8.5t-67 34.5q-29 27 -35 66.5t7.5 74.5
t46 58.5t73.5 20.5z" />
    <glyph glyph-name="udotbelow" unicode="&#x1ee5;" horiz-adv-x="1302" 
d="M1186 1024v-1024h-303v123q-180 -143 -402 -143q-164 0 -264 92t-100 258v694h305v-602q0 -93 48.5 -145t133.5 -52q158 0 279 103v696h303zM657 -229q41 3 73 -20.5t46 -58.5t8.5 -74.5t-34.5 -66.5q-27 -29 -67.5 -34.5t-75.5 8.5t-59 46t-20 73q0 56 36 91.5t93 35.5z
" />
    <glyph glyph-name="Uhookabove" unicode="&#x1ee6;" horiz-adv-x="1624" 
d="M817 2079q128 0 206.5 -61t78.5 -165q0 -54 -30 -96.5t-97 -95.5q-50 -38 -62 -54q-14 -21 -14 -51h-172q-3 45 8 86q8 35 39 66q10 10 82 66q45 33 45 69q0 33 -28.5 53.5t-73.5 20.5q-44 0 -74.5 -21.5t-36.5 -56.5l-180 16q17 104 100.5 164t208.5 60zM1141 1434h325
v-781q0 -332 -169 -502.5t-480 -170.5t-480 170.5t-169 502.5v781h326v-781q0 -189 85.5 -281.5t237.5 -92.5q155 0 239.5 94t84.5 280v781z" />
    <glyph glyph-name="uhookabove" unicode="&#x1ee7;" horiz-adv-x="1302" 
d="M659 1657q130 0 206.5 -60t76.5 -165q0 -55 -29.5 -98t-95.5 -95q-6 -5 -19.5 -15.5t-17.5 -14t-13 -11.5t-12 -13t-7.5 -13.5t-6.5 -17t-2 -19.5h-170q-3 52 6 86q10 34 41 65q8 8 41.5 34.5t38.5 31.5q45 33 45 69q0 34 -27 54t-73 20q-45 0 -76 -21.5t-35 -56.5
l-180 17q15 103 99 163t210 60zM1186 1024v-1024h-303v123q-180 -143 -402 -143q-164 0 -264 92t-100 258v694h305v-602q0 -94 49 -145.5t133 -51.5q158 0 279 103v696h303z" />
    <glyph glyph-name="Uhornacute" unicode="&#x1ee8;" horiz-adv-x="1624" 
d="M1229 1890l-295 -346h-264l241 346h318zM1618 1513h268v-71q0 -160 -107 -251t-313 -104v-434q0 -335 -172 -504t-477 -169q-311 0 -480 170.5t-169 502.5v781h326v-781q0 -189 85.5 -281.5t237.5 -92.5q155 0 239.5 94t84.5 280v781h325v-203q65 7 108.5 56.5
t43.5 113.5v112z" />
    <glyph glyph-name="uhornacute" unicode="&#x1ee9;" horiz-adv-x="1265" 
d="M1311 1128h235v-71q0 -157 -86.5 -243.5t-273.5 -106.5v-707h-303v123q-180 -143 -402 -143q-164 0 -264 92t-100 258v694h305v-602q0 -93 48.5 -145t133.5 -52q158 0 279 103v696h303v-172q56 18 90.5 62.5t34.5 103.5v110zM1069 1481l-295 -346h-262l240 346h317z" />
    <glyph glyph-name="Uhorngrave" unicode="&#x1eea;" horiz-adv-x="1624" 
d="M711 1890l241 -346h-262l-297 346h318zM1618 1513h268v-71q0 -160 -107 -251t-313 -104v-434q0 -332 -169 -502.5t-480 -170.5t-480 170.5t-169 502.5v781h326v-781q0 -189 85.5 -281.5t237.5 -92.5q155 0 239.5 94t84.5 280v781h325v-203q65 7 108.5 56.5t43.5 113.5
v112z" />
    <glyph glyph-name="uhorngrave" unicode="&#x1eeb;" horiz-adv-x="1302" 
d="M1311 1128h235v-71q0 -157 -86.5 -243.5t-273.5 -106.5v-707h-303v123q-180 -143 -402 -143q-164 0 -264 92t-100 258v694h305v-602q0 -93 48.5 -145t133.5 -52q158 0 279 103v696h303v-172q56 18 90.5 62.5t34.5 103.5v110zM553 1481l240 -346h-263l-294 346h317z" />
    <glyph glyph-name="Uhornhookabove" unicode="&#x1eec;" horiz-adv-x="1624" 
d="M817 2079q128 0 206.5 -61t78.5 -165q0 -54 -30 -96.5t-97 -95.5q-50 -38 -62 -54q-14 -21 -14 -51h-172q-3 45 8 86q8 35 39 66q10 10 82 66q45 33 45 69q0 33 -28.5 53.5t-73.5 20.5q-44 0 -74.5 -21.5t-36.5 -56.5l-180 16q17 104 100.5 164t208.5 60zM1618 1513h268
v-71q0 -160 -107 -251t-313 -104v-434q0 -335 -172 -504t-477 -169q-311 0 -480 170.5t-169 502.5v781h326v-781q0 -189 85.5 -281.5t237.5 -92.5q155 0 239.5 94t84.5 280v781h325v-203q65 7 108.5 56.5t43.5 113.5v112z" />
    <glyph glyph-name="uhornhookabove" unicode="&#x1eed;" horiz-adv-x="1302" 
d="M659 1657q130 0 206.5 -60t76.5 -165q0 -55 -29.5 -98t-95.5 -95q-6 -5 -19.5 -15.5t-17.5 -14t-13 -11.5t-12 -13t-7.5 -13.5t-6.5 -17t-2 -19.5h-170q-3 52 6 86q10 34 41 65q8 8 41.5 34.5t38.5 31.5q45 33 45 69q0 34 -27 54t-73 20q-45 0 -76 -21.5t-35 -56.5
l-180 17q15 103 99 163t210 60zM1311 1128h235v-71q0 -157 -86.5 -243.5t-273.5 -106.5v-707h-303v123q-180 -143 -402 -143q-164 0 -264 92t-100 258v694h305v-602q0 -93 48.5 -145t133.5 -52q158 0 279 103v696h303v-172q56 17 90.5 62t34.5 102v112z" />
    <glyph glyph-name="Uhorntilde" unicode="&#x1eee;" horiz-adv-x="1624" 
d="M604 1878q46 7 85.5 -1.5t109.5 -39.5q113 -52 168 -55q73 -3 98 88l117 -12q10 -114 -33.5 -188.5t-126.5 -88.5q-46 -7 -85.5 2t-111.5 41q-86 37 -110.5 44t-59.5 7q-68 -6 -86 -88l-116 15q-12 114 30.5 187t120.5 89zM1618 1513h268v-71q0 -160 -106.5 -250
t-313.5 -105v-434q0 -332 -169 -502.5t-480 -170.5t-480 170.5t-169 502.5v781h326v-781q0 -189 85.5 -281.5t237.5 -92.5q155 0 239.5 94t84.5 280v781h325v-203q65 7 108.5 56.5t43.5 113.5v112z" />
    <glyph glyph-name="uhorntilde" unicode="&#x1eef;" horiz-adv-x="1302" 
d="M446 1468q44 7 83.5 -1.5t109.5 -39.5q113 -52 168 -55q73 -3 98 88l117 -12q12 -113 -33.5 -189t-126.5 -88q-46 -9 -87 1t-109 42q-86 37 -111 44.5t-57 7.5q-71 -6 -86 -88l-119 14q-10 115 31.5 188.5t121.5 87.5zM1311 1128h235v-71q0 -157 -86.5 -243.5
t-273.5 -106.5v-707h-303v123q-180 -143 -402 -143q-160 0 -262 90t-102 260v694h305v-602q0 -93 48.5 -145t133.5 -52q158 0 279 103v696h303v-172q56 18 90.5 62.5t34.5 103.5v110z" />
    <glyph glyph-name="Uhorndotbelow" unicode="&#x1ef0;" horiz-adv-x="1624" 
d="M1618 1513h268v-71q0 -160 -106.5 -250t-313.5 -105v-434q0 -332 -169 -502.5t-480 -170.5t-480 170.5t-169 502.5v781h326v-781q0 -189 85.5 -281.5t237.5 -92.5q155 0 239.5 94t84.5 280v781h325v-203q65 7 108.5 56.5t43.5 113.5v112zM815 -485q-55 0 -92 36.5
t-37 92.5q-4 40 20 71.5t59 45.5t75 8t67 -35q29 -27 35 -66.5t-8 -74t-46 -58t-73 -20.5z" />
    <glyph glyph-name="uhorndotbelow" unicode="&#x1ef1;" horiz-adv-x="1302" 
d="M1311 1128h235v-71q0 -157 -86.5 -243.5t-273.5 -106.5v-707h-303v123q-180 -143 -402 -143q-164 0 -264 92t-100 258v694h305v-602q0 -93 48.5 -145t133.5 -52q158 0 279 103v696h303v-172q56 18 90.5 62.5t34.5 103.5v110zM565 -266q37 37 92.5 37t92.5 -37t37 -91.5
t-37 -91.5t-92.5 -37t-92.5 37t-37 91.5t37 91.5z" />
    <glyph glyph-name="Ygrave" unicode="&#x1ef2;" horiz-adv-x="1607" 
d="M698 1890l242 -346h-264l-295 346h317zM1546 1434l-581 -932v-502h-326v496l-582 938h389l357 -588l358 588h385z" />
    <glyph glyph-name="ygrave" unicode="&#x1ef3;" horiz-adv-x="1228" 
d="M530 1481l240 -346h-262l-295 346h317zM375 1024l260 -676l246 676h315l-438 -1120q-127 -324 -420 -324q-128 -3 -307 66l84 198q119 -46 192 -37q112 6 180 136l13 26l-447 1055h322z" />
    <glyph glyph-name="Ydotbelow" unicode="&#x1ef4;" horiz-adv-x="1607" 
d="M1546 1434l-581 -932v-502h-326v496l-582 938h389l357 -588l358 588h385zM801 -485q-56 0 -91.5 36t-35.5 93q-3 40 20.5 71.5t58 45.5t74 8t66.5 -35q29 -27 35 -66.5t-8 -74t-46 -58t-73 -20.5z" />
    <glyph glyph-name="ydotbelow" unicode="&#x1ef5;" horiz-adv-x="1228" 
d="M375 1024l260 -676l246 676h315l-438 -1120q-127 -324 -420 -324q-128 -3 -307 66l84 198q119 -46 192 -37q112 6 180 136l13 26l-447 1055h322zM956 -485q-56 0 -92.5 36t-36.5 93q-4 40 20 71.5t59 45.5t75.5 8t67.5 -35q29 -27 34.5 -66.5t-8.5 -74t-46 -58t-73 -20.5
z" />
    <glyph glyph-name="Yhookabove" unicode="&#x1ef6;" horiz-adv-x="1607" 
d="M805 2079q129 0 205.5 -60.5t76.5 -165.5q0 -55 -29 -97.5t-95 -94.5q-51 -39 -63 -55q-14 -20 -15 -50h-170q-3 52 6 86q11 36 41 66q8 8 41.5 34.5t38.5 31.5q45 33 45 69q0 34 -27.5 54t-73.5 20q-47 0 -76 -21t-34 -57l-180 16q15 103 99 163.5t210 60.5zM1546 1434
l-581 -932v-502h-326v496l-582 938h389l357 -588l358 588h385z" />
    <glyph glyph-name="yhookabove" unicode="&#x1ef7;" horiz-adv-x="1228" 
d="M635 1657q130 0 207.5 -60t77.5 -165q0 -54 -30 -97t-97 -96q-41 -28 -58.5 -49.5t-17.5 -54.5h-172q0 55 8 86q11 37 39 65q8 8 42 34.5t40 31.5q45 33 45 69q6 45 -47 64t-109 -0.5t-57 -67.5l-178 17q17 104 99.5 163.5t207.5 59.5zM375 1024l260 -676l246 676h315
l-438 -1120q-127 -324 -420 -324q-128 -3 -307 66l84 198q119 -46 192 -37q112 6 180 136l13 26l-447 1055h322z" />
    <glyph glyph-name="Ytilde" unicode="&#x1ef8;" horiz-adv-x="1607" 
d="M592 1878q44 7 84 -1.5t108 -39.5q116 -52 168 -55q76 -3 101 88l116 -12q10 -114 -34 -188.5t-125 -88.5q-45 -7 -84 2t-115 41q-54 26 -87 37.5t-43.5 12.5t-37.5 1q-68 -6 -86 -88l-117 15q-12 114 31 187t121 89zM1546 1434l-581 -932v-502h-326v496l-582 938h389
l357 -588l358 588h385z" />
    <glyph glyph-name="ytilde" unicode="&#x1ef9;" horiz-adv-x="1228" 
d="M424 1468q44 7 83 -1.5t109 -39.5q113 -52 168 -55q77 -3 99 88l116 -12q10 -114 -33.5 -188.5t-125.5 -88.5q-43 -7 -84.5 2t-112.5 41q-83 36 -110 44t-58 8q-71 -6 -86 -88l-119 14q-10 114 32 188t122 88zM375 1024l260 -676l246 676h315l-438 -1120
q-127 -324 -420 -324q-128 -3 -307 66l84 198q119 -46 192 -37q112 6 180 136l13 26l-447 1055h322z" />
    <glyph glyph-name="endash" unicode="&#x2013;" horiz-adv-x="1073" 
d="M997 659v-256h-925v256h925z" />
    <glyph glyph-name="emdash" unicode="&#x2014;" horiz-adv-x="1419" 
d="M1343 651v-237h-1271v237h1271z" />
    <glyph glyph-name="quoteleft" unicode="&#x2018;" horiz-adv-x="471" 
d="M334 1638l90 -39l-115 -262q42 -17 66 -51t24 -76q0 -60 -47.5 -100.5t-115.5 -40.5q-69 0 -116.5 40.5t-47.5 100.5q0 42 24 76z" />
    <glyph glyph-name="quoteright" unicode="&#x2019;" horiz-adv-x="471" 
d="M236 1638q69 0 116 -40.5t47 -100.5q0 -40 -22 -76l-240 -352l-90 39l115 262q-41 17 -65.5 51.5t-24.5 75.5q0 60 48 100.5t116 40.5z" />
    <glyph glyph-name="quotesinglbase" unicode="&#x201a;" horiz-adv-x="471" 
d="M399 119q0 -39 -20 -72l-242 -356l-90 41l115 260q-42 19 -66 52.5t-24 74.5q0 60 48 100.5t116 40.5t115.5 -40.5t47.5 -100.5z" />
    <glyph glyph-name="quotedblleft" unicode="&#x201c;" horiz-adv-x="919" 
d="M334 1638l90 -39l-115 -262q41 -17 65.5 -51.5t24.5 -75.5q0 -60 -47.5 -100.5t-115.5 -40.5q-69 0 -116.5 40.5t-47.5 100.5q0 42 24 76zM782 1638l88 -39l-114 -262q42 -17 67 -51.5t25 -75.5q0 -60 -48.5 -100.5t-117.5 -40.5q-68 0 -116 40.5t-48 100.5q0 40 25 76z
" />
    <glyph glyph-name="quotedblright" unicode="&#x201d;" horiz-adv-x="919" 
d="M684 1638q68 0 116 -40.5t48 -100.5q0 -40 -25 -76l-239 -352l-88 39l114 262q-42 17 -67 51.5t-25 75.5q0 59 49 100t117 41zM399 1497q0 -40 -22 -76l-240 -352l-90 39l115 262q-41 17 -65.5 51.5t-24.5 75.5q0 60 48 100.5t116 40.5t115.5 -40.5t47.5 -100.5z" />
    <glyph glyph-name="quotedblbase" unicode="&#x201e;" horiz-adv-x="919" 
d="M684 260q68 0 116 -40.5t48 -100.5q0 -34 -23 -72l-241 -356l-88 41l114 260q-42 19 -67 52.5t-25 74.5q0 59 49 100t117 41zM399 119q0 -39 -20 -72l-242 -356l-90 41l115 260q-42 19 -66 52.5t-24 74.5q0 60 48 100.5t116 40.5t115.5 -40.5t47.5 -100.5z" />
    <glyph glyph-name="dagger" unicode="&#x2020;" horiz-adv-x="1128" 
d="M692 1454v-412h352v-231h-352v-1124h-256v1124h-352v231h352v412h256z" />
    <glyph glyph-name="daggerdbl" unicode="&#x2021;" horiz-adv-x="1128" 
d="M692 1454v-412h352v-231h-352v-481h352v-232h-352v-411h-256v411h-352v232h352v481h-352v231h352v412h256z" />
    <glyph glyph-name="bullet" unicode="&#x2022;" horiz-adv-x="790" 
d="M166 864q97 97 227 97q133 0 230 -97q94 -94 94 -227q0 -135 -94 -229q-95 -95 -230 -95q-132 0 -227 95q-94 94 -94 229q0 133 94 227z" />
    <glyph glyph-name="ellipsis" unicode="&#x2026;" horiz-adv-x="1599" 
d="M399 119q0 -58 -47.5 -100t-115.5 -42q-51 -2 -92 24.5t-59 64t-10.5 81t44.5 72.5q34 34 84.5 41t94 -9t74 -52t27.5 -80zM799 262q50 2 91 -24.5t59.5 -64.5t10.5 -82t-47 -73q-33 -32 -83.5 -38t-95 10t-75 51t-26.5 78q0 58 49 100.5t117 42.5zM1360 262
q69 0 117.5 -41.5t48.5 -101.5q0 -57 -49.5 -99.5t-116.5 -42.5t-115.5 42.5t-48.5 99.5q0 58 49 100.5t115 42.5z" />
    <glyph glyph-name="perthousand" unicode="&#x2030;" horiz-adv-x="2678" 
d="M1608 1468l-1100 -1503h-272l1099 1503h273zM778 1055q0 -182 -96.5 -290t-263.5 -108q-172 0 -266 107q-95 109 -95 291q0 179 95 288t264 109t265.5 -106.5t96.5 -290.5zM418 1266q-68 0 -109 -57.5t-41 -153.5t41.5 -153.5t108.5 -57.5q66 0 106.5 57.5t40.5 153.5
t-40.5 153.5t-106.5 57.5zM1163 668q95 108 264 108q173 0 267 -108q96 -110 96 -289t-96 -289q-93 -106 -267 -106q-171 0 -264 106q-96 110 -96 289t96 289zM2259 776q169 0 264 -108q96 -110 96 -289t-96 -289q-93 -106 -264 -106q-167 0 -264 107t-97 290
q0 181 96.5 288t264.5 107zM1536 535q-41 57 -107.5 57t-107.5 -57q-41 -59 -41 -156q0 -95 41 -154q41 -55 107.5 -55t107.5 55q41 59 41 154q0 97 -41 156zM2259 592q-67 0 -107.5 -58t-40.5 -153q0 -98 39.5 -154.5t108.5 -56.5q68 0 107.5 56t39.5 153q0 98 -39.5 155.5
t-107.5 57.5z" />
    <glyph glyph-name="guilsinglleft" unicode="&#x2039;" horiz-adv-x="710" 
d="M438 1004l226 -117l-271 -344l271 -344l-228 -115l-364 459z" />
    <glyph glyph-name="guilsinglright" unicode="&#x203a;" horiz-adv-x="710" 
d="M270 1004l367 -461l-365 -459l-227 115l270 344l-270 344z" />
    <glyph glyph-name="fraction" unicode="&#x2044;" horiz-adv-x="1359" 
d="M1249 1468l-946 -1503h-256l948 1503h254z" />
    <glyph glyph-name="zerosuperior" unicode="&#x2070;" horiz-adv-x="780" 
d="M139 1425q92 103 248 103q159 0 250 -105q94 -101 94 -270q0 -166 -94 -270q-92 -103 -250 -103q-156 0 -248 103q-92 106 -92 272q0 167 92 270zM252 1155q0 -97 37 -148t100 -51t99 51.5t36 147.5q0 95 -36.5 146t-100.5 51q-63 0 -99 -51t-36 -146z" />
    <glyph glyph-name="foursuperior" unicode="&#x2074;" horiz-adv-x="714" 
d="M584 1516v-426h100v-152h-100v-150h-195v150h-350l-23 145l349 433h219zM389 1317l-176 -227h176v227z" />
    <glyph glyph-name="fivesuperior" unicode="&#x2075;" horiz-adv-x="669" 
d="M594 1516v-144h-326l-2 -123q46 19 94 19q115 0 192 -61.5t77 -176.5q0 -113 -86 -184q-83 -68 -205 -68q-92 0 -176 36t-137 101l96 109q74 -86 182 -86q54 0 88.5 30t34.5 79q0 42 -32.5 68t-80.5 28q-76 0 -118 -51l-125 65l14 359h510z" />
    <glyph glyph-name="sixsuperior" unicode="&#x2076;" horiz-adv-x="690" 
d="M381 1528q142 0 252 -82l-86 -131q-71 53 -146 53q-62 0 -97.5 -42t-41.5 -118l-2 -6q58 49 152 49q110 0 177.5 -62t67.5 -155q0 -101 -79 -177.5t-209 -76.5q-76 0 -134 24t-92 60.5t-55.5 86.5t-29 95t-7.5 93q0 182 86 286t244 103zM369 1145q-50 0 -83.5 -25
t-39.5 -67q15 -129 123 -129q45 0 76.5 31.5t31.5 78.5t-31.5 79t-76.5 32z" />
    <glyph glyph-name="sevensuperior" unicode="&#x2077;" horiz-adv-x="612" 
d="M600 1516v-148l-330 -580h-227l322 558h-345v170h580z" />
    <glyph glyph-name="eightsuperior" unicode="&#x2078;" horiz-adv-x="714" 
d="M641 1329q0 -101 -98 -153q121 -59 121 -179q0 -88 -89 -153q-85 -64 -221 -64q-133 0 -221 64q-86 65 -86 153q0 120 121 179q-98 52 -98 153q0 83 82 141t202 58q121 0 203 -58q84 -60 84 -141zM248 1305q0 -38 30.5 -62t75.5 -24q47 0 78 23.5t31 62.5
q0 35 -32.5 60.5t-76.5 25.5t-75 -25.5t-31 -60.5zM354 1110q-47 0 -82.5 -25t-35.5 -69q0 -39 34 -66.5t84 -27.5q51 0 86 27.5t35 66.5q0 41 -33.5 67.5t-87.5 26.5z" />
    <glyph glyph-name="ninesuperior" unicode="&#x2079;" horiz-adv-x="690" 
d="M317 1528q77 0 136 -24t93 -60t55.5 -86.5t28.5 -95.5t7 -93q0 -180 -86.5 -284.5t-243.5 -104.5q-142 0 -252 84l86 129q68 -53 146 -53q61 0 97 42.5t42 119.5v4q-58 -49 -150 -49q-113 0 -180 62t-67 155q0 101 80 178q79 76 208 76zM319 1384q-47 0 -78.5 -31.5
t-31.5 -78.5t32.5 -79t77.5 -32q49 0 82 25t39 67q-15 129 -121 129z" />
    <glyph glyph-name="zeroinferior" unicode="&#x2080;" horiz-adv-x="780" 
d="M389 446q157 0 248 -102q94 -101 94 -270q0 -170 -94 -271q-91 -102 -250 -102q-155 0 -247.5 102.5t-92.5 270.5q0 167 92.5 269.5t249.5 102.5zM252 74q0 -96 37 -146.5t100 -50.5q62 0 98 51q37 49 37 146q0 95 -37 147q-36 51 -100 51q-63 0 -99 -51.5t-36 -146.5z
" />
    <glyph glyph-name="oneinferior" unicode="&#x2081;" horiz-adv-x="440" 
d="M373 440v-727h-201v547l-125 -27l-35 152l209 55h152z" />
    <glyph glyph-name="twoinferior" unicode="&#x2082;" horiz-adv-x="655" 
d="M330 451q110 0 194 -66q82 -64 82 -172q0 -61 -34 -113.5t-121 -124.5l-105 -98h272v-164h-591v146l309 247q36 32 49.5 51.5t13.5 43.5q0 33 -25.5 54t-60.5 21q-88 0 -163 -100l-130 109q47 77 129.5 120.5t180.5 45.5z" />
    <glyph glyph-name="threeinferior" unicode="&#x2083;" horiz-adv-x="673" 
d="M604 438v-139l-172 -158q13 0 37 -4q73 -19 115.5 -68t42.5 -116q0 -114 -83 -183t-214 -69q-161 0 -307 113l112 114q80 -65 170 -65q54 0 85.5 26t31.5 70q0 79 -105 76q-43 0 -108 -19l-31 103l182 155h-284v164h528z" />
    <glyph glyph-name="fourinferior" unicode="&#x2084;" horiz-adv-x="714" 
d="M584 440v-428h100v-151h-100v-148h-195v148h-350l-23 147l349 432h219zM389 242l-176 -230h176v230z" />
    <glyph glyph-name="fiveinferior" unicode="&#x2085;" horiz-adv-x="669" 
d="M594 436v-143h-326l-2 -123q41 20 94 20q119 0 194 -62.5t75 -174.5q0 -116 -86 -184q-83 -68 -205 -68q-91 0 -175 36t-138 99l96 109q75 -84 182 -84q55 0 89 28.5t34 77.5q0 43 -32.5 69.5t-80.5 26.5q-76 0 -118 -51l-125 68l14 356h510z" />
    <glyph glyph-name="sixinferior" unicode="&#x2086;" horiz-adv-x="690" 
d="M381 449q139 0 252 -84l-86 -129q-68 51 -146 51q-127 0 -139 -160l-2 -4q58 49 152 49q110 0 177.5 -62.5t67.5 -156.5q0 -100 -79 -176q-76 -76 -209 -76q-76 0 -134 23.5t-92 60t-55.5 86t-29 94t-7.5 92.5q0 182 86 287t244 105zM369 63q-50 0 -83.5 -24.5
t-39.5 -65.5q15 -129 123 -129q45 0 76.5 31t31.5 80q0 47 -31.5 77.5t-76.5 30.5z" />
    <glyph glyph-name="seveninferior" unicode="&#x2087;" horiz-adv-x="612" 
d="M600 440v-147l-330 -580h-227l322 555h-345v172h580z" />
    <glyph glyph-name="eightinferior" unicode="&#x2088;" horiz-adv-x="714" 
d="M354 449q121 0 203 -58q84 -60 84 -141q0 -101 -98 -156q121 -59 121 -176q0 -93 -88 -155t-222 -62q-133 0 -220 62t-87 155q0 117 121 176q-98 55 -98 156q0 82 83 140.5t201 58.5zM248 225q0 -38 30.5 -63t75.5 -25q47 0 78 24.5t31 63.5q0 35 -32.5 60.5t-76.5 25.5
t-75 -25.5t-31 -60.5zM354 31q-46 0 -82 -26t-36 -71q0 -38 34 -66t84 -28t85.5 28.5t35.5 65.5q0 43 -33.5 70t-87.5 27z" />
    <glyph glyph-name="nineinferior" unicode="&#x2089;" horiz-adv-x="690" 
d="M317 449q77 0 136 -24t93 -60t55.5 -86.5t28.5 -95.5t7 -93q0 -182 -86.5 -286t-243.5 -103q-145 0 -252 82l86 131q68 -53 146 -53q61 0 97 41.5t42 117.5v7q-59 -50 -150 -50q-113 0 -180 62.5t-67 155.5q0 101 80 177.5t208 76.5zM319 305q-47 0 -78.5 -31.5
t-31.5 -78.5t32.5 -79t77.5 -32q49 0 82 25t39 67q-15 129 -121 129z" />
    <glyph glyph-name="Euro" unicode="&#x20ac;" horiz-adv-x="1486" 
d="M1171 377l232 -144q-96 -118 -231.5 -185.5t-286.5 -67.5q-226 0 -406 143t-248 369h-165v155h137q-2 23 -2 70q0 46 2 69h-137v154h165q67 227 246 371q180 143 408 143q150 0 285 -67t233 -187l-232 -143q-105 114 -253 114q-107 0 -194.5 -62t-137.5 -169l389 2v-156
h-432q-9 -70 0 -139h432v-155h-387q47 -104 135 -167t195 -63q147 0 253 115z" />
    <glyph glyph-name="trademark" unicode="&#x2122;" horiz-adv-x="1867" 
d="M727 1434v-177h-238v-630h-206v630h-238v177h682zM1792 1434v-807h-201v512l-245 -414h-78l-246 414v-512h-203v807h258l230 -381l229 381h256z" />
    <glyph glyph-name="oneeighth" unicode="&#x215b;" horiz-adv-x="1492" 
d="M1249 1468l-946 -1503h-246l947 1503h245zM379 1434v-727h-203v548l-123 -28l-35 151l209 56h152zM1421 537q0 -101 -98 -156q123 -59 123 -176q0 -93 -88.5 -155t-222.5 -62q-133 0 -220.5 62t-87.5 155q0 117 121 176q-96 56 -96 156q0 83 82 141q80 57 201 57
q122 0 202 -57q84 -60 84 -141zM1028 512q-5 -54 51.5 -76.5t113 0t52.5 76.5q0 35 -32 60.5t-76 25.5t-76.5 -25.5t-32.5 -60.5zM1137 317q-48 0 -84.5 -25.5t-36.5 -70.5q0 -37 35.5 -65.5t85.5 -28.5t84 28t34 66q0 43 -32.5 69.5t-85.5 26.5z" />
    <glyph glyph-name="threeeighths" unicode="&#x215c;" horiz-adv-x="1630" 
d="M1389 1468l-947 -1503h-245l946 1503h246zM604 1434v-140l-172 -157q25 0 37 -2q73 -20 115.5 -70t42.5 -117q0 -112 -83.5 -182t-213.5 -70q-161 0 -307 113l110 117q83 -68 172 -68q55 2 86 27t31 71q0 76 -105 76q-47 0 -108 -18l-31 102l182 156h-284v162h528z
M1559 537q0 -100 -99 -156q123 -59 123 -176q0 -93 -88.5 -155t-222.5 -62q-133 0 -220 62t-87 155q0 117 120 176q-96 56 -96 156q0 83 82 141q80 57 201 57q123 0 203 -57q84 -60 84 -141zM1165 512q-6 -54 51.5 -76.5t114.5 0t51 76.5q0 35 -32 60.5t-76 25.5
t-76.5 -25.5t-32.5 -60.5zM1274 317q-48 0 -84.5 -25.5t-36.5 -70.5q0 -37 35.5 -65.5t85.5 -28.5t84.5 28t34.5 66q0 43 -32.5 69.5t-86.5 26.5z" />
    <glyph glyph-name="fiveeighths" unicode="&#x215d;" horiz-adv-x="1622" 
d="M1378 1468l-946 -1503h-246l947 1503h245zM594 1434v-144h-326l-2 -123q46 19 94 19q115 0 192 -61.5t77 -176.5q0 -113 -86 -184q-83 -68 -205 -68q-92 0 -176 36.5t-137 101.5l96 108q74 -86 182 -86q53 0 88 30t35 79q0 42 -32.5 68t-80.5 28q-76 0 -118 -51l-125 65
l14 359h510zM1548 537q0 -100 -96 -156q121 -59 121 -176q0 -92 -88 -156q-88 -61 -221 -61q-134 0 -222 62.5t-88 154.5q0 117 121 176q-96 56 -96 156q0 85 81.5 141.5t203.5 56.5t203 -56.5t81 -141.5zM1264 598q-44 0 -76.5 -25.5t-32.5 -60.5q0 -39 31 -63.5t78 -24.5
t77.5 25t30.5 63q0 34 -32 60t-76 26zM1264 317q-47 0 -83 -26t-36 -70q0 -38 34.5 -66t84.5 -28t84 28t34 66q0 43 -32 69.5t-86 26.5z" />
    <glyph glyph-name="seveneighths" unicode="&#x215e;" horiz-adv-x="1454" 
d="M1212 1468l-946 -1503h-246l947 1503h245zM606 1434v-148l-330 -579h-227l322 557h-344v170h579zM1382 537q0 -100 -96 -156q121 -59 121 -176q0 -92 -88 -156q-88 -61 -221 -61t-221 61q-89 65 -89 156q0 117 123 176q-98 55 -98 156q0 83 82 141q80 57 203 57
q122 0 203 -56.5t81 -141.5zM989 512q0 -38 31 -63t78 -25q46 0 77 24.5t31 63.5q0 35 -32 60.5t-76 25.5t-76.5 -25.5t-32.5 -60.5zM1098 317q-47 0 -83 -26t-36 -70q0 -38 34 -66t85 -28q50 0 85.5 28.5t35.5 65.5q0 42 -34 69t-87 27z" />
    <glyph glyph-name="partialdiff" unicode="&#x2202;" horiz-adv-x="1433" 
 />
    <glyph glyph-name="emptyset" unicode="&#x2205;" horiz-adv-x="1433" 
 />
    <glyph glyph-name="product" unicode="&#x220f;" horiz-adv-x="1433" 
 />
    <glyph glyph-name="summation" unicode="&#x2211;" horiz-adv-x="1433" 
 />
    <glyph glyph-name="minus" unicode="&#x2212;" horiz-adv-x="1169" 
d="M1094 721v-234h-1022v234h1022z" />
    <glyph glyph-name="radical" unicode="&#x221a;" horiz-adv-x="1433" 
 />
    <glyph glyph-name="infinity" unicode="&#x221e;" horiz-adv-x="1433" 
 />
    <glyph glyph-name="integral" unicode="&#x222b;" horiz-adv-x="1433" 
 />
    <glyph glyph-name="approxequal" unicode="&#x2248;" horiz-adv-x="1153" 
d="M305 979q58 10 110.5 -2.5t149.5 -56.5q5 -2 78 -33q39 -13 76 -31q47 -15 80 -8q50 0 86 32.5t51 90.5l149 -19q10 -148 -49.5 -243.5t-169.5 -112.5q-61 -10 -114 2.5t-150 56.5q-15 9 -45 19q-85 38 -123 49q-23 8 -63 4q-48 -2 -82.5 -35t-46.5 -90l-150 16
q-12 152 45 248t168 113zM305 487q58 10 110.5 -2.5t149.5 -56.5q35 -14 47 -20q74 -34 121 -48q30 -9 66 -6q100 3 137 125l149 -18q9 -148 -51 -245t-168 -112q-61 -10 -113.5 2.5t-150.5 57.5l-45 18q-85 38 -123 49q-25 8 -63 5q-48 -2 -82.5 -35t-46.5 -92l-150 18
q-12 152 45 247.5t168 112.5z" />
    <glyph glyph-name="notequal" unicode="&#x2260;" horiz-adv-x="1157" 
d="M1098 690h-336l-98 -205h434v-233h-545l-139 -291h-271l138 291h-224v233h336l96 205h-432v234h545l137 290h271l-138 -290h226v-234z" />
    <glyph glyph-name="lessequal" unicode="&#x2264;" horiz-adv-x="1167" 
d="M1094 1229v-279l-670 -235l670 -236v-278l-1022 389v250zM1094 94v-235h-1022v235h1022z" />
    <glyph glyph-name="greaterequal" unicode="&#x2265;" horiz-adv-x="1167" 
d="M72 1229l1022 -389v-250l-1022 -389v278l667 236l-667 235v279zM1094 94v-235h-1022v235h1022z" />
    <glyph glyph-name="lozenge" unicode="&#x25ca;" horiz-adv-x="1228" 
 />
    <glyph glyph-name="NULL" horiz-adv-x="0" 
 />
    <glyph glyph-name="CR" horiz-adv-x="681" 
 />
    <glyph glyph-name="A.sc" horiz-adv-x="1265" 
d="M811 1024l420 -1024h-338l-74 201h-377l-73 -201h-338l420 1024h360zM631 743l-129 -333h258z" />
    <glyph glyph-name="AE.sc" horiz-adv-x="1562" 
d="M451 1024h1046v-227h-565v-179h524v-200h-524v-191h575v-227h-876v201h-189l-73 -201h-338zM631 743l-129 -333h129v333z" />
    <glyph glyph-name="Aacute.sc" horiz-adv-x="1265" 
d="M1047 1481l-295 -346h-265l242 346h318zM811 1024l420 -1024h-338l-74 201h-377l-73 -201h-338l420 1024h360zM631 743l-129 -333h258z" />
    <glyph glyph-name="Abreve.sc" horiz-adv-x="1265" 
d="M813 1487l205 -2q-3 -142 -113 -236t-268 -94q-159 0 -268 92q-108 95 -111 238l203 2q1 -68 50.5 -108t125.5 -40t125.5 40t50.5 108zM811 1024l420 -1024h-338l-74 201h-377l-73 -201h-338l420 1024h360zM631 743l-129 -333h258z" />
    <glyph glyph-name="Acaron.sc" horiz-adv-x="1265" 
d="M1040 1481l-249 -346h-320l-250 346h254l156 -187l157 187h252zM811 1024l420 -1024h-338l-74 201h-377l-73 -201h-338l420 1024h360zM631 743l-129 -333h258z" />
    <glyph glyph-name="Acircumflex.sc" horiz-adv-x="1265" 
d="M793 1481l249 -346h-254l-155 188l-158 -188h-254l252 346h320zM811 1024l420 -1024h-338l-74 201h-377l-73 -201h-338l420 1024h360zM631 743l-129 -333h258z" />
    <glyph glyph-name="Acircumflexdotbelow.sc" horiz-adv-x="1265" 
d="M793 1481l249 -346h-254l-155 188l-158 -188h-254l252 346h320zM811 1024l420 -1024h-338l-74 201h-377l-73 -201h-338l420 1024h360zM631 743l-129 -333h258zM631 -229q53 0 91 -37t38 -90q0 -56 -37 -92.5t-92 -36.5q-57 0 -93 36t-36 93q0 54 37 90.5t92 36.5z" />
    <glyph glyph-name="Adieresis.sc" horiz-adv-x="1265" 
d="M328 1417q37 37 92 37t92 -37t37 -91t-37 -91t-92 -37t-92 37t-37 91t37 91zM844 1454q41 3 73 -20.5t46 -58t8 -74t-35 -66.5q-27 -29 -67 -35t-75 8t-59 45.5t-20 71.5q0 57 36 93t93 36zM811 1024l420 -1024h-338l-74 201h-377l-73 -201h-338l420 1024h360zM631 743
l-129 -333h258z" />
    <glyph glyph-name="Adieresismacron.sc" horiz-adv-x="1327" 
d="M1001 1726v-190h-677v190h677zM360 1417q37 37 91.5 37t91.5 -37t37 -91t-37 -91t-91.5 -37t-91.5 37t-37 91t37 91zM874 1454q56 0 93 -36t37 -93q0 -54 -37.5 -90.5t-92.5 -36.5t-92 36.5t-37 90.5q0 56 37.5 92.5t91.5 36.5zM844 1024l418 -1024h-338l-74 201h-377
l-74 -201h-338l420 1024h363zM662 743l-130 -333h261z" />
    <glyph glyph-name="Agrave.sc" horiz-adv-x="1265" 
d="M528 1481l242 -346h-264l-295 346h317zM811 1024l420 -1024h-338l-74 201h-377l-73 -201h-338l420 1024h360zM631 743l-129 -333h258z" />
    <glyph glyph-name="Amacron.sc" horiz-adv-x="1265" 
d="M811 1024l420 -1024h-338l-74 201h-377l-73 -201h-338l420 1024h360zM631 743l-129 -333h258zM969 1421v-190h-676v190h676z" />
    <glyph glyph-name="Aogonek.sc" horiz-adv-x="1327" 
d="M844 1024l418 -1024l-168 -2l-25 -33q-65 -90 -51 -151q6 -36 35 -58.5t71 -23.5q48 -3 93 20l38 -139q-82 -43 -190 -43q-87 0 -147 33t-80 90q-47 109 61 272l25 35l-74 201h-377l-74 -201h-338l420 1024h363zM662 743l-130 -333h261z" />
    <glyph glyph-name="Aring.sc" horiz-adv-x="1265" 
d="M440 1509q81 78 193 78t190 -78q80 -77 80 -188t-80 -188q-78 -78 -190 -78t-193 78q-80 77 -80 188t80 188zM721 1407q-37 37 -89 37t-89 -37q-35 -35 -35 -86t35 -88q37 -35 89 -35t89 35q37 37 37 88t-37 86zM811 1024l420 -1024h-338l-74 201h-377l-73 -201h-338
l420 1024h360zM631 743l-129 -333h258z" />
    <glyph glyph-name="Atilde.sc" horiz-adv-x="1265" 
d="M422 1468q44 7 84 -1.5t108 -39.5q116 -52 168 -55q76 -3 101 88l116 -12q10 -114 -34 -188.5t-125 -88.5q-46 -7 -85.5 2t-111.5 41q-90 38 -113 45t-57 7q-68 -6 -86 -88l-117 14q-12 116 30 187t122 89zM811 1024l420 -1024h-338l-74 201h-377l-73 -201h-338l420 1024
h360zM631 743l-129 -333h258z" />
    <glyph glyph-name="B.sc" horiz-adv-x="1118" 
d="M109 0v1024h553q166 0 261.5 -71t94.5 -195q0 -148 -135 -219q89 -34 134.5 -100.5t45.5 -149.5q0 -43 -11.5 -83t-39.5 -78t-70 -66t-106.5 -45t-145.5 -17h-581zM410 807v-195h178q129 0 129 99q0 96 -129 96h-178zM410 430v-213h208q68 0 102 30t34 77t-33 76.5
t-103 29.5h-208z" />
    <glyph glyph-name="Bdotbelow.sc" horiz-adv-x="1118" 
d="M109 0v1024h553q166 0 261.5 -71t94.5 -195q0 -148 -135 -219q89 -34 134.5 -100.5t45.5 -149.5q0 -43 -11.5 -83t-39.5 -78t-70 -66t-106.5 -45t-145.5 -17h-581zM410 807v-195h178q129 0 129 99q0 96 -129 96h-178zM410 430v-213h208q68 0 102 30t34 77t-33 76.5
t-103 29.5h-208zM539 -229q57 0 93 -36.5t36 -90.5q3 -41 -21 -73t-59 -46t-75 -8.5t-67 34.5q-29 27 -35 67t8 75t46.5 58.5t73.5 19.5z" />
    <glyph glyph-name="C.sc" horiz-adv-x="1146" 
d="M635 1044q141 0 266 -66t195 -169l-246 -139q-85 125 -213 125q-108 0 -182 -81.5t-74 -201.5t74 -203q74 -80 182 -80q128 0 213 125l246 -139q-70 -105 -195.5 -170t-265.5 -65q-228 0 -399 157q-166 159 -166 375q0 217 166 373q169 159 399 159z" />
    <glyph glyph-name="Cacute.sc" horiz-adv-x="1146" 
d="M1024 1481l-295 -346h-262l240 346h317zM635 1044q140 0 265.5 -65t195.5 -170l-246 -139q-85 125 -213 125q-108 0 -182 -81.5t-74 -201.5t74 -203q74 -80 182 -80q128 0 213 125l246 -139q-70 -105 -195.5 -170t-265.5 -65q-228 0 -399 157q-166 159 -166 375
q0 217 166 373q169 159 399 159z" />
    <glyph glyph-name="Ccaron.sc" horiz-adv-x="1146" 
d="M1020 1481l-250 -346h-319l-252 346h254l157 -187l156 187h254zM635 1044q140 0 265.5 -65t195.5 -170l-246 -139q-85 125 -213 125q-109 0 -182 -82q-74 -80 -74 -201q0 -120 74 -203q74 -80 182 -80q128 0 213 125l246 -139q-70 -105 -195.5 -170t-265.5 -65
q-228 0 -399 157q-166 159 -166 375q0 217 166 373q169 159 399 159z" />
    <glyph glyph-name="Ccedilla.sc" horiz-adv-x="1146" 
d="M635 1044q140 0 265.5 -65t195.5 -170l-246 -139q-85 125 -213 125q-108 0 -182 -81.5t-74 -201.5t74 -203q74 -80 182 -80q128 0 213 125l246 -139q-54 -81 -149 -140t-206 -81q-58 -10 -108 -10l-39 -74q41 3 72 -2q64 -14 103.5 -61.5t39.5 -114.5q0 -91 -70.5 -144
t-179.5 -53q-121 0 -221 53l41 109q60 -29 127 -29q55 0 86.5 29.5t34.5 71.5q0 36 -24.5 62t-63.5 26q-40 0 -70 -21l-37 35l62 127q-187 48 -304 188q-120 144 -120 326q0 217 166 373q169 159 399 159z" />
    <glyph glyph-name="Cdotaccent.sc" horiz-adv-x="1146" 
d="M518 1417q37 37 92 37t92 -37t37 -91t-37 -91t-92 -37t-92 37t-37 91t37 91zM635 1044q141 0 266 -66t195 -169l-246 -139q-85 125 -213 125q-108 0 -182 -81.5t-74 -201.5t74 -203q74 -80 182 -80q128 0 213 125l246 -139q-70 -105 -195.5 -170t-265.5 -65
q-228 0 -399 157q-166 159 -166 375q0 217 166 373q169 159 399 159z" />
    <glyph glyph-name="D.sc" horiz-adv-x="1202" 
d="M109 0v1024h454q231 0 398 -150q167 -148 167 -362q0 -213 -165 -362q-167 -150 -400 -150h-454zM555 786h-145v-548h145q113 0 190 77q78 78 78 197t-78 197q-77 77 -190 77z" />
    <glyph glyph-name="Dcaron.sc" horiz-adv-x="1202" 
d="M981 1481l-250 -346h-319l-252 346h254l157 -187l156 187h254zM109 0v1024h454q231 0 398 -150q167 -148 167 -362t-167 -362q-167 -150 -398 -150h-454zM555 786h-145v-548h145q113 0 190 77q78 78 78 197t-78 197q-77 77 -190 77z" />
    <glyph glyph-name="Dcircumflexbelow.sc" horiz-adv-x="1202" 
d="M109 0v1024h454q231 0 398 -150q167 -148 167 -362q0 -213 -165 -362q-167 -150 -400 -150h-454zM555 786h-145v-548h145q113 0 190 77q78 78 78 197t-78 197q-77 77 -190 77zM723 -139l250 -346h-254l-156 186l-155 -186h-254l249 346h320z" />
    <glyph glyph-name="Dcroat.sc" horiz-adv-x="1202" 
d="M111 602v422h454q231 0 398 -150q167 -148 167 -362q0 -213 -165 -362q-167 -150 -400 -150h-454v422h-119v180h119zM412 422v-184h145q114 0 191 77t77 197t-77 197t-191 77h-145v-184h198v-180h-198z" />
    <glyph glyph-name="Ddotbelow.sc" horiz-adv-x="1202" 
d="M109 0v1024h454q231 0 398 -150q167 -148 167 -362q0 -213 -165 -362q-167 -150 -400 -150h-454zM555 786h-145v-548h145q113 0 190 77q78 78 78 197t-78 197q-77 77 -190 77zM471 -266q37 37 92 37t92 -37t37 -91.5t-37 -91.5t-92 -37t-92 37t-37 91.5t37 91.5z" />
    <glyph glyph-name="Dlinebelow.sc" horiz-adv-x="1202" 
d="M109 0v1024h454q231 0 398 -150q167 -148 167 -362q0 -213 -165 -362q-167 -150 -400 -150h-454zM555 786h-145v-548h145q113 0 190 77q78 78 78 197t-78 197q-77 77 -190 77zM901 -203v-190h-676v190h676z" />
    <glyph glyph-name="E.sc" horiz-adv-x="1040" 
d="M975 1024v-227h-565v-179h524v-200h-524v-191h575v-227h-876v1024h866z" />
    <glyph glyph-name="Eacute.sc" horiz-adv-x="1040" 
d="M975 1024v-227h-565v-179h524v-200h-524v-191h575v-227h-876v1024h866zM952 1481l-295 -346h-262l240 346h317z" />
    <glyph glyph-name="Ecaron.sc" horiz-adv-x="1040" 
d="M948 1481l-250 -346h-319l-252 346h254l158 -187l155 187h254zM975 1024v-227h-565v-179h524v-200h-524v-191h575v-227h-876v1024h866z" />
    <glyph glyph-name="Ecircumflex.sc" horiz-adv-x="1040" 
d="M698 1481l250 -346h-252l-157 188l-156 -188h-254l250 346h319zM975 1024v-227h-565v-179h524v-200h-524v-191h575v-227h-876v1024h866z" />
    <glyph glyph-name="Ecircumflexdotbelow.sc" horiz-adv-x="1040" 
d="M698 1481l250 -346h-252l-157 188l-156 -188h-254l250 346h319zM975 1024v-227h-565v-179h524v-200h-524v-191h575v-227h-876v1024h866zM426 -266q37 37 92 37t92 -37t37 -91.5t-37 -91.5t-92 -37t-92 37t-37 91.5t37 91.5z" />
    <glyph glyph-name="Edieresis.sc" horiz-adv-x="1040" 
d="M236 1417q37 37 92 37t92 -37t37 -91t-37 -91t-92 -37t-92 37t-37 91t37 91zM752 1454q56 0 91.5 -36t35.5 -93q0 -54 -37 -90.5t-92 -36.5q-54 0 -90.5 36.5t-36.5 90.5q0 57 36 93t93 36zM975 1024v-227h-565v-179h524v-200h-524v-191h575v-227h-876v1024h866z" />
    <glyph glyph-name="Edotaccent.sc" horiz-adv-x="1040" 
d="M446 1417q37 37 92.5 37t92.5 -37t37 -91t-37 -91t-92.5 -37t-92.5 37t-37 91t37 91zM975 1024v-227h-565v-179h524v-200h-524v-191h575v-227h-876v1024h866z" />
    <glyph glyph-name="Edotbelow.sc" horiz-adv-x="1040" 
d="M975 1024v-227h-565v-179h524v-200h-524v-191h575v-227h-876v1024h866zM426 -266q37 37 92 37t92 -37t37 -91.5t-37 -91.5t-92 -37t-92 37t-37 91.5t37 91.5z" />
    <glyph glyph-name="Egrave.sc" horiz-adv-x="1040" 
d="M975 1024v-227h-565v-179h524v-200h-524v-191h575v-227h-876v1024h866zM436 1481l240 -346h-262l-295 346h317z" />
    <glyph glyph-name="Emacron.sc" horiz-adv-x="1040" 
d="M975 1024v-227h-565v-179h524v-200h-524v-191h575v-227h-876v1024h866zM877 1421v-190h-676v190h676z" />
    <glyph glyph-name="Eogonek.sc" horiz-adv-x="1040" 
d="M975 1024v-227h-565v-179h524v-200h-524v-191h575v-227h-145l-25 -33q-49 -76 -37 -131q6 -36 34.5 -58t70.5 -24q45 -3 94 19l39 -140q-84 -41 -191 -41q-90 0 -149 32.5t-78 90.5q-45 100 51 256l21 29h-561v1024h866z" />
    <glyph glyph-name="Eth.sc" horiz-adv-x="1202" 
d="M111 602v422h454q231 0 398 -150q167 -148 167 -362q0 -213 -165 -362q-167 -150 -400 -150h-454v422h-119v180h119zM412 422v-184h145q114 0 191 77t77 197t-77 197t-191 77h-145v-184h198v-180h-198z" />
    <glyph glyph-name="Etilde.sc" horiz-adv-x="1040" 
d="M330 1468q49 4 85 -4t107 -37q116 -52 168 -55q76 -3 98 88l119 -12q7 -115 -36.5 -189t-125.5 -88q-43 -7 -82 2t-114 41q-83 36 -110 44t-58 8q-68 -6 -86 -88l-119 14q-10 114 32 188t122 88zM975 1024v-227h-565v-179h524v-200h-524v-191h575v-227h-876v1024h866z
" />
    <glyph glyph-name="F.sc" horiz-adv-x="997" 
d="M942 1024v-231h-532v-207h485v-213h-485v-373h-301v1024h833z" />
    <glyph glyph-name="G.sc" horiz-adv-x="1210" 
d="M655 1044q118 -2 230.5 -44.5t191.5 -116.5l-184 -168q-110 84 -234 84q-120 0 -199 -80t-79 -207q0 -120 74 -203q74 -80 186 -80q103 0 186 56v123h-209v159h492v-422q-92 -76 -215 -120.5t-254 -44.5q-232 0 -403 157q-168 155 -168 375q-1 116 49 218t132 171
t188 107.5t216 35.5z" />
    <glyph glyph-name="Gbreve.sc" horiz-adv-x="1210" 
d="M801 1487l205 -2q-3 -142 -113 -236t-268 -94q-160 0 -269 92q-107 94 -110 238l203 2q1 -68 50.5 -108t125.5 -40t125.5 40t50.5 108zM655 1044q118 -2 230.5 -44.5t191.5 -116.5l-184 -168q-110 84 -234 84q-120 0 -199 -80t-79 -207q0 -120 74 -203q74 -80 186 -80
q103 0 186 56v123h-209v159h492v-422q-93 -77 -215.5 -121t-253.5 -44q-232 0 -403 157q-168 155 -168 375q-1 116 49 218t132 171t188 107.5t216 35.5z" />
    <glyph glyph-name="Gcaron.sc" horiz-adv-x="1210" 
d="M1028 1481l-250 -346h-319l-250 346h254l155 -187l158 187h252zM655 1044q118 -2 230.5 -44.5t191.5 -116.5l-184 -168q-110 84 -234 84q-120 0 -199 -80t-79 -207q0 -120 74 -203q74 -80 186 -80q103 0 186 56v123h-209v159h492v-422q-92 -76 -215 -120.5t-254 -44.5
q-232 0 -403 157q-168 155 -168 375q-1 116 49 218t132 171t188 107.5t216 35.5z" />
    <glyph glyph-name="Gcommaaccent.sc" horiz-adv-x="1210" 
d="M655 1044q118 -2 230.5 -44.5t191.5 -116.5l-184 -168q-110 84 -234 84q-120 0 -199 -80t-79 -207q0 -120 74 -203q74 -80 186 -80q103 0 186 56v123h-209v159h492v-422q-92 -76 -215 -120.5t-254 -44.5q-232 0 -403 157q-168 155 -168 375q-1 116 49 218t132 171
t188 107.5t216 35.5zM776 -244q0 -35 -20 -61l-213 -318l-78 35l102 234q-35 16 -57.5 45t-22.5 65q0 54 41.5 89.5t102.5 35.5t103 -37t42 -88z" />
    <glyph glyph-name="Gdotaccent.sc" horiz-adv-x="1210" 
d="M621 1454q41 3 72.5 -20.5t45 -58t7.5 -74t-35 -66.5q-25 -29 -65 -35t-75 8t-59 45.5t-20 71.5q0 57 36 93t93 36zM655 1044q118 -2 230.5 -44.5t191.5 -116.5l-184 -168q-110 84 -234 84q-120 0 -199 -80t-79 -207q0 -120 74 -203q74 -80 186 -80q103 0 186 56v123
h-209v159h492v-422q-92 -76 -215 -120.5t-254 -44.5q-232 0 -403 157q-168 155 -168 375q-1 116 49 218t132 171t188 107.5t216 35.5z" />
    <glyph glyph-name="H.sc" horiz-adv-x="1241" 
d="M1128 1024v-1024h-305v391h-409v-391h-305v1024h305v-383h409v383h305z" />
    <glyph glyph-name="Hbar.sc" horiz-adv-x="1241" 
d="M1241 909v-147h-111v-762h-305v391h-409v-391h-307v762h-109v147h109v115h307v-115h409v115h305v-115h111zM825 641v121h-409v-121h409z" />
    <glyph glyph-name="Hdotbelow.sc" horiz-adv-x="1241" 
d="M1128 1024v-1024h-305v391h-409v-391h-305v1024h305v-383h409v383h305zM621 -229q53 0 91 -37t38 -90q3 -41 -21 -73t-59 -46t-75 -8.5t-67 34.5q-29 27 -35 66.5t8 74.5t46.5 58.5t73.5 20.5z" />
    <glyph glyph-name="I.sc" horiz-adv-x="524" 
d="M414 1024v-1024h-305v1024h305z" />
    <glyph glyph-name="IJ.sc" horiz-adv-x="1484" 
d="M414 1024v-1024h-305v1024h305zM1069 1024h305v-608q0 -228 -107.5 -332t-320.5 -104q-296 0 -391 188l242 133q50 -65 133 -65q61 0 100 41.5t39 113.5v633z" />
    <glyph glyph-name="Iacute.sc" horiz-adv-x="524" 
d="M676 1481l-297 -346h-262l241 346h318zM414 1024v-1024h-305v1024h305z" />
    <glyph glyph-name="Icircumflex.sc" horiz-adv-x="524" 
d="M424 1481l252 -346h-254l-158 188l-155 -188h-254l249 346h320zM418 1024v-1024h-305v1024h305z" />
    <glyph glyph-name="Idieresis.sc" horiz-adv-x="524" 
d="M182 1325q0 -54 -37 -90.5t-92 -36.5t-92 36.5t-37 90.5q0 56 37 92.5t92 36.5q57 0 93 -36t36 -93zM385 1417q37 37 92 37t92 -37t37 -91t-37 -91t-92 -37t-92 37t-37 91t37 91zM418 1024v-1024h-305v1024h305z" />
    <glyph glyph-name="Idieresisacute.sc" horiz-adv-x="524" 
d="M680 1858l-297 -345h-262l241 345h318zM182 1280q0 -54 -37 -90.5t-92 -36.5t-92 36.5t-37 90.5q0 56 37 92.5t92 36.5q57 0 93 -36t36 -93zM477 1153q-57 0 -93 36.5t-36 90.5q-4 41 20 73t59 46t75 8t67 -35q29 -27 35 -66.5t-8 -74t-46 -58t-73 -20.5zM418 1024v-1024
h-305v1024h305z" />
    <glyph glyph-name="Idotaccent.sc" horiz-adv-x="524" 
d="M168 1417q37 37 92 37t92 -37t37 -91t-37 -91t-92 -37t-92 37q-35 37 -35 91t35 91zM414 1024v-1024h-305v1024h305z" />
    <glyph glyph-name="Igrave.sc" horiz-adv-x="524" 
d="M162 1481l241 -346h-264l-295 346h318zM418 1024v-1024h-305v1024h305z" />
    <glyph glyph-name="Imacron.sc" horiz-adv-x="524" 
d="M602 1421v-190h-676v190h676zM418 1024v-1024h-305v1024h305z" />
    <glyph glyph-name="Iogonek.sc" horiz-adv-x="524" 
d="M414 1024v-1026l-25 -33q-65 -90 -51 -151q6 -35 35.5 -57.5t70.5 -24.5q48 -3 93 20l38 -139q-82 -43 -190 -43q-87 0 -147 33t-80 90q-47 109 61 272l21 29l-131 6v1024h305z" />
    <glyph glyph-name="Itilde.sc" horiz-adv-x="524" 
d="M66 1468q44 7 84 -1.5t108 -39.5q116 -52 168 -55q75 -3 100 88l117 -12q9 -114 -35.5 -189.5t-124.5 -87.5q-45 -7 -83.5 2t-114.5 41q-54 26 -86.5 38t-44 13t-37.5 1q-32 -2 -55.5 -25t-30.5 -63l-117 14q-12 114 30 188t122 88zM428 1024v-1024h-305v1024h305z" />
    <glyph glyph-name="J.sc" horiz-adv-x="960" 
d="M543 1024h305v-608q0 -228 -107.5 -332t-320.5 -104q-139 0 -240 47t-149 141l241 133q50 -65 131 -65q63 0 101.5 41.5t38.5 113.5v633z" />
    <glyph glyph-name="K.sc" horiz-adv-x="1171" 
d="M1124 1024l-372 -422l385 -602h-373l-213 360l-137 -145v-215h-305v1024h305v-375l319 375h391z" />
    <glyph glyph-name="Kcommaaccent.sc" horiz-adv-x="1171" 
d="M1124 1024l-372 -422l385 -602h-373l-213 360l-137 -145v-215h-305v1024h305v-375l319 375h391zM739 -244q0 -34 -18 -61l-215 -318l-78 35l104 234q-36 15 -57.5 44.5t-21.5 65.5q0 54 41.5 89.5t101.5 35.5t101.5 -35.5t41.5 -89.5z" />
    <glyph glyph-name="L.sc" horiz-adv-x="968" 
d="M414 1024v-791h520v-233h-825v1024h305z" />
    <glyph glyph-name="Lacute.sc" horiz-adv-x="968" 
d="M414 1024v-791h520v-233h-825v1024h305zM903 1481l-295 -346h-262l240 346h317z" />
    <glyph glyph-name="Lcaron.sc" horiz-adv-x="968" 
d="M956 922q0 -38 -20 -64l-213 -317l-78 34l103 234q-36 18 -58 47.5t-22 65.5q0 51 41.5 86.5t101.5 35.5q61 0 103 -35.5t42 -86.5zM414 1024v-791h520v-233h-825v1024h305z" />
    <glyph glyph-name="Lcircumflexbelow.sc" horiz-adv-x="968" 
d="M414 1024v-791h520v-233h-825v1024h305zM670 -139l252 -346h-254l-158 186l-156 -186h-254l250 346h320z" />
    <glyph glyph-name="Lcommaaccent.sc" horiz-adv-x="968" 
d="M414 1024v-791h520v-233h-825v1024h305zM668 -244q0 -34 -21 -61l-213 -318l-80 35l105 234q-36 13 -58 43.5t-22 66.5q0 54 41.5 89.5t101.5 35.5q61 0 103.5 -36t42.5 -89z" />
    <glyph glyph-name="Ldot.sc" horiz-adv-x="968" 
d="M414 1024v-791h520v-233h-825v1024h305zM723 473q-69 0 -116.5 40.5t-47.5 100.5q-3 44 27.5 79.5t74.5 51t94 9t83 -38.5q39 -29 47 -72.5t-10.5 -81.5t-60 -64.5t-91.5 -23.5z" />
    <glyph glyph-name="Lslash.sc" horiz-adv-x="968" 
d="M416 233h520v-233h-825v397l-123 -61v252l123 61v375h305v-217l166 84v-252l-166 -86v-320z" />
    <glyph glyph-name="M.sc" horiz-adv-x="1517" 
d="M1407 1024v-1024h-303v590l-287 -484h-131l-287 484v-590h-301v1024h379l275 -457l274 457h381z" />
    <glyph glyph-name="Macute.sc" horiz-adv-x="1517" 
d="M1407 1024v-1024h-303v590l-287 -484h-131l-287 484v-590h-301v1024h379l275 -457l274 457h381zM1165 1481l-295 -346h-262l240 346h317z" />
    <glyph glyph-name="N.sc" horiz-adv-x="1220" 
d="M1118 1024v-1024h-315l-404 537v-537h-301v1024h316l403 -537v537h301z" />
    <glyph glyph-name="Nacute.sc" horiz-adv-x="1220" 
d="M1118 1024v-1024h-315l-404 537v-537h-301v1024h316l403 -537v537h301zM1022 1481l-295 -346h-262l240 346h317z" />
    <glyph glyph-name="Ncaron.sc" horiz-adv-x="1220" 
d="M1118 1024v-1024h-315l-404 537v-537h-301v1024h316l403 -537v537h301zM1018 1481l-252 -346h-320l-249 346h254l155 -187l158 187h254z" />
    <glyph glyph-name="Ncircumflexbelow.sc" horiz-adv-x="1220" 
d="M1118 1024v-1024h-315l-404 537v-537h-301v1024h316l403 -537v537h301zM768 -139l250 -346h-254l-156 186l-157 -186h-252l250 346h319z" />
    <glyph glyph-name="Ncommaaccent.sc" horiz-adv-x="1220" 
d="M1118 1024v-1024h-315l-404 537v-537h-301v1024h316l403 -537v537h301zM764 -244q0 -32 -19 -61l-215 -318l-77 35l104 234q-36 15 -58 44.5t-22 65.5q0 54 41.5 89.5t102.5 35.5q60 0 101.5 -37t41.5 -88z" />
    <glyph glyph-name="Ndotaccent.sc" horiz-adv-x="1220" 
d="M516 1417q37 37 92 37t92 -37t37 -91t-37 -91t-92 -37t-92 37t-37 91t37 91zM1118 1024v-1024h-315l-404 537v-537h-301v1024h316l403 -537v537h301z" />
    <glyph glyph-name="Ndotbelow.sc" horiz-adv-x="1220" 
d="M1118 1024v-1024h-315l-404 537v-537h-301v1024h316l403 -537v537h301zM608 -229q54 0 91.5 -36.5t37.5 -90.5q3 -41 -21 -73t-58.5 -46t-74.5 -8.5t-67 34.5q-29 27 -35 66.5t7.5 74.5t46 58.5t73.5 20.5z" />
    <glyph glyph-name="Ntilde.sc" horiz-adv-x="1220" 
d="M399 1468q44 7 83.5 -1.5t109.5 -39.5q113 -52 168 -55q73 -3 98 88l117 -12q10 -114 -33.5 -188.5t-126.5 -88.5q-46 -9 -88 1t-109 42q-87 37 -111 44.5t-56 7.5q-71 -6 -89 -88l-116 14q-10 115 31.5 188.5t121.5 87.5zM1118 1024v-1024h-315l-404 537v-537h-301v1024
h316l403 -537v537h301z" />
    <glyph glyph-name="O.sc" horiz-adv-x="1269" 
d="M635 1044q231 0 399 -157q166 -156 166 -375t-166 -375q-168 -157 -399 -157q-228 0 -399 157q-166 156 -166 375q-3 103 42 202t122 172t183 116.5t218 41.5zM635 795q-109 0 -181.5 -81.5t-72.5 -201.5q0 -122 72 -202.5t182 -80.5q112 0 184 80.5t72 202.5
q0 120 -73 201.5t-183 81.5z" />
    <glyph glyph-name="OE.sc" horiz-adv-x="1849" 
d="M635 1044q85 0 159.5 -34t125.5 -92v106h866v-227h-565v-179h524v-200h-524v-191h575v-227h-876v106q-51 -58 -125.5 -92t-159.5 -34q-228 0 -399 157q-166 156 -166 375q-3 103 42 202t122 172t183 116.5t218 41.5zM635 795q-109 0 -181.5 -81.5t-72.5 -201.5t72 -201
q71 -80 182 -80t182 80q74 80 74 201t-74 201q-70 82 -182 82z" />
    <glyph glyph-name="Oacute.sc" horiz-adv-x="1269" 
d="M1051 1481l-297 -346h-262l241 346h318zM635 1044q231 0 399 -157q166 -156 166 -375t-166 -375q-168 -157 -399 -157q-228 0 -399 157q-166 156 -166 375q-3 103 42 202t122 172t183 116.5t218 41.5zM635 795q-109 0 -181.5 -81.5t-72.5 -201.5q0 -122 72 -202.5
t182 -80.5q112 0 184 80.5t72 202.5q0 119 -73 201t-183 82z" />
    </font>
</defs>
</svg>
