<svg width="47" height="16" viewBox="0 0 47 16" fill="none" xmlns="http://www.w3.org/2000/svg">
<g clip-path="url(#clip0_506:1047)">
<path d="M15.2827 2.2373L12.6885 10.8305H14.6733L15.2827 8.62467H17.729L18.3876 10.8305H20.4755L17.8186 2.25986L15.2827 2.2373ZM15.5694 7.16767L16.0757 5.36333C16.1429 5.10621 16.2101 4.83105 16.2773 4.53333C16.3445 4.23561 16.4028 3.96045 16.461 3.70333H16.4924C16.5551 3.96045 16.6268 4.24012 16.6985 4.52882C16.7702 4.81751 16.8463 5.1017 16.9225 5.35882L17.4557 7.16316L15.5694 7.16767Z" fill="white"/>
<path d="M28.0072 8.39028C27.9131 8.03392 27.7607 7.6911 27.5591 7.38436C27.3933 7.11822 27.1469 6.90621 26.8602 6.78441V6.74833C27.2634 6.60398 27.6218 6.35137 27.8951 6.01757C28.2043 5.63415 28.3746 5.15599 28.3746 4.66431C28.3746 4.30344 28.3029 3.94709 28.164 3.61779C28.0296 3.32008 27.8279 3.05845 27.5681 2.85997C27.232 2.60285 26.8467 2.42693 26.4345 2.34122C25.9013 2.22845 25.3547 2.17432 24.8081 2.18334C24.2839 2.18334 23.8045 2.18334 23.3654 2.23747C22.9263 2.2916 22.55 2.30965 22.2363 2.36378V10.8442H24.145V7.43398H24.7185C25.0411 7.41142 25.3637 7.51517 25.6146 7.72267C25.8879 8.02941 26.0582 8.40832 26.1119 8.8143C26.2284 9.35109 26.3449 9.78413 26.448 10.1224C26.5107 10.3615 26.5958 10.5961 26.6944 10.8261H28.6703C28.5448 10.5059 28.4418 10.1811 28.3656 9.84728C28.267 9.38267 28.1416 8.89098 28.0072 8.39028ZM26.0447 5.70632C25.7132 5.94539 25.3144 6.06268 24.9112 6.04012H24.1719V3.68546C24.2749 3.65839 24.378 3.64486 24.4855 3.63584C24.6244 3.63584 24.8126 3.63584 25.0411 3.63584C25.413 3.61328 25.7848 3.71703 26.0895 3.93355C26.3449 4.15007 26.4838 4.47937 26.4614 4.81317C26.4748 5.16051 26.327 5.49431 26.0626 5.71534L26.0447 5.70632Z" fill="white"/>
<path d="M32.4838 2.2373L29.8896 10.8305H31.8655L32.4749 8.62467H34.9257L35.5843 10.8305H37.6722L35.0198 2.25986L32.4838 2.2373ZM32.7616 7.17218L33.2679 5.36784C33.3351 5.11072 33.4023 4.83556 33.4695 4.54235C33.5323 4.24463 33.595 3.96947 33.6532 3.70784C33.7204 3.96947 33.7876 4.24463 33.8593 4.53784C33.931 4.83105 34.0117 5.10621 34.0878 5.36784L34.621 7.17218H32.7616Z" fill="white"/>
<path d="M46.6012 4.38458C46.3637 3.86583 46.0008 3.41925 45.5483 3.08094C45.1137 2.76518 44.6208 2.53513 44.1011 2.40882C43.4245 2.24192 42.7301 2.16524 42.0356 2.17877C41.5517 2.17877 41.0857 2.17877 40.6422 2.2329C40.1986 2.28703 39.7998 2.31409 39.4414 2.37274V10.808C39.6744 10.8396 39.9701 10.8667 40.3375 10.8937C40.7049 10.9208 41.135 10.9343 41.6368 10.9343C42.403 10.9434 43.1647 10.8531 43.9084 10.6637C44.5222 10.5103 45.1002 10.2216 45.5975 9.82467C46.0322 9.44576 46.3772 8.97212 46.6012 8.43532C46.8745 7.77223 47.0134 7.05951 46.9999 6.34229C47.0134 5.67017 46.879 4.99805 46.6012 4.38458ZM44.1548 8.6744C43.5724 9.19315 42.8107 9.45478 42.0356 9.40516H41.6772C41.5696 9.40065 41.4666 9.39163 41.3635 9.36907V3.72599C41.4755 3.70344 41.592 3.68539 41.7085 3.67637C41.8833 3.65833 42.0625 3.64931 42.2372 3.64931C43.5993 3.50947 44.8135 4.50637 44.9524 5.87767C44.9703 6.04457 44.9703 6.21598 44.9524 6.38289C45.0106 7.2219 44.7194 8.0519 44.1548 8.66989V8.6744Z" fill="white"/>
<path d="M2.95294 14.1685L2.90365 14.3399C2.85437 14.4978 2.81405 14.6377 2.7782 14.791C2.7334 14.6061 2.67515 14.3805 2.61242 14.1775L2.21814 12.7837H1.96724L1.55056 14.1369C1.47439 14.3715 1.40718 14.588 1.36238 14.7504C1.32653 14.6016 1.28173 14.4347 1.23692 14.2633L0.847124 12.7837H0.569336L1.24589 15.2556H1.49231L1.94036 13.8573C2.01652 13.6182 2.07477 13.4333 2.11509 13.2754C2.15094 13.4423 2.20022 13.6272 2.26743 13.8528L2.66619 15.2737H2.90813L3.66981 12.7837H3.37858L2.95294 14.1685Z" fill="white"/>
<path d="M5.06799 14.8181V14.1685C5.06799 13.7174 4.83949 13.4558 4.40488 13.4558C4.20774 13.4558 4.01956 13.5054 3.8493 13.6047L3.80898 13.6317L3.90755 13.8528L3.95684 13.8167C4.08229 13.7355 4.23014 13.6949 4.378 13.6994C4.48553 13.6904 4.59306 13.7265 4.67371 13.7986C4.75436 13.8934 4.79468 14.0152 4.78124 14.137C4.44969 14.1054 4.11813 14.2001 3.85827 14.4076C3.65216 14.6151 3.65216 14.9489 3.85379 15.1519C3.95236 15.2511 4.08677 15.3098 4.23014 15.3098H4.27047C4.47209 15.3143 4.66923 15.2421 4.81708 15.1023V15.2782H5.08591V15.2196C5.07247 15.0842 5.06351 14.9534 5.06799 14.8181ZM4.7902 14.367V14.6783C4.79468 14.7053 4.79468 14.7369 4.7902 14.764C4.71403 14.9579 4.52137 15.0842 4.31527 15.0662C4.16294 15.0797 4.02852 14.9715 4.0106 14.8136V14.8091V14.7685C4.0106 14.6828 4.04196 14.6016 4.10469 14.5429C4.30183 14.4031 4.54378 14.3399 4.78572 14.367H4.7902Z" fill="white"/>
<path d="M5.88755 13.0906L5.60976 13.1898V13.483H5.30957V13.7221H5.60976V14.728C5.58736 14.8904 5.63216 15.0528 5.73073 15.1791C5.82034 15.2738 5.9458 15.3234 6.07573 15.3189C6.16534 15.3189 6.25495 15.3054 6.34007 15.2693H6.3804L6.34007 15.0393H6.28631C6.22358 15.0483 6.16534 15.0483 6.10261 15.0393C6.00404 15.0393 5.89203 15.0077 5.89203 14.7415V13.7176H6.4028V13.483H5.88755V13.0906Z" fill="white"/>
<path d="M7.38815 13.4468C6.90874 13.4558 6.52342 13.8528 6.53238 14.3354C6.53238 14.3625 6.53238 14.385 6.53686 14.4121C6.5055 14.8767 6.85049 15.2827 7.31198 15.3143C7.31646 15.3143 7.31646 15.3143 7.32094 15.3143H7.41951C7.62113 15.3233 7.81827 15.2872 8.00197 15.2015H8.04229L7.97509 14.976L7.92132 14.9985C7.78243 15.0617 7.62561 15.0932 7.47328 15.0887C7.1462 15.1113 6.86393 14.8632 6.84601 14.5339C6.84601 14.5023 6.84601 14.4707 6.84601 14.4392H8.14534V14.3986C8.14982 14.3625 8.14982 14.3219 8.14534 14.2858C8.19463 13.8753 7.9034 13.5009 7.49568 13.4513C7.45983 13.4468 7.42399 13.4468 7.38815 13.4468ZM6.83257 14.173C6.86841 13.8979 7.09692 13.6904 7.37023 13.6859C7.49568 13.6768 7.61665 13.7219 7.70626 13.8076C7.79139 13.9069 7.84067 14.0332 7.84515 14.164L6.83257 14.173Z" fill="white"/>
<path d="M9.20314 13.4469C9.01496 13.4469 8.84023 13.5416 8.73269 13.6995V13.483H8.46387V13.5416C8.46387 13.686 8.46387 13.8529 8.46387 14.0423V15.2738H8.74166V14.2904C8.73718 14.2408 8.73718 14.1867 8.74166 14.1371C8.7551 13.9115 8.93432 13.7266 9.15834 13.713C9.18074 13.7085 9.20762 13.7085 9.23003 13.713H9.29275V13.4424H9.24795C9.23451 13.4424 9.21658 13.4424 9.20314 13.4469Z" fill="white"/>
<path d="M12.3887 12.7837L11.8108 14.1821C11.7077 14.4482 11.6271 14.6331 11.5778 14.8136C11.515 14.6286 11.4389 14.4256 11.3448 14.1775L10.7892 12.7837H10.5069L10.3232 15.2556H10.601L10.6817 14.1369C10.6817 13.8843 10.7175 13.5956 10.7265 13.3295C10.7892 13.519 10.8699 13.7219 10.9684 13.9836L11.4747 15.2737H11.6584L12.1961 13.952C12.2991 13.7084 12.3843 13.5009 12.4515 13.3024C12.4515 13.5099 12.4515 13.7535 12.4873 13.9791L12.5724 15.2737H12.8502L12.68 12.7837H12.3887Z" fill="white"/>
<path d="M13.979 13.4468C13.4996 13.4558 13.1142 13.8528 13.1232 14.3354C13.1232 14.3625 13.1232 14.385 13.1277 14.4121C13.0918 14.8722 13.4368 15.2782 13.8938 15.3143C13.8983 15.3143 13.9073 15.3143 13.9118 15.3143H14.0058C14.2075 15.3233 14.4046 15.2872 14.5883 15.2015H14.6286L14.5525 14.976L14.4987 14.9985C14.3598 15.0617 14.203 15.0932 14.0507 15.0887C13.7236 15.1158 13.4413 14.8677 13.4144 14.5429C13.4099 14.4978 13.4144 14.4572 13.4189 14.4121H14.7138V14.3715C14.7182 14.3354 14.7182 14.2948 14.7138 14.2587C14.763 13.8618 14.4853 13.5009 14.091 13.4513C14.0551 13.4468 14.0148 13.4468 13.979 13.4468ZM13.4189 14.173C13.4548 13.8979 13.6833 13.6904 13.961 13.6859C14.0865 13.6768 14.2075 13.7219 14.2971 13.8076C14.3822 13.9069 14.4315 14.0332 14.4315 14.164L13.4189 14.173Z" fill="white"/>
<path d="M16.2824 14.8181V14.1685C16.2824 13.7174 16.0539 13.4558 15.6148 13.4558C15.4177 13.4558 15.2295 13.5054 15.0592 13.6047L15.0234 13.6317L15.122 13.8528L15.1712 13.8167C15.2967 13.7355 15.4445 13.6949 15.5924 13.6994C15.6999 13.6904 15.8075 13.7265 15.8881 13.7986C15.9688 13.8934 16.0091 14.0152 15.9956 14.1369C15.6641 14.1054 15.3325 14.2001 15.0727 14.4076C14.9651 14.5114 14.9069 14.6557 14.9114 14.8046C14.9114 15.0933 15.1399 15.3233 15.4266 15.3233C15.4311 15.3233 15.4311 15.3233 15.4356 15.3233H15.4849C15.6865 15.3278 15.8836 15.2511 16.027 15.1068L16.0494 15.2827H16.3093V15.215C16.2869 15.0842 16.2779 14.9489 16.2824 14.8181ZM16.0001 14.367V14.6783C16.0091 14.7053 16.0091 14.7369 16.0001 14.764C15.924 14.9579 15.7268 15.0797 15.5207 15.0662C15.3684 15.0797 15.2295 14.9669 15.2116 14.8136V14.7685C15.2071 14.6828 15.2429 14.6016 15.3057 14.5429C15.5028 14.4031 15.7447 14.3399 15.9867 14.367H16.0001Z" fill="white"/>
<path d="M17.2806 14.2273C17.0208 14.128 16.9446 14.0603 16.9446 13.9295C16.9446 13.7987 17.0342 13.6905 17.2403 13.6905C17.3568 13.6859 17.4688 13.7175 17.5674 13.7807L17.6122 13.8168L17.7242 13.5822L17.6884 13.5596C17.5629 13.483 17.4151 13.4424 17.2672 13.4469C16.9715 13.4108 16.7027 13.6228 16.6713 13.9205C16.6713 13.9295 16.6713 13.9431 16.6668 13.9521C16.6668 14.1731 16.8326 14.3445 17.1552 14.4618C17.4061 14.5565 17.4957 14.6468 17.4957 14.7956C17.4957 14.9445 17.3568 15.0663 17.1238 15.0663C16.9939 15.0618 16.864 15.0212 16.7519 14.9535L16.7071 14.9264L16.5996 15.161H16.6399C16.7878 15.2422 16.9536 15.2873 17.1193 15.2828C17.5091 15.2828 17.769 15.0708 17.769 14.755C17.769 14.4393 17.5226 14.3175 17.2806 14.2273Z" fill="white"/>
<path d="M19.6111 14.8091V13.4829H19.3289V14.5881C19.3289 14.6467 19.3199 14.7008 19.302 14.755C19.2169 14.9444 19.0287 15.0662 18.8226 15.0662C18.5403 15.0662 18.4014 14.8768 18.4014 14.4888V13.4829H18.1191V14.5159C18.1191 15.2602 18.6254 15.3098 18.7778 15.3098C18.9973 15.3143 19.2034 15.2241 19.3513 15.0617V15.2737H19.6246V15.2151C19.6156 15.1023 19.6111 14.9715 19.6111 14.8091Z" fill="white"/>
<path d="M20.8204 13.4469C20.6412 13.4559 20.4754 13.5461 20.3723 13.6995V13.483H20.1035V13.5416C20.1035 13.686 20.1035 13.8529 20.1035 14.0423V15.2738H20.3858V14.2904C20.3813 14.2408 20.3813 14.1867 20.3858 14.1371C20.3992 13.9115 20.5784 13.7266 20.8025 13.713C20.8249 13.7085 20.8518 13.7085 20.8742 13.713H20.9369V13.4424H20.8921C20.8697 13.4424 20.8428 13.4424 20.8204 13.4469Z" fill="white"/>
<path d="M21.3364 12.8651C21.2333 12.8651 21.1482 12.9463 21.1437 13.05C21.1393 13.1538 21.2199 13.235 21.323 13.2395H21.3274C21.435 13.2395 21.5246 13.1493 21.5246 13.041C21.5246 12.9327 21.435 12.8425 21.3274 12.8425L21.3364 12.8651Z" fill="white"/>
<path d="M21.4751 13.4829H21.1973V15.2692H21.4751V13.4829Z" fill="white"/>
<path d="M22.8283 13.4469C22.6087 13.4424 22.4026 13.5326 22.2548 13.695V13.483H21.9814V13.5417C21.9904 13.6725 21.9904 13.8078 21.9814 13.9386V15.2919H22.2592V14.1777C22.2548 14.1326 22.2548 14.0875 22.2592 14.0424C22.3309 13.8259 22.5325 13.6815 22.761 13.686C23.1419 13.686 23.2091 14.0198 23.2091 14.2183V15.2693H23.4914V14.2093C23.5362 13.8349 23.2718 13.4966 22.8999 13.4514C22.8775 13.4469 22.8507 13.4469 22.8283 13.4469Z" fill="white"/>
<path d="M25.2253 13.6861C25.0819 13.5282 24.8803 13.447 24.6697 13.456C24.1903 13.4786 23.814 13.8755 23.814 14.3582C23.814 14.3582 23.814 14.3852 23.814 14.3943C23.7871 14.8499 24.1365 15.2423 24.5936 15.2694C24.6025 15.2694 24.6115 15.2694 24.6204 15.2694C24.8355 15.2784 25.0461 15.1927 25.1984 15.0393V15.1295C25.1984 15.549 25.0013 15.7565 24.6025 15.7565C24.4278 15.761 24.253 15.7159 24.1007 15.6257L24.0514 15.5941L23.9484 15.8197L23.9842 15.8468C24.1634 15.955 24.3695 16.0091 24.5801 16.0001C24.8086 16.0091 25.0371 15.9325 25.2163 15.7881C25.4224 15.5716 25.521 15.2694 25.4807 14.9716V13.9702C25.4717 13.8214 25.4717 13.668 25.4807 13.5192V13.4605H25.2119L25.2253 13.6861ZM25.1805 14.0559C25.1895 14.1056 25.1895 14.1552 25.1805 14.2048V14.5386C25.176 14.5927 25.1671 14.6469 25.1536 14.701C25.073 14.913 24.8713 15.0528 24.6473 15.0483C24.3247 15.0483 24.0649 14.7867 24.0649 14.4619C24.0649 14.4394 24.0649 14.4168 24.0693 14.3943C24.0156 14.0605 24.2396 13.7492 24.5667 13.6951C24.6025 13.6906 24.6428 13.6861 24.6787 13.6861C24.9027 13.677 25.1043 13.8124 25.1805 14.0244V14.0559Z" fill="white"/>
<path d="M26.4434 13.0453H27.2633V15.2737H27.5411V13.0453H28.3565V12.8018H26.4434V13.0453Z" fill="white"/>
<path d="M29.2124 13.4468C28.733 13.4558 28.3476 13.8528 28.3566 14.3354C28.3566 14.3625 28.3566 14.385 28.3611 14.4121C28.3297 14.8767 28.6747 15.2827 29.1362 15.3143C29.1407 15.3143 29.1407 15.3143 29.1452 15.3143H29.2437C29.4453 15.3233 29.6425 15.2872 29.8262 15.2015H29.8665L29.7859 14.976L29.7366 14.9985C29.5977 15.0617 29.4409 15.0932 29.2885 15.0887C28.9615 15.1158 28.6747 14.8722 28.6478 14.5474C28.6433 14.5023 28.6433 14.4572 28.6523 14.4121H29.9516V14.3715C29.9561 14.3354 29.9561 14.2948 29.9516 14.2587C29.992 13.8528 29.7007 13.4919 29.302 13.4513C29.2706 13.4468 29.2437 13.4468 29.2124 13.4468ZM28.6523 14.173C28.6882 13.8979 28.9167 13.6904 29.1944 13.6859C29.3199 13.6768 29.4409 13.7219 29.5305 13.8076C29.6201 13.9069 29.6694 14.0332 29.6739 14.1685L28.6523 14.173Z" fill="white"/>
<path d="M31.1124 13.686C31.2513 13.686 31.3857 13.7175 31.5067 13.7807L31.5515 13.8032L31.659 13.5777L31.6232 13.5551C31.4708 13.4739 31.3006 13.4379 31.1258 13.4424C30.633 13.4063 30.2029 13.7762 30.1625 14.2724C30.1625 14.2859 30.1625 14.2949 30.1625 14.3085C30.1581 14.3355 30.1581 14.3626 30.1625 14.3897C30.1401 14.8678 30.5075 15.2693 30.9825 15.2918H31.0631C31.2513 15.2963 31.435 15.2557 31.6052 15.1791H31.6501L31.5694 14.949L31.5201 14.9716C31.3812 15.0392 31.2289 15.0708 31.0721 15.0663C30.736 15.0663 30.4582 14.7956 30.4448 14.4573C30.4448 14.4302 30.4448 14.4077 30.4448 14.3806C30.4179 14.0243 30.6823 13.713 31.0317 13.686C31.0362 13.686 31.0362 13.686 31.0407 13.686H31.1124Z" fill="white"/>
<path d="M32.7929 13.4468C32.6585 13.4468 32.5241 13.4829 32.4076 13.5505C32.3449 13.5866 32.2866 13.6317 32.2373 13.6859V12.6799H31.9551V15.2737H32.2373V14.1911C32.2284 14.1414 32.2284 14.0918 32.2373 14.0422C32.3135 13.8347 32.5062 13.6994 32.7257 13.6949C33.1066 13.6949 33.1738 14.0242 33.1738 14.2226V15.2737H33.456V14.2046C33.5008 13.8347 33.2455 13.5009 32.8781 13.4513C32.8512 13.4468 32.8198 13.4468 32.7929 13.4468Z" fill="white"/>
<path d="M34.7814 13.4469C34.5618 13.4424 34.3557 13.5326 34.2079 13.695V13.483H33.9346V13.5417C33.9346 13.668 33.9346 13.7762 33.9346 13.9386V15.2919H34.2168V14.1777C34.2079 14.1326 34.2079 14.0875 34.2168 14.0424C34.2885 13.8304 34.4857 13.6905 34.7052 13.6905C35.086 13.6905 35.1533 14.0243 35.1533 14.2228V15.2738H35.4355V14.2093C35.4803 13.8349 35.216 13.4966 34.8441 13.4514C34.8217 13.4469 34.8038 13.4469 34.7814 13.4469Z" fill="white"/>
<path d="M36.6813 13.4468C36.1884 13.4468 35.7852 13.8528 35.7852 14.3489V14.4076C35.7628 14.8812 36.1257 15.2827 36.5916 15.3098H36.6499C37.1293 15.3098 37.5281 14.9263 37.546 14.4437V14.358C37.5729 13.8888 37.2144 13.4829 36.7485 13.4558L36.6813 13.4468ZM37.2771 14.3805C37.304 14.7369 37.0442 15.0481 36.6902 15.0752C36.3407 15.0572 36.0764 14.7639 36.0898 14.4121C36.0316 14.0738 36.2601 13.7535 36.5961 13.6949C36.623 13.6904 36.6499 13.6859 36.6768 13.6859C37.0262 13.7039 37.2951 14.0061 37.2771 14.3625V14.3805Z" fill="white"/>
<path d="M38.1821 12.6799H37.9043V15.2737H38.1821V12.6799Z" fill="white"/>
<path d="M39.4375 13.4468C38.9446 13.4468 38.5414 13.8528 38.5414 14.3489V14.4076C38.5279 14.8812 38.8864 15.2782 39.3523 15.3098H39.4061C39.8855 15.3098 40.2843 14.9263 40.3022 14.4437V14.358C40.3246 13.8888 39.9662 13.4874 39.5002 13.4558L39.4375 13.4468ZM40.0334 14.3805C40.0603 14.7369 39.7959 15.0481 39.442 15.0752C39.097 15.0572 38.8326 14.7594 38.8461 14.4121C38.7923 14.0693 39.0208 13.749 39.3613 13.6949C39.3837 13.6904 39.4106 13.6904 39.433 13.6859C39.7825 13.7039 40.0513 14.0061 40.0334 14.3625V14.3805Z" fill="white"/>
<path d="M41.9278 13.6861C41.7845 13.5282 41.5828 13.447 41.3723 13.456C40.8929 13.4786 40.521 13.8755 40.521 14.3582V14.3943C40.4941 14.8544 40.8436 15.2468 41.3006 15.2739H41.3364C41.5515 15.2784 41.7621 15.1927 41.9144 15.0393V15.1295C41.9144 15.549 41.7128 15.7565 41.3185 15.7565C41.1438 15.761 40.969 15.7159 40.8167 15.6257L40.7674 15.5941L40.6599 15.8197L40.6957 15.8468C40.8749 15.955 41.081 16.0091 41.2916 16.0001C41.5246 16.0091 41.7486 15.9325 41.9323 15.7881C42.1339 15.5671 42.228 15.2694 42.1922 14.9716V13.9702C42.1832 13.8214 42.1832 13.668 42.1922 13.5192V13.4605H41.9234L41.9278 13.6861ZM41.8875 14.0559C41.8965 14.1056 41.8965 14.1552 41.8875 14.2048V14.5386C41.8875 14.5927 41.8786 14.6469 41.8606 14.701C41.7845 14.913 41.5784 15.0528 41.3543 15.0483C41.0318 15.0483 40.7719 14.7867 40.7719 14.4619C40.7719 14.4394 40.7719 14.4168 40.7764 14.3943C40.7226 14.0605 40.9466 13.7492 41.2737 13.6951C41.3095 13.6906 41.3454 13.6861 41.3812 13.6861C41.6053 13.677 41.8114 13.8124 41.8875 14.0244V14.0559Z" fill="white"/>
<path d="M42.8202 12.8651C42.7171 12.8651 42.632 12.9463 42.623 13.05C42.623 13.1538 42.7082 13.2395 42.8112 13.2395C42.9188 13.2395 43.0084 13.1493 43.0084 13.041C43.0084 12.9327 42.9188 12.8425 42.8112 12.8425L42.8202 12.8651Z" fill="white"/>
<path d="M42.9585 13.4829H42.6807V15.2692H42.9585V13.4829Z" fill="white"/>
<path d="M44.1596 13.4468C43.6802 13.4558 43.2949 13.8528 43.3039 14.3354C43.3039 14.3625 43.3039 14.385 43.3083 14.4121C43.2725 14.8722 43.6175 15.2782 44.0745 15.3143C44.079 15.3143 44.0879 15.3143 44.0924 15.3143H44.1865C44.3881 15.3233 44.5853 15.2872 44.769 15.2015H44.8093L44.7331 14.976L44.6838 14.9985C44.536 15.0662 44.3702 15.0932 44.2089 15.0887C43.8818 15.1068 43.6041 14.8587 43.5861 14.5294C43.5861 14.4978 43.5861 14.4707 43.5861 14.4392H44.881V14.3986C44.8855 14.3625 44.8855 14.3219 44.881 14.2858C44.9392 13.8888 44.6659 13.5144 44.2716 13.4558C44.2358 13.4513 44.1955 13.4468 44.1596 13.4468ZM43.6041 14.173C43.6399 13.9024 43.8684 13.6949 44.1417 13.6904C44.2672 13.6813 44.3881 13.7265 44.4777 13.8122C44.5629 13.9114 44.6122 14.0422 44.6166 14.173H43.6041Z" fill="white"/>
<path d="M45.7771 14.2273C45.5173 14.128 45.4456 14.0603 45.4456 13.9295C45.4456 13.7987 45.5352 13.6905 45.7368 13.6905C45.8533 13.6859 45.9653 13.7175 46.0639 13.7807L46.1132 13.8168L46.2252 13.5822L46.1893 13.5596C46.0639 13.483 45.916 13.4424 45.7682 13.4469C45.4725 13.4108 45.2036 13.6228 45.1723 13.9205C45.1723 13.9295 45.1723 13.9431 45.1678 13.9521C45.1678 14.1731 45.3291 14.3445 45.6517 14.4618C45.9026 14.5565 45.9922 14.6468 45.9922 14.7956C45.9922 14.9445 45.8578 15.0663 45.6248 15.0663C45.4949 15.0618 45.3649 15.0212 45.2529 14.9535L45.2036 14.9264L45.1006 15.161H45.1364C45.2843 15.2422 45.4501 15.2873 45.6158 15.2828C46.0056 15.2828 46.2655 15.0708 46.2655 14.755C46.2655 14.4393 46.0191 14.3175 45.7771 14.2273Z" fill="white"/>
<path d="M5.6633 5.98921e-06C2.54043 -0.00450486 0.00448641 2.53962 5.94885e-06 5.68368C-0.00447451 8.82775 2.5225 11.3809 5.64538 11.3854C8.76826 11.3899 11.3042 8.84579 11.3087 5.70173V5.69721C11.3132 2.55315 8.78618 0.00451684 5.6633 5.98921e-06ZM5.6633 10.3118C3.12737 10.3163 1.07084 8.24585 1.06635 5.6927C1.06187 3.13956 3.1184 1.06908 5.65434 1.06457C8.19028 1.06006 10.2468 3.13054 10.2513 5.68368V5.68819C10.2468 8.23682 8.19476 10.3073 5.6633 10.3118Z" fill="white"/>
<path d="M4.70892 3.55463C3.96965 3.15767 3.23933 2.68403 3.21693 2.70659C3.19453 2.72914 3.51712 3.69446 3.70978 4.43875C4.04133 5.45821 4.09958 5.96793 4.45353 6.46864C4.8971 7.18586 5.838 7.40239 6.54591 6.9513C6.57727 6.93326 6.60863 6.9107 6.64 6.88815C7.36583 6.19348 7.13733 5.43114 6.59967 4.87631C6.03066 4.35305 5.39443 3.90647 4.70892 3.55463Z" fill="white"/>
</g>
<defs>
<clipPath id="clip0_506:1047">
<rect width="47" height="16" fill="white"/>
</clipPath>
</defs>
</svg>
