<svg width="83" height="18" viewBox="0 0 83 18" fill="none" xmlns="http://www.w3.org/2000/svg">
<g clip-path="url(#clip0_463:1759)">
<path d="M78.3617 17.1615C78.4232 17.1995 78.4897 17.2285 78.5591 17.2476C78.6342 17.2694 78.7119 17.2803 78.79 17.28C78.9413 17.288 79.0904 17.2398 79.2099 17.1442C79.2604 17.1005 79.3006 17.0456 79.3275 16.9837C79.3544 16.9218 79.3673 16.8544 79.3653 16.7866C79.3673 16.7293 79.3581 16.6721 79.3383 16.6185C79.3185 16.5649 79.2884 16.5158 79.2498 16.4743C79.1596 16.384 79.0504 16.3162 78.9307 16.2761C78.8364 16.2428 78.7484 16.1933 78.6703 16.1296C78.64 16.1034 78.6163 16.0702 78.6009 16.0328C78.5856 15.9953 78.5792 15.9547 78.5821 15.9142C78.5805 15.8742 78.5871 15.8343 78.6016 15.7972C78.616 15.76 78.6381 15.7265 78.6661 15.6987C78.6985 15.6679 78.7365 15.6441 78.778 15.6285C78.8194 15.613 78.8635 15.6061 78.9076 15.6083C78.9791 15.6074 79.0503 15.6198 79.1176 15.6449C79.1627 15.6612 79.2052 15.6844 79.2435 15.7138L79.3065 15.5738C79.259 15.5388 79.2056 15.5133 79.149 15.4984C79.0811 15.4768 79.0103 15.4659 78.9391 15.4661C78.7989 15.4604 78.6619 15.5106 78.557 15.6061C78.5128 15.6475 78.4777 15.6982 78.4542 15.7547C78.4307 15.8112 78.4192 15.8721 78.4205 15.9335C78.4211 16.0358 78.4602 16.1338 78.5297 16.2071C78.6202 16.2969 78.7293 16.3646 78.8488 16.4053C78.9473 16.4403 79.038 16.4952 79.1154 16.5669C79.1448 16.597 79.1678 16.6331 79.1829 16.6727C79.1981 16.7124 79.2052 16.7548 79.2036 16.7974C79.2049 16.8405 79.1971 16.8834 79.1808 16.9232C79.1645 16.9629 79.1401 16.9987 79.1092 17.0279C79.0242 17.0956 78.9185 17.13 78.811 17.1249C78.7395 17.1243 78.6686 17.112 78.601 17.0882C78.5425 17.0668 78.4862 17.0394 78.4331 17.0064L78.3617 17.1615ZM76.0731 16.2265C76.084 16.1315 76.1103 16.0391 76.1508 15.9529C76.1911 15.8599 76.254 15.7791 76.3335 15.7181C76.4227 15.6542 76.5291 15.6203 76.6379 15.6212C76.7509 15.6157 76.8621 15.6525 76.9507 15.7246C77.0224 15.7869 77.075 15.8692 77.1019 15.9616C77.1294 16.0462 77.1422 16.1352 77.1397 16.2244L76.0731 16.2265ZM77.3077 16.3622V16.3149V16.2567C77.3096 16.1517 77.2954 16.047 77.2657 15.9465C77.231 15.8234 77.1642 15.7124 77.0725 15.6255C76.9564 15.5225 76.8058 15.4699 76.6526 15.479C76.5511 15.4782 76.4507 15.5004 76.3585 15.544C76.2664 15.5876 76.1847 15.6514 76.1193 15.731C75.9718 15.9255 75.8973 16.1678 75.9093 16.4139C75.9014 16.641 75.9763 16.863 76.1193 17.0365C76.1927 17.1169 76.282 17.1802 76.3812 17.2222C76.4805 17.2642 76.5873 17.2839 76.6946 17.28C76.8127 17.28 76.9304 17.2655 77.0452 17.2369C77.1074 17.2221 77.1674 17.1989 77.2237 17.1679L77.1817 17.0344C77.1264 17.0631 77.0679 17.0848 77.0074 17.099C76.912 17.1233 76.8139 17.1342 76.7156 17.1313C76.6323 17.1346 76.5492 17.1202 76.4715 17.0891C76.3938 17.058 76.3233 17.0107 76.2642 16.9504C76.196 16.8698 76.1441 16.7761 76.1117 16.6748C76.0792 16.5734 76.0668 16.4664 76.0752 16.3601L77.3077 16.3622ZM74.6433 14.8693C74.6245 14.8699 74.6061 14.8743 74.5891 14.8825C74.5721 14.8907 74.557 14.9023 74.5446 14.9167C74.5202 14.9454 74.5068 14.9821 74.5068 15.0201C74.5075 15.0577 74.5201 15.0939 74.5425 15.1235C74.5541 15.1375 74.5686 15.1486 74.585 15.1561C74.6013 15.1636 74.6191 15.1672 74.637 15.1666C74.6559 15.1678 74.6748 15.1646 74.6922 15.1571C74.7097 15.1496 74.7253 15.1382 74.7377 15.1235C74.7623 15.095 74.7757 15.0582 74.7755 15.0201C74.7764 14.9807 74.7629 14.9423 74.7377 14.9124C74.7261 14.8985 74.7116 14.8873 74.6953 14.8799C74.6789 14.8724 74.6611 14.8688 74.6433 14.8693ZM74.7272 15.5156H74.5593V17.239H74.7272V15.5156ZM73.0979 16.526C73.0997 16.5568 73.0997 16.5878 73.0979 16.6186C73.0948 16.6496 73.0877 16.68 73.0769 16.7091C73.0371 16.8249 72.9639 16.9256 72.867 16.9978C72.7743 17.0632 72.6645 17.0984 72.552 17.099C72.4665 17.1017 72.3816 17.0836 72.3043 17.0461C72.2269 17.0087 72.1593 16.953 72.1069 16.8836C72.0021 16.7372 71.9481 16.5589 71.9537 16.3773C71.9466 16.1799 72.0059 15.9859 72.1216 15.828C72.1734 15.7607 72.2395 15.7063 72.3148 15.669C72.3901 15.6317 72.4726 15.6124 72.5562 15.6126C72.6796 15.6103 72.7999 15.6522 72.8964 15.731C72.9814 15.8025 73.0448 15.8975 73.079 16.0046C73.0867 16.0307 73.0923 16.0574 73.0958 16.0843C73.0976 16.1145 73.0976 16.1447 73.0958 16.1748L73.0979 16.526ZM73.2659 15.9616C73.2659 15.8711 73.2659 15.7935 73.2659 15.7203C73.2618 15.6485 73.2618 15.5766 73.2659 15.5049H73.1126L73.1021 15.7957C73.0588 15.7093 72.9954 15.6353 72.9174 15.5803C72.8042 15.5036 72.6708 15.4645 72.5352 15.4682C72.408 15.469 72.2833 15.5047 72.1741 15.5716C72.0535 15.6462 71.9554 15.7536 71.8907 15.8818C71.8149 16.0384 71.7767 16.2112 71.7794 16.3859C71.7762 16.6057 71.8508 16.8193 71.9893 16.987C72.0521 17.0654 72.1309 17.1286 72.2202 17.1722C72.3094 17.2158 72.407 17.2386 72.5058 17.239C72.6366 17.2419 72.7654 17.2068 72.8775 17.1378C72.967 17.0815 73.0396 17.001 73.0874 16.9051V17.1529C73.0953 17.2499 73.0841 17.3475 73.0545 17.44C73.025 17.5325 72.9776 17.618 72.9153 17.6914C72.8561 17.7463 72.7867 17.7885 72.7114 17.8156C72.636 17.8426 72.5561 17.8538 72.4765 17.8487C72.3789 17.8503 72.2818 17.8358 72.1888 17.8056C72.1145 17.7823 72.0438 17.7482 71.9788 17.7043L71.9201 17.8401C71.994 17.8936 72.0774 17.9317 72.1657 17.9521C72.261 17.9777 72.3591 17.9907 72.4576 17.9909C72.5587 17.9907 72.6593 17.9748 72.7557 17.9435C72.8572 17.912 72.9505 17.8575 73.0287 17.7841C73.1067 17.705 73.1644 17.6073 73.1966 17.4997C73.2444 17.3326 73.2656 17.1588 73.2596 16.9848L73.2659 15.9616ZM69.9611 15.619C70.0909 15.6153 70.2176 15.6596 70.318 15.744C70.4118 15.8202 70.4842 15.9206 70.528 16.0348C70.5655 16.142 70.5854 16.2548 70.5868 16.3687C70.5928 16.5685 70.5279 16.7637 70.4041 16.918C70.3501 16.9855 70.2821 17.0398 70.2052 17.0771C70.1282 17.1143 70.0441 17.1336 69.959 17.1335C69.8754 17.1335 69.7929 17.1142 69.7177 17.0768C69.6424 17.0395 69.5763 16.9853 69.5244 16.918C69.4049 16.7657 69.3417 16.575 69.3459 16.3795C69.3451 16.2548 69.3679 16.1311 69.4131 16.0154C69.4562 15.9026 69.5289 15.8042 69.6231 15.731C69.7256 15.6533 69.8505 15.6131 69.9779 15.6169L69.9611 15.619ZM69.9779 15.4725C69.84 15.4715 69.7043 15.5087 69.5853 15.5803C69.4585 15.6535 69.3549 15.7627 69.2871 15.8948C69.2106 16.0495 69.1724 16.2211 69.1759 16.3946C69.1678 16.6315 69.2481 16.8626 69.4005 17.0408C69.4697 17.1184 69.5541 17.18 69.6482 17.2216C69.7423 17.2632 69.844 17.2838 69.9464 17.2821C70.0775 17.2816 70.2065 17.2484 70.3222 17.1852C70.4501 17.118 70.5559 17.0139 70.6267 16.8857C70.7136 16.7252 70.7571 16.5437 70.7527 16.3601C70.7634 16.1254 70.6885 15.895 70.5427 15.7138C70.471 15.634 70.3836 15.5708 70.2862 15.5285C70.1888 15.4861 70.0837 15.4656 69.9779 15.4682V15.4725ZM67.8174 17.239H67.9854V14.6862H67.8174V17.239ZM65.8543 15.6169C65.984 15.6129 66.1108 15.6573 66.2112 15.7418C66.3049 15.8181 66.3773 15.9184 66.4212 16.0326C66.4576 16.1437 66.4753 16.2602 66.4736 16.3773C66.4794 16.5771 66.4145 16.7722 66.291 16.9267C66.2368 16.994 66.1689 17.0482 66.0919 17.0855C66.015 17.1227 65.9309 17.142 65.8459 17.1421C65.7623 17.142 65.6798 17.1225 65.6046 17.0852C65.5294 17.048 65.4633 16.9938 65.4112 16.9267C65.2916 16.7744 65.2283 16.5836 65.2328 16.3881C65.2319 16.2634 65.2547 16.1397 65.3 16.024C65.3411 15.9083 65.4131 15.8068 65.5078 15.731C65.6103 15.6533 65.7353 15.6131 65.8627 15.6169H65.8543ZM65.8627 15.4725C65.7247 15.4714 65.589 15.5086 65.47 15.5803C65.3461 15.6533 65.2449 15.7608 65.1782 15.8905C65.1016 16.0451 65.0634 16.2168 65.0669 16.3903C65.059 16.6271 65.1394 16.8582 65.2916 17.0365C65.3607 17.1141 65.4452 17.1757 65.5393 17.2173C65.6334 17.2589 65.735 17.2795 65.8375 17.2778C65.9686 17.2773 66.0976 17.244 66.2133 17.1809C66.3411 17.1137 66.4469 17.0096 66.5177 16.8814C66.6047 16.7209 66.6482 16.5394 66.6437 16.3558C66.6542 16.1211 66.5794 15.8908 66.4338 15.7095C66.362 15.6298 66.2745 15.5667 66.1771 15.5243C66.0797 15.482 65.9747 15.4614 65.869 15.4639L65.8627 15.4725ZM62.5684 17.239H62.7363V16.1619C62.7347 16.1346 62.7347 16.1073 62.7363 16.08C62.7393 16.056 62.7442 16.0322 62.751 16.0089C62.7838 15.8975 62.8499 15.7996 62.94 15.7289C63.0296 15.6558 63.1405 15.6156 63.2549 15.6147C63.3258 15.6108 63.3964 15.6253 63.4603 15.6569C63.5242 15.6886 63.5792 15.7363 63.6203 15.7957C63.6932 15.9218 63.7282 16.0672 63.721 16.2136V17.239H63.889V16.2071C63.8967 16.0396 63.8566 15.8734 63.7735 15.7289C63.7146 15.6318 63.6271 15.5563 63.5237 15.5135C63.4528 15.4818 63.3763 15.4656 63.299 15.4661C63.1729 15.4653 63.0492 15.5011 62.9421 15.5695C62.8462 15.6276 62.7694 15.7139 62.7216 15.8172V15.5049H62.5684C62.5752 15.5707 62.5787 15.6368 62.5788 15.703C62.5788 15.7677 62.5788 15.8388 62.5788 15.9185L62.5684 17.239ZM59.9396 17.239H60.1076V16.1899C60.1057 16.1591 60.1057 16.1281 60.1076 16.0973C60.1116 16.0704 60.1172 16.0437 60.1244 16.0176C60.1619 15.9092 60.2289 15.8143 60.3176 15.744C60.4068 15.6701 60.5179 15.6298 60.6325 15.6298C60.7028 15.6251 60.7731 15.6394 60.8365 15.6711C60.8998 15.7028 60.954 15.751 60.9936 15.8108C61.0666 15.9353 61.1017 16.0793 61.0944 16.2244V17.239H61.2624V16.205C61.2705 16.0388 61.2303 15.8738 61.1469 15.731C61.0878 15.634 61.0004 15.5586 60.8971 15.5156C60.8275 15.4844 60.7525 15.4683 60.6766 15.4682C60.6149 15.4695 60.5536 15.4781 60.4939 15.4941C60.4383 15.5116 60.3853 15.537 60.3365 15.5695C60.2872 15.5982 60.2426 15.6345 60.2042 15.6772C60.1664 15.719 60.1346 15.7662 60.1097 15.8172V14.6862H59.9417L59.9396 17.239ZM58.7407 17.0236C58.6863 17.0503 58.6302 17.0733 58.5728 17.0925C58.4904 17.114 58.4058 17.1248 58.3208 17.1249C58.2304 17.1255 58.1409 17.1067 58.0581 17.0696C57.9753 17.0325 57.901 16.9779 57.84 16.9094C57.7133 16.7591 57.6465 16.5652 57.6531 16.3666C57.6515 16.2365 57.6781 16.1078 57.7308 15.9896C57.7854 15.8821 57.8684 15.7925 57.9702 15.731C58.0824 15.6561 58.2143 15.6185 58.3481 15.6233C58.4283 15.6219 58.5083 15.6328 58.5854 15.6556C58.6399 15.6733 58.6927 15.6964 58.7428 15.7246L58.8037 15.5846C58.7525 15.5504 58.6955 15.5263 58.6358 15.5135C58.5468 15.4889 58.455 15.4766 58.3628 15.4768C58.2474 15.473 58.1325 15.4935 58.0252 15.5373C57.9179 15.581 57.8206 15.647 57.7392 15.731C57.5748 15.9109 57.4865 16.1502 57.4936 16.3967C57.4879 16.627 57.5674 16.851 57.7161 17.0236C57.7911 17.1051 57.8821 17.1694 57.9831 17.2121C58.0841 17.2548 58.1927 17.275 58.3019 17.2713C58.4075 17.2703 58.5126 17.2558 58.6148 17.2283C58.6777 17.2115 58.7389 17.1884 58.7974 17.1593L58.7407 17.0236ZM55.2197 16.2265C55.2309 16.1316 55.2571 16.0392 55.2974 15.9529C55.3377 15.8599 55.4006 15.7791 55.48 15.7181C55.5693 15.6542 55.6757 15.6203 55.7845 15.6212C55.8975 15.6157 56.0087 15.6525 56.0973 15.7246C56.169 15.7869 56.2215 15.8692 56.2485 15.9616C56.2758 16.0463 56.2886 16.1352 56.2863 16.2244L55.2197 16.2265ZM56.4543 16.3622V16.3149V16.2567C56.4545 16.1506 56.4382 16.0451 56.406 15.9443C56.3712 15.8213 56.3044 15.7103 56.2128 15.6233C56.0967 15.5203 55.9461 15.4678 55.7929 15.4768C55.6919 15.477 55.5923 15.4998 55.5009 15.5437C55.4094 15.5876 55.3285 15.6516 55.2638 15.731C55.1163 15.9255 55.0417 16.1678 55.0538 16.4139C55.0459 16.641 55.1207 16.863 55.2638 17.0365C55.3372 17.1169 55.4265 17.1802 55.5257 17.2222C55.625 17.2642 55.7318 17.2839 55.8391 17.28C55.9572 17.28 56.0749 17.2655 56.1897 17.2369C56.2519 17.2221 56.3119 17.1989 56.3682 17.1679L56.3262 17.0344C56.2708 17.063 56.2123 17.0847 56.1519 17.099C56.0565 17.1234 55.9583 17.1342 55.8601 17.1313C55.7767 17.1346 55.6937 17.1202 55.616 17.0891C55.5383 17.058 55.4677 17.0107 55.4087 16.9504C55.3404 16.8698 55.2886 16.7761 55.2562 16.6748C55.2237 16.5734 55.2113 16.4664 55.2197 16.3601L56.4543 16.3622ZM53.456 17.239H53.624V14.9641H54.3945V14.8198H52.6833V14.9641H53.4539L53.456 17.239ZM50.1533 16.5281C50.155 16.559 50.155 16.5899 50.1533 16.6208C50.15 16.6517 50.143 16.6821 50.1323 16.7112C50.0925 16.8271 50.0193 16.9278 49.9223 16.9999C49.8296 17.0653 49.7199 17.1006 49.6074 17.1012C49.5219 17.104 49.4369 17.086 49.3595 17.0485C49.2821 17.0111 49.2145 16.9553 49.1623 16.8857C49.058 16.7391 49.0048 16.5608 49.0111 16.3795C49.0041 16.182 49.0634 15.9881 49.1791 15.8301C49.2309 15.7628 49.2969 15.7084 49.3722 15.6711C49.4475 15.6338 49.5301 15.6145 49.6137 15.6147C49.7371 15.6125 49.8573 15.6544 49.9538 15.7332C50.0388 15.8048 50.1021 15.8997 50.1365 16.0068C50.1441 16.0329 50.1497 16.0595 50.1533 16.0865C50.1551 16.1166 50.1551 16.1468 50.1533 16.177V16.5281ZM50.3213 15.9637C50.3213 15.8732 50.3213 15.7957 50.3213 15.7224C50.3173 15.6507 50.3173 15.5788 50.3213 15.507H50.1806V15.8086C50.1372 15.7223 50.0738 15.6483 49.9958 15.5932C49.8827 15.5165 49.7493 15.4774 49.6137 15.4812C49.4865 15.4819 49.3618 15.5176 49.2526 15.5846C49.132 15.6591 49.0339 15.7665 48.9691 15.8948C48.8933 16.0513 48.8552 16.2241 48.8578 16.3989C48.8547 16.6187 48.9293 16.8322 49.0678 16.9999C49.1292 17.073 49.2048 17.132 49.2898 17.1732C49.3748 17.2144 49.4672 17.2368 49.5612 17.239C49.6919 17.2418 49.8207 17.2067 49.9328 17.1378C50.0223 17.0814 50.0949 17.0009 50.1428 16.9051V17.1529C50.1507 17.2499 50.1395 17.3475 50.1099 17.44C50.0803 17.5325 50.033 17.618 49.9706 17.6914C49.9114 17.7463 49.8421 17.7885 49.7667 17.8156C49.6914 17.8426 49.6115 17.8538 49.5318 17.8487C49.4343 17.8503 49.3372 17.8358 49.2442 17.8056C49.1698 17.7824 49.0991 17.7483 49.0342 17.7043L48.9754 17.8401C49.0493 17.8936 49.1328 17.9317 49.2211 17.9521C49.3164 17.9777 49.4144 17.9907 49.5129 17.9909C49.6141 17.9907 49.7146 17.9748 49.8111 17.9435C49.9125 17.912 50.0058 17.8575 50.084 17.7841C50.162 17.7049 50.2197 17.6072 50.252 17.4997C50.2997 17.3326 50.3209 17.1588 50.315 16.9848L50.3213 15.9637ZM46.3509 17.239H46.5189V16.1619C46.5171 16.1346 46.5171 16.1073 46.5189 16.08C46.5218 16.056 46.5267 16.0322 46.5336 16.0089C46.5662 15.8975 46.6323 15.7994 46.7225 15.7289C46.8121 15.6557 46.923 15.6154 47.0375 15.6147C47.1083 15.6108 47.179 15.6253 47.2428 15.6569C47.3067 15.6886 47.3618 15.7363 47.4028 15.7957C47.476 15.9217 47.511 16.0671 47.5036 16.2136V17.239H47.6716V16.2071C47.6792 16.0396 47.6391 15.8734 47.5561 15.7289C47.4978 15.632 47.411 15.5566 47.3083 15.5135C47.2375 15.4818 47.161 15.4656 47.0837 15.4661C46.9576 15.4654 46.8338 15.5012 46.7267 15.5695C46.6309 15.6277 46.5541 15.714 46.5063 15.8172V15.5049H46.3488C46.3557 15.5707 46.3592 15.6368 46.3593 15.703C46.3593 15.7677 46.3593 15.8388 46.3593 15.9185L46.3509 17.239ZM44.9526 14.8693C44.9338 14.8699 44.9154 14.8743 44.8984 14.8825C44.8814 14.8907 44.8663 14.9023 44.8539 14.9167C44.8295 14.9454 44.8161 14.9821 44.8161 15.0201C44.8168 15.0577 44.8293 15.0939 44.8518 15.1235C44.8634 15.1375 44.8779 15.1486 44.8942 15.1561C44.9106 15.1636 44.9284 15.1672 44.9463 15.1666C44.9651 15.1678 44.9841 15.1646 45.0015 15.1571C45.019 15.1496 45.0346 15.1382 45.047 15.1235C45.0716 15.095 45.085 15.0582 45.0848 15.0201C45.0857 14.9807 45.0722 14.9423 45.047 14.9124C45.0354 14.8985 45.0209 14.8873 45.0046 14.8799C44.9882 14.8724 44.9704 14.8688 44.9526 14.8693ZM45.0365 15.5156H44.8686V17.239H45.0365V15.5156ZM43.0608 17.239H43.2288V16.2912C43.2271 16.2625 43.2271 16.2337 43.2288 16.205C43.2286 16.178 43.2321 16.1512 43.2393 16.1253C43.2577 15.9983 43.31 15.879 43.3904 15.7806C43.4268 15.7379 43.4716 15.7036 43.522 15.6802C43.5723 15.6568 43.627 15.6448 43.6823 15.6449H43.7243H43.7621V15.479C43.739 15.4771 43.7158 15.4771 43.6928 15.479C43.5838 15.4799 43.4784 15.5195 43.3946 15.591C43.3132 15.6667 43.2518 15.7623 43.2162 15.8689H43.2057V15.5199H43.0419C43.0419 15.6061 43.0419 15.688 43.0419 15.7784C43.0419 15.8689 43.0419 15.9508 43.0419 16.037L43.0608 17.239ZM40.6483 16.2265C40.6609 16.129 40.6893 16.0344 40.7323 15.9465C40.7726 15.8534 40.8355 15.7726 40.915 15.7117C41.0042 15.6477 41.1106 15.6139 41.2194 15.6147C41.3324 15.6095 41.4435 15.6462 41.5323 15.7181C41.604 15.7804 41.6565 15.8627 41.6834 15.9551C41.7108 16.0398 41.7236 16.1287 41.7212 16.2179L40.6483 16.2265ZM41.8829 16.3622V16.3149V16.2567C41.8832 16.1506 41.8669 16.0451 41.8346 15.9443C41.7999 15.8213 41.7331 15.7103 41.6415 15.6233C41.5253 15.5205 41.3747 15.468 41.2215 15.4768C41.1209 15.4773 41.0217 15.5003 40.9306 15.5442C40.8396 15.5881 40.759 15.6519 40.6945 15.731C40.547 15.9255 40.4725 16.1678 40.4846 16.4139C40.4766 16.641 40.5515 16.863 40.6945 17.0365C40.7679 17.1169 40.8572 17.1802 40.9565 17.2222C41.0557 17.2642 41.1625 17.2839 41.2698 17.28C41.388 17.28 41.5057 17.2655 41.6205 17.2369C41.6827 17.2222 41.7427 17.199 41.7989 17.1679L41.7569 17.0344C41.7016 17.063 41.6431 17.0847 41.5827 17.099C41.4873 17.1233 41.3891 17.1342 41.2908 17.1313C41.2075 17.1346 41.1244 17.1202 41.0467 17.0891C40.9691 17.058 40.8985 17.0107 40.8394 16.9504C40.7711 16.8699 40.7192 16.7762 40.6867 16.6748C40.6543 16.5735 40.6419 16.4664 40.6504 16.3601L41.8829 16.3622ZM38.87 15.2011V15.5156H38.5865V15.6556H38.87V16.7457C38.8687 16.8269 38.8771 16.9079 38.8952 16.987C38.9073 17.0504 38.9347 17.1096 38.9749 17.1593C39.0077 17.1998 39.0495 17.2316 39.0967 17.252C39.1493 17.2711 39.2047 17.2806 39.2605 17.28C39.3052 17.284 39.3502 17.284 39.3949 17.28C39.4293 17.2723 39.4631 17.2615 39.4956 17.2476L39.4746 17.1184C39.4487 17.1268 39.4219 17.1325 39.3949 17.1356C39.3578 17.1378 39.3206 17.1378 39.2836 17.1356C39.2465 17.138 39.2095 17.1303 39.1763 17.1133C39.1432 17.0963 39.115 17.0705 39.0946 17.0387C39.0524 16.9597 39.0327 16.8701 39.0379 16.7802V15.6578H39.5187V15.5156H39.0379V15.1365L38.87 15.2011ZM36.3882 16.2265C36.3994 16.1316 36.4256 16.0392 36.4659 15.9529C36.5062 15.8599 36.5691 15.7791 36.6486 15.7181C36.7378 15.6542 36.8442 15.6203 36.953 15.6212C37.066 15.6159 37.1771 15.6526 37.2658 15.7246C37.3375 15.7869 37.3901 15.8692 37.417 15.9616C37.4445 16.0462 37.4573 16.1352 37.4548 16.2244L36.3882 16.2265ZM37.6228 16.3622V16.3149V16.2567C37.6255 16.1518 37.612 16.0471 37.5829 15.9465C37.5482 15.8234 37.4814 15.7124 37.3897 15.6255C37.2736 15.5225 37.123 15.4699 36.9698 15.479C36.8676 15.4776 36.7664 15.4995 36.6735 15.5431C36.5805 15.5867 36.4981 15.6509 36.4323 15.731C36.2846 15.9254 36.2101 16.1678 36.2223 16.4139C36.2144 16.641 36.2893 16.863 36.4323 17.0365C36.5057 17.1169 36.595 17.1802 36.6942 17.2222C36.7935 17.2642 36.9003 17.2839 37.0076 17.28C37.1257 17.28 37.2434 17.2655 37.3582 17.2369C37.4205 17.2222 37.4805 17.199 37.5367 17.1679L37.4947 17.0344C37.4394 17.0631 37.3809 17.0847 37.3204 17.099C37.225 17.1233 37.1269 17.1342 37.0286 17.1313C36.9453 17.1346 36.8622 17.1202 36.7845 17.0891C36.7068 17.058 36.6363 17.0107 36.5772 16.9504C36.5089 16.8699 36.457 16.7762 36.4245 16.6748C36.392 16.5735 36.3797 16.4664 36.3882 16.3601L37.6228 16.3622ZM34.9227 17.239H35.0885L34.9311 14.8155H34.7211L34.192 16.2136C34.1332 16.3752 34.0807 16.5152 34.0366 16.6445C33.9925 16.7737 33.9568 16.8857 33.9275 16.9978H33.917C33.8855 16.8814 33.8477 16.7608 33.8036 16.6315C33.7595 16.5023 33.7133 16.3644 33.6566 16.2007L33.1485 14.8047H32.9637L32.7958 17.239H32.9637L33.0372 16.1253C33.0519 15.9099 33.0624 15.7224 33.0729 15.5285C33.0834 15.3347 33.0876 15.1623 33.0897 15.018C33.1254 15.1516 33.1674 15.2916 33.2199 15.4488C33.2724 15.6061 33.3291 15.772 33.3962 15.9594L33.8624 17.252H33.9778L34.4755 15.9314C34.5426 15.7504 34.6014 15.5889 34.6539 15.4424C34.7064 15.2959 34.7526 15.158 34.7946 15.0288C34.7946 15.1645 34.7946 15.3304 34.8114 15.5242C34.8282 15.7181 34.8324 15.912 34.8429 16.0994L34.9227 17.239ZM29.8836 16.541C29.8854 16.5661 29.8854 16.5913 29.8836 16.6164C29.8804 16.6398 29.8755 16.6628 29.8689 16.6854C29.839 16.8178 29.7647 16.9352 29.6589 17.0171C29.5642 17.0949 29.4463 17.1367 29.3251 17.1356C29.2063 17.1404 29.0897 17.1023 28.9955 17.0279C28.9062 16.9591 28.8377 16.8657 28.7981 16.7586C28.7555 16.6415 28.7341 16.5174 28.7351 16.3924C28.7292 16.1948 28.7859 16.0005 28.8968 15.8388C28.9478 15.7695 29.0143 15.7137 29.0906 15.6762C29.167 15.6388 29.251 15.6206 29.3356 15.6233C29.4587 15.6214 29.5787 15.6633 29.6751 15.7419C29.7715 15.8204 29.8385 15.9307 29.8647 16.0542C29.8717 16.0803 29.8766 16.107 29.8794 16.1339C29.8811 16.1604 29.8811 16.1871 29.8794 16.2136L29.8836 16.541ZM29.8836 14.6819V15.7784C29.8409 15.689 29.7738 15.6141 29.6904 15.563C29.5823 15.4978 29.4589 15.4642 29.3335 15.4661C29.198 15.4651 29.0652 15.5048 28.9514 15.5803C28.8353 15.6608 28.7413 15.7706 28.6784 15.8991C28.6072 16.0554 28.572 16.2264 28.5755 16.3989C28.5692 16.6277 28.6438 16.8511 28.7855 17.0279C28.8497 17.1043 28.9294 17.1654 29.0189 17.2071C29.1085 17.2488 29.2058 17.2699 29.3041 17.2692C29.4409 17.2722 29.5754 17.2332 29.6904 17.1572C29.7809 17.0927 29.8533 17.0051 29.9004 16.903L29.9151 17.2304H30.0663C30.0626 17.1644 30.0626 17.0982 30.0663 17.0322C30.0663 16.9611 30.0663 16.8922 30.0663 16.8168V14.6625L29.8836 14.6819ZM26.2911 16.2265C26.3023 16.1316 26.3286 16.0392 26.3688 15.9529C26.4091 15.8599 26.472 15.7791 26.5515 15.7181C26.6407 15.6542 26.7471 15.6203 26.8559 15.6212C26.969 15.6157 27.0801 15.6525 27.1688 15.7246C27.2405 15.7869 27.293 15.8692 27.32 15.9616C27.3473 16.0463 27.3601 16.1352 27.3577 16.2244L26.2911 16.2265ZM27.5257 16.3622V16.3149V16.2567C27.5258 16.1506 27.5095 16.0452 27.4774 15.9443C27.4427 15.8213 27.3759 15.7103 27.2843 15.6233C27.1682 15.5203 27.0176 15.4678 26.8643 15.4768C26.7634 15.477 26.6637 15.4998 26.5723 15.5437C26.4809 15.5876 26.4 15.6516 26.3352 15.731C26.1875 15.9254 26.113 16.1678 26.1253 16.4139C26.1173 16.641 26.1922 16.863 26.3352 17.0365C26.4086 17.1169 26.4979 17.1802 26.5972 17.2222C26.6964 17.2642 26.8033 17.2839 26.9105 17.28C27.0287 17.28 27.1464 17.2655 27.2612 17.2369C27.3234 17.2222 27.3834 17.199 27.4396 17.1679L27.3976 17.0344C27.3423 17.063 27.2838 17.0847 27.2234 17.099C27.1287 17.1231 27.0312 17.134 26.9336 17.1313C26.8503 17.1346 26.7672 17.1202 26.6895 17.0891C26.6119 17.058 26.5413 17.0107 26.4822 16.9504C26.4139 16.8699 26.362 16.7762 26.3295 16.6748C26.2971 16.5735 26.2847 16.4664 26.2932 16.3601L27.5257 16.3622ZM24.5128 15.2011V15.5156H24.2293V15.6556H24.5128V16.7457C24.5115 16.8269 24.5199 16.9079 24.538 16.987C24.5501 17.0503 24.5776 17.1096 24.6177 17.1593C24.6506 17.1997 24.6923 17.2315 24.7395 17.252C24.7927 17.2713 24.8489 17.2808 24.9054 17.28C24.9494 17.2839 24.9937 17.2839 25.0377 17.28C25.0721 17.2722 25.1058 17.2614 25.1385 17.2476L25.1175 17.1184C25.0915 17.1268 25.0647 17.1325 25.0377 17.1356C25.0006 17.1377 24.9635 17.1377 24.9264 17.1356C24.8894 17.138 24.8523 17.1303 24.8192 17.1133C24.786 17.0963 24.7578 17.0705 24.7374 17.0387C24.6952 16.9597 24.6755 16.8701 24.6807 16.7802V15.6578H25.1615V15.5156H24.6807V15.1365L24.5128 15.2011ZM22.9884 16.6897V16.7392L22.9737 16.7931C22.9413 16.8865 22.8838 16.9686 22.8079 17.0301C22.7122 17.1032 22.5954 17.1411 22.4761 17.1378C22.3901 17.1396 22.3064 17.109 22.241 17.0516C22.2054 17.0115 22.1781 16.9644 22.1607 16.9132C22.1433 16.862 22.1361 16.8077 22.1396 16.7536C22.1432 16.6995 22.1573 16.6467 22.1812 16.5983C22.2051 16.5499 22.2383 16.507 22.2788 16.4721C22.3749 16.4008 22.4867 16.3549 22.6042 16.3385C22.732 16.3189 22.8614 16.3116 22.9905 16.317L22.9884 16.6897ZM23.1564 16.1576C23.1562 16.052 23.142 15.9469 23.1144 15.8452C23.0843 15.7429 23.0242 15.6527 22.9422 15.5867C22.8343 15.5111 22.7054 15.4734 22.5748 15.479C22.4917 15.4796 22.409 15.4919 22.3292 15.5156C22.2405 15.5387 22.1561 15.5766 22.0793 15.6276L22.1318 15.7547C22.1954 15.7095 22.2666 15.6766 22.3418 15.6578C22.4134 15.6365 22.4876 15.6256 22.5622 15.6255C22.6674 15.6177 22.7716 15.6507 22.8541 15.7181C22.9149 15.7753 22.9568 15.8507 22.9737 15.9335C22.9889 16.0043 22.9959 16.0766 22.9947 16.149V16.1964C22.728 16.1787 22.4615 16.2361 22.2242 16.3622C22.1458 16.4062 22.08 16.4705 22.0336 16.5488C21.9871 16.6271 21.9616 16.7165 21.9596 16.8082C21.9582 16.9275 22.001 17.043 22.0793 17.1313C22.1286 17.1815 22.1874 17.2207 22.252 17.2466C22.3166 17.2726 22.3858 17.2846 22.4551 17.2821C22.5745 17.2829 22.692 17.2509 22.7953 17.1895C22.8798 17.1436 22.9519 17.077 23.0052 16.9956L23.0304 17.2433H23.1858C23.1748 17.172 23.1678 17.1001 23.1648 17.0279C23.1648 16.959 23.1648 16.8922 23.1648 16.8125L23.1564 16.1576ZM20.3219 17.2347H20.4899V16.2912C20.4882 16.2625 20.4882 16.2337 20.4899 16.205C20.4896 16.178 20.4931 16.1512 20.5004 16.1253C20.5187 15.9982 20.571 15.8789 20.6516 15.7806C20.6879 15.7379 20.7328 15.7036 20.7831 15.6802C20.8335 15.6568 20.8881 15.6448 20.9434 15.6449H20.9854H21.0232V15.479C21.0001 15.4772 20.977 15.4772 20.9539 15.479C20.8449 15.4799 20.7396 15.5195 20.6558 15.591C20.5744 15.6667 20.513 15.7623 20.4773 15.8689V15.5199H20.324C20.324 15.6061 20.324 15.688 20.324 15.7784C20.324 15.8689 20.324 15.9508 20.324 16.037L20.3219 17.2347ZM18.8627 16.5281C18.8643 16.559 18.8643 16.5899 18.8627 16.6208C18.8595 16.6517 18.8525 16.6821 18.8417 16.7112C18.8019 16.8271 18.7286 16.9278 18.6317 16.9999C18.539 17.0653 18.4293 17.1006 18.3168 17.1012C18.2313 17.1039 18.1464 17.0857 18.069 17.0483C17.9916 17.0109 17.924 16.9551 17.8717 16.8857C17.7655 16.7391 17.7107 16.5599 17.7163 16.3773C17.7092 16.1799 17.7685 15.9859 17.8843 15.828C17.9361 15.7607 18.0021 15.7063 18.0774 15.669C18.1527 15.6317 18.2353 15.6124 18.3189 15.6126C18.4422 15.6103 18.5625 15.6522 18.659 15.731C18.744 15.8026 18.8073 15.8975 18.8417 16.0046C18.8494 16.0307 18.855 16.0574 18.8585 16.0843C18.8604 16.1145 18.8604 16.1447 18.8585 16.1748L18.8627 16.5281ZM19.0307 15.9637C19.0307 15.8732 19.0307 15.7957 19.0307 15.7224C19.0301 15.6505 19.0336 15.5785 19.0412 15.507H18.8963V15.7978C18.8523 15.7113 18.7881 15.6373 18.7094 15.5824C18.5962 15.5058 18.4628 15.4666 18.3273 15.4704C18.2001 15.4711 18.0754 15.5068 17.9662 15.5738C17.8456 15.6483 17.7474 15.7557 17.6827 15.884C17.607 16.0405 17.5688 16.2134 17.5714 16.3881C17.5683 16.6079 17.6429 16.8214 17.7814 16.9891C17.8408 17.0631 17.9147 17.1235 17.9982 17.1666C18.0817 17.2096 18.1731 17.2343 18.2664 17.239C18.3971 17.2419 18.5259 17.2068 18.638 17.1378C18.7275 17.0814 18.8001 17.0009 18.848 16.9051V17.1529C18.8557 17.2499 18.8445 17.3475 18.8149 17.44C18.7853 17.5325 18.7381 17.618 18.6758 17.6914C18.6166 17.7463 18.5473 17.7885 18.4719 17.8156C18.3965 17.8426 18.3167 17.8538 18.237 17.8487C18.1395 17.8503 18.0423 17.8358 17.9494 17.8056C17.875 17.7824 17.8043 17.7483 17.7394 17.7043L17.6806 17.8401C17.7546 17.8935 17.838 17.9316 17.9263 17.9521C18.0215 17.9777 18.1196 17.9907 18.2181 17.9909C18.3193 17.9907 18.4198 17.9748 18.5163 17.9435C18.6177 17.912 18.711 17.8575 18.7892 17.7841C18.8672 17.7049 18.9249 17.6072 18.9572 17.4997C19.0048 17.3326 19.0261 17.1588 19.0202 16.9848L19.0307 15.9637ZM15.2702 16.2265C15.2807 16.1294 15.307 16.0347 15.3479 15.9465C15.3909 15.8551 15.4559 15.7764 15.5369 15.7181C15.6261 15.6542 15.7325 15.6203 15.8413 15.6212C15.9543 15.6159 16.0654 15.6526 16.1542 15.7246C16.2259 15.7869 16.2784 15.8692 16.3054 15.9616C16.3329 16.0462 16.3457 16.1352 16.3431 16.2244L15.2702 16.2265ZM16.5048 16.3622V16.3149V16.2567C16.5068 16.1517 16.4927 16.047 16.4628 15.9465C16.4282 15.8234 16.3614 15.7124 16.2697 15.6255C16.1536 15.5225 16.003 15.4699 15.8497 15.479C15.75 15.4798 15.6517 15.5028 15.5614 15.5463C15.4712 15.5898 15.3912 15.6528 15.3269 15.731C15.1792 15.9254 15.1047 16.1678 15.117 16.4139C15.1088 16.6411 15.1837 16.8631 15.3269 17.0365C15.4003 17.1169 15.4896 17.1802 15.5889 17.2222C15.6881 17.2642 15.795 17.2839 15.9022 17.28C16.0204 17.28 16.1381 17.2655 16.2529 17.2369C16.3151 17.2221 16.3751 17.1989 16.4313 17.1679L16.3893 17.0344C16.334 17.0631 16.2755 17.0848 16.2151 17.099C16.1197 17.1234 16.0215 17.1342 15.9232 17.1313C15.8399 17.1346 15.7568 17.1202 15.6791 17.0891C15.6015 17.058 15.5309 17.0107 15.4718 16.9504C15.4036 16.8698 15.3518 16.7761 15.3193 16.6748C15.2869 16.5734 15.2745 16.4664 15.2828 16.3601L16.5048 16.3622ZM13.4919 15.2011V15.5156H13.2063V15.6556H13.4898V16.7457C13.4886 16.8269 13.497 16.9079 13.515 16.987C13.5278 17.0506 13.5559 17.1098 13.5968 17.1593C13.6296 17.1998 13.6714 17.2316 13.7186 17.252C13.7712 17.2711 13.8266 17.2806 13.8824 17.28C13.9264 17.2839 13.9707 17.2839 14.0147 17.28C14.0498 17.2724 14.0843 17.2616 14.1176 17.2476L14.0966 17.1184C14.0699 17.1269 14.0425 17.1327 14.0147 17.1356C13.9776 17.1378 13.9405 17.1378 13.9034 17.1356C13.8664 17.138 13.8294 17.1303 13.7962 17.1133C13.763 17.0963 13.7348 17.0705 13.7144 17.0387C13.6721 16.9598 13.6524 16.8701 13.6577 16.7802V15.6578H14.1385V15.5156H13.6598V15.1365L13.4919 15.2011ZM10.8002 17.239H10.9681V16.1619C10.9664 16.1346 10.9664 16.1073 10.9681 16.08C10.9711 16.056 10.976 16.0322 10.9828 16.0089C11.0154 15.8975 11.0816 15.7994 11.1718 15.7289C11.2613 15.6557 11.3722 15.6154 11.4867 15.6147C11.5576 15.6108 11.6282 15.6253 11.6921 15.6569C11.756 15.6886 11.811 15.7363 11.8521 15.7957C11.932 15.9225 11.9723 16.0713 11.9675 16.2222V17.239H12.1355V16.2071C12.1409 16.0397 12.0986 15.8742 12.0137 15.731C11.9531 15.6329 11.8633 15.5573 11.7576 15.5156C11.6907 15.4889 11.6194 15.4757 11.5476 15.4768C11.4215 15.4762 11.2978 15.512 11.1907 15.5803C11.0948 15.6385 11.0181 15.7248 10.9702 15.828V15.5156H10.8128C10.8197 15.5814 10.8232 15.6476 10.8232 15.7138C10.8232 15.7784 10.8232 15.8495 10.8232 15.9292L10.8002 17.239ZM9.26953 17.239H9.448V14.8198H9.28003L9.26953 17.239Z" fill="white"/>
<path d="M43.4053 5.60604C43.5084 5.57899 43.6139 5.5631 43.7202 5.55864C43.8483 5.54572 44.0121 5.53494 44.2094 5.53494C44.9905 5.53494 45.5973 5.75037 46.0403 6.18122C46.4833 6.61207 46.6933 7.25835 46.7038 8.0942C46.6933 9.05069 46.4476 9.76806 45.9689 10.2355C45.4902 10.703 44.8372 10.9292 44.0226 10.9184H43.695C43.5796 10.9055 43.4851 10.8947 43.4032 10.8818L43.4053 5.60604ZM41.6332 12.2218C41.8537 12.2584 42.1224 12.2821 42.4605 12.3058C42.7985 12.3295 43.1953 12.3424 43.6488 12.3424C44.3522 12.3505 45.0536 12.2658 45.7359 12.0904C46.2998 11.9382 46.8277 11.6699 47.2875 11.3019C47.6901 10.9477 48.0059 10.5012 48.2092 9.99857C48.4663 9.37843 48.5936 8.70984 48.5829 8.03604C48.5958 7.40996 48.4724 6.78883 48.2218 6.21784C48.002 5.73583 47.6695 5.31699 47.2539 4.99853C46.8575 4.69407 46.4055 4.4743 45.9248 4.35226C45.3031 4.19694 44.6644 4.12454 44.0247 4.13683C43.5816 4.13683 43.1512 4.14976 42.7418 4.18422C42.3324 4.21869 41.9607 4.25532 41.6353 4.31563L41.6332 12.2218ZM35.4834 8.81803L35.9558 7.11402C36.0146 6.87489 36.0839 6.61207 36.1427 6.33633C36.2015 6.06058 36.2582 5.79776 36.317 5.55864H36.3401C36.3989 5.79776 36.4576 6.06058 36.5269 6.33633C36.5962 6.61207 36.6676 6.87489 36.7369 7.11402L37.2261 8.8245L35.4834 8.81803ZM37.476 10.1817L38.0828 12.2519H40.006L37.5641 4.18853H35.2315L32.8421 12.2498H34.673L35.2315 10.1795L37.476 10.1817ZM27.5658 5.55218C27.6609 5.52469 27.7589 5.50878 27.8576 5.50479C27.9857 5.49186 28.16 5.49186 28.3699 5.49186C28.7094 5.4722 29.0456 5.56923 29.3252 5.7676C29.444 5.86896 29.5377 5.99774 29.5987 6.1434C29.6596 6.28905 29.6861 6.44745 29.6759 6.60561C29.681 6.76543 29.6499 6.92429 29.585 7.06969C29.5202 7.2151 29.4234 7.34309 29.3021 7.44362C29.0038 7.66686 28.64 7.77862 28.2712 7.76029H27.5721L27.5658 5.55218ZM25.8042 12.2498H27.5658V9.06793H28.0907C28.3949 9.04435 28.6961 9.14325 28.9305 9.34367C29.1279 9.52248 29.2812 9.86931 29.3861 10.3605C29.4911 10.8517 29.5961 11.2696 29.6885 11.5927C29.7509 11.8171 29.8288 12.0367 29.9215 12.2498H31.7398C31.6201 11.9523 31.5267 11.6445 31.4606 11.3299C31.3556 10.899 31.2401 10.4316 31.1099 9.95333C31.0272 9.61853 30.8933 9.29932 30.7131 9.00761C30.5528 8.76211 30.3257 8.57033 30.0601 8.45612V8.4195C30.4286 8.27674 30.7543 8.0376 31.0049 7.72583C31.2915 7.37207 31.4502 6.92768 31.4543 6.46774C31.4634 6.13085 31.3995 5.79609 31.2674 5.48755C31.1464 5.20496 30.9579 4.95823 30.7194 4.77018C30.411 4.53379 30.0576 4.36645 29.6822 4.27901C29.1876 4.17551 28.6836 4.12712 28.1789 4.13468C27.7001 4.13468 27.2571 4.1476 26.8498 4.18207C26.4425 4.21654 26.1044 4.25316 25.8126 4.30271L25.8042 12.2498ZM19.667 8.81803L20.1331 7.11402C20.1919 6.87489 20.2612 6.61207 20.32 6.33633C20.3788 6.06058 20.4376 5.79776 20.4943 5.55864H20.5173C20.5761 5.79776 20.6349 6.06058 20.7042 6.33633C20.7735 6.61207 20.8449 6.87489 20.9142 7.11402L21.4034 8.8245L19.667 8.81803ZM21.6616 10.1817L22.2684 12.2519H24.1917L21.7435 4.18853H19.4108L17.0215 12.2498H18.8524L19.4129 10.1795L21.6616 10.1817Z" fill="white"/>
<path d="M79.1874 4.70332C79.2923 4.67962 79.4435 4.65592 79.6304 4.63223C79.8172 4.60853 80.0377 4.60853 80.2939 4.60853C80.8402 4.58112 81.3804 4.73689 81.8329 5.05231C82.2297 5.35175 82.4271 5.81707 82.4397 6.45258C82.4523 7.08808 82.2423 7.59002 81.8455 7.92393C81.4486 8.25784 80.9006 8.42588 80.1889 8.42588C79.9915 8.42588 79.8151 8.41295 79.6409 8.40218C79.4856 8.38965 79.3326 8.35708 79.1853 8.30524L79.1874 4.70332ZM78.6268 12.2432H79.1874V8.79641C79.3325 8.83713 79.4807 8.86523 79.6304 8.88043C79.7941 8.89335 79.9558 8.89335 80.1427 8.89335C80.593 8.90343 81.0413 8.82896 81.4654 8.67362C81.8404 8.53646 82.1765 8.30631 82.4439 8.00364C82.6252 7.80399 82.7639 7.56774 82.8512 7.30997C82.9488 7.01305 82.9963 6.70125 82.9919 6.38795C82.995 6.08041 82.9393 5.77522 82.8281 5.48962C82.7333 5.23083 82.5817 4.99789 82.3851 4.80888C82.1424 4.58236 81.8543 4.41322 81.541 4.3134C81.145 4.18698 80.7317 4.12661 80.317 4.13459C80.0091 4.13096 79.7012 4.14679 79.3952 4.18199C79.1365 4.20215 78.8792 4.23812 78.6247 4.2897L78.6268 12.2432ZM71.3285 4.18845V9.09154C71.339 9.90585 71.4566 10.5629 71.7022 11.0411C71.9058 11.4794 72.2405 11.8394 72.6575 12.0687C73.0569 12.2805 73.5014 12.3871 73.9509 12.3789C74.4278 12.3841 74.899 12.2734 75.3262 12.0558C75.7657 11.8095 76.1201 11.4294 76.3403 10.9679C76.622 10.3513 76.758 9.67524 76.7371 8.9946V4.18845H76.1765V9.05277C76.166 10.033 75.9665 10.7503 75.5697 11.207C75.3691 11.4347 75.1217 11.6139 74.8454 11.7316C74.5691 11.8493 74.2707 11.9027 73.9719 11.8878C73.6938 11.8999 73.4166 11.8482 73.1605 11.7364C72.9044 11.6246 72.6759 11.4555 72.4917 11.2415C72.1074 10.7999 71.8975 10.0696 71.8849 9.05277V4.18845H71.3285ZM66.4994 4.52236C67.0868 4.51167 67.6597 4.71039 68.1203 5.08462C68.5461 5.45481 68.8722 5.93104 69.0672 6.46766C69.4833 7.6201 69.4706 8.88952 69.0315 10.033C68.832 10.5666 68.4936 11.0338 68.0531 11.3837C67.5958 11.7339 67.0384 11.9187 66.4679 11.9093C65.8989 11.9164 65.3442 11.7267 64.8932 11.3707C64.4579 11.0201 64.1205 10.5579 63.9147 10.0308C63.6899 9.47729 63.575 8.88333 63.5767 8.2837C63.573 7.66302 63.6797 7.04686 63.8916 6.4655C64.0838 5.92392 64.4136 5.44492 64.847 5.07816C65.3177 4.70778 65.8979 4.51392 66.491 4.52882L66.4994 4.52236ZM66.5267 4.05058C65.8931 4.04642 65.2711 4.22481 64.7315 4.56545C64.1881 4.92357 63.7521 5.42913 63.4717 6.02603C63.1433 6.73265 62.9781 7.50741 62.9888 8.29016C62.9782 9.04264 63.1377 9.7874 63.4549 10.466C63.7199 11.0435 64.1409 11.5307 64.668 11.8699C65.195 12.209 65.8059 12.3857 66.428 12.3789C67.0512 12.3893 67.6645 12.2183 68.197 11.8859C68.7294 11.5534 69.1593 11.0731 69.4367 10.5004C69.7936 9.76534 69.9695 8.95172 69.949 8.13074C69.9259 6.86189 69.611 5.86877 68.9811 5.1514C68.6751 4.79278 68.2962 4.50738 67.871 4.31532C67.4458 4.12326 66.9848 4.02921 66.5204 4.03981L66.5267 4.05058ZM58.103 4.69686C58.208 4.67316 58.3486 4.64946 58.546 4.62577C58.7746 4.59926 59.0046 4.58703 59.2347 4.58914C59.7721 4.56136 60.3049 4.70348 60.7611 4.9963C61.146 5.27204 61.3441 5.71438 61.3553 6.32332C61.3622 6.56497 61.3167 6.80518 61.2219 7.02652C61.1271 7.24785 60.9855 7.44476 60.8073 7.60295C60.3909 7.93204 59.8754 8.10123 59.3502 8.0812H58.103V4.69686ZM57.5424 12.2368H58.103V8.55298H59.3271C59.7652 8.5436 60.1902 8.70619 60.5154 9.00753C60.8259 9.36845 61.0285 9.81342 61.0991 10.2893C61.2041 10.8042 61.2965 11.2221 61.3784 11.5582C61.4302 11.7961 61.504 12.0283 61.5989 12.2518H62.1699C62.0599 12.0145 61.974 11.7662 61.9138 11.5108C61.8319 11.1747 61.7164 10.6965 61.5883 10.076C61.516 9.67841 61.3653 9.30014 61.1453 8.96444C60.9629 8.68106 60.6919 8.46984 60.3769 8.36556V8.34186C60.8101 8.20234 61.1946 7.93664 61.4834 7.5771C61.7717 7.19398 61.9236 6.72112 61.9138 6.23715C61.9178 5.96219 61.8663 5.68935 61.7626 5.43577C61.6794 5.19936 61.5435 4.98617 61.3658 4.81319C61.128 4.57781 60.8406 4.40165 60.5259 4.29832C60.1086 4.17859 59.6764 4.12198 59.2431 4.13029C58.9506 4.12883 58.6583 4.14465 58.3675 4.17768C58.089 4.20046 57.8125 4.24438 57.5403 4.30909L57.5424 12.2368ZM56.1482 8.25569H53.7694V8.72317H55.5876V11.5689C55.3937 11.6675 55.1851 11.7323 54.9704 11.7607C54.6318 11.8243 54.2878 11.8524 53.9436 11.8447C52.8938 11.8318 52.0792 11.5215 51.4829 10.8882C50.8866 10.2548 50.5863 9.36944 50.5738 8.22122C50.5863 7.10963 50.9013 6.235 51.506 5.58872C52.1107 4.94244 52.9757 4.60853 54.0591 4.59561C54.3841 4.59217 54.7085 4.62395 55.027 4.69039C55.2747 4.73967 55.5143 4.82452 55.7388 4.94244L55.9257 4.47497C55.7001 4.36511 55.4635 4.2806 55.2202 4.22292C54.8524 4.14226 54.4773 4.10182 54.1011 4.10228C53.3146 4.08716 52.5381 4.28559 51.8503 4.67747C51.2594 5.03131 50.7782 5.54967 50.4625 6.17252C50.1511 6.81557 49.9914 7.52474 49.9964 8.24277C49.9902 8.84288 50.0927 9.43894 50.2987 10.0006C50.4633 10.4904 50.7362 10.9344 51.0961 11.2977C51.4561 11.661 51.8932 11.9338 52.3731 12.0946C52.8497 12.26 53.3503 12.3409 53.8534 12.3337C54.3234 12.3313 54.792 12.2793 55.2517 12.1786C55.5595 12.113 55.8605 12.0171 56.1503 11.8921L56.1482 8.25569Z" fill="white"/>
<path d="M-0.00375721 9.05495C-0.169627 4.31558 2.62077 0.119085 8.14066 0.00706341C9.25315 -0.00797179 10.3566 0.214016 11.3812 0.658987C12.4057 1.10396 13.3292 1.76223 14.0931 2.59217C12.7451 1.35347 10.7736 0.569325 8.57528 0.569325C4.51042 0.569325 1.21402 3.25138 1.21402 6.56032C1.21402 9.55473 3.91623 12.0364 7.44779 12.4802V17.1528C3.27585 16.8103 0.157913 13.3096 -0.00375721 9.05495Z" fill="#01A0C6"/>
<path d="M11.2227 12.1485C13.9837 11.2868 15.9426 9.10666 15.9426 6.5474C15.9429 6.14268 15.8935 5.73953 15.7956 5.34747C16.1961 6.4526 16.3517 7.63536 16.2511 8.80987C16.1505 9.98439 15.7962 11.1212 15.214 12.1377H11.2248" fill="#80C41C"/>
<path d="M1.91504 6.21342C1.91504 3.45166 4.66554 1.1983 8.06062 1.1983C11.4557 1.1983 14.2041 3.45166 14.2041 6.21342C14.2041 8.97518 11.4536 11.2264 8.06062 11.2264C4.66764 11.2264 1.91504 8.98164 1.91504 6.21342ZM2.6604 5.70717C2.6604 7.9239 4.71383 9.72055 7.24807 9.72055C9.78231 9.72055 11.8357 7.9239 11.8357 5.70717C11.8357 3.49043 9.78231 1.69163 7.25017 1.69163C4.71803 1.69163 2.6604 3.48828 2.6604 5.70501" fill="white"/>
</g>
<defs>
<clipPath id="clip0_463:1759">
<rect width="83" height="18" fill="white"/>
</clipPath>
</defs>
</svg>
