<svg width="79" height="19" viewBox="0 0 79 19" fill="none" xmlns="http://www.w3.org/2000/svg">
<path d="M0.0107422 8.90685C0.0159002 5.2286 2.97144 2.24749 6.61815 2.25269C10.2649 2.25789 13.2204 5.239 13.2152 8.91726C13.2101 12.5955 10.2545 15.5766 6.60783 15.5714C2.96628 15.5714 0.0107422 12.5903 0.0107422 8.91726C0.0107422 8.91206 0.0107422 8.91206 0.0107422 8.90685ZM1.37246 8.90685C1.37761 11.8307 3.72451 14.1979 6.6233 14.1927C9.5221 14.1875 11.869 11.8203 11.8638 8.89645C11.8587 5.97777 9.51179 3.61058 6.61815 3.61058C3.71935 3.61058 1.37246 5.97777 1.37246 8.90685C1.37246 8.90165 1.37246 8.90685 1.37246 8.90685Z" fill="white"/>
<path d="M5.4368 9.94733C4.86942 9.42707 3.93066 6.14941 3.93066 6.14941C3.93066 6.14941 6.99452 7.28879 7.57222 7.95473C8.08286 8.52702 8.08286 9.39585 7.57222 9.96814C6.96357 10.504 6.0506 10.504 5.44196 9.96814" fill="white"/>
<path d="M8.37109 17.9334H8.53099C13.4827 17.1426 16.8612 12.4498 16.072 7.45527C15.9276 6.5344 15.6439 5.64475 15.2364 4.81233L15.1797 4.69267L16.2113 4.28687L16.2577 4.38572C18.718 9.4947 16.6084 15.6442 11.5433 18.1259C10.6974 18.5421 9.79986 18.8334 8.87142 18.9999H8.77858L8.37109 17.9334Z" fill="#00AEEF"/>
<path d="M7.64941 1.49829C11.683 2.02896 14.525 5.75404 14.0041 9.8225C13.9061 10.5925 13.6843 11.3417 13.3593 12.044L13.3077 12.1585L14.6591 12.6787L14.7056 12.5799C16.2427 9.18778 15.536 5.19216 12.9312 2.54402" fill="#8DC63F"/>
<path d="M12.9263 2.56484C11.5336 1.14972 9.7025 0.249668 7.7373 0.020752L12.9263 2.56484Z" fill="#8DC63F"/>
<path d="M22.7516 11.2066L23.3086 13.0796H25.083L22.8238 5.7959H20.6781L18.4756 13.0796H20.1623L20.6781 11.2066H22.7516ZM20.9102 9.97361L21.3434 8.41282C21.395 8.19431 21.4518 7.96019 21.5136 7.71047C21.5704 7.46074 21.622 7.22142 21.6735 7.00291C21.7251 7.22142 21.7819 7.46074 21.8438 7.70526C21.9057 7.94979 21.9727 8.18911 22.0346 8.41282L22.4885 9.97361H20.9102Z" fill="white"/>
<path d="M26.5841 13.0689H28.2037V10.1866H28.6886C28.9671 10.1658 29.2456 10.2542 29.4623 10.4311C29.6841 10.6965 29.8285 11.019 29.8698 11.3624C29.9729 11.815 30.0709 12.1844 30.1483 12.4758C30.2102 12.6735 30.2772 12.8712 30.3598 13.0689H32.0361C31.9278 12.7983 31.8453 12.5226 31.7782 12.2416C31.6751 11.8462 31.5719 11.43 31.4584 10.993C31.3862 10.6913 31.2624 10.3999 31.0922 10.1398C30.9529 9.90567 30.7415 9.72358 30.4887 9.61952V9.58831C30.8343 9.46345 31.1386 9.25014 31.3707 8.9692C31.639 8.64663 31.7834 8.24083 31.7782 7.81941C31.7834 7.51766 31.7266 7.21071 31.6028 6.93497C31.4894 6.67484 31.314 6.45112 31.087 6.28464C30.8034 6.06613 30.4732 5.91525 30.1225 5.84762C29.6686 5.74877 29.2095 5.70194 28.7453 5.71235C28.3378 5.70194 27.9252 5.71755 27.5177 5.75917C27.1463 5.806 26.8265 5.82161 26.5635 5.86323L26.5841 13.0689ZM28.2037 7.0026C28.2914 6.97659 28.3791 6.96618 28.4719 6.96098H28.9465C29.2611 6.94017 29.5706 7.02862 29.8285 7.21071C30.0451 7.3928 30.1638 7.67374 30.1483 7.95989C30.1586 8.25644 30.0297 8.53738 29.8079 8.72467C29.5293 8.92757 29.1889 9.02642 28.8485 9.00561H28.2037V7.0026Z" fill="white"/>
<path d="M37.3282 11.2065L37.8956 13.0795H39.6647L37.4159 5.7854H35.2701L33.0625 13.0691H34.7492L35.265 11.1961L37.3282 11.2065ZM35.4919 9.97352L35.9304 8.41273C35.9819 8.19422 36.0387 7.9601 36.1006 7.71037C36.1521 7.46065 36.2089 7.22133 36.2605 7.00282C36.3172 7.22133 36.3739 7.46065 36.4358 7.70517C36.4977 7.94969 36.5648 8.18901 36.6267 8.41273L37.0806 9.97352H35.4919Z" fill="white"/>
<path d="M41.1611 13.0691C41.3571 13.1004 41.6099 13.1264 41.9194 13.1472C42.2288 13.168 42.5951 13.1784 43.018 13.1784C43.6679 13.1836 44.3127 13.1056 44.9419 12.9495C45.4629 12.8142 45.9478 12.5697 46.3707 12.2367C46.7369 11.9194 47.0258 11.524 47.2218 11.0817C47.459 10.5199 47.5777 9.91115 47.5622 9.30244C47.5777 8.73536 47.4642 8.16827 47.2321 7.65321C47.0464 7.21099 46.7472 6.82079 46.3707 6.52424C46.0045 6.2485 45.5867 6.0508 45.1431 5.94154C44.5706 5.79587 43.9774 5.72824 43.3842 5.74384C42.9922 5.73344 42.6002 5.74905 42.2082 5.79067C41.8317 5.83749 41.4912 5.8583 41.1766 5.91033L41.1611 13.0691ZM42.7911 7.07572C42.8839 7.05491 42.9819 7.0393 43.0799 7.0341C43.2295 7.02369 43.3842 7.02369 43.5338 7.0341C44.6634 6.88842 45.7002 7.69483 45.8446 8.83421C45.8446 8.84981 45.8498 8.87062 45.8498 8.88623C45.8652 9.03711 45.8652 9.18278 45.8498 9.33366C45.8962 10.0464 45.6486 10.7436 45.1741 11.269C44.6789 11.7061 44.029 11.9298 43.3739 11.8881H43.0902C43.0025 11.8829 42.9149 11.8725 42.8272 11.8569L42.7911 7.07572Z" fill="white"/>
<path d="M54.4939 12.684C53.8698 12.9233 53.2096 13.0378 52.5442 13.017C50.481 13.017 48.9336 11.7735 48.9336 9.48437C48.9336 7.29927 50.481 5.84253 52.7763 5.84253C53.3746 5.81652 53.973 5.92057 54.5249 6.14949L54.2979 6.88826C53.8285 6.68536 53.3231 6.58651 52.8124 6.59691C51.0845 6.59691 49.9394 7.63744 49.9394 9.47917C49.9394 11.1908 50.971 12.2886 52.7608 12.2886C53.2921 12.2938 53.8182 12.1949 54.3082 11.9972L54.4939 12.684Z" fill="white"/>
<path d="M56.826 5.93091V8.84958H60.3902V5.93091H61.3496V12.9128H60.3902V9.64038H56.826V12.9128H55.877V5.93091H56.826Z" fill="white"/>
<path d="M64.1502 5.93091H63.2012V12.918H64.1502V5.93091Z" fill="white"/>
<path d="M66.0117 12.9128V5.93091H67.0433L69.4057 9.46349C69.8957 10.1867 70.3341 10.9462 70.7261 11.7318C70.6384 10.8006 70.6178 9.94734 70.6178 8.85999V5.93091H71.5153V12.9128H70.5508L68.209 9.36985C67.7035 8.62067 67.2445 7.84548 66.837 7.03907H66.8164C66.8628 7.91831 66.8937 8.75594 66.8937 9.92133V12.9024L66.0117 12.9128Z" fill="white"/>
<path d="M77.0033 10.0203L76.2864 8.00165C76.1368 7.58544 76.013 7.15882 75.9047 6.727C75.7912 7.14321 75.6674 7.56463 75.5333 7.99124L74.7854 10.0203H77.0033ZM74.5894 10.7278L73.8208 12.9233H72.8408L75.3373 5.94141H76.4824L78.9995 12.9233H77.9679L77.1787 10.7278H74.5894Z" fill="white"/>
</svg>
