<svg width="74" height="16" viewBox="0 0 74 16" fill="none" xmlns="http://www.w3.org/2000/svg">
<g clip-path="url(#clip0_506:1142)">
<path d="M14.5484 10.056L15.4127 9.06627L10.865 7.79381L10.6851 6.99263L13.6667 4.04712L13.4463 2.7452L9.53659 5.62002L8.95652 5.31958L8.56207 0.995573L7.40192 0.365234L7.17569 5.26656L6.59562 5.56111L3.02237 3.1399L1.82741 3.64064L5.37167 6.81001L5.18604 7.62886L1.24154 8.96023L0.887695 10.2327L5.38327 9.38438L5.96334 10.1443L4.57696 13.9617L5.33686 15.0339L7.45993 11.0044H8.48086L10.5111 14.4271L11.8163 14.4978L10.0007 10.2916L10.5807 9.53755L14.5484 10.056ZM7.9936 9.16052C7.33231 9.16641 6.79865 8.62444 6.79285 7.95286C6.78705 7.28129 7.32071 6.73931 7.982 6.73342C8.64328 6.72753 9.17695 7.26951 9.18275 7.94108C9.18275 7.95286 9.18275 7.97054 9.18275 7.98232C9.16535 8.63622 8.63748 9.16052 7.9936 9.16052Z" fill="white"/>
<path d="M15.9635 8.06468C15.9635 8.06468 13.8172 7.92329 12.8311 7.31063C12.8311 7.31063 14.7859 6.6096 14.7511 4.80106C14.7511 4.47705 14.7511 4.3769 14.8787 4.32977C15.1107 4.2473 15.2094 4.53007 15.2094 4.53007C15.6386 5.66114 15.8938 6.85113 15.9635 8.06468Z" fill="#34C3DE"/>
<path d="M12.8137 1.46682C12.8137 1.46682 11.4273 3.14576 10.36 3.58169C10.36 3.58169 10.9401 1.57285 9.5073 0.553708C9.24626 0.365196 9.17666 0.282721 9.21146 0.170792C9.28687 -0.0766305 9.5653 0.0176257 9.5653 0.0176257C10.7139 0.335741 11.8102 0.836477 12.8137 1.49627" fill="#34C3DE"/>
<path d="M5.71397 0.135498C5.71397 0.135498 6.22443 2.26215 5.93439 3.39912C5.93439 3.39912 4.69884 1.71429 3.03403 2.28572C2.72659 2.39176 2.62217 2.39765 2.55256 2.28572C2.40755 2.08542 2.63958 1.90869 2.63958 1.90869C3.5793 1.16643 4.62343 0.571433 5.73717 0.141389" fill="#34C3DE"/>
<path d="M0.580346 4.81299C0.580346 4.81299 2.52939 5.74966 3.21388 6.68633C3.21388 6.68633 1.14302 6.60975 0.522338 8.29458C0.412124 8.60091 0.354117 8.68928 0.226501 8.68339C-0.0171303 8.68339 0.00027191 8.37705 0.00027191 8.37705C0.0176741 7.17529 0.209098 5.9853 0.580346 4.84244" fill="#34C3DE"/>
<path d="M0.852422 11.6465C0.852422 11.6465 2.81307 10.7393 3.96162 10.8159C3.96162 10.8159 2.56944 12.3711 3.43955 13.944C3.59617 14.2268 3.62517 14.3328 3.53816 14.4212C3.43375 14.5213 3.26553 14.5213 3.16112 14.4212C2.2562 13.6318 1.4731 12.701 0.84082 11.6701" fill="#34C3DE"/>
<path d="M6.69416 15.9469C6.69416 15.9469 7.14082 13.8026 7.88331 12.9189C7.88331 12.9189 8.28936 14.9867 10.0528 15.2047C10.3718 15.2459 10.4704 15.2812 10.4936 15.4108C10.54 15.6524 10.25 15.7054 10.25 15.7054C9.07826 15.9764 7.87171 16.0647 6.67676 15.9587" fill="#34C3DE"/>
<path d="M13.2781 14.0087C13.2781 14.0087 11.9323 12.3003 11.7119 11.1516C11.7119 11.1516 13.5391 12.1412 14.8269 10.8865C15.0531 10.6626 15.1518 10.6155 15.2562 10.6685C15.4708 10.7922 15.3316 11.0514 15.3316 11.0514C14.7979 12.1354 14.1076 13.1309 13.2781 13.9969" fill="#34C3DE"/>
<path d="M26.4687 13.5258C25.5986 13.7909 24.6937 13.9146 23.7888 13.8851C21.5613 14.0029 19.6529 12.2769 19.5194 10.0147C19.5078 9.90279 19.5078 9.79086 19.5194 9.67893C19.5194 6.65094 21.9035 4.22974 25.3608 4.22974C26.3411 4.2533 27.304 4.4536 28.2148 4.81884L27.5245 7.11044C26.898 6.80411 26.2077 6.63327 25.5116 6.62149C23.8932 6.62149 22.7505 7.67598 22.7505 9.567C22.7563 10.6804 23.6496 11.5758 24.7459 11.5699C24.7517 11.5699 24.7517 11.5699 24.7575 11.5699H24.8967C25.5928 11.5817 26.2831 11.4403 26.9212 11.1635L26.4687 13.5258Z" fill="white"/>
<path d="M30.0015 4.47128H33.1629L31.2893 13.673H28.1221L30.0015 4.47128ZM30.8078 0.63623H33.9692L33.482 2.99264H30.3031L30.8078 0.63623Z" fill="white"/>
<path d="M40.9532 13.5258C40.0831 13.7909 39.1782 13.9146 38.2733 13.8851C36.04 14.0029 34.1373 12.271 34.0039 10.0088C34.0039 9.89689 34.0039 9.79086 34.0039 9.67893C34.0039 6.65094 36.388 4.22974 39.8453 4.22974C40.8198 4.2533 41.7885 4.4477 42.6934 4.81884L42.0147 7.11044C41.3824 6.80411 40.698 6.63327 39.9961 6.62149C38.3777 6.62149 37.2291 7.67598 37.2291 9.567C37.2407 10.6863 38.1456 11.5817 39.2478 11.5699H39.387C40.0831 11.5817 40.7676 11.4403 41.4056 11.1635L40.9532 13.5258Z" fill="white"/>
<path d="M48.5174 12.4123L48.4826 12.377V12.4123C47.7923 13.4138 46.638 13.9852 45.4372 13.9146C43.494 13.9146 42.415 13.0309 42.415 11.2459C42.415 8.98377 44.6367 7.87037 47.4037 7.87037C47.9837 7.87037 48.6566 7.92928 49.0917 7.96463C49.1207 7.84091 49.1323 7.7172 49.1265 7.5876C49.1265 6.9337 48.4826 6.4094 47.4559 6.4094C46.4291 6.37405 45.414 6.62147 44.5207 7.1281L44.8049 4.75402C45.8781 4.38878 46.9976 4.21205 48.1288 4.22972C50.2866 4.22972 52.0559 5.0957 52.0559 7.35196C52.0559 8.80115 51.2612 10.8866 50.8957 13.6377H48.3376L48.5174 12.4123ZM46.4292 11.8232C47.6589 11.835 48.6914 10.8925 48.8133 9.64946C48.5348 9.60822 48.2564 9.59055 47.9779 9.59644C46.4872 9.54342 45.3908 10.0913 45.3908 10.9042C45.4372 11.4521 45.9071 11.8586 46.4466 11.8232" fill="white"/>
<path d="M53.3145 11.2343C54.115 11.5818 54.9793 11.7645 55.8552 11.7645C56.3599 11.7645 57.5954 11.7114 57.5954 10.9456C57.5954 9.6437 53.8598 10.3094 53.8598 7.2814C53.8598 5.12529 56.3251 4.25342 58.4307 4.25342C59.4459 4.28876 60.4436 4.47139 61.4065 4.80128L60.7452 6.88081C59.9563 6.53913 59.1036 6.36829 58.2451 6.37418C57.5432 6.37418 56.7833 6.52735 56.7833 7.16358C56.7833 8.18862 60.693 8.12382 60.693 10.4331C60.693 12.7424 58.7962 13.8381 56.4469 13.8793C55.1649 13.8911 53.883 13.7321 52.6416 13.3963L53.3145 11.2343Z" fill="white"/>
<path d="M67.8397 12.4125L67.7991 12.3772V12.4125C67.1088 13.414 65.9544 13.9854 64.7537 13.9147C62.8104 13.9147 61.7373 13.0311 61.7373 11.2461C61.7373 8.98394 63.959 7.87054 66.7259 7.87054C67.3466 7.87054 67.9731 7.92945 68.4082 7.9648C68.4372 7.84109 68.4488 7.71737 68.443 7.58777C68.443 6.93387 67.7991 6.40957 66.7781 6.40957C65.7514 6.37422 64.7363 6.62165 63.8372 7.12827L64.1504 4.8131C65.2177 4.44786 66.3431 4.27113 67.4684 4.2888C69.6263 4.2888 71.4013 5.15478 71.4013 7.41104C71.4013 8.86023 70.6008 10.9457 70.2412 13.6968H67.6831L67.8397 12.4125ZM65.7514 11.8234C66.9812 11.8293 68.0079 10.8867 68.1355 9.64963C67.8571 9.60839 67.5786 9.59072 67.3002 9.59661C65.8036 9.54359 64.7131 10.0915 64.7131 10.9044C64.7653 11.4523 65.2351 11.8588 65.7746 11.8234" fill="white"/>
<path d="M72.1211 13.137C72.1211 12.6127 72.5445 12.1826 73.0608 12.1826C73.5771 12.1826 74.0005 12.6127 74.0005 13.137C74.0005 13.6613 73.5771 14.0913 73.0608 14.0913C72.5445 14.0854 72.1269 13.6613 72.1211 13.137ZM73.7627 13.137C73.7569 12.7187 73.4147 12.3888 73.0086 12.4006C72.5968 12.4065 72.2719 12.754 72.2835 13.1664C72.2893 13.5847 72.6316 13.9146 73.0376 13.9028C73.4379 13.8969 73.7569 13.567 73.7627 13.1664V13.137ZM72.6954 12.595H73.0898C73.345 12.595 73.4843 12.6834 73.4843 12.9072C73.4959 13.0545 73.3914 13.1841 73.2464 13.1959C73.2348 13.2018 73.2174 13.2018 73.2058 13.1959L73.4901 13.673H73.2928L73.0086 13.2077H72.91V13.673H72.707L72.6954 12.595ZM72.8984 13.0545H73.0724C73.1826 13.0545 73.287 13.0545 73.287 12.8954C73.287 12.7364 73.171 12.7423 73.0724 12.7423H72.91L72.8984 13.0545Z" fill="white"/>
</g>
<defs>
<clipPath id="clip0_506:1142">
<rect width="74" height="16" fill="white"/>
</clipPath>
</defs>
</svg>
