<svg width="26" height="23" viewBox="0 0 26 23" fill="none" xmlns="http://www.w3.org/2000/svg">
<path d="M11.6999 6.90005C11.6999 5.06005 12.7399 3.45005 14.2999 2.30005H12.9999C7.9299 2.30005 3.8999 3.33505 3.8999 4.60005C3.8999 5.75005 7.2799 6.67005 11.6999 6.90005Z" fill="#1356A7"/>
<path d="M16.6399 12.42C15.4699 12.535 14.1699 12.65 12.9999 12.65C7.9299 12.65 3.8999 11.615 3.8999 10.35V13.8C3.8999 15.065 7.9299 16.1 12.9999 16.1C18.0699 16.1 22.0999 15.065 22.0999 13.8V11.5C20.9299 12.305 19.6299 12.65 18.1999 12.65C17.6799 12.65 17.1599 12.535 16.6399 12.42Z" fill="#1356A7"/>
<path d="M12.9999 17.25C7.9299 17.25 3.8999 16.215 3.8999 14.95V18.4C3.8999 19.665 7.9299 20.7 12.9999 20.7C18.0699 20.7 22.0999 19.665 22.0999 18.4V14.95C22.0999 16.215 18.0699 17.25 12.9999 17.25Z" fill="#1356A7"/>
<path d="M12.9999 11.5H14.2999C12.9999 10.695 12.0899 9.43 11.8299 8.05C7.4099 7.935 3.8999 6.9 3.8999 5.75V9.2C3.8999 10.465 7.9299 11.5 12.9999 11.5Z" fill="#1356A7"/>
<path d="M18.2 11.3851C21.0719 11.3851 23.4 9.32557 23.4 6.78506C23.4 4.24455 21.0719 2.18506 18.2 2.18506C15.3281 2.18506 13 4.24455 13 6.78506C13 9.32557 15.3281 11.3851 18.2 11.3851Z" fill="#89D360"/>
<path d="M15.2098 6.44006L17.4198 8.39506L21.1898 5.06006L22.0998 5.86506L17.4198 10.0051L14.2998 7.24506L15.2098 6.44006Z" fill="white"/>
</svg>
