<svg width="22" height="22" viewBox="0 0 22 22" fill="none" xmlns="http://www.w3.org/2000/svg">
<path d="M11 12.375C11.7594 12.375 12.375 11.7594 12.375 11C12.375 10.2406 11.7594 9.625 11 9.625C10.2406 9.625 9.625 10.2406 9.625 11C9.625 11.7594 10.2406 12.375 11 12.375Z" fill="white"/>
<path d="M20.625 11.6875V10.3125H16.3831L18.1569 8.53187L17.1875 7.5625L13.75 11L17.1875 14.4375L18.1569 13.4681L16.3831 11.6875H20.625Z" fill="white"/>
<path d="M10.3125 16.3831V20.625H11.6875V16.3831L13.4681 18.1569L14.4375 17.1875L11 13.75L7.5625 17.1875L8.53187 18.1569L10.3125 16.3831Z" fill="white"/>
<path d="M4.8125 7.5625L3.84313 8.53187L5.61688 10.3125H1.375V11.6875H5.61688L3.84313 13.4681L4.8125 14.4375L8.25 11L4.8125 7.5625Z" fill="white"/>
<path d="M11.6875 5.61688V1.375H10.3125V5.61688L8.53187 3.84313L7.5625 4.8125L11 8.25L14.4375 4.8125L13.4681 3.84313L11.6875 5.61688Z" fill="white"/>
</svg>
