<svg width="24" height="23" viewBox="0 0 24 23" fill="none" xmlns="http://www.w3.org/2000/svg">
<path d="M10.8 6.89999C10.8 5.05999 11.76 3.44999 13.2 2.29999H12C7.32 2.29999 3.60001 3.33499 3.60001 4.59999C3.60001 5.74999 6.72 6.66999 10.8 6.89999Z" fill="#1356A7"/>
<path d="M15.36 12.42C14.28 12.535 13.08 12.65 12 12.65C7.32001 12.65 3.60001 11.615 3.60001 10.35V13.8C3.60001 15.065 7.32001 16.1 12 16.1C16.68 16.1 20.4 15.065 20.4 13.8V11.5C19.32 12.305 18.12 12.65 16.8 12.65C16.32 12.65 15.84 12.535 15.36 12.42Z" fill="#1356A7"/>
<path d="M12 17.25C7.32001 17.25 3.60001 16.215 3.60001 14.95V18.4C3.60001 19.665 7.32001 20.7 12 20.7C16.68 20.7 20.4 19.665 20.4 18.4V14.95C20.4 16.215 16.68 17.25 12 17.25Z" fill="#1356A7"/>
<path d="M12 11.5H13.2C12 10.695 11.16 9.43 10.92 8.05C6.84001 7.935 3.60001 6.9 3.60001 5.75V9.2C3.60001 10.465 7.32 11.5 12 11.5Z" fill="#1356A7"/>
<path d="M16.8 11.385C19.451 11.385 21.6 9.32551 21.6 6.785C21.6 4.24449 19.451 2.185 16.8 2.185C14.149 2.185 12 4.24449 12 6.785C12 9.32551 14.149 11.385 16.8 11.385Z" fill="#89D360"/>
<path d="M14.04 6.44L16.08 8.395L19.56 5.06L20.4 5.865L16.08 10.005L13.2 7.245L14.04 6.44Z" fill="white"/>
</svg>
