<svg width="9" height="12" viewBox="0 0 9 12" fill="none" xmlns="http://www.w3.org/2000/svg">
<path d="M0.843564 10.5625H8.15606C8.31046 10.5625 8.45908 10.6212 8.57189 10.7266C8.68471 10.832 8.75331 10.9763 8.76384 11.1303C8.77436 11.2844 8.72602 11.4367 8.62859 11.5564C8.53116 11.6762 8.39189 11.7545 8.23894 11.7756L8.15606 11.7812H0.843564C0.68917 11.7812 0.54055 11.7226 0.427733 11.6171C0.314917 11.5117 0.246317 11.3674 0.235793 11.2134C0.22527 11.0594 0.273608 10.9071 0.371041 10.7873C0.468473 10.6676 0.607736 10.5892 0.760689 10.5682L0.843564 10.5625H8.15606H0.843564ZM4.41694 0.818187L4.49981 0.8125C4.64707 0.812506 4.78934 0.865835 4.90032 0.962623C5.0113 1.05941 5.08347 1.19311 5.1035 1.339L5.10919 1.42188V7.66837L6.94138 5.837C7.0447 5.73371 7.1817 5.67098 7.32741 5.66024C7.47312 5.6495 7.61784 5.69147 7.73519 5.7785L7.80344 5.837C7.90673 5.94033 7.96946 6.07733 7.9802 6.22304C7.99094 6.36874 7.94897 6.51346 7.86194 6.63081L7.80344 6.69906L4.93044 9.57125C4.82726 9.67445 4.69047 9.7372 4.54495 9.74808C4.39942 9.75897 4.25482 9.71727 4.13744 9.63056L4.06919 9.57125L1.19619 6.69906C1.08716 6.59033 1.02333 6.44435 1.01755 6.29048C1.01176 6.1366 1.06444 5.98624 1.165 5.86963C1.26556 5.75301 1.40653 5.67879 1.55959 5.66189C1.71264 5.64498 1.86642 5.68664 1.99 5.7785L2.05825 5.837L3.89044 7.67V1.42188C3.89045 1.27462 3.94377 1.13235 4.04056 1.02137C4.13735 0.910391 4.27105 0.838214 4.41694 0.818187L4.49981 0.8125L4.41694 0.818187Z" fill="white"/>
</svg>
