<svg width="88" height="69" viewBox="0 0 88 69" fill="none" xmlns="http://www.w3.org/2000/svg">
<path fill-rule="evenodd" clip-rule="evenodd" d="M75.673 33.5952V33.3023H75.9299C76.1165 33.3023 76.2115 33.3543 76.2115 33.4474C76.2115 33.5213 76.1482 33.5952 75.9616 33.5952H75.673ZM76.5882 34.2003L76.4298 33.9868C76.2925 33.8006 76.2538 33.7705 76.1376 33.7376V33.7321C76.3699 33.7102 76.5072 33.5952 76.5072 33.4337C76.5072 33.264 76.3699 33.1353 76.0778 33.1353H75.3984V34.1976H75.673V33.7623H75.7258C75.8455 33.7623 75.8947 33.7732 75.9511 33.817C76.0074 33.8608 76.0883 33.9512 76.1376 34.0251L76.2467 34.2003H76.5882ZM75.9792 32.8615C76.5495 32.8615 77.0141 33.2202 77.0176 33.6664C77.0176 34.1099 76.553 34.4741 75.9792 34.4741C75.4055 34.4741 74.9443 34.1127 74.9443 33.6664C74.9479 33.2202 75.409 32.8615 75.9792 32.8615V32.6644C75.2682 32.6644 74.6909 33.1107 74.6909 33.6664C74.6909 34.2195 75.2647 34.6685 75.9792 34.6685C76.6903 34.6685 77.2675 34.2222 77.2675 33.6664C77.2675 33.1134 76.6938 32.6644 75.9792 32.6644V32.8615Z" fill="white"/>
<path fill-rule="evenodd" clip-rule="evenodd" d="M30.3072 27.8897H32.3664V26.3785C32.2503 25.6913 31.4829 24.7988 30.1277 24.7988H19.3565C18.7686 24.7988 17.3536 25.1876 17.3536 26.2416V32.9957C17.3536 33.5213 18.0611 34.1401 19.3565 34.1401H30.3072C31.4266 34.1401 32.3664 33.546 32.3664 32.7904V29.5625H24.5379V31.0957H30.3072V32.6754H19.3565V26.3566H30.3072V27.8897ZM47.3475 27.8678H49.3504V26.4469C49.3504 25.6229 48.6147 24.7988 47.3475 24.7988H37.6922C36.8087 24.7988 35.5731 25.3245 35.5731 26.4469V28.3251C35.5731 29.401 36.8403 29.8363 37.6922 29.8828L47.3475 30.3401V32.6535H37.6922V31.2107H35.5731V32.6535C35.5731 33.2941 35.9709 34.2222 37.5901 34.2222H47.3475C48.5549 34.2222 49.3504 33.6391 49.3504 32.6535V30.0882C49.3504 29.2641 48.1712 28.8069 47.3475 28.7385L37.6922 28.3497V26.4469H47.3475V27.8678ZM52.529 34.1401H54.7677V26.4469H61.3325V34.1401H63.5712V26.4469H70.312V34.1401H72.5507V26.4469C72.5507 25.8063 72.1671 24.7988 70.312 24.7988H54.7712C53.5639 24.7988 52.5325 25.4175 52.5325 26.4469L52.529 34.1401Z" fill="white"/>
</svg>
