<svg width="22" height="22" viewBox="0 0 22 22" fill="none" xmlns="http://www.w3.org/2000/svg">
<g clip-path="url(#clip0_404:141)">
<path d="M17.611 0.0262521C15.9415 -0.112517 13.728 0.994252 12.6923 1.95633C11.418 3.23064 11.6262 4.89671 12.639 6.50525L10.8418 8.30333L12.111 9.73079C12.7879 9.13848 13.7864 9.13848 14.4633 9.73079L14.8077 10.0743L14.8872 10.1539L15.6276 9.41348C17.1575 10.3129 18.7499 10.4424 19.9642 9.22818C21.1488 8.12817 22.4332 5.41541 21.8409 3.80771L19.4615 6.26664C19.1231 6.6051 18.6103 6.6051 18.2718 6.26664L15.8121 3.80771C15.7319 3.73079 15.668 3.63844 15.6244 3.53622C15.5808 3.43399 15.5584 3.324 15.5584 3.21287C15.5584 3.10173 15.5808 2.99174 15.6244 2.88952C15.668 2.78729 15.7319 2.69494 15.8121 2.61802L18.2727 0.159098C18.0612 0.0846367 17.8496 0.0465598 17.611 0.0262521ZM10.8418 8.30333L5.23515 13.6443C4.90546 13.571 4.56849 13.5355 4.23077 13.5385C1.86154 13.5385 0 15.4 0 17.7693C0 20.1385 1.86154 22 4.23077 22C6.6 22 8.46154 20.1385 8.46154 17.7693C8.46154 17.3352 8.393 16.918 8.27623 16.5263L14.8872 10.1539L14.8077 8.46148C14.1308 7.78456 12.5231 9.13925 13.1154 8.46148L10.8418 8.30333ZM4.81292 15.5735L6.42569 17.1871L5.84354 19.3812L3.64946 19.9633L2.03585 18.3497L2.618 16.1556L4.81292 15.5735Z" fill="white"/>
</g>
<defs>
<clipPath id="clip0_404:141">
<rect width="22" height="22" fill="white"/>
</clipPath>
</defs>
</svg>
