<svg width="48" height="16" viewBox="0 0 48 16" fill="none" xmlns="http://www.w3.org/2000/svg">
<g clip-path="url(#clip0_506:1031)">
<path d="M0 0.0849609V7.45469L3.67506 0.330461L7.44623 7.48301L11.1945 0.302134L14.9931 7.42164V0.0849609H0Z" fill="white"/>
<path d="M0.0478516 12.1806L3.75037 4.88165L7.49865 12.0909L11.2424 4.8486L15.041 12.1192V11.1986L11.2424 3.92798L7.49865 11.1702L3.75037 3.95631L0.0478516 11.2599V12.1806Z" fill="white"/>
<path d="M0.0478516 15.9858L3.77325 8.68222L7.52154 15.7073L11.2698 8.64917L15.1142 15.9858H0.0478516Z" fill="white"/>
<path d="M16.1973 7.84654V0.0849609H18.211L19.5108 5.18381H19.5337L20.8334 0.0849609H22.8472V7.84654H21.616V1.73737H21.5977L20.0645 7.84654H18.9799L17.4467 1.73737H17.4284V7.84654H16.1973Z" fill="white"/>
<path d="M23.2314 7.84654L25.0987 0.0849609H26.9294L28.76 7.84654H27.3871L27.0346 6.21302H25.0301L24.6227 7.84654H23.2314ZM25.2864 4.89582H26.696L25.9912 1.76097L25.2864 4.89582Z" fill="white"/>
<path d="M31.831 2.26143C31.6021 1.53437 31.3092 1.21806 30.8424 1.21806C30.4397 1.20861 30.101 1.53437 30.0918 1.95456C30.0918 1.99705 30.0918 2.03482 30.0964 2.07258C30.0964 3.24343 33.117 3.32841 33.117 5.75509C33.117 7.09117 32.2795 7.96931 30.8607 7.96931C29.7623 7.96931 28.9111 7.31307 28.5449 5.78814L29.8813 5.47182C30.0369 6.41605 30.5266 6.74181 30.9385 6.74181C31.3916 6.73709 31.7577 6.35467 31.7532 5.88728C31.7532 5.86367 31.7532 5.84479 31.7532 5.82118C31.7532 4.36707 28.7326 4.33874 28.7326 2.18589C28.7326 0.849805 29.4603 -3.14135e-06 30.8516 -3.14135e-06C31.9362 -0.0330512 32.8744 0.778988 33.0255 1.88846L31.831 2.26143Z" fill="white"/>
<path d="M38.0408 0.0849609V1.39744H36.3657V7.84654H34.9287V1.39744H33.249V0.0849609H38.0408Z" fill="white"/>
<path d="M38.5176 7.84654V0.0849609H42.6091V1.39744H40.1057V3.18204H42.0096V4.49452H40.1057V6.53406H42.6091V7.84654H38.5176Z" fill="white"/>
<path d="M46.4808 7.84654L45.2314 4.68337H44.5266V7.84654H43.085V0.0849609H45.1719C46.9019 0.0849609 47.7257 0.944212 47.7257 2.40305C47.7257 3.37089 47.3733 4.06962 46.5907 4.38593L48.0003 7.84654H46.4808ZM44.5449 3.47947H45.2863C45.7898 3.54557 46.2474 3.17732 46.3069 2.65799C46.3161 2.56829 46.3161 2.47859 46.3023 2.38889C46.3756 1.87428 46.0323 1.39272 45.5335 1.31718C45.4511 1.30302 45.3687 1.30302 45.2863 1.31246H44.5449V3.47947Z" fill="white"/>
<path d="M16.1973 15.9858V8.69165H18.2705L19.6893 13.4789H19.7076L21.1263 8.69165H23.1996V15.9858H21.9318V10.2449H21.9089L20.2568 15.9858H19.1401L17.4879 10.2449H17.465V15.9858H16.1973Z" fill="white"/>
<path d="M36.2242 8.69165V9.92387H33.7574V15.9858H32.2425V9.92387H29.7803V8.69165H36.2242Z" fill="white"/>
<path d="M24.0781 15.9858V8.69165H29.0575V9.92387H25.6479V11.5952H28.4076V12.8321H25.6479V14.7536H29.0438V15.9858H24.0781Z" fill="white"/>
<path d="M36.9336 15.9858V8.69165H41.913V9.92387H38.4988V11.5952H41.2585V12.8321H38.4988V14.7536H41.8947V15.9858H36.9336Z" fill="white"/>
<path d="M46.4628 15.9811L45.2134 13.0115H44.2339V15.9811H42.7969V8.70581H45.1722C46.9021 8.70581 47.7214 9.51785 47.7214 10.887C47.7214 11.7982 47.3918 12.4544 46.5864 12.7471L47.996 16L46.4628 15.9811ZM44.2339 11.8643H45.2545C45.7946 11.902 46.266 11.4818 46.3026 10.92C46.3392 10.3629 45.9319 9.87666 45.3873 9.83889C45.3415 9.83417 45.2957 9.83417 45.2545 9.83889H44.2339V11.8643Z" fill="white"/>
</g>
<defs>
<clipPath id="clip0_506:1031">
<rect width="48" height="16" fill="white"/>
</clipPath>
</defs>
</svg>
