<svg width="66" height="52" viewBox="0 0 66 52" fill="none" xmlns="http://www.w3.org/2000/svg">
<path d="M23.8693 28.1861H29.3963L29.3862 29.7765H22.6647C22.4117 29.7765 22.1788 29.7135 21.9865 29.5954C21.7942 29.4694 21.6727 29.2962 21.6322 29.0836L19.7393 18.7619L15.7104 29.1466C15.5788 29.5639 15.2347 29.7686 14.7184 29.7686C14.4957 29.7686 14.2831 29.7056 14.0807 29.6033C13.8883 29.493 13.7466 29.3277 13.6859 29.1466L9.69754 18.7697L7.75398 29.0915C7.73374 29.186 7.62239 29.4537 7.40981 29.5875C7.19723 29.7292 6.89355 29.7686 6.62024 29.7686H3.04692C1.77146 29.7371 1.80183 28.1703 3.02668 28.1703H5.36502C5.61809 28.1703 5.86104 28.0365 5.90153 27.8318L8.12852 17.8801C8.12852 17.8801 8.36134 17.2423 8.6549 17.0534C8.94846 16.8565 9.27239 16.7621 9.64693 16.7621C10.0012 16.7621 10.3353 16.8408 10.5985 16.9904C10.8718 17.14 11.0641 17.3604 11.1451 17.636L14.6779 26.9579H14.7184L18.2411 17.573C18.3322 17.3211 18.5043 17.1242 18.7776 16.9825C19.0509 16.8408 19.3647 16.7621 19.6988 16.7621C20.0936 16.7621 20.4478 16.8565 20.7414 17.0376C21.035 17.2187 21.2071 17.4864 21.2779 17.8092L23.4442 27.8397C23.4644 28.0365 23.6264 28.1861 23.8693 28.1861Z" fill="white"/>
<path d="M33.4353 26.832H30.1657C29.6899 26.832 29.3558 26.7532 29.1534 26.5879C28.9509 26.4225 28.8497 26.1549 28.8497 25.8006V19.5335C28.8497 19.1634 28.9509 18.9036 29.1534 18.7461C29.366 18.5808 29.7 18.5021 30.1657 18.5021H33.6377C34.154 18.5021 34.5893 18.5257 34.9638 18.5729C35.3383 18.6202 35.6724 18.7147 35.9761 18.8564C36.2291 18.9745 36.4518 19.1241 36.6442 19.3051C36.8365 19.4862 36.9883 19.6831 37.0896 19.9035C37.1908 20.1161 37.2414 20.3523 37.2414 20.5885C37.2414 21.423 36.7049 22.0293 35.6319 22.4151C37.039 22.7615 37.7475 23.4386 37.7475 24.4464C37.7475 24.9109 37.5957 25.336 37.2819 25.7061C36.9782 26.0761 36.5632 26.3517 36.0368 26.5328C35.7129 26.6351 35.3383 26.7139 34.9132 26.7611C34.4982 26.8162 34.0022 26.832 33.4353 26.832ZM33.2834 23.1315H31.0261V25.5644H33.3543C34.8221 25.5644 35.5509 25.155 35.5509 24.3283C35.5509 23.911 35.3586 23.6039 34.9841 23.415C34.5994 23.2339 34.0325 23.1315 33.2834 23.1315ZM31.016 19.7697V21.9269H33C33.5365 21.9269 33.9617 21.8876 34.2451 21.8088C34.5387 21.7301 34.7715 21.5805 34.9233 21.3522C35.0448 21.1947 35.1055 21.0136 35.1055 20.8168C35.1055 20.3995 34.9132 20.1161 34.5285 19.9822C34.1439 19.8405 33.5568 19.7697 32.7672 19.7697C32.7773 19.7697 31.016 19.7697 31.016 19.7697ZM44.6613 26.0997V25.9029C44.4184 26.1391 44.1755 26.3359 43.9123 26.4934C43.6491 26.6509 43.3656 26.769 43.0518 26.8477C42.738 26.9264 42.3837 26.9658 41.989 26.9658C41.5031 26.9658 41.0779 26.8871 40.6933 26.7296C40.3086 26.5721 40.015 26.3596 39.8126 26.084C39.5595 25.7533 39.438 25.2809 39.438 24.6589V21.5805C39.438 21.2735 39.5291 21.0373 39.7113 20.8877C39.8936 20.7302 40.1264 20.6515 40.4301 20.6515C40.7337 20.6515 40.9767 20.7302 41.1589 20.8877C41.3411 21.0451 41.4322 21.2735 41.4322 21.5805V24.0685C41.4322 24.4306 41.4727 24.7298 41.5537 24.9817C41.6347 25.2258 41.7663 25.4148 41.9687 25.5565C42.1712 25.6903 42.4445 25.7612 42.7988 25.7612C43.1328 25.7612 43.4466 25.6825 43.7503 25.525C44.0439 25.3675 44.2666 25.1628 44.3982 24.9188C44.5095 24.6983 44.5702 24.218 44.5702 23.478V21.5884C44.5702 21.2813 44.6613 21.053 44.8436 20.8955C45.0258 20.7381 45.2687 20.6593 45.5623 20.6593C45.8558 20.6593 46.0988 20.7381 46.281 20.8955C46.4632 21.0451 46.5543 21.2813 46.5543 21.5884V26.084C46.5543 26.3832 46.4632 26.6036 46.2911 26.7453C46.119 26.8949 45.8963 26.9658 45.623 26.9658C45.3497 26.9658 45.127 26.8871 44.9448 26.7375C44.7525 26.5958 44.6613 26.3832 44.6613 26.0997ZM54.946 24.9503C54.946 25.3754 54.8144 25.7454 54.5411 26.0525C54.2779 26.3596 53.873 26.5879 53.3466 26.7453C52.8202 26.9028 52.1926 26.9815 51.4436 26.9815C50.7248 26.9815 50.1175 26.8949 49.6012 26.7296C49.085 26.5643 48.7104 26.3438 48.4675 26.0919C48.2245 25.8321 48.1031 25.5801 48.1031 25.3203C48.1031 25.1471 48.184 25.0054 48.3359 24.8794C48.4877 24.7613 48.6902 24.6983 48.923 24.6983C49.1356 24.6983 49.2975 24.7377 49.4089 24.8164C49.5202 24.8951 49.6316 25.0054 49.7328 25.155C49.9353 25.4305 50.1782 25.6352 50.4617 25.7769C50.7451 25.9108 51.1399 25.9816 51.6359 25.9816C52.0307 25.9816 52.3647 25.9108 52.6178 25.7769C52.881 25.6352 53.0024 25.4778 53.0024 25.2967C53.0024 25.0211 52.8708 24.8243 52.5975 24.6983C52.3343 24.5723 51.8991 24.4542 51.2917 24.3361C50.6034 24.2023 50.0466 24.0684 49.6113 23.9189C49.1862 23.7693 48.842 23.5803 48.5788 23.3362C48.3156 23.1 48.1942 22.8009 48.1942 22.4544C48.1942 22.1474 48.3156 21.8482 48.5485 21.5726C48.7914 21.2971 49.1356 21.0766 49.6012 20.9113C50.0669 20.7459 50.6337 20.6593 51.2917 20.6593C51.808 20.6593 52.2736 20.6987 52.6785 20.7853C53.0936 20.8719 53.4377 20.9821 53.711 21.1239C53.9843 21.2656 54.1969 21.423 54.3386 21.5884C54.4804 21.7616 54.5613 21.9269 54.5613 22.0923C54.5613 22.2734 54.4804 22.4151 54.3285 22.5332C54.1767 22.6434 53.9641 22.7064 53.6807 22.7064C53.4782 22.7064 53.296 22.6591 53.1543 22.5725C53.0126 22.4781 52.8506 22.3442 52.6684 22.1631C52.5166 22.0135 52.3445 21.8876 52.1319 21.801C51.9294 21.7065 51.646 21.6671 51.3018 21.6671C50.9374 21.6671 50.6439 21.7301 50.4009 21.8482C50.158 21.9663 50.0466 22.1159 50.0466 22.2891C50.0466 22.4544 50.1377 22.5883 50.3098 22.6906C50.4819 22.793 50.7248 22.8796 51.0184 22.9426C51.312 23.0134 51.727 23.0922 52.2432 23.1945C52.8607 23.3126 53.3669 23.4543 53.7515 23.6118C54.1463 23.7771 54.4399 23.9661 54.6423 24.1944C54.8347 24.4149 54.946 24.6668 54.946 24.9503Z" fill="white"/>
<path d="M32.2914 28.1861H29.862V29.7844H32.2914V28.1861ZM35.4092 28.1861H32.9797V29.7844H35.4092V28.1861ZM38.6889 28.1861H36.2595V29.7844H38.6889V28.1861ZM41.9586 28.1861H39.5291V29.7844H41.9586V28.1861ZM45.2383 28.1861H42.8089V29.7844H45.2383V28.1861ZM48.508 28.1861H46.0785V29.7844H48.508V28.1861ZM51.7877 28.1861H49.3583V29.7844H51.7877V28.1861Z" fill="white"/>
<path d="M29.9733 31.0047L30.5098 31.9416L30.9957 31.0756C31.0463 30.9811 31.0868 30.926 31.1071 30.8866C31.1374 30.8551 31.1779 30.8236 31.2488 30.7921C31.3196 30.7607 31.4107 30.7449 31.5322 30.7449C31.6537 30.7449 31.7549 30.7607 31.8156 30.7921C31.8865 30.8236 31.9371 30.8551 31.9675 30.8866C31.9979 30.9181 32.0383 30.9811 32.089 31.0677L32.5748 31.9338L33.1215 30.9968C33.162 30.926 33.1822 30.8787 33.2126 30.8551C33.2328 30.8236 33.2733 30.8 33.3239 30.7764C33.3745 30.7528 33.4555 30.7449 33.5466 30.7449C33.6479 30.7449 33.7288 30.7607 33.7997 30.8C33.8706 30.8315 33.911 30.8787 33.911 30.926C33.911 30.9654 33.8807 31.0362 33.8199 31.1228L33.1518 32.1227C33.0911 32.2093 33.0506 32.2723 33.0202 32.3038C32.9899 32.3432 32.9393 32.3747 32.8684 32.4061C32.7975 32.4376 32.7064 32.4534 32.585 32.4534C32.4635 32.4534 32.3623 32.4376 32.2914 32.4061C32.2206 32.3747 32.1699 32.3353 32.1396 32.2881C32.1092 32.2408 32.0687 32.1857 32.0282 32.107L31.5626 31.2882L31.1071 32.107C31.0463 32.2172 30.9856 32.3038 30.9147 32.3668C30.8439 32.4219 30.7224 32.4534 30.5402 32.4534C30.4491 32.4534 30.3681 32.4455 30.3074 32.4219C30.2466 32.4061 30.196 32.3825 30.1555 32.3432C30.115 32.3117 30.0745 32.2723 30.0442 32.2251L29.9733 32.1148L29.3052 31.1149C29.2344 31.0205 29.204 30.9575 29.204 30.9181C29.204 30.8709 29.2344 30.8315 29.3052 30.8C29.3761 30.7607 29.4571 30.7449 29.5684 30.7449C29.7 30.7449 29.8012 30.7685 29.8417 30.8079C29.862 30.8394 29.9126 30.9102 29.9733 31.0047ZM35.2877 30.9811V32.1936C35.2877 32.2802 35.2472 32.3432 35.1663 32.3825C35.0853 32.4219 34.984 32.4455 34.8727 32.4455C34.7512 32.4455 34.65 32.4219 34.5791 32.3825C34.5083 32.3353 34.4678 32.2723 34.4678 32.1936V30.9968C34.4678 30.9102 34.5083 30.8551 34.5791 30.8079C34.6601 30.7685 34.7512 30.7449 34.8727 30.7449C34.9942 30.7449 35.0954 30.7685 35.1663 30.8079C35.2472 30.8473 35.2877 30.9024 35.2877 30.9811ZM34.8727 30.5481C34.7613 30.5481 34.6601 30.5323 34.5791 30.493C34.4982 30.4536 34.4577 30.4064 34.4577 30.3434C34.4577 30.2804 34.4982 30.2331 34.5791 30.2017C34.6601 30.1623 34.7613 30.1465 34.8727 30.1465C34.984 30.1465 35.0752 30.1623 35.1561 30.2017C35.2371 30.2331 35.2776 30.2883 35.2776 30.3512C35.2776 30.4142 35.2371 30.4693 35.1561 30.5008C35.0853 30.5323 34.984 30.5481 34.8727 30.5481ZM36.9479 31.8393V32.1857C36.9479 32.2723 36.9074 32.3353 36.8264 32.3747C36.7454 32.414 36.6442 32.4376 36.5328 32.4376C36.4113 32.4376 36.3202 32.414 36.2393 32.3747C36.1583 32.3353 36.1279 32.2644 36.1279 32.1857V31.0205C36.1279 30.8315 36.2595 30.737 36.5328 30.737C36.6644 30.737 36.7656 30.7607 36.8264 30.8C36.8871 30.8473 36.9175 30.9102 36.9276 30.9968C37.0288 30.9102 37.1301 30.8473 37.2313 30.8C37.3325 30.7528 37.4742 30.737 37.6463 30.737C37.8184 30.737 37.9905 30.7607 38.1525 30.8C38.3144 30.8473 38.3954 30.9024 38.3954 30.9732C38.3954 31.0283 38.365 31.0677 38.2942 31.0992C38.2233 31.1307 38.1525 31.1464 38.0715 31.1464C38.0411 31.1464 37.9702 31.1386 37.8488 31.1149C37.7374 31.0992 37.6362 31.0835 37.5451 31.0835C37.4236 31.0835 37.3224 31.0992 37.2515 31.1307C37.1706 31.1622 37.1199 31.2094 37.0693 31.2724C37.0288 31.3354 36.9985 31.4141 36.9782 31.5007C36.958 31.611 36.9479 31.7133 36.9479 31.8393ZM40.9666 31.6976H39.3571C39.3571 31.792 39.3975 31.8786 39.4684 31.9495C39.5393 32.0204 39.6405 32.0755 39.762 32.1148C39.8834 32.1542 40.015 32.17 40.1669 32.17C40.2681 32.17 40.3592 32.1621 40.4301 32.1542C40.511 32.1385 40.592 32.1227 40.6629 32.0991C40.7439 32.0755 40.8046 32.044 40.8755 32.0204C40.9362 31.9889 41.0273 31.9495 41.1285 31.9023C41.169 31.8865 41.2298 31.8708 41.3107 31.8708C41.3917 31.8708 41.4626 31.8786 41.5132 31.9023C41.5638 31.9259 41.5942 31.9574 41.5942 32.0046C41.5942 32.044 41.5638 32.0833 41.5031 32.1385C41.4423 32.1857 41.3613 32.2408 41.2399 32.2802C41.1285 32.3274 40.9767 32.3668 40.7945 32.3983C40.6224 32.4298 40.4098 32.4455 40.1871 32.4455C39.6607 32.4455 39.2457 32.3668 38.9521 32.2172C38.6586 32.0676 38.5169 31.855 38.5169 31.5952C38.5169 31.4692 38.5574 31.359 38.6282 31.2488C38.6991 31.1386 38.8104 31.052 38.942 30.9732C39.0837 30.8945 39.2558 30.8394 39.4583 30.8C39.6607 30.7607 39.8834 30.737 40.1365 30.737C40.4604 30.737 40.7337 30.7685 40.9564 30.8394C41.1893 30.9102 41.3613 30.9968 41.4727 31.1071C41.584 31.2173 41.6448 31.3275 41.6448 31.4456C41.6448 31.548 41.584 31.6188 41.4626 31.6503C41.3512 31.6818 41.1893 31.6976 40.9666 31.6976ZM39.3672 31.4535H40.8552C40.835 31.3118 40.754 31.2016 40.6224 31.1307C40.4908 31.0598 40.3187 31.0205 40.1061 31.0205C39.9037 31.0205 39.7316 31.0598 39.6 31.1307C39.4684 31.2094 39.3975 31.3196 39.3672 31.4535ZM42.3432 32.1857V30.367C42.3432 30.2804 42.3837 30.2174 42.4546 30.178C42.5255 30.1387 42.6267 30.1151 42.7482 30.1151C42.8696 30.1151 42.9709 30.1387 43.0518 30.178C43.1328 30.2174 43.1632 30.2804 43.1632 30.367V32.1857C43.1632 32.2723 43.1227 32.3353 43.0417 32.3747C42.9607 32.414 42.8696 32.4376 42.7482 32.4376C42.6267 32.4376 42.5255 32.414 42.4546 32.3747C42.3837 32.3353 42.3432 32.2723 42.3432 32.1857ZM46.3113 31.6976H44.7018C44.7018 31.792 44.7423 31.8786 44.8132 31.9495C44.884 32.0204 44.9853 32.0755 45.1067 32.1148C45.2282 32.1542 45.3598 32.17 45.5117 32.17C45.6129 32.17 45.704 32.1621 45.7748 32.1542C45.8558 32.1385 45.9368 32.1227 46.0077 32.0991C46.0886 32.0755 46.1494 32.044 46.2202 32.0204C46.281 31.9889 46.3721 31.9495 46.4733 31.9023C46.5138 31.8865 46.5745 31.8708 46.6555 31.8708C46.7365 31.8708 46.8074 31.8786 46.858 31.9023C46.9086 31.9259 46.939 31.9574 46.939 32.0046C46.939 32.044 46.9086 32.0833 46.8478 32.1385C46.7871 32.1857 46.7061 32.2408 46.5847 32.2802C46.4733 32.3274 46.3215 32.3668 46.1393 32.3983C45.9672 32.4298 45.7546 32.4455 45.5319 32.4455C45.0055 32.4455 44.5905 32.3668 44.2969 32.2172C44.0034 32.0676 43.8617 31.855 43.8617 31.5952C43.8617 31.4692 43.9021 31.359 43.973 31.2488C44.0439 31.1386 44.1552 31.052 44.2868 30.9732C44.4285 30.8945 44.5905 30.8394 44.8031 30.8C45.0055 30.7607 45.2282 30.737 45.4813 30.737C45.8052 30.737 46.0785 30.7685 46.3012 30.8394C46.534 30.9102 46.7061 30.9968 46.8175 31.1071C46.9288 31.2173 46.9896 31.3275 46.9896 31.4456C46.9896 31.548 46.9288 31.6188 46.8074 31.6503C46.6859 31.6818 46.5239 31.6976 46.3113 31.6976ZM44.7018 31.4535H46.1899C46.1696 31.3118 46.0886 31.2016 45.9571 31.1307C45.8255 31.0598 45.6534 31.0205 45.4408 31.0205C45.2383 31.0205 45.0663 31.0598 44.9347 31.1307C44.8132 31.2094 44.7322 31.3196 44.7018 31.4535ZM50.3199 31.8944C50.3199 32.0125 50.2693 32.107 50.158 32.1936C50.0466 32.2723 49.8847 32.3353 49.6721 32.3825C49.4595 32.4219 49.1963 32.4455 48.8825 32.4455C48.589 32.4455 48.3359 32.4219 48.1233 32.3747C47.9107 32.3274 47.7589 32.2723 47.6577 32.2014C47.5564 32.1306 47.5058 32.0597 47.5058 31.9967C47.5058 31.9495 47.5362 31.9101 47.5969 31.8786C47.6577 31.8472 47.7386 31.8314 47.8399 31.8314C47.931 31.8314 47.9917 31.8393 48.0423 31.8629C48.0929 31.8865 48.1334 31.918 48.1739 31.9495C48.2549 32.0204 48.3561 32.0833 48.4776 32.1148C48.5991 32.1542 48.761 32.17 48.9635 32.17C49.1255 32.17 49.2571 32.1542 49.3684 32.1148C49.4798 32.0755 49.5304 32.0361 49.5304 31.9889C49.5304 31.918 49.4798 31.8629 49.3684 31.8314C49.2571 31.7999 49.085 31.7684 48.8319 31.7369C48.5485 31.6976 48.3156 31.6661 48.1436 31.6267C47.9715 31.5873 47.8298 31.5322 47.7184 31.4692C47.6071 31.4063 47.5564 31.3275 47.5564 31.233C47.5564 31.1464 47.607 31.0677 47.7083 30.9968C47.8095 30.926 47.9512 30.863 48.1436 30.8158C48.3359 30.7685 48.5687 30.7449 48.842 30.7449C49.0546 30.7449 49.2469 30.7528 49.4089 30.7764C49.581 30.8 49.7227 30.8315 49.834 30.8709C49.9454 30.9102 50.0365 30.9496 50.0972 30.9968C50.158 31.0441 50.1883 31.0913 50.1883 31.1307C50.1883 31.1779 50.158 31.2173 50.0871 31.2488C50.0264 31.2803 49.9353 31.296 49.8239 31.296C49.7429 31.296 49.6721 31.2803 49.6113 31.2567C49.5506 31.233 49.4899 31.1937 49.4089 31.1464C49.3482 31.1071 49.2773 31.0756 49.1862 31.052C49.1052 31.0283 48.9837 31.0126 48.842 31.0126C48.6902 31.0126 48.5687 31.0283 48.4675 31.0598C48.3663 31.0913 48.3156 31.1307 48.3156 31.1779C48.3156 31.2252 48.3561 31.2567 48.427 31.2882C48.4978 31.3118 48.5991 31.3354 48.7205 31.359C48.842 31.3748 49.0141 31.3984 49.2267 31.4299C49.4797 31.4614 49.6923 31.5007 49.8442 31.5401C50.0061 31.5873 50.1276 31.6346 50.2086 31.6976C50.2794 31.7527 50.3199 31.8157 50.3199 31.8944ZM53.6604 31.8944C53.6604 32.0125 53.6098 32.107 53.4985 32.1936C53.3871 32.2723 53.2252 32.3353 53.0126 32.3825C52.8 32.4219 52.5368 32.4455 52.223 32.4455C51.9294 32.4455 51.6764 32.4219 51.4638 32.3747C51.2512 32.3274 51.0994 32.2723 50.9982 32.2014C50.8969 32.1306 50.8463 32.0597 50.8463 31.9967C50.8463 31.9495 50.8767 31.9101 50.9475 31.8786C51.0083 31.8472 51.0893 31.8314 51.1905 31.8314C51.2816 31.8314 51.3423 31.8393 51.3929 31.8629C51.4436 31.8865 51.484 31.918 51.5245 31.9495C51.6055 32.0204 51.7067 32.0833 51.8282 32.1148C51.9497 32.1542 52.1117 32.17 52.3141 32.17C52.4761 32.17 52.6077 32.1542 52.719 32.1148C52.8304 32.0755 52.881 32.0361 52.881 31.9889C52.881 31.918 52.8304 31.8629 52.719 31.8314C52.6077 31.7999 52.4356 31.7684 52.1825 31.7369C51.8991 31.6976 51.6663 31.6661 51.4942 31.6267C51.3221 31.5873 51.1804 31.5322 51.069 31.4692C50.9678 31.4063 50.9071 31.3275 50.9071 31.233C50.9071 31.1464 50.9577 31.0677 51.0589 30.9968C51.1601 30.926 51.3018 30.863 51.4942 30.8158C51.6865 30.7685 51.9193 30.7449 52.1926 30.7449C52.4052 30.7449 52.5975 30.7528 52.7595 30.7764C52.9316 30.8 53.0733 30.8315 53.1847 30.8709C53.296 30.9102 53.3871 30.9496 53.4478 30.9968C53.5086 31.0441 53.539 31.0913 53.539 31.1307C53.539 31.1779 53.5086 31.2173 53.4377 31.2488C53.377 31.2803 53.2859 31.296 53.1745 31.296C53.0936 31.296 53.0227 31.2803 52.962 31.2567C52.9012 31.233 52.8405 31.1937 52.7595 31.1464C52.6988 31.1071 52.6279 31.0756 52.5368 31.052C52.4558 31.0283 52.3343 31.0126 52.1926 31.0126C52.0408 31.0126 51.9193 31.0283 51.8181 31.0598C51.7169 31.0913 51.6663 31.1307 51.6663 31.1779C51.6663 31.2252 51.7067 31.2567 51.7776 31.2882C51.8485 31.3118 51.9497 31.3354 52.0712 31.359C52.1926 31.3748 52.3647 31.3984 52.5773 31.4299C52.8304 31.4614 53.0429 31.5007 53.2049 31.5401C53.3669 31.5873 53.4883 31.6346 53.5693 31.6976C53.6199 31.7527 53.6604 31.8157 53.6604 31.8944Z" fill="white"/>
<path d="M59.896 24.6668C59.6936 24.8085 59.6733 25.0526 59.8555 25.2179C59.8555 25.2179 59.8555 25.2179 59.8656 25.2258C62.4875 27.4224 62.4875 30.9417 59.8656 33.1305C59.6733 33.288 59.6936 33.532 59.896 33.6816C59.896 33.6816 59.896 33.6816 59.9061 33.6895C60.1086 33.8391 60.4224 33.8312 60.6147 33.6737C60.6147 33.6737 60.6147 33.6737 60.6249 33.6659C63.6111 31.1779 63.6111 27.1783 60.6249 24.6983C60.4224 24.5251 60.0985 24.5172 59.896 24.6668C59.896 24.6589 59.896 24.6589 59.896 24.6668Z" fill="white"/>
<path d="M58.1347 25.9029C57.9322 26.0525 57.912 26.2965 58.1043 26.4619C59.896 27.9657 59.896 30.3828 58.1043 31.8787C57.912 32.0361 57.9322 32.2881 58.1347 32.4377C58.3371 32.5873 58.6611 32.5715 58.8534 32.414C61.0095 30.6189 61.0095 27.7295 58.8534 25.9265C58.6611 25.769 58.3473 25.7612 58.1347 25.9029Z" fill="white"/>
<path d="M56.4442 27.1075C56.2417 27.2571 56.2215 27.5011 56.4138 27.6586C57.416 28.4932 57.416 29.8395 56.4138 30.6819C56.2215 30.8394 56.2417 31.0913 56.4442 31.2409C56.6466 31.3905 56.9807 31.3748 57.1629 31.2173C58.5193 30.0914 58.5193 28.2648 57.1629 27.1311C56.9807 26.9658 56.6567 26.9579 56.4442 27.1075ZM55.604 28.9813C55.604 28.501 55.0978 28.1074 54.4702 28.1074C53.8426 28.1074 53.3365 28.4932 53.3365 28.9813C53.3365 29.4616 53.8426 29.8474 54.4702 29.8474C55.0978 29.8474 55.604 29.4616 55.604 28.9813Z" fill="white"/>
<path d="M26.2482 23.1236H24.2236C23.9199 23.1236 23.677 23.0685 23.5252 22.9583C23.3632 22.8481 23.2822 22.7064 23.2822 22.5253C23.2822 22.3442 23.3632 22.2025 23.515 22.0922C23.6669 21.982 23.9098 21.9269 24.2236 21.9269H26.2482C26.562 21.9269 26.8049 21.982 26.9568 22.0922C27.1086 22.2025 27.1896 22.3521 27.1896 22.5253C27.1896 22.7064 27.1086 22.8481 26.9568 22.9583C26.8049 23.0685 26.562 23.1236 26.2482 23.1236Z" fill="white"/>
</svg>
