<svg width="22" height="18" viewBox="0 0 22 18" fill="none" xmlns="http://www.w3.org/2000/svg">
<path d="M11 4.99997C10.2915 4.99891 9.60553 5.24863 9.06353 5.70489C8.52152 6.16115 8.15849 6.79451 8.03871 7.49279C7.91894 8.19107 8.05016 8.90921 8.40913 9.52002C8.76811 10.1308 9.33167 10.5949 10 10.83C9.99517 10.8865 9.99517 10.9434 10 11V17C10 17.2652 10.1054 17.5195 10.2929 17.7071C10.4804 17.8946 10.7348 18 11 18C11.2652 18 11.5196 17.8946 11.7071 17.7071C11.8946 17.5195 12 17.2652 12 17V11C12.0048 10.9434 12.0048 10.8865 12 10.83C12.6683 10.5949 13.2319 10.1308 13.5909 9.52002C13.9498 8.90921 14.0811 8.19107 13.9613 7.49279C13.8415 6.79451 13.4785 6.16115 12.9365 5.70489C12.3945 5.24863 11.7085 4.99891 11 4.99997ZM11 8.99997C10.8022 8.99997 10.6089 8.94132 10.4444 8.83144C10.28 8.72156 10.1518 8.56538 10.0761 8.38265C10.0004 8.19993 9.98063 7.99886 10.0192 7.80488C10.0578 7.6109 10.153 7.43272 10.2929 7.29286C10.4327 7.15301 10.6109 7.05777 10.8049 7.01919C10.9989 6.9806 11.2 7.0004 11.3827 7.07609C11.5654 7.15178 11.7216 7.27995 11.8315 7.4444C11.9414 7.60885 12 7.80219 12 7.99997C12 8.26519 11.8946 8.51954 11.7071 8.70708C11.5196 8.89461 11.2652 8.99997 11 8.99997ZM2.5 7.99997C2.52731 6.98751 2.77815 5.99362 3.23456 5.08945C3.69096 4.18529 4.34164 3.39322 5.14 2.76997C5.34422 2.60023 5.47264 2.35632 5.49702 2.09189C5.5214 1.82747 5.43974 1.56419 5.27 1.35997C5.18595 1.25885 5.08281 1.17528 4.96647 1.11402C4.85013 1.05276 4.72285 1.01502 4.59192 1.00295C4.3275 0.97857 4.06422 1.06023 3.86 1.22997C2.83433 2.03989 2.00101 3.06714 1.42001 4.23778C0.839013 5.40842 0.524803 6.69332 0.5 7.99997C0.524803 9.30662 0.839013 10.5915 1.42001 11.7622C2.00101 12.9328 2.83433 13.9601 3.86 14.77C3.96112 14.854 4.0778 14.9173 4.20338 14.9563C4.32897 14.9952 4.46099 15.0091 4.59192 14.997C4.72285 14.9849 4.85013 14.9472 4.96647 14.8859C5.08281 14.8247 5.18595 14.7411 5.27 14.64C5.35405 14.5389 5.41735 14.4222 5.4563 14.2966C5.49526 14.171 5.50909 14.039 5.49702 13.908C5.48495 13.7771 5.44721 13.6498 5.38595 13.5335C5.32469 13.4172 5.24112 13.314 5.14 13.23C4.34164 12.6067 3.69096 11.8147 3.23456 10.9105C2.77815 10.0063 2.52731 9.01243 2.5 7.99997V7.99997Z" fill="#89D360"/>
<path d="M15.64 3.23996C15.4354 3.10401 15.188 3.04812 14.9448 3.08292C14.7017 3.11773 14.4798 3.24081 14.3216 3.4287C14.1634 3.61658 14.0799 3.85612 14.087 4.10164C14.094 4.34717 14.1912 4.5815 14.36 4.75996C14.8542 5.14675 15.2572 5.63749 15.5407 6.1974C15.8241 6.75731 15.9809 7.3727 16 7.99996C15.9809 8.62722 15.8241 9.2426 15.5407 9.80251C15.2572 10.3624 14.8542 10.8532 14.36 11.24C14.2053 11.3723 14.0946 11.5486 14.0428 11.7455C13.991 11.9424 14.0005 12.1504 14.0701 12.3417C14.1396 12.5331 14.266 12.6986 14.4321 12.8162C14.5983 12.9339 14.7964 12.9979 15 13C15.2349 12.9976 15.4615 12.9126 15.64 12.76C16.3615 12.191 16.9475 11.4688 17.3557 10.6456C17.7639 9.82233 17.9839 8.91867 18 7.99996C17.9839 7.08124 17.7639 6.17759 17.3557 5.35436C16.9475 4.53113 16.3615 3.80891 15.64 3.23996V3.23996ZM7.76 3.35996C7.58931 3.15987 7.34667 3.03509 7.08463 3.01263C6.82259 2.99017 6.56225 3.07184 6.36 3.23996C5.63849 3.80891 5.05245 4.53113 4.6443 5.35436C4.23614 6.17759 4.01607 7.08124 4 7.99996C4.01607 8.91867 4.23614 9.82233 4.6443 10.6456C5.05245 11.4688 5.63849 12.191 6.36 12.76C6.56225 12.9281 6.82259 13.0097 7.08463 12.9873C7.34667 12.9648 7.58931 12.84 7.76 12.64C7.92812 12.4377 8.00979 12.1774 7.98733 11.9153C7.96487 11.6533 7.84008 11.4106 7.64 11.24C7.14582 10.8532 6.74275 10.3624 6.45934 9.80251C6.17593 9.2426 6.01911 8.62722 6 7.99996C6.01911 7.3727 6.17593 6.75731 6.45934 6.1974C6.74275 5.63749 7.14582 5.14675 7.64 4.75996C7.84008 4.58927 7.96487 4.34662 7.98733 4.08458C8.00979 3.82255 7.92812 3.56221 7.76 3.35996V3.35996Z" fill="#89D360"/>
<path d="M18.1403 1.22997C18.0392 1.14592 17.9225 1.08262 17.7969 1.04366C17.6713 1.00471 17.5393 0.990875 17.4084 1.00295C17.2774 1.01502 17.1501 1.05276 17.0338 1.11402C16.9175 1.17528 16.8143 1.25885 16.7303 1.35997C16.6462 1.46109 16.5829 1.57777 16.544 1.70335C16.505 1.82893 16.4912 1.96096 16.5033 2.09189C16.5153 2.22282 16.5531 2.35009 16.6143 2.46644C16.6756 2.58278 16.7592 2.68592 16.8603 2.76997C17.6586 3.39322 18.3093 4.18528 18.7657 5.08945C19.2221 5.99361 19.473 6.98751 19.5003 7.99997C19.473 9.01243 19.2221 10.0063 18.7657 10.9105C18.3093 11.8147 17.6586 12.6067 16.8603 13.23C16.6561 13.3997 16.5276 13.6436 16.5033 13.908C16.4789 14.1725 16.5605 14.4358 16.7303 14.64C16.9 14.8442 17.1439 14.9726 17.4084 14.997C17.6728 15.0214 17.9361 14.9397 18.1403 14.77C19.1659 13.9601 19.9993 12.9328 20.5803 11.7622C21.1613 10.5915 21.4755 9.30662 21.5003 7.99997C21.4755 6.69332 21.1613 5.40842 20.5803 4.23778C19.9993 3.06714 19.1659 2.03988 18.1403 1.22997V1.22997Z" fill="#89D360"/>
</svg>
