<svg width="29" height="28" viewBox="0 0 29 28" fill="none" xmlns="http://www.w3.org/2000/svg">
<path d="M25.369 8.04996C25.3489 7.8539 25.2776 7.66596 25.1618 7.50375C25.046 7.34153 24.8894 7.21034 24.7068 7.12246L15.0401 2.45579C14.8723 2.37469 14.6871 2.33246 14.4994 2.33246C14.3117 2.33246 14.1266 2.37469 13.9587 2.45579L4.29201 7.12246C4.10988 7.21084 3.95381 7.34219 3.83827 7.50433C3.72273 7.66646 3.65145 7.85414 3.63105 8.04996C3.61776 8.17479 2.46985 20.6115 14.0094 25.5663C14.1636 25.6335 14.3308 25.6682 14.5 25.6682C14.6692 25.6682 14.8364 25.6335 14.9906 25.5663C26.5302 20.6115 25.3823 8.17596 25.369 8.04996ZM14.5 23.2131C6.3208 19.3958 5.93414 11.249 6.0006 8.90746L14.5 4.80429L22.9934 8.90513C23.0381 11.2256 22.5971 19.4261 14.5 23.2131Z" fill="#1356A7"/>
<path d="M13.2917 14.6837L10.521 12.0085L8.81238 13.6582L13.2917 17.983L20.1876 11.3248L18.479 9.67517L13.2917 14.6837Z" fill="#89D360"/>
</svg>
