<svg width="32" height="28" viewBox="0 0 32 28" fill="none" xmlns="http://www.w3.org/2000/svg">
<path d="M27.9931 8.05002C27.9709 7.85396 27.8923 7.66602 27.7645 7.50381C27.6367 7.34159 27.464 7.2104 27.2624 7.12252L16.5958 2.45585C16.4105 2.37475 16.2062 2.33252 15.9991 2.33252C15.792 2.33252 15.5877 2.37475 15.4024 2.45585L4.73576 7.12252C4.53479 7.2109 4.36258 7.34225 4.23508 7.50439C4.10759 7.66652 4.02894 7.8542 4.00643 8.05002C3.99176 8.17486 2.72509 20.6115 15.4584 25.5664C15.6286 25.6335 15.8131 25.6683 15.9998 25.6683C16.1864 25.6683 16.371 25.6335 16.5411 25.5664C29.2744 20.6115 28.0078 8.17602 27.9931 8.05002ZM15.9998 23.2132C6.97443 19.3959 6.54776 11.249 6.62109 8.90752L15.9998 4.80436L25.3718 8.90519C25.4211 11.2257 24.9344 19.4262 15.9998 23.2132Z" fill="#1356A7"/>
<path d="M14.6668 14.6837L11.6095 12.0085L9.72412 13.6582L14.6668 17.983L22.2761 11.3248L20.3908 9.67517L14.6668 14.6837Z" fill="#89D360"/>
</svg>
