<svg width="20" height="20" viewBox="0 0 20 20" fill="none" xmlns="http://www.w3.org/2000/svg">
<g clip-path="url(#clip0_491:203)">
<path d="M10.7576 18.2197C11.0427 18.3719 11.4005 18.3709 11.6856 18.2187C19.455 14.0475 20.0067 5.89785 19.9999 3.5806C19.9992 3.39435 19.9441 3.21237 19.8415 3.05693C19.7388 2.90149 19.593 2.77934 19.422 2.70545L11.6158 -0.750566C11.4916 -0.805295 11.3573 -0.833479 11.2215 -0.833312C11.0857 -0.833145 10.9515 -0.804631 10.8274 -0.749597L3.07552 2.70642C2.90698 2.78035 2.76326 2.90115 2.66148 3.05442C2.5597 3.20769 2.50415 3.38697 2.50145 3.57091C2.46848 5.87653 2.93297 14.0436 10.7576 18.2197ZM8.02882 7.11221L10.2524 9.33448L14.4154 5.17389L15.7865 6.54428L10.2524 12.0753L6.65764 8.48259L8.02882 7.11221Z" fill="#89D360"/>
</g>
<defs>
<clipPath id="clip0_491:203">
<rect width="20" height="20" fill="white"/>
</clipPath>
</defs>
</svg>
