<svg width="22" height="22" viewBox="0 0 22 22" fill="none" xmlns="http://www.w3.org/2000/svg">
<path d="M11.0002 1.83325C6.03091 1.83325 1.8335 6.03067 1.8335 10.9999C1.8335 13.9232 3.29283 16.5714 5.50016 18.2636V18.3333H5.59366C7.12266 19.4745 8.99541 20.1666 11.0002 20.1666C13.0049 20.1666 14.8777 19.4745 16.4067 18.3333H16.5002V18.2636C18.7075 16.5714 20.1668 13.9241 20.1668 10.9999C20.1668 6.03067 15.9694 1.83325 11.0002 1.83325ZM7.40133 17.3497C7.53641 16.7386 7.87574 16.1918 8.36334 15.7996C8.85094 15.4073 9.45769 15.1929 10.0835 15.1918H11.9168C12.5426 15.1931 13.1493 15.4075 13.6368 15.7998C14.1244 16.192 14.4638 16.7387 14.599 17.3497C13.5283 17.9703 12.2982 18.3333 11.0002 18.3333C9.70216 18.3333 8.472 17.9703 7.40133 17.3497ZM16.1427 16.1708C15.793 15.3384 15.2056 14.6275 14.4539 14.1273C13.7023 13.6271 12.8197 13.3596 11.9168 13.3585H10.0835C9.18059 13.3596 8.29807 13.6271 7.54641 14.1273C6.79474 14.6275 6.20732 15.3384 5.85766 16.1708C4.51291 14.8334 3.66683 12.9946 3.66683 10.9999C3.66683 7.02434 7.02458 3.66659 11.0002 3.66659C14.9757 3.66659 18.3335 7.02434 18.3335 10.9999C18.3335 12.9946 17.4874 14.8334 16.1427 16.1708Z" fill="white"/>
<path d="M11.0002 5.5C8.91016 5.5 7.3335 7.07667 7.3335 9.16667C7.3335 11.2567 8.91016 12.8333 11.0002 12.8333C13.0902 12.8333 14.6668 11.2567 14.6668 9.16667C14.6668 7.07667 13.0902 5.5 11.0002 5.5ZM11.0002 11C9.92033 11 9.16683 10.2465 9.16683 9.16667C9.16683 8.08683 9.92033 7.33333 11.0002 7.33333C12.08 7.33333 12.8335 8.08683 12.8335 9.16667C12.8335 10.2465 12.08 11 11.0002 11Z" fill="white"/>
</svg>
