<svg width="77" height="10" viewBox="0 0 77 10" fill="none" xmlns="http://www.w3.org/2000/svg">
<g clip-path="url(#clip0_507:1368)">
<path fill-rule="evenodd" clip-rule="evenodd" d="M20.3774 0.381119V6.41262C20.3774 7.5864 20.2441 8.07929 19.2498 8.07929C18.2556 8.07929 18.1223 7.57116 18.1223 6.41262V0.355713H16.0723V7.54067C16.0723 8.84149 17.292 9.88315 18.9372 9.88315C20.3159 8.54169 22.5248 8.54169 23.9035 9.88315C25.5486 9.88315 26.7787 8.84149 26.7787 7.54067V0.381119H24.7286V6.41262C24.7286 7.5864 24.5902 8.07929 23.6011 8.07929C22.6119 8.07929 22.4684 7.57116 22.4684 6.41262V0.381119H20.3774Z" fill="white"/>
<path fill-rule="evenodd" clip-rule="evenodd" d="M34.7892 9.74583V6.09746C34.7892 4.46128 33.4772 3.26209 31.4425 3.26209C29.6487 3.22144 28.1624 4.62388 28.1163 6.40234C28.1163 6.48364 28.1163 6.56494 28.1163 6.64116C28.0548 8.32307 29.3822 9.73567 31.0786 9.79665H31.3554C31.7347 9.78648 32.1139 9.73059 32.4829 9.63912V7.91148C32.1549 8.03343 31.8064 8.09949 31.4579 8.10457C30.6225 8.1249 29.9255 7.48465 29.8845 6.6564C29.8794 6.63099 29.8794 6.60559 29.8845 6.58018C29.8332 5.71636 30.4995 4.97957 31.3708 4.92876C32.3445 4.92876 32.9442 5.43689 32.9442 6.17368V9.73059L34.7892 9.74583Z" fill="white"/>
<path fill-rule="evenodd" clip-rule="evenodd" d="M37.8082 3.16555V1.48364H36.0195V7.42368C36.0195 8.8312 36.532 9.74584 38.167 9.74584H39.0997V8.07409H38.4181C38.0542 8.07409 37.8082 7.84035 37.8082 7.37287V5.03547H39.0997V3.16555H37.8082Z" fill="white"/>
<path fill-rule="evenodd" clip-rule="evenodd" d="M45.0448 6.8802C44.809 7.82532 43.8455 8.40459 42.8922 8.17085C42.144 7.98792 41.6007 7.34768 41.5443 6.5804C41.4931 5.72166 42.1593 4.97979 43.0255 4.92898H43.0614C43.3791 4.89849 43.6969 5.0052 43.9378 5.21353L42.1747 6.48894L43.0357 7.53061L46.4798 5.12207C46.0288 4.15662 45.0038 3.24707 43.1895 3.24707C41.3393 3.24707 39.8428 4.73081 39.8428 6.56516C39.8428 8.39951 41.3393 9.88325 43.1895 9.88325H43.1946C44.9577 9.97979 46.5208 8.76536 46.8437 7.0428L45.0448 6.8802Z" fill="white"/>
<path fill-rule="evenodd" clip-rule="evenodd" d="M49.7801 9.74604V6.61596C49.6981 5.85885 50.2516 5.17287 51.0152 5.09157C51.0204 5.09157 51.0255 5.09157 51.0306 5.09157C51.1075 5.08141 51.1793 5.08141 51.2561 5.09157H51.6866V3.10986H51.3074C50.554 3.10986 49.898 3.80092 49.5956 4.63425V3.18608H47.9043V9.76129L49.7801 9.74604Z" fill="white"/>
<path fill-rule="evenodd" clip-rule="evenodd" d="M53.9987 9.74593H56.0641V2.45426H58.1808V0.406494H51.6309V2.45426H53.9987V9.74593Z" fill="white"/>
<path fill-rule="evenodd" clip-rule="evenodd" d="M63.0389 6.8802C62.8032 7.82532 61.8396 8.40459 60.8864 8.17085C60.1381 7.98792 59.5948 7.34768 59.5385 6.5804C59.4872 5.72166 60.1535 4.97979 61.0196 4.92898H61.0555C61.3733 4.89849 61.691 5.0052 61.9319 5.21353L60.1637 6.48894L61.0299 7.53061L64.474 5.12207C64.0229 4.15662 62.9928 3.24707 61.1836 3.24707C59.3335 3.24707 57.8369 4.73081 57.8369 6.56516C57.8369 8.39951 59.3335 9.88325 61.1836 9.88325H61.1887C62.9518 9.97979 64.515 8.76536 64.8378 7.0428L63.0389 6.8802Z" fill="white"/>
<path fill-rule="evenodd" clip-rule="evenodd" d="M70.2345 3.19604H68.9942C66.8929 3.19604 65.6475 4.64422 65.6475 6.58019C65.6475 8.51617 66.9031 9.74584 68.9942 9.74584H70.2345V7.84035H69.0506C68.0614 7.84035 67.4361 7.44909 67.4361 6.58019C67.4156 5.77226 68.0614 5.10153 68.8763 5.08121C68.8814 5.08121 68.8814 5.08121 68.8866 5.08121C68.9429 5.07613 68.9942 5.07613 69.0506 5.08121H70.2345V3.19604Z" fill="white"/>
<path fill-rule="evenodd" clip-rule="evenodd" d="M73.1814 9.74583V5.94502C73.125 5.44197 73.4889 4.98465 74.0014 4.92876H74.2013C74.8522 4.92876 74.9957 5.29461 74.9957 5.94502V9.75091H76.9996V5.37592C76.9791 4.20722 76.0054 3.27226 74.8266 3.2875H74.7395C74.1501 3.23161 73.5761 3.47043 73.2019 3.92266V0.39624H71.1826V9.74583H73.1814Z" fill="white"/>
<path fill-rule="evenodd" clip-rule="evenodd" d="M20.2289 0.355713V6.26018C20.2289 7.42888 20.0906 7.92685 19.0963 7.92685C18.102 7.92685 17.9739 7.41872 17.9739 6.26018V0.355713H15.9238V7.41364C15.9238 8.71953 17.1487 9.75612 18.7939 9.75612C20.1777 8.41974 22.3764 8.41974 23.7602 9.75612C25.4053 9.75612 26.6354 8.73986 26.6354 7.41364V0.355713H24.5853V6.26018C24.5853 7.42888 24.4418 7.92685 23.4526 7.92685C22.4635 7.92685 22.3251 7.41872 22.3251 6.25002V0.355713H20.2289Z" fill="white"/>
<path fill-rule="evenodd" clip-rule="evenodd" d="M34.6511 9.60873V5.94511C34.6511 4.30385 33.3391 3.10975 31.3044 3.10975C29.5106 3.0691 28.0243 4.47662 27.9833 6.25507C27.9782 6.33637 27.9782 6.41259 27.9833 6.49389C27.9372 8.1758 29.2749 9.57824 30.9764 9.62397H31.2224C31.6017 9.61381 31.9809 9.563 32.3499 9.46645V7.77438C32.0219 7.90141 31.6734 7.96747 31.3249 7.97255C30.4895 7.99288 29.7925 7.35263 29.7515 6.52438V6.45324C29.7003 5.5945 30.3665 4.85771 31.2327 4.8069C32.2064 4.8069 32.8112 5.31503 32.8112 6.0569V9.61381L34.6511 9.60873Z" fill="white"/>
<path fill-rule="evenodd" clip-rule="evenodd" d="M37.6539 3.16058V1.46851H35.8652V7.29676C35.8652 8.69411 36.3777 9.60875 38.0178 9.60875H38.9454V7.94716H38.2638C37.8999 7.94716 37.6539 7.71342 37.6539 7.24086V4.89838H38.9454V3.16058H37.6539Z" fill="white"/>
<path fill-rule="evenodd" clip-rule="evenodd" d="M44.9061 6.74797C44.6704 7.69309 43.7068 8.26728 42.7536 8.03354C42.0053 7.85061 41.462 7.20528 41.4056 6.44309C41.3544 5.58435 42.0207 4.84756 42.8868 4.79675H42.8919H42.9278C43.2507 4.77642 43.5633 4.87805 43.8093 5.08638L42.0463 6.36179L42.9073 7.40346L46.3514 4.99492C45.9106 4.03455 44.8754 3.125 43.0611 3.125C41.2109 3.125 39.7092 4.60874 39.7041 6.44309C39.7041 8.18089 41.0469 9.62398 42.7946 9.76118H43.0611C44.8344 9.86789 46.4078 8.65346 46.7409 6.92581L44.9061 6.74797Z" fill="white"/>
<path fill-rule="evenodd" clip-rule="evenodd" d="M49.6422 9.60885V6.51433C49.5653 5.75214 50.129 5.07125 50.8978 4.98994C50.9696 4.98486 51.0464 4.98486 51.1182 4.98994H51.5487V3.10986H51.1694C50.3597 3.17084 49.678 3.7247 49.4577 4.49706V3.18608H47.7715V9.62409L49.6422 9.60885Z" fill="white"/>
<path fill-rule="evenodd" clip-rule="evenodd" d="M53.86 9.60868H55.9255V2.3221H58.0473L58.037 0.401367L51.6152 0.41153L51.6306 2.33226L53.86 2.3221V9.60868Z" fill="white"/>
<path fill-rule="evenodd" clip-rule="evenodd" d="M62.9007 6.74797C62.665 7.69309 61.7015 8.26727 60.7482 8.03354C59.9999 7.85061 59.4567 7.20528 59.4003 6.44309C59.349 5.58435 60.0153 4.84756 60.8814 4.79675H60.8866H60.9173C61.2402 4.77134 61.558 4.87805 61.7988 5.08638L60.0255 6.36179L60.8917 7.40345L64.3358 4.99492C63.8899 4.03455 62.8597 3.125 61.0454 3.125C59.1953 3.125 57.6936 4.60874 57.6885 6.44309C57.6885 8.18089 59.0313 9.62398 60.7789 9.76118H61.0454C62.8034 9.85772 64.3665 8.65345 64.6997 6.94106L62.9007 6.74797Z" fill="white"/>
<path fill-rule="evenodd" clip-rule="evenodd" d="M70.1021 3.18604H68.8516C66.7503 3.18604 65.5049 4.50717 65.5049 6.44315C65.5049 8.37913 66.7605 9.6088 68.8516 9.6088H70.0919V7.83034H68.9182C67.9291 7.83034 67.3038 7.32221 67.3038 6.44315C67.2731 5.63014 67.9188 4.94925 68.7388 4.91876C68.744 4.91876 68.7491 4.91876 68.7542 4.91876H70.1073L70.1021 3.18604Z" fill="white"/>
<path fill-rule="evenodd" clip-rule="evenodd" d="M73.0535 9.60887V5.80805C72.992 5.31517 73.3405 4.86293 73.8377 4.79179C73.9146 4.78671 73.9966 4.78671 74.0734 4.79179C74.7294 4.79179 74.9908 5.15765 74.9908 5.83346V9.63427H76.8769V5.26436C76.8615 4.09566 75.8929 3.1607 74.7141 3.17594H74.6167C74.0273 3.12005 73.4533 3.35887 73.0792 3.8111V0.421875H71.1777V9.63427L73.0535 9.60887Z" fill="white"/>
<path fill-rule="evenodd" clip-rule="evenodd" d="M20.1064 0.355713V6.1484C20.1064 7.3171 19.9731 7.80998 18.984 7.80998C17.9948 7.80998 17.8513 7.30185 17.8513 6.1484V0.355713H15.7705V7.27645C15.7705 8.57726 16.9954 9.61893 18.6457 9.61893C20.0244 8.28254 22.2282 8.28254 23.6068 9.61893C25.252 9.61893 26.482 8.57726 26.482 7.27645V0.355713H24.432V6.1484C24.432 7.3171 24.2936 7.80998 23.3045 7.80998C22.3153 7.80998 22.1718 7.30185 22.1718 6.1484V0.355713H20.1064Z" fill="white"/>
<path fill-rule="evenodd" clip-rule="evenodd" d="M34.5178 9.50192V5.85354C34.5178 4.21228 33.2007 3.01818 31.1711 3.01818C29.3824 2.97245 27.891 4.37488 27.8449 6.15334V6.15842C27.8449 6.23972 27.8449 6.31594 27.8449 6.39724C27.7988 8.07915 29.1364 9.48159 30.8329 9.52732H31.0789C31.4632 9.51716 31.8425 9.46635 32.2115 9.37488V7.67265C31.8835 7.79968 31.535 7.86574 31.1865 7.86574C30.3511 7.89114 29.649 7.24582 29.608 6.41757V6.34643C29.5567 5.48261 30.223 4.74582 31.0942 4.69501C32.068 4.69501 32.6728 5.20314 32.6728 5.94501V9.50192H34.5178Z" fill="white"/>
<path fill-rule="evenodd" clip-rule="evenodd" d="M37.5309 3.15033V1.45825H35.7422V7.15947C35.7422 8.56699 36.2547 9.47654 37.8896 9.47654H38.8275V7.80988H38.1664C37.8076 7.80988 37.5514 7.57614 37.5514 7.10866V4.76618H38.8531V3.15033H37.5309Z" fill="white"/>
<path fill-rule="evenodd" clip-rule="evenodd" d="M44.7684 6.61073C44.5327 7.55585 43.5691 8.13512 42.6159 7.90138C41.8676 7.71845 41.3243 7.07821 41.268 6.31601C41.2167 5.45219 41.883 4.71541 42.7542 4.66459H42.7901C43.113 4.6341 43.4308 4.74081 43.6716 4.94914L41.9035 6.21947L42.7645 7.23573L46.2086 4.83227C45.7627 3.86683 44.7274 2.95728 42.9131 2.95728C41.0629 2.95728 39.5664 4.44102 39.5664 6.27536C39.5664 8.10971 41.0629 9.59345 42.9131 9.59345H42.9182C44.6915 9.70016 46.2701 8.48573 46.5981 6.75301L44.7684 6.61073Z" fill="white"/>
<path fill-rule="evenodd" clip-rule="evenodd" d="M49.5035 9.50211V6.3517C49.442 5.58443 50.016 4.9137 50.7899 4.85272C50.8514 4.84764 50.918 4.84764 50.9795 4.85272H51.41V3.07935H51.0359C50.2466 3.08951 49.5496 3.60272 49.319 4.35475V3.15557H47.6328V9.50211H49.5035Z" fill="white"/>
<path fill-rule="evenodd" clip-rule="evenodd" d="M53.7263 9.47654H55.7917V2.18996H57.9084V0.37085H51.6045V2.18996H53.7263V9.47654Z" fill="white"/>
<path fill-rule="evenodd" clip-rule="evenodd" d="M62.7672 6.61073C62.5314 7.55585 61.5679 8.13512 60.6146 7.90138C59.8664 7.71845 59.3231 7.07821 59.2667 6.31601C59.2155 5.45219 59.8818 4.71541 60.753 4.66459H60.7889C61.1118 4.6341 61.4295 4.74081 61.6704 4.94914L59.9228 6.21947L60.7838 7.23573L64.2227 4.83228C63.7769 3.86683 62.7467 2.95728 60.9375 2.95728C59.0874 2.95728 57.5908 4.44102 57.5908 6.27536C57.5908 8.10971 59.0874 9.59345 60.9375 9.59345H60.9427C62.7057 9.69 64.2689 8.47557 64.5918 6.75301L62.7672 6.61073Z" fill="white"/>
<path fill-rule="evenodd" clip-rule="evenodd" d="M69.9425 3.15039H68.7022C66.6009 3.15039 65.3555 4.37498 65.3555 6.31604C65.3555 8.2571 66.6111 9.47661 68.7022 9.47661H69.9425V7.80994H68.7586C67.9129 7.72864 67.2979 6.98169 67.3799 6.14328C67.4414 5.5132 67.8924 4.98982 68.5074 4.82214C68.5894 4.81198 68.6766 4.81198 68.7586 4.82214H69.9425V3.15039Z" fill="white"/>
<path fill-rule="evenodd" clip-rule="evenodd" d="M72.9056 9.50205V5.70632C72.9056 5.14738 73.3669 4.69006 73.9307 4.69006C74.4944 4.69006 74.9557 5.14738 74.9557 5.70632V9.50205H76.7444V5.13214C76.7392 3.96344 75.786 3.01831 74.6072 3.01831H74.4842C73.8948 2.95734 73.3156 3.19616 72.9466 3.65348V0.355713H71.1631V9.50205H72.9056Z" fill="white"/>
<path d="M3.43408 3.06394C3.48533 2.9115 4.02859 2.96232 4.63849 3.19098C5.24838 3.41963 5.69426 3.69911 5.66351 3.86679C5.63276 4.03447 5.06387 3.96333 4.44886 3.74484C3.83384 3.52634 3.42383 3.23671 3.42383 3.06394" fill="#31468B"/>
<path fill-rule="evenodd" clip-rule="evenodd" d="M9.79408 3.95838C9.60445 3.91773 9.41482 3.88216 9.22519 3.86183C8.95356 3.86183 8.56918 3.86183 8.54355 3.90248C8.35392 4.34456 7.85678 6.34151 7.85678 6.34151C7.85678 6.34151 12.0594 5.0407 12.2388 4.95939C12.1209 4.76631 11.9415 4.62403 11.7263 4.55289C11.4546 4.4411 11.019 4.29374 11.019 4.29374C11.019 4.29374 13.4944 1.81407 12.6437 0.508175C11.6853 -0.965402 7.31352 1.30594 7.31352 1.30594C7.31352 1.30594 7.23664 1.34659 7.28277 1.3974C7.3289 1.44822 7.62615 1.49903 7.60565 1.51935C7.48777 1.64639 7.23664 1.98175 7.23664 1.98175C7.23664 1.98175 7.17002 2.13419 7.23664 2.11387C7.4314 2.02748 8.11817 1.68704 8.70243 1.4787C8.99456 1.37708 9.4507 1.23988 9.4507 1.23988C9.4507 1.23988 10.5526 0.990899 10.896 1.51427C10.9626 1.69212 10.9831 1.88013 10.9524 2.06813C10.855 2.46956 10.6807 2.84557 10.4399 3.18094L9.80946 3.95838" fill="white"/>
<path d="M9.79408 3.95838C9.60445 3.91773 9.41482 3.88216 9.22519 3.86183C8.95356 3.86183 8.56918 3.86183 8.54355 3.90248C8.35392 4.34456 7.85678 6.34151 7.85678 6.34151C7.85678 6.34151 12.0594 5.0407 12.2388 4.95939C12.1209 4.76631 11.9415 4.62403 11.7263 4.55289C11.4546 4.4411 11.019 4.29374 11.019 4.29374C11.019 4.29374 13.4944 1.81407 12.6437 0.508175C11.6853 -0.965402 7.31352 1.30594 7.31352 1.30594C7.31352 1.30594 7.23664 1.34659 7.28277 1.3974C7.3289 1.44822 7.62615 1.49903 7.60565 1.51935C7.48777 1.64639 7.23664 1.98175 7.23664 1.98175C7.23664 1.98175 7.17002 2.13419 7.23664 2.11387C7.4314 2.02748 8.11817 1.68704 8.70243 1.4787C8.99456 1.37708 9.4507 1.23988 9.4507 1.23988C9.4507 1.23988 10.5526 0.990899 10.896 1.51427C10.9626 1.69212 10.9831 1.88013 10.9524 2.06813C10.855 2.46956 10.6807 2.84557 10.4399 3.18094L9.79408 3.95838Z" stroke="white" stroke-width="0.05" stroke-miterlimit="3.86"/>
<path fill-rule="evenodd" clip-rule="evenodd" d="M11.7314 4.5883C11.7314 4.5883 11.3418 4.82712 11.0907 4.96432C10.6705 5.20822 10.2348 5.42164 9.78893 5.61473C9.38917 5.79257 8.73828 6.03647 8.73828 6.03647C9.44042 5.82814 10.1374 5.58424 10.814 5.30477C11.1625 5.15233 11.6852 4.88302 11.6852 4.88302L12.0235 4.69501L11.7775 4.55273L11.7314 4.5883Z" fill="white"/>
<path fill-rule="evenodd" clip-rule="evenodd" d="M3.44922 3.02847L6.44742 2.09351L5.63765 3.88212L3.44922 3.02847Z" fill="white"/>
<path fill-rule="evenodd" clip-rule="evenodd" d="M4.65338 3.40434C4.52525 3.36878 4.39712 3.34337 4.269 3.32812C4.269 3.32812 3.05434 4.30882 2.35732 5.01512C1.91656 5.46735 1.30667 6.2143 1.30667 6.2143C1.30667 6.2143 -0.394875 8.1706 0.0868876 9.28849C0.599401 10.5334 2.90571 9.76105 2.90571 9.76105C3.45922 9.5832 3.99736 9.37487 4.52525 9.13605C5.32477 8.81085 6.08329 8.39926 6.79056 7.9013C6.55993 7.75394 6.30367 7.64215 6.03717 7.57101C6.29855 7.23056 6.5343 6.86979 6.73931 6.49377H6.64706C5.56565 7.08321 3.38747 8.24682 2.62383 7.36268C1.94731 6.58524 4.03324 4.54764 4.03324 4.54764L5.08902 3.62284C4.96089 3.53646 4.82251 3.45516 4.68413 3.3891" fill="white"/>
<path fill-rule="evenodd" clip-rule="evenodd" d="M6.55534 7.73877L6.65784 7.78958C6.65784 7.78958 5.74557 8.36885 4.9358 8.80584C4.26953 9.13105 3.58789 9.41052 2.88574 9.64934C2.88574 9.64934 4.14653 9.14121 4.9358 8.7093C5.58669 8.36377 6.56559 7.74385 6.56559 7.74385" fill="white"/>
<path d="M6.55534 7.73877L6.65784 7.78958C6.65784 7.78958 5.74557 8.36885 4.9358 8.80584C4.26953 9.13105 3.58789 9.41052 2.88574 9.64934C2.88574 9.64934 4.14653 9.14121 4.9358 8.7093C5.57644 8.35869 6.55534 7.73877 6.55534 7.73877Z" stroke="white" stroke-width="0.05" stroke-miterlimit="3.86"/>
<path fill-rule="evenodd" clip-rule="evenodd" d="M4.95085 3.54157H4.98673C4.98673 3.54157 4.72535 3.7499 4.56134 3.89218C4.39734 4.03445 4.04883 4.40031 4.04883 4.40031C4.04883 4.40031 4.38196 4.03953 4.61259 3.8312C4.75097 3.70417 4.97648 3.52124 4.97648 3.52124" fill="white"/>
<path fill-rule="evenodd" clip-rule="evenodd" d="M7.21582 2.08329V1.99183C7.54895 1.82414 7.89234 1.6717 8.24085 1.53959C8.69698 1.35666 9.1685 1.22963 9.65538 1.16357C9.15312 1.28044 8.66111 1.43288 8.18447 1.62089C7.80009 1.78349 7.22095 2.08329 7.22095 2.08329" fill="white"/>
</g>
<defs>
<clipPath id="clip0_507:1368">
<rect width="77" height="10" fill="white"/>
</clipPath>
</defs>
</svg>
