<svg width="31" height="30" viewBox="0 0 31 30" fill="none" xmlns="http://www.w3.org/2000/svg">
<path d="M19.375 10.625C19.7625 10 20.5375 9.87502 21.1834 10.125C21.4417 10.25 21.5709 10.375 21.7 10.625C21.9584 11.25 22.7334 11.375 23.3792 11.125C24.025 10.75 24.2834 10 23.8959 9.37502C22.8625 7.62501 20.4084 7.00001 18.6 8.00001C17.9542 8.37501 17.5667 8.75001 17.1792 9.37502C16.9209 10 17.3084 10.75 17.9542 11C18.4709 11.125 18.9875 11 19.375 10.625Z" fill="#89D360"/>
<path d="M28.4167 6.87506C25.9625 2.75006 20.4083 1.25006 16.0167 3.62506C14.5958 4.37506 13.5625 5.50006 12.6583 6.87506C12.4 7.50006 12.6583 8.25006 13.175 8.62506C13.4333 8.62506 13.5625 8.75006 13.8208 8.75006C14.3375 8.75006 14.725 8.50006 14.9833 8.12506C16.7917 5.12506 20.6667 4.12506 23.7667 5.87506C24.8 6.37506 25.575 7.25006 26.0917 8.12506C26.4792 8.75006 27.2542 8.87506 27.9 8.62506C28.5458 8.25006 28.8042 7.50006 28.4167 6.87506Z" fill="#89D360"/>
<path d="M23.1208 17.5H21.8292V13.75C21.8292 13 21.3125 12.5 20.5375 12.5C19.7625 12.5 19.2458 13 19.2458 13.75V17.5H6.32916C4.13333 17.5 2.45416 19.125 2.45416 21.25V23.75C2.45416 25.875 4.13333 27.5 6.32916 27.5H23.1208C25.3167 27.5 26.9958 25.875 26.9958 23.75V21.25C26.9958 19.125 25.3167 17.5 23.1208 17.5Z" fill="#1356A7"/>
<path d="M24.4125 23.75C24.4125 24.5 23.8958 25 23.1208 25H6.32916C5.55416 25 5.03749 24.5 5.03749 23.75V21.25C5.03749 20.5 5.55416 20 6.32916 20H23.1208C23.8958 20 24.4125 20.5 24.4125 21.25V23.75Z" fill="white"/>
<path d="M11.4958 23.75C12.2092 23.75 12.7875 23.1904 12.7875 22.5C12.7875 21.8096 12.2092 21.25 11.4958 21.25C10.7825 21.25 10.2042 21.8096 10.2042 22.5C10.2042 23.1904 10.7825 23.75 11.4958 23.75Z" fill="#89D360"/>
<path d="M7.62083 23.75C8.3342 23.75 8.9125 23.1904 8.9125 22.5C8.9125 21.8096 8.3342 21.25 7.62083 21.25C6.90746 21.25 6.32916 21.8096 6.32916 22.5C6.32916 23.1904 6.90746 23.75 7.62083 23.75Z" fill="#89D360"/>
<path d="M15.3708 23.75C16.0842 23.75 16.6625 23.1904 16.6625 22.5C16.6625 21.8096 16.0842 21.25 15.3708 21.25C14.6575 21.25 14.0792 21.8096 14.0792 22.5C14.0792 23.1904 14.6575 23.75 15.3708 23.75Z" fill="#89D360"/>
</svg>
