<svg width="34" height="30" viewBox="0 0 34 30" fill="none" xmlns="http://www.w3.org/2000/svg">
<path d="M21.25 10.625C21.675 9.99995 22.525 9.87495 23.2333 10.125C23.5167 10.25 23.6583 10.375 23.8 10.625C24.0833 11.25 24.9334 11.375 25.6417 11.125C26.35 10.75 26.6334 9.99995 26.2084 9.37495C25.075 7.62495 22.3833 6.99995 20.4 7.99995C19.6917 8.37495 19.2667 8.74995 18.8417 9.37495C18.5583 9.99995 18.9833 10.75 19.6917 11C20.2583 11.125 20.825 11 21.25 10.625Z" fill="#89D360"/>
<path d="M31.1665 6.87506C28.4748 2.75006 22.3831 1.25006 17.5665 3.62506C16.0081 4.37506 14.8748 5.50006 13.8831 6.87506C13.5998 7.50006 13.8831 8.25006 14.4498 8.62506C14.7331 8.62506 14.8748 8.75006 15.1581 8.75006C15.7248 8.75006 16.1498 8.50006 16.4331 8.12506C18.4165 5.12506 22.6665 4.12506 26.0665 5.87506C27.1998 6.37506 28.0498 7.25006 28.6165 8.12506C29.0415 8.75006 29.8915 8.87506 30.5998 8.62506C31.3081 8.25006 31.5915 7.50006 31.1665 6.87506Z" fill="#89D360"/>
<path d="M25.3586 17.5H23.9419V13.75C23.9419 13 23.3752 12.5 22.5252 12.5C21.6752 12.5 21.1086 13 21.1086 13.75V17.5H6.94189C4.53356 17.5 2.69189 19.125 2.69189 21.25V23.75C2.69189 25.875 4.53356 27.5 6.94189 27.5H25.3586C27.7669 27.5 29.6086 25.875 29.6086 23.75V21.25C29.6086 19.125 27.7669 17.5 25.3586 17.5Z" fill="#1356A7"/>
<path d="M26.7749 23.75C26.7749 24.5 26.2082 25 25.3582 25H6.94157C6.09157 25 5.5249 24.5 5.5249 23.75V21.25C5.5249 20.5 6.09157 20 6.94157 20H25.3582C26.2082 20 26.7749 20.5 26.7749 21.25V23.75Z" fill="white"/>
<path d="M12.6086 23.75C13.391 23.75 14.0252 23.1904 14.0252 22.5C14.0252 21.8096 13.391 21.25 12.6086 21.25C11.8262 21.25 11.1919 21.8096 11.1919 22.5C11.1919 23.1904 11.8262 23.75 12.6086 23.75Z" fill="#89D360"/>
<path d="M8.35856 23.75C9.14096 23.75 9.77523 23.1904 9.77523 22.5C9.77523 21.8096 9.14096 21.25 8.35856 21.25C7.57616 21.25 6.94189 21.8096 6.94189 22.5C6.94189 23.1904 7.57616 23.75 8.35856 23.75Z" fill="#89D360"/>
<path d="M16.8586 23.75C17.641 23.75 18.2752 23.1904 18.2752 22.5C18.2752 21.8096 17.641 21.25 16.8586 21.25C16.0762 21.25 15.4419 21.8096 15.4419 22.5C15.4419 23.1904 16.0762 23.75 16.8586 23.75Z" fill="#89D360"/>
</svg>
