<svg width="1414" height="1050" viewBox="0 0 1414 1050" fill="none" xmlns="http://www.w3.org/2000/svg">
<path opacity="0.6" fill-rule="evenodd" clip-rule="evenodd" d="M719.093 3.30161C716.46 5.93516 714.203 11.5785 714.203 15.7169H714.579V21.3603C714.579 25.4987 716.836 31.1421 719.469 33.7756L727.743 42.0525C730.376 44.6861 736.018 46.9434 740.156 46.9434H750.687C754.825 46.9434 758.21 43.5574 758.21 39.4189V16.8456C758.21 12.7072 760.466 7.06383 763.099 4.43027L767.558 0H722.41L719.093 3.30161ZM1002.98 0L956.428 46.5672C953.795 49.2007 948.153 51.4581 944.015 51.4581H821.775C817.637 51.4581 811.996 53.7154 809.363 56.349L775.135 90.5852C772.502 93.2187 766.861 95.4761 762.723 95.4761H653.647C649.51 95.4761 643.868 97.7334 641.235 100.367L581.807 159.81C579.174 162.444 574.284 162.444 571.652 159.81L540.057 128.207C537.424 125.574 538.177 123.316 542.314 123.316H580.679C584.816 123.316 590.458 121.059 593.091 118.426L604.751 106.763C607.384 104.129 607.384 99.2383 604.751 96.6047L562.248 54.0916C559.616 51.4581 553.974 49.2007 549.836 49.2007H391.488C387.35 49.2007 381.709 51.4581 379.076 54.0916L250.065 183.136C247.432 185.769 245.175 191.413 245.175 195.551V235.055C245.175 239.193 248.56 242.579 252.698 242.579H266.99C271.128 242.579 276.77 240.322 279.403 237.688L293.319 223.768C295.952 221.134 298.209 221.887 298.209 226.025V254.994C298.209 259.133 301.594 262.519 305.731 262.519H329.051C333.188 262.519 338.83 260.261 341.463 257.628L370.425 228.659C373.058 226.025 375.314 220.382 375.314 216.243V174.483C375.314 170.344 377.571 164.701 380.204 162.067L417.44 124.821C420.073 122.188 424.963 122.188 427.596 124.821L433.99 131.217C436.623 133.851 436.623 138.742 433.99 141.375L406.533 168.839C403.9 171.473 401.643 177.116 401.643 181.255V200.066C401.643 204.204 405.028 207.59 409.166 207.59H463.328C467.465 207.59 470.85 210.976 470.85 215.115V220.006C470.85 224.144 467.465 227.53 463.328 227.53H436.623C432.485 227.53 426.844 229.787 424.211 232.421L366.287 290.359C363.654 292.993 358.013 295.25 353.875 295.25H293.695C289.558 295.25 286.173 291.864 286.173 287.726V258.757C286.173 254.618 283.916 253.866 281.283 256.499L262.477 275.31C259.844 277.944 257.587 283.587 257.587 287.726V303.151C257.587 307.289 254.202 310.675 250.065 310.675H235.772C231.635 310.675 225.993 312.933 223.36 315.566L171.455 367.485C168.822 370.118 163.18 372.376 159.043 372.376H135.723C131.585 372.376 128.2 375.385 128.2 379.148C128.2 382.91 130.457 388.553 133.09 391.187L153.401 411.503C156.034 414.136 158.29 419.78 158.29 423.918V435.957C158.29 440.096 154.905 443.482 150.768 443.482H87.2026C83.0652 443.482 79.6801 446.868 79.6801 451.006V507.816C79.6801 511.954 81.9369 517.597 84.5697 520.231L92.0922 527.755C94.7251 530.389 100.367 532.646 104.504 532.646H138.732C142.869 532.646 148.511 530.389 151.144 527.755L198.159 481.856C200.792 479.223 203.049 473.579 203.049 469.441V460.412C203.049 456.273 206.434 452.887 210.572 452.887H233.891C238.029 452.887 243.671 450.63 246.303 447.996L254.954 439.343C257.587 436.71 262.477 436.71 265.11 439.343L299.337 473.579C301.97 476.213 307.612 478.47 311.749 478.47H315.134C319.272 478.47 324.914 480.728 327.546 483.361L335.821 491.638C338.454 494.272 340.711 499.915 340.711 504.053V504.806C340.711 508.944 344.096 512.33 348.233 512.33H354.628C358.765 512.33 362.15 508.944 362.15 504.806V493.895C362.15 489.757 359.893 484.114 357.26 481.48L310.621 434.829C307.988 432.195 307.988 427.304 310.621 424.671L313.254 422.037C315.887 419.403 320.776 419.403 323.409 422.037L371.553 470.193C374.186 472.827 376.443 478.47 376.443 482.609V484.49C376.443 488.628 378.699 494.272 381.332 496.905L398.258 513.835C400.891 516.469 406.533 518.726 410.67 518.726H418.945C423.082 518.726 426.467 515.34 426.467 511.202V488.628C426.467 484.49 429.852 481.104 433.99 481.104H458.062C462.199 481.104 465.584 477.718 465.584 473.579V455.521C465.584 451.382 467.841 445.739 470.474 443.105L497.931 415.641C500.564 413.008 505.454 413.008 508.086 415.641L518.242 425.799C520.875 428.433 525.764 428.433 528.397 425.799L553.221 400.969C555.854 398.335 560.744 398.335 563.377 400.969L566.01 403.602C568.643 406.236 568.643 411.127 566.01 413.76L561.496 418.275C558.863 420.908 558.863 425.799 561.496 428.433L584.064 451.006C586.697 453.64 588.953 459.283 588.953 463.421V463.798C588.953 467.936 585.568 471.322 581.431 471.322H500.564C496.427 471.322 490.785 473.579 488.152 476.213L457.686 506.687C455.053 509.321 455.053 514.211 457.686 516.845L482.134 541.299C484.767 543.933 490.409 546.19 494.546 546.19H532.911C537.048 546.19 540.433 549.576 540.433 553.715V585.317C540.433 589.456 537.048 592.842 532.911 592.842H388.479C384.341 592.842 378.7 595.099 376.067 597.733L369.296 604.505C366.663 607.138 361.022 609.396 356.884 609.396H352.371C348.233 609.396 342.591 607.138 339.959 604.505L286.173 550.705C283.54 548.071 277.898 545.814 273.761 545.814H124.815C120.678 545.814 115.036 548.071 112.403 550.705L5.58348 657.552C2.95061 660.186 0.693848 665.829 0.693848 669.967V820.456C0.693848 824.595 2.95061 830.238 5.58348 832.872L75.1666 902.473C77.7995 905.106 83.4414 907.364 87.5788 907.364H223.736C227.873 907.364 233.515 909.621 236.148 912.255L277.898 950.253C280.531 952.887 282.788 958.53 282.788 962.668V1002.17C282.788 1006.31 285.044 1011.95 287.677 1014.59L310.245 1037.16C312.878 1039.79 315.134 1045.44 315.134 1049.58V1050H593.843V993.895C593.843 989.756 596.1 984.113 598.733 981.479L687.498 887.424C690.131 884.79 692.388 879.147 692.388 875.009V843.782C692.388 839.644 689.003 836.258 684.865 836.258H649.133C644.996 836.258 639.354 834 636.721 831.367L553.598 748.222C550.965 745.588 548.708 739.945 548.708 735.806V703.451C548.708 699.313 546.451 693.669 543.818 691.036L519.746 666.958C517.114 664.324 517.114 659.433 519.746 656.8L528.021 648.523C530.654 645.889 535.544 645.889 538.177 648.523L577.293 687.65C579.926 690.283 582.183 695.927 582.183 700.065V736.559C582.183 740.697 584.44 746.341 587.073 748.974L643.115 805.031C645.748 807.665 651.39 809.922 655.528 809.922H696.901C701.039 809.922 706.68 807.665 709.313 805.031L785.667 728.658C788.3 726.025 788.3 721.134 785.667 718.5L754.072 686.897C751.439 684.264 745.798 682.007 741.66 682.007H729.624C725.487 682.007 719.845 679.749 717.212 677.116L677.719 637.612C675.086 634.979 675.086 630.088 677.719 627.454L692.012 613.158C694.644 610.524 699.534 610.524 702.167 613.158L743.541 654.542C746.174 657.176 751.815 659.433 755.953 659.433H845.095C849.232 659.433 854.874 661.691 857.507 664.324L927.466 734.301C930.099 736.935 932.356 742.578 932.356 746.717V809.17C932.356 813.308 934.612 818.951 937.245 821.585L967.335 851.683C969.968 854.316 975.61 856.574 979.747 856.574H980.5C984.637 856.574 990.279 854.316 992.912 851.683L1007.58 837.01C1010.21 834.377 1012.47 828.733 1012.47 824.595V787.349C1012.47 783.21 1014.73 777.567 1017.36 774.933L1075.66 716.619C1078.29 713.985 1083.93 711.728 1088.07 711.728H1107.25C1111.39 711.728 1117.03 713.985 1119.67 716.619L1158.78 755.746C1161.42 758.38 1167.06 760.637 1171.19 760.637H1180.22C1184.36 760.637 1187.74 764.023 1187.74 768.161V860.712C1187.74 864.851 1190 870.494 1192.63 873.128L1208.81 889.305C1211.44 891.939 1213.7 897.582 1213.7 901.72V905.859C1213.7 909.997 1215.95 915.641 1218.59 918.274L1245.29 944.986C1247.92 947.62 1252.81 949.877 1256.2 949.877C1259.58 949.877 1262.22 946.491 1262.22 942.352V923.918C1262.22 919.779 1259.96 914.136 1257.33 911.502L1209.18 863.346C1206.55 860.712 1204.29 855.069 1204.29 850.93V823.842C1204.29 819.704 1207.68 816.318 1211.82 816.318H1219.34C1223.48 816.318 1229.12 818.575 1231.75 821.209L1256.58 846.039C1259.21 848.673 1264.85 850.93 1268.99 850.93H1285.54C1289.67 850.93 1295.32 848.673 1297.95 846.039L1307.73 836.258C1310.36 833.624 1312.62 827.981 1312.62 823.842V800.517C1312.62 796.378 1310.36 790.735 1307.73 788.101L1276.89 757.251C1274.25 754.617 1274.25 749.727 1276.89 747.093L1307.73 716.243C1310.36 713.609 1316 711.352 1320.14 711.352H1367.16C1371.29 711.352 1376.94 709.095 1379.57 706.461L1414 672.02V543.761L1394.24 523.993C1391.6 521.36 1391.6 516.469 1394.24 513.835L1414 494.067V0H1002.98ZM1414 976.898C1412.98 979.108 1412.29 982.073 1412.29 984.865V993.142C1412.29 996.204 1413.11 998.854 1414 1000.03V976.898ZM1367.15 1050C1367.03 1046.77 1365.21 1044.31 1363.39 1044.31C1361.51 1044.31 1357.75 1042.43 1355.87 1040.55C1353.62 1038.67 1349.1 1036.78 1344.96 1036.78H1326.91C1322.77 1036.78 1318.26 1035.66 1316.76 1034.15C1314.87 1033.02 1310.74 1031.52 1306.6 1031.52H1299.83C1295.69 1031.52 1290.43 1033.4 1288.17 1035.66C1285.91 1037.91 1285.91 1041.68 1288.17 1043.93C1290.05 1046.19 1294.94 1048.07 1299.08 1048.07H1319.76C1322.23 1048.07 1325.23 1048.87 1327.73 1050H1367.15ZM113.908 248.975C111.275 251.608 109.018 257.252 109.018 261.39H107.889V270.796C107.889 274.934 110.146 280.577 112.779 283.211L134.97 305.408C137.603 308.042 137.603 312.933 134.97 315.566L119.925 330.615C117.293 333.249 117.293 338.139 119.925 340.773L128.2 349.05C130.833 351.683 136.475 353.941 140.612 353.941H151.144C155.281 353.941 160.923 351.683 163.556 349.05L180.482 332.12C183.115 329.486 183.115 324.595 180.482 321.962L178.225 319.705C175.592 317.071 173.335 311.428 173.335 307.289V303.903C173.335 299.765 171.079 294.121 168.446 291.488L155.281 278.32C152.648 275.687 150.392 270.043 150.392 265.905V243.331C150.392 239.193 147.007 235.807 142.869 235.807H134.594C130.457 235.807 124.815 238.064 122.182 240.698L113.908 248.975ZM76.295 302.775C72.1576 302.775 68.7725 306.161 68.7725 310.299H69.1486V323.467C69.1486 327.605 71.4053 333.249 74.0382 335.882L75.9189 337.763C78.5517 340.397 83.4413 340.397 86.0742 337.763L86.8265 337.011C89.4593 334.377 95.1012 332.12 99.2386 332.12H103C107.137 332.12 110.522 328.734 110.522 324.595V312.18C110.522 308.042 111.651 303.527 113.155 302.022C114.66 300.517 113.531 296.755 110.898 294.121L107.137 290.359C104.504 287.726 99.6148 287.726 96.9819 290.359L89.4594 297.884C86.8265 300.517 81.1846 302.775 77.0472 302.775H76.295ZM1268.24 1027C1272.37 1027 1275.76 1023.62 1275.76 1019.48V994.271C1275.76 990.133 1273.5 984.489 1270.87 981.856L1194.51 905.483C1191.88 902.849 1186.24 900.592 1182.1 900.592H1173.83C1169.69 900.592 1166.31 903.601 1166.31 906.235C1166.31 909.245 1168.56 914.136 1171.19 916.769L1209.56 955.144C1212.19 957.777 1214.45 963.421 1214.45 967.559V979.222C1214.45 983.361 1216.71 989.004 1219.34 991.638L1249.81 1022.11C1252.44 1024.75 1258.08 1027 1262.22 1027H1268.24ZM1405.52 942.352L1402.89 939.719C1400.26 937.085 1397.62 931.442 1398.75 928.056V927.68C1398.75 923.541 1401.01 917.898 1403.64 915.264L1408.53 910.373C1411.16 907.74 1411.16 902.849 1408.53 900.215L1399.5 891.186C1396.87 888.553 1391.98 888.553 1389.35 891.186L1356.62 923.918C1353.99 926.551 1348.35 928.808 1344.21 928.808H1343.84C1339.7 928.808 1336.31 932.194 1336.31 935.58C1336.31 938.966 1332.93 942.352 1328.79 942.352H1322.02C1318.64 942.352 1313.37 944.234 1311.11 946.491C1308.86 948.748 1306.98 953.263 1306.98 957.401V961.163C1306.98 965.302 1309.23 970.945 1311.87 973.579L1316 977.717C1318.64 980.351 1320.89 985.994 1320.89 990.133V992.39C1320.89 996.528 1324.28 999.914 1328.42 999.914H1353.62C1357.75 999.914 1362.27 1001.42 1364.52 1003.68C1366.4 1005.56 1370.54 1004.81 1373.17 1002.17L1383.33 992.014C1385.96 989.38 1388.22 983.737 1388.22 979.598V977.341C1388.22 973.203 1390.48 967.559 1393.11 964.926L1405.52 952.51C1408.15 949.877 1408.15 944.986 1405.52 942.352Z" fill="white" fill-opacity="0.09"/>
</svg>
