<svg width="679" height="902" viewBox="0 0 679 902" fill="none" xmlns="http://www.w3.org/2000/svg">
<path d="M284.949 0C407.314 0 499.73 16.8441 562.196 50.5322C624.663 84.2204 655.896 143.596 655.896 228.658C655.896 280.033 643.488 323.406 618.673 358.779C594.713 394.151 560.057 415.627 514.705 423.207V429.524C545.51 435.419 573.321 445.947 598.136 461.106C622.951 476.266 642.633 498.163 657.18 526.798C671.726 555.433 679 593.332 679 640.496C679 722.19 649.05 786.197 589.151 832.518C529.252 878.839 447.105 902 342.709 902H0V0H284.949ZM306.769 357.515C363.246 357.515 402.18 348.672 423.573 330.986C445.821 313.3 456.945 287.613 456.945 253.924C456.945 219.394 444.11 194.549 418.439 179.389C392.767 164.23 352.122 156.65 296.501 156.65H193.817V357.515H306.769ZM193.817 509.112V744.087H320.888C379.076 744.087 419.722 733.138 442.826 711.241C465.93 688.501 477.482 658.603 477.482 621.546C477.482 587.858 465.502 560.908 441.542 540.695C418.439 519.64 376.081 509.112 314.471 509.112H193.817Z" fill="#1356A7"/>
</svg>
